<svg width="360" height="307" viewBox="0 0 360 307" fill="none" xmlns="http://www.w3.org/2000/svg">
<g clip-path="url(#clip0)">
<path d="M316.502 294.865C320.438 302.516 329.041 305.934 329.041 305.934C329.041 305.934 331.261 296.948 327.325 289.297C323.388 281.646 314.786 278.228 314.786 278.228C314.786 278.228 312.566 287.214 316.502 294.865Z" fill="#F1F1F1"/>
<path d="M319.356 292.428C326.642 297.006 329.31 305.869 329.31 305.869C329.31 305.869 320.167 307.311 312.881 302.734C305.596 298.156 302.927 289.293 302.927 289.293C302.927 289.293 312.071 287.851 319.356 292.428Z" fill="#F1F1F1"/>
<path d="M216.981 300.637H211.872L209.442 280.931L216.982 280.931L216.981 300.637Z" fill="#FFB7B7"/>
<path d="M218.284 305.59L201.81 305.589V305.381C201.81 303.68 202.486 302.05 203.689 300.847C204.891 299.645 206.522 298.969 208.222 298.969H208.223L218.284 298.969L218.284 305.59Z" fill="#003554" fill-opacity="0.9"/>
<path d="M248.653 300.637H243.544L241.113 280.931L248.654 280.931L248.653 300.637Z" fill="#FFB7B7"/>
<path d="M249.956 305.59L233.482 305.589V305.381C233.482 303.68 234.158 302.05 235.36 300.847C236.563 299.645 238.193 298.969 239.894 298.969H239.894L249.956 298.969L249.956 305.59Z" fill="#003554" fill-opacity="0.9"/>
<path d="M233.817 189.638L223.765 169.409L226.354 152.63L214.269 149.297L213.019 171.8L228.691 193.098C228.578 193.896 228.699 194.709 229.04 195.44C229.38 196.17 229.924 196.786 230.608 197.213C231.291 197.64 232.083 197.86 232.888 197.846C233.694 197.831 234.478 197.584 235.146 197.133C235.814 196.682 236.336 196.048 236.65 195.306C236.965 194.564 237.057 193.747 236.917 192.954C236.776 192.161 236.408 191.425 235.858 190.837C235.308 190.248 234.599 189.832 233.817 189.638V189.638Z" fill="#FFB7B7"/>
<path d="M255.563 189.638L265.615 169.409L263.026 152.63L275.111 149.297L276.362 171.8L260.689 193.098C260.802 193.896 260.681 194.709 260.341 195.44C260 196.17 259.456 196.786 258.773 197.213C258.09 197.64 257.297 197.86 256.492 197.846C255.686 197.831 254.902 197.584 254.234 197.133C253.567 196.682 253.044 196.048 252.73 195.306C252.415 194.564 252.323 193.747 252.464 192.954C252.604 192.161 252.972 191.425 253.522 190.837C254.072 190.248 254.781 189.832 255.563 189.638V189.638Z" fill="#FFB7B7"/>
<path d="M248.854 120.504C254.926 120.504 259.848 115.581 259.848 109.509C259.848 103.437 254.926 98.5142 248.854 98.5142C242.781 98.5142 237.859 103.437 237.859 109.509C237.859 115.581 242.781 120.504 248.854 120.504Z" fill="#FFB9B9"/>
<path d="M237.942 109.45C237.942 109.45 236.749 107.661 237.208 105.734C237.482 104.64 237.59 103.51 237.529 102.384C238.042 100.715 238.687 99.0888 239.456 97.5209C240.42 95.7775 239.961 95.0434 242.989 94.4928C246.017 93.9422 244.778 89.9965 252.761 94.2634C253.031 94.6395 253.405 94.9273 253.838 95.0906C254.271 95.2539 254.742 95.2854 255.193 95.181C256.845 94.8598 257.441 97.1539 257.441 97.1539C257.441 97.1539 258.542 96.5116 258.955 97.4292C259.368 98.3468 262.312 96.8784 262.312 103.072C262.312 109.266 258.962 114.799 258.962 114.799C258.962 114.799 256.609 122.223 251.149 121.167C245.69 120.112 244.898 120.751 241.148 113.666C240.38 115.881 239.201 107.473 237.942 109.45Z" fill="#003554" fill-opacity="0.9"/>
<path d="M224.687 180.551L223.412 185.55C223.412 185.55 217.408 188.451 215.005 214.506L211.768 253.573L206.828 294.515L217.097 295.311L224.218 269.373L239.601 214.833L242.518 256.093L239.273 293.485L250.108 293.902L257.609 252.229C257.609 252.229 269.1 191.189 261.687 189.412L260.943 183.052L224.687 180.551Z" fill="#003554" fill-opacity="0.9"/>
<path d="M222.31 133.57L239.998 123.823L255.009 124.624L272.939 135.237L265.466 181.908C265.466 181.908 269.75 186.697 256.803 185.291C243.857 183.885 222.932 182.745 222.932 182.745C222.932 182.745 221.249 179.405 224.843 178.937C228.438 178.468 225.432 178.577 225.432 178.577C225.432 178.577 223.26 171.603 225.432 170.243L226.483 155.918L222.31 133.57Z" fill="#003554"/>
<path d="M227.188 134.294L222.31 133.57L211.977 152.005L228.766 159.407L227.188 134.294Z" fill="#003554"/>
<path d="M267.194 137.628L272.939 135.237L278.653 161.173L263.146 164.11L267.194 137.628Z" fill="#003554"/>
<path d="M134.541 306.259H359.54C359.662 306.259 359.779 306.21 359.865 306.124C359.952 306.038 360 305.921 360 305.798C360 305.676 359.952 305.559 359.865 305.473C359.779 305.387 359.662 305.338 359.54 305.338H134.541C134.419 305.338 134.302 305.387 134.216 305.473C134.13 305.559 134.081 305.676 134.081 305.798C134.081 305.921 134.13 306.038 134.216 306.124C134.302 306.21 134.419 306.259 134.541 306.259Z" fill="#CBCBCB"/>
<path d="M110.429 182.947H51.9935V212.394H110.429V182.947Z" fill="white"/>
<path d="M103.525 190.485H58.8976V191.997H103.525V190.485Z" fill="#007cbd"/>
<path d="M103.525 196.914H58.8976V198.427H103.525V196.914Z" fill="#007cbd"/>
<path d="M103.525 203.343H58.8976V204.856H103.525V203.343Z" fill="#007cbd"/>
<path d="M110.889 212.854H51.5334V182.486H110.889V212.854ZM52.4536 211.934H109.969V183.407H52.4536V211.934Z" fill="#003554"/>
<path d="M68.437 146.371C56.0657 146.381 43.9371 142.938 33.4165 136.429L33.1493 136.263L33.3145 135.996L68.2616 79.4373H135.056V79.7518C135.056 116.486 105.171 146.371 68.437 146.371Z" fill="#007cbd"/>
<path d="M25.5829 122.356L25.3681 122.223C13.5771 114.932 5.07691 103.349 1.65891 89.914C-1.7591 76.4791 0.172052 62.2419 7.04538 50.2029L7.17073 49.9841L53.8271 76.6448L25.5829 122.356Z" fill="#F1F1F1"/>
<path d="M135.056 70.5139H68.0454L82.4911 5.07007L82.7979 5.13749C97.6143 8.41227 110.869 16.6455 120.372 28.4759C129.874 40.3063 135.054 55.0253 135.056 70.1993V70.5139Z" fill="#007cbd"/>
<path d="M57.3721 60.2069L11.9686 34.2621L12.0906 34.049C17.5951 24.4335 26.0262 16.8269 36.1555 12.3376C46.2848 7.84822 57.583 6.7107 68.4039 9.09075L68.6437 9.14345L57.3721 60.2069Z" fill="#F1F1F1"/>
<path d="M227.301 0.460205H168.866V29.9079H227.301V0.460205Z" fill="white"/>
<path d="M220.397 7.99829H175.77V9.51108H220.397V7.99829Z" fill="#007cbd"/>
<path d="M220.397 14.4277H175.77V15.9405H220.397V14.4277Z" fill="#007cbd"/>
<path d="M220.397 20.8569H175.77V22.3697H220.397V20.8569Z" fill="#007cbd"/>
<path d="M227.761 30.3679H168.406V0H227.761V30.3679ZM169.326 29.4476H226.841V0.920239H169.326V29.4476Z" fill="#003554"/>
<path d="M81.7962 106.733H80.876V182.486H81.7962V106.733Z" fill="#003554"/>
<path d="M168.638 15.2182L99.5557 46.4646L99.9349 47.3031L169.018 16.0566L168.638 15.2182Z" fill="#003554"/>
</g>
<defs>
<clipPath id="clip0">
<rect width="360" height="306.258" fill="white"/>
</clipPath>
</defs>
</svg>
