<svg width="360" height="268" viewBox="0 0 360 268" fill="none" xmlns="http://www.w3.org/2000/svg">
<g clip-path="url(#clip0)">
<path d="M331.656 65.0028C290.796 8.14529 204.483 -14.9186 119.597 9.92175C74.7197 23.0541 31.4501 49.3667 10.0067 100.316C-28.3256 191.394 52.1579 220.482 104.785 229.753C130.233 234.236 154.201 241.766 176.102 252.018C215.506 270.463 285.252 286.807 337.845 209.976C375.965 154.289 358.872 102.875 331.656 65.0028Z" fill="#F2F2F2"/>
<path d="M94.7671 76.2519C94.6528 75.3483 94.4216 74.4633 94.0794 73.6192C94.0357 73.4596 93.9593 73.3108 93.855 73.1823C93.7507 73.0539 93.6208 72.9485 93.4735 72.873C93.2767 72.8218 93.0703 72.8195 92.8724 72.8663L89.786 73.3386C89.5277 73.3504 89.2804 73.4465 89.0819 73.6122C88.6799 74.0349 89.0757 74.7157 89.0634 75.2989C89.0496 75.9547 88.4669 76.487 87.835 76.6632C87.1899 76.7935 86.5246 76.7852 85.883 76.639L81.5674 75.9683C82.8384 75.5625 83.9697 74.8076 84.8322 73.7896C85.4001 73.1168 85.7023 71.8608 84.8815 71.5422C84.6376 71.4752 84.3833 71.4548 84.1319 71.482C82.1766 71.4972 80.638 69.8646 78.8075 69.1771C77.6359 68.7655 76.3642 68.7348 75.1742 69.0896C73.9842 69.4443 72.9369 70.1663 72.1819 71.1522L74.4809 71.263C74.6972 71.2511 74.9117 71.3083 75.0933 71.4264C75.5971 71.8403 74.9707 72.6354 75.0417 73.2836C75.1339 74.1258 76.2521 74.3056 77.0951 74.3908C77.938 74.4759 79.0073 75.1608 78.6018 75.9047C74.3653 77.3639 70.0541 73.0521 65.6048 73.5829C64.4787 73.7172 63.4153 74.1596 62.3159 74.4378C55.5997 76.137 48.6564 71.6032 41.7955 72.5634C40.2702 72.8234 38.7712 73.2188 37.3161 73.7448C36.3823 74.0514 35.4083 74.3827 34.7298 75.0938C34.0513 75.8048 33.7931 77.0209 34.4359 77.7644C32.6643 77.9103 30.8808 77.7408 29.1684 77.2637C29.6315 77.5211 30.0167 77.8984 30.2837 78.356C30.5506 78.8137 30.6895 79.3347 30.6856 79.8645C27.9195 80.3156 25.2266 81.1367 22.6794 82.3057C23.1548 83.0963 23.71 83.836 24.3365 84.5132L20.8346 86.7629C22.0177 87.061 22.6294 88.6743 21.9414 89.6818C23.1681 89.1361 23.9284 87.7243 25.2402 87.4381C26.0996 87.2506 26.974 87.6021 27.7893 87.9324C28.6046 88.2626 29.5006 88.5829 30.3446 88.335C31.1886 88.0872 31.8111 86.9928 31.2748 86.2956C34.8822 85.2431 38.6104 84.6606 42.3669 84.5626C42.6567 84.5262 42.9506 84.582 43.2069 84.722C43.6959 85.0613 43.5673 85.7941 43.5409 86.3887C43.5146 86.9832 43.978 87.7647 44.5094 87.4967C43.8842 88.0388 44.4187 89.0594 45.0185 89.6295C45.6183 90.1997 46.3413 90.9863 45.9741 91.7279C45.8782 91.9214 45.7157 92.0763 45.6234 92.2716C45.3512 92.8481 45.7834 93.5202 46.2932 93.903C46.803 94.2858 47.4274 94.5534 47.7815 95.0835C48.1356 95.6137 47.9748 96.5416 47.3416 96.6156L45.5418 94.3305C44.9269 94.9681 44.5053 95.767 44.326 96.6345C46.2345 98.1946 46.5216 101.37 44.9238 103.247C44.1073 104.207 42.9461 104.79 41.9327 105.538C40.9192 106.286 39.9815 107.351 39.984 108.611C39.9884 110.788 39.8106 112.809 40.6262 114.827C42.13 118.548 43.8663 122.17 45.8246 125.673C46.3389 126.593 47.0036 127.601 48.0454 127.759C46.7287 124.554 45.5435 121.299 44.4896 117.994C45.176 117.996 45.9692 118.051 46.3716 118.607C46.7048 119.067 46.6332 119.693 46.7368 120.252C46.8684 120.794 47.088 121.31 47.3868 121.78L53.6742 132.98C54.1954 133.909 54.7933 134.905 55.7894 135.281C56.4263 135.522 57.1632 135.476 57.7494 135.822C58.2089 136.094 58.5183 136.575 58.9868 136.831C60.3112 137.553 62.1531 136.168 63.3908 137.03C63.7447 137.277 63.9699 137.669 64.296 137.951C65.4392 138.941 67.3144 138.279 68.6341 139.017C69.4846 139.493 69.9254 140.445 70.3791 141.308C71.5154 143.469 73.354 145.586 75.7893 145.758C76.5543 145.812 77.3356 145.667 78.0834 145.837C78.8311 146.007 79.5672 146.659 79.4472 147.417C79.2414 148.715 79.883 150.137 79.7107 151.441C79.3968 153.815 76.0293 154.858 75.74 157.235C75.6767 157.756 75.7758 158.293 75.6519 158.803C75.5 159.427 75.031 159.935 74.8644 160.556C74.5486 161.732 75.3913 162.903 76.317 163.694C77.2427 164.485 78.347 165.168 78.8531 166.275C79.388 167.446 79.1253 168.811 79.2992 170.087C79.679 172.871 82.084 174.935 84.559 176.266C85.3131 176.672 86.1228 177.064 86.6109 177.768C87.2479 178.686 87.1845 179.896 87.3972 180.994C87.9181 183.68 90.18 185.894 90.2442 188.63C90.2899 190.575 89.2088 192.339 88.5631 194.174C87.9577 195.932 87.7386 197.8 87.9208 199.651C88.103 201.501 88.6822 203.291 89.6189 204.897C90.1019 205.713 90.6797 206.482 91.0214 207.366C91.6312 208.944 91.4334 210.738 91.9956 212.334C92.739 214.443 94.7817 216.186 94.5862 218.414C95.5135 220.339 97.5613 221.286 99.6204 221.859L103.311 222.886C104.017 223.083 104.756 223.281 105.475 223.139C106.195 222.996 106.882 222.399 106.863 221.665C105.053 221.257 103.185 220.823 101.694 219.721C100.202 218.618 99.1799 216.654 99.7459 214.887C100.008 214.068 100.567 213.122 100.036 212.445C99.732 212.057 99.1761 211.956 98.8333 211.603C98.2986 211.051 98.4823 210.124 98.8667 209.459C99.2512 208.794 99.8068 208.2 99.9619 207.447C100.04 207.027 99.9879 206.592 99.812 206.201C99.6361 205.811 99.3451 205.484 98.9779 205.264C99.6622 205.005 100.285 204.606 100.805 204.091C101.285 203.543 101.507 202.697 101.129 202.074C102.251 202.216 103.576 202.286 104.312 201.427C104.901 200.742 104.86 199.717 104.628 198.844C104.395 197.971 104.003 197.124 103.99 196.22C106.579 196.343 109.173 196.255 111.747 195.957C111.375 194.704 110.529 193.644 109.389 193.004C110.555 192.806 111.617 191.411 111.985 190.287C112.354 189.163 112.26 187.939 112.032 186.779C111.945 186.48 111.933 186.165 111.997 185.86C112.129 185.442 112.54 185.186 112.92 184.968L118.707 181.644C119.052 181.471 119.365 181.24 119.632 180.961C120.239 180.249 120.149 179.174 119.839 178.291C119.528 177.409 119.031 176.58 118.911 175.652C118.554 172.878 121.523 170.887 122.526 168.275C122.919 167.25 122.999 166.136 123.075 165.041C123.157 163.865 123.163 162.499 122.26 161.741C121.394 161.014 120.042 161.176 119.136 160.501C118.305 159.881 118.019 158.677 117.111 158.177C116.287 157.722 115.254 158.012 114.338 157.798C112.724 157.421 111.709 155.562 110.061 155.39C109.131 155.292 108.079 155.747 107.317 155.205C106.645 154.728 106.619 153.769 106.491 152.956C106.267 151.691 105.661 150.525 104.754 149.616C103.847 148.706 102.683 148.096 101.419 147.868C100.461 147.714 99.4173 147.773 98.6018 147.246C97.776 146.712 97.3973 145.714 96.7487 144.975C95.7032 143.784 94.0567 143.361 92.5142 142.999L86.2403 141.524C85.1265 141.262 83.6909 141.123 83.0932 142.099C82.9163 142.47 82.7911 142.864 82.721 143.269C82.497 144.003 82.0463 144.646 81.4337 145.107C80.821 145.569 80.0779 145.824 79.3112 145.836C78.7854 144.939 77.9335 144.28 76.9334 143.996C76.2972 143.819 75.6162 143.799 75.0095 143.538C74.679 143.377 74.385 143.15 74.1453 142.871C73.9056 142.592 73.7254 142.267 73.6156 141.916C73.5058 141.565 73.4688 141.196 73.5069 140.83C73.5449 140.464 73.6572 140.11 73.8368 139.789C74.1986 139.145 74.3382 138.4 74.2344 137.669C74.1305 136.938 73.7888 136.261 73.262 135.743C72.195 134.785 70.6516 134.554 69.221 134.649C68.8463 133.832 69.4728 132.909 70.1479 132.315C70.8231 131.721 71.6429 131.137 71.7899 130.25C72.0212 128.854 70.2404 127.794 68.8883 128.21C67.5362 128.626 66.6732 129.94 66.1028 131.234C65.7755 131.977 65.4972 132.759 64.9809 133.385C64.4646 134.012 63.6332 134.46 62.8468 134.259C61.7335 133.975 61.3035 132.652 61.0571 131.53C60.7265 130.024 60.394 128.497 60.4632 126.957C60.5325 125.417 61.0517 123.835 62.1875 122.792C64.0382 121.093 66.8773 121.26 69.375 121.531C68.7849 120.866 68.9307 119.746 69.5621 119.12C69.8954 118.824 70.2959 118.613 70.7289 118.507C71.1618 118.401 71.6142 118.401 72.0468 118.509C72.7994 118.666 73.4774 119.071 73.9717 119.66C74.6814 120.526 74.8833 121.694 75.4198 122.676C75.9562 123.659 77.1626 124.496 78.15 123.969C79.0028 123.514 79.1382 122.332 78.9259 121.388C78.7137 120.445 78.2628 119.528 78.3397 118.565C78.4864 116.726 80.3925 115.619 82.0745 114.862C83.7564 114.105 85.6824 113.086 85.9489 111.261C85.958 110.904 86.0254 110.55 86.1485 110.214C86.335 109.918 86.5942 109.674 86.9015 109.506C91.8104 106.262 96.8009 102.978 102.412 101.206C102.703 101.114 102.738 101.216 103.035 101.144C103.452 100.903 103.176 100.238 102.776 99.9694C102.377 99.7012 101.844 99.4956 101.743 99.0255C101.668 98.6799 101.872 98.3406 101.925 97.9911C102.055 97.1323 101.027 96.3393 100.229 96.6827C99.7785 96.0858 100.67 95.3923 101.391 95.1937C103.557 94.5978 105.779 94.2347 108.022 94.1106C108.281 94.0695 108.546 94.1146 108.776 94.239C109.153 94.4998 109.105 95.0982 108.838 95.4706C108.571 95.843 108.156 96.0768 107.823 96.3918C107.46 96.7459 107.201 97.1929 107.074 97.6842C106.947 98.1754 106.958 98.692 107.105 99.1777C108.275 99.7731 109.548 100.386 110.844 100.176C112.141 99.9665 113.292 98.5098 112.682 97.3464C112.115 96.263 110.41 96.0186 110.117 94.8312C109.774 93.441 111.742 92.2045 111.299 90.8429C111.104 90.2464 110.51 89.8954 110.054 89.4648C109.515 88.9368 109.149 88.2583 109.003 87.5183C108.857 86.7783 108.938 86.0115 109.236 85.3185C108.493 85.4492 107.729 85.3998 107.009 85.1745C106.289 84.9493 105.634 84.5546 105.098 84.0237C104.108 83.025 103.319 81.4495 101.914 81.4942C100.624 81.5352 99.5132 83.0397 98.3074 82.5807C98.0107 82.4678 97.698 82.2379 97.4105 82.3726C97.3163 82.4338 97.2373 82.5155 97.1793 82.6117C97.1214 82.7079 97.086 82.8161 97.076 82.9279C96.7695 84.393 97.2967 86.0623 96.4982 87.3283C95.6293 88.7059 93.6194 88.8969 92.566 90.1393C91.9942 90.8136 91.7727 91.7223 91.2471 92.4333C90.7215 93.1443 89.6059 93.5963 88.9751 92.9767C89.2851 92.3394 89.3698 91.6158 89.2153 90.9242C89.0607 90.2325 88.6762 89.6137 88.1244 89.169C87.5388 88.7869 86.9075 88.4798 86.2454 88.255C85.5056 87.9418 84.8018 87.5496 84.1463 87.0851C83.8179 86.887 83.5511 86.6015 83.3757 86.2605C83.2369 85.8336 83.2556 85.371 83.4284 84.9566C83.7482 84.0396 84.3125 83.2274 85.0602 82.6076C85.808 81.9878 86.7108 81.5841 87.6712 81.4399C88.5111 81.3257 89.4885 81.3659 90.0443 80.726C90.3384 80.3875 90.4927 79.8756 90.9196 79.738C91.1926 79.6832 91.4761 79.7181 91.7276 79.8376L94.8623 80.9409C95.2121 81.0988 95.5971 81.1625 95.979 81.1256C96.1684 81.1001 96.3412 81.0039 96.4626 80.8563C96.584 80.7088 96.6451 80.5207 96.6337 80.33C96.5335 79.8094 95.7325 79.5596 95.8054 79.0345C95.8462 78.8644 95.9377 78.7106 96.0678 78.5935C97.199 77.3894 98.5825 76.4504 100.119 75.8435C101.656 75.2367 103.308 74.9771 104.956 75.0834C105.352 75.7332 104.726 76.5027 104.206 77.0574C103.685 77.6122 103.267 78.6033 103.896 79.0303C104.154 79.162 104.441 79.2266 104.731 79.2183C105.503 79.3227 106.253 79.5502 106.952 79.8921C108.036 80.3635 109.098 80.8793 110.14 81.4394C110.048 80.7526 109.96 80.0291 110.22 79.3869C110.481 78.7447 111.22 78.241 111.867 78.4911C112.489 78.7322 112.809 79.5568 113.472 79.6324C114.358 79.7331 114.707 78.4256 114.337 77.6151C113.967 76.8046 113.235 76.126 113.174 75.2373C113.133 74.6377 113.361 73.8941 112.882 73.5311C112.712 73.4221 112.518 73.3542 112.317 73.3329L100.359 71.1324C99.6488 71.0017 98.6229 71.1019 98.5914 71.8232C98.5738 72.2258 98.9335 72.6242 98.7742 72.9944C98.6041 73.3895 98.0456 73.3534 97.6388 73.4931C97.0076 73.71 96.6908 74.4595 96.7514 75.1242C96.8624 75.7846 97.1182 76.4123 97.5004 76.9623C96.7226 76.637 95.5449 76.5772 94.7671 76.2519Z" fill="#003554"/>
<path d="M85.2255 66.1006C84.4714 65.8511 83.6589 65.8394 82.898 66.0673C82.137 66.2952 81.4646 66.7516 80.9718 67.3745C80.7749 67.6338 80.6096 67.9911 80.7744 68.2719C81.0108 68.6743 81.6129 68.5154 82.0569 68.3714C82.7094 68.1383 83.4197 68.1213 84.0826 68.3231C84.4995 68.4662 84.8724 68.7192 85.2911 68.8569C85.495 68.9421 85.7181 68.9703 85.9367 68.9383C86.1553 68.9064 86.3611 68.8156 86.532 68.6756C86.8194 68.3825 86.8374 67.9269 86.8379 67.5164C86.8579 67.3791 86.8469 67.239 86.8058 67.1065C86.7647 66.9739 86.6945 66.8522 86.6004 66.7502C86.4328 66.6532 86.2445 66.5974 86.051 66.5877C85.6178 66.5075 85.2261 66.2787 84.9436 65.9407" fill="#003554"/>
<path d="M89.5374 64.9001C89.3687 64.8909 89.2004 64.9253 89.0488 65C88.8971 65.0746 88.7673 65.187 88.6716 65.3264C88.576 65.4657 88.5178 65.6273 88.5027 65.7956C88.4876 65.964 88.516 66.1333 88.5853 66.2875C89.1036 66.4288 89.645 66.4641 90.1773 66.3913C90.4427 66.3501 90.69 66.2312 90.8881 66.0497C91.0861 65.8681 91.2259 65.632 91.2899 65.3711C90.6633 65.4852 90.0167 65.3617 89.4762 65.0247" fill="#003554"/>
<path d="M104.004 62.895C102.594 63.1949 101.224 63.6604 99.9222 64.2817C100.536 64.5176 101.057 64.9442 101.41 65.4988C101.763 66.0535 101.928 66.7067 101.881 67.3623C101.826 67.614 101.832 67.8753 101.9 68.124C102.05 68.4875 102.484 68.6238 102.866 68.7171C103.552 68.926 104.269 69.0174 104.985 68.9877C105.344 68.9689 105.692 68.861 105.998 68.6739C106.305 68.4867 106.56 68.2261 106.74 67.9156C106.844 67.621 106.965 67.3329 107.105 67.0532C108.02 65.6589 110.74 67.3448 111.723 65.9972C112.069 65.5225 112.037 64.8079 112.489 64.4318C112.722 64.2679 112.993 64.1646 113.276 64.1313C115.253 63.7385 117.25 63.4542 119.257 63.2794C120.209 63.1966 121.449 62.855 121.456 61.9002C117.873 61.1965 114.158 61.6963 110.888 63.3219C109.71 63.912 108.152 65.1532 107.017 64.3709C106.592 64.078 106.613 63.2893 106.028 62.96C105.43 62.6232 104.639 62.7602 104.004 62.895Z" fill="#003554"/>
<path d="M115.723 65.0863L117.405 65.4095C117.095 65.3958 116.786 65.4483 116.498 65.5635C116.211 65.6786 115.951 65.8538 115.736 66.0773C115.521 66.3009 115.357 66.5676 115.253 66.8598C115.15 67.152 115.11 67.4628 115.136 67.7716C116.712 68.2978 118.429 67.7858 120.088 67.8557C121.747 67.9257 123.678 69.1109 123.395 70.7473C123.309 71.242 123.023 71.7365 123.172 72.2161C123.276 72.5523 123.572 72.7908 123.74 73.1005C124.088 73.7457 123.81 74.5617 123.369 75.1482C122.929 75.7347 122.337 76.2027 121.951 76.826C120.989 78.3761 121.536 80.3802 122.108 82.1121C122.274 82.7664 122.58 83.377 123.004 83.9016C123.853 84.8037 125.235 84.8821 126.473 84.9002C127.375 84.9133 128.407 84.8688 128.977 84.1706C129.721 83.259 129.201 81.8367 129.691 80.7668C130.135 79.7951 131.269 79.3783 132.296 79.0826C134.177 78.541 136.095 78.0805 137.873 77.2624C140.082 76.2465 142.146 74.6633 144.574 74.5326C145.255 74.4959 145.953 74.5763 146.609 74.3897C147.265 74.2031 147.888 73.6359 147.838 72.9556C147.796 72.3744 147.304 71.9477 146.92 71.5095C146.536 71.0714 146.234 70.3976 146.587 69.9341L152.95 68.7456C152.499 67.5164 152.148 65.8975 153.184 65.0974C153.558 64.8087 154.059 64.6933 154.377 64.3443C154.92 63.7495 154.647 62.7249 154.02 62.219C153.394 61.7131 152.547 61.5957 151.745 61.529C148.955 61.2973 146.149 61.4504 143.353 61.6037C137.889 61.9032 132.424 62.2027 126.96 62.5023C125.86 62.5626 124.59 62.4704 123.581 62.8457C122.726 63.1635 122.119 63.7467 121.142 63.9516C119.339 64.3299 117.354 64.0739 115.723 65.0863Z" fill="#003554"/>
<path d="M145.855 78.3816C145.684 78.3544 145.509 78.3942 145.366 78.4926C145.271 78.5967 145.215 78.7298 145.206 78.8701C145.098 79.4893 145.227 80.1267 145.569 80.6546C145.742 80.9136 145.982 81.1213 146.264 81.2561C146.545 81.391 146.857 81.4481 147.168 81.4215C147.925 81.3249 148.484 80.6788 149.18 80.3635C150.253 79.878 154.811 79.1211 151.658 77.4179C150.571 76.8309 149.869 77.3491 149.013 77.7356C148.039 78.2341 146.947 78.4574 145.855 78.3816V78.3816Z" fill="#003554"/>
<path d="M173.469 64.1249C173.1 64.2753 172.793 64.5433 172.593 64.8872C172.501 65.0618 172.479 65.2652 172.533 65.4551C172.587 65.645 172.711 65.807 172.881 65.9076C173.019 65.9575 173.165 65.9806 173.311 65.9757L174.808 66.0205C175.443 66.0395 176.238 66.1749 176.409 66.7877C176.535 67.2427 176.252 67.8274 176.594 68.1525C176.741 68.2664 176.918 68.3354 177.103 68.3511C177.596 68.4778 178.111 68.4944 178.612 68.3998C179.701 68.1077 179.128 67.443 179.471 66.8511C179.996 65.9455 179.905 66.4937 180.83 65.9747C181.513 65.5914 182.396 64.8961 181.826 63.9191C180.834 62.2202 174.931 63.3951 173.469 64.1249Z" fill="#003554"/>
<path d="M203.012 63.2708L202.143 63.3868C200.183 63.6483 198.212 63.9123 196.324 64.5009C197.141 64.8239 197.999 65.0343 198.873 65.1262C199.354 65.1497 199.831 65.2177 200.3 65.3291C201.134 65.5773 201.974 66.2183 202.78 65.8899C203.279 65.6863 203.442 65.1663 203.856 64.8907C204.141 64.7004 205.225 64.3923 205.346 64.2003C206.325 62.6474 203.765 63.1703 203.012 63.2708Z" fill="#003554"/>
<path d="M206.829 67.2212C205.668 67.8704 204.591 68.6592 203.621 69.5701C203.213 69.954 202.796 70.4315 202.833 70.9907C202.882 71.734 203.674 72.1652 204.36 72.4556L207.138 73.632C207.476 73.1569 207.167 72.5011 206.819 72.0342C206.47 71.5673 206.056 71.0272 206.21 70.4654C206.386 69.8242 207.168 69.6058 207.823 69.4953C208.891 69.3153 211.772 69.3298 211.426 67.6085C211.018 65.5803 207.901 66.6219 206.829 67.2212Z" fill="#003554"/>
<path d="M206.27 181.997C206.006 182.763 205.98 183.665 206.438 184.333C206.951 185.084 207.979 185.363 208.868 185.173C209.753 184.938 210.542 184.43 211.124 183.723C211.656 183.13 212.094 182.458 212.422 181.733C212.879 180.601 213.202 179.42 213.383 178.213L214.246 173.684C214.439 172.671 214.431 169.568 212.571 170.579C212.063 170.855 210.886 173.036 210.353 173.655C209.393 174.769 209.266 175.851 208.761 177.201C208.128 178.893 206.855 180.303 206.27 181.997Z" fill="#003554"/>
<path d="M304.541 205.176C303.932 204.938 303.341 204.657 302.772 204.334C302.203 205.901 301.9 207.552 301.876 209.219L306.042 206.862C306.669 206.507 307.379 206.014 307.366 205.294C307.371 205.205 307.353 205.117 307.312 205.037C307.272 204.958 307.211 204.891 307.135 204.843C307.043 204.806 306.942 204.794 306.843 204.809C306.226 204.861 305.662 205.165 305.08 205.376C304.497 205.587 303.815 205.699 303.281 205.385" fill="#003554"/>
<path d="M326.517 206.576C326.06 206.7 325.613 206.86 325.181 207.055C324.225 207.541 323.575 208.465 322.714 209.106C321.891 209.719 320.9 210.056 319.927 210.383C319.641 210.636 319.772 211.145 320.083 211.368C320.417 211.558 320.8 211.644 321.183 211.615C322.194 211.637 323.259 211.647 324.144 211.159C324.643 210.835 325.11 210.465 325.538 210.052C326.573 209.189 327.816 208.619 329.047 208.068C329.495 207.899 329.909 207.652 330.27 207.337C331.043 206.575 331.097 205.4 329.982 205.141C329.082 204.931 327.375 206.298 326.517 206.576Z" fill="#003554"/>
<path d="M336.227 200.233C336.277 199.708 336.207 199.18 336.023 198.686C335.839 198.193 335.545 197.748 335.164 197.385C335.152 198.434 335.12 199.551 334.531 200.418C334.11 201.036 333.451 201.454 332.991 202.042C332.531 202.631 332.326 203.564 332.866 204.08C333.211 204.343 333.632 204.488 334.066 204.493C335.141 204.62 336.385 204.69 337.139 203.914C337.551 203.49 337.751 202.862 338.253 202.55C338.44 202.472 338.607 202.352 338.741 202.2C338.949 201.871 338.619 201.437 338.249 201.318C337.878 201.199 337.47 201.255 337.097 201.142C336.724 201.03 336.383 200.611 336.574 200.272" fill="#003554"/>
<path d="M318.969 161.782C318.405 161.919 317.821 161.953 317.245 161.883C316.288 161.707 315.543 160.986 314.77 160.395C312.933 158.996 310.7 158.216 308.392 158.166C306.292 158.126 304.173 158.695 302.111 158.298C302.246 159.048 302.887 159.61 303.571 159.944C304.255 160.278 305.01 160.446 305.698 160.773C306.799 161.303 307.672 162.211 308.157 163.332C308.379 163.849 308.518 164.412 308.854 164.863C309.539 165.785 310.839 165.988 311.985 165.912C313.481 165.814 315.042 165.384 316.433 165.941C317.497 166.367 318.259 167.299 319.147 168.023C320.036 168.747 321.287 169.285 322.308 168.762C321.248 168.419 320.326 167.746 319.675 166.842C319.025 165.937 318.681 164.849 318.693 163.735C319.693 163.827 322.576 163.791 322.42 162.091C322.289 160.65 319.828 161.626 318.969 161.782Z" fill="#003554"/>
<path d="M305.879 173.505C306.057 172.531 307.028 171.67 306.726 170.727C306.516 170.075 305.76 169.753 305.075 169.737C304.391 169.721 303.718 169.925 303.033 169.944C302.587 169.92 302.141 169.927 301.696 169.963C300.337 170.186 299.499 171.611 298.218 172.118C297.439 172.426 296.564 172.367 295.754 172.58C293.915 173.063 292.751 174.801 291.466 176.202C289.389 178.455 286.683 180.033 283.699 180.731C282.654 180.973 281.53 181.128 280.699 181.807C279.598 182.706 279.328 184.248 279.083 185.648C278.406 189.514 277.372 193.309 275.995 196.984L280.361 197.541C281.191 197.647 282.051 197.751 282.851 197.505C283.432 197.286 283.983 196.993 284.489 196.633C286.434 195.425 288.61 194.64 290.877 194.327C292.021 194.17 293.22 194.141 294.293 194.566C295.366 194.991 296.286 195.955 296.376 197.105C296.84 196.961 297.335 196.946 297.807 197.06C298.279 197.175 298.711 197.416 299.057 197.757C299.741 198.454 300.188 199.348 300.337 200.313C300.452 200.91 300.567 201.626 301.121 201.876C301.573 202.081 302.092 201.861 302.587 201.821C304.266 201.687 305.659 203.644 307.309 203.307C309.078 202.945 309.513 200.295 311.239 199.764C312.23 199.46 313.621 199.83 314.096 198.908C314.514 198.095 313.679 197.157 313.766 196.247C313.872 195.126 315.194 194.65 316.213 194.172C319.727 192.523 321.394 187.794 319.691 184.306C318.682 182.24 316.697 180.613 316.331 178.343C316.049 176.596 316.737 174.559 315.624 173.184C315.057 172.485 314.098 172.099 313.761 171.264C313.549 170.739 313.634 170.143 313.52 169.588C313.406 169.033 312.921 168.453 312.374 168.597C310.783 169.014 310.275 173.928 309.424 175.122C308.129 176.937 305.471 175.741 305.879 173.505Z" fill="#003554"/>
<path d="M276.478 163.638C275.934 163.486 275.34 163.336 274.82 163.554C274.299 163.771 273.995 164.536 274.413 164.916C277.683 164.788 280.973 164.662 284.216 165.106C287.952 165.617 291.649 166.885 295.401 166.512C293.258 165.88 291.079 165.374 288.876 164.998L285.203 164.296C284.217 164.09 283.222 163.936 282.22 163.835C280.124 163.662 278.538 164.216 276.478 163.638Z" fill="#003554"/>
<path d="M279.751 152.248C279.48 152.226 279.144 152.206 279.003 152.44C278.869 152.663 279.023 152.957 278.95 153.207C278.852 153.549 278.404 153.636 278.052 153.59C277.699 153.543 277.318 153.432 277.006 153.602C276.847 153.71 276.728 153.867 276.667 154.048C276.605 154.23 276.603 154.427 276.663 154.609C276.791 154.971 276.997 155.3 277.268 155.573C277.73 156.155 278.256 156.683 278.837 157.147C279.96 157.976 281.483 158.376 282.191 159.581C282.291 159.814 282.444 160.021 282.639 160.184C282.979 160.399 283.422 160.235 283.788 160.068L285.071 159.482C285.302 159.399 285.508 159.258 285.67 159.074C285.963 158.676 285.783 158.111 285.537 157.683C285.291 157.254 284.977 156.811 285.029 156.32C285.123 155.445 286.249 155.11 286.712 154.36C287.179 153.605 286.875 152.632 286.929 151.746C286.992 150.71 287.643 149.362 286.595 148.588C285.705 147.93 284.854 148.538 284.215 149.264C282.867 150.796 282.229 152.455 279.751 152.248Z" fill="#003554"/>
<path d="M287.537 136.766C287.975 137.604 288.888 138.105 289.365 138.921C289.883 139.806 289.824 140.95 290.385 141.807C290.961 142.687 292.121 143.155 292.444 144.156C292.796 145.249 291.996 146.577 292.634 147.532C292.753 147.688 292.903 147.818 293.075 147.913C293.247 148.008 293.436 148.066 293.632 148.084C293.827 148.102 294.024 148.079 294.21 148.017C294.396 147.955 294.568 147.855 294.713 147.723C294.982 147.43 295.126 147.044 295.114 146.646C295.102 146.249 294.936 145.872 294.65 145.595C294.272 145.251 293.73 145.102 293.415 144.7C293.25 144.468 293.141 144.201 293.095 143.921C292.923 143.112 292.95 142.273 293.175 141.476C293.259 141.274 293.281 141.052 293.236 140.837C293.094 140.424 292.536 140.395 292.143 140.204C291.253 139.769 291.274 138.512 291.43 137.533C291.326 138.185 289.005 137.076 288.762 136.707C288.279 135.974 288.542 134.559 288.446 133.749C287.404 134.251 287.002 135.741 287.537 136.766Z" fill="#003554"/>
<path d="M264.15 149.666C263.721 149.186 263.076 148.684 262.502 148.974C262.063 149.194 261.943 149.801 262.115 150.26C262.324 150.707 262.646 151.091 263.049 151.375C264.246 152.362 265.535 153.253 266.58 154.401C268.449 156.455 269.439 159.226 271.471 161.118C271.88 161.557 272.421 161.849 273.012 161.951C273.604 162.007 274.269 161.628 274.337 161.037C274.393 160.55 274.054 160.114 273.722 159.754C272.932 158.895 272.068 158.104 271.323 157.207C270.978 156.862 270.762 156.411 270.709 155.926C270.706 155.443 271.146 154.937 271.614 155.057C271.045 154.911 270.623 153.963 269.787 153.785C269.089 153.636 268.92 154.068 268.089 153.712C266.504 153.032 265.26 150.908 264.15 149.666Z" fill="#003554"/>
<path d="M301.396 102.961C300.941 102.826 300.494 102.667 300.057 102.483C298.88 102.13 297.322 102.995 297.479 104.214C297.583 105.023 298.337 105.569 298.753 106.272C299.371 107.313 299.206 108.634 298.882 109.801C298.802 110.162 298.651 110.504 298.436 110.805C298.137 111.123 297.779 111.381 297.382 111.564C295.792 112.455 294.391 113.646 293.254 115.07C293.131 115.202 293.045 115.364 293.005 115.54C292.949 115.952 293.363 116.251 293.596 116.595C294.116 117.357 293.74 118.383 293.792 119.304C293.784 119.434 293.809 119.564 293.866 119.682C293.922 119.799 294.008 119.901 294.114 119.976C294.428 120.135 294.799 119.865 294.968 119.557C295.531 118.537 295.107 116.899 296.164 116.407C296.364 116.314 296.606 116.275 296.739 116.1C296.951 115.821 296.747 115.409 296.854 115.076C297.015 114.576 297.698 114.554 298.223 114.576C299.127 114.614 300.03 114.493 300.892 114.22C301.23 114.14 301.538 113.962 301.776 113.709C302.092 113.315 302.064 112.754 302 112.253C301.684 109.755 300.893 107.34 299.669 105.139C300.597 105.258 301.607 105.361 302.408 104.877C302.856 104.606 303.394 103.796 303.171 103.245C302.82 102.373 302.184 103.107 301.396 102.961Z" fill="#003554"/>
<path d="M182.422 116.701C182.533 117.297 182.642 117.924 182.447 118.498C182.251 119.071 181.637 119.551 181.057 119.375C180.607 119.238 180.347 118.786 180.028 118.441C178.251 116.523 174.241 117.633 173.144 115.26C172.696 114.291 173 113.131 172.694 112.108C172.502 111.517 172.118 111.007 171.604 110.657C171.09 110.308 170.474 110.139 169.854 110.178C169.288 110.26 168.737 110.424 168.219 110.666C164.748 112.056 161.104 112.968 157.387 113.375C156.681 113.418 155.982 113.545 155.306 113.754C153.78 114.307 152.737 115.722 151.995 117.166C151.253 118.609 150.705 120.172 149.71 121.455C148.665 122.803 147.199 123.747 145.833 124.768C145.306 125.107 144.868 125.567 144.554 126.109C144.257 126.717 144.274 127.425 144.297 128.101L144.576 136.314C144.612 137.371 144.657 138.465 145.13 139.41C145.721 140.591 146.887 141.364 147.696 142.407C148.522 143.478 148.952 144.803 148.914 146.155C148.897 146.699 148.843 147.342 149.266 147.683C149.524 147.85 149.825 147.937 150.132 147.932L161.242 148.842C163.196 149.002 165.362 149.265 166.638 150.754C167.24 151.456 167.724 152.467 168.647 152.542C169.042 152.575 169.427 152.412 169.823 152.381C170.821 152.302 171.698 153.059 172.252 153.894C173.09 155.166 173.47 156.685 173.33 158.202C173.239 159.154 172.944 160.08 172.881 161.034C172.638 164.665 175.717 167.82 175.776 171.459C175.811 173.599 174.795 175.599 173.805 177.497C175.404 179.918 174.094 183.144 174.731 185.975C175.335 188.661 177.575 190.764 178.133 193.46C178.388 194.695 178.403 196.214 179.491 196.849C179.969 197.082 180.498 197.188 181.029 197.157C184.228 197.195 187.391 196.475 190.258 195.056C191.604 194.388 192.999 193.391 193.234 191.907C193.423 190.711 192.816 189.372 193.434 188.33C194.162 187.101 196.027 187.198 197.098 186.254C198.835 184.722 197.48 181.799 198.184 179.592C198.817 177.608 200.995 176.554 202.075 174.774C202.5 174.008 202.805 173.181 202.979 172.323C203.474 170.272 203.782 168.18 203.899 166.073C203.928 164.793 204.022 163.516 204.182 162.245C205.346 155.013 212.496 150.17 214.817 143.222C215.039 142.559 215.143 141.675 214.553 141.3C214.203 141.133 213.806 141.091 213.429 141.182L208.307 141.828C207.671 141.908 206.997 141.983 206.412 141.719C205.828 141.454 205.41 140.715 205.719 140.154C206.589 138.578 204.8 136.587 204.005 134.973C201.864 130.625 199.315 126.49 196.391 122.625C196.204 122.426 196.087 122.172 196.057 121.9L197.511 121.948C197.02 120.188 196.211 118.261 194.5 117.617C193.536 117.254 192.469 117.38 191.44 117.436C188.495 117.597 185.337 117.152 182.422 116.701Z" fill="#003554"/>
<path d="M191.443 77.0249C192.214 77.8435 193.077 78.7113 194.193 78.854C196.162 79.106 197.579 77.0691 198.48 75.2997C198.514 75.7508 198.722 76.1711 199.06 76.4711C199.399 76.7712 199.841 76.9273 200.293 76.9064C200.779 76.8246 201.243 76.6432 201.656 76.3735C205.558 74.2407 209.93 73.1106 214.377 73.0849C214.335 72.748 214.418 72.4072 214.612 72.1283C214.806 71.8493 215.096 71.6521 215.426 71.5745C216.331 71.3952 217.145 72.177 217.581 72.9891C218.018 73.8013 218.29 74.7426 218.983 75.3504C219.676 75.9583 221.018 75.9318 221.291 75.0516C221.554 74.2065 220.674 73.4858 219.942 72.9875C219.211 72.4893 218.44 71.5671 218.932 70.8318C222.669 70.0047 226.429 69.1743 230.253 69.0099C230.904 69.0326 231.553 68.9208 232.159 68.6817C232.742 68.3955 233.205 67.7459 233.048 67.1156C232.214 67.3117 231.34 67.2549 230.538 66.9524C229.736 66.6499 229.042 66.1154 228.545 65.417C233.851 64.9792 239.494 64.606 244.196 67.1025C244.76 68.3138 241.885 69.3217 242.654 70.4142C242.899 70.7626 243.391 70.8035 243.817 70.8114C247.085 70.8721 250.371 70.9316 253.602 70.4383C254.783 70.258 255.975 70.0035 257.16 70.1497C259.135 70.3932 260.823 71.7105 262.766 72.14C263.556 72.3148 264.443 72.3207 265.109 71.8609C265.775 71.4011 266.062 70.3541 265.516 69.7563C267.345 67.964 270.38 68.4082 272.792 69.2663C275.205 70.1244 277.491 71.5082 280.044 71.6995C281.875 71.8367 283.732 71.3441 285.541 71.6572C286.678 71.8539 287.736 72.3597 288.848 72.6705C290.949 73.2583 293.173 73.1342 295.355 73.1625C300.923 73.2375 306.43 74.3318 311.604 76.3912C312.277 76.6103 312.893 76.9746 313.41 77.4584C313.891 77.9739 314.137 78.775 313.813 79.4017L308.467 78.6206C308.971 79.6121 310.274 79.7811 311.332 80.1232C312.391 80.4653 313.488 81.6339 312.852 82.5463C311.705 82.1812 310.666 83.3276 310.087 84.3824C309.508 85.4372 308.802 86.7004 307.6 86.7646C306.524 86.8222 305.223 85.9059 304.521 86.724C305.49 87.9464 306.32 89.2729 306.995 90.6791C307.688 92.1227 308.182 93.9416 307.245 95.2404C307.098 95.4723 306.874 95.6456 306.613 95.7306C305.848 95.9242 305.351 94.9885 304.803 94.4214C304.112 93.7067 303.066 93.5043 302.13 93.1691C301.194 92.8339 300.208 92.1746 300.135 91.183C300.089 90.5661 300.415 89.9926 300.655 89.4224C301.058 88.4614 301.235 87.4203 301.17 86.3801C301.118 85.5432 300.883 84.6726 300.282 84.0879C299.681 83.5031 298.643 83.3176 297.998 83.8532C297.697 84.1031 297.456 84.5028 297.065 84.5178C296.374 84.5442 295.844 83.3398 295.288 83.7509C295.353 84.189 295.262 84.636 295.031 85.0139C293.373 86.4563 290.825 85.8461 288.687 86.3557C287.67 86.6466 286.696 87.0717 285.792 87.6198C285.454 87.7645 285.166 88.0061 284.965 88.3143C284.698 88.8329 284.992 89.4972 285.462 89.842C285.961 90.148 286.522 90.3394 287.104 90.4023C289.71 90.896 292.355 91.6602 294.413 93.3345C296.471 95.0088 297.821 97.7765 297.169 100.348L292.029 95.4364C292.224 97.4988 292.335 99.5669 292.361 101.641C292.395 102.046 292.339 102.453 292.198 102.834C291.832 103.643 290.839 103.916 289.968 104.094C289.726 104.14 289.497 104.237 289.295 104.378C289.093 104.519 288.923 104.701 288.796 104.913C288.669 105.124 288.589 105.36 288.56 105.605C288.531 105.849 288.554 106.097 288.627 106.332C288.937 107.34 289.708 108.126 290.414 108.909C291.12 109.692 291.814 110.582 291.907 111.633C291.999 112.683 291.207 113.867 290.155 113.794C289.358 113.738 288.766 113.024 288.426 112.301C288.086 111.578 287.884 110.772 287.373 110.158C285.826 108.297 282.352 109.094 280.967 107.111C280.613 107.512 280.369 107.996 280.255 108.518C280.142 109.04 280.164 109.582 280.319 110.093C280.963 109.69 281.846 110.065 282.33 110.651C282.814 111.237 283.043 111.989 283.423 112.648C283.936 113.536 284.753 114.324 284.825 115.348C284.806 115.735 284.812 116.123 284.844 116.509C284.971 117.129 285.496 117.574 285.859 118.093C286.705 119.299 286.663 120.956 286.118 122.325C285.573 123.694 284.593 124.838 283.623 125.947C281.929 127.883 280.2 129.809 278.191 131.417C277.618 131.876 277.006 132.327 276.65 132.969C276.293 133.611 276.274 134.511 276.823 134.999C276.43 135.019 275.726 135.212 275.334 135.232C275.196 133.657 275.166 132.075 275.244 130.496C273.695 129.752 272.027 131.744 272.227 133.451C272.427 135.157 273.661 136.527 274.54 138.004C275.183 139.083 275.661 140.342 275.446 141.58C275.231 142.818 274.126 143.961 272.874 143.851C270.883 143.678 270.05 140.819 268.079 140.492C267.905 140.451 267.722 140.469 267.56 140.544C267.267 140.704 267.216 141.096 267.2 141.429C267.119 143.066 267.049 144.768 267.688 146.277C268.623 148.484 271.037 150.338 270.531 152.681C267.802 151.413 266.384 148.353 265.74 145.414C265.096 142.475 264.988 139.389 263.834 136.611C262.957 137.734 261.114 136.805 260.313 135.627C259.554 134.509 259.086 133.216 258.349 132.083C257.612 130.951 256.484 129.936 255.134 129.874C253.719 129.809 252.491 130.78 251.412 131.698C250.524 132.452 249.613 133.236 249.094 134.28C248.339 135.797 248.537 137.587 248.5 139.282C248.461 141.114 248.073 143.047 246.824 144.389C245.575 145.73 243.27 146.197 241.892 144.988C241.173 144.357 240.825 143.414 240.515 142.509C239.02 138.146 237.775 133.701 236.786 129.196C236.554 130.224 235.651 131.55 234.789 130.944C234.595 130.781 234.439 130.579 234.329 130.351C232.72 127.624 229.741 125.989 226.73 125.008C223.72 124.027 220.553 123.57 217.576 122.492C215.907 121.888 214.314 121.094 212.827 120.127C212.448 120.684 212.226 121.333 212.186 122.005C212.146 122.678 212.288 123.349 212.599 123.947C213.259 125.116 214.753 125.793 216.032 125.384C216.693 125.173 217.252 124.714 217.908 124.488C218.563 124.261 219.444 124.372 219.731 125.004C220.005 125.609 219.59 126.341 219.796 126.972C220.109 127.934 221.56 128.008 222.067 128.883C222.445 129.535 222.134 130.399 221.595 130.925C221.057 131.45 220.338 131.739 219.68 132.104C217.545 133.291 216.027 135.318 214.162 136.894C212.297 138.47 209.665 139.621 207.442 138.61C207.971 135.927 204.775 133.957 204.187 131.285C203.993 130.406 204.094 129.472 203.817 128.616C203.417 127.375 202.317 126.522 201.414 125.582C200.319 124.429 199.466 123.069 198.905 121.581C198.344 120.094 198.087 118.509 198.148 116.92C198.197 115.816 198.4 114.694 198.149 113.618C197.897 112.542 197.006 111.5 195.902 111.549C193.381 111.661 190.204 111.848 188.881 109.699C188.409 108.932 188.204 107.808 188.886 107.22C189.368 106.806 190.079 106.845 190.711 106.907L196.392 107.466C197.721 107.596 199.157 107.704 200.298 107.01C201.438 106.315 201.932 104.471 200.876 103.654C200.105 103.057 198.723 103.089 198.498 102.14C198.312 101.349 199.187 100.452 198.714 99.7909C198.375 99.3171 197.613 99.4485 197.151 99.8037C196.69 100.159 196.355 100.678 195.838 100.947C194.931 101.419 193.848 100.97 192.873 100.665C191.897 100.36 190.59 100.334 190.117 101.24C189.588 102.253 190.586 103.58 190.061 104.596C189.367 105.938 187.016 105.174 186.041 106.328C184.922 107.653 186.802 109.628 186.425 111.321C185.943 111.559 185.408 111.669 184.871 111.639C184.335 111.609 183.815 111.44 183.363 111.149C182.918 110.846 182.564 110.429 182.338 109.942C182.112 109.454 182.022 108.914 182.078 108.38C182.171 107.618 182.568 106.841 182.302 106.122C182.087 105.54 181.503 105.194 180.96 104.894L175.439 101.843C174.927 102.794 175.575 103.973 176.385 104.687C177.196 105.401 178.211 105.939 178.743 106.879C179.08 107.53 179.155 108.285 178.954 108.99C178.753 109.695 178.29 110.297 177.66 110.672C177.582 110.727 177.492 110.763 177.397 110.78C177.303 110.796 177.206 110.792 177.113 110.767C177.025 110.716 176.948 110.647 176.887 110.565C176.826 110.483 176.783 110.389 176.758 110.29C175.784 107.797 174.322 105.34 171.983 104.037C169.645 102.735 166.285 103.003 164.752 105.197C164.388 105.718 164.143 106.312 163.826 106.862C162.141 109.789 158.527 111.175 155.151 111.084C154.821 111.103 154.492 111.025 154.205 110.862C153.659 110.485 153.684 109.686 153.767 109.028L154.121 106.236C154.193 105.675 154.296 105.056 154.739 104.706C155.365 104.212 156.267 104.524 157.064 104.512C157.667 104.484 158.247 104.271 158.725 103.902C159.204 103.533 159.557 103.026 159.737 102.449C159.898 101.867 159.897 101.252 159.734 100.67C159.571 100.088 159.253 99.562 158.813 99.1479C158.448 98.805 157.958 98.3743 158.151 97.912C158.228 97.7842 158.332 97.6747 158.455 97.5914C158.579 97.508 158.72 97.4528 158.867 97.4296C160.298 97.0141 161.81 96.9052 163.217 96.415C164.623 95.9248 165.988 94.9218 166.321 93.4697C166.423 93.0247 166.47 92.4856 166.869 92.265C167.07 92.1803 167.285 92.1363 167.503 92.1355C168.266 92.027 168.96 91.6369 169.45 91.042C169.939 90.4471 170.188 89.6905 170.148 88.9211C170.822 88.45 171.767 88.7966 172.419 89.2977C173.071 89.7988 173.647 90.4608 174.441 90.6768C175.92 91.0794 177.349 89.7698 178.882 89.7637C179.527 89.7612 180.194 89.9891 180.8 89.7705C181.415 89.549 181.782 88.937 182.254 88.4849C182.726 88.0328 183.554 87.757 183.99 88.244L183.619 85.4959C184.366 85.6846 185.145 85.7113 185.903 85.5742C186.661 85.4371 187.382 85.1394 188.015 84.7009L183.22 83.0808C183.053 83.0391 182.899 82.9567 182.772 82.841C182.423 82.4656 182.77 81.8806 183.053 81.4539C183.731 80.4331 183.845 78.7516 182.73 78.2433C181.969 77.8964 181.095 78.3128 180.364 78.7202L176.864 80.6716C176.753 81.3369 177.567 81.7139 178.071 82.162C178.376 82.4331 178.592 82.7902 178.69 83.1862C178.789 83.5822 178.765 83.9988 178.622 84.3811C178.479 84.7634 178.224 85.0936 177.891 85.3284C177.557 85.5631 177.16 85.6915 176.752 85.6965C176.982 85.9961 177.142 86.3437 177.22 86.7136C177.298 87.0835 177.292 87.4662 177.202 87.8333L174.847 88.0027C174.583 88.0558 174.308 88.0022 174.083 87.8536C173.832 87.6299 173.866 87.238 173.807 86.9062C173.667 86.1055 172.882 85.5444 172.082 85.4005C171.282 85.2566 170.464 85.441 169.671 85.6231C169.335 85.7442 168.965 85.7357 168.635 85.5992C168.445 85.4761 168.301 85.2943 168.225 85.0817C167.878 84.2394 168.202 83.2495 168.76 82.5292C169.318 81.8089 170.082 81.2824 170.768 80.6828C172.408 79.2436 173.613 77.3743 174.247 75.2863C175.543 74.7431 176.885 74.0052 178.182 73.4621C180.18 72.4502 182.421 72.016 184.653 72.2082L189.043 72.292C190.343 72.3169 191.678 72.3487 192.88 72.8442C194.081 73.3397 195.137 74.4114 195.22 75.7087C195.245 75.8556 195.233 76.0064 195.183 76.147C195.134 76.2877 195.05 76.4135 194.939 76.5126C194.769 76.6053 194.577 76.6486 194.384 76.6377C193.172 76.6803 192.655 76.9824 191.443 77.0249Z" fill="#003554"/>
<path d="M156.452 90.7834C156.623 90.6211 156.747 90.4146 156.808 90.1867C156.87 89.9587 156.868 89.7182 156.802 89.4914C156.385 89.3304 155.931 89.289 155.491 89.3721C155.051 89.4551 154.644 89.6591 154.314 89.9613C154.054 90.2243 153.83 90.5206 153.647 90.8425C153.07 91.7836 152.56 92.9078 152.894 93.9598C152.922 94.0746 152.972 94.1827 153.041 94.2779C153.111 94.3731 153.199 94.4534 153.3 94.5142C153.45 94.5743 153.611 94.5996 153.772 94.5882C154.408 94.5874 155.043 94.5483 155.673 94.4712C156.061 94.4238 156.511 94.3144 156.66 93.954C156.857 93.4802 156.381 92.9441 156.52 92.4502C156.611 92.2294 156.749 92.0311 156.925 91.8693C157.013 91.7878 157.08 91.6871 157.121 91.5752C157.163 91.4633 157.178 91.3432 157.165 91.2245C157.109 90.9928 156.754 90.8614 156.626 91.0627" fill="#003554"/>
<path d="M159.747 86.5111C159.182 86.3815 158.6 86.345 158.024 86.4029C157.897 86.3991 157.77 86.4278 157.657 86.4864C157.547 86.5673 157.468 86.6826 157.431 86.8139C157.309 87.2046 157.339 87.6268 157.515 87.9964C157.69 88.3661 157.999 88.656 158.378 88.8084C158.585 88.856 158.784 88.9357 158.966 89.0445C159.453 89.4226 159.143 90.1953 159.235 90.8051C159.338 91.4898 160.001 92.0646 159.88 92.7463C159.784 93.2835 159.21 93.7088 159.303 94.2465C159.399 94.8097 160.114 94.9789 160.684 95.024C161.014 95.0818 161.354 95.0429 161.662 94.9119C161.971 94.7004 162.191 94.3819 162.279 94.0179C162.513 93.3237 162.611 92.5913 162.568 91.8602C162.566 91.5277 162.482 91.2008 162.325 90.9079C162.153 90.6758 161.963 90.458 161.756 90.2568C160.665 88.9873 161.814 87.0937 159.747 86.5111Z" fill="#003554"/>
<path opacity="0.8" d="M303.263 185.96C303.263 185.96 219.673 137.978 183.687 147.07C183.687 147.07 107.42 155.277 98.5814 173.334C98.5814 173.334 74.3378 97.5723 65.499 95.0469" stroke="#007cbd" stroke-width="2" stroke-miterlimit="10"/>
<path opacity="0.8" d="M98.5814 173.334C112.597 135.958 238.866 94.542 238.866 94.542C220.936 99.0877 183.687 147.07 183.687 147.07C183.687 147.07 104.895 89.7438 65.4989 95.0471C65.4989 95.0471 238.992 100.729 303.263 185.961" stroke="#007cbd" stroke-width="2" stroke-miterlimit="10"/>
<path d="M65.499 98.7089C67.5213 98.7089 69.1608 97.0694 69.1608 95.0471C69.1608 93.0247 67.5213 91.3853 65.499 91.3853C63.4766 91.3853 61.8372 93.0247 61.8372 95.0471C61.8372 97.0694 63.4766 98.7089 65.499 98.7089Z" fill="#007cbd"/>
<path d="M98.5814 176.995C100.604 176.995 102.243 175.356 102.243 173.334C102.243 171.311 100.604 169.672 98.5814 169.672C96.5591 169.672 94.9196 171.311 94.9196 173.334C94.9196 175.356 96.5591 176.995 98.5814 176.995Z" fill="#007cbd"/>
<path d="M238.866 98.2037C240.888 98.2037 242.528 96.5643 242.528 94.5419C242.528 92.5196 240.888 90.8801 238.866 90.8801C236.844 90.8801 235.204 92.5196 235.204 94.5419C235.204 96.5643 236.844 98.2037 238.866 98.2037Z" fill="#007cbd"/>
<path d="M303.263 189.622C305.286 189.622 306.925 187.983 306.925 185.96C306.925 183.938 305.286 182.299 303.263 182.299C301.241 182.299 299.601 183.938 299.601 185.96C299.601 187.983 301.241 189.622 303.263 189.622Z" fill="#007cbd"/>
<path d="M183.687 150.732C185.709 150.732 187.348 149.092 187.348 147.07C187.348 145.047 185.709 143.408 183.687 143.408C181.664 143.408 180.025 145.047 180.025 147.07C180.025 149.092 181.664 150.732 183.687 150.732Z" fill="#007cbd"/>
</g>
<defs>
<clipPath id="clip0">
<rect width="360" height="267.407" fill="white"/>
</clipPath>
</defs>
</svg>
