<svg width="360" height="225" viewBox="0 0 360 225" fill="none" xmlns="http://www.w3.org/2000/svg">
<g clip-path="url(#clip0)">
<path d="M94.0858 136.976C131.911 136.976 162.574 106.313 162.574 68.4882C162.574 30.6632 131.911 0 94.0858 0C56.2608 0 25.5976 30.6632 25.5976 68.4882C25.5976 106.313 56.2608 136.976 94.0858 136.976Z" fill="#F2F2F2"/>
<path d="M0 16.4443C0 41.3631 15.6327 61.527 34.9517 61.527Z" fill="#003554"/>
<path d="M34.9517 61.5272C34.9517 36.3285 52.3969 15.938 73.9558 15.938Z" fill="#00A6FB"/>
<path d="M12.6637 18.7034C12.6637 42.3735 22.6323 61.5271 34.9517 61.5271Z" fill="#00A6FB"/>
<path d="M34.9517 61.527C34.9517 29.3287 55.1156 3.27417 80.0344 3.27417Z" fill="#003554"/>
<path d="M27.5988 61.8449C27.5988 61.8449 32.5555 61.6922 34.0493 60.6285C35.5432 59.5648 41.674 58.2946 42.0446 60.0006C42.4152 61.7066 49.4937 68.4855 43.8975 68.5306C38.3014 68.5758 30.8946 67.6589 29.4037 66.7507C27.9127 65.8425 27.5988 61.8449 27.5988 61.8449Z" fill="#A8A8A8"/>
<path opacity="0.2" d="M43.9974 67.9367C38.4013 67.9818 30.9946 67.065 29.5036 66.1568C28.3681 65.4652 27.9157 62.9834 27.7643 61.8384C27.6594 61.8429 27.5988 61.8448 27.5988 61.8448C27.5988 61.8448 27.9128 65.8424 29.4037 66.7507C30.8947 67.6589 38.3015 68.5757 43.8976 68.5305C45.513 68.5175 46.0709 67.9428 46.0403 67.0916C45.8159 67.6059 45.1998 67.927 43.9974 67.9367Z" fill="black"/>
<path d="M63.8609 144.674C97.0688 144.674 123.989 141.012 123.989 136.494C123.989 131.976 97.0688 128.314 63.8609 128.314C30.6531 128.314 3.73282 131.976 3.73282 136.494C3.73282 141.012 30.6531 144.674 63.8609 144.674Z" fill="#02456C"/>
<path opacity="0.1" d="M63.8609 143.362C91.7413 143.362 114.343 140.287 114.343 136.494C114.343 132.701 91.7413 129.626 63.8609 129.626C35.9805 129.626 13.379 132.701 13.379 136.494C13.379 140.287 35.9805 143.362 63.8609 143.362Z" fill="black"/>
<path d="M269.004 224.757C319.26 224.757 360 219.215 360 212.378C360 205.541 319.26 199.998 269.004 199.998C218.748 199.998 178.008 205.541 178.008 212.378C178.008 219.215 218.748 224.757 269.004 224.757Z" fill="#02456C"/>
<path d="M99.8735 214.991C130.062 214.991 154.535 211.661 154.535 207.554C154.535 203.448 130.062 200.118 99.8735 200.118C69.6846 200.118 45.2116 203.448 45.2116 207.554C45.2116 211.661 69.6846 214.991 99.8735 214.991Z" fill="#02456C"/>
<path d="M148.748 201.285C177.686 208.68 233.313 191.638 239.422 172.346" stroke="#003554" stroke-width="2" stroke-miterlimit="10"/>
<path d="M99.5519 83.2791C99.5519 83.2791 141.352 71.7036 143.925 109.002C146.497 146.301 109.52 156.912 138.458 164.307" stroke="#003554" stroke-width="2" stroke-miterlimit="10"/>
<path d="M59.1672 172.759C59.1672 172.759 71.7305 169.28 72.5036 180.49C73.2768 191.7 62.163 194.889 70.8607 197.112" stroke="#003554" stroke-width="2" stroke-miterlimit="10"/>
<path d="M250.385 181.105L247.852 197.277C247.852 197.277 235.382 203.901 244.15 204.096C252.918 204.291 294.225 204.096 294.225 204.096C294.225 204.096 302.213 204.096 289.549 197.082L287.016 180.13L250.385 181.105Z" fill="#003554"/>
<path opacity="0.1" d="M242.387 203.921C244.378 202.149 247.852 200.303 247.852 200.303L250.385 184.131L287.016 184.165L289.549 200.108C292.502 201.743 294.332 202.997 295.402 203.959C297.029 203.588 298.806 202.209 289.549 197.082L287.016 180.13L250.385 181.105L247.852 197.277C247.852 197.277 237.374 202.844 242.387 203.921Z" fill="black"/>
<path d="M345.219 68.3882H191.792C188.588 68.3882 185.99 70.986 185.99 74.1906V177.543C185.99 180.748 188.588 183.345 191.792 183.345H345.219C348.424 183.345 351.022 180.748 351.022 177.543V74.1906C351.022 70.986 348.424 68.3882 345.219 68.3882Z" fill="#003554"/>
<path d="M345.469 74.5256H191.543V160.646H345.469V74.5256Z" fill="#02456C"/>
<path d="M268.506 72.7719C269.044 72.7719 269.48 72.3357 269.48 71.7977C269.48 71.2597 269.044 70.8235 268.506 70.8235C267.968 70.8235 267.531 71.2597 267.531 71.7977C267.531 72.3357 267.968 72.7719 268.506 72.7719Z" fill="#F2F2F2"/>
<path d="M351.022 167.466V177.543C351.022 178.305 350.872 179.059 350.58 179.763C350.289 180.467 349.861 181.107 349.322 181.646C348.784 182.185 348.144 182.612 347.44 182.904C346.736 183.195 345.981 183.345 345.219 183.345H191.792C191.03 183.345 190.276 183.195 189.572 182.904C188.868 182.612 188.228 182.185 187.689 181.646C187.15 181.107 186.723 180.467 186.431 179.763C186.14 179.059 185.99 178.305 185.99 177.543V167.466H351.022Z" fill="#003554"/>
<path d="M311.566 214.618V216.566H206.74V215.007L206.885 214.618L209.468 207.603H309.423L311.566 214.618Z" fill="#003554"/>
<path d="M351.906 212.71C351.715 213.526 350.994 214.388 349.365 215.202C343.52 218.125 331.635 214.423 331.635 214.423C331.635 214.423 322.477 212.864 322.477 208.772C322.734 208.596 323.002 208.437 323.28 208.295C325.737 206.995 333.886 203.786 348.334 208.431C349.398 208.765 350.349 209.388 351.08 210.23C351.665 210.916 352.124 211.785 351.906 212.71Z" fill="#003554"/>
<path opacity="0.1" d="M351.906 212.71C344.752 215.452 338.374 215.656 331.83 211.11C328.529 208.819 325.53 208.252 323.28 208.295C325.737 206.995 333.886 203.787 348.334 208.431C349.398 208.765 350.349 209.388 351.08 210.231C351.665 210.916 352.124 211.785 351.906 212.71Z" fill="black"/>
<path d="M342.936 211.111C344.335 211.111 345.469 210.762 345.469 210.331C345.469 209.901 344.335 209.552 342.936 209.552C341.537 209.552 340.403 209.901 340.403 210.331C340.403 210.762 341.537 211.111 342.936 211.111Z" fill="#F2F2F2"/>
<path d="M268.506 179.156C270.55 179.156 272.208 177.499 272.208 175.454C272.208 173.41 270.55 171.752 268.506 171.752C266.461 171.752 264.804 173.41 264.804 175.454C264.804 177.499 266.461 179.156 268.506 179.156Z" fill="#F2F2F2"/>
<path opacity="0.1" d="M311.566 214.617V216.566H206.74V215.007L206.885 214.617H311.566Z" fill="black"/>
<path d="M101.803 51.125H34.9222V128.938H101.803V51.125Z" fill="#003554"/>
<path d="M108.555 43.408H28.1699V71.0605H108.555V43.408Z" fill="#02456C"/>
<path d="M108.555 76.2051H28.1699V103.858H108.555V76.2051Z" fill="#02456C"/>
<path d="M108.555 109.002H28.1699V136.655H108.555V109.002Z" fill="#02456C"/>
<path opacity="0.4" d="M92.4781 48.2312H87.3334V53.3759H92.4781V48.2312Z" fill="#00A6FB"/>
<path opacity="0.8" d="M99.8735 48.2312H94.7289V53.3759H99.8735V48.2312Z" fill="#00A6FB"/>
<path d="M107.269 48.2312H102.124V53.3759H107.269V48.2312Z" fill="#00A6FB"/>
<path opacity="0.4" d="M92.4781 80.7068H87.3334V85.8514H92.4781V80.7068Z" fill="#00A6FB"/>
<path opacity="0.8" d="M99.8735 80.7068H94.7289V85.8514H99.8735V80.7068Z" fill="#00A6FB"/>
<path d="M107.269 80.7068H102.124V85.8514H107.269V80.7068Z" fill="#00A6FB"/>
<path opacity="0.4" d="M92.4781 113.182H87.3334V118.327H92.4781V113.182Z" fill="#00A6FB"/>
<path opacity="0.8" d="M99.8735 113.182H94.7289V118.327H99.8735V113.182Z" fill="#00A6FB"/>
<path d="M107.269 113.182H102.124V118.327H107.269V113.182Z" fill="#00A6FB"/>
<path d="M101.803 198.391C115.832 198.391 127.204 187.018 127.204 172.989C127.204 158.96 115.832 147.587 101.803 147.587C87.7738 147.587 76.401 158.96 76.401 172.989C76.401 187.018 87.7738 198.391 101.803 198.391Z" fill="#003554"/>
<path d="M97.9442 192.925H90.2273V206.751H97.9442V192.925Z" fill="#003554"/>
<path d="M113.378 192.925H105.661V206.751H113.378V192.925Z" fill="#003554"/>
<path d="M96.6581 209.323C100.21 209.323 103.089 208.243 103.089 206.912C103.089 205.58 100.21 204.5 96.6581 204.5C93.1064 204.5 90.2273 205.58 90.2273 206.912C90.2273 208.243 93.1064 209.323 96.6581 209.323Z" fill="#003554"/>
<path d="M112.092 209.002C115.644 209.002 118.523 207.922 118.523 206.59C118.523 205.258 115.644 204.178 112.092 204.178C108.54 204.178 105.661 205.258 105.661 206.59C105.661 207.922 108.54 209.002 112.092 209.002Z" fill="#003554"/>
<path d="M102.446 175.24C107.241 175.24 111.127 171.353 111.127 166.558C111.127 161.763 107.241 157.876 102.446 157.876C97.6511 157.876 93.7642 161.763 93.7642 166.558C93.7642 171.353 97.6511 175.24 102.446 175.24Z" fill="white"/>
<path d="M102.446 169.452C104.044 169.452 105.34 168.156 105.34 166.558C105.34 164.96 104.044 163.664 102.446 163.664C100.848 163.664 99.5519 164.96 99.5519 166.558C99.5519 168.156 100.848 169.452 102.446 169.452Z" fill="#02456C"/>
<path d="M77.1622 149.366C75.1111 140.18 81.6676 130.899 91.8065 128.635C101.945 126.371 111.827 131.982 113.878 141.168C115.929 150.353 109.21 153.741 99.0711 156.005C88.9323 158.269 79.2133 158.552 77.1622 149.366Z" fill="#00A6FB"/>
<path d="M125.627 167.923C132.076 165.163 136.601 161.284 135.735 159.26C134.868 157.235 128.938 157.832 122.489 160.592C116.041 163.352 111.515 167.23 112.382 169.255C113.248 171.279 119.178 170.683 125.627 167.923Z" fill="#003554"/>
<path d="M78.0391 184.964C84.4877 182.204 89.013 178.326 88.1465 176.301C87.28 174.277 81.35 174.873 74.9013 177.633C68.4526 180.393 63.9274 184.272 64.7939 186.296C65.6603 188.321 71.5904 187.724 78.0391 184.964Z" fill="#003554"/>
<path d="M116.594 180.384C116.594 182.87 110.192 187.78 103.089 187.78C95.9856 187.78 89.2626 183.192 89.2626 180.706C89.2626 178.22 95.9856 178.777 103.089 178.777C110.192 178.777 116.594 177.898 116.594 180.384Z" fill="white"/>
</g>
<defs>
<clipPath id="clip0">
<rect width="360" height="224.757" fill="white"/>
</clipPath>
</defs>
</svg>
