<svg width="360" height="165" viewBox="0 0 360 165" fill="none" xmlns="http://www.w3.org/2000/svg">
<g clip-path="url(#clip0)">
<path d="M330.969 92.7203C339.882 92.7203 347.108 85.4945 347.108 76.581C347.108 67.6675 339.882 60.4417 330.969 60.4417C322.055 60.4417 314.83 67.6675 314.83 76.581C314.83 85.4945 322.055 92.7203 330.969 92.7203Z" fill="#F2F2F2"/>
<path d="M330.969 80.8284C333.315 80.8284 335.216 78.9268 335.216 76.5812C335.216 74.2355 333.315 72.334 330.969 72.334C328.623 72.334 326.722 74.2355 326.722 76.5812C326.722 78.9268 328.623 80.8284 330.969 80.8284Z" fill="#E6E6E6"/>
<path d="M330.193 76.6719C331.982 78.1314 332.527 80.4317 332.194 82.6529C331.785 85.0892 330.521 87.2999 328.629 88.8881C326.502 90.7791 323.907 92.0569 321.403 93.3653C319.102 94.5395 316.891 95.8816 314.788 97.3809C306.735 103.234 300.651 111.568 297.169 120.868C293.693 130.152 292.76 140.69 295.402 150.312C296.709 155.073 299.352 160.21 304.278 162.001C308.203 163.429 313.564 162.509 315.563 158.463C317.71 154.117 314.714 149.231 310.855 147.073C305.852 144.276 299.877 146.32 295.378 149.151C290.424 152.268 286.442 156.741 281.27 159.535C278.943 160.832 276.352 161.588 273.692 161.746C271.249 161.842 268.81 161.465 266.51 160.636C261.738 158.897 257.63 155.709 254.762 151.517C251.477 146.742 250.007 140.888 249.738 135.154C249.139 122.325 254.206 110.323 258.273 98.4259C260.458 92.2304 262.095 85.855 263.165 79.3731C264.183 72.8584 264.545 66.2581 264.246 59.6711C263.977 53.8467 263.402 47.7561 260.832 42.4365C258.571 37.759 254.44 33.9306 249.217 32.9654C246.863 32.5034 244.423 32.7836 242.235 33.7675C241.49 34.1073 242.137 35.2058 242.878 34.8677C247.5 32.7591 252.963 34.8107 256.377 38.2152C260.364 42.1908 261.828 48.0618 262.478 53.4791C263.939 66.3175 262.788 79.3187 259.094 91.7008C255.549 103.742 249.973 115.282 248.686 127.898C248.099 133.655 248.4 139.606 250.24 145.126C251.819 150.044 254.779 154.403 258.768 157.684C262.523 160.72 267.143 162.788 272.007 163.018C277.466 163.277 282.254 160.843 286.49 157.605C291.026 154.138 295.2 149.859 300.695 147.915C303.2 147.028 306.054 146.615 308.626 147.468C310.833 148.222 312.705 149.727 313.915 151.72C315.032 153.578 315.444 155.901 314.425 157.896C313.466 159.772 311.595 160.858 309.57 161.229C307.425 161.608 305.215 161.233 303.316 160.167C301.098 158.899 299.474 156.773 298.337 154.526C296.068 150.045 295.306 144.712 295.191 139.739C295.089 134.881 295.712 130.035 297.038 125.36C299.675 115.905 305 107.417 312.365 100.927C314.221 99.3104 316.206 97.8488 318.3 96.5569C320.585 95.1485 323.024 94.0232 325.354 92.6943C327.646 91.3867 329.905 89.8244 331.483 87.6727C332.829 85.8286 333.555 83.6056 333.559 81.3229C333.583 80.2729 333.374 79.2307 332.948 78.2708C332.522 77.311 331.889 76.4573 331.094 75.7709C330.464 75.2568 329.557 76.1531 330.193 76.6719V76.6719Z" fill="#CCCCCC"/>
<path d="M179.523 150.907C185.166 154.555 191.694 156.601 198.41 156.827C198.29 157.112 198.155 157.39 198.007 157.66C197.225 159.103 196.12 160.346 194.779 161.291C193.19 162.409 191.326 163.069 189.388 163.2C187.45 163.33 185.513 162.926 183.789 162.031C182.066 161.136 180.621 159.785 179.612 158.125C178.604 156.466 178.07 154.561 178.07 152.618V150.907H179.523Z" fill="#003554"/>
<path d="M219.136 151.408V152.618C219.137 154.975 218.353 157.265 216.907 159.126C215.462 160.987 213.437 162.313 211.154 162.895C208.87 163.477 206.458 163.282 204.298 162.34C202.138 161.398 200.353 159.763 199.226 157.694C199.07 157.417 198.93 157.132 198.805 156.84C199.115 156.849 199.421 156.853 199.731 156.853C206.578 156.861 213.293 154.976 219.136 151.408V151.408Z" fill="#003554"/>
<path d="M233.424 23.4063C233.105 23.3596 232.782 23.3298 232.46 23.3086C236.128 31.7617 236.382 41.3063 233.169 49.9427C233.492 49.9045 233.81 49.8535 234.129 49.794C237.239 49.1914 240.035 47.5045 242.018 45.0337C244.001 42.5629 245.043 39.4685 244.959 36.3014C244.874 33.1343 243.668 30.0999 241.556 27.7386C239.444 25.3772 236.562 23.842 233.424 23.4063V23.4063Z" fill="#003554"/>
<path d="M167.002 23.3086C166.679 23.3298 166.356 23.3596 166.038 23.4063C162.9 23.842 160.018 25.3772 157.906 27.7385C155.794 30.0999 154.588 33.1342 154.503 36.3014C154.419 39.4685 155.461 42.5629 157.444 45.0337C159.427 47.5045 162.222 49.1914 165.333 49.794C165.651 49.8535 165.97 49.9045 166.293 49.9427C163.08 41.3063 163.334 31.7617 167.002 23.3086V23.3086Z" fill="#003554"/>
<path d="M233.424 23.4063C229.925 15.0477 223.444 8.28823 215.24 4.44096C207.036 0.593696 197.695 -0.0666429 189.031 2.58824C180.367 5.24312 173 11.0236 168.36 18.8068C163.72 26.59 162.139 35.8201 163.923 44.7039C165.708 53.5877 170.731 61.4909 178.017 66.8781C185.303 72.2654 194.332 74.7519 203.349 73.8548C212.365 72.9577 220.727 68.7408 226.808 62.0236C232.89 55.3063 236.257 46.5682 236.257 37.5069C236.255 32.6655 235.292 27.8727 233.424 23.4063V23.4063ZM233.169 49.9427C230.062 58.2943 223.942 65.1805 216.012 69.246C208.083 73.3115 198.919 74.2618 190.324 71.9098C181.73 69.5578 174.326 64.074 169.572 56.5375C164.818 49.0011 163.056 39.958 164.635 31.1881C166.213 22.4182 171.017 14.5568 178.101 9.15111C185.185 3.7454 194.035 1.187 202.911 1.97943C211.786 2.77186 220.044 6.85772 226.058 13.4328C232.072 20.008 235.407 28.5961 235.407 37.5069C235.406 41.7522 234.648 45.9633 233.169 49.9427V49.9427Z" fill="#003554"/>
<path d="M218.419 29.2249H181.043C179.072 29.2249 177.182 30.0079 175.788 31.4018C174.394 32.7957 173.611 34.6862 173.611 36.6574C173.611 38.6287 174.394 40.5192 175.788 41.9131C177.182 43.3069 179.072 44.09 181.043 44.09H218.419C220.39 44.09 222.28 43.3069 223.674 41.9131C225.068 40.5192 225.851 38.6287 225.851 36.6574C225.851 34.6862 225.068 32.7957 223.674 31.4018C222.28 30.0079 220.39 29.2249 218.419 29.2249V29.2249Z" fill="#003554"/>
<path d="M199.731 81.2529C189.746 81.2575 180.159 85.1691 173.021 92.1512C165.883 99.1332 161.76 108.631 161.535 118.614C161.309 128.596 164.999 138.271 171.815 145.568C178.631 152.865 188.032 157.205 198.006 157.66C198.41 157.681 198.818 157.694 199.225 157.694C199.395 157.702 199.561 157.702 199.731 157.702C209.869 157.702 219.591 153.675 226.76 146.507C233.928 139.338 237.956 129.615 237.956 119.478C237.956 109.34 233.928 99.6172 226.76 92.4487C219.591 85.2802 209.869 81.2529 199.731 81.2529V81.2529ZM219.136 151.408C213.293 154.977 206.578 156.861 199.731 156.853C199.421 156.853 199.115 156.849 198.805 156.84C198.673 156.84 198.542 156.836 198.41 156.827C189.435 156.515 180.872 152.984 174.286 146.879C167.7 140.774 163.531 132.503 162.54 123.577C161.55 114.651 163.805 105.667 168.892 98.267C173.98 90.8666 181.56 85.5442 190.249 83.2724C198.937 81.0006 208.153 81.9311 216.212 85.894C224.27 89.8569 230.634 96.5874 234.14 104.856C237.645 113.124 238.058 122.377 235.303 130.924C232.548 139.472 226.81 146.743 219.136 151.408Z" fill="#003554"/>
<path d="M226.559 110.063H209.853C208.689 110.063 207.573 109.601 206.75 108.778C205.927 107.955 205.465 106.838 205.465 105.674C205.465 104.51 205.927 103.394 206.75 102.571C207.573 101.748 208.689 101.285 209.853 101.285H226.559C227.723 101.285 228.839 101.748 229.662 102.571C230.485 103.394 230.948 104.51 230.948 105.674C230.948 106.838 230.485 107.955 229.662 108.778C228.839 109.601 227.723 110.063 226.559 110.063V110.063Z" fill="#003554"/>
<path d="M210.967 107.902C212.197 107.902 213.194 106.904 213.194 105.674C213.194 104.444 212.197 103.447 210.967 103.447C209.737 103.447 208.74 104.444 208.74 105.674C208.74 106.904 209.737 107.902 210.967 107.902Z" fill="#F2F2F2"/>
<path d="M218.206 107.902C219.436 107.902 220.434 106.904 220.434 105.674C220.434 104.444 219.436 103.447 218.206 103.447C216.976 103.447 215.979 104.444 215.979 105.674C215.979 106.904 216.976 107.902 218.206 107.902Z" fill="#F2F2F2"/>
<path d="M225.445 107.902C226.675 107.902 227.673 106.904 227.673 105.674C227.673 104.444 226.675 103.447 225.445 103.447C224.215 103.447 223.218 104.444 223.218 105.674C223.218 106.904 224.215 107.902 225.445 107.902Z" fill="#007cbd"/>
<path d="M69.9195 162.114C73.7388 158.887 76.0587 153.789 75.4503 148.825C74.8419 143.862 71.0737 139.3 66.1858 138.246C61.2979 137.192 55.726 140.109 54.2414 144.884C53.4243 135.679 52.4828 126.087 47.5885 118.248C43.1569 111.149 35.4812 106.07 27.1625 105.162C18.8438 104.253 10.0853 107.685 4.8972 114.251C-0.290867 120.817 -1.56115 130.362 2.07244 137.9C4.74918 143.453 9.68067 147.586 14.8477 150.948C31.3321 161.674 51.781 165.299 71.2385 162.435L69.9195 162.114Z" fill="#F2F2F2"/>
<path d="M13.1234 107.875C19.9874 113.466 26.2843 119.719 31.9232 126.543C37.563 133.361 42.5282 140.709 46.7491 148.485C49.1084 152.848 51.2278 157.335 53.0979 161.928C53.4792 162.863 51.9619 163.269 51.5849 162.345C48.2726 154.248 44.1746 146.494 39.3497 139.196C34.5483 131.924 29.0527 125.135 22.9403 118.925C19.4831 115.413 15.8355 112.095 12.014 108.985C11.2307 108.347 12.3466 107.243 13.1234 107.875V107.875Z" fill="white"/>
<path d="M68.6246 28.0315C75.8961 28.0315 81.7909 22.1368 81.7909 14.8653C81.7909 7.59372 75.8961 1.69897 68.6246 1.69897C61.353 1.69897 55.4583 7.59372 55.4583 14.8653C55.4583 22.1368 61.353 28.0315 68.6246 28.0315Z" fill="#003554"/>
<path d="M117.729 63.0755C117.477 63.455 117.169 63.7946 116.817 64.0832C116.309 64.5021 115.718 64.8088 115.083 64.9834C114.448 65.158 113.784 65.1964 113.133 65.0963C112.483 64.9961 111.86 64.7596 111.307 64.4022C110.755 64.0448 110.283 63.5746 109.925 63.0225C109.842 62.8938 109.766 62.7609 109.697 62.6242L88.9492 60.6225C87.3118 60.4582 85.771 59.7704 84.5554 58.661C83.3399 57.5516 82.5145 56.0798 82.2017 54.4642L81.0241 48.256L89.1211 46.9963L90.5741 51.9692L110.803 56.938C110.959 56.8005 111.125 56.6742 111.3 56.56C112.202 55.9744 113.279 55.718 114.348 55.8342C115.418 55.9504 116.414 56.4319 117.17 57.1976C117.925 57.9633 118.394 58.9661 118.496 60.037C118.597 61.1079 118.327 62.1811 117.729 63.0756L117.729 63.0755Z" fill="#FFB8B8"/>
<path d="M91.0715 51.2187L82.0267 53.662C81.5374 53.7936 81.0158 53.7257 80.5765 53.4733C80.1371 53.2208 79.8159 52.8044 79.6832 52.3153L76.5152 40.5881C76.1758 39.3319 76.3135 37.9946 76.9018 36.8339C77.4901 35.6733 78.4873 34.7715 79.701 34.3026C80.9148 33.8336 82.2592 33.8307 83.475 34.2943C84.6909 34.7579 85.692 35.6552 86.2853 36.8133L92.2741 48.502C92.404 48.7555 92.4756 49.0347 92.4837 49.3194C92.4918 49.604 92.4361 49.8869 92.3209 50.1473C92.2056 50.4076 92.0336 50.639 91.8174 50.8244C91.6013 51.0097 91.3464 51.1445 91.0715 51.2187V51.2187Z" fill="#003554"/>
<path d="M85.8323 158.901H91.0389L93.5163 138.817L85.831 138.818L85.8323 158.901Z" fill="#FFB8B8"/>
<path d="M101.081 163.736L84.7165 163.737L84.7162 157.414L94.7582 157.413C96.4351 157.413 98.0434 158.079 99.2291 159.265C100.415 160.451 101.081 162.059 101.081 163.736V163.736V163.736Z" fill="#003554"/>
<path d="M39.4232 153.827L44.2948 155.666L53.7074 137.752L46.5178 135.038L39.4232 153.827Z" fill="#FFB8B8"/>
<path d="M51.9814 163.737L36.6716 157.956L38.905 152.041L48.2997 155.588C49.8684 156.18 51.1377 157.372 51.8281 158.9C52.5186 160.428 52.5737 162.168 51.9814 163.737V163.737L51.9814 163.737Z" fill="#003554"/>
<path d="M85.6678 154.236C85.2641 154.236 84.871 154.108 84.5447 153.87C84.2185 153.633 83.9759 153.298 83.8518 152.914L70.5715 111.901C70.5321 111.779 70.4571 111.672 70.3562 111.594C70.2553 111.516 70.1331 111.469 70.0056 111.461C69.8781 111.453 69.7511 111.484 69.641 111.549C69.531 111.614 69.4431 111.71 69.3887 111.826L50.9837 150.985C50.7844 151.409 50.4367 151.744 50.0066 151.929C49.5765 152.113 49.0938 152.133 48.6497 151.986L41.4011 149.569C40.9407 149.415 40.5562 149.091 40.3253 148.664C40.0944 148.237 40.0345 147.738 40.1576 147.268L51.4316 104.564C52.6112 100.041 53.4634 95.4379 53.9813 90.7919C54.7719 83.1412 58.3589 76.0515 64.0543 70.8824C66.5411 68.604 68.1577 65.5313 68.6268 62.1914L68.6571 61.9778L85.1676 64.5846L95.6256 149.923C95.6797 150.379 95.5681 150.84 95.3111 151.221C95.0542 151.603 94.6689 151.879 94.2254 152L86.1668 154.17C86.0042 154.214 85.8363 154.236 85.6678 154.236V154.236Z" fill="#003554"/>
<path d="M73.855 27.9688C79.6161 27.9688 84.2865 23.2984 84.2865 17.5372C84.2865 11.7761 79.6161 7.10571 73.855 7.10571C68.0938 7.10571 63.4234 11.7761 63.4234 17.5372C63.4234 23.2984 68.0938 27.9688 73.855 27.9688Z" fill="#FFB8B8"/>
<path d="M84.1415 66.4043C84.1089 66.4043 84.0762 66.4035 84.0432 66.4018L67.6763 65.5835C67.2195 65.5629 66.7854 65.3782 66.4537 65.0634C66.122 64.7487 65.9149 64.3248 65.8704 63.8697L63.6345 42.0697C63.4708 40.4732 63.7 38.861 64.3021 37.3734C64.9043 35.8858 65.861 34.568 67.0891 33.5349C68.3171 32.5018 69.7792 31.7847 71.3478 31.446C72.9165 31.1073 74.5442 31.1574 76.0891 31.5919H76.0892C77.3691 31.9424 78.5618 32.556 79.5912 33.3934C91.1046 42.8486 87.3922 59.98 85.9802 65.0053C85.8695 65.4078 85.6296 65.7628 85.2973 66.0156C84.9651 66.2684 84.559 66.405 84.1415 66.4043V66.4043Z" fill="#007cbd"/>
<path d="M69.9029 81.0424C69.4472 81.0425 68.994 80.9745 68.5584 80.8408C67.9283 80.6499 67.3457 80.328 66.8487 79.8962C66.3518 79.4644 65.9516 78.9324 65.6746 78.3352C65.3975 77.738 65.2498 77.0889 65.2411 76.4306C65.2323 75.7723 65.3628 75.1196 65.624 74.5152C65.6851 74.3748 65.7536 74.2378 65.8292 74.1046L56.0032 55.7222C55.2329 54.268 54.9521 52.6041 55.2024 50.9776C55.4527 49.3511 56.2208 47.8486 57.3927 46.6932L61.9091 42.2739L67.443 48.3175L64.1077 52.2818L71.1759 71.8757C71.3771 71.93 71.5743 71.9983 71.766 72.0802C72.7534 72.507 73.5632 73.2615 74.0589 74.2162C74.5545 75.1709 74.7057 76.2673 74.4867 77.3205C74.2678 78.3737 73.6922 79.3191 72.8571 79.9972C72.022 80.6752 70.9786 81.0444 69.9029 81.0424L69.9029 81.0424Z" fill="#FFB8B8"/>
<path d="M65.0081 52.2803L57.9637 46.1034C57.5831 45.7689 57.3507 45.297 57.3175 44.7914C57.2844 44.2858 57.4531 43.7877 57.7868 43.4063L65.7956 34.2727C66.6535 33.2943 67.8432 32.6682 69.1354 32.5151C70.4275 32.362 71.7306 32.6927 72.7934 33.4435C73.8562 34.1942 74.6033 35.3119 74.8908 36.5809C75.1783 37.85 74.9858 39.1805 74.3504 40.316L67.936 51.7768C67.797 52.0253 67.6041 52.2396 67.3716 52.404C67.1391 52.5684 66.8728 52.6788 66.5922 52.727C66.3115 52.7753 66.0237 52.7603 65.7496 52.683C65.4755 52.6057 65.2222 52.4681 65.0081 52.2803V52.2803Z" fill="#003554"/>
<path d="M67.1423 27.6702C68.094 28.0076 69.2609 28.3052 70.0098 27.6052C70.741 26.9219 70.6078 25.6723 70.1771 24.7518C69.7463 23.8312 69.0783 23.012 68.8735 22.01C68.58 20.574 69.3389 19.0821 70.4223 18.1459C71.5057 17.2096 72.8695 16.7178 74.2008 16.2446L81.503 13.6488C83.3105 13.0063 85.2583 12.2515 86.2698 10.5606C87.7334 8.11394 86.3954 4.6166 83.9947 3.18894C81.594 1.76128 78.5616 2.02725 75.9714 3.03111C74.5389 3.58633 73.1761 4.35142 71.6946 4.74226C68.7707 5.51362 65.4462 4.82163 62.8768 6.47022C60.6402 7.90531 59.6028 10.8335 59.6781 13.5734C59.7534 16.3132 60.7622 18.9225 61.8263 21.4282C62.4593 22.9189 63.1356 24.4268 64.2078 25.6125C65.2801 26.7982 66.8296 27.6276 68.3774 27.4094L67.1423 27.6702Z" fill="#003554"/>
<path d="M57.5819 16.9888C62.2732 16.9888 66.0763 13.1857 66.0763 8.49438C66.0763 3.80306 62.2732 0 57.5819 0C52.8906 0 49.0875 3.80306 49.0875 8.49438C49.0875 13.1857 52.8906 16.9888 57.5819 16.9888Z" fill="#003554"/>
<path d="M126.476 57.5282L126.326 57.5075L126.893 53.3781C126.98 52.7442 126.812 52.1017 126.425 51.5919C126.039 51.082 125.466 50.7466 124.832 50.6595L116.083 49.4568C115.449 49.3697 114.806 49.5379 114.296 49.9245C113.787 50.3111 113.451 50.8844 113.364 51.5183L110.25 74.173C110.163 74.8069 110.331 75.4495 110.718 75.9593C111.104 76.4691 111.677 76.8045 112.311 76.8917L121.06 78.0943C121.694 78.1815 122.337 78.0132 122.847 77.6266C123.356 77.24 123.692 76.6667 123.779 76.0328L125.921 60.4469L126.072 60.4677L126.476 57.5282Z" fill="#003554"/>
<path d="M124.557 51.8711L123.467 51.7214C123.501 51.8511 123.501 51.987 123.47 52.1171C123.438 52.2471 123.375 52.3675 123.286 52.4674C123.197 52.5673 123.084 52.6438 122.959 52.69C122.833 52.7363 122.698 52.751 122.565 52.7327L117.784 52.0755C117.652 52.0573 117.526 52.0067 117.417 51.9282C117.309 51.8498 117.221 51.7458 117.162 51.6256C117.103 51.5053 117.075 51.3724 117.08 51.2386C117.084 51.1048 117.122 50.9742 117.189 50.8583L116.171 50.7184C115.948 50.6877 115.72 50.7013 115.502 50.7584C115.284 50.8156 115.079 50.9152 114.899 51.0516C114.719 51.1879 114.568 51.3584 114.454 51.5532C114.34 51.748 114.265 51.9633 114.235 52.1869L111.269 73.7644C111.207 74.2159 111.326 74.6736 111.602 75.0368C111.877 75.3999 112.286 75.6388 112.737 75.7009L121.122 76.8536C121.574 76.9157 122.032 76.7958 122.395 76.5204C122.758 76.245 122.997 75.8367 123.059 75.3851V75.3851L126.025 53.8076C126.087 53.356 125.967 52.8984 125.692 52.5352C125.417 52.172 125.008 51.9331 124.557 51.8711V51.8711Z" fill="white"/>
<path d="M118.61 69.7855C121.19 69.7855 123.282 67.6938 123.282 65.1136C123.282 62.5333 121.19 60.4417 118.61 60.4417C116.029 60.4417 113.938 62.5333 113.938 65.1136C113.938 67.6938 116.029 69.7855 118.61 69.7855Z" fill="#007cbd"/>
<path d="M118.147 66.8957C118.041 66.8959 117.939 66.8619 117.855 66.7988L117.85 66.7949L116.752 65.9543C116.701 65.9155 116.658 65.8669 116.625 65.8114C116.593 65.7559 116.572 65.6946 116.563 65.6309C116.555 65.5673 116.559 65.5025 116.576 65.4405C116.592 65.3784 116.621 65.3202 116.66 65.2692C116.699 65.2183 116.748 65.1755 116.803 65.1434C116.859 65.1113 116.92 65.0905 116.984 65.0822C117.048 65.0739 117.112 65.0783 117.174 65.095C117.236 65.1118 117.294 65.1407 117.345 65.1799L118.056 65.7252L119.737 63.5335C119.776 63.4827 119.824 63.44 119.88 63.408C119.935 63.3759 119.997 63.3551 120.06 63.3467C120.124 63.3383 120.188 63.3426 120.25 63.3591C120.312 63.3757 120.37 63.4043 120.421 63.4432L120.41 63.4574L120.421 63.4434C120.524 63.5222 120.591 63.6385 120.608 63.7667C120.625 63.8949 120.59 64.0246 120.511 64.1273L118.535 66.7053C118.489 66.7647 118.43 66.8128 118.363 66.8458C118.295 66.8788 118.221 66.8959 118.147 66.8957Z" fill="white"/>
<path d="M359.494 164.064H3.03038C2.89651 164.063 2.76826 164.01 2.67374 163.915C2.57922 163.82 2.52614 163.692 2.52614 163.558C2.52614 163.424 2.57922 163.296 2.67374 163.201C2.76826 163.106 2.89651 163.053 3.03038 163.052H359.494C359.628 163.052 359.757 163.106 359.852 163.2C359.947 163.295 360 163.424 360 163.558C360 163.692 359.947 163.821 359.852 163.916C359.757 164.01 359.628 164.064 359.494 164.064Z" fill="#CCCCCC"/>
</g>
<defs>
<clipPath id="clip0">
<rect width="360" height="164.064" fill="white"/>
</clipPath>
</defs>
</svg>
