<svg width="360" height="264" viewBox="0 0 360 264" fill="none" xmlns="http://www.w3.org/2000/svg">
<g clip-path="url(#clip0)">
<path opacity="0.1" d="M117.425 167.456C129.331 162.773 148.022 161.818 165.034 162.193C218.472 163.363 266.709 174.744 308.431 187.619C323.537 192.282 338.407 197.306 348.213 203.724C368.172 216.791 362.251 234.891 334.499 245.655C325.054 249.318 313.608 252.135 301.855 254.611C280.955 259.038 258.417 262.589 234.7 263.612C217.79 264.332 200.668 263.745 183.857 262.739C136.883 259.918 90.7776 253.721 52.1316 243.07C35.1808 238.407 19.2053 232.609 12.2271 225.061C5.24898 217.514 9.7101 207.957 27.0191 203.489C34.1814 201.644 42.7353 200.808 51.1153 200.027C63.4481 198.874 75.9788 197.735 87.1078 195.392C98.605 192.971 112.217 188.288 109.942 182.93C107.49 177.179 105.532 172.132 117.425 167.456Z" fill="#007cbd"/>
<path opacity="0.1" d="M171.685 10.2762L170.385 85.6513C170.385 85.6513 217.425 85.6513 257.445 98.6459L258.226 22.4794C258.226 22.4794 194.035 7.15884 171.685 10.2762Z" fill="black"/>
<path d="M171.003 9.25297L169.703 84.6281C169.703 84.6281 216.743 84.6281 256.763 97.6227L257.544 21.4562C257.544 21.4562 193.353 6.13565 171.003 9.25297Z" fill="#F5F5FB"/>
<path opacity="0.1" d="M151.651 10.2183L152.95 85.5935C152.95 85.5935 105.911 85.5935 65.8902 98.588L65.1091 22.442C65.1091 22.442 129.301 7.10098 151.651 10.2183Z" fill="black"/>
<path d="M152.333 9.19511L153.632 84.5703C153.632 84.5703 106.593 84.5703 66.5723 97.5648L65.7913 21.4188C65.7913 21.4188 129.983 6.07778 152.333 9.19511Z" fill="#F5F5FB"/>
<path opacity="0.1" d="M269.581 33.2266V107.814C269.581 107.814 284.928 105.996 317.138 145.757L320 71.17C320 71.17 286.473 35.0478 269.581 33.2266Z" fill="black"/>
<path d="M268.898 32.5444V107.132C268.898 107.132 284.246 105.314 316.456 145.075L319.318 70.4878C319.318 70.4878 285.791 34.3657 268.898 32.5444Z" fill="#F5F5FB"/>
<path opacity="0.1" d="M54.5907 35.4399V110.031C54.5907 110.031 39.2428 108.213 7.03274 147.974L4.17462 73.3867C4.17462 73.3867 37.6978 37.2646 54.5907 35.4399Z" fill="black"/>
<path d="M55.2728 34.4167V109.007C55.2728 109.007 39.925 107.19 7.71487 146.951L4.85675 72.3635C4.85675 72.3635 38.3799 36.2414 55.2728 34.4167Z" fill="#F5F5FB"/>
<path d="M227.851 160.191C227.851 162.732 211.716 177.415 174.986 177.415C138.257 177.415 118.37 163.243 118.37 160.703C118.37 158.162 138.939 164.454 175.668 164.454C212.398 164.454 227.851 157.647 227.851 160.191Z" fill="#F7F7FD"/>
<path opacity="0.1" d="M107.814 125.194C109.972 125.194 111.722 124.955 111.722 124.659C111.722 124.363 109.972 124.124 107.814 124.124C105.655 124.124 103.905 124.363 103.905 124.659C103.905 124.955 105.655 125.194 107.814 125.194Z" fill="#007cbd"/>
<path opacity="0.1" d="M92.8445 126.712C95.0031 126.712 96.7531 126.473 96.7531 126.177C96.7531 125.881 95.0031 125.641 92.8445 125.641C90.6858 125.641 88.9359 125.881 88.9359 126.177C88.9359 126.473 90.6858 126.712 92.8445 126.712Z" fill="#007cbd"/>
<path opacity="0.1" d="M75.2183 124.659C77.3769 124.659 79.1269 124.419 79.1269 124.124C79.1269 123.828 77.3769 123.588 75.2183 123.588C73.0596 123.588 71.3097 123.828 71.3097 124.124C71.3097 124.419 73.0596 124.659 75.2183 124.659Z" fill="#007cbd"/>
<path opacity="0.1" d="M98.837 130.88C100.37 130.88 101.613 130.709 101.613 130.498C101.613 130.287 100.37 130.116 98.837 130.116C97.3037 130.116 96.0607 130.287 96.0607 130.498C96.0607 130.709 97.3037 130.88 98.837 130.88Z" fill="#007cbd"/>
<path opacity="0.1" d="M83.3015 130.498C84.8348 130.498 86.0778 130.327 86.0778 130.116C86.0778 129.905 84.8348 129.734 83.3015 129.734C81.7682 129.734 80.5252 129.905 80.5252 130.116C80.5252 130.327 81.7682 130.498 83.3015 130.498Z" fill="#007cbd"/>
<path d="M92.7626 126.057C92.7626 126.057 98.2401 108.093 91.9032 100.9C87.1624 95.5185 81.7736 96.1494 79.3861 96.8316C78.7625 96.9975 78.1825 97.2969 77.686 97.7092C77.1896 98.1214 76.7886 98.6365 76.5109 99.219C75.6685 101.037 75.8288 103.994 81.7701 107.432C91.7258 113.196 92.3431 121.105 92.3431 121.105L92.7626 126.057Z" fill="#007cbd"/>
<path d="M80.2319 99.3757C80.2319 99.3757 96.3847 104.427 92.7626 126.057" stroke="#003554" stroke-miterlimit="10"/>
<path d="M89.6658 101.187C89.6658 101.187 87.442 102.684 88.148 104.939" stroke="#003554" stroke-miterlimit="10"/>
<path d="M81.852 102.52C81.852 102.52 83.2162 101.136 84.8636 101.9" stroke="#003554" stroke-miterlimit="10"/>
<path d="M88.2538 109.475C88.2538 109.475 90.6412 108.264 91.2585 109.782" stroke="#003554" stroke-miterlimit="10"/>
<path d="M94.1439 112.002C94.1439 112.002 92.3499 111.859 92.3192 112.715" stroke="#003554" stroke-miterlimit="10"/>
<path d="M92.9843 126.201C92.9843 126.201 86.5655 113.145 84.7988 113.431C83.9632 113.568 83.5778 114.39 83.4004 115.218C83.181 116.288 83.3003 117.399 83.7415 118.397C84.6658 120.484 87.1112 124.458 92.9843 126.201Z" fill="#007cbd"/>
<path d="M84.8431 115.907C84.8431 115.907 91.5791 125.675 92.882 126.105" stroke="#003554" stroke-miterlimit="10"/>
<path d="M84.2326 117.432H85.8049" stroke="#003554" stroke-miterlimit="10"/>
<path d="M86.1153 121.006L88.5778 121.112" stroke="#003554" stroke-miterlimit="10"/>
<path d="M87.616 118.148L87.3465 119.431" stroke="#003554" stroke-miterlimit="10"/>
<path d="M90.2353 122.053L90.1876 123.22" stroke="#003554" stroke-miterlimit="10"/>
<path d="M92.7933 126.201C92.7933 126.201 99.2088 113.145 100.979 113.431C101.818 113.568 102.203 114.39 102.377 115.218C102.595 116.288 102.476 117.398 102.036 118.397C101.112 120.484 98.6665 124.458 92.7933 126.201Z" fill="#007cbd"/>
<path d="M100.924 115.907C100.924 115.907 94.1883 125.675 92.8888 126.105" stroke="#003554" stroke-miterlimit="10"/>
<path d="M101.545 117.432H99.9727" stroke="#003554" stroke-miterlimit="10"/>
<path d="M99.6623 121.006L97.1964 121.112" stroke="#003554" stroke-miterlimit="10"/>
<path d="M98.1617 118.148L98.4311 119.431" stroke="#003554" stroke-miterlimit="10"/>
<path d="M95.5423 122.053L95.59 123.22" stroke="#003554" stroke-miterlimit="10"/>
<path d="M81.7735 129.25C81.5986 129.107 81.4713 128.914 81.4086 128.697C81.3799 128.589 81.3896 128.474 81.4363 128.372C81.4829 128.27 81.5636 128.187 81.6644 128.138C81.8963 128.046 82.1487 128.209 82.3465 128.373C82.4276 128.469 82.5277 128.546 82.6405 128.601C82.7532 128.655 82.8762 128.686 83.0014 128.69C82.8736 128.574 82.7779 128.427 82.7236 128.264C82.6692 128.1 82.658 127.925 82.691 127.756C82.7043 127.686 82.7347 127.62 82.7797 127.565C82.9093 127.425 83.1446 127.486 83.3015 127.595C83.796 127.937 83.9325 128.619 83.9359 129.222C83.9625 128.996 83.9625 128.767 83.9359 128.54C83.9257 128.428 83.9435 128.315 83.9875 128.212C84.0315 128.108 84.1005 128.017 84.1883 127.947C84.3055 127.884 84.4371 127.852 84.5703 127.855C84.6809 127.839 84.7936 127.846 84.9012 127.877C85.0087 127.908 85.1086 127.96 85.1944 128.032C85.2759 128.145 85.3178 128.281 85.3135 128.42C85.3092 128.559 85.2589 128.692 85.1705 128.799C84.9865 129.006 84.7685 129.181 84.5259 129.314C84.3404 129.423 84.1828 129.574 84.0655 129.754C84.0507 129.779 84.0392 129.805 84.0314 129.833H82.633C82.3227 129.676 82.0339 129.48 81.7735 129.25V129.25Z" fill="#007cbd"/>
<path d="M106.228 123.991C106.053 123.849 105.926 123.657 105.863 123.442C105.834 123.333 105.844 123.217 105.89 123.114C105.937 123.012 106.018 122.929 106.119 122.879C106.243 122.855 106.372 122.864 106.492 122.906C106.612 122.948 106.718 123.021 106.801 123.118C106.881 123.213 106.982 123.291 107.094 123.345C107.207 123.399 107.33 123.428 107.456 123.431C107.328 123.316 107.232 123.169 107.177 123.005C107.123 122.841 107.112 122.666 107.145 122.497C107.157 122.427 107.188 122.362 107.234 122.309C107.364 122.169 107.599 122.227 107.756 122.336C108.25 122.678 108.387 123.36 108.39 123.967C108.417 123.74 108.417 123.511 108.39 123.285C108.38 123.173 108.398 123.06 108.442 122.956C108.486 122.853 108.555 122.762 108.643 122.691C108.759 122.627 108.892 122.597 109.025 122.602C109.135 122.586 109.248 122.593 109.356 122.624C109.463 122.654 109.563 122.707 109.649 122.78C109.731 122.892 109.773 123.028 109.768 123.166C109.764 123.304 109.713 123.437 109.625 123.544C109.441 123.751 109.223 123.925 108.98 124.059C108.795 124.169 108.638 124.319 108.52 124.499C108.505 124.523 108.493 124.55 108.486 124.577H107.087C106.776 124.421 106.487 124.223 106.228 123.991V123.991Z" fill="#007cbd"/>
<path d="M98.0764 129.25C97.9015 129.107 97.7742 128.914 97.7115 128.697C97.6834 128.589 97.6935 128.474 97.7401 128.372C97.7867 128.27 97.8669 128.187 97.9673 128.138C98.2026 128.046 98.4516 128.209 98.6494 128.373C98.7306 128.468 98.8307 128.546 98.9435 128.6C99.0562 128.655 99.179 128.686 99.3042 128.69C99.1768 128.574 99.0816 128.427 99.0278 128.263C98.974 128.1 98.9635 127.925 98.9973 127.756C99.0077 127.685 99.0372 127.619 99.0825 127.565C99.2121 127.425 99.4475 127.486 99.6044 127.595C100.099 127.937 100.239 128.619 100.242 129.222C100.267 128.996 100.267 128.767 100.242 128.54C100.232 128.428 100.25 128.315 100.294 128.212C100.338 128.108 100.407 128.017 100.495 127.947C100.655 127.873 100.832 127.842 101.009 127.857C101.185 127.872 101.355 127.932 101.501 128.032C101.583 128.144 101.626 128.281 101.622 128.42C101.617 128.559 101.566 128.693 101.477 128.799C101.293 129.007 101.075 129.181 100.832 129.314C100.648 129.425 100.491 129.575 100.372 129.754C100.358 129.78 100.347 129.806 100.338 129.833H98.9427C98.6296 129.677 98.3384 129.481 98.0764 129.25V129.25Z" fill="#007cbd"/>
<path d="M74.9523 118.622C74.9523 118.622 74.4304 119.304 75.1944 120.327C75.9584 121.351 76.5928 122.234 76.337 122.879C76.337 122.879 75.1808 120.958 74.2428 120.931C73.3049 120.904 73.9291 119.775 74.9523 118.622Z" fill="#007cbd"/>
<path opacity="0.1" d="M74.9523 118.622C74.9065 118.688 74.8709 118.76 74.8465 118.837C73.9291 119.911 73.4413 120.917 74.3213 120.941C75.1432 120.965 76.1289 122.435 76.3677 122.804C76.3606 122.833 76.3515 122.861 76.3404 122.889C76.3404 122.889 75.1842 120.969 74.2462 120.941C73.3083 120.914 73.9291 119.775 74.9523 118.622Z" fill="black"/>
<path d="M73.9904 119.492C73.9904 119.734 74.0177 119.928 74.0518 119.928C74.0859 119.928 74.1098 119.734 74.1098 119.492C74.1098 119.25 74.0791 119.366 74.045 119.366C74.0109 119.366 73.9904 119.253 73.9904 119.492Z" fill="#FFD037"/>
<path d="M73.6562 119.782C73.8677 119.898 74.0518 119.966 74.0689 119.935C74.0859 119.904 73.9256 119.788 73.7278 119.676C73.53 119.563 73.5982 119.642 73.5846 119.676C73.5709 119.71 73.4447 119.683 73.6562 119.782Z" fill="#FFD037"/>
<path d="M77.7285 118.622C77.7285 118.622 78.2537 119.304 77.4863 120.327C76.7189 121.351 76.0914 122.234 76.3472 122.879C76.3472 122.879 77.5 120.958 78.4413 120.931C79.3827 120.904 78.7619 119.775 77.7285 118.622Z" fill="#007cbd"/>
<path opacity="0.1" d="M77.7285 118.622C77.7743 118.688 77.8099 118.76 77.8342 118.837C78.7517 119.911 79.2394 120.917 78.3595 120.941C77.5375 120.965 76.5552 122.435 76.3131 122.804C76.3201 122.833 76.3292 122.861 76.3404 122.889C76.3404 122.889 77.4932 120.969 78.4345 120.941C79.3758 120.914 78.7619 119.775 77.7285 118.622Z" fill="black"/>
<path d="M78.704 119.492C78.704 119.734 78.6801 119.928 78.646 119.928C78.6119 119.928 78.5846 119.734 78.5846 119.492C78.5846 119.25 78.6187 119.366 78.6528 119.366C78.6869 119.366 78.704 119.253 78.704 119.492Z" fill="#FFD037"/>
<path d="M79.045 119.782C78.8336 119.898 78.6494 119.966 78.6357 119.935C78.6221 119.904 78.7756 119.788 78.9768 119.676C79.178 119.563 79.1064 119.642 79.1235 119.676C79.1405 119.71 79.2463 119.683 79.045 119.782Z" fill="#FFD037"/>
<path d="M78.5368 122.8C78.5368 122.8 77.0702 122.756 76.6303 122.442C76.1903 122.128 74.3793 121.76 74.2701 122.254C74.161 122.749 72.0703 124.761 73.721 124.775C75.3718 124.789 77.5614 124.516 78.0013 124.25C78.4413 123.984 78.5368 122.8 78.5368 122.8Z" fill="#A8A8A8"/>
<path opacity="0.2" d="M73.6937 124.597C75.3445 124.597 77.5341 124.342 77.9741 124.072C78.3151 123.868 78.4413 123.134 78.4857 122.797H78.5368C78.5368 122.797 78.4413 123.977 78.0014 124.246C77.5614 124.516 75.3752 124.785 73.721 124.771C73.2469 124.771 73.0798 124.597 73.0901 124.345C73.1549 124.502 73.339 124.594 73.6937 124.597Z" fill="black"/>
<path opacity="0.1" d="M66.5655 171.051C73.1055 171.051 78.4072 170.267 78.4072 169.301C78.4072 168.335 73.1055 167.551 66.5655 167.551C60.0255 167.551 54.7237 168.335 54.7237 169.301C54.7237 170.267 60.0255 171.051 66.5655 171.051Z" fill="#007cbd"/>
<path opacity="0.1" d="M99.6419 185.539C106.182 185.539 111.484 184.756 111.484 183.789C111.484 182.823 106.182 182.04 99.6419 182.04C93.1019 182.04 87.8001 182.823 87.8001 183.789C87.8001 184.756 93.1019 185.539 99.6419 185.539Z" fill="#007cbd"/>
<path opacity="0.1" d="M50.9857 202.023C57.5257 202.023 62.8274 201.239 62.8274 200.273C62.8274 199.307 57.5257 198.523 50.9857 198.523C44.4457 198.523 39.1439 199.307 39.1439 200.273C39.1439 201.239 44.4457 202.023 50.9857 202.023Z" fill="#007cbd"/>
<path opacity="0.1" d="M301.889 238.23C308.43 238.23 313.731 237.446 313.731 236.48C313.731 235.514 308.43 234.73 301.889 234.73C295.349 234.73 290.048 235.514 290.048 236.48C290.048 237.446 295.349 238.23 301.889 238.23Z" fill="#007cbd"/>
<path opacity="0.1" d="M167.493 197.098C171.824 197.098 175.334 196.705 175.334 196.221C175.334 195.737 171.824 195.344 167.493 195.344C163.163 195.344 159.652 195.737 159.652 196.221C159.652 196.705 163.163 197.098 167.493 197.098Z" fill="#007cbd"/>
<path opacity="0.1" d="M279.703 152.077C284.034 152.077 287.544 151.685 287.544 151.201C287.544 150.716 284.034 150.324 279.703 150.324C275.373 150.324 271.862 150.716 271.862 151.201C271.862 151.685 275.373 152.077 279.703 152.077Z" fill="#007cbd"/>
<path opacity="0.1" d="M218.649 218.585C222.98 218.585 226.49 218.192 226.49 217.708C226.49 217.224 222.98 216.832 218.649 216.832C214.319 216.832 210.808 217.224 210.808 217.708C210.808 218.192 214.319 218.585 218.649 218.585Z" fill="#007cbd"/>
<path opacity="0.1" d="M150.969 212.8C155.299 212.8 158.81 212.408 158.81 211.924C158.81 211.44 155.299 211.047 150.969 211.047C146.638 211.047 143.128 211.44 143.128 211.924C143.128 212.408 146.638 212.8 150.969 212.8Z" fill="#007cbd"/>
<path opacity="0.1" d="M87.5409 210.525C91.8714 210.525 95.382 210.133 95.382 209.649C95.382 209.164 91.8714 208.772 87.5409 208.772C83.2104 208.772 79.6999 209.164 79.6999 209.649C79.6999 210.133 83.2104 210.525 87.5409 210.525Z" fill="#007cbd"/>
<path opacity="0.1" d="M71.013 226.228C75.3435 226.228 78.854 225.835 78.854 225.351C78.854 224.867 75.3435 224.475 71.013 224.475C66.6825 224.475 63.1719 224.867 63.1719 225.351C63.1719 225.835 66.6825 226.228 71.013 226.228Z" fill="#007cbd"/>
<g opacity="0.1">
<path opacity="0.1" d="M173.533 104.84C202.187 104.84 225.416 94.4729 225.416 81.6849C225.416 68.8968 202.187 58.53 173.533 58.53C144.879 58.53 121.651 68.8968 121.651 81.6849C121.651 94.4729 144.879 104.84 173.533 104.84Z" fill="black"/>
<path opacity="0.1" d="M226.316 89.9625C224.021 102.036 201.34 111.514 173.694 111.514C145.805 111.514 122.967 101.869 121.01 89.6487H120.815V109.325C129.935 118.854 150.126 125.481 173.564 125.481C197.002 125.481 217.193 118.854 226.316 109.325V89.9625Z" fill="black"/>
<path opacity="0.1" d="M226.316 113.905C224.021 125.976 201.34 135.457 173.694 135.457C145.805 135.457 122.967 125.812 121.01 113.588H120.815V133.268C129.935 142.797 150.126 149.42 173.564 149.42C197.002 149.42 217.193 142.797 226.316 133.268V113.905Z" fill="black"/>
<path opacity="0.1" d="M226.316 140.239C224.021 152.312 201.34 161.791 173.694 161.791C145.805 161.791 122.967 152.149 121.01 139.925H120.815V161.146C120.814 161.598 120.907 162.046 121.088 162.46C121.269 162.875 121.534 163.247 121.866 163.554C131.415 172.323 150.989 175.757 173.564 175.757C196.139 175.757 215.703 172.323 225.266 163.554C225.598 163.247 225.863 162.875 226.044 162.46C226.224 162.046 226.317 161.598 226.316 161.146V140.239Z" fill="black"/>
</g>
<path d="M173.533 103.475C202.187 103.475 225.416 93.1087 225.416 80.3206C225.416 67.5325 202.187 57.1658 173.533 57.1658C144.879 57.1658 121.651 67.5325 121.651 80.3206C121.651 93.1087 144.879 103.475 173.533 103.475Z" fill="#007cbd"/>
<path d="M226.317 88.5982C224.021 100.672 201.34 110.15 173.694 110.15C145.805 110.15 122.967 100.505 121.01 88.2844H120.815V107.96C129.935 117.49 150.126 124.117 173.564 124.117C197.002 124.117 217.193 117.49 226.317 107.96V88.5982Z" fill="#007cbd"/>
<path d="M226.317 112.541C224.021 124.611 201.34 134.093 173.694 134.093C145.805 134.093 122.967 124.447 121.01 112.224H120.815V131.903C129.935 141.432 150.126 148.056 173.564 148.056C197.002 148.056 217.193 141.432 226.317 131.903V112.541Z" fill="#007cbd"/>
<path d="M226.316 138.875C224.021 150.948 201.34 160.426 173.694 160.426C145.805 160.426 122.967 150.785 121.01 138.561H120.815V159.782C120.814 160.234 120.907 160.681 121.088 161.096C121.269 161.51 121.534 161.883 121.866 162.19C131.415 170.958 150.989 174.393 173.564 174.393C196.139 174.393 215.703 170.958 225.266 162.19C225.598 161.883 225.863 161.51 226.044 161.096C226.224 160.681 226.317 160.234 226.316 159.782V138.875Z" fill="#007cbd"/>
<path opacity="0.1" d="M250.01 198.332C260.747 198.332 269.451 196.765 269.451 194.833C269.451 192.9 260.747 191.333 250.01 191.333C239.273 191.333 230.57 192.9 230.57 194.833C230.57 196.765 239.273 198.332 250.01 198.332Z" fill="#007cbd"/>
<path d="M239.096 150.245C240.078 150.825 241.62 151.204 243.561 149.956L243.544 152.722C243.68 154.618 246.027 161.531 246.027 161.531L247.681 167.217C248.868 171.235 249.48 175.401 249.499 179.591C249.499 180.975 249.628 182.408 250.027 183.486C250.911 185.873 249.686 188.943 249.151 190.075C248.255 190.378 247.344 190.634 246.422 190.842C246.34 190.862 246.259 190.887 246.18 190.917V190.9C246.18 190.9 243.697 191.886 242.592 191.75C241.77 191.651 241.255 192.677 241.91 193.431C241.375 193.594 240.818 193.668 240.259 193.649C239.154 193.513 238.602 195.409 240.672 195.951C242.742 196.494 254.471 195.951 254.471 195.951C254.801 195.787 255.066 195.517 255.225 195.185C255.384 194.852 255.429 194.477 255.351 194.117L256.818 194.055C256.818 194.055 258.888 193.107 256.818 190.532L256.705 190.614L256.265 189.311V187.554C256.265 187.554 258.888 174.935 258.059 173.458C257.231 171.982 256.791 164.362 256.791 164.362L257.08 156.108C257.827 154.567 258.209 152.145 258.404 150.252C258.686 149.35 258.864 148.419 258.932 147.476C258.967 147.029 258.994 146.565 259.011 146.081C259.022 145.019 258.852 143.962 258.506 142.957C259.442 141.568 260.488 140.257 261.634 139.035C262.11 138.592 262.472 138.04 262.689 137.426C262.906 136.813 262.971 136.156 262.879 135.512L262.196 130.904L260.539 123.059C260.747 120.88 260.293 119.625 259.788 118.915C259.908 118.209 260.02 117.507 260.106 116.797C260.471 113.723 260.307 110.608 259.621 107.589C259.383 106.538 259.055 105.457 258.315 104.659C257.479 103.752 256.122 103.203 255.808 102.019C255.764 101.717 255.7 101.419 255.617 101.125C255.314 100.351 254.359 100.068 253.52 99.9658C252.026 99.7851 249.867 99.6486 248.431 100.235C247.171 100.792 246.134 101.755 245.484 102.971C245.161 103.47 245.039 104.073 245.143 104.659C245.194 104.862 245.273 105.057 245.379 105.239C244.901 106.535 244.953 107.967 245.523 109.224C246.094 110.482 247.138 111.464 248.428 111.958C248.462 112.063 248.492 112.166 248.516 112.265C248.579 112.508 248.625 112.755 248.653 113.005C248.625 113.482 248.595 113.963 248.574 114.444L248.523 114.638C247.336 115.164 246.178 115.754 245.055 116.405C245.88 117.626 244.915 122.776 244.915 122.776C242.844 123.994 240.778 127.111 242.984 130.365C245.191 133.619 243.949 137.138 243.949 137.138L243.608 142.439L243.54 143.499H243.564L243.54 143.902H243.598V144.335C242.63 144.693 241.211 145.409 240.368 146.739C239.969 147.392 239.484 147.987 238.926 148.509C238.796 148.621 238.694 148.762 238.63 148.921C238.566 149.08 238.542 149.252 238.559 149.422C238.575 149.592 238.633 149.756 238.727 149.9C238.82 150.043 238.947 150.162 239.096 150.245V150.245ZM255.757 136.166C255.674 135.249 255.844 134.327 256.248 133.499H257.224C257.252 133.715 257.292 133.929 257.343 134.14C257.623 135.351 256.504 135.921 255.757 136.166V136.166Z" fill="url(#paint0_linear)"/>
<path d="M256.03 188.69L256.562 190.283L254.836 192.009L249.127 193.353L245.01 192.954L245.276 191.494C245.355 191.18 245.518 190.893 245.748 190.666C245.979 190.439 246.267 190.279 246.583 190.205C248.288 189.809 251.501 188.902 252.179 187.643L256.03 188.69Z" fill="#DB8B8B"/>
<path opacity="0.1" d="M256.03 188.69L256.562 190.283L254.836 192.009L249.127 193.353L245.01 192.954L245.276 191.494C245.355 191.18 245.518 190.893 245.748 190.666C245.979 190.439 246.267 190.279 246.583 190.205C248.288 189.809 251.501 188.902 252.179 187.643L256.03 188.69Z" fill="black"/>
<path d="M246.337 192.541L247.135 191.48L246.337 190.249C246.337 190.249 243.95 191.214 242.885 191.081C241.821 190.948 241.293 192.807 243.284 193.339C245.276 193.871 256.562 193.339 256.562 193.339C256.562 193.339 258.554 192.408 256.562 189.884L254.836 191.214C254.836 191.214 251.913 192.807 250.454 192.541H246.337Z" fill="#C17174"/>
<path d="M242.756 194.799L246.872 195.198L252.582 193.868L254.308 192.142L254.168 191.722L253.97 191.129L253.776 190.549L249.918 189.488C249.722 189.806 249.455 190.074 249.137 190.269C247.885 191.125 245.641 191.743 244.321 192.05C244.266 192.063 244.211 192.08 244.158 192.101C243.901 192.183 243.667 192.324 243.475 192.514C243.245 192.74 243.082 193.025 243.005 193.339L242.756 194.799Z" fill="#DB8B8B"/>
<path opacity="0.1" d="M242.756 194.799L246.872 195.198L252.582 193.868L254.308 192.142L254.168 191.722L252.582 192.94C252.582 192.94 249.659 194.533 248.199 194.267H244.079L244.877 193.206L244.161 192.101C243.904 192.183 243.67 192.324 243.479 192.514C243.248 192.74 243.085 193.026 243.008 193.339L242.756 194.799Z" fill="black"/>
<path d="M244.079 194.4L244.877 193.339L244.079 192.108C244.079 192.108 241.692 193.073 240.628 192.94C239.563 192.807 239.035 194.666 241.027 195.198C243.018 195.73 254.304 195.198 254.304 195.198C254.304 195.198 256.296 194.267 254.304 191.746L252.578 193.073C252.578 193.073 249.656 194.666 248.196 194.4H244.079Z" fill="#C17174"/>
<path d="M247.398 117.387C247.398 117.387 253.772 118.07 252.855 115.396C252.593 114.643 252.525 113.835 252.657 113.049C252.821 112.076 253.206 111.153 253.782 110.351L247.807 111.279C248.166 111.878 248.439 112.524 248.619 113.199C249.318 116.016 247.398 117.387 247.398 117.387Z" fill="#DB8B8B"/>
<path d="M258.288 147.65C258.288 147.65 258.155 153.36 256.828 156.149L256.562 164.25C256.562 164.25 256.958 171.685 257.756 173.145C258.554 174.604 256.03 186.954 256.03 186.954V189.079C256.03 189.079 251.78 190.672 250.573 188.813L251.767 173.012L251.235 151.105L258.288 147.65Z" fill="#003554"/>
<path opacity="0.1" d="M258.288 147.65C258.288 147.65 258.155 153.36 256.828 156.149L256.562 164.25C256.562 164.25 256.958 171.685 257.756 173.145C258.554 174.604 256.03 186.954 256.03 186.954V189.079C256.03 189.079 251.78 190.672 250.573 188.813L251.767 173.012L251.235 151.105L258.288 147.65Z" fill="black"/>
<path d="M260.941 129.338L261.739 131.463L262.422 135.975C262.51 136.605 262.448 137.247 262.24 137.847C262.032 138.448 261.684 138.991 261.224 139.43C259.632 141.023 257.507 144.342 257.507 144.342L254.986 136.774C254.986 136.774 257.507 136.375 257.108 134.649C256.709 132.923 256.845 129.737 256.845 129.737L260.941 129.338Z" fill="#FF748E"/>
<path opacity="0.05" d="M260.972 129.308L261.767 131.432L262.449 135.948C262.539 136.577 262.478 137.218 262.27 137.819C262.062 138.419 261.714 138.961 261.255 139.4C259.659 140.992 257.538 144.314 257.538 144.314L254.997 136.736C254.997 136.736 257.52 136.337 257.121 134.611C256.722 132.885 256.855 129.696 256.855 129.696L260.972 129.308Z" fill="black"/>
<path opacity="0.1" d="M249.141 190.283C250.846 192.964 253.496 191.443 253.967 191.142L253.772 190.563L249.918 189.488C249.725 189.811 249.459 190.083 249.141 190.283V190.283Z" fill="black"/>
<path d="M243.813 152.841C243.946 154.7 246.201 161.47 246.201 161.47L247.793 167.043C248.933 170.984 249.522 175.063 249.543 179.165C249.503 180.456 249.675 181.745 250.051 182.981C251.115 185.904 248.99 189.884 248.99 189.884C250.849 193.206 254.035 190.948 254.035 190.948V188.823C254.035 188.823 256.559 177.272 255.894 175.014C255.229 172.756 254.966 166.651 254.966 166.651V155.628C257.092 153.508 258.385 150.695 258.608 147.701C258.639 147.265 258.666 146.808 258.684 146.337C258.789 143.343 256.739 139.83 255.955 138.578C255.764 138.274 255.641 138.104 255.641 138.104L243.919 142.756H243.892V143.216V144.219L243.813 152.841Z" fill="#003554"/>
<path opacity="0.1" d="M247.797 111.279C248.156 111.878 248.429 112.524 248.608 113.199C249.257 113.445 249.949 113.559 250.643 113.533C251.336 113.507 252.018 113.343 252.647 113.049C252.811 112.076 253.196 111.153 253.772 110.351L247.797 111.279Z" fill="black"/>
<path d="M250.454 113.271C253.313 113.271 255.631 110.953 255.631 108.093C255.631 105.234 253.313 102.916 250.454 102.916C247.594 102.916 245.276 105.234 245.276 108.093C245.276 110.953 247.594 113.271 250.454 113.271Z" fill="#DB8B8B"/>
<path opacity="0.1" d="M243.813 144.209H243.871C249.437 145.355 256.429 139.553 256.429 139.553C256.242 139.237 256.08 138.906 255.945 138.564C255.754 138.261 255.631 138.09 255.631 138.09L243.909 142.742L243.878 143.206L243.813 144.209Z" fill="black"/>
<path d="M245.276 117.254C245.276 117.254 252.711 112.739 255.099 114.598L258.421 118.847C258.421 118.847 260.546 119.512 260.15 123.776L261.743 131.477L256.968 132.67C256.968 132.67 254.181 135.327 256.439 139.178C256.439 139.178 249.4 145.02 243.82 143.823L244.219 137.585C244.219 137.585 245.413 134.13 243.291 130.945C241.17 127.759 243.158 124.703 245.15 123.51C245.143 123.496 246.071 118.448 245.276 117.254Z" fill="#FF748E"/>
<path d="M244.877 144.342C244.877 144.342 242.087 144.874 240.761 146.999C240.377 147.637 239.909 148.221 239.369 148.735C239.248 148.845 239.154 148.982 239.095 149.135C239.037 149.288 239.015 149.453 239.031 149.616C239.047 149.779 239.101 149.936 239.189 150.074C239.277 150.213 239.396 150.329 239.536 150.413C240.59 151.047 242.306 151.436 244.478 149.652C248.213 146.6 244.877 144.342 244.877 144.342Z" fill="#DB8B8B"/>
<path opacity="0.1" d="M248.994 119.778C248.994 119.778 251.647 119.512 252.312 126.415C252.977 133.318 254.038 134.915 254.038 134.915C254.038 134.915 254.703 138.499 253.107 140.624C251.511 142.749 248.462 147.264 248.462 147.264C248.462 147.264 245.143 148.192 244.478 144.877L248.595 137.176C248.595 137.176 249.256 134.519 247.664 132.66C246.071 130.801 244.877 118.448 248.994 119.778Z" fill="black"/>
<path d="M248.728 119.379C248.728 119.379 251.381 119.113 252.046 126.02C252.711 132.926 253.772 134.516 253.772 134.516C253.772 134.516 254.454 138.1 252.844 140.225C251.235 142.35 248.213 146.866 248.213 146.866C248.213 146.866 244.894 147.793 244.229 144.478L248.346 136.777C248.346 136.777 249.011 134.12 247.415 132.261C245.818 130.402 244.611 118.053 248.728 119.379Z" fill="#FF748E"/>
<path opacity="0.1" d="M246.535 124.359C246.535 124.359 246.272 128.475 247.466 130.733C248.66 132.991 248.66 135.911 247.466 137.503" fill="black"/>
<path opacity="0.1" d="M245.873 119.311C245.873 119.311 246.934 118.25 249.99 118.117C253.046 117.984 254.369 117.057 254.369 117.057" fill="black"/>
<path opacity="0.1" d="M253.257 101.402C254.065 101.501 254.986 101.777 255.276 102.534C255.356 102.822 255.419 103.115 255.464 103.411C255.764 104.57 257.07 105.116 257.875 105.996C258.585 106.78 258.898 107.838 259.13 108.871C259.791 111.831 259.949 114.88 259.598 117.892C259.338 120.092 258.806 122.261 258.66 124.471C258.513 126.682 258.782 129.011 259.99 130.87C260.512 131.668 261.197 132.371 261.565 133.257C260.805 133.875 259.754 133.963 258.772 133.997C257.635 134.036 256.493 134.036 255.344 133.997C254.743 134.021 254.146 133.896 253.605 133.632C253.222 133.389 252.908 133.052 252.691 132.654C252.036 131.545 251.872 130.212 251.9 128.926C251.927 127.64 252.132 126.361 252.155 125.072C252.223 124.368 252.067 123.662 251.709 123.053C251.379 122.67 251.006 122.326 250.597 122.029C249.175 120.768 248.687 118.748 248.639 116.849C248.591 114.949 248.905 113.049 248.745 111.156C248.683 110.416 248.404 109.526 247.677 109.383C247.448 109.373 247.22 109.344 246.995 109.294C246.412 109.069 246.47 108.247 246.313 107.643C246.125 106.961 245.546 106.439 245.382 105.757C245 104.151 247.046 102.231 248.387 101.664C249.727 101.098 251.821 101.225 253.257 101.402Z" fill="black"/>
<path d="M253.39 101.136C254.199 101.235 255.119 101.511 255.409 102.272C255.489 102.559 255.552 102.85 255.597 103.145C255.897 104.304 257.203 104.85 258.008 105.73C258.718 106.514 259.031 107.572 259.263 108.605C259.925 111.568 260.081 114.621 259.727 117.637C259.471 119.836 258.939 122.006 258.793 124.219C258.646 126.433 258.915 128.755 260.123 130.614C260.645 131.416 261.33 132.115 261.699 133.001C260.938 133.622 259.887 133.707 258.905 133.742C257.768 133.778 256.626 133.778 255.478 133.742C254.877 133.767 254.279 133.643 253.738 133.38C253.355 133.135 253.041 132.797 252.824 132.398C252.169 131.289 252.005 129.956 252.033 128.67C252.06 127.384 252.265 126.105 252.289 124.819C252.289 124.117 252.248 123.373 251.842 122.8C251.513 122.416 251.14 122.073 250.73 121.777C249.308 120.515 248.82 118.496 248.772 116.596C248.724 114.697 249.038 112.797 248.878 110.904C248.817 110.164 248.537 109.274 247.81 109.13C247.581 109.121 247.353 109.091 247.128 109.042C246.545 108.817 246.603 107.995 246.446 107.391C246.259 106.709 245.679 106.19 245.515 105.505C245.133 103.898 247.179 101.978 248.52 101.412C249.86 100.846 251.965 100.959 253.39 101.136Z" fill="#464353"/>
<path d="M43.6699 195.351C43.6699 195.351 47.3261 195.239 48.4243 194.454C49.5225 193.67 54.045 192.732 54.3179 193.991C54.5907 195.249 59.809 200.246 55.6821 200.28C51.5553 200.314 46.0982 199.635 44.9966 198.967C43.895 198.298 43.6699 195.351 43.6699 195.351Z" fill="#A8A8A8"/>
<path opacity="0.2" d="M55.7572 199.833C51.6337 199.867 46.1733 199.192 45.075 198.523C44.2394 198.012 43.9052 196.183 43.7926 195.338H43.6699C43.6699 195.338 43.9018 198.284 45 198.953C46.0982 199.621 51.5587 200.297 55.6856 200.266C56.8759 200.266 57.2851 199.833 57.2647 199.205C57.0976 199.598 56.6439 199.833 55.7572 199.833Z" fill="black"/>
<path d="M275.897 147.381C275.897 147.381 278.404 147.302 279.161 146.763C279.918 146.224 283.018 145.583 283.206 146.446C283.394 147.309 286.978 150.74 284.144 150.764C281.31 150.788 277.565 150.321 276.811 149.864C276.057 149.407 275.897 147.381 275.897 147.381Z" fill="#A8A8A8"/>
<path opacity="0.2" d="M284.195 150.464C281.364 150.484 277.616 150.02 276.862 149.563C276.286 149.222 276.057 147.957 275.982 147.377H275.897C275.897 147.377 276.057 149.4 276.811 149.86C277.565 150.321 281.313 150.781 284.144 150.761C284.962 150.761 285.246 150.464 285.228 150.031C285.116 150.297 284.806 150.457 284.195 150.464Z" fill="black"/>
<path opacity="0.1" d="M10.6719 14.7544C14.7462 14.7544 18.0491 11.4515 18.0491 7.37722C18.0491 3.30289 14.7462 0 10.6719 0C6.59757 0 3.29468 3.30289 3.29468 7.37722C3.29468 11.4515 6.59757 14.7544 10.6719 14.7544Z" fill="#007cbd"/>
<path opacity="0.1" d="M327.862 35.9004C331.936 35.9004 335.239 32.5975 335.239 28.5232C335.239 24.4489 331.936 21.146 327.862 21.146C323.787 21.146 320.484 24.4489 320.484 28.5232C320.484 32.5975 323.787 35.9004 327.862 35.9004Z" fill="#007cbd"/>
<path opacity="0.1" d="M5.45703 41.6714C8.47086 41.6714 10.9141 39.2282 10.9141 36.2144C10.9141 33.2005 8.47086 30.7573 5.45703 30.7573C2.44319 30.7573 0 33.2005 0 36.2144C0 39.2282 2.44319 41.6714 5.45703 41.6714Z" fill="#007cbd"/>
<path opacity="0.1" d="M60.7094 10.9756C63.7232 10.9756 66.1664 8.53238 66.1664 5.51855C66.1664 2.50472 63.7232 0.0615234 60.7094 0.0615234C57.6956 0.0615234 55.2524 2.50472 55.2524 5.51855C55.2524 8.53238 57.6956 10.9756 60.7094 10.9756Z" fill="#007cbd"/>
<path opacity="0.1" d="M284.447 11.6577C287.461 11.6577 289.905 9.21451 289.905 6.20068C289.905 3.18685 287.461 0.743652 284.447 0.743652C281.434 0.743652 278.99 3.18685 278.99 6.20068C278.99 9.21451 281.434 11.6577 284.447 11.6577Z" fill="#007cbd"/>
<path d="M303.417 220.464C303.417 220.464 304.782 222.251 302.786 224.949C300.791 227.647 299.144 229.922 299.809 231.603C299.809 231.603 302.821 226.596 305.266 226.525C307.711 226.453 306.112 223.479 303.417 220.464Z" fill="#FC6681"/>
<path opacity="0.1" d="M303.417 220.464C303.536 220.637 303.629 220.827 303.694 221.027C306.081 223.837 307.364 226.46 305.058 226.525C302.916 226.586 300.348 230.416 299.731 231.385C299.751 231.459 299.776 231.532 299.806 231.603C299.806 231.603 302.817 226.596 305.263 226.525C307.708 226.453 306.112 223.479 303.417 220.464Z" fill="black"/>
<path d="M305.955 222.742C305.955 223.37 305.883 223.881 305.798 223.881C305.713 223.881 305.641 223.37 305.641 222.742C305.641 222.114 305.73 222.401 305.815 222.401C305.9 222.401 305.955 222.111 305.955 222.742Z" fill="#FFD037"/>
<path d="M306.828 223.492C306.276 223.793 305.805 223.973 305.75 223.898C305.696 223.823 306.125 223.516 306.675 223.216C307.224 222.916 307.016 223.134 307.053 223.216C307.091 223.298 307.381 223.192 306.828 223.492Z" fill="#FFD037"/>
<path d="M296.201 220.464C296.201 220.464 294.836 222.251 296.832 224.949C298.827 227.647 300.474 229.922 299.809 231.603C299.809 231.603 296.794 226.596 294.352 226.525C291.91 226.453 293.503 223.479 296.201 220.464Z" fill="#FC6681"/>
<path opacity="0.1" d="M296.201 220.464C296.082 220.637 295.987 220.827 295.921 221.027C293.533 223.837 292.254 226.46 294.557 226.525C296.699 226.586 299.27 230.416 299.884 231.385C299.864 231.456 299.84 231.531 299.812 231.603C299.812 231.603 296.797 226.596 294.355 226.525C291.913 226.453 293.503 223.479 296.201 220.464Z" fill="black"/>
<path d="M293.66 222.742C293.66 223.37 293.731 223.881 293.82 223.881C293.909 223.881 293.977 223.37 293.977 222.742C293.977 222.114 293.888 222.401 293.799 222.401C293.711 222.401 293.66 222.111 293.66 222.742Z" fill="#FFD037"/>
<path d="M292.79 223.492C293.342 223.793 293.813 223.973 293.864 223.898C293.915 223.823 293.493 223.516 292.94 223.216C292.387 222.916 292.599 223.134 292.565 223.216C292.531 223.298 292.237 223.192 292.79 223.492Z" fill="#FFD037"/>
<path d="M294.096 231.371C294.096 231.371 297.916 231.252 299.065 230.433C300.215 229.615 304.942 228.636 305.229 229.949C305.515 231.262 310.965 236.487 306.654 236.521C302.343 236.555 296.634 235.839 295.488 235.157C294.342 234.475 294.096 231.371 294.096 231.371Z" fill="#A8A8A8"/>
<path opacity="0.2" d="M306.733 236.064C302.418 236.098 296.712 235.382 295.563 234.7C294.69 234.168 294.338 232.254 294.222 231.371H294.096C294.096 231.371 294.338 234.441 295.488 235.15C296.637 235.86 302.343 236.555 306.654 236.514C307.899 236.514 308.329 236.061 308.305 235.406C308.134 235.808 307.657 236.057 306.733 236.064Z" fill="black"/>
<path opacity="0.7" d="M107.93 42.9639C106.513 42.9639 105.128 43.3839 103.951 44.1709C102.773 44.9579 101.855 46.0766 101.313 47.3853C100.771 48.6941 100.629 50.1342 100.905 51.5235C101.181 52.9129 101.864 54.1891 102.865 55.1908C103.867 56.1924 105.143 56.8746 106.532 57.1509C107.922 57.4273 109.362 57.2855 110.671 56.7434C111.979 56.2013 113.098 55.2832 113.885 54.1054C114.672 52.9276 115.092 51.5428 115.092 50.1262C115.092 48.2266 114.337 46.4049 112.994 45.0617C111.651 43.7185 109.829 42.9639 107.93 42.9639V42.9639ZM107.93 44.352C109.076 44.352 110.197 44.692 111.151 45.3292C112.104 45.9663 112.848 46.8718 113.286 47.9313C113.725 48.9907 113.84 50.1565 113.616 51.2812C113.393 52.406 112.84 53.4391 112.03 54.25C111.219 55.0608 110.186 55.6131 109.061 55.8368C107.936 56.0605 106.77 55.9457 105.711 55.5068C104.651 55.068 103.746 54.3248 103.109 53.3713C102.472 52.4178 102.132 51.2968 102.132 50.1501C102.132 48.6123 102.743 47.1376 103.83 46.0502C104.917 44.9629 106.392 44.352 107.93 44.352ZM111.985 48.1208L111.334 47.4625C111.302 47.4295 111.264 47.4032 111.221 47.3853C111.179 47.3674 111.134 47.3581 111.088 47.3581C111.042 47.3581 110.997 47.3674 110.955 47.3853C110.912 47.4032 110.874 47.4295 110.842 47.4625L106.75 51.5178L105.024 49.7647C104.992 49.7317 104.954 49.7054 104.912 49.6875C104.87 49.6696 104.824 49.6603 104.778 49.6603C104.732 49.6603 104.687 49.6696 104.645 49.6875C104.603 49.7054 104.565 49.7317 104.533 49.7647L103.878 50.4161C103.845 50.4479 103.819 50.4861 103.801 50.5283C103.783 50.5705 103.774 50.6158 103.774 50.6617C103.774 50.7075 103.783 50.7529 103.801 50.7951C103.819 50.8373 103.845 50.8754 103.878 50.9073L106.504 53.5539C106.536 53.5869 106.574 53.6132 106.616 53.6311C106.658 53.649 106.704 53.6583 106.75 53.6583C106.796 53.6583 106.841 53.649 106.883 53.6311C106.925 53.6132 106.963 53.5869 106.995 53.5539L111.985 48.6017C112.018 48.5698 112.044 48.5317 112.062 48.4895C112.08 48.4473 112.089 48.4019 112.089 48.3561C112.089 48.3102 112.08 48.2649 112.062 48.2227C112.044 48.1805 112.018 48.1423 111.985 48.1105V48.1208Z" fill="#3ACC6C"/>
<path opacity="0.7" d="M28.6392 79.2258C27.2601 79.5461 26.007 80.268 25.038 81.3001C24.069 82.3323 23.4276 83.6285 23.1949 85.025C22.9621 86.4214 23.1485 87.8556 23.7304 89.1462C24.3123 90.4368 25.2636 91.5261 26.4642 92.2763C27.6648 93.0266 29.0608 93.4042 30.4759 93.3615C31.891 93.3188 33.2617 92.8576 34.4148 92.0363C35.568 91.215 36.4519 90.0704 36.9549 88.747C37.4578 87.4236 37.5573 85.9809 37.2408 84.601C37.0301 83.6826 36.6403 82.8148 36.0937 82.0473C35.5471 81.2799 34.8544 80.6278 34.0554 80.1285C33.2563 79.6291 32.3666 79.2924 31.4372 79.1375C30.5078 78.9826 29.557 79.0126 28.6392 79.2258V79.2258ZM28.9529 80.5901C30.0708 80.3292 31.241 80.406 32.3152 80.8108C33.3894 81.2156 34.3192 81.9301 34.9869 82.8639C35.6546 83.7977 36.0301 84.9086 36.0659 86.056C36.1016 87.2033 35.7959 88.3355 35.1876 89.309C34.5793 90.2825 33.6957 91.0535 32.6488 91.5243C31.6019 91.9952 30.4388 92.1447 29.3068 91.9539C28.1749 91.7631 27.125 91.2405 26.2903 90.4525C25.4556 89.6645 24.8736 88.6464 24.618 87.5273C24.2767 86.0328 24.5412 84.4639 25.3535 83.1639C26.1659 81.8638 27.4601 80.9384 28.9529 80.5901V80.5901ZM33.7517 83.3527L32.9673 82.8479C32.929 82.823 32.886 82.8061 32.8411 82.7981C32.7961 82.7901 32.75 82.7912 32.7054 82.8014C32.6609 82.8116 32.6188 82.8306 32.5818 82.8573C32.5448 82.8841 32.5135 82.918 32.4898 82.957L29.4202 87.8274L27.3431 86.5143C27.3048 86.4894 27.2619 86.4725 27.2169 86.4645C27.1719 86.4565 27.1258 86.4576 27.0813 86.4678C27.0367 86.478 26.9947 86.497 26.9577 86.5238C26.9206 86.5505 26.8893 86.5844 26.8656 86.6235L26.3711 87.4079C26.3462 87.4462 26.3292 87.4891 26.3213 87.5341C26.3133 87.5791 26.3144 87.6252 26.3246 87.6698C26.3348 87.7143 26.3538 87.7563 26.3805 87.7934C26.4073 87.8304 26.4412 87.8617 26.4802 87.8854L29.6317 89.8738C29.6701 89.8993 29.7133 89.9167 29.7586 89.9249C29.8039 89.9332 29.8505 89.9323 29.8954 89.9221C29.9404 89.9119 29.9828 89.8926 30.0201 89.8656C30.0574 89.8386 30.0889 89.8042 30.1126 89.7647L33.8643 83.8199C33.8893 83.7818 33.9065 83.7391 33.9147 83.6943C33.9229 83.6494 33.9221 83.6034 33.9123 83.5589C33.9024 83.5143 33.8837 83.4723 33.8573 83.4351C33.8309 83.3979 33.7973 83.3664 33.7585 83.3424L33.7517 83.3527Z" fill="#3ACC6C"/>
<path opacity="0.7" d="M212.319 44.0007C210.903 44.0007 209.518 44.4208 208.34 45.2078C207.162 45.9948 206.244 47.1134 205.702 48.4222C205.16 49.7309 205.018 51.171 205.295 52.5604C205.571 53.9497 206.253 55.226 207.255 56.2276C208.256 57.2293 209.533 57.9114 210.922 58.1878C212.311 58.4642 213.751 58.3223 215.06 57.7802C216.369 57.2381 217.487 56.3201 218.274 55.1423C219.061 53.9644 219.482 52.5797 219.482 51.1631C219.482 49.2635 218.727 47.4417 217.384 46.0985C216.041 44.7553 214.219 44.0007 212.319 44.0007ZM212.319 45.3889C213.466 45.3889 214.587 45.7289 215.54 46.366C216.494 47.0031 217.237 47.9087 217.676 48.9681C218.115 50.0276 218.23 51.1934 218.006 52.3181C217.782 53.4428 217.23 54.4759 216.419 55.2868C215.608 56.0977 214.575 56.6499 213.45 56.8736C212.326 57.0974 211.16 56.9825 210.1 56.5437C209.041 56.1048 208.135 55.3617 207.498 54.4082C206.861 53.4547 206.521 52.3337 206.521 51.187C206.521 49.6492 207.132 48.1744 208.219 47.0871C209.307 45.9997 210.781 45.3889 212.319 45.3889ZM216.374 49.1576L215.723 48.4994C215.691 48.4664 215.653 48.4401 215.611 48.4222C215.569 48.4042 215.523 48.395 215.477 48.395C215.432 48.395 215.386 48.4042 215.344 48.4222C215.302 48.4401 215.264 48.4664 215.232 48.4994L211.139 52.5546L209.41 50.8118C209.378 50.7788 209.34 50.7525 209.298 50.7346C209.256 50.7167 209.21 50.7074 209.164 50.7074C209.119 50.7074 209.073 50.7167 209.031 50.7346C208.989 50.7525 208.951 50.7788 208.919 50.8118L208.267 51.47C208.234 51.5019 208.208 51.54 208.19 51.5822C208.172 51.6244 208.163 51.6698 208.163 51.7156C208.163 51.7614 208.172 51.8068 208.19 51.849C208.208 51.8912 208.234 51.9294 208.267 51.9612L210.894 54.6078C210.925 54.6408 210.964 54.6671 211.006 54.685C211.048 54.703 211.093 54.7122 211.139 54.7122C211.185 54.7122 211.23 54.703 211.273 54.685C211.315 54.6671 211.353 54.6408 211.385 54.6078L216.374 49.6556C216.407 49.6238 216.434 49.5856 216.452 49.5434C216.47 49.5012 216.479 49.4559 216.479 49.41C216.479 49.3642 216.47 49.3188 216.452 49.2766C216.434 49.2344 216.407 49.1963 216.374 49.1644V49.1576Z" fill="#3ACC6C"/>
<path opacity="0.7" d="M294.492 79.3725C293.08 79.263 291.667 79.5744 290.432 80.2675C289.197 80.9606 288.195 82.0043 287.554 83.2666C286.912 84.5289 286.658 85.9532 286.825 87.3594C286.993 88.7657 287.573 90.0908 288.493 91.1673C289.413 92.2438 290.632 93.0233 291.995 93.4074C293.358 93.7914 294.805 93.7628 296.152 93.325C297.498 92.8873 298.685 92.0601 299.562 90.9481C300.439 89.836 300.966 88.489 301.078 87.0772C301.152 86.1387 301.04 85.1949 300.749 84.2996C300.458 83.4043 299.994 82.5752 299.382 81.8596C298.77 81.144 298.024 80.556 297.184 80.1293C296.345 79.7025 295.43 79.4454 294.492 79.3725V79.3725ZM294.383 80.7539C295.527 80.8399 296.621 81.2637 297.524 81.9717C298.428 82.6797 299.101 83.64 299.458 84.7308C299.816 85.8217 299.841 86.9941 299.531 88.0994C299.222 89.2048 298.591 90.1934 297.719 90.9399C296.847 91.6865 295.773 92.1575 294.633 92.2931C293.494 92.4288 292.339 92.223 291.316 91.702C290.293 91.1809 289.448 90.368 288.888 89.3662C288.328 88.3643 288.077 87.2187 288.169 86.0745C288.227 85.3169 288.434 84.5783 288.778 83.9007C289.121 83.2232 289.596 82.6202 290.173 82.126C290.75 81.6319 291.419 81.2563 292.141 81.0209C292.863 80.7854 293.625 80.6947 294.383 80.7539ZM298.134 84.8262L297.534 84.1202C297.505 84.0849 297.469 84.0557 297.429 84.0345C297.389 84.0133 297.344 84.0004 297.299 83.9966C297.253 83.9928 297.208 83.9981 297.164 84.0123C297.121 84.0265 297.081 84.0493 297.046 84.0792L292.657 87.8071L291.068 85.9346C291.039 85.8988 291.003 85.8693 290.962 85.8477C290.921 85.8262 290.877 85.8131 290.831 85.8093C290.785 85.8054 290.739 85.8109 290.695 85.8255C290.651 85.84 290.611 85.8632 290.576 85.8937L289.87 86.494C289.835 86.5232 289.807 86.5591 289.786 86.5996C289.765 86.6401 289.752 86.6844 289.749 86.7299C289.745 86.7754 289.751 86.8211 289.765 86.8643C289.78 86.9076 289.803 86.9475 289.833 86.9817L292.244 89.8228C292.273 89.8581 292.309 89.8872 292.349 89.9084C292.39 89.9296 292.434 89.9425 292.479 89.9464C292.525 89.9502 292.571 89.9448 292.614 89.9306C292.657 89.9164 292.698 89.8937 292.732 89.8637L298.093 85.3139C298.129 85.285 298.158 85.2492 298.179 85.2088C298.2 85.1684 298.213 85.1242 298.217 85.0787C298.221 85.0332 298.216 84.9874 298.201 84.944C298.187 84.9007 298.164 84.8606 298.134 84.8262V84.8262Z" fill="#3ACC6C"/>
</g>
<defs>
<linearGradient id="paint0_linear" x1="250.737" y1="196.194" x2="250.737" y2="99.7953" gradientUnits="userSpaceOnUse">
<stop stop-color="#808080" stop-opacity="0.25"/>
<stop offset="0.54" stop-color="#808080" stop-opacity="0.12"/>
<stop offset="1" stop-color="#808080" stop-opacity="0.1"/>
</linearGradient>
<clipPath id="clip0">
<rect width="360" height="263.922" fill="white"/>
</clipPath>
</defs>
</svg>
