<svg width="360" height="288" viewBox="0 0 360 288" fill="none" xmlns="http://www.w3.org/2000/svg">
<g clip-path="url(#clip0)">
<path d="M21.5206 271.587C21.5206 271.587 6.11269 270.658 7.92796 281.458C7.92796 281.458 7.56345 283.365 9.29489 284.232C9.29489 284.232 9.32405 283.43 10.8769 283.704C11.4294 283.797 11.9911 283.824 12.55 283.784C13.3066 283.732 14.0258 283.435 14.5985 282.938C14.5985 282.938 18.929 281.149 20.6166 274.07C20.6166 274.07 21.8633 272.524 21.8123 272.127L19.2133 273.22C19.2133 273.22 20.099 275.098 19.4028 276.654C19.4028 276.654 19.3153 273.29 18.816 273.374C18.7139 273.392 17.4673 274.026 17.4673 274.026C17.4673 274.026 18.9946 277.307 17.8318 279.669C17.8318 279.669 18.2692 275.641 16.9788 274.259L15.1562 275.331C15.1562 275.331 16.946 278.706 15.7322 281.458C15.7322 281.458 16.042 277.234 14.7735 275.59L13.115 276.884C13.115 276.884 14.7917 280.212 13.7675 282.494C13.7675 282.494 13.6362 277.576 12.7541 277.205C12.7541 277.205 11.2961 278.484 11.081 279.027C11.081 279.027 12.2329 281.44 11.5184 282.716C11.5184 282.716 11.081 279.435 10.7238 279.435C10.7238 279.435 9.26572 281.604 9.12721 283.081C9.12721 283.081 9.18918 280.864 10.3702 279.213C9.53655 279.37 8.76724 279.768 8.15761 280.358C8.15761 280.358 8.3836 278.823 10.7274 278.688C10.7274 278.688 11.923 277.044 12.2438 276.942C12.2438 276.942 9.91091 276.749 8.4966 277.376C8.4966 277.376 9.73959 275.918 12.6703 276.585L14.3106 275.247C14.3106 275.247 11.2377 274.828 9.93643 275.291C9.93643 275.291 11.4346 274.011 14.7516 274.945L16.5341 273.88C16.5341 273.88 13.9133 273.315 12.3531 273.516C12.3531 273.516 14.0007 272.626 17.0554 273.589L18.3312 273.016C18.3312 273.016 16.4102 272.652 15.8488 272.579C15.2875 272.506 15.2583 272.364 15.2583 272.364C16.4739 272.161 17.722 272.3 18.8633 272.765C18.8633 272.765 21.568 271.759 21.5206 271.587Z" fill="#00A6FB"/>
<path opacity="0.1" d="M10.9062 287.017C16.9296 287.017 21.8124 286.191 21.8124 285.173C21.8124 284.154 16.9296 283.328 10.9062 283.328C4.88288 283.328 0 284.154 0 285.173C0 286.191 4.88288 287.017 10.9062 287.017Z" fill="#00A6FB"/>
<path d="M359.836 247.059C359.836 247.059 351.146 246.534 352.181 252.622C352.128 252.931 352.174 253.249 352.313 253.531C352.452 253.813 352.676 254.043 352.954 254.189C352.954 254.189 352.954 253.737 353.844 253.89C354.155 253.942 354.472 253.956 354.788 253.934C355.214 253.906 355.62 253.74 355.943 253.46C355.943 253.46 358.385 252.451 359.337 248.459C359.337 248.459 360.037 247.588 360.011 247.366L358.553 247.993C358.553 247.993 359.052 249.05 358.659 249.932C358.659 249.932 358.611 248.033 358.331 248.076C358.272 248.076 357.565 248.441 357.565 248.441C357.565 248.441 358.429 250.263 357.78 251.619C357.78 251.619 358.024 249.352 357.299 248.572L356.264 249.174C356.264 249.174 357.274 251.08 356.588 252.633C356.588 252.633 356.767 250.249 356.049 249.323L355.112 250.052C355.112 250.052 356.06 251.926 355.477 253.216C355.477 253.216 355.4 250.442 354.904 250.234C354.549 250.534 354.232 250.875 353.96 251.251C353.96 251.251 354.609 252.611 354.208 253.333C354.208 253.333 353.96 251.485 353.756 251.477C353.756 251.477 352.943 252.698 352.859 253.537C352.897 252.759 353.138 252.005 353.559 251.35C353.089 251.439 352.655 251.665 352.313 251.999C352.313 251.999 352.44 251.131 353.771 251.054C353.771 251.054 354.445 250.129 354.627 250.07C354.627 250.07 353.311 249.961 352.513 250.314C352.513 250.314 353.217 249.498 354.868 249.87L355.79 249.115C355.79 249.115 354.059 248.878 353.326 249.141C353.326 249.141 354.172 248.412 356.038 248.944L357.044 248.342C356.271 248.173 355.479 248.106 354.689 248.142C354.689 248.142 355.615 247.639 357.339 248.182L358.068 247.858C358.068 247.858 356.975 247.646 356.672 247.613C356.37 247.581 356.337 247.493 356.337 247.493C357.023 247.379 357.727 247.457 358.371 247.719C358.371 247.719 359.862 247.154 359.836 247.059Z" fill="#00A6FB"/>
<path opacity="0.1" d="M353.851 255.757C357.247 255.757 360 255.292 360 254.718C360 254.144 357.247 253.679 353.851 253.679C350.454 253.679 347.701 254.144 347.701 254.718C347.701 255.292 350.454 255.757 353.851 255.757Z" fill="#00A6FB"/>
<path d="M341.968 263.634C341.968 263.634 331.477 263.003 332.731 270.359C332.667 270.732 332.723 271.117 332.891 271.456C333.058 271.796 333.329 272.074 333.664 272.251C333.664 272.251 333.664 271.704 334.758 271.886C335.135 271.95 335.518 271.968 335.899 271.941C336.413 271.905 336.902 271.703 337.291 271.365C337.291 271.365 340.24 270.148 341.385 265.329C341.385 265.329 342.234 264.275 342.201 264.006L340.43 264.764C340.43 264.764 341.035 266.04 340.561 267.1C340.561 267.1 340.502 264.808 340.163 264.862C340.094 264.862 339.241 265.303 339.241 265.303C339.241 265.303 340.284 267.53 339.496 269.145C339.496 269.145 339.795 266.404 338.917 265.467L337.67 266.196C337.67 266.196 338.888 268.496 338.064 270.37C338.064 270.37 338.275 267.494 337.408 266.36L336.281 267.239C336.281 267.239 337.422 269.506 336.726 271.059C336.726 271.059 336.635 267.713 336.034 267.461C336.034 267.461 335.046 268.329 334.896 268.69C334.896 268.69 335.68 270.334 335.195 271.201C335.195 271.201 334.896 268.97 334.652 268.959C334.652 268.959 333.668 270.436 333.558 271.449C333.608 270.513 333.9 269.606 334.408 268.817C333.84 268.925 333.315 269.196 332.899 269.597C332.899 269.597 333.052 268.555 334.648 268.464C334.648 268.464 335.461 267.341 335.68 267.272C335.68 267.272 334.091 267.14 333.128 267.567C333.128 267.567 333.978 266.583 335.972 267.031L337.087 266.12C337.087 266.12 334.995 265.832 334.109 266.149C334.109 266.149 335.13 265.278 337.39 265.912L338.603 265.183C338.603 265.183 336.821 264.8 335.76 264.939C335.76 264.939 336.879 264.334 338.961 264.99L339.828 264.6C339.828 264.6 338.52 264.341 338.14 264.301C337.761 264.261 337.736 264.155 337.736 264.155C338.563 264.017 339.412 264.112 340.189 264.428C340.189 264.428 341.997 263.75 341.968 263.634Z" fill="#00A6FB"/>
<path opacity="0.1" d="M334.739 274.135C338.84 274.135 342.164 273.574 342.164 272.881C342.164 272.189 338.84 271.628 334.739 271.628C330.638 271.628 327.314 272.189 327.314 272.881C327.314 273.574 330.638 274.135 334.739 274.135Z" fill="#00A6FB"/>
<path opacity="0.1" d="M293.611 270.042C312.198 270.042 327.266 267.69 327.266 264.789C327.266 261.888 312.198 259.537 293.611 259.537C275.024 259.537 259.956 261.888 259.956 264.789C259.956 267.69 275.024 270.042 293.611 270.042Z" fill="#00A6FB"/>
<path opacity="0.1" d="M187.112 283.711C207.998 283.711 224.93 282.012 224.93 279.917C224.93 277.821 207.998 276.122 187.112 276.122C166.225 276.122 149.293 277.821 149.293 279.917C149.293 282.012 166.225 283.711 187.112 283.711Z" fill="#00A6FB"/>
<path opacity="0.1" d="M72.534 279.942C88.3875 279.942 101.239 279.149 101.239 278.171C101.239 277.192 88.3875 276.399 72.534 276.399C56.6804 276.399 43.8286 277.192 43.8286 278.171C43.8286 279.149 56.6804 279.942 72.534 279.942Z" fill="#00A6FB"/>
<path opacity="0.1" d="M123.5 12.4846C134.148 3.00723 150.864 1.06437 166.075 1.81891C213.859 4.19189 256.992 27.2619 294.304 53.3574C307.813 62.8019 321.11 72.9827 329.876 85.9922C347.738 112.47 342.43 149.155 317.614 170.971C309.169 178.393 298.933 184.093 288.424 189.127C269.739 198.098 249.578 205.297 228.374 207.353C213.251 208.811 197.941 207.626 182.909 205.585C140.902 199.884 99.6721 187.287 65.1163 165.744C49.9599 156.267 35.671 144.529 29.4233 129.238C23.1755 113.947 27.1742 94.5692 42.6514 85.5183C49.0523 81.7748 56.707 80.0834 64.1978 78.4978C75.2279 76.1613 86.4331 73.8576 96.3879 69.1043C106.667 64.198 118.838 54.7097 116.801 43.8509C114.621 32.1974 112.868 21.9619 123.5 12.4846Z" fill="#00A6FB"/>
<path opacity="0.9" d="M211.731 142.809V73.2087H221.208V52.4315H153.3V73.2087H162.777V142.809C149.689 147.78 138.421 156.613 130.47 168.136C122.518 179.659 118.258 193.327 118.255 207.327C118.255 245.437 149.151 276.33 187.261 276.33C225.371 276.33 256.264 245.437 256.264 207.327C256.26 193.326 251.999 179.656 244.045 168.133C236.091 156.609 224.821 147.777 211.731 142.809Z" fill="#C0E9FE"/>
<path opacity="0.1" d="M211.731 72.9937H162.762V73.9305H211.731V72.9937Z" fill="black"/>
<path d="M148.652 205.476C148.652 205.476 190.206 204.747 210.984 194.347C231.761 183.948 243.633 193.232 242.518 199.542C241.402 205.851 235.471 218.088 211.727 219.59C187.983 221.092 148.652 205.476 148.652 205.476Z" fill="#00A6FB"/>
<path opacity="0.1" d="M148.652 205.476C148.652 205.476 190.206 204.747 210.984 194.347C231.761 183.948 243.633 193.232 242.518 199.542C241.402 205.851 235.471 218.088 211.727 219.59C187.983 221.092 148.652 205.476 148.652 205.476Z" fill="black"/>
<path d="M130.857 198.805C130.857 198.805 126.417 260.39 184.648 261.501C242.879 262.613 242.521 199.534 242.521 199.534C242.521 199.534 221.015 222.903 170.18 203.613C170.18 203.628 143.84 196.578 130.857 198.805Z" fill="#00A6FB"/>
<path opacity="0.1" d="M242.332 199.757C241.169 213.943 233.627 258.352 184.669 257.415C136.678 256.508 131.243 214.552 130.816 199.793C130.55 207.714 130.787 260.466 184.658 261.498C242.904 262.591 242.532 199.531 242.532 199.531C242.532 199.531 242.459 199.622 242.332 199.757Z" fill="black"/>
<path opacity="0.3" d="M185.001 179.789C189.174 179.789 192.558 176.405 192.558 172.232C192.558 168.059 189.174 164.676 185.001 164.676C180.828 164.676 177.445 168.059 177.445 172.232C177.445 176.405 180.828 179.789 185.001 179.789Z" fill="#00A6FB"/>
<path opacity="0.3" d="M189.317 146.68C191.9 146.68 193.994 144.586 193.994 142.003C193.994 139.42 191.9 137.326 189.317 137.326C186.734 137.326 184.64 139.42 184.64 142.003C184.64 144.586 186.734 146.68 189.317 146.68Z" fill="#00A6FB"/>
<path opacity="0.3" d="M178.881 119.688C181.464 119.688 183.558 117.594 183.558 115.011C183.558 112.428 181.464 110.334 178.881 110.334C176.298 110.334 174.204 112.428 174.204 115.011C174.204 117.594 176.298 119.688 178.881 119.688Z" fill="#00A6FB"/>
<path opacity="0.2" d="M138.81 178.061C138.409 181.247 138.489 185.234 141.336 186.722C138.948 185.475 148.735 171.339 147.347 168.452C144.376 162.292 139.174 175.101 138.81 178.061Z" fill="white"/>
<path opacity="0.3" d="M175.101 38.5436C179.274 38.5436 182.657 35.1605 182.657 30.9872C182.657 26.814 179.274 23.4309 175.101 23.4309C170.928 23.4309 167.544 26.814 167.544 30.9872C167.544 35.1605 170.928 38.5436 175.101 38.5436Z" fill="#00A6FB"/>
<path opacity="0.3" d="M197.77 23.6496C200.872 23.6496 203.387 21.1347 203.387 18.0324C203.387 14.9302 200.872 12.4153 197.77 12.4153C194.668 12.4153 192.153 14.9302 192.153 18.0324C192.153 21.1347 194.668 23.6496 197.77 23.6496Z" fill="#00A6FB"/>
<path opacity="0.3" d="M181.578 5.83949C183.191 5.83949 184.498 4.53228 184.498 2.91975C184.498 1.30721 183.191 0 181.578 0C179.966 0 178.659 1.30721 178.659 2.91975C178.659 4.53228 179.966 5.83949 181.578 5.83949Z" fill="#00A6FB"/>
<path opacity="0.9" d="M103.453 95.9324H42.3857V114.045H51.6918V255.352C51.6549 258.164 52.1769 260.954 53.2273 263.563C54.2777 266.171 55.8357 268.544 57.8109 270.545C59.786 272.547 62.1389 274.136 64.7331 275.22C67.3273 276.305 70.111 276.863 72.9228 276.863C75.7345 276.863 78.5183 276.305 81.1125 275.22C83.7066 274.136 86.0596 272.547 88.0347 270.545C90.0099 268.544 91.5679 266.171 92.6183 263.563C93.6687 260.954 94.1907 258.164 94.1538 255.352V114.045H103.453V95.9324Z" fill="#C0E9FE"/>
<path d="M65.8384 146.06C65.8384 146.06 80.9511 140.662 85.1575 144.5C85.1575 144.5 79.0374 153.496 73.402 153.135C67.7667 152.775 65.8384 146.06 65.8384 146.06Z" fill="#00A6FB"/>
<path opacity="0.1" d="M65.8384 146.06C65.8384 146.06 80.9511 140.662 85.1575 144.5C85.1575 144.5 79.0374 153.496 73.402 153.135C67.7667 152.775 65.8384 146.06 65.8384 146.06Z" fill="black"/>
<path d="M85.1503 144.515V247.074C85.1503 248.775 84.8152 250.46 84.1642 252.032C83.5131 253.603 82.5589 255.031 81.3559 256.234C80.153 257.437 78.7248 258.392 77.1531 259.043C75.5813 259.694 73.8968 260.029 72.1955 260.029C68.7597 260.029 65.4646 258.664 63.0351 256.234C60.6056 253.805 59.2407 250.51 59.2407 247.074V144.515C59.2407 144.515 65.4775 142.834 71.3535 146.436C77.2294 150.037 85.1503 144.515 85.1503 144.515Z" fill="#00A6FB"/>
<path opacity="0.1" d="M94.1462 113.932H51.6841V114.767H94.1462V113.932Z" fill="black"/>
<path opacity="0.1" d="M72.1955 253.792C70.494 253.792 68.8091 253.457 67.2371 252.805C65.6651 252.154 64.2368 251.2 63.0338 249.996C61.8308 248.793 60.8766 247.364 60.2258 245.792C59.575 244.22 59.2402 242.535 59.2407 240.833V247.311C59.2407 250.747 60.6056 254.042 63.0351 256.471C65.4646 258.901 68.7597 260.266 72.1955 260.266C75.6313 260.266 78.9264 258.901 81.3559 256.471C83.7854 254.042 85.1503 250.747 85.1503 247.311V240.833C85.1508 242.535 84.816 244.22 84.1652 245.792C83.5144 247.364 82.5602 248.793 81.3572 249.996C80.1542 251.2 78.7259 252.154 77.1539 252.805C75.5819 253.457 73.8971 253.792 72.1955 253.792Z" fill="black"/>
<path opacity="0.3" d="M72.1991 134.443C73.6566 134.443 74.8382 133.262 74.8382 131.804C74.8382 130.347 73.6566 129.165 72.1991 129.165C70.7416 129.165 69.5601 130.347 69.5601 131.804C69.5601 133.262 70.7416 134.443 72.1991 134.443Z" fill="#00A6FB"/>
<path opacity="0.3" d="M80.8342 124.127C81.7623 124.127 82.5146 123.375 82.5146 122.447C82.5146 121.519 81.7623 120.767 80.8342 120.767C79.9062 120.767 79.1538 121.519 79.1538 122.447C79.1538 123.375 79.9062 124.127 80.8342 124.127Z" fill="#00A6FB"/>
<path opacity="0.3" d="M69.0788 120.77C70.0069 120.77 70.7592 120.018 70.7592 119.09C70.7592 118.162 70.0069 117.41 69.0788 117.41C68.1508 117.41 67.3984 118.162 67.3984 119.09C67.3984 120.018 68.1508 120.77 69.0788 120.77Z" fill="#00A6FB"/>
<path opacity="0.2" d="M54.9719 165.467C54.5709 168.653 54.6511 172.641 57.498 174.128C55.1068 172.881 64.8976 158.749 63.5088 155.858C60.5307 149.705 55.3364 162.511 54.9719 165.467Z" fill="white"/>
<path opacity="0.3" d="M77.674 84.5997C81.2151 84.5997 84.0858 81.7291 84.0858 78.188C84.0858 74.6468 81.2151 71.7762 77.674 71.7762C74.1329 71.7762 71.2622 74.6468 71.2622 78.188C71.2622 81.7291 74.1329 84.5997 77.674 84.5997Z" fill="#00A6FB"/>
<path opacity="0.3" d="M58.4387 71.9621C61.0719 71.9621 63.2065 69.8275 63.2065 67.1943C63.2065 64.5611 61.0719 62.4264 58.4387 62.4264C55.8055 62.4264 53.6709 64.5611 53.6709 67.1943C53.6709 69.8275 55.8055 71.9621 58.4387 71.9621Z" fill="#00A6FB"/>
<path opacity="0.3" d="M72.1774 56.8494C73.5464 56.8494 74.6561 55.7397 74.6561 54.3707C74.6561 53.0018 73.5464 51.892 72.1774 51.892C70.8085 51.892 69.6987 53.0018 69.6987 54.3707C69.6987 55.7397 70.8085 56.8494 72.1774 56.8494Z" fill="#00A6FB"/>
<path d="M326.553 164.512C326.553 164.512 320.957 136.685 323.097 133.222C323.097 133.222 323.174 130.003 323.046 125.903C323.046 125.746 323.046 125.589 323.046 125.429C323.421 125.684 323.813 125.913 324.22 126.114C326.192 127.131 328.458 127.424 330.624 126.942L328.922 125.053C328.517 124.601 328.091 124.117 328.003 123.519C327.98 122.944 328.106 122.372 328.368 121.86C329.975 117.796 330.074 112.682 326.961 109.58C324.344 106.97 323.702 103.602 320.873 101.222C318.796 99.4755 317.655 96.9166 316.576 94.4489C315.665 92.3566 314.753 90.2497 314.225 88.0334C313.816 86.302 313.656 84.5123 313.095 82.8209C312.533 81.1296 311.491 79.4856 309.854 78.7311C309.247 78.519 308.658 78.2582 308.094 77.951C307.394 77.4808 306.975 76.7153 306.472 76.0483C303.92 72.6546 295.317 74.6522 291.25 76.03C290.145 76.3765 289.122 76.9432 288.242 77.6959L288.279 77.6339L288.381 77.4844C287.937 77.8443 287.553 78.2725 287.244 78.7529C286.649 79.6934 286.401 80.7979 285.909 81.7893C285.312 82.9922 281.995 86.3494 283.42 87.7017C283.518 87.7923 283.63 87.8661 283.751 87.9204C284.284 88.1377 284.867 88.196 285.432 88.0881C285.41 88.1355 285.388 88.1829 285.37 88.2303C284.886 89.4239 284.638 90.7003 284.641 91.9884C284.665 94.685 285.759 97.2617 287.683 99.1517C289.606 101.042 292.202 102.09 294.898 102.067C295.964 102.069 297.024 101.907 298.04 101.586C298.066 101.714 298.088 101.841 298.11 101.969C298.11 102.023 298.11 102.074 298.135 102.126L297.957 102.377L297.927 102.33L292.609 109.766C291.796 110.334 287.112 113.724 286.861 116.265C286.584 119.046 286.307 122.305 286.307 122.305L286.27 123.001C286.038 123.195 285.767 123.336 285.475 123.416C285.183 123.495 284.877 123.51 284.579 123.46C282.92 123.187 282.92 129.57 282.92 129.57C282.92 129.57 281.827 130.587 281.058 129.705C280.289 128.822 278.295 131.808 278.295 131.808L265.723 132.351H265.435L264.757 130.251C264.683 130.034 264.527 129.855 264.323 129.75C264.119 129.645 263.883 129.624 263.663 129.69C263.61 129.705 263.559 129.725 263.51 129.752L263.466 129.781C263.435 129.799 263.406 129.819 263.379 129.843C263.361 129.854 263.346 129.868 263.331 129.883C263.307 129.904 263.283 129.928 263.262 129.952C263.249 129.968 263.237 129.983 263.226 130L263.204 130.022C263.126 130.13 263.074 130.254 263.052 130.386C263.031 130.518 263.04 130.653 263.08 130.78L263.663 132.581C261.239 133.069 258.757 134.443 260.78 138.234L250.53 136.342L253.847 139.124L270.979 142.659C270.753 143.068 270.902 143.654 271.61 144.482C274.653 148.061 280.216 149.031 282.45 149.286C283.037 150.603 283.771 151.849 284.637 153.001L284.44 156.565C284.44 156.565 278.783 183.754 277.744 185.136C278.258 184.539 278.727 183.906 279.148 183.241C277.504 188.828 275.207 196.476 274.606 197.621C273.636 199.443 272.74 206.85 273.844 207.328C274.19 207.473 275.149 207.404 276.53 207.298V207.911L276.469 231.148C276.469 231.148 276.746 245.405 275.984 246.76C275.222 248.116 275.018 250.967 275.018 250.967C275.018 250.967 271.963 256.591 269.55 258.851L269.495 258.899L269.419 258.367C269.419 258.367 266.503 262.034 260.095 261.829C260.095 261.829 256.227 264.341 261.961 264.476C267.695 264.611 275.014 264.272 275.014 264.272C275.014 264.272 280.117 256.467 284.408 257.484V263.39H285.72V257.433C286.328 257.032 286.849 256.512 287.25 255.903C287.651 255.295 287.924 254.611 288.053 253.894C288.166 253.157 288.085 252.402 287.817 251.706C287.549 251.01 287.104 250.396 286.525 249.924C286.265 249.689 286.057 249.402 285.912 249.082C285.768 248.762 285.691 248.416 285.687 248.065L285.64 248.106C285.64 247.989 285.61 247.869 285.592 247.741C285.228 244.686 284.75 238.402 286.412 233.744C288.691 227.361 289.383 218.474 287.725 213.178C287.191 211.487 286.752 209.768 286.412 208.027C286.372 207.805 286.332 207.597 286.299 207.4C287.435 207.555 288.559 207.785 289.664 208.089C293.513 209.146 301.922 209.343 309.103 209.289C309.122 209.485 309.143 209.69 309.165 209.897C309.297 211.33 309.568 212.746 309.975 214.126C310.871 216.845 311.287 228.786 311.287 228.786C311.287 228.786 312.45 238.61 311.815 242.612C311.451 244.836 311.145 247.067 310.944 249.308V249.352C310.944 249.352 309.041 254.78 307.663 257.736C307.627 257.813 307.594 257.885 307.558 257.958C307.185 257.992 306.818 258.072 306.464 258.195C306.464 258.195 304.602 261.928 302.735 262.54C300.869 263.153 301.492 265.187 305.706 264.439C309.92 263.692 316.277 263.083 316.277 263.083L316.554 259.282L317.848 257.663L317.52 261.454L318.901 261.184L318.719 256.57L320.837 253.92C320.837 253.92 323.389 251.645 319.594 247.169V247.264C319.554 247.198 319.514 247.132 319.47 247.07V247.048C318.843 246.072 318.34 244.253 319.259 241.023C320.917 235.191 321.883 229.894 321.883 229.894C321.883 229.894 325.59 215.711 321.132 208.997H321.333C320.875 208.052 320.552 207.049 320.37 206.015C320.349 205.891 320.33 205.764 320.308 205.651C323.589 205.461 326.844 204.863 329.48 203.58C329.45 203.54 327.865 169.874 326.553 164.512ZM284.696 141.037V141.103L284.014 141.136L284.696 141.037ZM282.374 141.358C282.261 141.382 282.157 141.432 282.067 141.504C281.777 141.916 281.594 142.395 281.535 142.896L280.478 142.656C280.478 142.656 279.749 142.499 278.656 142.324L278.149 141.817C279.556 141.686 280.999 141.529 282.374 141.358Z" fill="url(#paint0_linear)"/>
<path d="M317.348 256.602L316.944 261.407L318.296 261.133L318.092 255.928L317.348 256.602Z" fill="#003554"/>
<path d="M286.507 233.809C284.878 238.45 285.344 244.716 285.709 247.759C285.844 248.886 285.968 249.582 285.968 249.582C285.968 249.582 283.533 255.13 283.329 255.334C283.124 255.538 276.155 259.788 276.155 259.788L271.285 262.628C271.285 262.628 266.346 260.463 268.733 259.712C269.217 259.517 269.652 259.22 270.009 258.84C272.371 256.588 275.364 250.985 275.364 250.985C275.364 250.985 275.564 248.146 276.308 246.793C277.052 245.441 276.782 231.236 276.782 231.236L276.844 208.075V205.057L286.11 205.126C286.17 206.151 286.304 207.171 286.511 208.177C286.845 209.91 287.275 211.624 287.801 213.309C289.412 218.598 288.738 227.449 286.507 233.809Z" fill="#FFB0B1"/>
<path opacity="0.1" d="M285.964 249.582C285.964 249.582 283.529 255.13 283.325 255.334C283.121 255.538 276.155 259.788 276.155 259.788L271.285 262.628C271.285 262.628 266.346 260.463 268.733 259.712C269.217 259.517 269.652 259.22 270.009 258.84L270.221 260.32L271.846 260.251L285.709 247.759C285.84 248.882 285.964 249.582 285.964 249.582Z" fill="black"/>
<path d="M285.796 248.08L271.828 260.663L270.202 260.729L269.867 258.363C269.867 258.363 267.023 262.008 260.732 261.811C260.732 261.811 256.945 264.315 262.555 264.45C268.164 264.585 275.342 264.246 275.342 264.246C275.342 264.246 280.346 256.467 284.538 257.484V263.368H285.825V257.415C286.424 257.012 286.934 256.492 287.326 255.886C287.719 255.28 287.984 254.601 288.107 253.89C288.219 253.158 288.14 252.409 287.879 251.715C287.617 251.022 287.181 250.408 286.612 249.932C286.357 249.695 286.153 249.409 286.013 249.09C285.872 248.772 285.798 248.428 285.796 248.08Z" fill="#003554"/>
<path d="M318.635 241.045C317.735 244.264 318.227 246.075 318.839 247.048V247.07C319.636 248.275 320.189 249.623 320.469 251.04L320.527 251.346L314.17 260.612L310.722 261.964C310.722 261.964 305.174 260.073 306.187 259.529C306.442 259.395 306.84 258.695 307.281 257.707C308.64 254.791 310.507 249.374 310.507 249.374V249.327C310.7 247.092 311.013 244.869 311.36 242.652C311.979 238.668 310.842 228.878 310.842 228.878C310.842 228.878 310.437 216.976 309.555 214.268C309.159 212.892 308.894 211.481 308.764 210.054C308.582 208.352 308.542 206.963 308.542 206.963C308.542 206.963 312.187 201.889 318.89 207.368C319.424 207.807 319.894 208.319 320.286 208.888C324.912 215.449 321.19 229.96 321.19 229.96C321.19 229.96 320.257 235.231 318.635 241.045Z" fill="#FFB0B1"/>
<path opacity="0.1" d="M320.527 251.328L314.17 260.594L310.722 261.946C310.722 261.946 305.174 260.054 306.187 259.511C306.442 259.376 306.84 258.676 307.281 257.689C309.628 257.689 310.846 259.905 310.846 259.905L313.82 259.435C313.82 259.435 317.746 251.722 318.624 251.251C319.503 250.781 318.759 247.73 318.759 247.73V246.954L318.828 247.038V247.059C319.63 248.266 320.187 249.619 320.469 251.04L320.527 251.328Z" fill="black"/>
<path d="M311.057 260.12C311.057 260.12 309.366 257.011 306.121 258.159C306.121 258.159 304.299 261.88 302.476 262.489C300.654 263.098 301.259 265.125 305.392 264.381C309.526 263.637 315.741 263.029 315.741 263.029L316.011 259.241L320.203 253.898C320.203 253.898 322.707 251.63 318.985 247.169V247.945C318.985 247.945 319.714 250.989 318.85 251.463C317.986 251.937 314.05 259.646 314.05 259.646L311.057 260.12Z" fill="#003554"/>
<path opacity="0.1" d="M286.099 205.129C286.159 206.155 286.293 207.174 286.5 208.18C282.683 207.619 279.144 207.9 276.826 208.078V205.06L286.099 205.129Z" fill="black"/>
<path opacity="0.1" d="M320.662 209.73C320.662 209.73 315.238 209.992 308.779 210.047C308.596 208.345 308.556 206.956 308.556 206.956C308.556 206.956 312.201 201.882 318.905 207.36C319.438 207.8 319.908 208.312 320.301 208.88C320.406 209.17 320.527 209.453 320.662 209.73Z" fill="black"/>
<path d="M320.661 209.121C320.661 209.121 296.921 210.269 289.678 208.242C282.435 206.216 275.272 207.969 274.19 207.495C273.107 207.021 273.989 199.651 274.919 197.825C275.848 195.998 281.075 177.532 281.075 177.532L286.08 151.422L291.358 149.964L291.723 149.862L300.912 147.31L307.652 145.451C307.652 145.451 321.044 197.737 319.892 201.586C319.475 203.063 319.409 204.618 319.699 206.125C319.879 207.163 320.203 208.172 320.661 209.121Z" fill="#003554"/>
<path d="M268.65 133.565C268.65 133.565 263.911 138.639 267.498 141.478C271.085 144.318 273.45 141.752 273.45 141.752L268.65 133.565Z" fill="#C7DAF5"/>
<path opacity="0.1" d="M268.65 133.565C268.65 133.565 263.911 138.639 267.498 141.478C271.085 144.318 273.45 141.752 273.45 141.752L268.65 133.565Z" fill="black"/>
<path d="M306.967 100.153C306.967 100.153 306.413 100.678 305.574 101.462C304.382 102.574 302.618 104.203 301.051 105.57C298.864 107.458 297.096 108.851 297.734 107.659C298.372 106.467 298.251 104.418 297.934 102.49L297.869 102.107C297.604 100.691 297.254 99.2925 296.819 97.919C296.819 97.919 300.322 93.3918 302.261 91.6057C302.99 90.9386 303.489 90.6543 303.515 91.1209C303.551 91.7551 304.029 93.1403 304.608 94.6421C304.63 94.6858 304.649 94.7332 304.667 94.7769C305.06 95.7866 305.502 96.8401 305.892 97.7404C306.486 99.1219 306.967 100.153 306.967 100.153Z" fill="#FFB0B1"/>
<path opacity="0.1" d="M304.663 94.7769C304.334 96.5479 303.535 98.1979 302.35 99.5547C301.165 100.911 299.637 101.925 297.927 102.49C297.659 100.943 297.286 99.4158 296.812 97.919C296.812 97.919 303.406 89.3967 303.508 91.1209C303.57 91.777 304.058 93.2278 304.663 94.7769Z" fill="black"/>
<path opacity="0.1" d="M297.278 104.768L298.131 103.569C298.131 103.569 298.696 107.017 300.778 105.497C302.859 103.977 302.965 116.943 302.965 116.943L300.727 150.325L284.593 149.359L285.049 133.229L286.871 125.112L291.388 113.291L294.092 109.387L297.278 104.768Z" fill="black"/>
<path d="M302.958 117.147L300.938 147.329L300.727 150.526L291.731 149.99L291.366 149.968L284.583 149.563L285.038 133.43L286.861 125.316L291.377 113.495L294.093 109.587L297.289 104.972L298.142 103.769C298.142 103.769 298.707 107.221 300.789 105.698L300.829 105.669C302.859 104.364 302.958 117.147 302.958 117.147Z" fill="#003554"/>
<path d="M287.112 122.473C287.112 122.473 286.303 124.164 284.677 123.894C283.051 123.624 283.055 129.982 283.055 129.982C283.055 129.982 281.962 130.995 281.233 130.116C280.503 129.238 278.528 132.212 278.528 132.212L266.218 132.756C266.218 132.756 271.686 135.256 270.614 142.834C270.614 142.834 289.204 141.682 289.824 139.918C290.444 138.154 287.112 122.473 287.112 122.473Z" fill="white"/>
<path opacity="0.03" d="M287.112 122.473C287.112 122.473 286.303 124.164 284.677 123.894C283.051 123.624 283.055 129.982 283.055 129.982C283.055 129.982 281.962 130.995 281.233 130.116C280.503 129.238 278.528 132.212 278.528 132.212L266.218 132.756C266.218 132.756 271.686 135.256 270.614 142.834C270.614 142.834 289.204 141.682 289.824 139.918C290.444 138.154 287.112 122.473 287.112 122.473Z" fill="black"/>
<path d="M251.332 136.743L254.579 139.517L281.298 145.131L277.981 141.752L251.332 136.743Z" fill="white"/>
<path d="M297.325 105.833C296.884 106.496 295.616 109.981 294.551 113.01C293.669 115.532 292.929 117.749 292.929 117.749C292.929 117.749 291.205 128.979 290.327 131.006C289.448 133.033 289.922 140.957 289.922 140.957L286.642 160.506C286.642 160.506 285.154 170.585 282.858 176.603C280.605 182.511 278.054 185.293 277.984 185.377C279.001 184.002 284.546 156.904 284.546 156.904L286.368 122.742C286.368 122.742 286.638 119.498 286.911 116.724C287.185 113.95 292.66 110.163 292.66 110.163L297.952 102.636C298.495 103.376 298.138 104.615 297.325 105.833Z" fill="white"/>
<path d="M283.522 149.731C283.522 149.731 275.743 149.395 271.956 144.861C268.168 140.326 280.682 143.038 280.682 143.038L283.926 143.767L283.522 149.731Z" fill="#FFB0B1"/>
<path opacity="0.1" d="M319.918 201.612C319.501 203.089 319.435 204.643 319.725 206.15C311.225 206.755 302.13 204.452 302.13 204.452C300.439 206.008 295.973 208.308 295.973 208.308L293.539 178.137C291.986 174.077 291.377 152.771 291.377 152.771C291.377 152.771 291.515 151.655 291.741 149.986C291.741 149.946 291.741 149.902 291.76 149.862C292.368 145.196 293.582 136.437 294.158 135.252C294.971 133.63 291.658 129.304 291.658 129.304L293.163 116.444L293.345 114.894C296.528 113.473 298.962 108.942 298.962 108.942L300.829 105.661C302.866 104.356 302.965 117.14 302.965 117.14L300.945 147.321L307.685 145.462C307.685 145.462 321.066 197.755 319.918 201.612Z" fill="black"/>
<path d="M328.645 203.708C319.379 208.308 302.535 204.047 302.535 204.047C300.844 205.603 296.378 207.903 296.378 207.903L293.943 177.733C292.39 173.676 291.782 152.37 291.782 152.37C291.782 152.37 293.743 136.474 294.552 134.851C294.789 134.378 294.676 133.674 294.395 132.916C293.012 129.302 292.504 125.413 292.912 121.565L293.561 116.043L293.743 114.493C296.921 113.072 299.356 108.537 299.356 108.537L301.051 105.57L304.172 100.102L305.648 97.5144L305.896 97.7404L307.813 99.4755C307.813 99.4755 308.626 100.146 309.843 101.178C312.497 103.412 317.083 107.349 319.445 109.755C321.526 111.88 322.182 120.129 322.361 126.34C322.488 130.426 322.412 133.63 322.412 133.63C320.312 137.079 325.791 164.814 325.791 164.814C327.088 170.158 328.645 203.708 328.645 203.708Z" fill="white"/>
<path opacity="0.03" d="M310.86 108.472C310.86 108.472 304.499 120.581 305.247 125.177C305.994 129.774 308.086 134.986 307.069 136.204C306.721 136.665 306.271 137.039 305.755 137.297C305.238 137.555 304.669 137.69 304.091 137.691C303.078 137.76 300.369 139.652 300.369 139.856C300.369 140.06 297.869 140.06 295.631 141.008C293.393 141.956 290.083 142.495 290.083 142.495C290.083 142.495 283.657 142.291 283.048 142.9C282.439 143.509 281.83 147.161 283.117 150.07C284.404 152.979 285.822 155.144 286.904 155.538C287.987 155.931 294.818 153.646 300.362 153.103C305.906 152.559 311.954 148.178 311.954 148.178C311.954 148.178 318.581 145.809 319.732 141.817C320.884 137.826 318.311 115.911 318.311 115.911C318.311 115.911 316.328 105.698 310.86 108.472Z" fill="black"/>
<path opacity="0.03" d="M310.044 107.458C310.044 107.458 303.686 119.564 304.43 124.164C305.174 128.764 307.27 133.973 306.253 135.19C305.905 135.651 305.455 136.026 304.938 136.284C304.421 136.542 303.852 136.677 303.275 136.678C302.261 136.747 299.557 138.639 299.557 138.843C299.557 139.047 297.052 139.043 294.818 139.991C292.583 140.939 289.27 141.478 289.27 141.478C289.27 141.478 282.844 141.278 282.235 141.887C281.626 142.495 281.017 146.148 282.304 149.057C283.591 151.965 285.009 154.131 286.091 154.524C287.174 154.918 294.005 152.629 299.553 152.089C305.101 151.55 311.126 147.154 311.126 147.154C311.126 147.154 317.753 144.788 318.905 140.797C320.057 136.805 317.483 114.891 317.483 114.891C317.483 114.891 315.522 104.684 310.044 107.458Z" fill="black"/>
<path d="M310.652 107.863C310.652 107.863 304.299 119.972 305.028 124.554C305.757 129.136 307.867 134.363 306.85 135.58C306.503 136.042 306.053 136.417 305.536 136.675C305.02 136.933 304.45 137.067 303.872 137.068C302.859 137.137 300.154 139.029 300.154 139.233C300.154 139.437 297.65 139.437 295.416 140.385C293.181 141.332 289.868 141.872 289.868 141.872C289.868 141.872 283.441 141.668 282.833 142.277C282.224 142.885 281.615 146.538 282.902 149.447C284.189 152.355 285.606 154.521 286.689 154.914C287.772 155.308 294.603 153.022 300.151 152.479C305.698 151.936 311.716 147.544 311.716 147.544C311.716 147.544 318.343 145.174 319.495 141.183C320.647 137.192 318.074 115.277 318.074 115.277C318.074 115.277 316.131 105.089 310.652 107.863Z" fill="white"/>
<path opacity="0.1" d="M310.517 140.33C310.517 140.33 305.443 139.317 307.204 141.008C308.964 142.699 308.961 144.187 311.126 144.117C313.291 144.048 310.517 140.33 310.517 140.33Z" fill="black"/>
<path opacity="0.1" d="M319.109 176.789C319.109 176.789 316.809 178.345 321.205 181.928C325.601 185.511 319.109 176.789 319.109 176.789Z" fill="black"/>
<path opacity="0.1" d="M314.709 189.572C314.709 189.776 313.9 197.012 316.944 198.838C319.987 200.664 314.709 189.572 314.709 189.572Z" fill="black"/>
<path d="M266.415 132.748C263.966 132.832 258.662 133.583 261.41 138.708C263.842 143.243 267.924 140.213 270.21 137.91C269.652 135.767 268.294 133.92 266.415 132.748Z" fill="#FFB0B1"/>
<path d="M270.25 137.87C270.286 137.837 270.319 137.8 270.352 137.768C270.319 137.8 270.286 137.837 270.25 137.87Z" fill="#FFB0B1"/>
<path opacity="0.1" d="M309.843 101.378C307.24 103.157 305.057 104.659 304.634 104.972C303.464 105.833 301.233 110.907 299.811 113.495C298.667 115.58 294.96 116.116 293.56 116.247L293.728 114.712C296.906 113.294 299.341 108.76 299.341 108.76L305.633 97.7368L307.798 99.6979C307.798 99.6979 308.625 100.35 309.843 101.378Z" fill="black"/>
<path d="M309.843 101.178C307.24 102.953 305.057 104.458 304.634 104.768C303.464 105.632 301.233 110.703 299.811 113.291C298.667 115.376 294.96 115.911 293.56 116.043L293.742 114.493C296.921 113.072 299.356 108.537 299.356 108.537L305.647 97.5144L307.813 99.4755C307.813 99.4755 308.625 100.132 309.843 101.178Z" fill="#DCE7FF"/>
<path d="M304.835 92.5425C304.837 93.2483 304.762 93.9523 304.612 94.6421C304.341 95.9309 303.816 97.1528 303.067 98.2361C301.705 100.216 299.679 101.643 297.356 102.257C295.032 102.871 292.566 102.632 290.404 101.583C288.242 100.534 286.527 98.7448 285.571 96.5399C284.616 94.335 284.482 91.8606 285.195 89.5655C285.907 87.2705 287.419 85.3069 289.455 84.0312C291.492 82.7554 293.918 82.2518 296.294 82.612C298.67 82.9721 300.838 84.172 302.405 85.994C303.972 87.816 304.834 90.1393 304.835 92.5425Z" fill="#FFB0B1"/>
<path opacity="0.1" d="M322.371 126.34C320.996 125.493 319.876 124.289 319.131 122.855C318.566 121.736 318.19 120.45 317.221 119.651C316.353 118.944 315.18 118.769 314.104 118.452C310.543 117.399 307.543 114.143 307.441 110.433C307.39 108.687 307.933 106.941 307.685 105.213C307.545 104.232 307.155 103.305 306.552 102.519C306.257 102.141 305.93 101.788 305.575 101.466C305.101 101.017 304.601 100.584 304.171 100.106C303.892 99.813 303.648 99.4889 303.442 99.1402C303.282 98.8542 303.151 98.5525 303.052 98.2398C302.389 96.1694 302.99 93.7053 302.247 91.6093C302.247 91.5729 302.221 91.5328 302.207 91.4963C301.922 90.7491 301.35 90.0055 300.559 89.9471C299.768 89.8888 299.079 90.5486 298.321 90.8475C296.732 91.4635 295.015 90.4137 293.692 89.342C292.368 88.2704 290.874 87.0456 289.186 87.2862C288.074 87.4429 287.192 88.2048 286.168 88.5984C285.931 88.6852 285.687 88.7535 285.439 88.8026C286.309 86.6383 287.906 84.8443 289.954 83.7285C292.003 82.6127 294.376 82.2445 296.666 82.6873C298.956 83.13 301.021 84.356 302.506 86.1548C303.992 87.9537 304.804 90.2134 304.806 92.5461C304.808 93.252 304.733 93.956 304.583 94.6457C304.605 94.6895 304.623 94.7368 304.641 94.7806C305.035 95.7903 305.476 96.8437 305.866 97.7441L307.784 99.4791C307.784 99.4791 308.596 100.15 309.814 101.181C312.468 103.416 317.053 107.353 319.415 109.758C321.526 111.88 322.182 120.129 322.371 126.34Z" fill="black"/>
<path d="M286.073 82.4127C286.558 81.4248 286.802 80.3204 287.378 79.3872C288.227 78.0203 289.715 77.1637 291.235 76.6388C295.215 75.2682 303.628 73.2743 306.14 76.6388C306.635 77.3058 307.044 78.0713 307.729 78.5415C308.283 78.8432 308.859 79.1015 309.453 79.3143C311.057 80.0689 312.081 81.7055 312.628 83.3896C313.175 85.0736 313.335 86.8597 313.722 88.5875C314.232 90.7965 315.132 92.8924 316.025 94.9774C317.079 97.4379 318.212 99.9858 320.232 101.728C323.006 104.101 323.629 107.458 326.191 110.057C329.242 113.148 329.144 118.248 327.573 122.294C327.313 122.806 327.187 123.375 327.208 123.949C327.356 124.535 327.669 125.066 328.109 125.48L329.775 127.361C327.785 127.79 325.709 127.56 323.862 126.705C322.015 125.85 320.496 124.417 319.535 122.622C318.967 121.503 318.591 120.216 317.622 119.422C316.754 118.711 315.584 118.54 314.505 118.219C310.944 117.165 307.944 113.91 307.842 110.199C307.791 108.457 308.334 106.707 308.09 104.98C307.943 104.012 307.555 103.096 306.96 102.319C306.023 101.101 304.62 100.274 303.861 98.9397C302.578 96.6761 303.552 93.7308 302.626 91.2849C302.341 90.5559 301.773 89.7941 300.978 89.7357C300.184 89.6774 299.498 90.3408 298.74 90.6361C297.151 91.2521 295.438 90.2023 294.114 89.1306C292.791 88.059 291.293 86.8378 289.609 87.0784C288.494 87.2352 287.615 87.9934 286.587 88.387C285.829 88.6786 284.291 88.9411 283.624 88.2995C282.228 86.9581 285.475 83.6119 286.073 82.4127Z" fill="#591D4B"/>
<path opacity="0.1" d="M320.483 121.503C319.918 120.384 319.543 119.097 318.573 118.299C317.706 117.588 316.532 117.417 315.457 117.1C311.895 116.046 308.895 112.791 308.793 109.08C308.739 107.334 309.285 105.588 309.038 103.861C308.898 102.88 308.507 101.952 307.904 101.167C306.971 99.9494 305.564 99.1183 304.809 97.7842C303.523 95.5205 304.499 92.5753 303.574 90.1294C303.289 89.4004 302.721 88.6385 301.926 88.5802C301.131 88.5219 300.446 89.1817 299.688 89.4769C298.099 90.0966 296.382 89.0468 295.062 87.9751C293.743 86.9035 292.241 85.6823 290.553 85.9193C289.46 86.076 288.563 86.8342 287.535 87.2315C286.777 87.5231 285.239 87.7856 284.572 87.144C283.175 85.7953 286.423 82.4491 287.01 81.2535C287.495 80.2657 287.739 79.1612 288.315 78.2281L288.413 78.075C287.985 78.4379 287.616 78.866 287.32 79.3435C286.737 80.2766 286.496 81.3811 286.015 82.3689C285.428 83.5682 282.18 86.9144 283.576 88.2594C284.24 88.901 285.763 88.624 286.54 88.3469C287.564 87.9533 288.443 87.1951 289.558 87.0347C291.242 86.7977 292.74 88.0189 294.063 89.0905C295.387 90.1622 297.103 91.212 298.689 90.596C299.451 90.3007 300.114 89.6337 300.927 89.6956C301.74 89.7576 302.294 90.4975 302.578 91.2448C303.504 93.6761 302.527 96.6214 303.81 98.8996C304.569 100.23 305.976 101.061 306.909 102.279C307.512 103.064 307.903 103.992 308.042 104.972C308.29 106.7 307.744 108.446 307.798 110.192C307.911 113.907 310.9 117.162 314.462 118.211C315.537 118.529 316.711 118.7 317.578 119.414C318.548 120.209 318.92 121.496 319.488 122.615C320.449 124.409 321.967 125.843 323.815 126.698C325.662 127.553 327.738 127.783 329.727 127.353L328.944 126.464C325.503 126.522 322.043 124.576 320.483 121.503Z" fill="black"/>
<path opacity="0.1" d="M297.125 106.037C296.681 106.7 295.412 110.185 294.352 113.21C293.36 112.828 292.456 110.364 292.456 110.364L297.738 102.836C298.292 103.58 297.935 104.819 297.125 106.037Z" fill="black"/>
<path d="M297.326 105.833C296.885 106.496 295.616 109.981 294.552 113.01C293.561 112.627 292.66 110.163 292.66 110.163L297.953 102.636C298.496 103.376 298.139 104.615 297.326 105.833Z" fill="#DCE7FF"/>
<path d="M266.557 140.447L263.623 131.206C263.588 131.098 263.574 130.983 263.583 130.869C263.593 130.755 263.624 130.645 263.676 130.543C263.728 130.441 263.8 130.351 263.887 130.277C263.974 130.203 264.075 130.148 264.184 130.113C264.293 130.077 264.407 130.062 264.522 130.071C264.636 130.08 264.747 130.111 264.849 130.164C264.951 130.216 265.041 130.288 265.115 130.376C265.188 130.463 265.244 130.565 265.278 130.674L268.212 139.922L267.92 141.857L266.557 140.447Z" fill="#BE8B87"/>
<path opacity="0.1" d="M263.9 130.386C264.009 130.351 264.124 130.338 264.238 130.347C264.352 130.357 264.463 130.389 264.564 130.441C264.666 130.494 264.756 130.566 264.83 130.653C264.903 130.741 264.959 130.842 264.993 130.951L267.928 140.192L267.705 141.65L267.92 141.872L268.212 139.936L265.278 130.696C265.244 130.587 265.188 130.485 265.115 130.398C265.041 130.31 264.951 130.238 264.849 130.186C264.747 130.133 264.636 130.102 264.522 130.093C264.408 130.084 264.293 130.098 264.184 130.135C264.002 130.191 263.843 130.308 263.736 130.466C263.787 130.434 263.842 130.407 263.9 130.386Z" fill="white"/>
<path d="M266.557 140.447L268.205 139.922L267.964 141.511L267.913 141.857L267.432 141.354L266.557 140.447Z" fill="#EFC8C4"/>
<path d="M267.432 141.354C267.462 141.32 267.498 141.29 267.538 141.267C267.561 141.252 267.589 141.245 267.616 141.245C267.644 141.245 267.671 141.252 267.695 141.267C267.718 141.294 267.738 141.325 267.753 141.358C267.775 141.396 267.805 141.429 267.842 141.454C267.879 141.478 267.921 141.494 267.964 141.5L267.913 141.865L267.432 141.354Z" fill="#727A9C"/>
<path d="M263.608 134.48C263.608 134.48 269.495 134.447 268.106 136.947C266.718 139.448 264.556 139.754 264.556 139.754L263.608 134.48Z" fill="#FFB0B1"/>
</g>
<defs>
<linearGradient id="paint0_linear" x1="290.557" y1="264.585" x2="290.557" y2="74.1783" gradientUnits="userSpaceOnUse">
<stop stop-color="#808080" stop-opacity="0.25"/>
<stop offset="0.54" stop-color="#808080" stop-opacity="0.12"/>
<stop offset="1" stop-color="#808080" stop-opacity="0.1"/>
</linearGradient>
<clipPath id="clip0">
<rect width="360" height="287.017" fill="white"/>
</clipPath>
</defs>
</svg>
