<svg width="360" height="252" viewBox="0 0 360 252" fill="none" xmlns="http://www.w3.org/2000/svg">
<g clip-path="url(#clip0)">
<path opacity="0.1" d="M153.155 9.68278C138.521 4.1175 123.057 -0.531306 107.271 0.0531152C84.0603 0.909823 61.7793 13.9696 50.8678 33.146C41.6101 49.3935 40.4678 68.437 36.4798 86.4677C31.572 108.679 22.1548 129.795 12.1002 150.439C6.7009 161.529 1.00279 172.859 0.116201 185.016C-1.11241 201.894 7.51112 218.713 21.0358 229.94C34.5605 241.167 52.5215 247.09 70.5489 248.382C80.142 249.07 90.1668 248.432 98.6874 244.255C107.703 239.835 114.274 231.849 123.326 227.492C131.714 223.455 141.526 222.89 150.943 223.415C163.239 224.1 175.377 226.514 186.998 230.587C200.161 235.209 212.4 241.907 225.517 246.596C238.633 251.284 253.323 253.901 266.745 249.989C279.363 246.313 289.325 237.388 298.307 228.349C312.994 213.596 326.456 197.673 338.559 180.735C346.665 169.376 354.209 157.392 357.792 144.153C364.645 118.84 355.215 90.2831 334.299 72.9962C316.969 58.6745 293.711 52.4584 270.946 48.6862C250.185 45.2461 226.181 45.0336 207.071 36.0681C188.848 27.5076 172.265 16.9548 153.155 9.68278Z" fill="#00A6FB"/>
<path d="M210.053 205.544V217.607H213.483L212.819 204.657L210.053 205.544Z" fill="#AAABB0"/>
<path d="M158.527 203.11V215.173H161.961L161.297 202.223L158.527 203.11Z" fill="#AAABB0"/>
<path d="M218.464 185.401C218.464 184.178 217.473 183.186 216.251 183.186C215.028 183.186 214.038 184.178 214.038 185.401V202.445C214.038 203.669 215.028 204.66 216.251 204.66C217.473 204.66 218.464 203.669 218.464 202.445V185.401Z" fill="#AAABB0"/>
<path d="M161.682 180.639C161.682 179.416 160.691 178.424 159.469 178.424C158.247 178.424 157.256 179.416 157.256 180.639V202.442C157.256 203.665 158.247 204.657 159.469 204.657C160.691 204.657 161.682 203.665 161.682 202.442V180.639Z" fill="#AAABB0"/>
<path d="M224.112 54.6799C224.112 54.6799 228.538 52.7971 229.203 54.6799C229.867 56.5627 230.199 72.8335 230.199 72.8335H225.992L224.112 54.6799Z" fill="#AAABB0"/>
<path d="M175.632 54.6799C175.632 54.6799 171.202 52.7971 170.538 54.6799C169.874 56.5627 169.542 72.8335 169.542 72.8335H173.749L175.632 54.6799Z" fill="#AAABB0"/>
<path d="M176.293 38.5187L175.628 52.0234H178.617V38.1866L176.293 38.5187Z" fill="#AAABB0"/>
<path d="M173.749 72.8335L174.636 53.3517C174.636 53.3517 174.304 49.0349 184.817 50.3632C195.329 51.6914 226.105 54.3478 226.105 54.3478V72.8335H173.749Z" fill="#003554"/>
<path d="M215.811 175.439L214.15 205.211C214.15 205.211 189.797 218.716 160.244 205.876L162.901 174.553L215.811 175.439Z" fill="#003554"/>
<path d="M192.676 58.2196L193.227 77.479H227.542L225.55 52.0234L192.676 58.2196Z" fill="#05466C"/>
<path d="M196.163 162.708H163.84V203.661H196.163V162.708Z" fill="#005D93"/>
<path d="M184.265 179.424C184.265 179.424 188.914 175.771 189.688 176.877C190.461 177.983 186.925 182.744 185.484 182.19C184.043 181.635 184.265 179.424 184.265 179.424Z" fill="#FFB9B9"/>
<path d="M313.29 71.7244H101.115V177.983H313.29V71.7244Z" fill="#003554"/>
<path d="M173.859 37.745C173.859 37.745 172.198 22.2478 173.859 20.3684C175.519 18.489 203.412 0.664113 229.203 21.5837C229.203 21.5837 231.637 21.6966 231.195 27.2287C230.935 30.73 230.952 34.2465 231.248 37.745C231.248 37.745 175.741 41.7296 173.859 37.745Z" fill="#003554"/>
<path opacity="0.1" d="M173.859 37.745C173.859 37.745 172.198 22.2478 173.859 20.3684C175.519 18.489 203.412 0.664113 229.203 21.5837C229.203 21.5837 231.637 21.6966 231.195 27.2287C230.935 30.73 230.952 34.2465 231.248 37.745C231.248 37.745 175.741 41.7296 173.859 37.745Z" fill="black"/>
<path d="M173.859 39.7373C173.859 39.7373 172.198 24.2402 173.859 22.3607C175.519 20.4813 203.412 2.65645 229.203 23.5761C229.203 23.5761 231.637 23.689 231.195 29.221C230.935 32.7224 230.952 36.2388 231.248 39.7373C231.248 39.7373 175.741 43.722 173.859 39.7373Z" fill="#003554"/>
<path d="M232.191 32.6545C232.191 32.6545 233.961 39.2957 233.41 40.4014C232.859 41.5072 232.958 44.6086 232.958 44.6086C232.958 44.6086 233.078 46.6009 232.191 46.8201C231.305 47.0393 230.531 47.1522 231.248 47.8163C231.965 48.4804 231.248 49.4766 231.248 49.4766C231.248 49.4766 230.86 51.0273 231.248 52.0234C231.637 53.0196 228.977 53.4347 229.203 54.6799C229.428 55.9251 230.172 59.4383 229.203 59.5512C228.233 59.6641 229.535 63.9775 228.661 63.9775C227.788 63.9775 227.167 71.7244 227.167 71.7244C227.167 71.7244 221.024 66.5244 216.93 67.9622C216.93 67.9622 217.262 63.6454 218.59 62.0947C219.918 60.544 219.516 56.5627 219.516 56.5627L226.105 36.7488L232.191 32.6545Z" fill="#005D93"/>
<path d="M199.317 124.229C197.88 125.82 196.329 117.326 196.329 117.326C196.329 117.326 192.235 122.971 189.578 119.209C187.739 116.602 189.19 109.217 190.242 104.93C190.714 103.024 191.112 101.729 191.112 101.729L197.089 100.733C197.089 100.733 197.109 102.035 197.242 103.615C197.421 105.75 197.81 108.4 198.637 109.034C200.095 110.133 200.759 122.625 199.317 124.229Z" fill="#AE6E79"/>
<path opacity="0.1" d="M196.219 24.7947C196.219 24.7947 185.813 24.6851 183.269 30.2172C180.726 35.7493 180.613 37.6354 179.617 38.5187C178.62 39.4019 190.461 44.054 190.461 44.054L191.016 63.0909C191.016 63.0909 193.34 60.7366 197.103 61.8025C200.865 62.8684 205.627 61.8025 205.627 61.8025C205.627 61.8025 205.404 61.4007 208.505 61.8025C211.607 62.2043 221.456 57.0043 221.456 57.0043C221.456 57.0043 221.618 48.6763 221.399 46.9031C221.18 45.1299 228.426 32.1 228.426 32.1C228.426 32.1 234.071 26.6775 228.206 24.7947C228.206 24.7947 226.131 21.6667 220.792 21.6966C215.452 21.7265 196.219 24.7947 196.219 24.7947Z" fill="black"/>
<path d="M196.219 24.4627C196.219 24.4627 185.813 24.3531 183.269 29.8852C180.726 35.4173 180.613 37.3033 179.617 38.1866C178.62 39.0699 190.461 43.722 190.461 43.722L191.016 62.7589C191.016 62.7589 193.34 60.4046 197.103 61.4705C200.865 62.5364 205.627 61.4705 205.627 61.4705C205.627 61.4705 205.404 61.0687 208.505 61.4705C211.607 61.8723 221.456 56.6723 221.456 56.6723C221.456 56.6723 225.328 50.3632 225.108 48.5933C224.889 46.8234 232.855 33.4282 232.855 33.4282C232.855 33.4282 234.074 26.3455 228.206 24.4627C228.206 24.4627 226.131 21.3347 220.792 21.3646C215.452 21.3945 196.219 24.4627 196.219 24.4627Z" fill="#005D93"/>
<path opacity="0.1" d="M197.269 103.605C194.987 102.895 191.408 104.462 190.269 104.933C190.74 103.027 191.139 101.732 191.139 101.732L197.116 100.736C197.116 100.736 197.126 102.038 197.269 103.605Z" fill="black"/>
<path d="M182.824 38.1866H179.616C179.616 38.1866 178.952 44.9407 179.616 46.933C180.281 48.9253 180.613 48.6365 180.39 50.1108C180.168 51.5851 181.941 53.8431 181.941 53.8431C181.941 53.8431 182.16 59.4084 183.269 61.4804C184.378 63.5525 182.05 72.8434 182.05 72.8434C182.685 74.4473 183.625 75.9132 184.816 77.1602C186.699 79.0396 187.695 86.0128 187.141 88.6693C186.586 91.3257 188.692 92.3219 188.692 92.3219C188.692 92.3219 189.578 104.721 189.91 104.721C190.242 104.721 196.661 101.4 198.653 104.276L197.103 92.8765L197.216 70.8511C197.216 70.8511 195.11 68.0817 196.219 65.6478C197.328 63.2138 195.333 57.4559 195.333 57.4559L192.454 44.6186L182.824 38.1866Z" fill="#005D93"/>
<path d="M162.901 213.181C162.901 213.181 158.252 212.185 158.142 213.181C158.033 214.177 152.607 224.361 159.361 227.35C166.115 230.338 184.152 236.757 213.486 228.455C213.486 228.455 215.366 229.12 214.924 225.025C214.482 220.931 214.482 216.392 214.482 216.392C214.482 216.392 210.053 215.173 206.732 215.618C203.412 216.063 174.523 221.927 162.901 213.181Z" fill="#003554"/>
<path opacity="0.1" d="M162.901 213.181C162.901 213.181 158.252 212.185 158.142 213.181C158.033 214.177 152.607 224.361 159.361 227.35C166.115 230.338 184.152 236.757 213.486 228.455C213.486 228.455 215.366 229.12 214.924 225.025C214.482 220.931 214.482 216.392 214.482 216.392C214.482 216.392 210.053 215.173 206.732 215.618C203.412 216.063 174.523 221.927 162.901 213.181Z" fill="black"/>
<path d="M162.901 211.853C162.901 211.853 158.252 210.856 158.142 211.853C158.033 212.849 152.607 223.033 159.361 226.022C166.115 229.01 184.152 235.429 213.486 227.127C213.486 227.127 215.366 227.791 214.924 223.697C214.482 219.603 214.482 215.064 214.482 215.064C214.482 215.064 210.053 213.845 206.732 214.29C203.412 214.735 174.523 220.599 162.901 211.853Z" fill="#003554"/>
<path d="M190.01 42.1646C189.724 43.7884 189.077 45.3491 188.977 46.9927C188.878 48.6364 189.512 50.5059 191.029 51.1501C191.453 51.2766 191.863 51.4434 192.255 51.6482C192.839 52.0433 193.078 52.7871 193.201 53.4845C193.364 54.3847 193.403 55.3031 193.317 56.214C193.234 57.1305 193.038 58.1167 193.49 58.9169C194.283 60.3348 196.352 60.1256 197.926 59.7272L197.385 63.921C197.342 64.2531 197.315 64.6283 197.558 64.8541C197.672 64.9348 197.802 64.9916 197.938 65.0213C198.075 65.051 198.217 65.0528 198.354 65.0268C199.723 64.9405 201.13 64.7512 202.303 64.0306C203.475 63.3101 204.348 61.9685 204.126 60.6171C203.867 59.0498 202.246 57.8045 202.465 56.2306C202.635 55.0119 203.827 54.2382 204.61 53.3018C206.028 51.5884 206.105 48.9851 204.992 47.0459C203.88 45.1067 201.732 43.9046 199.52 43.6855C198.295 43.5626 197.02 43.712 195.867 43.287C195.466 43.1399 195.105 42.9022 194.811 42.5923C194.517 42.2823 194.299 41.9087 194.174 41.5005" fill="#444053"/>
<path d="M151.392 189.827L152.55 187.304C152.55 187.304 158.806 181.476 160.244 181.068C161.682 180.659 167.549 178.879 168.436 178.879C169.323 178.879 185.484 177.993 185.484 177.993L187.363 182.422L167.081 186.875L160.244 191.856L151.392 189.827Z" fill="#0074AF"/>
<path d="M200.121 121.865L199.062 130.017L198.653 133.155L193.895 133.819C193.895 133.819 193.38 132.717 192.653 131.023C190.445 125.883 186.287 115.284 188.698 113.454C191.903 111.017 192.683 119.099 192.683 119.099L196.336 117.326L200.121 121.865Z" fill="#FFB9B9"/>
<path d="M199.327 137.03H175.296V173.334H199.327V137.03Z" fill="white"/>
<path opacity="0.1" d="M199.327 137.03H175.296V173.334H199.327V137.03Z" fill="black"/>
<path d="M210.128 138.996L186.356 135.481L181.046 171.395L204.819 174.909L210.128 138.996Z" fill="white"/>
<path d="M200.829 140.715L188.593 138.906L185.861 157.39L198.097 159.199L200.829 140.715Z" fill="#00A6FB"/>
<path d="M199.373 164.842L184.549 162.65L183.955 166.664L198.78 168.856L199.373 164.842Z" fill="#00A6FB"/>
<path opacity="0.1" d="M205.627 45.4354C213.298 45.4354 219.517 39.2167 219.517 31.5454C219.517 23.8742 213.298 17.6555 205.627 17.6555C197.955 17.6555 191.737 23.8742 191.737 31.5454C191.737 39.2167 197.955 45.4354 205.627 45.4354Z" fill="black"/>
<path d="M205.627 45.1034C213.298 45.1034 219.517 38.8846 219.517 31.2134C219.517 23.5422 213.298 17.3235 205.627 17.3235C197.955 17.3235 191.737 23.5422 191.737 31.2134C191.737 38.8846 197.955 45.1034 205.627 45.1034Z" fill="#AE6E79"/>
<path d="M194.174 41.5072C194.079 41.1494 194.114 40.7698 194.27 40.4346C194.798 39.3355 196.302 39.2392 197.521 39.2957C200.387 39.4285 203.531 39.4451 205.773 37.6354C206.702 36.8916 207.742 35.0221 209.093 35.3774C210.295 35.6928 210.797 37.3232 212.049 37.6852C212.955 37.9475 213.895 37.5291 214.818 37.3531C216.146 37.0908 217.508 37.31 218.856 37.3199C220.204 37.3299 221.668 37.0742 222.588 36.088C223.83 34.7598 223.627 32.6844 223.518 30.8647C223.382 28.5142 223.541 26.1558 223.993 23.845C224.444 21.5472 225.138 18.9771 223.87 17.008C222.661 15.1319 220.157 14.6172 218.447 13.1794C216.847 11.8511 216 9.72264 214.31 8.49071C212.181 6.94 209.289 7.16248 206.673 7.43144L200.994 8.03579C199.53 8.19186 198.006 8.36785 196.8 9.24116C194.625 10.8151 194.327 14.0859 192.268 15.8092C191.351 16.573 190.179 16.9515 189.133 17.5227C188.087 18.0938 187.078 18.997 186.958 20.1791C186.859 21.1753 187.397 22.0951 187.659 23.0547C188.28 25.3459 187.31 27.7035 186.689 30.0113C186.068 32.3191 185.949 35.1217 187.752 36.6525C188.117 36.9646 188.542 37.2037 188.897 37.5291C190.116 38.6415 190.282 40.5176 190 42.1381" fill="#444053"/>
<path d="M206.759 48.5634C206.942 48.5634 207.091 48.1917 207.091 47.7333C207.091 47.2748 206.942 46.9031 206.759 46.9031C206.575 46.9031 206.427 47.2748 206.427 47.7333C206.427 48.1917 206.575 48.5634 206.759 48.5634Z" fill="#444053"/>
<path d="M206.759 52.0234C206.942 52.0234 207.091 51.6518 207.091 51.1933C207.091 50.7348 206.942 50.3632 206.759 50.3632C206.575 50.3632 206.427 50.7348 206.427 51.1933C206.427 51.6518 206.575 52.0234 206.759 52.0234Z" fill="#444053"/>
<path d="M199.394 124.206C199.749 123.798 199.985 122.748 200.121 121.364L196.163 116.429C196.163 116.429 197.84 125.996 199.394 124.206Z" fill="#AE6E79"/>
<path opacity="0.1" d="M203.857 205.766C203.857 205.766 197.362 215.807 177.07 214.732C157.953 213.735 148.622 204.328 149.067 201.008C149.512 197.687 147.849 189.605 151.943 187.28C154.317 185.936 157.442 186.732 159.647 187.642C160.408 187.952 161.242 188.039 162.051 187.894C162.861 187.748 163.612 187.377 164.219 186.822C166.235 185.006 169.993 182.96 175.927 184.571C176.691 184.774 177.496 184.759 178.252 184.528C180.722 183.774 186.603 182.466 190.87 185.371C191.544 185.836 192.337 186.099 193.155 186.13C193.974 186.162 194.784 185.959 195.492 185.547L195.552 185.51C197.544 184.292 206.842 195.804 206.842 195.804C206.842 195.804 207.287 204.66 203.857 205.766Z" fill="black"/>
<path d="M203.857 206.098C203.857 206.098 197.362 216.139 177.07 215.064C157.953 214.067 148.622 204.66 149.067 201.34C149.512 198.019 147.849 189.937 151.943 187.612C154.317 186.268 157.442 187.065 159.647 187.974C160.408 188.284 161.242 188.371 162.051 188.226C162.861 188.081 163.612 187.709 164.219 187.154C166.235 185.338 169.993 183.292 175.927 184.903C176.691 185.106 177.496 185.092 178.252 184.86C180.722 184.106 186.603 182.798 190.87 185.703C191.544 186.168 192.337 186.431 193.155 186.462C193.974 186.494 194.784 186.291 195.492 185.879L195.552 185.843C197.544 184.624 206.842 196.136 206.842 196.136C206.842 196.136 207.287 204.992 203.857 206.098Z" fill="#0074AF"/>
<path opacity="0.1" d="M177.07 210.03C184.376 210.03 190.299 204.107 190.299 196.8C190.299 189.494 184.376 183.571 177.07 183.571C169.763 183.571 163.84 189.494 163.84 196.8C163.84 204.107 169.763 210.03 177.07 210.03Z" fill="black"/>
<path d="M177.07 210.362C184.376 210.362 190.299 204.439 190.299 197.132C190.299 189.826 184.376 183.903 177.07 183.903C169.763 183.903 163.84 189.826 163.84 197.132C163.84 204.439 169.763 210.362 177.07 210.362Z" fill="#FFB9B9"/>
<path d="M173.277 185.696C171.889 186.072 170.521 186.789 169.844 187.968C169.436 188.678 169.293 189.532 168.702 190.123C167.865 190.963 166.454 190.979 165.321 191.451C164.189 191.923 163.442 193.583 164.551 194.107C163.395 194.167 162.539 195.233 162.396 196.292C162.253 197.352 162.655 198.408 163.043 199.417C164.312 202.684 165.677 206.095 168.473 208.419C173.028 212.211 179.895 212.035 186.015 211.633C186.515 211.65 187.011 211.536 187.453 211.301C188.117 210.863 188.2 210.023 188.31 209.286C188.771 206.138 190.478 203.279 191.594 200.274C192.709 197.269 193.168 193.739 191.288 191.079C188.522 187.134 177.933 184.435 173.277 185.696Z" fill="#B96B6B"/>
<path opacity="0.1" d="M199.062 130.017L198.653 133.155L193.895 133.819C193.895 133.819 193.38 132.717 192.653 131.023L198.985 129.834L199.062 130.017Z" fill="black"/>
<path d="M204.076 199.347L206.845 196.136L206.291 178.428C206.563 177.15 206.749 175.855 206.845 174.553C206.955 172.67 205.461 168.466 205.461 168.466C205.692 167.624 206.007 166.808 206.4 166.029C207.064 164.7 205.464 161.712 205.464 161.712C205.464 161.712 203.08 153.965 204.076 150.09C205.072 146.215 203.833 144.003 203.833 144.003C203.833 144.003 202.861 139.687 202.97 137.917C203.08 136.147 200.755 134.483 200.755 134.483L198.985 130.167L191.903 131.495V146.437C191.903 146.437 192.344 160.716 191.903 163.485C191.461 166.254 192.786 168.908 192.786 168.908C192.786 168.908 192.012 173.002 192.676 174.553C193.34 176.103 194.669 179.866 194.669 179.866C194.422 181.21 194.498 182.594 194.891 183.903C195.555 185.843 194.891 186.948 194.891 186.948L204.076 199.347Z" fill="#0074AF"/>
<g opacity="0.1">
<path opacity="0.1" d="M224.003 22.7526C223.628 24.6963 223.46 26.6742 223.501 28.6532C223.53 27.0076 223.702 25.3677 224.016 23.7521C224.308 22.2777 224.68 20.6905 224.6 19.2195C224.478 20.4089 224.278 21.5891 224.003 22.7526V22.7526Z" fill="black"/>
<path opacity="0.1" d="M188.907 36.4599C188.552 36.1278 188.127 35.8954 187.762 35.5799C186.792 34.7531 186.384 33.5544 186.304 32.2594C186.208 33.9197 186.547 35.5268 187.762 36.5761C188.127 36.8916 188.552 37.1306 188.907 37.4561C189.65 38.191 190.081 39.1842 190.11 40.2287C190.206 38.8341 189.924 37.383 188.907 36.4599Z" fill="black"/>
<path opacity="0.1" d="M187.848 24.0609C187.906 23.3595 187.846 22.6534 187.669 21.9723C187.476 21.2617 187.131 20.5677 187.005 19.8537C187.005 19.9301 186.978 20.0098 186.968 20.0928C186.872 21.089 187.41 22.0088 187.669 22.9684C187.764 23.3258 187.824 23.6917 187.848 24.0609V24.0609Z" fill="black"/>
<path opacity="0.1" d="M222.598 34.9955C221.678 35.9917 220.214 36.2374 218.866 36.2275C217.518 36.2175 216.153 35.9983 214.828 36.264C213.905 36.4499 212.965 36.865 212.059 36.596C210.807 36.2341 210.305 34.6037 209.107 34.2882C207.742 33.9296 206.702 35.7991 205.786 36.5429C203.545 38.336 200.4 38.3194 197.534 38.2032C196.316 38.1467 194.811 38.243 194.287 39.3455C194.127 39.6798 194.093 40.0606 194.191 40.418L190.133 41.0556C190.117 41.3896 190.081 41.7224 190.023 42.0517L194.191 41.3876C194.093 41.0302 194.127 40.6494 194.287 40.3151C194.811 39.2127 196.316 39.1164 197.534 39.1728C200.4 39.3056 203.545 39.3222 205.786 37.5125C206.716 36.7687 207.755 34.8992 209.107 35.2579C210.305 35.57 210.807 37.2037 212.059 37.5656C212.965 37.8247 213.905 37.4096 214.828 37.2336C216.156 36.9679 217.518 37.1871 218.866 37.1971C220.214 37.207 221.678 36.9513 222.598 35.9651C223.518 34.9789 223.651 33.5079 223.594 32.0734C223.554 33.1858 223.325 34.2152 222.598 34.9955Z" fill="black"/>
</g>
<g opacity="0.1">
<path opacity="0.1" d="M191.859 50.9443C191.468 50.7383 191.058 50.5715 190.634 50.4462C189.914 50.1187 189.341 49.5336 189.03 48.8058C189.279 49.9514 189.91 50.9941 190.966 51.4424C191.39 51.5677 191.8 51.7345 192.191 51.9404C192.442 52.1171 192.644 52.3533 192.779 52.6278C192.646 51.977 192.404 51.3129 191.859 50.9443Z" fill="black"/>
<path opacity="0.1" d="M197.531 59.0232C196 59.4117 194.001 59.6143 193.161 58.3159C193.187 58.6288 193.278 58.9329 193.427 59.2092C194.144 60.4876 195.897 60.4444 197.388 60.1289L197.531 59.0232Z" fill="black"/>
<path opacity="0.1" d="M203.734 59.933C203.946 61.2812 203.07 62.626 201.907 63.3333C200.745 64.0406 199.327 64.2365 197.959 64.3295C197.742 64.3576 197.521 64.3326 197.315 64.2564C197.253 64.3968 197.233 64.5523 197.257 64.704C197.282 64.8556 197.35 64.9967 197.454 65.1102C197.557 65.2236 197.692 65.3044 197.84 65.3427C197.989 65.381 198.146 65.375 198.291 65.3257C199.659 65.2393 201.067 65.0501 202.239 64.3295C203.412 63.6089 204.288 62.2674 204.062 60.9159C203.999 60.5747 203.888 60.244 203.734 59.933V59.933Z" fill="black"/>
<path opacity="0.1" d="M205.208 47.9126C205.411 48.7199 205.426 49.5629 205.254 50.3772C205.081 51.1915 204.725 51.9556 204.212 52.6112C203.428 53.5609 202.236 54.3213 202.067 55.5399C202.01 56.1002 202.126 56.6644 202.399 57.157C202.369 56.9511 202.369 56.742 202.399 56.5361C202.568 55.3174 203.76 54.5438 204.544 53.6074C205.832 52.05 206.012 49.7555 205.208 47.9126Z" fill="black"/>
</g>
<g opacity="0.1">
<path opacity="0.1" d="M165.325 191.962C166.454 191.494 167.865 191.478 168.705 190.634C169.296 190.043 169.439 189.19 169.847 188.482C170.511 187.3 171.889 186.586 173.277 186.211C177.926 184.949 188.526 187.646 191.288 191.554C192.098 192.736 192.539 194.132 192.557 195.565C192.663 193.911 192.218 192.268 191.292 190.893C188.529 186.985 177.94 184.289 173.281 185.55C171.893 185.926 170.525 186.639 169.851 187.822C169.442 188.529 169.299 189.382 168.708 189.973C167.868 190.813 166.457 190.83 165.328 191.302C164.468 191.657 163.83 192.706 164.063 193.41C164.156 193.092 164.316 192.797 164.534 192.547C164.752 192.297 165.022 192.098 165.325 191.962V191.962Z" fill="black"/>
<path opacity="0.1" d="M162.403 196.787C162.542 195.725 163.399 194.662 164.558 194.602C164.436 194.551 164.327 194.474 164.239 194.376C164.151 194.278 164.087 194.161 164.05 194.034C163.609 194.198 163.221 194.479 162.929 194.847C162.636 195.216 162.45 195.657 162.389 196.123C162.358 196.393 162.358 196.666 162.389 196.937C162.403 196.887 162.403 196.837 162.403 196.787Z" fill="black"/>
</g>
<path d="M232.742 76.4529H202.525V115.858H232.742V76.4529Z" fill="white"/>
<path opacity="0.1" d="M232.742 76.4529H202.525V115.858H232.742V76.4529Z" fill="black"/>
<path d="M244.287 78.7647L214.508 83.8872L221.188 122.722L250.967 117.6L244.287 78.7647Z" fill="white"/>
<path d="M228.722 109.157L221.725 110.361L223.295 119.485L230.291 118.281L228.722 109.157Z" fill="#00A6FB"/>
<path d="M238.404 107.49L231.407 108.694L232.976 117.818L239.973 116.614L238.404 107.49Z" fill="#00A6FB"/>
<path d="M245.245 94.1231L220.708 98.3365L222.282 107.502L246.819 103.288L245.245 94.1231Z" fill="#00A6FB"/>
<path d="M243.2 83.1845L218.663 87.3979L219.014 89.4426L243.551 85.2292L243.2 83.1845Z" fill="#00A6FB"/>
<path d="M244.005 86.9458L219.468 91.1592L219.819 93.204L244.356 88.9906L244.005 86.9458Z" fill="#00A6FB"/>
<path d="M219.516 65.7473C219.516 65.7473 205.627 79.6938 212.6 83.2368C219.573 86.7799 224.112 71.4488 224.112 71.4488L225.215 67.9622L219.516 65.7473Z" fill="#AE6E79"/>
<path opacity="0.1" d="M218.301 64.5154L216.584 68.3075C216.584 68.3075 225.052 69.4963 226.822 72.0564L225.772 65.3655L224.527 62.5098L218.301 64.5154Z" fill="black"/>
<path d="M218.633 64.1834L216.916 67.9755C216.916 67.9755 225.384 69.1642 227.154 71.7244L226.105 65.0334L224.859 62.1777L218.633 64.1834Z" fill="#005D93"/>
<path d="M269.89 133.905L269.707 134.032L269.959 134.145L270.232 134.121L270.265 133.932L269.89 133.905Z" fill="#464A5F"/>
<path opacity="0.1" d="M269.89 133.905L269.707 134.032L269.959 134.145L270.232 134.121L270.265 133.932L269.89 133.905Z" fill="black"/>
<path d="M269.89 133.905L269.704 134.025L269.558 133.846L269.647 133.7L269.73 133.673L269.89 133.905Z" fill="#9C9CA1"/>
<path opacity="0.1" d="M269.89 133.905L269.704 134.025L269.558 133.846L269.647 133.7L269.73 133.673L269.89 133.905Z" fill="black"/>
<path d="M302.574 110.957L288.98 91.3224C288.859 91.1472 288.705 90.9974 288.527 90.8817C288.349 90.7659 288.149 90.6865 287.94 90.648C287.731 90.6094 287.516 90.6125 287.308 90.657C287.1 90.7015 286.903 90.7866 286.728 90.9074L256.425 111.707C256.07 111.951 255.827 112.325 255.748 112.748C255.669 113.17 255.76 113.607 256.003 113.962L269.561 133.846L302.574 110.957Z" fill="#9C9CA1"/>
<path opacity="0.1" d="M302.574 110.957L288.98 91.3224C288.859 91.1472 288.705 90.9974 288.527 90.8817C288.349 90.7659 288.149 90.6865 287.94 90.648C287.731 90.6094 287.516 90.6125 287.308 90.657C287.1 90.7015 286.903 90.7866 286.728 90.9074L256.425 111.707C256.07 111.951 255.827 112.325 255.748 112.748C255.669 113.17 255.76 113.607 256.003 113.962L269.561 133.846L302.574 110.957Z" fill="black"/>
<path d="M302.906 111.003L289.312 91.3689C289.191 91.1935 289.037 91.0437 288.858 90.9279C288.679 90.8121 288.48 90.7327 288.27 90.6941C288.061 90.6556 287.846 90.6587 287.638 90.7032C287.43 90.7478 287.232 90.8329 287.057 90.9538L256.757 111.767C256.402 112.011 256.159 112.384 256.079 112.807C256 113.229 256.09 113.666 256.332 114.022L269.89 133.915L302.906 111.003Z" fill="#9C9CA1"/>
<path d="M314.269 114.885L302.979 111.259L269.959 134.148L281.429 137.9C281.685 137.984 281.958 138.006 282.225 137.966C282.492 137.925 282.745 137.823 282.966 137.668L314.362 115.5C314.421 115.467 314.468 115.416 314.498 115.356C314.527 115.295 314.538 115.227 314.528 115.16C314.518 115.094 314.488 115.031 314.441 114.982C314.395 114.933 314.335 114.899 314.269 114.885Z" fill="#464A5F"/>
<path opacity="0.1" d="M314.269 114.885L302.979 111.259L269.959 134.148L281.429 137.9C281.685 137.984 281.958 138.006 282.225 137.966C282.492 137.925 282.745 137.823 282.966 137.668L314.362 115.5C314.421 115.467 314.468 115.416 314.498 115.356C314.527 115.295 314.538 115.227 314.528 115.16C314.518 115.094 314.488 115.031 314.441 114.982C314.395 114.933 314.335 114.899 314.269 114.885Z" fill="black"/>
<path d="M314.199 114.656L302.909 111.027L269.89 133.915L281.359 137.661C281.615 137.746 281.888 137.769 282.155 137.73C282.422 137.69 282.676 137.588 282.896 137.432L314.292 115.264C314.349 115.23 314.394 115.18 314.422 115.12C314.45 115.061 314.46 114.994 314.45 114.929C314.44 114.864 314.411 114.803 314.366 114.754C314.322 114.706 314.263 114.672 314.199 114.656V114.656Z" fill="#464A5F"/>
<g opacity="0.1">
<path opacity="0.1" d="M297.573 110.127L296.74 108.931C296.69 108.862 296.615 108.815 296.531 108.799C296.446 108.784 296.36 108.801 296.288 108.848L295.05 109.675C294.98 109.724 294.932 109.798 294.915 109.881C294.899 109.965 294.915 110.052 294.96 110.123L295.727 111.302C295.775 111.373 295.848 111.422 295.932 111.44C296.015 111.458 296.102 111.443 296.175 111.399L297.48 110.578C297.551 110.53 297.601 110.456 297.618 110.371C297.635 110.287 297.619 110.199 297.573 110.127V110.127Z" fill="black"/>
<path opacity="0.1" d="M295.348 111.668L294.512 110.475C294.462 110.406 294.387 110.359 294.302 110.343C294.218 110.328 294.132 110.345 294.06 110.392L292.825 111.226C292.755 111.274 292.706 111.348 292.689 111.431C292.671 111.515 292.687 111.602 292.732 111.674L293.499 112.853C293.546 112.924 293.619 112.974 293.703 112.993C293.787 113.011 293.874 112.997 293.947 112.953L295.255 112.132C295.292 112.108 295.324 112.077 295.349 112.04C295.374 112.004 295.391 111.963 295.4 111.92C295.408 111.876 295.408 111.832 295.399 111.788C295.391 111.745 295.373 111.704 295.348 111.668Z" fill="black"/>
<path opacity="0.1" d="M293.011 113.285L292.174 112.093C292.124 112.023 292.049 111.976 291.965 111.96C291.881 111.945 291.794 111.963 291.722 112.01L290.484 112.843C290.413 112.892 290.365 112.967 290.348 113.051C290.331 113.135 290.348 113.222 290.394 113.295L291.161 114.473C291.209 114.544 291.283 114.593 291.366 114.611C291.449 114.629 291.537 114.614 291.609 114.57L292.914 113.75C292.952 113.726 292.984 113.695 293.009 113.658C293.034 113.622 293.051 113.581 293.06 113.537C293.069 113.494 293.07 113.449 293.061 113.406C293.053 113.363 293.035 113.321 293.011 113.285V113.285Z" fill="black"/>
<path opacity="0.1" d="M290.643 114.925L289.806 113.73C289.756 113.661 289.682 113.614 289.599 113.599C289.515 113.584 289.429 113.601 289.358 113.647L288.12 114.483C288.05 114.532 288.002 114.606 287.985 114.69C287.969 114.773 287.985 114.86 288.03 114.932L288.797 116.11C288.844 116.181 288.917 116.23 289 116.249C289.082 116.267 289.169 116.253 289.242 116.21L290.55 115.387C290.587 115.362 290.618 115.331 290.643 115.295C290.667 115.259 290.684 115.218 290.693 115.175C290.701 115.132 290.701 115.088 290.693 115.045C290.684 115.002 290.668 114.961 290.643 114.925Z" fill="black"/>
<path opacity="0.1" d="M288.279 116.562L287.442 115.37C287.392 115.301 287.317 115.253 287.233 115.238C287.149 115.222 287.062 115.24 286.991 115.287L285.755 116.12C285.685 116.169 285.636 116.243 285.619 116.326C285.602 116.409 285.617 116.496 285.662 116.569L286.429 117.748C286.477 117.819 286.55 117.869 286.634 117.887C286.717 117.906 286.804 117.892 286.878 117.847L288.186 117.024C288.222 117 288.254 116.968 288.278 116.932C288.303 116.896 288.32 116.855 288.328 116.812C288.337 116.769 288.337 116.725 288.329 116.682C288.32 116.639 288.303 116.598 288.279 116.562Z" fill="black"/>
<path opacity="0.1" d="M286.018 118.349L284.978 116.868C284.967 116.851 284.953 116.837 284.937 116.826C284.92 116.815 284.901 116.808 284.882 116.804C284.863 116.8 284.843 116.8 284.823 116.804C284.804 116.809 284.785 116.816 284.769 116.828L283.248 117.854C283.232 117.865 283.217 117.879 283.206 117.895C283.195 117.911 283.187 117.93 283.183 117.949C283.179 117.969 283.179 117.989 283.182 118.008C283.186 118.028 283.194 118.046 283.205 118.063L284.158 119.527C284.18 119.561 284.214 119.585 284.253 119.593C284.292 119.602 284.333 119.595 284.367 119.574L285.974 118.578C285.994 118.567 286.01 118.552 286.023 118.534C286.036 118.516 286.045 118.495 286.049 118.473C286.053 118.451 286.053 118.429 286.047 118.407C286.042 118.386 286.032 118.366 286.018 118.349V118.349Z" fill="black"/>
<path opacity="0.1" d="M283.653 119.986L282.607 118.505C282.596 118.488 282.582 118.474 282.565 118.463C282.548 118.452 282.529 118.444 282.509 118.441C282.49 118.437 282.469 118.437 282.45 118.441C282.43 118.445 282.411 118.453 282.395 118.465L280.874 119.491C280.841 119.514 280.819 119.548 280.812 119.587C280.804 119.626 280.812 119.667 280.834 119.7L281.787 121.164C281.797 121.182 281.811 121.197 281.827 121.209C281.843 121.221 281.862 121.229 281.882 121.233C281.901 121.238 281.922 121.238 281.941 121.234C281.961 121.23 281.98 121.222 281.996 121.211L283.6 120.215C283.621 120.205 283.639 120.191 283.653 120.173C283.667 120.156 283.677 120.135 283.683 120.113C283.688 120.091 283.688 120.068 283.683 120.046C283.678 120.024 283.668 120.003 283.653 119.986V119.986Z" fill="black"/>
<path opacity="0.1" d="M281.558 121.437L280.519 119.969C280.495 119.937 280.461 119.915 280.422 119.908C280.382 119.902 280.342 119.91 280.31 119.932L278.789 120.955C278.755 120.978 278.732 121.013 278.724 121.053C278.716 121.092 278.724 121.134 278.746 121.168L279.699 122.632C279.721 122.665 279.755 122.688 279.794 122.697C279.833 122.706 279.874 122.699 279.908 122.679L281.515 121.682C281.537 121.672 281.556 121.656 281.571 121.637C281.586 121.618 281.596 121.595 281.6 121.571C281.604 121.547 281.603 121.522 281.595 121.499C281.588 121.475 281.575 121.454 281.558 121.437V121.437Z" fill="black"/>
<path opacity="0.1" d="M279.214 123.057L278.174 121.576C278.151 121.544 278.116 121.522 278.077 121.516C278.038 121.509 277.998 121.517 277.965 121.54L276.444 122.562C276.428 122.573 276.413 122.588 276.402 122.604C276.39 122.621 276.383 122.64 276.379 122.66C276.375 122.679 276.374 122.7 276.378 122.72C276.382 122.739 276.39 122.758 276.401 122.775L277.354 124.239C277.377 124.272 277.411 124.295 277.45 124.304C277.488 124.313 277.529 124.306 277.563 124.286L279.171 123.29C279.19 123.278 279.207 123.263 279.22 123.245C279.233 123.226 279.241 123.205 279.245 123.183C279.25 123.161 279.249 123.138 279.243 123.117C279.238 123.095 279.228 123.075 279.214 123.057V123.057Z" fill="black"/>
<path opacity="0.1" d="M276.943 124.618L275.903 123.137C275.892 123.12 275.878 123.106 275.861 123.095C275.845 123.084 275.826 123.077 275.807 123.073C275.787 123.069 275.767 123.07 275.748 123.074C275.729 123.078 275.71 123.086 275.694 123.097L274.173 124.123C274.156 124.134 274.142 124.148 274.131 124.164C274.119 124.181 274.112 124.199 274.108 124.219C274.103 124.238 274.103 124.258 274.107 124.278C274.111 124.297 274.119 124.316 274.13 124.332L275.083 125.797C275.105 125.83 275.139 125.854 275.178 125.863C275.217 125.871 275.258 125.864 275.292 125.843L276.899 124.847C276.919 124.836 276.935 124.821 276.948 124.803C276.961 124.785 276.97 124.764 276.974 124.742C276.978 124.721 276.977 124.698 276.972 124.677C276.967 124.655 276.956 124.635 276.943 124.618V124.618Z" fill="black"/>
<path opacity="0.1" d="M274.671 126.205L273.642 124.721C273.618 124.689 273.584 124.667 273.545 124.66C273.506 124.653 273.465 124.662 273.433 124.684L271.912 125.707C271.895 125.718 271.88 125.732 271.869 125.749C271.858 125.766 271.85 125.784 271.846 125.804C271.842 125.824 271.842 125.844 271.846 125.864C271.85 125.884 271.857 125.903 271.869 125.919L272.822 127.384C272.844 127.417 272.878 127.44 272.917 127.449C272.956 127.457 272.997 127.451 273.031 127.43L274.638 126.434C274.657 126.422 274.672 126.407 274.684 126.388C274.696 126.37 274.704 126.349 274.707 126.327C274.71 126.305 274.709 126.283 274.702 126.262C274.696 126.241 274.686 126.222 274.671 126.205Z" fill="black"/>
<path opacity="0.1" d="M272.4 127.776L271.361 126.295C271.35 126.278 271.335 126.264 271.319 126.253C271.302 126.242 271.284 126.235 271.264 126.231C271.245 126.227 271.225 126.227 271.205 126.232C271.186 126.236 271.168 126.244 271.151 126.255L269.631 127.274C269.614 127.285 269.599 127.299 269.588 127.315C269.577 127.332 269.569 127.35 269.565 127.37C269.561 127.389 269.561 127.409 269.565 127.429C269.569 127.448 269.576 127.467 269.587 127.483L270.54 128.948C270.562 128.981 270.596 129.005 270.636 129.014C270.675 129.023 270.716 129.016 270.75 128.994L272.357 127.998C272.375 127.987 272.391 127.972 272.403 127.955C272.415 127.937 272.424 127.917 272.428 127.896C272.432 127.876 272.431 127.854 272.427 127.833C272.422 127.812 272.413 127.793 272.4 127.776V127.776Z" fill="black"/>
<path opacity="0.1" d="M296.079 107.965L295.242 106.77C295.192 106.7 295.117 106.653 295.033 106.638C294.949 106.622 294.862 106.64 294.791 106.687L293.565 107.523C293.495 107.572 293.446 107.646 293.429 107.729C293.412 107.812 293.427 107.899 293.472 107.972L294.239 109.151C294.287 109.221 294.361 109.271 294.444 109.289C294.528 109.306 294.615 109.292 294.688 109.247L295.996 108.427C296.068 108.376 296.117 108.3 296.133 108.213C296.148 108.127 296.129 108.037 296.079 107.965Z" fill="black"/>
<path opacity="0.1" d="M292.808 103.24L291.971 102.038C291.921 101.969 291.847 101.923 291.764 101.907C291.68 101.892 291.594 101.909 291.523 101.955L290.285 102.788C290.214 102.837 290.166 102.91 290.148 102.994C290.131 103.077 290.147 103.164 290.192 103.237L290.959 104.415C291.006 104.487 291.079 104.537 291.163 104.555C291.246 104.574 291.334 104.559 291.407 104.515L292.715 103.695C292.787 103.646 292.837 103.571 292.854 103.486C292.872 103.401 292.855 103.313 292.808 103.24V103.24Z" fill="black"/>
<path opacity="0.1" d="M293.851 109.506L293.014 108.314C292.964 108.245 292.89 108.199 292.806 108.183C292.723 108.168 292.637 108.185 292.566 108.231L291.327 109.064C291.258 109.113 291.21 109.187 291.193 109.27C291.176 109.354 291.192 109.441 291.238 109.513L292.001 110.691C292.049 110.762 292.122 110.813 292.205 110.831C292.289 110.85 292.376 110.835 292.45 110.791L293.758 109.971C293.795 109.947 293.827 109.915 293.851 109.879C293.876 109.842 293.893 109.801 293.902 109.758C293.911 109.715 293.911 109.67 293.902 109.627C293.893 109.583 293.876 109.542 293.851 109.506Z" fill="black"/>
<path opacity="0.1" d="M291.513 111.123L290.676 109.931C290.626 109.862 290.551 109.814 290.467 109.799C290.383 109.783 290.296 109.801 290.225 109.848L288.99 110.671C288.919 110.72 288.869 110.794 288.852 110.878C288.835 110.963 288.851 111.05 288.897 111.123L289.664 112.302C289.712 112.372 289.785 112.422 289.868 112.44C289.952 112.458 290.039 112.443 290.112 112.398L291.42 111.578C291.492 111.529 291.542 111.454 291.559 111.369C291.577 111.284 291.56 111.196 291.513 111.123V111.123Z" fill="black"/>
<path opacity="0.1" d="M289.146 112.763L288.312 111.568C288.262 111.499 288.187 111.451 288.103 111.436C288.019 111.42 287.932 111.438 287.861 111.485L286.622 112.332C286.552 112.381 286.504 112.455 286.488 112.538C286.471 112.621 286.487 112.708 286.532 112.78L287.299 113.959C287.347 114.029 287.421 114.079 287.504 114.097C287.588 114.115 287.675 114.1 287.748 114.055L289.053 113.235C289.09 113.211 289.123 113.179 289.148 113.142C289.174 113.105 289.191 113.063 289.2 113.019C289.209 112.975 289.208 112.93 289.199 112.886C289.19 112.842 289.171 112.8 289.146 112.763Z" fill="black"/>
<path opacity="0.1" d="M290.633 104.857L289.796 103.665C289.746 103.597 289.672 103.55 289.589 103.534C289.505 103.519 289.419 103.536 289.348 103.582L288.11 104.415C288.04 104.464 287.991 104.538 287.973 104.621C287.956 104.704 287.972 104.791 288.017 104.864L288.784 106.043C288.831 106.114 288.904 106.164 288.988 106.182C289.071 106.201 289.159 106.186 289.232 106.142L290.54 105.322C290.577 105.298 290.609 105.267 290.634 105.23C290.658 105.193 290.676 105.152 290.684 105.109C290.693 105.066 290.693 105.021 290.684 104.978C290.675 104.935 290.658 104.894 290.633 104.857Z" fill="black"/>
<path opacity="0.1" d="M288.296 106.477L287.459 105.282C287.409 105.213 287.334 105.165 287.25 105.15C287.165 105.134 287.079 105.152 287.007 105.199L285.772 106.023C285.702 106.071 285.653 106.145 285.636 106.228C285.618 106.312 285.634 106.398 285.679 106.471L286.446 107.65C286.494 107.72 286.567 107.77 286.651 107.788C286.734 107.806 286.821 107.791 286.894 107.746L288.203 106.926C288.273 106.877 288.321 106.804 288.339 106.72C288.356 106.637 288.341 106.55 288.296 106.477Z" fill="black"/>
<path opacity="0.1" d="M285.928 108.115L285.091 106.922C285.042 106.853 284.968 106.806 284.884 106.79C284.801 106.774 284.714 106.79 284.643 106.836L283.404 107.683C283.335 107.732 283.287 107.806 283.27 107.889C283.253 107.973 283.269 108.059 283.315 108.131L284.082 109.31C284.129 109.381 284.202 109.431 284.286 109.45C284.369 109.468 284.457 109.454 284.53 109.41L285.835 108.586C285.873 108.562 285.906 108.53 285.931 108.493C285.956 108.456 285.974 108.414 285.982 108.37C285.991 108.326 285.991 108.281 285.981 108.237C285.972 108.193 285.954 108.151 285.928 108.115Z" fill="black"/>
<path opacity="0.1" d="M286.781 114.4L285.945 113.208C285.895 113.139 285.821 113.092 285.738 113.076C285.654 113.06 285.568 113.076 285.496 113.122L284.268 113.959C284.198 114.008 284.15 114.082 284.133 114.165C284.117 114.248 284.133 114.335 284.178 114.407L284.932 115.586C284.979 115.656 285.052 115.706 285.134 115.724C285.217 115.743 285.304 115.729 285.377 115.685L286.685 114.862C286.722 114.838 286.754 114.807 286.778 114.771C286.803 114.735 286.82 114.694 286.829 114.651C286.838 114.608 286.839 114.564 286.83 114.521C286.822 114.478 286.806 114.437 286.781 114.4Z" fill="black"/>
<path opacity="0.1" d="M284.417 116.037L283.58 114.845C283.53 114.776 283.455 114.729 283.371 114.713C283.287 114.698 283.2 114.715 283.129 114.762L281.893 115.596C281.823 115.644 281.775 115.718 281.757 115.801C281.74 115.885 281.756 115.972 281.8 116.044L282.568 117.223C282.615 117.294 282.688 117.344 282.772 117.363C282.855 117.381 282.943 117.367 283.016 117.323L284.324 116.502C284.361 116.478 284.393 116.447 284.418 116.41C284.442 116.374 284.46 116.333 284.468 116.289C284.477 116.246 284.477 116.202 284.468 116.158C284.459 116.115 284.442 116.074 284.417 116.037Z" fill="black"/>
<path opacity="0.1" d="M282.156 117.824L281.116 116.343C281.105 116.326 281.091 116.312 281.075 116.301C281.058 116.29 281.04 116.283 281.02 116.279C281.001 116.275 280.981 116.276 280.961 116.28C280.942 116.284 280.924 116.292 280.907 116.303L279.386 117.329C279.37 117.34 279.355 117.354 279.344 117.37C279.333 117.387 279.325 117.405 279.321 117.425C279.317 117.444 279.317 117.464 279.321 117.484C279.324 117.503 279.332 117.522 279.343 117.538L280.296 119.003C280.307 119.02 280.321 119.034 280.337 119.046C280.353 119.058 280.372 119.066 280.391 119.07C280.411 119.074 280.431 119.075 280.45 119.071C280.47 119.068 280.489 119.06 280.505 119.049L282.113 118.053C282.132 118.042 282.149 118.027 282.162 118.009C282.174 117.991 282.183 117.97 282.187 117.948C282.191 117.927 282.191 117.904 282.185 117.883C282.18 117.861 282.17 117.841 282.156 117.824V117.824Z" fill="black"/>
<path opacity="0.1" d="M280.06 119.275L279.021 117.791C278.998 117.759 278.963 117.737 278.924 117.73C278.885 117.723 278.845 117.732 278.812 117.754L277.294 118.777C277.261 118.8 277.238 118.835 277.23 118.874C277.222 118.914 277.23 118.955 277.251 118.989L278.204 120.454C278.227 120.487 278.261 120.51 278.3 120.519C278.339 120.527 278.379 120.521 278.413 120.5L280.021 119.504C280.041 119.494 280.058 119.479 280.071 119.461C280.085 119.443 280.094 119.422 280.097 119.399C280.101 119.377 280.1 119.354 280.093 119.333C280.087 119.311 280.076 119.291 280.06 119.275V119.275Z" fill="black"/>
<path opacity="0.1" d="M277.716 120.895L276.677 119.414C276.654 119.382 276.619 119.361 276.58 119.354C276.541 119.347 276.5 119.356 276.468 119.378L274.947 120.401C274.93 120.411 274.916 120.425 274.904 120.442C274.893 120.458 274.885 120.477 274.881 120.496C274.877 120.516 274.877 120.536 274.881 120.555C274.885 120.575 274.893 120.593 274.904 120.61L275.857 122.078C275.879 122.111 275.913 122.134 275.952 122.142C275.991 122.151 276.032 122.144 276.066 122.124L277.673 121.128C277.692 121.117 277.709 121.101 277.722 121.083C277.735 121.065 277.744 121.044 277.748 121.022C277.752 120.999 277.751 120.977 277.746 120.955C277.74 120.933 277.73 120.913 277.716 120.895V120.895Z" fill="black"/>
<path opacity="0.1" d="M275.445 122.469L274.406 120.988C274.395 120.972 274.38 120.958 274.364 120.947C274.347 120.936 274.329 120.928 274.309 120.925C274.29 120.921 274.27 120.921 274.25 120.925C274.231 120.929 274.213 120.937 274.196 120.949L272.676 121.961C272.659 121.972 272.644 121.986 272.633 122.002C272.622 122.019 272.614 122.037 272.61 122.057C272.606 122.076 272.606 122.096 272.61 122.116C272.614 122.135 272.621 122.154 272.632 122.171L273.585 123.635C273.607 123.669 273.641 123.692 273.68 123.701C273.72 123.71 273.761 123.703 273.795 123.681L275.402 122.685C275.419 122.674 275.434 122.66 275.446 122.643C275.457 122.626 275.465 122.607 275.469 122.587C275.473 122.566 275.473 122.546 275.469 122.525C275.465 122.505 275.457 122.486 275.445 122.469V122.469Z" fill="black"/>
<path opacity="0.1" d="M289.956 108.875L289.119 107.683C289.069 107.614 288.995 107.568 288.911 107.552C288.828 107.537 288.742 107.554 288.671 107.6L287.432 108.437C287.363 108.486 287.315 108.56 287.298 108.643C287.281 108.726 287.297 108.813 287.343 108.885L288.11 110.064C288.158 110.133 288.23 110.182 288.313 110.2C288.396 110.218 288.482 110.204 288.555 110.16L289.863 109.34C289.9 109.316 289.932 109.284 289.956 109.248C289.981 109.211 289.998 109.17 290.007 109.127C290.016 109.084 290.015 109.039 290.007 108.996C289.998 108.953 289.981 108.911 289.956 108.875Z" fill="black"/>
<path opacity="0.1" d="M287.588 110.515L286.751 109.32C286.701 109.251 286.626 109.203 286.542 109.188C286.458 109.172 286.371 109.19 286.3 109.237L285.065 110.074C284.995 110.122 284.946 110.196 284.929 110.279C284.911 110.363 284.927 110.45 284.972 110.522L285.739 111.701C285.786 111.772 285.859 111.822 285.943 111.841C286.026 111.859 286.114 111.845 286.187 111.8L287.495 110.977C287.532 110.953 287.563 110.922 287.588 110.885C287.612 110.849 287.629 110.808 287.638 110.765C287.646 110.723 287.646 110.678 287.638 110.635C287.629 110.593 287.613 110.552 287.588 110.515Z" fill="black"/>
<path opacity="0.1" d="M285.227 112.152L284.391 110.96C284.34 110.891 284.266 110.844 284.181 110.828C284.097 110.813 284.01 110.83 283.939 110.877L282.7 111.711C282.631 111.76 282.583 111.834 282.566 111.917C282.549 112 282.565 112.087 282.611 112.159L283.378 113.338C283.425 113.409 283.498 113.459 283.582 113.478C283.665 113.496 283.753 113.482 283.826 113.437L285.131 112.614C285.168 112.59 285.199 112.559 285.224 112.523C285.249 112.487 285.266 112.446 285.275 112.403C285.284 112.36 285.285 112.316 285.276 112.273C285.268 112.23 285.251 112.189 285.227 112.152V112.152Z" fill="black"/>
<path opacity="0.1" d="M282.86 113.789L282.023 112.597C281.973 112.529 281.899 112.482 281.815 112.467C281.732 112.451 281.646 112.468 281.575 112.514L280.336 113.348C280.267 113.397 280.219 113.471 280.202 113.554C280.185 113.637 280.201 113.724 280.246 113.796L281.014 114.988C281.061 115.058 281.133 115.108 281.216 115.126C281.299 115.145 281.386 115.131 281.458 115.088L282.767 114.268C282.806 114.243 282.839 114.212 282.865 114.174C282.891 114.136 282.909 114.094 282.918 114.049C282.926 114.004 282.926 113.958 282.916 113.913C282.906 113.868 282.887 113.826 282.86 113.789Z" fill="black"/>
<path opacity="0.1" d="M280.615 115.576L279.576 114.095C279.565 114.078 279.55 114.064 279.534 114.053C279.517 114.042 279.499 114.035 279.479 114.031C279.46 114.027 279.44 114.028 279.421 114.032C279.401 114.036 279.383 114.044 279.367 114.055L277.846 115.081C277.813 115.103 277.79 115.138 277.781 115.177C277.773 115.216 277.781 115.257 277.803 115.29L278.756 116.758C278.766 116.775 278.78 116.789 278.797 116.8C278.813 116.812 278.832 116.82 278.851 116.824C278.871 116.828 278.891 116.828 278.91 116.824C278.93 116.82 278.948 116.812 278.965 116.801L280.572 115.805C280.591 115.794 280.608 115.779 280.621 115.761C280.634 115.743 280.642 115.722 280.647 115.7C280.651 115.679 280.65 115.656 280.645 115.635C280.639 115.613 280.629 115.593 280.615 115.576Z" fill="black"/>
<path opacity="0.1" d="M278.507 117.027L277.467 115.543C277.443 115.51 277.408 115.489 277.368 115.482C277.329 115.475 277.288 115.484 277.255 115.506L275.737 116.529C275.704 116.552 275.681 116.587 275.673 116.626C275.665 116.666 275.672 116.707 275.694 116.741L276.647 118.206C276.669 118.239 276.703 118.263 276.742 118.272C276.781 118.281 276.822 118.274 276.856 118.252L278.463 117.256C278.483 117.245 278.499 117.23 278.512 117.212C278.525 117.194 278.534 117.173 278.538 117.152C278.542 117.13 278.541 117.107 278.536 117.086C278.531 117.064 278.521 117.044 278.507 117.027Z" fill="black"/>
<path opacity="0.1" d="M276.162 118.641L275.123 117.156C275.099 117.124 275.063 117.102 275.024 117.096C274.984 117.089 274.944 117.098 274.91 117.12L273.389 118.143C273.357 118.166 273.334 118.201 273.326 118.24C273.318 118.28 273.325 118.321 273.346 118.355L274.303 119.82C274.324 119.853 274.359 119.877 274.398 119.886C274.437 119.894 274.478 119.887 274.512 119.866L276.116 118.87C276.136 118.86 276.153 118.845 276.167 118.827C276.18 118.809 276.19 118.789 276.194 118.767C276.199 118.745 276.198 118.722 276.192 118.7C276.187 118.678 276.177 118.658 276.162 118.641V118.641Z" fill="black"/>
<path opacity="0.1" d="M273.891 120.221L272.852 118.74C272.84 118.724 272.826 118.71 272.809 118.699C272.792 118.688 272.773 118.68 272.754 118.676C272.734 118.673 272.714 118.673 272.694 118.677C272.674 118.681 272.656 118.689 272.639 118.701L271.118 119.727C271.086 119.749 271.063 119.784 271.056 119.823C271.048 119.862 271.056 119.903 271.078 119.936L272.031 121.4C272.042 121.418 272.055 121.433 272.071 121.444C272.088 121.456 272.106 121.465 272.126 121.469C272.145 121.473 272.166 121.474 272.186 121.47C272.205 121.466 272.224 121.458 272.241 121.447L273.844 120.45C273.864 120.44 273.882 120.426 273.895 120.408C273.909 120.39 273.918 120.369 273.923 120.347C273.927 120.325 273.927 120.302 273.921 120.281C273.916 120.259 273.905 120.239 273.891 120.221V120.221Z" fill="black"/>
<path opacity="0.1" d="M273.174 124.04L272.134 122.559C272.111 122.527 272.076 122.505 272.037 122.498C271.998 122.492 271.958 122.5 271.925 122.523L270.404 123.545C270.388 123.556 270.373 123.57 270.362 123.586C270.351 123.603 270.343 123.621 270.339 123.641C270.335 123.66 270.335 123.68 270.338 123.7C270.342 123.719 270.35 123.738 270.361 123.754L271.314 125.222C271.336 125.255 271.371 125.278 271.409 125.287C271.448 125.296 271.489 125.289 271.523 125.269L273.13 124.272C273.15 124.261 273.167 124.246 273.179 124.227C273.192 124.209 273.201 124.188 273.205 124.166C273.209 124.144 273.209 124.121 273.203 124.1C273.198 124.078 273.188 124.058 273.174 124.04V124.04Z" fill="black"/>
<path opacity="0.1" d="M270.902 125.614L269.863 124.133C269.852 124.117 269.838 124.102 269.821 124.091C269.805 124.081 269.786 124.073 269.767 124.069C269.747 124.066 269.727 124.066 269.708 124.07C269.689 124.074 269.67 124.082 269.654 124.093L268.133 125.119C268.116 125.13 268.102 125.144 268.091 125.16C268.079 125.177 268.071 125.195 268.067 125.215C268.063 125.234 268.063 125.254 268.067 125.274C268.071 125.293 268.079 125.312 268.09 125.328L269.043 126.793C269.065 126.826 269.099 126.85 269.138 126.859C269.177 126.868 269.218 126.861 269.252 126.839L270.859 125.843C270.879 125.832 270.895 125.817 270.908 125.799C270.921 125.781 270.93 125.76 270.934 125.739C270.938 125.717 270.937 125.694 270.932 125.673C270.926 125.651 270.916 125.631 270.902 125.614Z" fill="black"/>
<path opacity="0.1" d="M274.469 116.203L273.473 114.809C273.441 114.766 273.394 114.736 273.341 114.727C273.289 114.717 273.235 114.729 273.19 114.759L271.756 115.725C271.733 115.74 271.714 115.759 271.699 115.781C271.684 115.803 271.674 115.828 271.669 115.855C271.663 115.881 271.663 115.908 271.669 115.934C271.674 115.96 271.684 115.985 271.699 116.008L272.596 117.386C272.61 117.408 272.628 117.428 272.65 117.444C272.671 117.459 272.696 117.47 272.722 117.476C272.748 117.482 272.775 117.483 272.801 117.478C272.827 117.473 272.852 117.463 272.875 117.449L274.392 116.496C274.417 116.482 274.439 116.464 274.457 116.442C274.474 116.419 274.487 116.394 274.494 116.366C274.501 116.339 274.503 116.31 274.499 116.282C274.494 116.254 274.484 116.227 274.469 116.203V116.203Z" fill="black"/>
<path opacity="0.1" d="M272.197 117.777L271.218 116.383C271.203 116.361 271.184 116.342 271.161 116.327C271.139 116.313 271.114 116.302 271.088 116.298C271.062 116.293 271.035 116.293 271.008 116.298C270.982 116.304 270.958 116.315 270.936 116.33L269.501 117.313C269.479 117.327 269.46 117.346 269.445 117.368C269.43 117.389 269.42 117.414 269.414 117.44C269.409 117.466 269.409 117.493 269.414 117.519C269.419 117.545 269.43 117.57 269.445 117.591L270.341 118.973C270.37 119.017 270.416 119.049 270.468 119.061C270.52 119.072 270.575 119.064 270.62 119.036L272.138 118.083C272.163 118.068 272.185 118.048 272.203 118.024C272.22 118 272.232 117.973 272.237 117.944C272.243 117.915 272.242 117.885 272.235 117.856C272.229 117.828 272.216 117.801 272.197 117.777V117.777Z" fill="black"/>
<path opacity="0.1" d="M269.926 119.351L268.947 117.953C268.915 117.91 268.868 117.881 268.816 117.871C268.763 117.862 268.709 117.874 268.664 117.904L267.23 118.87C267.207 118.885 267.188 118.904 267.173 118.926C267.158 118.948 267.148 118.973 267.143 118.999C267.137 119.025 267.137 119.053 267.143 119.079C267.148 119.105 267.158 119.13 267.173 119.152L268.07 120.53C268.084 120.553 268.102 120.573 268.124 120.588C268.145 120.604 268.17 120.615 268.196 120.621C268.222 120.627 268.249 120.627 268.275 120.622C268.301 120.618 268.327 120.608 268.349 120.593L269.866 119.64C269.89 119.626 269.91 119.607 269.926 119.584C269.942 119.561 269.953 119.536 269.959 119.509C269.964 119.482 269.964 119.454 269.959 119.427C269.953 119.4 269.942 119.374 269.926 119.351V119.351Z" fill="black"/>
<path opacity="0.1" d="M267.685 120.965L266.645 119.481C266.622 119.449 266.587 119.427 266.548 119.42C266.509 119.413 266.469 119.422 266.436 119.444L264.915 120.467C264.882 120.49 264.859 120.525 264.851 120.565C264.843 120.604 264.85 120.645 264.872 120.68L265.825 122.144C265.848 122.177 265.882 122.2 265.921 122.209C265.959 122.217 266 122.211 266.034 122.19L267.642 121.194C267.662 121.184 267.679 121.17 267.693 121.152C267.707 121.134 267.716 121.113 267.72 121.09C267.724 121.068 267.723 121.045 267.717 121.024C267.711 121.002 267.7 120.982 267.685 120.965V120.965Z" fill="black"/>
<path opacity="0.1" d="M294.561 105.641L293.662 104.362C293.611 104.293 293.536 104.247 293.452 104.232C293.368 104.217 293.281 104.235 293.21 104.283L289.697 106.743C289.629 106.793 289.582 106.866 289.566 106.949C289.55 107.031 289.566 107.117 289.61 107.188L290.457 108.496C290.482 108.533 290.513 108.564 290.549 108.588C290.586 108.612 290.627 108.629 290.669 108.637C290.712 108.645 290.756 108.645 290.799 108.636C290.842 108.628 290.883 108.611 290.919 108.586L294.485 106.092C294.553 106.041 294.599 105.966 294.614 105.882C294.628 105.798 294.609 105.711 294.561 105.641V105.641Z" fill="black"/>
<path opacity="0.1" d="M271.613 121.746L270.511 120.188C270.499 120.171 270.485 120.157 270.468 120.146C270.451 120.135 270.432 120.128 270.412 120.125C270.392 120.121 270.372 120.122 270.352 120.126C270.333 120.131 270.314 120.14 270.298 120.152L266.506 122.808C266.474 122.83 266.451 122.864 266.444 122.903C266.436 122.941 266.444 122.981 266.466 123.014L267.502 124.618C267.513 124.635 267.528 124.65 267.545 124.662C267.562 124.673 267.581 124.681 267.601 124.685C267.621 124.689 267.642 124.689 267.662 124.685C267.682 124.681 267.701 124.673 267.718 124.661L271.573 121.961C271.607 121.938 271.63 121.902 271.637 121.862C271.645 121.821 271.636 121.779 271.613 121.746V121.746Z" fill="black"/>
<path opacity="0.1" d="M283.677 109.835L282.661 108.347C282.638 108.314 282.603 108.292 282.564 108.285C282.525 108.277 282.485 108.285 282.451 108.307L274.03 113.992C273.997 114.014 273.974 114.049 273.966 114.088C273.958 114.127 273.966 114.168 273.987 114.201L275.027 115.795C275.038 115.812 275.052 115.827 275.069 115.839C275.086 115.85 275.105 115.859 275.125 115.863C275.145 115.867 275.166 115.867 275.186 115.862C275.206 115.858 275.225 115.85 275.242 115.838L283.637 110.047C283.653 110.036 283.668 110.021 283.679 110.005C283.69 109.988 283.697 109.969 283.701 109.949C283.704 109.929 283.704 109.909 283.7 109.889C283.696 109.87 283.688 109.851 283.677 109.835V109.835Z" fill="black"/>
</g>
<path d="M297.796 110.167L296.959 108.971C296.909 108.902 296.834 108.855 296.75 108.839C296.666 108.824 296.579 108.841 296.507 108.888L295.272 109.725C295.202 109.774 295.153 109.847 295.136 109.931C295.119 110.014 295.134 110.101 295.179 110.173L295.946 111.352C295.994 111.423 296.067 111.473 296.15 111.492C296.234 111.51 296.321 111.496 296.394 111.452L297.703 110.628C297.739 110.604 297.771 110.573 297.795 110.537C297.819 110.5 297.837 110.46 297.845 110.417C297.854 110.374 297.854 110.33 297.845 110.287C297.837 110.244 297.82 110.203 297.796 110.167Z" fill="#464A5F"/>
<path d="M295.558 111.707L294.721 110.515C294.671 110.447 294.597 110.4 294.513 110.385C294.43 110.369 294.344 110.386 294.273 110.432L293.034 111.266C292.964 111.314 292.915 111.388 292.898 111.471C292.881 111.555 292.896 111.642 292.941 111.714L293.708 112.893C293.756 112.964 293.829 113.014 293.912 113.033C293.996 113.051 294.083 113.037 294.156 112.993L295.465 112.172C295.502 112.148 295.533 112.117 295.558 112.08C295.583 112.044 295.6 112.003 295.609 111.959C295.617 111.916 295.617 111.872 295.609 111.828C295.6 111.785 295.582 111.744 295.558 111.707Z" fill="#464A5F"/>
<path d="M293.233 113.328L292.396 112.136C292.346 112.066 292.271 112.019 292.187 112.004C292.103 111.988 292.016 112.006 291.945 112.053L290.71 112.89C290.64 112.938 290.591 113.012 290.574 113.095C290.556 113.179 290.572 113.265 290.617 113.338L291.384 114.517C291.432 114.587 291.505 114.637 291.589 114.655C291.672 114.673 291.759 114.658 291.832 114.613L293.14 113.793C293.177 113.769 293.209 113.737 293.234 113.701C293.258 113.664 293.276 113.623 293.284 113.58C293.293 113.537 293.293 113.492 293.284 113.449C293.275 113.405 293.258 113.364 293.233 113.328Z" fill="#464A5F"/>
<path d="M290.862 114.965L290.026 113.77C289.976 113.701 289.901 113.654 289.818 113.639C289.735 113.623 289.648 113.641 289.577 113.686L288.339 114.523C288.302 114.548 288.271 114.58 288.247 114.616C288.223 114.653 288.206 114.694 288.198 114.738C288.19 114.781 288.191 114.825 288.2 114.868C288.209 114.911 288.227 114.952 288.252 114.988L289.019 116.167C289.067 116.238 289.14 116.288 289.224 116.307C289.307 116.325 289.395 116.311 289.468 116.267L290.773 115.443C290.811 115.419 290.844 115.387 290.87 115.349C290.896 115.311 290.913 115.268 290.922 115.224C290.93 115.179 290.929 115.133 290.919 115.088C290.909 115.044 290.889 115.002 290.862 114.965Z" fill="#464A5F"/>
<path d="M288.498 116.602L287.661 115.41C287.611 115.341 287.537 115.295 287.454 115.279C287.37 115.264 287.284 115.281 287.213 115.327L285.974 116.16C285.905 116.209 285.857 116.283 285.84 116.367C285.824 116.45 285.839 116.537 285.885 116.609L286.649 117.787C286.696 117.859 286.769 117.909 286.853 117.927C286.936 117.946 287.024 117.931 287.097 117.887L288.405 117.064C288.442 117.039 288.473 117.008 288.497 116.972C288.522 116.936 288.539 116.895 288.548 116.852C288.556 116.809 288.556 116.765 288.548 116.722C288.539 116.679 288.522 116.638 288.498 116.602Z" fill="#464A5F"/>
<path d="M286.237 118.388L285.197 116.907C285.186 116.891 285.172 116.877 285.156 116.866C285.139 116.855 285.121 116.847 285.101 116.844C285.082 116.84 285.062 116.84 285.042 116.844C285.023 116.848 285.005 116.856 284.988 116.868L283.467 117.894C283.451 117.904 283.436 117.918 283.425 117.935C283.414 117.951 283.406 117.97 283.402 117.989C283.398 118.009 283.398 118.029 283.402 118.048C283.405 118.068 283.413 118.086 283.424 118.103L284.377 119.567C284.399 119.601 284.433 119.625 284.472 119.633C284.511 119.642 284.552 119.635 284.586 119.614L286.194 118.618C286.213 118.607 286.23 118.592 286.243 118.573C286.255 118.555 286.264 118.535 286.268 118.513C286.272 118.491 286.272 118.469 286.266 118.447C286.261 118.426 286.251 118.406 286.237 118.388V118.388Z" fill="#464A5F"/>
<path d="M283.873 120.025L282.833 118.544C282.822 118.528 282.807 118.514 282.791 118.503C282.774 118.492 282.755 118.484 282.735 118.48C282.715 118.477 282.695 118.477 282.676 118.481C282.656 118.485 282.637 118.493 282.621 118.505L281.103 119.531C281.086 119.541 281.072 119.555 281.061 119.572C281.049 119.588 281.042 119.607 281.038 119.626C281.034 119.646 281.033 119.666 281.037 119.685C281.041 119.705 281.049 119.723 281.06 119.74L282.013 121.208C282.024 121.224 282.038 121.239 282.054 121.25C282.071 121.261 282.089 121.269 282.109 121.273C282.128 121.277 282.148 121.277 282.168 121.273C282.187 121.27 282.206 121.262 282.222 121.251L283.829 120.255C283.848 120.243 283.865 120.228 283.877 120.21C283.89 120.192 283.898 120.171 283.902 120.15C283.906 120.128 283.906 120.106 283.901 120.084C283.896 120.063 283.886 120.043 283.873 120.025V120.025Z" fill="#464A5F"/>
<path d="M281.777 121.477L280.738 119.992C280.715 119.96 280.68 119.939 280.641 119.932C280.602 119.925 280.562 119.933 280.529 119.956L279.008 120.965C278.975 120.988 278.951 121.023 278.943 121.063C278.935 121.102 278.943 121.144 278.965 121.178L279.918 122.642C279.94 122.675 279.974 122.698 280.013 122.707C280.052 122.716 280.093 122.709 280.127 122.689L281.734 121.692C281.751 121.681 281.766 121.667 281.778 121.65C281.79 121.633 281.798 121.614 281.802 121.594C281.806 121.573 281.806 121.553 281.801 121.533C281.797 121.512 281.789 121.493 281.777 121.477V121.477Z" fill="#464A5F"/>
<path d="M279.433 123.1L278.394 121.629C278.37 121.597 278.335 121.576 278.296 121.569C278.257 121.562 278.217 121.571 278.184 121.593L276.664 122.616C276.647 122.627 276.632 122.641 276.621 122.658C276.61 122.674 276.602 122.693 276.598 122.713C276.594 122.733 276.594 122.753 276.598 122.773C276.601 122.792 276.609 122.811 276.62 122.828L277.573 124.292C277.596 124.325 277.63 124.349 277.669 124.357C277.708 124.366 277.748 124.359 277.783 124.339L279.39 123.343C279.411 123.332 279.43 123.317 279.444 123.297C279.459 123.278 279.469 123.256 279.473 123.232C279.477 123.209 279.476 123.185 279.469 123.162C279.462 123.139 279.449 123.118 279.433 123.1V123.1Z" fill="#464A5F"/>
<path d="M277.162 124.671L276.122 123.19C276.111 123.173 276.097 123.159 276.081 123.148C276.064 123.137 276.046 123.13 276.026 123.126C276.007 123.123 275.987 123.123 275.967 123.127C275.948 123.131 275.929 123.139 275.913 123.15L274.392 124.176C274.376 124.187 274.361 124.201 274.35 124.217C274.339 124.234 274.331 124.252 274.327 124.272C274.323 124.291 274.323 124.311 274.326 124.331C274.33 124.35 274.338 124.369 274.349 124.385L275.302 125.85C275.313 125.867 275.326 125.881 275.343 125.893C275.359 125.905 275.377 125.913 275.397 125.917C275.416 125.922 275.437 125.922 275.456 125.918C275.476 125.915 275.495 125.907 275.511 125.896L277.118 124.9C277.138 124.889 277.154 124.874 277.167 124.856C277.18 124.838 277.189 124.817 277.193 124.795C277.197 124.774 277.197 124.751 277.191 124.73C277.186 124.708 277.176 124.688 277.162 124.671V124.671Z" fill="#464A5F"/>
<path d="M274.89 126.245L273.851 124.761C273.828 124.729 273.793 124.707 273.754 124.7C273.715 124.693 273.675 124.702 273.642 124.724L272.121 125.747C272.088 125.77 272.065 125.805 272.057 125.844C272.048 125.884 272.056 125.925 272.078 125.959L273.031 127.424C273.053 127.457 273.087 127.48 273.126 127.489C273.165 127.497 273.206 127.491 273.24 127.47L274.847 126.474C274.867 126.463 274.883 126.448 274.896 126.43C274.909 126.412 274.918 126.391 274.922 126.369C274.926 126.348 274.925 126.325 274.92 126.304C274.914 126.282 274.904 126.262 274.89 126.245V126.245Z" fill="#464A5F"/>
<path d="M272.619 127.816L271.58 126.335C271.569 126.318 271.555 126.304 271.538 126.293C271.522 126.282 271.503 126.275 271.484 126.271C271.464 126.267 271.444 126.267 271.425 126.271C271.405 126.276 271.387 126.283 271.371 126.295L269.85 127.321C269.833 127.332 269.819 127.346 269.807 127.362C269.796 127.378 269.788 127.397 269.784 127.416C269.78 127.436 269.78 127.456 269.784 127.475C269.788 127.495 269.795 127.513 269.807 127.53L270.76 128.994C270.77 129.011 270.784 129.026 270.8 129.038C270.816 129.049 270.835 129.057 270.854 129.062C270.874 129.066 270.894 129.066 270.914 129.063C270.933 129.059 270.952 129.052 270.969 129.041L272.576 128.045C272.595 128.034 272.612 128.019 272.625 128.001C272.638 127.983 272.647 127.962 272.651 127.94C272.655 127.918 272.654 127.896 272.649 127.874C272.643 127.853 272.633 127.833 272.619 127.816V127.816Z" fill="#464A5F"/>
<path d="M296.298 108.015L295.461 106.82C295.411 106.751 295.337 106.704 295.254 106.689C295.17 106.673 295.084 106.691 295.013 106.737L293.774 107.573C293.705 107.622 293.657 107.696 293.64 107.78C293.624 107.863 293.64 107.95 293.685 108.022L294.449 109.2C294.496 109.272 294.569 109.322 294.653 109.34C294.736 109.359 294.824 109.344 294.897 109.3L296.205 108.477C296.242 108.452 296.273 108.421 296.297 108.385C296.322 108.349 296.339 108.308 296.348 108.265C296.356 108.222 296.356 108.178 296.348 108.135C296.339 108.092 296.322 108.051 296.298 108.015Z" fill="#464A5F"/>
<path d="M293.027 103.28L292.191 102.088C292.141 102.019 292.066 101.973 291.983 101.957C291.9 101.942 291.814 101.959 291.742 102.005L290.504 102.838C290.434 102.887 290.386 102.961 290.369 103.044C290.353 103.128 290.369 103.214 290.414 103.286L291.181 104.465C291.229 104.536 291.301 104.585 291.384 104.604C291.467 104.622 291.553 104.608 291.626 104.565L292.934 103.745C292.971 103.721 293.003 103.689 293.028 103.653C293.053 103.616 293.07 103.575 293.078 103.532C293.087 103.488 293.087 103.444 293.078 103.401C293.07 103.357 293.052 103.316 293.027 103.28Z" fill="#464A5F"/>
<path d="M294.07 109.546L293.233 108.347C293.183 108.279 293.109 108.232 293.026 108.216C292.942 108.201 292.856 108.218 292.785 108.264L291.546 109.097C291.477 109.146 291.429 109.22 291.412 109.304C291.395 109.387 291.411 109.474 291.457 109.546L292.224 110.725C292.271 110.795 292.344 110.844 292.426 110.863C292.509 110.881 292.596 110.867 292.669 110.824L293.977 110.004C294.05 109.955 294.1 109.88 294.118 109.794C294.135 109.708 294.118 109.619 294.07 109.546Z" fill="#464A5F"/>
<path d="M291.732 111.163L290.909 109.971C290.859 109.902 290.785 109.856 290.701 109.84C290.618 109.825 290.532 109.842 290.461 109.888L289.222 110.721C289.152 110.77 289.103 110.845 289.086 110.929C289.069 111.013 289.086 111.101 289.132 111.173L289.896 112.352C289.944 112.422 290.017 112.472 290.101 112.49C290.184 112.507 290.272 112.493 290.344 112.448L291.653 111.628C291.689 111.603 291.719 111.571 291.743 111.533C291.766 111.496 291.782 111.455 291.789 111.412C291.797 111.369 291.796 111.324 291.786 111.282C291.776 111.239 291.758 111.199 291.732 111.163Z" fill="#464A5F"/>
<path d="M289.368 112.803L288.531 111.608C288.481 111.538 288.406 111.491 288.322 111.476C288.238 111.46 288.151 111.478 288.08 111.525L286.844 112.362C286.774 112.41 286.726 112.484 286.708 112.567C286.691 112.651 286.706 112.737 286.751 112.81L287.518 113.989C287.566 114.06 287.639 114.11 287.723 114.128C287.806 114.147 287.894 114.133 287.967 114.088L289.275 113.265C289.312 113.241 289.343 113.21 289.367 113.173C289.392 113.137 289.409 113.096 289.418 113.053C289.426 113.01 289.426 112.966 289.418 112.923C289.409 112.88 289.392 112.84 289.368 112.803Z" fill="#464A5F"/>
<path d="M290.852 104.897L290.016 103.698C289.966 103.63 289.891 103.583 289.808 103.568C289.725 103.552 289.639 103.569 289.567 103.615L288.329 104.449C288.259 104.498 288.211 104.572 288.194 104.655C288.178 104.738 288.194 104.825 288.239 104.897L289.006 106.076C289.054 106.146 289.126 106.195 289.209 106.214C289.292 106.233 289.378 106.219 289.451 106.175L290.759 105.355C290.832 105.306 290.883 105.231 290.9 105.145C290.918 105.059 290.9 104.97 290.852 104.897V104.897Z" fill="#464A5F"/>
<path d="M288.515 106.517L287.678 105.322C287.628 105.254 287.554 105.207 287.47 105.191C287.387 105.176 287.301 105.193 287.23 105.239L285.991 106.076C285.921 106.124 285.872 106.198 285.855 106.281C285.838 106.365 285.853 106.452 285.898 106.524L286.665 107.703C286.713 107.774 286.786 107.824 286.869 107.843C286.953 107.861 287.04 107.847 287.113 107.802L288.422 106.979C288.458 106.955 288.49 106.924 288.514 106.887C288.538 106.851 288.556 106.81 288.564 106.767C288.573 106.725 288.573 106.68 288.564 106.637C288.556 106.595 288.539 106.554 288.515 106.517Z" fill="#464A5F"/>
<path d="M286.15 108.154L285.314 106.962C285.264 106.893 285.189 106.846 285.105 106.83C285.02 106.815 284.934 106.832 284.862 106.879L283.627 107.713C283.557 107.761 283.508 107.835 283.491 107.918C283.473 108.002 283.489 108.089 283.534 108.161L284.301 109.343C284.348 109.414 284.422 109.464 284.505 109.483C284.589 109.502 284.676 109.487 284.749 109.443L286.054 108.619C286.091 108.595 286.123 108.564 286.149 108.528C286.174 108.491 286.191 108.45 286.2 108.407C286.209 108.364 286.209 108.319 286.201 108.276C286.192 108.232 286.175 108.191 286.15 108.154V108.154Z" fill="#464A5F"/>
<path d="M287.001 114.44L286.164 113.248C286.114 113.18 286.039 113.133 285.956 113.118C285.873 113.102 285.787 113.119 285.715 113.165L284.477 113.992C284.407 114.041 284.359 114.115 284.343 114.198C284.326 114.282 284.342 114.368 284.387 114.44L285.154 115.619C285.202 115.689 285.274 115.739 285.357 115.757C285.44 115.776 285.526 115.762 285.599 115.719L286.908 114.895C286.979 114.847 287.029 114.772 287.047 114.687C287.064 114.602 287.048 114.513 287.001 114.44V114.44Z" fill="#464A5F"/>
<path d="M284.636 116.077L283.799 114.885C283.749 114.817 283.675 114.77 283.592 114.755C283.508 114.739 283.422 114.756 283.351 114.802L282.113 115.652C282.043 115.701 281.994 115.774 281.977 115.858C281.959 115.941 281.975 116.028 282.02 116.101L282.787 117.279C282.834 117.351 282.907 117.401 282.991 117.419C283.074 117.438 283.162 117.423 283.235 117.379L284.543 116.559C284.583 116.535 284.617 116.503 284.643 116.465C284.669 116.427 284.687 116.384 284.696 116.339C284.705 116.293 284.704 116.247 284.694 116.202C284.683 116.157 284.664 116.114 284.636 116.077Z" fill="#464A5F"/>
<path d="M282.375 117.864L281.336 116.383C281.325 116.366 281.31 116.352 281.294 116.341C281.277 116.33 281.259 116.323 281.239 116.319C281.22 116.315 281.2 116.316 281.18 116.32C281.161 116.324 281.143 116.332 281.126 116.343L279.619 117.369C279.602 117.38 279.588 117.394 279.576 117.41C279.565 117.427 279.557 117.445 279.553 117.465C279.549 117.484 279.549 117.504 279.553 117.524C279.557 117.543 279.565 117.562 279.576 117.578L280.529 119.043C280.539 119.06 280.553 119.074 280.569 119.086C280.586 119.097 280.604 119.106 280.623 119.11C280.643 119.114 280.663 119.115 280.683 119.111C280.702 119.108 280.721 119.1 280.738 119.089L282.345 118.093C282.363 118.08 282.378 118.064 282.389 118.046C282.401 118.027 282.408 118.006 282.411 117.985C282.414 117.963 282.412 117.941 282.406 117.921C282.4 117.9 282.389 117.88 282.375 117.864V117.864Z" fill="#464A5F"/>
<path d="M280.283 119.305L279.244 117.821C279.22 117.788 279.184 117.767 279.145 117.76C279.105 117.753 279.064 117.762 279.031 117.784L277.51 118.807C277.478 118.83 277.455 118.865 277.447 118.905C277.439 118.944 277.446 118.985 277.467 119.019L278.423 120.484C278.445 120.517 278.479 120.541 278.519 120.55C278.558 120.558 278.599 120.551 278.633 120.53L280.236 119.534C280.256 119.524 280.274 119.509 280.288 119.491C280.301 119.473 280.31 119.453 280.315 119.431C280.319 119.409 280.319 119.386 280.313 119.364C280.308 119.342 280.297 119.322 280.283 119.305V119.305Z" fill="#464A5F"/>
<path d="M277.935 120.939L276.896 119.454C276.873 119.422 276.838 119.401 276.799 119.394C276.76 119.387 276.72 119.396 276.687 119.418L275.166 120.441C275.133 120.463 275.11 120.498 275.101 120.538C275.093 120.578 275.101 120.619 275.123 120.653L276.076 122.117C276.098 122.15 276.132 122.174 276.171 122.182C276.21 122.191 276.251 122.184 276.285 122.164L277.892 121.168C277.912 121.158 277.93 121.143 277.944 121.125C277.957 121.107 277.967 121.086 277.971 121.064C277.975 121.042 277.974 121.019 277.968 120.997C277.962 120.975 277.951 120.955 277.935 120.939V120.939Z" fill="#464A5F"/>
<path d="M275.667 122.509L274.638 121.028C274.627 121.012 274.613 120.998 274.596 120.987C274.58 120.976 274.561 120.968 274.542 120.965C274.522 120.961 274.502 120.961 274.483 120.965C274.463 120.969 274.445 120.977 274.429 120.988L272.908 122.014C272.875 122.037 272.852 122.071 272.844 122.11C272.836 122.149 272.843 122.19 272.865 122.224L273.818 123.688C273.84 123.722 273.874 123.745 273.913 123.754C273.952 123.763 273.993 123.756 274.027 123.735L275.634 122.738C275.653 122.727 275.669 122.711 275.682 122.693C275.694 122.675 275.702 122.654 275.705 122.632C275.708 122.61 275.707 122.587 275.7 122.566C275.693 122.545 275.682 122.526 275.667 122.509V122.509Z" fill="#464A5F"/>
<path d="M290.175 108.918L289.342 107.723C289.291 107.653 289.216 107.606 289.132 107.591C289.048 107.575 288.961 107.593 288.89 107.64L287.651 108.477C287.582 108.526 287.534 108.599 287.517 108.683C287.5 108.766 287.516 108.853 287.562 108.925L288.329 110.104C288.377 110.174 288.45 110.224 288.534 110.242C288.617 110.259 288.704 110.245 288.777 110.2L290.082 109.38C290.118 109.356 290.15 109.324 290.174 109.288C290.199 109.252 290.216 109.211 290.224 109.168C290.233 109.125 290.233 109.081 290.225 109.038C290.216 108.995 290.199 108.955 290.175 108.918V108.918Z" fill="#464A5F"/>
<path d="M287.811 110.555L286.974 109.363C286.924 109.294 286.85 109.247 286.767 109.231C286.684 109.215 286.597 109.231 286.526 109.277L285.287 110.114C285.218 110.163 285.17 110.236 285.153 110.32C285.136 110.403 285.152 110.49 285.197 110.562L285.964 111.741C286.012 111.811 286.084 111.86 286.167 111.879C286.25 111.897 286.337 111.884 286.409 111.84L287.718 111.017C287.754 110.993 287.786 110.962 287.81 110.925C287.834 110.889 287.852 110.848 287.86 110.805C287.869 110.762 287.869 110.718 287.86 110.675C287.852 110.632 287.835 110.592 287.811 110.555Z" fill="#464A5F"/>
<path d="M285.447 112.192L284.6 111.003C284.55 110.934 284.475 110.887 284.391 110.871C284.306 110.856 284.22 110.873 284.148 110.92L282.939 111.751C282.869 111.799 282.821 111.873 282.803 111.956C282.786 112.04 282.801 112.126 282.846 112.199L283.614 113.378C283.661 113.449 283.734 113.499 283.818 113.517C283.901 113.536 283.989 113.522 284.062 113.477L285.37 112.657C285.406 112.632 285.436 112.599 285.459 112.562C285.482 112.525 285.498 112.484 285.505 112.441C285.512 112.397 285.511 112.353 285.501 112.311C285.491 112.268 285.472 112.228 285.447 112.192V112.192Z" fill="#464A5F"/>
<path d="M283.079 113.829L282.242 112.637C282.192 112.569 282.118 112.522 282.034 112.507C281.951 112.491 281.865 112.508 281.794 112.554L280.555 113.388C280.486 113.437 280.438 113.51 280.421 113.594C280.404 113.677 280.42 113.764 280.466 113.836L281.233 115.015C281.28 115.085 281.353 115.134 281.435 115.153C281.518 115.171 281.605 115.158 281.678 115.114L282.986 114.294C283.023 114.27 283.055 114.239 283.079 114.202C283.104 114.166 283.121 114.125 283.13 114.081C283.139 114.038 283.139 113.993 283.13 113.95C283.121 113.907 283.104 113.866 283.079 113.829Z" fill="#464A5F"/>
<path d="M280.821 115.616L279.782 114.135C279.77 114.118 279.756 114.104 279.739 114.093C279.722 114.082 279.703 114.074 279.684 114.071C279.664 114.067 279.644 114.067 279.624 114.071C279.604 114.076 279.586 114.084 279.569 114.095L278.048 115.121C278.015 115.143 277.992 115.178 277.984 115.217C277.976 115.256 277.984 115.297 278.005 115.33L278.958 116.798C278.969 116.815 278.983 116.829 279 116.841C279.017 116.852 279.036 116.86 279.055 116.864C279.075 116.868 279.095 116.868 279.115 116.864C279.135 116.86 279.154 116.852 279.171 116.841L280.774 115.845C280.794 115.834 280.811 115.819 280.824 115.801C280.837 115.784 280.847 115.763 280.851 115.741C280.856 115.719 280.855 115.697 280.85 115.675C280.845 115.653 280.835 115.633 280.821 115.616Z" fill="#464A5F"/>
<path d="M278.726 117.067L277.686 115.586C277.675 115.569 277.661 115.555 277.645 115.544C277.628 115.533 277.609 115.526 277.59 115.522C277.571 115.518 277.551 115.519 277.531 115.523C277.512 115.527 277.493 115.535 277.477 115.546L275.966 116.569C275.933 116.592 275.91 116.627 275.902 116.666C275.894 116.706 275.901 116.747 275.923 116.781L276.876 118.246C276.898 118.279 276.933 118.302 276.971 118.31C277.01 118.319 277.051 118.313 277.085 118.292L278.692 117.296C278.711 117.284 278.727 117.268 278.739 117.25C278.751 117.232 278.758 117.211 278.762 117.189C278.765 117.167 278.763 117.145 278.757 117.124C278.751 117.103 278.74 117.083 278.726 117.067V117.067Z" fill="#464A5F"/>
<path d="M276.381 118.691L275.342 117.206C275.318 117.174 275.283 117.152 275.243 117.145C275.203 117.139 275.163 117.147 275.129 117.17L273.612 118.193C273.579 118.215 273.555 118.25 273.547 118.29C273.539 118.33 273.547 118.371 273.569 118.405L274.522 119.869C274.544 119.903 274.578 119.927 274.617 119.936C274.656 119.944 274.697 119.937 274.731 119.916L276.338 118.92C276.357 118.909 276.374 118.894 276.387 118.876C276.4 118.858 276.409 118.837 276.413 118.815C276.417 118.793 276.416 118.771 276.411 118.749C276.405 118.728 276.395 118.708 276.381 118.691V118.691Z" fill="#464A5F"/>
<path d="M274.11 120.261L273.071 118.78C273.059 118.764 273.045 118.749 273.028 118.738C273.011 118.728 272.992 118.72 272.973 118.716C272.953 118.713 272.933 118.713 272.913 118.717C272.893 118.721 272.875 118.729 272.858 118.74L271.341 119.766C271.324 119.777 271.31 119.791 271.298 119.808C271.287 119.824 271.279 119.842 271.275 119.862C271.271 119.881 271.271 119.902 271.275 119.921C271.279 119.941 271.286 119.959 271.298 119.976L272.251 121.443C272.261 121.46 272.275 121.474 272.292 121.486C272.308 121.497 272.327 121.505 272.346 121.509C272.366 121.513 272.386 121.513 272.405 121.509C272.425 121.505 272.443 121.498 272.46 121.486L274.067 120.49C274.086 120.479 274.102 120.464 274.115 120.446C274.127 120.428 274.136 120.407 274.14 120.385C274.144 120.364 274.143 120.342 274.138 120.32C274.133 120.299 274.123 120.279 274.11 120.261V120.261Z" fill="#464A5F"/>
<path d="M273.396 124.083L272.357 122.599C272.333 122.567 272.297 122.545 272.258 122.538C272.218 122.531 272.178 122.54 272.144 122.562L270.623 123.585C270.59 123.608 270.567 123.643 270.559 123.683C270.551 123.722 270.559 123.763 270.58 123.798L271.533 125.262C271.556 125.295 271.59 125.318 271.629 125.327C271.668 125.335 271.708 125.329 271.742 125.308L273.35 124.312C273.37 124.302 273.387 124.287 273.401 124.27C273.414 124.252 273.424 124.231 273.428 124.209C273.433 124.187 273.432 124.164 273.426 124.142C273.421 124.121 273.411 124.1 273.396 124.083V124.083Z" fill="#464A5F"/>
<path d="M271.125 125.654L270.086 124.173C270.074 124.156 270.06 124.142 270.043 124.131C270.026 124.12 270.007 124.113 269.988 124.109C269.968 124.105 269.948 124.105 269.928 124.11C269.908 124.114 269.89 124.122 269.873 124.133L268.352 125.159C268.319 125.181 268.296 125.216 268.288 125.255C268.28 125.294 268.287 125.335 268.309 125.368L269.262 126.833C269.273 126.85 269.287 126.865 269.303 126.876C269.32 126.888 269.339 126.896 269.359 126.9C269.378 126.905 269.399 126.905 269.419 126.901C269.439 126.898 269.458 126.89 269.475 126.879L271.078 125.883C271.098 125.873 271.116 125.858 271.129 125.84C271.143 125.822 271.152 125.802 271.157 125.78C271.161 125.758 271.161 125.735 271.155 125.713C271.15 125.691 271.139 125.671 271.125 125.654V125.654Z" fill="#464A5F"/>
<path d="M274.688 116.247L273.708 114.849C273.677 114.805 273.63 114.776 273.577 114.767C273.525 114.757 273.47 114.769 273.426 114.799L271.982 115.765C271.937 115.796 271.906 115.842 271.896 115.895C271.885 115.948 271.896 116.002 271.925 116.047L272.822 117.429C272.852 117.474 272.898 117.505 272.951 117.516C273.003 117.528 273.058 117.518 273.104 117.489L274.618 116.536C274.642 116.522 274.664 116.503 274.681 116.481C274.697 116.459 274.71 116.433 274.716 116.406C274.723 116.379 274.724 116.351 274.719 116.324C274.714 116.296 274.703 116.27 274.688 116.247V116.247Z" fill="#464A5F"/>
<path d="M272.417 117.817L271.437 116.423C271.422 116.401 271.403 116.382 271.38 116.367C271.358 116.352 271.333 116.342 271.307 116.337C271.281 116.332 271.254 116.333 271.228 116.338C271.201 116.344 271.177 116.354 271.155 116.37L269.72 117.339C269.676 117.369 269.645 117.415 269.635 117.467C269.624 117.519 269.635 117.573 269.664 117.618L270.56 118.999C270.59 119.044 270.636 119.076 270.689 119.088C270.741 119.099 270.796 119.09 270.843 119.062L272.36 118.109C272.383 118.094 272.403 118.074 272.418 118.051C272.433 118.028 272.444 118.002 272.449 117.975C272.455 117.948 272.454 117.92 272.449 117.893C272.443 117.866 272.432 117.84 272.417 117.817V117.817Z" fill="#464A5F"/>
<path d="M270.145 119.391L269.149 117.993C269.118 117.95 269.072 117.921 269.02 117.911C268.968 117.902 268.914 117.914 268.87 117.943L267.432 118.91C267.388 118.94 267.357 118.987 267.347 119.039C267.336 119.092 267.347 119.147 267.376 119.192L268.272 120.573C268.302 120.618 268.349 120.65 268.401 120.661C268.454 120.672 268.509 120.662 268.555 120.633L270.072 119.68C270.097 119.667 270.118 119.648 270.136 119.626C270.153 119.604 270.165 119.579 270.172 119.552C270.179 119.525 270.18 119.496 270.175 119.469C270.171 119.441 270.161 119.415 270.145 119.391V119.391Z" fill="#464A5F"/>
<path d="M267.907 121.008L266.868 119.524C266.844 119.492 266.809 119.47 266.769 119.463C266.729 119.456 266.689 119.465 266.655 119.488L265.135 120.51C265.102 120.534 265.079 120.569 265.072 120.609C265.064 120.648 265.073 120.689 265.095 120.723L266.048 122.187C266.069 122.221 266.104 122.245 266.143 122.253C266.182 122.262 266.223 122.255 266.257 122.234L267.864 121.237C267.883 121.227 267.9 121.211 267.913 121.193C267.926 121.175 267.935 121.155 267.939 121.133C267.943 121.111 267.942 121.089 267.937 121.067C267.931 121.046 267.921 121.026 267.907 121.008V121.008Z" fill="#464A5F"/>
<path d="M294.784 105.691L293.897 104.409C293.847 104.34 293.772 104.293 293.688 104.278C293.603 104.264 293.517 104.282 293.446 104.329L289.913 106.79C289.845 106.839 289.798 106.913 289.782 106.995C289.766 107.078 289.782 107.163 289.826 107.235L290.676 108.543C290.701 108.579 290.732 108.61 290.768 108.634C290.805 108.659 290.846 108.675 290.889 108.684C290.931 108.692 290.976 108.692 291.018 108.683C291.061 108.674 291.102 108.657 291.138 108.633L294.701 106.139C294.769 106.089 294.816 106.015 294.832 105.931C294.847 105.848 294.83 105.762 294.784 105.691Z" fill="#464A5F"/>
<path d="M271.832 121.785L270.73 120.228C270.718 120.211 270.704 120.197 270.687 120.186C270.67 120.175 270.651 120.168 270.631 120.164C270.611 120.161 270.591 120.162 270.571 120.166C270.552 120.171 270.533 120.18 270.517 120.191L266.725 122.848C266.693 122.871 266.67 122.905 266.663 122.944C266.655 122.984 266.663 123.024 266.685 123.057L267.725 124.658C267.736 124.675 267.75 124.69 267.767 124.701C267.784 124.713 267.803 124.721 267.823 124.725C267.843 124.729 267.864 124.729 267.884 124.725C267.904 124.721 267.924 124.713 267.94 124.701L271.796 122.001C271.829 121.977 271.851 121.941 271.858 121.901C271.865 121.86 271.856 121.819 271.832 121.785V121.785Z" fill="#464A5F"/>
<path d="M283.896 109.874L282.9 108.397C282.877 108.363 282.842 108.34 282.802 108.332C282.762 108.324 282.721 108.332 282.687 108.354L274.269 114.032C274.253 114.043 274.238 114.057 274.227 114.073C274.216 114.089 274.208 114.108 274.204 114.127C274.2 114.147 274.2 114.167 274.204 114.186C274.207 114.206 274.215 114.225 274.226 114.241L275.262 115.835C275.273 115.852 275.288 115.867 275.305 115.879C275.322 115.89 275.341 115.898 275.361 115.902C275.381 115.906 275.402 115.906 275.422 115.902C275.442 115.898 275.461 115.89 275.478 115.878L283.873 110.087C283.903 110.062 283.923 110.025 283.928 109.985C283.932 109.946 283.92 109.906 283.896 109.874V109.874Z" fill="#464A5F"/>
<path opacity="0.1" d="M283.936 104.801L279.459 98.2956C279.336 98.1149 279.145 97.9904 278.93 97.9493C278.715 97.9083 278.492 97.954 278.311 98.0765L265.981 106.355C265.89 106.416 265.813 106.495 265.752 106.586C265.692 106.678 265.65 106.78 265.63 106.888C265.609 106.996 265.61 107.106 265.632 107.214C265.654 107.321 265.697 107.423 265.759 107.514L270.321 114.204C270.383 114.295 270.461 114.373 270.553 114.433C270.645 114.494 270.747 114.535 270.855 114.556C270.963 114.576 271.073 114.575 271.181 114.552C271.288 114.53 271.39 114.486 271.48 114.424L283.723 105.953C283.813 105.891 283.89 105.813 283.949 105.721C284.008 105.63 284.049 105.528 284.069 105.421C284.088 105.314 284.087 105.204 284.064 105.097C284.041 104.991 283.998 104.89 283.936 104.801V104.801Z" fill="black"/>
<path d="M284.142 104.84L279.665 98.3355C279.541 98.1554 279.351 98.0315 279.136 97.9905C278.921 97.9495 278.698 97.9947 278.516 98.1163L266.204 106.401C266.112 106.462 266.034 106.54 265.973 106.632C265.912 106.723 265.87 106.826 265.849 106.933C265.828 107.041 265.829 107.152 265.851 107.26C265.873 107.367 265.916 107.469 265.978 107.56L270.527 114.244C270.589 114.335 270.667 114.413 270.759 114.473C270.851 114.534 270.953 114.575 271.061 114.596C271.169 114.616 271.279 114.615 271.387 114.592C271.494 114.569 271.596 114.526 271.686 114.464L283.936 105.993C284.025 105.931 284.101 105.852 284.16 105.76C284.218 105.669 284.258 105.566 284.278 105.459C284.297 105.352 284.295 105.243 284.271 105.136C284.248 105.03 284.204 104.93 284.142 104.84Z" fill="#939498"/>
<path d="M311.898 115.353L302.401 112.186L271.942 133.344L281.369 136.416C281.623 136.499 281.893 136.522 282.157 136.482C282.422 136.443 282.674 136.343 282.893 136.19L311.984 115.961C312.041 115.928 312.087 115.878 312.115 115.819C312.144 115.76 312.154 115.693 312.145 115.628C312.135 115.563 312.107 115.502 312.063 115.454C312.019 115.405 311.962 115.37 311.898 115.353V115.353Z" fill="#00A6FB"/>
</g>
<defs>
<clipPath id="clip0">
<rect width="360" height="251.889" fill="white"/>
</clipPath>
</defs>
</svg>
