<?xml version="1.0" standalone="no"?>
<!DOCTYPE svg PUBLIC "-//W3C//DTD SVG 20010904//EN"
 "http://www.w3.org/TR/2001/REC-SVG-20010904/DTD/svg10.dtd">
<svg version="1.0" xmlns="http://www.w3.org/2000/svg"
 width="513.000000pt" height="513.000000pt" viewBox="0 0 513.000000 513.000000"
 preserveAspectRatio="xMidYMid meet">
<metadata>
Created by potrace 1.14, written by Peter Selinger 2001-2017
</metadata>
<g transform="translate(0.000000,513.000000) scale(0.100000,-0.100000)"
fill="#000000" stroke="none">
<path d="M2429 4316 c-2 -2 -24 -7 -48 -10 -137 -19 -342 -104 -456 -190 -81
-62 -197 -177 -257 -256 -96 -125 -177 -325 -204 -500 -4 -25 -7 -175 -8 -335
l-1 -290 -75 -6 c-94 -8 -120 -18 -173 -72 -72 -72 -70 -44 -70 -897 l1 -759
22 -45 c27 -57 91 -113 144 -127 62 -17 2478 -15 2535 2 55 16 114 69 142 125
l22 47 0 757 c1 835 2 820 -62 887 -58 62 -85 75 -175 80 l-81 6 -1 276 c0
242 -7 391 -18 410 -2 3 -7 22 -10 41 -19 112 -109 308 -185 403 -178 222
-381 361 -616 423 -83 22 -127 27 -261 31 -88 2 -162 2 -165 -1z m281 -490
c30 -8 74 -21 97 -29 120 -44 265 -177 327 -300 63 -127 69 -168 70 -482 l1
-280 -635 0 -635 0 1 280 c1 233 4 292 19 350 56 221 231 396 455 456 79 21
224 23 300 5z"/>
</g>
</svg>
