<?xml version="1.0" standalone="no"?>
<!DOCTYPE svg PUBLIC "-//W3C//DTD SVG 20010904//EN"
 "http://www.w3.org/TR/2001/REC-SVG-20010904/DTD/svg10.dtd">
<svg version="1.0" xmlns="http://www.w3.org/2000/svg"
 width="512.000000pt" height="512.000000pt" viewBox="0 0 512.000000 512.000000"
 preserveAspectRatio="xMidYMid meet">
<metadata>
Created by potrace 1.14, written by Peter Selinger 2001-2017
</metadata>
<g transform="translate(0.000000,512.000000) scale(0.100000,-0.100000)"
fill="#000000" stroke="none">
<path d="M2340 4290 c-171 -35 -308 -96 -440 -197 -162 -123 -307 -306 -372
-468 -33 -83 -48 -125 -43 -125 3 0 2 -8 -4 -17 -5 -10 -12 -38 -16 -63 -4
-25 -9 -56 -11 -70 -3 -14 -6 -160 -7 -325 l-2 -300 -75 -6 c-88 -6 -138 -27
-181 -77 -66 -75 -63 -30 -63 -872 0 -619 2 -773 13 -805 19 -53 95 -127 147
-143 59 -17 2488 -18 2547 0 56 17 129 91 146 148 19 63 19 1529 1 1587 -18
54 -45 88 -96 124 -37 25 -58 31 -127 37 l-82 7 -1 290 c-1 340 -7 395 -60
554 -56 166 -219 391 -359 496 -22 17 -42 32 -45 36 -33 38 -225 136 -321 163
-166 48 -389 58 -549 26z m368 -473 c222 -55 412 -244 468 -467 14 -52 17
-122 18 -347 l2 -283 -636 0 -635 0 1 278 c1 152 4 293 8 312 42 221 209 415
419 484 40 13 81 26 92 29 26 6 233 1 263 -6z"/>
</g>
</svg>
