<svg width="360" height="277" viewBox="0 0 360 277" fill="none" xmlns="http://www.w3.org/2000/svg">
<g clip-path="url(#clip0)">
<path d="M115.837 42.958H115.103V82.2443H115.837V42.958Z" fill="#003554"/>
<path d="M115.837 93.9385H115.103V128.507H115.837V93.9385Z" fill="#003554"/>
<path d="M170.912 134.014H114.002V134.748H170.912V134.014Z" fill="#003554"/>
<path d="M90.5032 143.927H89.7689V175.136H90.5032V143.927Z" fill="#003554"/>
<path d="M182.661 180.644H96.3779V181.378H182.661V180.644Z" fill="#003554"/>
<path d="M254.625 17.991H253.89V55.0743H254.625V17.991Z" fill="#003554"/>
<path d="M248.383 60.9487H194.398V61.6831H248.383V60.9487Z" fill="#003554"/>
<path d="M188.903 66.8235H188.168V116.39H188.903V66.8235Z" fill="#003554"/>
<path d="M115.47 94.3604C114.236 94.3604 113.029 93.9944 112.003 93.3085C110.976 92.6227 110.176 91.6479 109.704 90.5073C109.231 89.3668 109.108 88.1118 109.348 86.901C109.589 85.6902 110.184 84.578 111.057 83.7051C111.93 82.8322 113.042 82.2377 114.253 81.9969C115.463 81.756 116.718 81.8797 117.859 82.3521C118.999 82.8245 119.974 83.6245 120.66 84.651C121.346 85.6774 121.712 86.8842 121.712 88.1187C121.71 89.7735 121.052 91.3601 119.882 92.5302C118.712 93.7004 117.125 94.3586 115.47 94.3604V94.3604ZM115.47 82.6113C114.381 82.6113 113.316 82.9343 112.411 83.5395C111.505 84.1446 110.799 85.0048 110.382 86.0111C109.965 87.0175 109.856 88.1248 110.069 89.1931C110.281 90.2615 110.806 91.2428 111.576 92.013C112.346 92.7833 113.327 93.3078 114.396 93.5203C115.464 93.7328 116.572 93.6237 117.578 93.2069C118.584 92.7901 119.444 92.0841 120.05 91.1785C120.655 90.2728 120.978 89.208 120.978 88.1187C120.976 86.6585 120.395 85.2587 119.363 84.2262C118.33 83.1937 116.93 82.6129 115.47 82.6113V82.6113Z" fill="#003554"/>
<path d="M90.5033 187.253C89.2688 187.253 88.062 186.886 87.0355 186.201C86.0091 185.515 85.2091 184.54 84.7366 183.399C84.2642 182.259 84.1406 181.004 84.3814 179.793C84.6223 178.582 85.2168 177.47 86.0897 176.597C86.9626 175.724 88.0748 175.13 89.2856 174.889C90.4963 174.648 91.7513 174.772 92.8919 175.244C94.0324 175.717 95.0072 176.517 95.6931 177.543C96.3789 178.57 96.745 179.776 96.745 181.011C96.7432 182.666 96.085 184.252 94.9148 185.422C93.7447 186.592 92.1581 187.251 90.5033 187.253V187.253ZM90.5033 175.503C89.414 175.503 88.3492 175.826 87.4435 176.432C86.5378 177.037 85.8319 177.897 85.4151 178.903C84.9982 179.91 84.8892 181.017 85.1017 182.085C85.3142 183.154 85.8387 184.135 86.6089 184.905C87.3791 185.675 88.3605 186.2 89.4288 186.412C90.4972 186.625 91.6045 186.516 92.6109 186.099C93.6172 185.682 94.4774 184.976 95.0825 184.071C95.6877 183.165 96.0107 182.1 96.0107 181.011C96.0091 179.551 95.4283 178.151 94.3958 177.118C93.3633 176.086 91.9634 175.505 90.5033 175.503V175.503Z" fill="#003554"/>
<path d="M115.837 140.256C119.082 140.256 121.712 137.626 121.712 134.381C121.712 131.137 119.082 128.507 115.837 128.507C112.593 128.507 109.963 131.137 109.963 134.381C109.963 137.626 112.593 140.256 115.837 140.256Z" fill="#00A6FB"/>
<path d="M328.424 87.7517H267.475V88.486H328.424V87.7517Z" fill="#003554"/>
<path d="M261.968 93.9385H261.234V128.507H261.968V93.9385Z" fill="#003554"/>
<path d="M255.359 134.014H206.526V134.748H255.359V134.014Z" fill="#003554"/>
<path d="M343.111 137.318H292.442V138.053H343.111V137.318Z" fill="#003554"/>
<path d="M287.302 143.927H286.568V175.136H287.302V143.927Z" fill="#003554"/>
<path d="M280.693 180.644H194.41V181.378H280.693V180.644Z" fill="#003554"/>
<path d="M188.903 152.372H188.168V175.136H188.903V152.372Z" fill="#003554"/>
<path d="M261.601 93.9933C264.845 93.9933 267.475 91.3632 267.475 88.1187C267.475 84.8743 264.845 82.2441 261.601 82.2441C258.356 82.2441 255.726 84.8743 255.726 88.1187C255.726 91.3632 258.356 93.9933 261.601 93.9933Z" fill="#00A6FB"/>
<path d="M254.257 67.1905C253.023 67.1905 251.816 66.8245 250.79 66.1386C249.763 65.4528 248.963 64.4779 248.491 63.3374C248.018 62.1969 247.895 60.9419 248.136 59.7311C248.377 58.5203 248.971 57.4081 249.844 56.5352C250.717 55.6623 251.829 55.0678 253.04 54.827C254.251 54.5861 255.506 54.7097 256.646 55.1822C257.787 55.6546 258.761 56.4546 259.447 57.4811C260.133 58.5075 260.499 59.7143 260.499 60.9488C260.497 62.6036 259.839 64.1902 258.669 65.3603C257.499 66.5305 255.912 67.1887 254.257 67.1905V67.1905ZM254.257 55.4414C253.168 55.4414 252.103 55.7644 251.198 56.3695C250.292 56.9747 249.586 57.8348 249.169 58.8412C248.752 59.8475 248.643 60.9549 248.856 62.0232C249.068 63.0916 249.593 64.0729 250.363 64.8431C251.133 65.6134 252.115 66.1379 253.183 66.3504C254.251 66.5629 255.359 66.4538 256.365 66.037C257.371 65.6201 258.232 64.9142 258.837 64.0086C259.442 63.1029 259.765 62.0381 259.765 60.9488C259.763 59.4886 259.183 58.0887 258.15 57.0562C257.118 56.0238 255.718 55.443 254.257 55.4414V55.4414Z" fill="#003554"/>
<path d="M188.535 67.1905C187.301 67.1905 186.094 66.8245 185.068 66.1386C184.041 65.4528 183.241 64.4779 182.769 63.3374C182.296 62.1969 182.173 60.9419 182.414 59.7311C182.654 58.5203 183.249 57.4081 184.122 56.5352C184.995 55.6623 186.107 55.0678 187.318 54.827C188.529 54.5861 189.784 54.7097 190.924 55.1822C192.065 55.6546 193.039 56.4546 193.725 57.4811C194.411 58.5075 194.777 59.7143 194.777 60.9488C194.775 62.6036 194.117 64.1902 192.947 65.3603C191.777 66.5305 190.19 67.1887 188.535 67.1905V67.1905ZM188.535 55.4414C187.446 55.4414 186.381 55.7644 185.476 56.3695C184.57 56.9747 183.864 57.8348 183.447 58.8412C183.03 59.8475 182.921 60.9549 183.134 62.0232C183.346 63.0916 183.871 64.0729 184.641 64.8431C185.411 65.6134 186.393 66.1379 187.461 66.3504C188.529 66.5629 189.637 66.4538 190.643 66.037C191.649 65.6201 192.51 64.9142 193.115 64.0086C193.72 63.1029 194.043 62.0381 194.043 60.9488C194.041 59.4886 193.461 58.0887 192.428 57.0562C191.396 56.0238 189.996 55.443 188.535 55.4414V55.4414Z" fill="#003554"/>
<path d="M286.568 144.295C285.333 144.295 284.126 143.928 283.1 143.243C282.074 142.557 281.274 141.582 280.801 140.441C280.329 139.301 280.205 138.046 280.446 136.835C280.687 135.624 281.281 134.512 282.154 133.639C283.027 132.766 284.139 132.172 285.35 131.931C286.561 131.69 287.816 131.814 288.956 132.286C290.097 132.759 291.072 133.559 291.758 134.585C292.443 135.612 292.809 136.818 292.809 138.053C292.808 139.708 292.149 141.294 290.979 142.464C289.809 143.635 288.223 144.293 286.568 144.295V144.295ZM286.568 132.545C285.478 132.545 284.414 132.868 283.508 133.474C282.602 134.079 281.896 134.939 281.48 135.945C281.063 136.952 280.954 138.059 281.166 139.127C281.379 140.196 281.903 141.177 282.673 141.947C283.444 142.717 284.425 143.242 285.493 143.454C286.562 143.667 287.669 143.558 288.675 143.141C289.682 142.724 290.542 142.018 291.147 141.113C291.752 140.207 292.075 139.142 292.075 138.053C292.074 136.593 291.493 135.193 290.46 134.16C289.428 133.128 288.028 132.547 286.568 132.545V132.545Z" fill="#003554"/>
<path d="M286.568 186.885C289.812 186.885 292.442 184.255 292.442 181.011C292.442 177.766 289.812 175.136 286.568 175.136C283.323 175.136 280.693 177.766 280.693 181.011C280.693 184.255 283.323 186.885 286.568 186.885Z" fill="#00A6FB"/>
<path d="M188.535 187.253C187.301 187.253 186.094 186.886 185.068 186.201C184.041 185.515 183.241 184.54 182.769 183.399C182.296 182.259 182.173 181.004 182.414 179.793C182.654 178.582 183.249 177.47 184.122 176.597C184.995 175.724 186.107 175.13 187.318 174.889C188.529 174.648 189.784 174.772 190.924 175.244C192.065 175.717 193.039 176.517 193.725 177.543C194.411 178.57 194.777 179.776 194.777 181.011C194.775 182.666 194.117 184.252 192.947 185.422C191.777 186.592 190.19 187.251 188.535 187.253V187.253ZM188.535 175.503C187.446 175.503 186.381 175.826 185.476 176.432C184.57 177.037 183.864 177.897 183.447 178.903C183.03 179.91 182.921 181.017 183.134 182.085C183.346 183.154 183.871 184.135 184.641 184.905C185.411 185.675 186.393 186.2 187.461 186.412C188.529 186.625 189.637 186.516 190.643 186.099C191.649 185.682 192.51 184.976 193.115 184.071C193.72 183.165 194.043 182.1 194.043 181.011C194.041 179.551 193.461 178.151 192.428 177.118C191.396 176.086 189.996 175.505 188.535 175.503V175.503Z" fill="#003554"/>
<path d="M261.234 140.623C259.999 140.623 258.792 140.257 257.766 139.571C256.739 138.885 255.939 137.91 255.467 136.77C254.994 135.629 254.871 134.374 255.112 133.163C255.353 131.953 255.947 130.84 256.82 129.968C257.693 129.095 258.805 128.5 260.016 128.259C261.227 128.019 262.482 128.142 263.622 128.615C264.763 129.087 265.738 129.887 266.423 130.913C267.109 131.94 267.475 133.147 267.475 134.381C267.473 136.036 266.815 137.623 265.645 138.793C264.475 139.963 262.888 140.621 261.234 140.623V140.623ZM261.234 128.874C260.144 128.874 259.079 129.197 258.174 129.802C257.268 130.407 256.562 131.267 256.145 132.274C255.729 133.28 255.619 134.387 255.832 135.456C256.044 136.524 256.569 137.505 257.339 138.276C258.109 139.046 259.091 139.57 260.159 139.783C261.227 139.995 262.335 139.886 263.341 139.469C264.348 139.053 265.208 138.347 265.813 137.441C266.418 136.535 266.741 135.47 266.741 134.381C266.739 132.921 266.159 131.521 265.126 130.489C264.094 129.456 262.694 128.875 261.234 128.874V128.874Z" fill="#003554"/>
<path d="M90.5031 125.569C89.0508 125.569 87.6311 126 86.4235 126.807C85.2159 127.614 84.2747 128.761 83.7189 130.102C83.1631 131.444 83.0177 132.921 83.301 134.345C83.5844 135.77 84.2837 137.078 85.3107 138.105C86.3377 139.132 87.6461 139.831 89.0706 140.115C90.495 140.398 91.9715 140.253 93.3133 139.697C94.6551 139.141 95.8019 138.2 96.6088 136.992C97.4157 135.785 97.8464 134.365 97.8464 132.913C97.8407 130.967 97.0652 129.102 95.6893 127.726C94.3134 126.351 92.4489 125.575 90.5031 125.569V125.569ZM90.5031 127.772C90.9389 127.772 91.3648 127.902 91.7271 128.144C92.0893 128.386 92.3717 128.73 92.5384 129.132C92.7052 129.535 92.7488 129.978 92.6638 130.405C92.5788 130.832 92.369 131.225 92.0609 131.533C91.7528 131.841 91.3603 132.051 90.9329 132.136C90.5056 132.221 90.0626 132.177 89.6601 132.011C89.2576 131.844 88.9135 131.561 88.6714 131.199C88.4294 130.837 88.3002 130.411 88.3002 129.975C88.3021 129.392 88.5348 128.832 88.9476 128.42C89.3603 128.007 89.9195 127.774 90.5031 127.772V127.772ZM90.5031 138.378C89.6329 138.374 88.7767 138.157 88.009 137.748C87.2412 137.338 86.585 136.747 86.0972 136.026C86.1325 134.558 89.0345 133.749 90.5031 133.749C91.9718 133.749 94.8738 134.558 94.9091 136.026C94.4208 136.747 93.7644 137.337 92.9968 137.747C92.2291 138.156 91.3733 138.373 90.5031 138.378V138.378Z" fill="#003554"/>
<path d="M115.837 25.3342C114.385 25.3342 112.965 25.7649 111.758 26.5718C110.55 27.3787 109.609 28.5255 109.053 29.8673C108.497 31.2091 108.352 32.6856 108.635 34.1101C108.919 35.5345 109.618 36.8429 110.645 37.8699C111.672 38.8969 112.98 39.5963 114.405 39.8796C115.829 40.1629 117.306 40.0175 118.647 39.4617C119.989 38.9059 121.136 37.9647 121.943 36.7571C122.75 35.5496 123.181 34.1298 123.181 32.6775C123.175 30.7317 122.399 28.8672 121.023 27.4913C119.648 26.1154 117.783 25.3399 115.837 25.3342V25.3342ZM115.837 27.5372C116.273 27.5372 116.699 27.6664 117.061 27.9085C117.424 28.1505 117.706 28.4946 117.873 28.8971C118.039 29.2997 118.083 29.7426 117.998 30.17C117.913 30.5973 117.703 30.9898 117.395 31.2979C117.087 31.606 116.694 31.8158 116.267 31.9008C115.84 31.9858 115.397 31.9422 114.994 31.7754C114.592 31.6087 114.248 31.3264 114.006 30.9641C113.764 30.6018 113.634 30.1759 113.634 29.7402C113.636 29.1565 113.869 28.5973 114.282 28.1846C114.694 27.7719 115.254 27.5391 115.837 27.5372V27.5372ZM115.837 38.1425C114.967 38.1386 114.111 37.9223 113.343 37.5126C112.575 37.1029 111.919 36.512 111.431 35.7913C111.467 34.3226 114.369 33.5142 115.837 33.5142C117.306 33.5142 120.208 34.3226 120.243 35.7913C119.755 36.5115 119.099 37.1019 118.331 37.5116C117.563 37.9212 116.707 38.1378 115.837 38.1425V38.1425Z" fill="#003554"/>
<path d="M254.257 0C252.805 0 251.385 0.430675 250.178 1.23756C248.97 2.04445 248.029 3.1913 247.473 4.5331C246.917 5.87491 246.772 7.35139 247.055 8.77583C247.339 10.2003 248.038 11.5087 249.065 12.5357C250.092 13.5627 251.4 14.262 252.825 14.5454C254.249 14.8287 255.726 14.6833 257.068 14.1275C258.409 13.5717 259.556 12.6305 260.363 11.4229C261.17 10.2153 261.601 8.79559 261.601 7.34324C261.595 5.39744 260.819 3.53297 259.444 2.15708C258.068 0.781185 256.203 0.00569556 254.257 0V0ZM254.257 2.20297C254.693 2.20297 255.119 2.33217 255.481 2.57424C255.844 2.81631 256.126 3.16036 256.293 3.5629C256.459 3.96544 256.503 4.40839 256.418 4.83572C256.333 5.26306 256.123 5.65559 255.815 5.96368C255.507 6.27177 255.114 6.48158 254.687 6.56658C254.26 6.65159 253.817 6.60796 253.414 6.44122C253.012 6.27449 252.668 5.99213 252.426 5.62985C252.184 5.26757 252.054 4.84165 252.054 4.40594C252.056 3.82228 252.289 3.26307 252.702 2.85036C253.114 2.43764 253.674 2.20492 254.257 2.20297V2.20297ZM254.257 12.8083C253.387 12.8043 252.531 12.5881 251.763 12.1784C250.995 11.7686 250.339 11.1778 249.851 10.4571C249.887 8.98841 252.789 8.17995 254.257 8.17995C255.726 8.17995 258.628 8.98841 258.663 10.4571C258.175 11.1772 257.519 11.7677 256.751 12.1774C255.983 12.587 255.127 12.8036 254.257 12.8083Z" fill="#003554"/>
<path d="M338.705 80.4084C337.252 80.4084 335.833 80.8391 334.625 81.646C333.417 82.4529 332.476 83.5998 331.92 84.9416C331.365 86.2834 331.219 87.7598 331.502 89.1843C331.786 90.6087 332.485 91.9172 333.512 92.9441C334.539 93.9711 335.848 94.6705 337.272 94.9538C338.696 95.2372 340.173 95.0917 341.515 94.5359C342.857 93.9802 344.003 93.039 344.81 91.8314C345.617 90.6238 346.048 89.204 346.048 87.7517C346.042 85.8059 345.267 83.9414 343.891 82.5655C342.515 81.1896 340.65 80.4141 338.705 80.4084ZM338.705 82.6114C339.14 82.6114 339.566 82.7406 339.929 82.9827C340.291 83.2247 340.573 83.5688 340.74 83.9713C340.907 84.3739 340.95 84.8168 340.865 85.2442C340.78 85.6715 340.57 86.064 340.262 86.3721C339.954 86.6802 339.562 86.89 339.134 86.975C338.707 87.06 338.264 87.0164 337.862 86.8497C337.459 86.6829 337.115 86.4006 336.873 86.0383C336.631 85.676 336.502 85.2501 336.502 84.8144C336.504 84.2307 336.736 83.6715 337.149 83.2588C337.562 82.8461 338.121 82.6134 338.705 82.6114ZM338.705 93.2167C337.834 93.2128 336.978 92.9965 336.21 92.5868C335.443 92.1771 334.786 91.5862 334.299 90.8655C334.334 89.3969 337.236 88.5884 338.705 88.5884C340.173 88.5884 343.075 89.3969 343.111 90.8655C342.622 91.5857 341.966 92.1761 341.198 92.5858C340.431 92.9955 339.575 93.212 338.705 93.2167V93.2167Z" fill="#003554"/>
<path d="M352.657 129.975C351.204 129.975 349.785 130.406 348.577 131.213C347.37 132.02 346.428 133.167 345.873 134.508C345.317 135.85 345.171 137.327 345.455 138.751C345.738 140.176 346.437 141.484 347.464 142.511C348.491 143.538 349.8 144.237 351.224 144.521C352.649 144.804 354.125 144.659 355.467 144.103C356.809 143.547 357.956 142.606 358.762 141.398C359.569 140.191 360 138.771 360 137.319C359.994 135.373 359.219 133.508 357.843 132.132C356.467 130.757 354.603 129.981 352.657 129.975V129.975ZM352.657 132.178C353.093 132.178 353.518 132.308 353.881 132.55C354.243 132.792 354.525 133.136 354.692 133.538C354.859 133.941 354.902 134.384 354.817 134.811C354.732 135.238 354.523 135.631 354.215 135.939C353.906 136.247 353.514 136.457 353.087 136.542C352.659 136.627 352.216 136.583 351.814 136.417C351.411 136.25 351.067 135.967 350.825 135.605C350.583 135.243 350.454 134.817 350.454 134.381C350.456 133.798 350.689 133.238 351.101 132.826C351.514 132.413 352.073 132.18 352.657 132.178V132.178ZM352.657 142.784C351.787 142.78 350.93 142.563 350.163 142.154C349.395 141.744 348.739 141.153 348.251 140.432C348.286 138.964 351.188 138.155 352.657 138.155C354.125 138.155 357.027 138.964 357.063 140.432C356.574 141.153 355.918 141.743 355.15 142.153C354.383 142.562 353.527 142.779 352.657 142.784V142.784Z" fill="#003554"/>
<path fill-rule="evenodd" clip-rule="evenodd" d="M189.075 148C196.677 148 202.84 141.837 202.84 134.235C202.84 126.633 196.677 120.47 189.075 120.47C181.473 120.47 175.31 126.633 175.31 134.235C175.31 141.837 181.473 148 189.075 148ZM182.381 133.317L180.89 131.817C185.423 127.265 192.768 127.265 197.294 131.817L195.802 133.317C192.097 129.59 186.087 129.59 182.381 133.317ZM189.092 140.067L186.855 137.817C188.093 136.572 190.098 136.572 191.329 137.817L189.092 140.067ZM185.364 136.317L183.872 134.817C186.758 131.922 191.433 131.922 194.311 134.817L192.82 136.317C190.762 134.247 187.422 134.247 185.364 136.317Z" fill="#00A6FB"/>
<path d="M55.8085 269.238C54.7638 278.738 -0.0830164 277.941 9.43591e-05 269.237C1.04481 259.737 55.8916 260.534 55.8085 269.238Z" fill="#E6E6E6"/>
<path d="M38.0945 245.321L40.318 250.139L44.3939 249.768L46.9879 241.245L42.9117 239.022L38.0945 245.321Z" fill="#FFB8B8"/>
<path d="M24.1012 256.416L24.0135 259.773L30.3129 260.143V256.067L24.1012 256.416Z" fill="#FFB8B8"/>
<path d="M26.2367 195.296L27.7189 224.941L24.0135 257.179L35.1301 258.661L42.1708 217.9L44.3939 190.108L26.2367 195.296Z" fill="#003554"/>
<path d="M8.82066 184.55C8.82066 184.55 4.37399 213.824 13.6379 223.459C22.9018 233.093 35.5007 250.139 35.5007 250.139L44.394 239.022L21.7901 214.936L26.2368 198.631L44.3941 190.109L41.4296 169.728L14.7496 169.357L8.82066 184.55Z" fill="#003554"/>
<path d="M30.6835 116.738C35.1858 116.738 38.8357 113.088 38.8357 108.586C38.8357 104.084 35.1858 100.434 30.6835 100.434C26.1811 100.434 22.5312 104.084 22.5312 108.586C22.5312 113.088 26.1811 116.738 30.6835 116.738Z" fill="#FFB8B8"/>
<path d="M23.6429 110.439C23.6429 110.439 23.2723 121.926 21.4196 123.408C19.5668 124.891 28.0896 131.19 28.0896 131.19L33.6479 122.297V114.145L23.6429 110.439Z" fill="#FFB8B8"/>
<path d="M27.3484 126.002L22.8496 119.209L20.3077 122.667L16.6023 133.043L19.5668 173.433L36.9828 173.804L39.2063 127.484L33.6478 120.815L27.3484 126.002Z" fill="#D0CDE1"/>
<path d="M46.2468 128.596L49.2113 128.226C49.2113 128.226 49.9524 128.596 50.323 131.19C50.6935 133.784 55.1402 156.758 55.1402 156.758L49.2113 184.921L42.5413 176.027L46.6174 160.464L42.5413 144.901L46.2468 128.596Z" fill="#003554"/>
<path d="M8.45024 128.225H6.22671L0.66861 158.24L5.85624 181.586L11.0439 173.063L9.56164 163.799L10.3029 155.647L12.8969 150.829L8.45024 128.225Z" fill="#003554"/>
<path d="M41.4296 248.656C41.4296 248.656 39.2063 247.915 39.2063 249.397C39.2063 250.88 40.6885 255.326 40.6885 255.326C40.6885 255.326 38.4652 269.037 41.8002 268.296C45.1352 267.555 47.7291 261.255 48.0996 259.402C48.4702 257.55 50.323 247.915 50.323 247.915C50.323 247.915 53.2874 240.875 51.4346 240.504C49.5818 240.134 44.3941 238.651 44.3941 238.651C44.3941 238.651 47.3585 247.915 41.4296 248.656Z" fill="#003554"/>
<path d="M30.6835 260.144C30.6835 260.144 24.7546 256.438 23.6429 259.402C22.9056 261.565 22.4086 263.801 22.1607 266.072C22.1607 266.072 20.6784 270.89 26.6074 270.149C32.5363 269.407 31.7951 269.407 32.1657 267.184C32.5362 264.961 30.6835 260.144 30.6835 260.144Z" fill="#003554"/>
<path d="M25.8662 108.586L27.3485 108.216C27.3485 108.216 28.4601 101.916 31.054 102.657C33.6479 103.398 40.3179 104.14 40.3179 101.175C40.3179 98.2106 34.0185 95.6167 30.3129 95.9873C26.6074 96.3579 20.3079 97.4695 20.6785 103.028C21.049 108.586 23.4401 113.993 23.4401 113.993L23.6333 110.698L25.8662 108.586Z" fill="#003554"/>
<path d="M33.6478 130.449L27.3484 126.002L33.6478 120.815L35.835 123.439L33.6478 130.449Z" fill="#D0CDE1"/>
<path d="M21.79 130.079L27.3484 126.002L22.9017 119.333L20.3077 122.667L21.79 130.079Z" fill="#D0CDE1"/>
<path d="M48.8407 128.226L36.9829 123.409L34.2038 121.37L25.8662 158.241L20.3079 141.566L21.9754 120.259L6.59733 128.226L11.7851 153.424L12.5263 163.058L10.3029 170.84C10.3029 170.84 2.52123 176.398 5.11512 182.327C7.70901 188.256 10.6735 188.626 10.6735 188.626C10.6735 188.626 23.2724 176.769 24.0135 173.804C24.7546 170.84 25.8663 165.652 25.8663 165.652C25.8663 165.652 32.1657 189.368 39.5768 188.997C46.9879 188.626 46.9879 180.845 46.9879 180.845L45.1352 172.692L42.1707 164.17L43.653 150.089L48.8407 128.226Z" fill="#003554"/>
</g>
<defs>
<clipPath id="clip0">
<rect width="360" height="276.067" fill="white"/>
</clipPath>
</defs>
</svg>
