<svg width="360" height="376" viewBox="0 0 360 376" fill="none" xmlns="http://www.w3.org/2000/svg">
<g clip-path="url(#clip0)">
<path d="M181.901 375.615C255.56 375.615 315.271 365.053 315.271 352.025C315.271 338.997 255.56 328.436 181.901 328.436C108.243 328.436 48.5307 338.997 48.5307 352.025C48.5307 365.053 108.243 375.615 181.901 375.615Z" fill="#003554"/>
<path d="M70.7515 129.834C70.7515 95.4681 121.143 67.6089 183.304 67.6089C245.465 67.6089 295.857 95.4681 295.857 129.834" stroke="#003554" stroke-width="2" stroke-miterlimit="10"/>
<path d="M218.694 91.5677H127.127C109.016 61.0451 109.016 30.5226 127.127 0H218.694C193.371 30.5226 193.371 61.0451 218.694 91.5677Z" fill="#F2F2F2"/>
<path d="M191.806 10.9009H140.208V17.4414H191.806V10.9009Z" fill="#00A6FB"/>
<path d="M191.806 32.3394H123.493V34.5195H191.806V32.3394Z" fill="white"/>
<path d="M191.806 43.6035H123.493V45.7837H191.806V43.6035Z" fill="white"/>
<path d="M191.806 54.8682H123.493V57.0483H191.806V54.8682Z" fill="white"/>
<path d="M255.253 294.258C255.253 323.299 273.471 346.798 295.986 346.798Z" fill="#003554"/>
<path d="M295.986 346.798C295.986 317.431 316.316 293.668 341.441 293.668Z" fill="#00A6FB"/>
<path d="M270.011 296.891C270.011 324.476 281.629 346.797 295.986 346.797Z" fill="#00A6FB"/>
<path d="M295.986 346.798C295.986 309.274 319.485 278.91 348.525 278.91Z" fill="#003554"/>
<path d="M287.417 347.168C287.417 347.168 293.193 346.99 294.934 345.75C296.675 344.511 303.82 343.03 304.252 345.018C304.684 347.007 312.933 354.907 306.411 354.959C299.889 355.012 291.258 353.943 289.52 352.885C287.782 351.827 287.417 347.168 287.417 347.168Z" fill="#A8A8A8"/>
<path opacity="0.2" d="M306.528 354.268C300.006 354.32 291.374 353.252 289.636 352.193C288.313 351.387 287.786 348.495 287.609 347.161C287.487 347.166 287.417 347.168 287.417 347.168C287.417 347.168 287.782 351.827 289.52 352.885C291.258 353.944 299.889 355.012 306.411 354.96C308.294 354.945 308.944 354.275 308.908 353.283C308.647 353.882 307.929 354.256 306.528 354.268Z" fill="black"/>
<path d="M162.326 71.5307C162.856 71.7739 163.494 71.4114 163.807 70.9189C164.997 69.0433 162.806 66.6249 163.28 64.4548C163.66 62.7162 165.636 61.6843 166.04 59.951C166.432 58.2669 165.223 56.3686 166.04 54.8448C166.681 53.6509 168.281 53.3368 169.619 53.5459C170.958 53.7551 172.228 54.3435 173.58 54.4259C175.382 54.5358 177.1 53.7426 178.862 53.3495C180.624 52.9565 182.773 53.1104 183.81 54.5884C185.141 56.4862 183.79 59.1289 184.254 61.4001C184.622 63.2035 186.132 64.6969 186.164 66.5372C186.176 67.1913 184.456 66.6644 184.547 67.3122C184.639 67.96 183.826 67.3896 184.476 67.3126C184.741 67.2477 184.979 67.1 185.155 66.8909C185.33 66.6818 185.435 66.4223 185.454 66.1497C185.531 65.6102 186.545 65.4303 186.533 64.8854C186.506 63.6083 188.815 64.4694 189.195 63.2499C190.069 60.407 189.89 57.3442 188.689 54.6229C188.172 53.4611 187.466 52.3616 187.217 51.1144C186.877 49.421 187.411 47.6032 186.852 45.9694C186.098 43.7675 183.603 42.6451 181.287 42.4171C178.971 42.1891 176.617 42.5972 174.314 42.2611C172.251 41.9599 170.254 41.0658 168.173 41.1954C165.676 41.3508 163.503 42.9596 161.772 44.7659C160.042 46.5722 158.573 48.6498 156.608 50.1972C156.006 50.6114 155.451 51.0894 154.952 51.6229C153.95 52.843 153.849 54.581 154.127 56.1345C154.406 57.688 155.012 59.1699 155.268 60.7273C155.508 62.1908 155.434 63.6861 155.538 65.1657C155.641 66.6452 155.948 68.1697 156.84 69.3553C157.196 69.8397 157.659 70.2362 158.192 70.5148C158.725 70.7933 159.315 70.9466 159.916 70.9628C160.333 70.9724 160.685 70.598 161.105 70.6956C161.631 70.8177 161.86 71.3168 162.326 71.5307Z" fill="#2F2E41"/>
<path d="M144.505 179.055L146.05 188.542L149.138 184.35L147.373 177.952L144.505 179.055Z" fill="#A0616A"/>
<path d="M146.491 107.354L144.059 113.763C144.059 113.763 141.637 146.404 141.637 148.831C141.637 151.257 143.402 182.364 144.064 183.688C144.064 183.688 146.932 179.496 150.683 180.158C154.433 180.82 152.889 169.127 152.889 169.127L156.419 140.227L155.757 125.666L146.491 107.354Z" fill="#00A6FB"/>
<path opacity="0.1" d="M146.491 107.354L144.059 113.763C144.059 113.763 141.637 146.404 141.637 148.831C141.637 151.257 143.402 182.364 144.064 183.688C144.064 183.688 146.932 179.496 150.683 180.158C154.433 180.82 152.889 169.127 152.889 169.127L156.419 140.227L155.757 125.666L146.491 107.354Z" fill="black"/>
<path d="M161.493 72.0558C161.493 72.0558 168.773 90.5877 164.582 94.1175C160.39 97.6474 187.967 88.1609 187.967 88.1609L187.305 85.7341C187.305 85.7341 178.26 82.2042 182.672 72.0558C187.085 61.9074 161.493 72.0558 161.493 72.0558Z" fill="#A0616A"/>
<path opacity="0.1" d="M161.493 72.0558C161.493 72.0558 168.773 90.5877 164.582 94.1175C160.39 97.6474 187.967 88.1609 187.967 88.1609L187.305 85.7341C187.305 85.7341 178.26 82.2042 182.672 72.0558C187.085 61.9074 161.493 72.0558 161.493 72.0558Z" fill="black"/>
<path d="M150.021 319.588C150.021 319.588 146.932 318.706 145.167 320.912C143.402 323.118 136.784 328.634 136.784 328.634C136.784 328.634 123.988 327.31 122.223 333.708C120.458 340.106 142.299 340.106 147.594 338.561C152.889 337.017 153.992 338.561 153.992 338.561C153.992 338.561 170.318 339.885 170.318 337.238C170.318 334.59 168.773 325.545 168.773 325.545L150.021 319.588Z" fill="#00A6FB"/>
<path d="M201.866 334.37L198.998 343.194C198.998 343.194 190.394 355.108 195.247 357.535C200.101 359.961 217.309 362.388 217.309 355.99V343.856C217.309 343.856 215.544 335.252 213.779 334.37C212.014 333.487 201.866 334.37 201.866 334.37Z" fill="#00A6FB"/>
<path d="M153.145 175.827C153.145 175.827 143.844 183.909 144.064 185.012C144.285 186.115 148.697 256.933 148.697 256.933L151.124 302.821C151.124 302.821 148.035 313.632 149.58 316.058C151.124 318.485 147.373 319.147 147.373 319.147C147.373 319.147 163.258 333.487 169.876 327.31L176.054 247.226L193.041 305.469C193.041 305.469 195.909 336.355 199.219 336.355C202.528 336.355 215.985 337.017 215.765 335.252C215.544 333.487 216.427 320.029 214.882 312.087C213.338 304.145 202.969 241.269 202.969 241.269C202.969 241.269 202.078 187.367 204.399 182.328C206.72 177.29 203.19 171.995 203.19 171.995L187.746 166.039L169.215 168.245L153.145 175.827Z" fill="#2F2E41"/>
<path d="M171.862 79.5568C180.391 79.5568 187.305 72.6427 187.305 64.1136C187.305 55.5846 180.391 48.6704 171.862 48.6704C163.333 48.6704 156.419 55.5846 156.419 64.1136C156.419 72.6427 163.333 79.5568 171.862 79.5568Z" fill="#A0616A"/>
<path d="M209.367 97.4265C208.604 95.268 207.318 93.3322 205.624 91.7922C203.93 90.2522 201.881 89.1561 199.66 88.6018C195.21 87.4824 190.857 86.0069 186.643 84.1895C186.643 84.1895 170.98 91.6904 167.891 91.6904C164.802 91.6904 164.802 89.7049 164.802 89.7049C164.802 89.7049 156.86 98.0883 152.668 98.9708C148.477 99.8533 142.299 110.222 144.505 115.958C146.004 119.636 148.173 123.002 150.903 125.886C150.903 125.886 150.021 156.773 152.889 162.509C152.889 162.509 145.829 175.966 152.448 176.849C159.066 177.731 184.437 174.643 188.85 177.731C193.262 180.82 201.425 177.069 202.528 181.261C203.631 185.453 206.058 186.335 206.058 186.335C206.058 186.335 209.808 180.379 207.602 176.849C205.396 173.319 209.367 97.4265 209.367 97.4265Z" fill="#00A6FB"/>
<path d="M193.041 180.379L189.511 182.585C189.511 182.585 193.262 195.601 194.806 196.043C196.351 196.484 199.986 184.913 199.986 184.913L193.041 180.379Z" fill="#A0616A"/>
<path d="M159.679 69.9863C160.209 70.2294 160.847 69.867 161.16 69.3744C162.35 67.4989 160.158 65.0805 160.633 62.9104C161.013 61.1718 162.989 60.1398 163.393 58.4066C163.785 56.7225 162.576 54.8242 163.393 53.3003C164.034 52.1065 165.633 51.7923 166.972 52.0015C168.31 52.2106 169.581 52.799 170.933 52.8815C172.735 52.9913 174.453 52.1981 176.215 51.8051C177.977 51.4121 180.126 51.566 181.162 53.044C182.493 54.9418 181.143 57.5844 181.607 59.8556C181.975 61.6591 186.167 62.925 186.547 61.7055C187.422 58.8626 187.242 55.7998 186.042 53.0784C185.524 51.9167 184.819 50.8171 184.569 49.5699C184.23 47.8766 184.764 46.0588 184.204 44.4249C183.45 42.2231 180.956 41.1007 178.639 40.8727C176.323 40.6447 173.97 41.0528 171.667 40.7166C169.604 40.4155 167.606 39.5214 165.525 39.6509C163.029 39.8064 160.856 41.4151 159.125 43.2215C157.394 45.0278 155.926 47.1054 153.96 48.6528C153.358 49.0669 152.803 49.5449 152.304 50.0785C151.303 51.2985 151.202 53.0366 151.48 54.5901C151.759 56.1436 152.365 57.6254 152.62 59.1828C152.861 60.6464 152.787 62.1417 152.89 63.6212C152.994 65.1008 153.301 66.6253 154.192 67.8109C154.549 68.2952 155.012 68.6918 155.545 68.9703C156.078 69.2489 156.668 69.4021 157.269 69.4184C157.686 69.428 158.038 69.0536 158.458 69.1512C158.984 69.2732 159.212 69.7724 159.679 69.9863Z" fill="#2F2E41"/>
<path opacity="0.1" d="M200.653 101.287L207.823 97.4263C207.823 97.4263 225.251 138.902 221.06 150.374C216.868 161.847 200.763 185.453 200.763 185.453C200.763 185.453 187.967 182.805 189.291 180.158C190.614 177.51 199.219 160.523 199.88 158.317C200.542 156.11 204.955 141.77 202.969 140.226C200.983 138.682 197.123 102.831 197.123 102.831L200.653 101.287Z" fill="black"/>
<path d="M200.542 94.9995L209.367 97.4263C209.367 97.4263 226.796 138.902 222.604 150.374C218.412 161.847 202.307 185.453 202.307 185.453C202.307 185.453 189.511 182.805 190.835 180.158C192.159 177.51 200.763 160.523 201.425 158.317C202.087 156.111 206.499 141.77 204.513 140.226C202.528 138.682 193.041 100.515 193.041 100.515L200.542 94.9995Z" fill="#00A6FB"/>
<path d="M295.857 129.834C295.857 165.865 245.465 195.073 183.304 195.073C121.143 195.073 70.7515 165.865 70.7515 129.834" stroke="#003554" stroke-width="2" stroke-miterlimit="10"/>
<path d="M275.384 195.999C250.226 209.568 217.399 217.779 181.489 217.779C147.059 217.779 115.463 210.231 90.7426 197.649" stroke="#003554" stroke-width="2" stroke-miterlimit="10"/>
<path d="M239.512 50.7651C287.391 63.3496 321.491 91.031 324.661 123.634" stroke="#003554" stroke-width="2" stroke-miterlimit="10"/>
<path d="M44.9845 102.443C53.0518 87.615 67.7895 74.5663 87.0988 64.5415" stroke="#003554" stroke-width="2" stroke-miterlimit="10"/>
<path d="M143.966 261.164H235.534C253.645 230.641 253.645 200.119 235.534 169.596H143.966C169.289 200.119 169.289 230.641 143.966 261.164Z" fill="#F2F2F2"/>
<path d="M225.862 187.038H174.264V193.578H225.862V187.038Z" fill="#00A6FB"/>
<path d="M238.58 206.659H170.267V208.839H238.58V206.659Z" fill="white"/>
<path d="M238.58 217.924H170.267V220.104H238.58V217.924Z" fill="white"/>
<path d="M105.151 199.012H13.5831C-4.52769 168.489 -4.52769 137.967 13.5831 107.444H105.151C79.8277 137.967 79.8277 168.489 105.151 199.012Z" fill="#F2F2F2"/>
<path d="M75.3549 118.345H23.7573V124.886H75.3549V118.345Z" fill="#00A6FB"/>
<path d="M80.8054 136.513H12.493V138.693H80.8054V136.513Z" fill="white"/>
<path d="M80.8054 147.778H12.493V149.958H80.8054V147.778Z" fill="white"/>
<path d="M80.8054 159.042H12.493V161.222H80.8054V159.042Z" fill="white"/>
<path d="M80.8054 170.306H12.493V172.486H80.8054V170.306Z" fill="white"/>
<path d="M254.849 156.832H346.417C364.528 126.31 364.528 95.7872 346.417 65.2646H254.849C280.172 95.7872 280.172 126.31 254.849 156.832Z" fill="#F2F2F2"/>
<path d="M335.655 74.3491H284.057V80.8897H335.655V74.3491Z" fill="#00A6FB"/>
<path d="M346.919 92.5176H278.607V94.6978H346.919V92.5176Z" fill="white"/>
</g>
<defs>
<clipPath id="clip0">
<rect width="360" height="375.614" fill="white"/>
</clipPath>
</defs>
</svg>
