<svg width="360" height="278" viewBox="0 0 360 278" fill="none" xmlns="http://www.w3.org/2000/svg">
<g clip-path="url(#clip0)">
<path d="M260.92 180.871L214.309 156.84C213.606 156.476 213.076 155.849 212.835 155.095C212.594 154.342 212.662 153.523 213.024 152.82L215.907 147.227C216.271 146.525 216.898 145.995 217.652 145.754C218.405 145.513 219.224 145.581 219.927 145.942L266.539 169.974C267.241 170.337 267.771 170.965 268.012 171.718C268.253 172.472 268.185 173.29 267.823 173.994L264.94 179.586C264.761 179.935 264.515 180.245 264.216 180.498C263.916 180.751 263.57 180.942 263.196 181.06C262.9 181.155 262.592 181.203 262.282 181.204C261.808 181.203 261.341 181.089 260.92 180.871V180.871Z" fill="#00A6FB"/>
<path d="M246.71 158.39C247.078 158.247 247.471 158.178 247.865 158.189C248.26 158.199 248.649 158.288 249.009 158.45L264.284 166.896C265.956 167.82 267.209 169.35 267.784 171.171C268.36 172.992 268.214 174.964 267.376 176.681L267.185 176.588L267.377 176.681C266.577 178.321 265.203 179.611 263.515 180.306C261.828 181 259.944 181.052 258.221 180.45L241.655 174.66C241.296 174.502 240.972 174.274 240.702 173.991C240.431 173.707 240.219 173.373 240.077 173.007C239.936 172.641 239.868 172.251 239.877 171.859C239.886 171.467 239.973 171.081 240.132 170.722L245.057 159.966C245.143 159.772 245.249 159.587 245.374 159.415C245.711 158.951 246.175 158.596 246.71 158.39V158.39Z" fill="#003554"/>
<path d="M281.856 155.81C294.456 155.81 304.671 145.595 304.671 132.994C304.671 120.394 294.456 110.179 281.856 110.179C269.255 110.179 259.04 120.394 259.04 132.994C259.04 145.595 269.255 155.81 281.856 155.81Z" fill="#00A6FB"/>
<path d="M279.056 274.889V222.448C279.057 221.656 279.372 220.898 279.931 220.338C280.491 219.779 281.249 219.464 282.04 219.463H288.332C289.123 219.464 289.882 219.779 290.441 220.338C291.001 220.898 291.316 221.656 291.316 222.448V274.889C291.316 275.68 291.001 276.439 290.441 276.998C289.882 277.558 289.123 277.873 288.332 277.873H282.04C281.249 277.873 280.491 277.558 279.931 276.998C279.372 276.439 279.057 275.68 279.056 274.889V274.889Z" fill="#00A6FB"/>
<path d="M265.414 274.889V222.448C265.415 221.656 265.73 220.898 266.289 220.338C266.849 219.779 267.607 219.464 268.398 219.463H274.69C275.482 219.464 276.24 219.779 276.8 220.338C277.359 220.898 277.674 221.656 277.675 222.448V274.889C277.674 275.68 277.359 276.439 276.8 276.998C276.24 277.558 275.482 277.873 274.69 277.873H268.398C267.607 277.873 266.849 277.558 266.289 276.998C265.73 276.439 265.415 275.68 265.414 274.889V274.889Z" fill="#00A6FB"/>
<path d="M282.335 141.451L282.359 140.598C280.773 140.554 279.374 140.455 278.323 139.687C278.026 139.457 277.781 139.166 277.606 138.832C277.43 138.499 277.329 138.132 277.308 137.757C277.29 137.527 277.325 137.296 277.41 137.082C277.495 136.868 277.628 136.677 277.8 136.523C278.497 135.934 279.62 136.124 280.438 136.499L281.143 136.823L279.79 126.937L278.946 127.052L280.096 135.462C278.985 135.135 277.955 135.276 277.249 135.872C276.978 136.108 276.766 136.404 276.628 136.736C276.491 137.068 276.432 137.428 276.456 137.787C276.481 138.292 276.616 138.785 276.852 139.232C277.088 139.679 277.418 140.07 277.821 140.376C279.171 141.362 280.925 141.411 282.335 141.451Z" fill="#003554"/>
<path d="M274.768 127.777H270.176V128.63H274.768V127.777Z" fill="#003554"/>
<path d="M289.263 127.777H284.671V128.63H289.263V127.777Z" fill="#003554"/>
<path d="M303.689 231.125L295.798 179.281C295.679 178.499 295.876 177.701 296.345 177.064C296.814 176.427 297.517 176.002 298.299 175.882L304.519 174.935C305.301 174.817 306.099 175.014 306.736 175.483C307.373 175.952 307.798 176.654 307.918 177.436L315.809 229.281C315.928 230.063 315.731 230.86 315.262 231.497C314.793 232.135 314.09 232.56 313.308 232.68L307.088 233.627C306.7 233.686 306.305 233.668 305.925 233.575C305.544 233.481 305.185 233.313 304.87 233.081C304.554 232.849 304.287 232.556 304.085 232.221C303.882 231.885 303.747 231.513 303.689 231.126V231.125Z" fill="#00A6FB"/>
<path d="M297.59 197.849C297.258 197.635 296.972 197.358 296.748 197.032C296.524 196.707 296.368 196.34 296.288 195.953L294.148 178.63C293.913 176.735 294.415 174.822 295.551 173.286C296.686 171.751 298.368 170.71 300.249 170.379L300.286 170.589L300.249 170.379C302.046 170.063 303.897 170.417 305.451 171.374C307.004 172.331 308.153 173.825 308.678 175.573L313.726 192.38C313.808 192.764 313.815 193.159 313.744 193.545C313.674 193.931 313.528 194.299 313.315 194.628C313.102 194.958 312.826 195.242 312.504 195.464C312.181 195.687 311.818 195.844 311.434 195.926L299.836 198.26C299.629 198.305 299.416 198.328 299.204 198.328C298.631 198.327 298.071 198.161 297.59 197.849V197.849Z" fill="#003554"/>
<path d="M298.203 235.322H237.231C236.612 235.322 236.004 235.164 235.464 234.863C234.924 234.561 234.471 234.126 234.146 233.6C233.822 233.074 233.637 232.473 233.611 231.855C233.584 231.237 233.716 230.623 233.993 230.071L263.472 171.448C265.52 167.375 268.883 164.112 273.016 162.187C277.149 160.261 281.81 159.787 286.246 160.839C290.682 161.892 294.633 164.41 297.461 167.987C300.288 171.563 301.826 175.989 301.826 180.549V231.699C301.825 232.659 301.443 233.58 300.764 234.26C300.084 234.939 299.163 235.321 298.203 235.322V235.322Z" fill="#003554"/>
<path d="M282.664 114.171C277.993 115.214 274.054 118.258 269.358 119.204C267.218 119.636 264.861 119.618 262.896 118.565C261.44 117.774 260.327 116.475 259.769 114.916C259.217 113.321 259.075 111.613 259.356 109.949C259.636 108.284 260.331 106.717 261.375 105.392C264.011 102.165 268.214 100.678 272.247 100.259C280.317 99.4198 288.606 102.079 295.175 106.712C301.957 111.495 307.16 118.677 308.905 126.851C309.838 131.22 309.746 135.869 308.153 140.076C306.621 144.102 303.605 147.389 299.725 149.261C298.8 149.708 297.834 150.067 296.841 150.335C296.683 150.384 296.55 150.494 296.471 150.639C296.391 150.785 296.372 150.956 296.416 151.116C296.46 151.276 296.564 151.412 296.707 151.497C296.85 151.581 297.02 151.607 297.181 151.568C301.544 150.377 305.307 147.605 307.74 143.793C310.238 139.796 311.076 134.903 310.692 130.253C309.947 121.259 305.001 112.991 298.086 107.332C291.443 101.894 282.85 98.5862 274.21 98.8491C269.877 98.9809 265.379 100.081 262.009 102.936C260.557 104.164 259.433 105.734 258.738 107.504C258.043 109.274 257.799 111.189 258.027 113.077C258.221 114.843 258.922 116.515 260.046 117.891C261.42 119.444 263.325 120.428 265.387 120.65C270.496 121.315 274.926 118.419 279.44 116.557C280.593 116.072 281.785 115.686 283.004 115.404C283.807 115.225 283.467 113.992 282.664 114.171V114.171Z" fill="#003554"/>
<path d="M295.497 105.132C293.662 98.2655 298.449 91.1188 304.954 88.9744C308.686 87.8122 312.69 87.8569 316.396 89.1021C320.008 90.3244 323.253 92.4424 325.825 95.2582C331.527 101.324 334.052 109.511 335.234 117.582C336.454 125.916 335.766 135.044 340.03 142.617C341.798 145.757 344.423 148.506 347.813 149.858C350.977 151.12 354.766 151.126 357.797 149.486C358.526 149.087 359.201 148.594 359.803 148.021C360.403 147.455 359.497 146.552 358.899 147.117C356.361 149.511 352.578 149.963 349.317 149.023C345.759 147.998 343.021 145.264 341.216 142.116C339.129 138.475 338.261 134.313 337.787 130.184C337.269 125.676 337.07 121.144 336.379 116.655C335.133 108.558 332.441 100.43 326.729 94.3538C324.117 91.5161 320.86 89.349 317.233 88.0357C313.5 86.6988 309.454 86.4946 305.605 87.4485C302.106 88.3548 299.022 90.4289 296.863 93.3273C294.764 96.0783 293.697 99.478 293.848 102.935C293.902 103.792 294.041 104.642 294.263 105.472C294.313 105.63 294.422 105.763 294.568 105.843C294.713 105.922 294.884 105.942 295.044 105.898C295.204 105.854 295.341 105.749 295.425 105.606C295.509 105.464 295.535 105.294 295.497 105.132L295.497 105.132Z" fill="#003554"/>
<path d="M44.4468 163.276H7.24724C5.32581 163.274 3.48371 162.51 2.12506 161.151C0.766403 159.792 0.00216303 157.95 0 156.029V7.24724C0.00216303 5.32582 0.766403 3.48371 2.12506 2.12506C3.48371 0.766406 5.32581 0.00216303 7.24724 0H108.146L126.614 16.4888V46.4676H125.761V16.8706L107.821 0.852616H7.24724C5.55187 0.854534 3.92648 1.52887 2.72767 2.72768C1.52886 3.92648 0.854534 5.55187 0.852616 7.24724V156.029C0.854534 157.724 1.52886 159.35 2.72767 160.548C3.92648 161.747 5.55187 162.421 7.24724 162.423H44.4468V163.276Z" fill="#CCCCCC"/>
<path d="M126.187 17.0523H114.677C112.755 17.0502 110.913 16.2859 109.555 14.9273C108.196 13.5686 107.432 11.7265 107.43 9.80509V0.426308C107.43 0.313244 107.475 0.204811 107.554 0.124862C107.634 0.0449142 107.743 0 107.856 0C107.969 0 108.077 0.0449142 108.157 0.124862C108.237 0.204811 108.282 0.313244 108.282 0.426308V9.80509C108.284 11.5005 108.958 13.1258 110.157 14.3246C111.356 15.5235 112.981 16.1978 114.677 16.1997H126.187C126.3 16.1997 126.409 16.2446 126.489 16.3246C126.569 16.4045 126.613 16.513 126.613 16.626C126.613 16.7391 126.569 16.8475 126.489 16.9275C126.409 17.0074 126.3 17.0523 126.187 17.0523Z" fill="#CCCCCC"/>
<path d="M111.923 38.5811H14.7247C13.8202 38.5811 12.9527 38.9404 12.3131 39.58C11.6736 40.2195 11.3142 41.087 11.3142 41.9915C11.3142 42.896 11.6736 43.7635 12.3131 44.4031C12.9527 45.0427 13.8202 45.402 14.7247 45.402H111.923C112.827 45.402 113.695 45.0427 114.335 44.4031C114.974 43.7635 115.333 42.896 115.333 41.9915C115.333 41.087 114.974 40.2195 114.335 39.58C113.695 38.9404 112.827 38.5811 111.923 38.5811Z" fill="#E6E6E6"/>
<path d="M62.8975 24.0864H14.7247C13.8202 24.0864 12.9527 24.4457 12.3131 25.0853C11.6736 25.7249 11.3142 26.5924 11.3142 27.4969C11.3142 28.4014 11.6736 29.2689 12.3131 29.9084C12.9527 30.548 13.8202 30.9074 14.7247 30.9074H62.8975C63.802 30.9074 64.6695 30.548 65.3091 29.9084C65.9487 29.2689 66.308 28.4014 66.308 27.4969C66.308 26.5924 65.9487 25.7249 65.3091 25.0853C64.6695 24.4457 63.802 24.0864 62.8975 24.0864Z" fill="#E6E6E6"/>
<path d="M14.7247 67.1436C13.8202 67.1436 12.9527 67.5029 12.3131 68.1425C11.6736 68.7821 11.3142 69.6495 11.3142 70.554C11.3142 71.4585 11.6736 72.326 12.3131 72.9656C12.9527 73.6052 13.8202 73.9645 14.7247 73.9645H45.1887V67.1436H14.7247Z" fill="#E6E6E6"/>
<path d="M14.7247 52.6489C14.2768 52.6489 13.8334 52.7371 13.4196 52.9085C13.0058 53.0799 12.6298 53.3311 12.3131 53.6478C11.9964 53.9645 11.7452 54.3405 11.5738 54.7543C11.4025 55.168 11.3142 55.6115 11.3142 56.0594C11.3142 56.5073 11.4025 56.9507 11.5738 57.3645C11.7452 57.7783 11.9964 58.1543 12.3131 58.4709C12.6298 58.7876 13.0058 59.0389 13.4196 59.2102C13.8334 59.3816 14.2768 59.4698 14.7247 59.4698H45.1887V52.6489H14.7247Z" fill="#E6E6E6"/>
<path d="M45.4018 139.403H18.101C16.2361 139.401 14.4482 138.659 13.1295 137.34C11.8108 136.022 11.0691 134.234 11.067 132.369V96.559C11.0691 94.6941 11.8108 92.9062 13.1295 91.5875C14.4482 90.2688 16.2361 89.527 18.101 89.5249H45.4018V139.403Z" fill="#E6E6E6"/>
<path d="M89.4223 209.104H52.2227C50.3013 209.102 48.4592 208.338 47.1005 206.979C45.7419 205.62 44.9777 203.778 44.9755 201.857V53.0754C44.9777 51.1539 45.7419 49.3118 47.1005 47.9532C48.4592 46.5945 50.3013 45.8303 52.2227 45.8281H153.122L171.589 62.317V90.5905H170.736V62.6987L152.796 46.6807H52.2227C50.5274 46.6827 48.902 47.357 47.7032 48.5558C46.5044 49.7546 45.83 51.38 45.8281 53.0754V201.857C45.83 203.552 46.5044 205.178 47.7032 206.376C48.902 207.575 50.5274 208.25 52.2227 208.252H89.4223V209.104Z" fill="#CCCCCC"/>
<path d="M171.163 62.8804H159.652C157.731 62.8783 155.889 62.1141 154.53 60.7554C153.172 59.3967 152.407 57.5546 152.405 55.6332V46.2544C152.405 46.1414 152.45 46.0329 152.53 45.953C152.61 45.873 152.718 45.8281 152.831 45.8281C152.945 45.8281 153.053 45.873 153.133 45.953C153.213 46.0329 153.258 46.1414 153.258 46.2544V55.6332C153.26 57.3286 153.934 58.954 155.133 60.1528C156.332 61.3516 157.957 62.0259 159.652 62.0278H171.163C171.276 62.0278 171.384 62.0728 171.464 62.1527C171.544 62.2326 171.589 62.3411 171.589 62.4541C171.589 62.5672 171.544 62.6756 171.464 62.7556C171.384 62.8355 171.276 62.8804 171.163 62.8804Z" fill="#CCCCCC"/>
<path d="M156.898 84.4092H59.7002C58.7957 84.4092 57.9282 84.7685 57.2886 85.4081C56.649 86.0477 56.2897 86.9151 56.2897 87.8196C56.2897 88.7242 56.649 89.5916 57.2886 90.2312C57.9282 90.8708 58.7957 91.2301 59.7002 91.2301H156.898C157.803 91.2301 158.67 90.8708 159.31 90.2312C159.95 89.5916 160.309 88.7242 160.309 87.8196C160.309 86.9151 159.95 86.0477 159.31 85.4081C158.67 84.7685 157.803 84.4092 156.898 84.4092Z" fill="#E6E6E6"/>
<path d="M107.873 69.9146H59.7002C58.7957 69.9146 57.9282 70.2739 57.2886 70.9135C56.649 71.553 56.2897 72.4205 56.2897 73.325C56.2897 74.2295 56.649 75.097 57.2886 75.7366C57.9282 76.3762 58.7957 76.7355 59.7002 76.7355H107.873C108.778 76.7355 109.645 76.3762 110.285 75.7366C110.924 75.097 111.283 74.2295 111.283 73.325C111.283 72.4205 110.924 71.553 110.285 70.9135C109.645 70.2739 108.778 69.9146 107.873 69.9146Z" fill="#E6E6E6"/>
<path d="M156.898 84.4092H59.7002C58.7957 84.4092 57.9282 84.7685 57.2886 85.4081C56.649 86.0477 56.2897 86.9151 56.2897 87.8196C56.2897 88.7242 56.649 89.5916 57.2886 90.2312C57.9282 90.8708 58.7957 91.2301 59.7002 91.2301H156.898C157.803 91.2301 158.67 90.8708 159.31 90.2312C159.95 89.5916 160.309 88.7242 160.309 87.8196C160.309 86.9151 159.95 86.0477 159.31 85.4081C158.67 84.7685 157.803 84.4092 156.898 84.4092Z" fill="#E6E6E6"/>
<path d="M107.873 69.9146H59.7002C58.7957 69.9146 57.9282 70.2739 57.2886 70.9135C56.649 71.553 56.2897 72.4205 56.2897 73.325C56.2897 74.2295 56.649 75.097 57.2886 75.7366C57.9282 76.3762 58.7957 76.7355 59.7002 76.7355H107.873C108.778 76.7355 109.645 76.3762 110.285 75.7366C110.924 75.097 111.283 74.2295 111.283 73.325C111.283 72.4205 110.924 71.553 110.285 70.9135C109.645 70.2739 108.778 69.9146 107.873 69.9146Z" fill="#E6E6E6"/>
<path d="M59.7002 112.972C58.7957 112.972 57.9282 113.331 57.2886 113.971C56.649 114.61 56.2897 115.478 56.2897 116.382C56.2897 117.287 56.649 118.154 57.2886 118.794C57.9282 119.433 58.7957 119.793 59.7002 119.793H90.1642V112.972H59.7002Z" fill="#E6E6E6"/>
<path d="M59.7002 98.4771C58.7957 98.4771 57.9282 98.8364 57.2886 99.476C56.649 100.116 56.2897 100.983 56.2897 101.888C56.2897 102.792 56.649 103.66 57.2886 104.299C57.9282 104.939 58.7957 105.298 59.7002 105.298H90.1642V98.4771H59.7002Z" fill="#E6E6E6"/>
<path d="M59.7002 112.972C58.7957 112.972 57.9282 113.331 57.2886 113.971C56.649 114.61 56.2897 115.478 56.2897 116.382C56.2897 117.287 56.649 118.154 57.2886 118.794C57.9282 119.433 58.7957 119.793 59.7002 119.793H90.1642V112.972H59.7002Z" fill="#E6E6E6"/>
<path d="M59.7002 98.4771C58.7957 98.4771 57.9282 98.8364 57.2886 99.476C56.649 100.116 56.2897 100.983 56.2897 101.888C56.2897 102.792 56.649 103.66 57.2886 104.299C57.9282 104.939 58.7957 105.298 59.7002 105.298H90.1642V98.4771H59.7002Z" fill="#E6E6E6"/>
<path d="M90.3773 185.231H63.0765C61.2116 185.229 59.4237 184.487 58.105 183.169C56.7863 181.85 56.0446 180.062 56.0424 178.197V142.387C56.0446 140.522 56.7863 138.734 58.105 137.416C59.4237 136.097 61.2116 135.355 63.0765 135.353H90.3773V185.231Z" fill="#E6E6E6"/>
<path d="M92.7817 92.0824C91.7222 92.7291 90.8466 93.6372 90.2389 94.7197C89.6313 95.8021 89.3119 97.0225 89.3115 98.2638V99.3296H90.1642V98.2638C90.1659 96.854 90.6326 95.4842 91.492 94.3666C92.3514 93.249 93.5554 92.4461 94.9174 92.0824H92.7817ZM197.457 91.0166H96.5588C94.6374 91.0188 92.7953 91.7831 91.4367 93.1418C90.078 94.5004 89.3138 96.3424 89.3115 98.2638V247.045C89.3143 248.967 90.0787 250.808 91.4372 252.167C92.7957 253.525 94.6375 254.29 96.5588 254.293H208.678C210.599 254.29 212.441 253.525 213.799 252.167C215.158 250.808 215.922 248.967 215.925 247.045V107.506L197.457 91.0166ZM215.072 247.045C215.07 248.741 214.396 250.366 213.197 251.565C211.998 252.764 210.373 253.438 208.678 253.44H96.5588C94.8634 253.438 93.2381 252.764 92.0394 251.565C90.8406 250.366 90.1662 248.741 90.1641 247.045V98.2638C90.1659 96.854 90.6326 95.4842 91.492 94.3666C92.3513 93.249 93.5554 92.4461 94.9174 92.0824C95.4528 91.9397 96.0047 91.8681 96.5588 91.8692H197.133L215.072 107.886V247.045ZM92.7817 92.0824C91.7222 92.7291 90.8466 93.6372 90.2389 94.7197C89.6313 95.8021 89.3119 97.0225 89.3115 98.2638V99.3296H90.1641V98.2638C90.1659 96.854 90.6326 95.4842 91.492 94.3666C92.3513 93.249 93.5554 92.4461 94.9174 92.0824H92.7817Z" fill="#003554"/>
<path d="M215.499 108.069H203.988C202.067 108.067 200.225 107.303 198.866 105.944C197.508 104.585 196.743 102.743 196.741 100.822V91.4429C196.741 91.3298 196.786 91.2214 196.866 91.1415C196.946 91.0615 197.054 91.0166 197.167 91.0166C197.281 91.0166 197.389 91.0615 197.469 91.1415C197.549 91.2214 197.594 91.3298 197.594 91.4429V100.822C197.596 102.517 198.27 104.142 199.469 105.341C200.668 106.54 202.293 107.214 203.988 107.216H215.499C215.612 107.216 215.72 107.261 215.8 107.341C215.88 107.421 215.925 107.53 215.925 107.643C215.925 107.756 215.88 107.864 215.8 107.944C215.72 108.024 215.612 108.069 215.499 108.069Z" fill="#003554"/>
<path d="M201.235 136.419H104.037C103.132 136.419 102.265 136.059 101.625 135.42C100.986 134.78 100.626 133.913 100.626 133.008C100.626 132.104 100.986 131.236 101.625 130.597C102.265 129.957 103.132 129.598 104.037 129.598H201.235C202.14 129.598 203.007 129.957 203.647 130.597C204.286 131.236 204.646 132.104 204.646 133.008C204.646 133.913 204.286 134.78 203.647 135.42C203.007 136.059 202.14 136.419 201.235 136.419Z" fill="#CCCCCC"/>
<path d="M152.21 121.924H104.037C103.132 121.924 102.265 121.565 101.625 120.925C100.986 120.285 100.626 119.418 100.626 118.513C100.626 117.609 100.986 116.742 101.625 116.102C102.265 115.462 103.132 115.103 104.037 115.103H152.21C153.114 115.103 153.982 115.462 154.621 116.102C155.261 116.742 155.62 117.609 155.62 118.513C155.62 119.418 155.261 120.285 154.621 120.925C153.982 121.565 153.114 121.924 152.21 121.924Z" fill="#CCCCCC"/>
<path d="M201.235 164.981H104.037C103.132 164.981 102.265 164.622 101.625 163.982C100.986 163.343 100.626 162.475 100.626 161.571C100.626 160.666 100.986 159.799 101.625 159.159C102.265 158.519 103.132 158.16 104.037 158.16H201.235C202.14 158.16 203.007 158.519 203.647 159.159C204.286 159.799 204.646 160.666 204.646 161.571C204.646 162.475 204.286 163.343 203.647 163.982C203.007 164.622 202.14 164.981 201.235 164.981Z" fill="#CCCCCC"/>
<path d="M152.21 150.487H104.037C103.132 150.487 102.265 150.128 101.625 149.488C100.986 148.848 100.626 147.981 100.626 147.076C100.626 146.172 100.986 145.305 101.625 144.665C102.265 144.025 103.132 143.666 104.037 143.666H152.21C153.114 143.666 153.982 144.025 154.621 144.665C155.261 145.305 155.62 146.172 155.62 147.076C155.62 147.981 155.261 148.848 154.621 149.488C153.982 150.128 153.114 150.487 152.21 150.487Z" fill="#CCCCCC"/>
<path d="M197.789 230.42H107.412C105.547 230.417 103.759 229.676 102.441 228.357C101.122 227.038 100.38 225.25 100.378 223.385V187.576C100.38 185.711 101.122 183.923 102.441 182.604C103.759 181.285 105.547 180.544 107.412 180.542H197.789C199.654 180.544 201.442 181.285 202.761 182.604C204.08 183.923 204.821 185.711 204.823 187.576V223.385C204.821 225.25 204.08 227.038 202.761 228.357C201.442 229.676 199.654 230.417 197.789 230.42Z" fill="#00A6FB"/>
</g>
<defs>
<clipPath id="clip0">
<rect width="360" height="277.873" fill="white"/>
</clipPath>
</defs>
</svg>
