<svg width="360" height="236" viewBox="0 0 360 236" fill="none" xmlns="http://www.w3.org/2000/svg">
<g clip-path="url(#clip0)">
<path d="M350.254 235.266L350.787 235.256C350.581 229.32 349.948 223.407 348.892 217.562C346.584 205.048 342.745 196.829 337.483 193.134L337.176 193.571C349.469 202.202 350.247 234.936 350.254 235.266Z" fill="#F1F1F1"/>
<path d="M343.58 235.138L344.114 235.128C344.103 234.537 343.769 220.603 338.284 216.752L337.977 217.189C343.241 220.885 343.578 234.996 343.58 235.138Z" fill="#F1F1F1"/>
<path d="M334.139 193.619C335.613 193.619 336.808 192.424 336.808 190.95C336.808 189.476 335.613 188.281 334.139 188.281C332.665 188.281 331.47 189.476 331.47 190.95C331.47 192.424 332.665 193.619 334.139 193.619Z" fill="#F1F1F1"/>
<path d="M335.461 216.575C336.935 216.575 338.13 215.38 338.13 213.906C338.13 212.432 336.935 211.237 335.461 211.237C333.987 211.237 332.792 212.432 332.792 213.906C332.792 215.38 333.987 216.575 335.461 216.575Z" fill="#F1F1F1"/>
<path d="M344.824 195.219C344.557 197.279 344.835 199.372 345.63 201.29C347.02 199.737 347.931 197.815 348.253 195.756C348.575 193.697 348.295 191.589 347.447 189.686C346.103 191.269 345.199 193.177 344.824 195.219Z" fill="#F1F1F1"/>
<path d="M336.099 203.002C338.08 203.624 340.19 203.715 342.217 203.266C340.93 201.627 339.196 200.395 337.225 199.719C335.254 199.043 333.129 198.951 331.107 199.455C332.432 201.054 334.153 202.277 336.099 203.002V203.002Z" fill="#F1F1F1"/>
<path d="M336.001 223.332C337.389 223.768 338.868 223.831 340.289 223.517C339.387 222.368 338.171 221.505 336.79 221.031C335.408 220.557 333.919 220.493 332.502 220.846C333.43 221.966 334.637 222.824 336.001 223.332V223.332Z" fill="#F1F1F1"/>
<path d="M122.917 235.266L122.142 235.251C122.442 226.635 123.361 218.052 124.893 209.568C128.243 191.405 133.815 179.476 141.453 174.113L141.898 174.747C124.056 187.274 122.926 234.787 122.917 235.266Z" fill="#F1F1F1"/>
<path d="M132.603 235.08L131.828 235.065C131.845 234.207 132.329 213.983 140.291 208.393L140.736 209.027C133.095 214.392 132.607 234.874 132.603 235.08Z" fill="#F1F1F1"/>
<path d="M146.306 174.818C148.446 174.818 150.181 173.083 150.181 170.943C150.181 168.803 148.446 167.069 146.306 167.069C144.167 167.069 142.432 168.803 142.432 170.943C142.432 173.083 144.167 174.818 146.306 174.818Z" fill="#F1F1F1"/>
<path d="M144.388 208.138C146.528 208.138 148.262 206.403 148.262 204.263C148.262 202.123 146.528 200.389 144.388 200.389C142.248 200.389 140.513 202.123 140.513 204.263C140.513 206.403 142.248 208.138 144.388 208.138Z" fill="#F1F1F1"/>
<path d="M130.797 177.14C131.185 180.129 130.782 183.167 129.627 185.951C127.611 183.697 126.289 180.907 125.821 177.919C125.353 174.931 125.759 171.871 126.99 169.108C128.941 171.406 130.253 174.176 130.797 177.14V177.14Z" fill="#F1F1F1"/>
<path d="M143.461 188.435C140.586 189.339 137.524 189.471 134.582 188.819C136.45 186.44 138.966 184.653 141.827 183.671C144.688 182.69 147.772 182.557 150.707 183.288C148.784 185.609 146.286 187.384 143.461 188.435Z" fill="#F1F1F1"/>
<path d="M143.604 217.944C141.589 218.577 139.443 218.67 137.38 218.213C138.69 216.545 140.454 215.292 142.459 214.604C144.464 213.917 146.626 213.823 148.683 214.336C147.335 215.962 145.584 217.207 143.604 217.944Z" fill="#F1F1F1"/>
<path d="M63.0562 70.2716L61.1919 58.8665L55.9281 57.5506C55.9281 57.5506 51.7504 56.2638 50.7739 64.6787C49.7975 73.0937 50.5545 88.8048 50.5545 88.8048L38.9975 125.402C38.1101 125.824 37.363 126.492 36.8457 127.328C36.3284 128.163 36.0629 129.13 36.0807 130.112C36.0986 131.095 36.3992 132.051 36.9466 132.867C37.494 133.683 38.2649 134.324 39.1671 134.713C40.0693 135.102 41.0645 135.223 42.0336 135.061C43.0027 134.899 43.9046 134.462 44.6314 133.8C45.3582 133.139 45.879 132.283 46.1316 131.333C46.3841 130.384 46.3577 129.381 46.0554 128.446L61.0823 94.0687L63.0562 70.2716Z" fill="#FFB7B7"/>
<path d="M95.0654 61.2965L92.3019 50.0753L96.6263 46.7983C96.6263 46.7983 99.9632 43.9745 104.165 51.3302C108.367 58.686 113.84 73.4327 113.84 73.4327L138.838 102.553C139.82 102.593 140.77 102.914 141.573 103.479C142.377 104.045 143.001 104.829 143.37 105.74C143.739 106.65 143.839 107.648 143.655 108.613C143.472 109.579 143.015 110.471 142.338 111.183C141.661 111.895 140.793 112.397 139.839 112.629C138.884 112.86 137.882 112.812 136.954 112.489C136.026 112.166 135.211 111.583 134.606 110.809C134.001 110.035 133.632 109.103 133.543 108.124L106.224 82.4075L95.0654 61.2965Z" fill="#FFB7B7"/>
<path d="M116.668 229.29L122.937 229.289L125.919 205.11L116.667 205.11L116.668 229.29Z" fill="#FFB7B7"/>
<path d="M115.069 227.243L127.415 227.243H127.415C129.502 227.243 131.503 228.072 132.978 229.547C134.453 231.022 135.282 233.023 135.283 235.11V235.366L115.07 235.366L115.069 227.243Z" fill="#003554"/>
<path d="M37.9246 229.29L44.1933 229.289L47.1757 205.11L37.9233 205.11L37.9246 229.29Z" fill="#FFB7B7"/>
<path d="M36.3256 227.243L48.6709 227.243H48.6714C50.758 227.243 52.759 228.072 54.2344 229.547C55.7098 231.022 56.5387 233.023 56.5389 235.11V235.366L36.3259 235.366L36.3256 227.243Z" fill="#003554"/>
<path d="M76.3714 39.806C85.7353 39.806 93.3262 32.2151 93.3262 22.8512C93.3262 13.4874 85.7353 5.89648 76.3714 5.89648C67.0076 5.89648 59.4167 13.4874 59.4167 22.8512C59.4167 32.2151 67.0076 39.806 76.3714 39.806Z" fill="#003554"/>
<path d="M63.1374 13.7099C65.8772 10.9701 66.4325 7.08324 64.3776 5.02838C62.3227 2.97351 58.4359 3.52877 55.696 6.26859C52.9562 9.00842 52.4009 12.8953 54.4558 14.9502C56.5107 17.005 60.3975 16.4498 63.1374 13.7099Z" fill="#003554"/>
<path d="M94.0428 8.32545C95.1844 5.65303 93.2212 2.25271 89.658 0.730631C86.0948 -0.79145 82.2808 0.141083 81.1392 2.8135C79.9977 5.48592 81.9608 8.88624 85.5241 10.4083C89.0873 11.9304 92.9013 10.9979 94.0428 8.32545Z" fill="#003554"/>
<path d="M89.5352 33.801C93.347 26.8279 90.7843 18.0849 83.8112 14.2731C76.838 10.4612 68.0951 13.0239 64.2832 19.9971C60.4713 26.9702 63.0341 35.7132 70.0072 39.525C76.9803 43.3369 85.7233 40.7742 89.5352 33.801Z" fill="#FFB7B7"/>
<path d="M61.7894 17.848C65.0775 20.1143 68.9803 21.3205 72.9738 21.3045C71.5493 22.2922 69.9276 22.9594 68.2204 23.2601C73.5301 24.399 79.0176 24.4299 84.3397 23.3507C85.5228 23.161 86.6643 22.7689 87.7142 22.1917C88.2374 21.8995 88.6932 21.5005 89.052 21.0206C89.4109 20.5406 89.6647 19.9906 89.797 19.4061C90.1507 17.3858 88.5764 15.5502 86.9404 14.3132C84.4355 12.4481 81.5474 11.1631 78.4849 10.5511C75.4225 9.93913 72.2623 10.0155 69.233 10.7748C67.255 11.2861 65.2735 12.1499 63.9887 13.7384C62.704 15.327 62.3234 17.7759 63.5474 19.4116L61.7894 17.848Z" fill="#003554"/>
<path d="M69.6978 45.6106L55.4556 57.2418L67.8996 86.913L68.137 91.6604C68.137 91.6604 55.2189 103.571 47.226 136.843C39.2331 170.114 23.0896 214.325 23.0896 214.325L55.3853 222.225L77.8399 146.961L106.464 206.008L110.536 223.473L135.501 216.542L125.866 169.674L102.235 96.9235L104.175 76.8253C104.175 76.8253 108.5 66.7935 100.987 56.1727L98.6311 46.1929L86.4335 44.1138L69.6978 45.6106Z" fill="#003554"/>
<path d="M309.188 151.204H210.309C209.52 151.203 208.763 150.889 208.204 150.331C207.646 149.773 207.332 149.016 207.331 148.226V114.869C207.332 114.08 207.646 113.323 208.204 112.764C208.763 112.206 209.52 111.892 210.309 111.891H309.188C309.978 111.892 310.735 112.206 311.293 112.764C311.851 113.323 312.165 114.08 312.166 114.869V148.226C312.165 149.016 311.851 149.773 311.293 150.331C310.735 150.889 309.978 151.203 309.188 151.204V151.204Z" fill="#E5E5E5"/>
<path d="M249.027 120.826H222.818V123.804H249.027V120.826Z" fill="white"/>
<path d="M283.575 124.4C284.562 124.4 285.362 123.6 285.362 122.613C285.362 121.626 284.562 120.826 283.575 120.826C282.588 120.826 281.788 121.626 281.788 122.613C281.788 123.6 282.588 124.4 283.575 124.4Z" fill="#00A6FB"/>
<path d="M289.531 124.4C290.518 124.4 291.318 123.6 291.318 122.613C291.318 121.626 290.518 120.826 289.531 120.826C288.544 120.826 287.744 121.626 287.744 122.613C287.744 123.6 288.544 124.4 289.531 124.4Z" fill="#00A6FB"/>
<path d="M295.488 124.4C296.475 124.4 297.275 123.6 297.275 122.613C297.275 121.626 296.475 120.826 295.488 120.826C294.501 120.826 293.701 121.626 293.701 122.613C293.701 123.6 294.501 124.4 295.488 124.4Z" fill="#00A6FB"/>
<path d="M309.188 193.495H210.309C209.52 193.494 208.763 193.18 208.204 192.622C207.646 192.064 207.332 191.307 207.331 190.517V157.16C207.332 156.371 207.646 155.614 208.204 155.055C208.763 154.497 209.52 154.183 210.309 154.182H309.188C309.978 154.183 310.735 154.497 311.293 155.055C311.851 155.614 312.165 156.371 312.166 157.16V190.517C312.165 191.307 311.851 192.064 311.293 192.622C310.735 193.18 309.978 193.494 309.188 193.495V193.495Z" fill="#E5E5E5"/>
<path d="M249.027 163.117H222.818V166.095H249.027V163.117Z" fill="white"/>
<path d="M283.575 166.691C284.562 166.691 285.362 165.891 285.362 164.904C285.362 163.917 284.562 163.117 283.575 163.117C282.588 163.117 281.788 163.917 281.788 164.904C281.788 165.891 282.588 166.691 283.575 166.691Z" fill="#00A6FB"/>
<path d="M289.531 166.691C290.518 166.691 291.318 165.891 291.318 164.904C291.318 163.917 290.518 163.117 289.531 163.117C288.544 163.117 287.744 163.917 287.744 164.904C287.744 165.891 288.544 166.691 289.531 166.691Z" fill="#00A6FB"/>
<path d="M295.488 166.691C296.475 166.691 297.275 165.891 297.275 164.904C297.275 163.917 296.475 163.117 295.488 163.117C294.501 163.117 293.701 163.917 293.701 164.904C293.701 165.891 294.501 166.691 295.488 166.691Z" fill="#00A6FB"/>
<path d="M309.188 235.787H210.309C209.52 235.786 208.763 235.472 208.204 234.914C207.646 234.355 207.332 233.598 207.331 232.809V199.452C207.332 198.662 207.646 197.905 208.204 197.347C208.763 196.789 209.52 196.475 210.309 196.474H309.188C309.978 196.475 310.735 196.789 311.293 197.347C311.851 197.905 312.165 198.662 312.166 199.452V232.809C312.165 233.598 311.851 234.355 311.293 234.914C310.735 235.472 309.978 235.786 309.188 235.787Z" fill="#E5E5E5"/>
<path d="M249.027 205.409H222.818V208.387H249.027V205.409Z" fill="white"/>
<path d="M283.575 208.983C284.562 208.983 285.362 208.183 285.362 207.196C285.362 206.209 284.562 205.409 283.575 205.409C282.588 205.409 281.788 206.209 281.788 207.196C281.788 208.183 282.588 208.983 283.575 208.983Z" fill="#00A6FB"/>
<path d="M289.531 208.983C290.518 208.983 291.318 208.183 291.318 207.196C291.318 206.209 290.518 205.409 289.531 205.409C288.544 205.409 287.744 206.209 287.744 207.196C287.744 208.183 288.544 208.983 289.531 208.983Z" fill="#00A6FB"/>
<path d="M295.488 208.983C296.475 208.983 297.275 208.183 297.275 207.196C297.275 206.209 296.475 205.409 295.488 205.409C294.501 205.409 293.701 206.209 293.701 207.196C293.701 208.183 294.501 208.983 295.488 208.983Z" fill="#00A6FB"/>
<path d="M190.534 163.863C188.651 163.857 186.776 163.615 184.953 163.141L184.593 163.042L184.26 162.875C172.21 156.834 162.045 148.854 154.045 139.157C147.424 131.083 142.261 121.915 138.79 112.067C134.638 100.276 132.641 87.835 132.894 75.3374C132.899 75.075 132.903 74.8725 132.903 74.7329C132.903 68.6577 136.275 63.3272 141.494 61.1526C145.488 59.4883 181.754 44.5925 184.374 43.5162C189.309 41.0436 194.574 43.1074 195.416 43.4683C197.306 44.2409 230.832 57.9533 238.076 61.4031C245.543 64.9586 247.535 71.3459 247.535 74.5595C247.535 89.1083 245.015 102.705 240.046 114.973C236.033 124.903 230.344 134.07 223.229 142.075C209.501 157.524 195.77 163 195.637 163.049C193.996 163.613 192.269 163.889 190.534 163.863V163.863ZM187.305 155.864C188.495 156.131 191.236 156.532 193.023 155.88C195.292 155.052 206.785 149.092 217.525 137.006C232.364 120.307 239.894 99.3152 239.905 74.6132C239.878 74.1127 239.523 70.5434 234.796 68.2926C227.691 64.9095 192.844 50.6606 192.493 50.517L192.397 50.4761C191.667 50.1701 189.342 49.5255 187.74 50.365L187.42 50.5146C187.031 50.6741 148.535 66.4855 144.429 68.1962C141.557 69.3929 140.533 72.3575 140.533 74.7329C140.533 74.9065 140.529 75.159 140.523 75.4854C140.195 92.3874 144.106 133.978 187.305 155.864Z" fill="#003554"/>
<path d="M185.97 46.9851C185.97 46.9851 147.124 62.9399 142.961 64.6741C138.799 66.4084 136.718 70.5705 136.718 74.7326C136.718 78.8948 133.597 133.205 185.97 159.464C185.97 159.464 190.724 160.779 194.33 159.464C197.936 158.149 243.72 135.951 243.72 74.5592C243.72 74.5592 243.72 68.316 236.436 64.8475C229.152 61.3791 193.937 46.9851 193.937 46.9851C193.937 46.9851 189.612 45.0774 185.97 46.9851Z" fill="#00A6FB"/>
<path opacity="0.2" d="M190.132 59.4717V144.585C190.132 144.585 229.326 125.719 228.979 76.1202L190.132 59.4717Z" fill="black"/>
<path d="M359.564 235.787H0.435835C0.320245 235.787 0.209388 235.741 0.127653 235.659C0.0459179 235.577 0 235.466 0 235.351C0 235.235 0.0459179 235.124 0.127653 235.043C0.209388 234.961 0.320245 234.915 0.435835 234.915H359.564C359.68 234.915 359.791 234.961 359.872 235.043C359.954 235.124 360 235.235 360 235.351C360 235.466 359.954 235.577 359.872 235.659C359.791 235.741 359.68 235.787 359.564 235.787Z" fill="#CBCBCB"/>
</g>
<defs>
<clipPath id="clip0">
<rect width="360" height="235.787" fill="white"/>
</clipPath>
</defs>
</svg>
