<svg width="360" height="289" viewBox="0 0 360 289" fill="none" xmlns="http://www.w3.org/2000/svg">
<g clip-path="url(#clip0)">
<path d="M180.379 245.192C155.987 245.192 132.35 236.734 113.495 221.26C94.6392 205.786 81.7327 184.253 76.9741 160.329C72.2155 136.406 75.8992 111.572 87.3976 90.0606C98.896 68.5488 117.498 51.6893 140.033 42.3549C162.568 33.0205 187.643 31.7887 210.985 38.8694C234.326 45.95 254.491 60.9051 268.042 81.1863C281.594 101.468 287.694 125.82 285.303 150.095C282.912 174.369 272.178 197.064 254.931 214.312C245.163 224.133 233.545 231.919 220.748 237.219C207.951 242.52 194.23 245.23 180.379 245.192V245.192ZM180.379 35.1397C122.691 35.1397 75.7586 82.0725 75.7586 139.761C75.7586 197.449 122.691 244.381 180.379 244.381C238.067 244.381 285 197.449 285 139.761C285 82.0725 238.067 35.1397 180.379 35.1397V35.1397Z" fill="#CCCCCC"/>
<path d="M219.527 261.003V154.787H140.473V261.003H219.527Z" fill="#014268"/>
<path d="M233.108 151.544H126.892V193.706H233.108V151.544Z" fill="#003554"/>
<path d="M233.108 198.571H126.892V240.733H233.108V198.571Z" fill="#003554"/>
<path d="M233.108 245.598H126.892V287.76H233.108V245.598Z" fill="#003554"/>
<path d="M233.108 169.42H126.892V175.907H233.108V169.42Z" fill="#007cbd"/>
<path d="M233.108 216.448H126.892V222.934H233.108V216.448Z" fill="#007cbd"/>
<path d="M233.108 263.474H126.892V269.961H233.108V263.474Z" fill="#007cbd"/>
<path d="M212.432 160.057C213.776 160.057 214.865 158.968 214.865 157.625C214.865 156.281 213.776 155.192 212.432 155.192C211.089 155.192 210 156.281 210 157.625C210 158.968 211.089 160.057 212.432 160.057Z" fill="#007cbd"/>
<path d="M220.946 160.057C222.289 160.057 223.378 158.968 223.378 157.625C223.378 156.281 222.289 155.192 220.946 155.192C219.603 155.192 218.514 156.281 218.514 157.625C218.514 158.968 219.603 160.057 220.946 160.057Z" fill="#007cbd"/>
<path d="M229.459 160.057C230.803 160.057 231.892 158.968 231.892 157.625C231.892 156.281 230.803 155.192 229.459 155.192C228.116 155.192 227.027 156.281 227.027 157.625C227.027 158.968 228.116 160.057 229.459 160.057Z" fill="#007cbd"/>
<path d="M212.432 206.273C213.776 206.273 214.865 205.184 214.865 203.841C214.865 202.497 213.776 201.408 212.432 201.408C211.089 201.408 210 202.497 210 203.841C210 205.184 211.089 206.273 212.432 206.273Z" fill="#007cbd"/>
<path d="M220.946 206.273C222.289 206.273 223.378 205.184 223.378 203.841C223.378 202.497 222.289 201.408 220.946 201.408C219.603 201.408 218.514 202.497 218.514 203.841C218.514 205.184 219.603 206.273 220.946 206.273Z" fill="#007cbd"/>
<path d="M229.459 206.273C230.803 206.273 231.892 205.184 231.892 203.841C231.892 202.497 230.803 201.408 229.459 201.408C228.116 201.408 227.027 202.497 227.027 203.841C227.027 205.184 228.116 206.273 229.459 206.273Z" fill="#007cbd"/>
<path d="M212.432 252.49C213.776 252.49 214.865 251.4 214.865 250.057C214.865 248.714 213.776 247.625 212.432 247.625C211.089 247.625 210 248.714 210 250.057C210 251.4 211.089 252.49 212.432 252.49Z" fill="#007cbd"/>
<path d="M220.946 252.49C222.289 252.49 223.378 251.4 223.378 250.057C223.378 248.714 222.289 247.625 220.946 247.625C219.603 247.625 218.514 248.714 218.514 250.057C218.514 251.4 219.603 252.49 220.946 252.49Z" fill="#007cbd"/>
<path d="M229.459 252.49C230.803 252.49 231.892 251.4 231.892 250.057C231.892 248.714 230.803 247.625 229.459 247.625C228.116 247.625 227.027 248.714 227.027 250.057C227.027 251.4 228.116 252.49 229.459 252.49Z" fill="#007cbd"/>
<path d="M360 287.354H0V288.165H360V287.354Z" fill="#003554"/>
<path d="M98.0589 109.891V185.293C98.0586 186.871 97.4318 188.383 96.3164 189.499C95.2009 190.614 93.6882 191.241 92.1107 191.241H62.8086C61.2308 191.242 59.7175 190.615 58.6015 189.5C57.4856 188.384 56.8584 186.871 56.8579 185.293V109.891C56.8584 108.313 57.4856 106.8 58.6015 105.685C59.7175 104.569 61.2308 103.943 62.8086 103.943H66.3632C66.1886 104.372 66.1222 104.838 66.1697 105.299C66.2173 105.759 66.3773 106.202 66.6357 106.586C66.8941 106.971 67.2431 107.286 67.6519 107.504C68.0606 107.722 68.5168 107.837 68.9801 107.837H85.6862C86.1496 107.837 86.6057 107.722 87.0145 107.504C87.4233 107.286 87.7722 106.971 88.0306 106.586C88.2891 106.202 88.4491 105.759 88.4966 105.299C88.5441 104.838 88.4777 104.372 88.3031 103.943H92.1107C93.6882 103.943 95.2009 104.57 96.3164 105.685C97.4318 106.801 98.0586 108.314 98.0589 109.891V109.891Z" fill="#E6E6E6"/>
<path d="M96.1071 118.342H58.8098V170.234H96.1071V118.342Z" fill="white"/>
<path d="M84.286 154.025H69.3996V154.875H84.286V154.025Z" fill="#E6E6E6"/>
<path d="M92.4186 157.148H69.3846V157.999H92.4186V157.148Z" fill="#007cbd"/>
<path d="M87.461 160.091H69.3846V160.941H87.461V160.091Z" fill="#E6E6E6"/>
<path d="M80.0178 163.033H69.3846V163.884H80.0178V163.033Z" fill="#E6E6E6"/>
<path d="M85.3343 165.976H69.3846V166.827H85.3343V165.976Z" fill="#E6E6E6"/>
<path d="M64.3499 153.78H62.6486V155.481H64.3499V153.78Z" fill="#E6E6E6"/>
<path d="M64.3499 156.723H62.6486V158.424H64.3499V156.723Z" fill="#007cbd"/>
<path d="M64.3499 159.665H62.6486V161.367H64.3499V159.665Z" fill="#E6E6E6"/>
<path d="M64.3499 162.608H62.6486V164.309H64.3499V162.608Z" fill="#E6E6E6"/>
<path d="M64.3499 165.551H62.6486V167.252H64.3499V165.551Z" fill="#E6E6E6"/>
<path d="M85.0331 124.828H70.0341V139.827H85.0331V124.828Z" fill="#E6E6E6"/>
<path d="M229.863 0.0565186H130.18V63.8977H229.863V0.0565186Z" fill="#E6E6E6"/>
<path d="M220.341 17.917H137.695V49.1475H220.341V17.917Z" fill="white"/>
<path d="M172.588 23.3278H152.752V24.4612H172.588V23.3278Z" fill="#E6E6E6"/>
<path d="M183.424 27.4895H152.733V28.6229H183.424V27.4895Z" fill="#007cbd"/>
<path d="M176.818 31.4104H152.733V32.5438H176.818V31.4104Z" fill="#E6E6E6"/>
<path d="M166.901 35.3313H152.733V36.4647H166.901V35.3313Z" fill="#E6E6E6"/>
<path d="M173.985 39.2522H152.733V40.3856H173.985V39.2522Z" fill="#E6E6E6"/>
<path d="M146.024 23.0018H143.757V25.2687H146.024V23.0018Z" fill="#E6E6E6"/>
<path d="M146.024 26.9227H143.757V29.1896H146.024V26.9227Z" fill="#007cbd"/>
<path d="M146.024 30.8436H143.757V33.1105H146.024V30.8436Z" fill="#E6E6E6"/>
<path d="M146.024 34.7646H143.757V37.0315H146.024V34.7646Z" fill="#E6E6E6"/>
<path d="M146.024 38.6855H143.757V40.9524H146.024V38.6855Z" fill="#E6E6E6"/>
<path d="M216.285 21.8301H195.991V42.1242H216.285V21.8301Z" fill="#E6E6E6"/>
<path d="M229.82 0H130.137V4.23488H229.82V0Z" fill="#007cbd"/>
<path d="M133.284 3.01522C133.754 3.01522 134.135 2.63463 134.135 2.16514C134.135 1.69566 133.754 1.31506 133.284 1.31506C132.815 1.31506 132.434 1.69566 132.434 2.16514C132.434 2.63463 132.815 3.01522 133.284 3.01522Z" fill="white"/>
<path d="M136.264 3.01522C136.733 3.01522 137.114 2.63463 137.114 2.16514C137.114 1.69566 136.733 1.31506 136.264 1.31506C135.794 1.31506 135.414 1.69566 135.414 2.16514C135.414 2.63463 135.794 3.01522 136.264 3.01522Z" fill="white"/>
<path d="M139.243 3.01522C139.712 3.01522 140.093 2.63463 140.093 2.16514C140.093 1.69566 139.712 1.31506 139.243 1.31506C138.774 1.31506 138.393 1.69566 138.393 2.16514C138.393 2.63463 138.774 3.01522 139.243 3.01522Z" fill="white"/>
<path d="M296.614 119.516H272.29V132.084H296.614V119.516Z" fill="#E6E6E6"/>
<path d="M296.614 164.517H272.29V177.084H296.614V164.517Z" fill="#E6E6E6"/>
<path d="M284.452 168.571C295.647 168.571 304.722 159.495 304.722 148.3C304.722 137.105 295.647 128.03 284.452 128.03C273.257 128.03 264.181 137.105 264.181 148.3C264.181 159.495 273.257 168.571 284.452 168.571Z" fill="#E6E6E6"/>
<path d="M284.452 164.111C293.184 164.111 300.263 157.032 300.263 148.3C300.263 139.568 293.184 132.49 284.452 132.49C275.72 132.49 268.641 139.568 268.641 148.3C268.641 157.032 275.72 164.111 284.452 164.111Z" fill="white"/>
<path d="M291.537 143.968H279.274V144.669H291.537V143.968Z" fill="#E2E2E2"/>
<path d="M298.236 146.541H279.262V147.242H298.236V146.541Z" fill="#007cbd"/>
<path d="M294.152 148.965H279.262V149.666H294.152V148.965Z" fill="#E2E2E2"/>
<path d="M288.021 151.389H279.262V152.09H288.021V151.389Z" fill="#E2E2E2"/>
<path d="M292.4 153.813H279.262V154.514H292.4V153.813Z" fill="#E2E2E2"/>
<path d="M275.115 143.767H273.713V145.168H275.115V143.767Z" fill="#E2E2E2"/>
<path d="M275.115 146.191H273.713V147.592H275.115V146.191Z" fill="#007cbd"/>
<path d="M275.115 148.615H273.713V150.016H275.115V148.615Z" fill="#E2E2E2"/>
<path d="M275.115 151.039H273.713V152.44H275.115V151.039Z" fill="#E2E2E2"/>
<path d="M275.115 153.463H273.713V154.864H275.115V153.463Z" fill="#E2E2E2"/>
</g>
<defs>
<clipPath id="clip0">
<rect width="360" height="288.165" fill="white"/>
</clipPath>
</defs>
</svg>
