<svg width="360" height="213" viewBox="0 0 360 213" fill="none" xmlns="http://www.w3.org/2000/svg">
<g clip-path="url(#clip0)">
<path opacity="0.2" d="M52.6092 0.0243645C49.8085 -0.0555583 46.9382 0.0243617 44.3112 0.830539C37.1633 3.02668 33.7753 10.2128 34.8768 16.4224C35.9784 22.6321 40.5096 28.0425 45.2112 32.9873C49.9127 37.9321 55.0069 42.8213 57.5853 48.7321C58.871 51.6823 59.4722 54.9869 58.1656 57.9336C56.1502 62.4753 50.0726 65.012 44.2382 65.5402C38.4038 66.0684 32.5451 65.0398 26.6899 64.6958C24.2332 64.5533 21.7069 64.5359 19.3926 65.1997C16.8525 65.9224 14.7363 67.3993 12.7903 68.9387C5.19766 74.978 -0.879945 83.217 0.103453 91.873C1.21542 101.683 11.1328 109.435 21.9953 113.595C25.5919 114.985 29.3969 116.09 32.5625 118.056C40.9023 123.244 42.7753 132.974 41.9448 141.561C41.1143 150.147 38.2857 158.744 39.8598 167.254C41.7119 177.154 49.9092 186.098 60.9664 190.275C70.8177 193.997 83.1467 193.75 91.893 188.5C96.1567 185.935 99.3814 182.373 102.186 178.69C106.35 173.25 109.789 167.293 112.419 160.968C113.639 158.018 114.786 154.845 117.632 152.795C119.369 151.534 121.621 150.828 123.848 150.279C130.562 148.625 137.633 148.173 144.409 146.7C151.185 145.227 158.003 142.471 161.686 137.571C166.899 130.622 164.466 121.719 164.491 113.546C164.532 94.8997 178.081 78.2097 183.081 60.0325C184.715 54.0939 185.323 47.5228 181.674 42.2236C179.196 38.6271 175.016 36.0313 170.624 34.0263C160.96 29.6166 149.976 27.6533 139.173 25.7421C124.158 23.0873 105.925 22.7433 94.2872 14.1533C83.1189 5.90737 67.8397 0.0243645 52.6092 0.0243645Z" fill="#00A6FB"/>
<path d="M198.417 212.664C287.657 212.664 360 193.292 360 169.395C360 145.497 287.657 126.125 198.417 126.125C109.177 126.125 36.834 145.497 36.834 169.395C36.834 193.292 109.177 212.664 198.417 212.664Z" fill="#F5F5F5"/>
<path d="M332.611 64.9316C332.611 64.9316 320.16 77.3822 327.19 95.8583C334.22 114.334 315.139 145.059 315.139 145.059C315.139 145.059 315.344 145.028 315.723 144.962C341.295 140.445 354.002 111.2 339.783 89.4714C334.498 81.3957 330.158 71.9301 332.611 64.9316Z" fill="#00A6FB"/>
<path d="M332.611 64.9316C332.611 64.9316 325.581 80.1934 332.611 92.644C339.641 105.095 333.817 140.038 315.139 145.059" stroke="#003554" stroke-width="2" stroke-miterlimit="10"/>
<path d="M354.788 115.293C354.788 115.293 340.579 113.031 339.286 125.763C337.993 138.495 311.966 140.26 311.966 140.26L312.453 140.583C333.942 154.688 354.499 149.57 351.372 130.854C350.236 123.876 350.329 116.881 354.788 115.293Z" fill="#00A6FB"/>
<path opacity="0.2" d="M354.788 115.293C354.788 115.293 340.579 113.031 339.286 125.763C337.993 138.495 311.966 140.26 311.966 140.26L312.453 140.583C333.942 154.688 354.499 149.57 351.372 130.854C350.236 123.876 350.329 116.881 354.788 115.293Z" fill="#F5F5F5"/>
<path d="M354.788 115.294C354.788 115.294 343.758 117.726 344.665 127.741C345.572 137.756 328.288 149.789 311.966 140.251" stroke="#003554" stroke-width="2" stroke-miterlimit="10"/>
<path d="M321.905 145.918H299.582C300.096 144.885 300.362 143.746 300.36 142.592V40.9306C300.36 38.9482 299.573 37.047 298.171 35.6453C296.769 34.2435 294.868 33.4561 292.886 33.4561H120.065C119.083 33.4556 118.111 33.6486 117.203 34.024C116.296 34.3994 115.472 34.9499 114.777 35.6441C114.083 36.3382 113.532 37.1623 113.156 38.0694C112.78 38.9765 112.587 39.9487 112.587 40.9306V142.596C112.585 143.75 112.852 144.888 113.365 145.921H90.2537C89.7293 145.921 89.2264 146.13 88.8556 146.5C88.4848 146.871 88.2765 147.374 88.2765 147.899V149.494C88.2792 152.424 89.4454 155.234 91.5187 157.305C93.592 159.377 96.4029 160.54 99.3336 160.54H312.825C315.757 160.54 318.57 159.375 320.643 157.302C322.717 155.228 323.882 152.416 323.882 149.483V147.888C323.88 147.365 323.671 146.864 323.3 146.494C322.93 146.125 322.428 145.918 321.905 145.918ZM184.337 152.242L182.432 150.07H229.941L227.822 152.246L184.337 152.242Z" fill="url(#paint0_linear)"/>
<path d="M290.144 34.8955H122.793C118.329 34.8955 114.71 38.5142 114.71 42.9781V140.786C114.71 145.25 118.329 148.869 122.793 148.869H290.144C294.608 148.869 298.227 145.25 298.227 140.786V42.9781C298.227 38.5142 294.608 34.8955 290.144 34.8955Z" fill="#003554"/>
<path d="M293.973 51.5078H118.571V144.618H293.973V51.5078Z" fill="white"/>
<path d="M206.274 44.9413C207.128 44.9413 207.82 44.249 207.82 43.395C207.82 42.5409 207.128 41.8486 206.274 41.8486C205.42 41.8486 204.727 42.5409 204.727 43.395C204.727 44.249 205.42 44.9413 206.274 44.9413Z" fill="white"/>
<path d="M233.357 144.81L227.328 150.991H184.83L179.385 144.81H92.8807C92.3683 144.81 91.8769 145.013 91.5146 145.375C91.1522 145.738 90.9487 146.229 90.9487 146.742V148.298C90.9487 151.165 92.0873 153.913 94.114 155.94C96.1406 157.967 98.8894 159.105 101.756 159.105H310.406C313.272 159.105 316.021 157.967 318.048 155.94C320.075 153.913 321.213 151.165 321.213 148.298V146.742C321.213 146.229 321.01 145.738 320.647 145.375C320.285 145.013 319.794 144.81 319.281 144.81H233.357Z" fill="#003554"/>
<path d="M173.193 54.7813H99.2016C97.4041 54.7794 95.6795 55.4914 94.4069 56.7608C93.1343 58.0302 92.4178 59.7529 92.4151 61.5504V164.06C92.4178 165.857 93.1343 167.58 94.4069 168.85C95.6795 170.119 97.4041 170.831 99.2016 170.829H173.193C174.99 170.831 176.715 170.119 177.987 168.85C179.26 167.58 179.976 165.857 179.979 164.06V61.5504C179.976 59.7529 179.26 58.0302 177.987 56.7608C176.715 55.4914 174.99 54.7794 173.193 54.7813Z" fill="url(#paint1_linear)"/>
<path d="M171.987 56.1719H100.404C96.5656 56.1719 93.454 59.2834 93.454 63.1217V162.851C93.454 166.69 96.5656 169.801 100.404 169.801H171.987C175.825 169.801 178.937 166.69 178.937 162.851V63.1217C178.937 59.2834 175.825 56.1719 171.987 56.1719Z" fill="#003554"/>
<path d="M174.593 66.9199H97.7977V159.054H174.593V66.9199Z" fill="white"/>
<path d="M135.848 62.4267C136.424 62.4267 136.89 61.96 136.89 61.3843C136.89 60.8085 136.424 60.3418 135.848 60.3418C135.272 60.3418 134.805 60.8085 134.805 61.3843C134.805 61.96 135.272 62.4267 135.848 62.4267Z" fill="white"/>
<path d="M135.848 167.368C137.575 167.368 138.975 165.968 138.975 164.241C138.975 162.513 137.575 161.113 135.848 161.113C134.121 161.113 132.72 162.513 132.72 164.241C132.72 165.968 134.121 167.368 135.848 167.368Z" fill="white"/>
<path d="M116.795 89.5303H78.8039C78.3106 89.5294 77.8219 89.6256 77.3658 89.8136C76.9097 90.0015 76.4951 90.2774 76.1457 90.6256C75.7962 90.9737 75.5188 91.3873 75.3291 91.8427C75.1395 92.2981 75.0415 92.7864 75.0405 93.2797V176.476C75.0415 176.969 75.1395 177.457 75.3291 177.913C75.5188 178.368 75.7962 178.782 76.1457 179.13C76.4951 179.478 76.9097 179.754 77.3658 179.942C77.8219 180.13 78.3106 180.226 78.8039 180.225H116.795C117.288 180.226 117.777 180.13 118.233 179.942C118.689 179.754 119.104 179.478 119.453 179.13C119.803 178.782 120.08 178.368 120.27 177.913C120.459 177.457 120.557 176.969 120.558 176.476V93.2797C120.557 92.7864 120.459 92.2981 120.27 91.8427C120.08 91.3873 119.803 90.9737 119.453 90.6256C119.104 90.2774 118.689 90.0015 118.233 89.8136C117.777 89.6256 117.288 89.5294 116.795 89.5303V89.5303Z" fill="url(#paint2_linear)"/>
<path d="M116.388 90.2256H79.2069C77.0959 90.2256 75.3846 91.9369 75.3846 94.048V176.056C75.3846 178.167 77.0959 179.878 79.2069 179.878H116.388C118.499 179.878 120.211 178.167 120.211 176.056V94.048C120.211 91.9369 118.499 90.2256 116.388 90.2256Z" fill="#003554"/>
<path d="M116.91 98.5654H78.6857V171.538H116.91V98.5654Z" fill="white"/>
<path d="M93.2803 94.7428C93.4722 94.7428 93.6278 94.5873 93.6278 94.3953C93.6278 94.2034 93.4722 94.0479 93.2803 94.0479C93.0884 94.0479 92.9328 94.2034 92.9328 94.3953C92.9328 94.5873 93.0884 94.7428 93.2803 94.7428Z" fill="white"/>
<path d="M102.315 94.0479H95.3653C95.1733 94.0479 95.0178 94.2034 95.0178 94.3953C95.0178 94.5873 95.1733 94.7428 95.3653 94.7428H102.315C102.507 94.7428 102.663 94.5873 102.663 94.3953C102.663 94.2034 102.507 94.0479 102.315 94.0479Z" fill="white"/>
<path d="M97.6239 177.446C98.9673 177.446 100.056 176.357 100.056 175.013C100.056 173.67 98.9673 172.581 97.6239 172.581C96.2805 172.581 95.1915 173.67 95.1915 175.013C95.1915 176.357 96.2805 177.446 97.6239 177.446Z" fill="white"/>
<path d="M70.7942 186.341C70.7942 186.341 66.1865 170.704 71.6595 159.189C73.9892 154.375 74.694 148.935 73.668 143.687C73.1607 141.201 72.4267 138.766 71.4753 136.414" stroke="#003554" stroke-width="2" stroke-miterlimit="10"/>
<path d="M74.8668 129.138C74.8668 131.056 71.3919 136.613 71.3919 136.613C71.3919 136.613 67.917 131.053 67.917 129.138C67.917 128.216 68.2831 127.333 68.9348 126.681C69.5864 126.029 70.4703 125.663 71.3919 125.663C72.3135 125.663 73.1973 126.029 73.849 126.681C74.5007 127.333 74.8668 128.216 74.8668 129.138Z" fill="#00A6FB"/>
<path d="M80.6178 139.757C79.5753 141.366 73.6402 144.146 73.6402 144.146C73.6402 144.146 73.7479 137.592 74.7904 135.983C75.0274 135.578 75.3442 135.225 75.7216 134.945C76.099 134.666 76.5291 134.466 76.986 134.357C77.4429 134.248 77.9171 134.233 78.3799 134.313C78.8427 134.393 79.2846 134.566 79.6788 134.821C80.073 135.076 80.4114 135.409 80.6734 135.798C80.9355 136.188 81.1159 136.627 81.2037 137.088C81.2914 137.55 81.2847 138.024 81.184 138.483C81.0833 138.941 80.8907 139.375 80.6178 139.757V139.757Z" fill="#00A6FB"/>
<path d="M80.3537 157.899C78.6405 158.761 72.1147 158.167 72.1147 158.167C72.1147 158.167 75.5166 152.566 77.2262 151.704C78.0426 151.335 78.9699 151.296 79.8145 151.594C80.6592 151.892 81.356 152.505 81.7595 153.305C82.163 154.105 82.242 155.03 81.9801 155.886C81.7181 156.743 81.1354 157.466 80.3537 157.903V157.899Z" fill="#00A6FB"/>
<path d="M77.0734 171.587C75.5305 172.727 68.9977 173.241 68.9977 173.241C68.9977 173.241 71.4023 167.146 72.9452 166.006C73.6875 165.511 74.592 165.32 75.4711 165.474C76.3502 165.627 77.1366 166.113 77.6673 166.83C78.1981 167.548 78.4324 168.442 78.3218 169.327C78.2112 170.213 77.7642 171.022 77.0734 171.587V171.587Z" fill="#00A6FB"/>
<path d="M66.3394 144.517C67.7293 145.852 74.1197 147.238 74.1197 147.238C74.1197 147.238 72.5525 140.876 71.1764 139.541C70.855 139.198 70.4674 138.924 70.0369 138.735C69.6064 138.546 69.1421 138.447 68.672 138.443C68.2019 138.438 67.7359 138.529 67.3021 138.711C66.8683 138.892 66.4757 139.159 66.1482 139.496C65.8206 139.833 65.5649 140.233 65.3965 140.672C65.2281 141.111 65.1504 141.58 65.1683 142.049C65.1862 142.519 65.2992 142.98 65.5005 143.405C65.7018 143.83 65.9872 144.21 66.3394 144.521V144.517Z" fill="#00A6FB"/>
<path d="M62.7046 160.572C64.4178 161.433 70.9436 160.839 70.9436 160.839C70.9436 160.839 67.5417 155.238 65.832 154.376C65.4229 154.147 64.9716 154.003 64.5054 153.953C64.0392 153.903 63.5677 153.948 63.1193 154.085C62.6709 154.223 62.255 154.449 61.8964 154.751C61.5378 155.053 61.2441 155.425 61.0329 155.843C60.8218 156.262 60.6975 156.719 60.6676 157.187C60.6377 157.655 60.7028 158.124 60.8589 158.566C61.0151 159.008 61.2592 159.414 61.5764 159.759C61.8936 160.105 62.2774 160.382 62.7046 160.575V160.572Z" fill="#00A6FB"/>
<path d="M61.3147 176.661C62.8575 177.801 69.3904 178.315 69.3904 178.315C69.3904 178.315 66.9857 172.22 65.4429 171.08C64.7005 170.585 63.7961 170.394 62.9169 170.548C62.0378 170.701 61.2514 171.187 60.7207 171.904C60.19 172.622 59.9556 173.516 60.0662 174.402C60.1768 175.287 60.6238 176.096 61.3147 176.661Z" fill="#00A6FB"/>
<path d="M345.753 136.598C341.906 131.931 337.246 126.569 337.9 120.36C338.428 115.332 337.163 110.682 337.413 105.637C337.761 98.4679 336.322 92.856 331.158 88.2621C328.142 85.576 323.1 83.4668 321.599 84.0054C318.624 85.0687 315.379 84.6621 312.317 85.3953C309.993 85.9374 308.446 86.7853 307.487 87.8278C305.559 89.5652 305.527 91.9977 306.407 94.5865C305.639 95.9916 305.176 97.5425 305.047 99.1383C304.918 100.734 305.127 102.339 305.659 103.849C306.19 105.359 307.034 106.741 308.135 107.904C309.235 109.066 310.568 109.985 312.046 110.599C309.902 111.495 308.05 113.559 307.327 117.75C306.825 120.628 306.066 123.455 305.058 126.198C304.606 126.409 304.142 126.596 303.668 126.757C303.773 126.799 303.88 126.827 303.985 126.865C303.759 126.952 303.536 127.039 303.29 127.115C303.7 127.276 304.125 127.399 304.558 127.483C301.778 134.506 298.303 138.857 298.303 138.857C298.303 138.857 291.822 140.288 289.303 137.783C289.303 137.783 289.713 138.263 290.269 138.982C287.805 137.96 283.761 136.292 280.303 134.92C277.794 133.922 277.151 134.92 277.176 136.31C276.563 136.386 275.973 136.585 275.438 136.893C274.697 136.416 273.92 135.998 273.114 135.642C271.675 135.295 266.994 132.779 262.314 141.366C259.589 146.359 252.605 155.474 247.236 162.215C236.794 167.017 223.2 173.098 218.148 174.627H214.909C214.485 173.932 214.19 173.495 214.19 173.495L213.939 173.661L213.832 173.495C213.832 173.495 207.473 177.897 201.016 177.932C200.098 177.919 199.184 177.803 198.292 177.585C195.324 176.837 193.232 176.504 191.738 176.542C189.97 176.511 188.958 176.931 188.347 177.724C188.265 177.827 188.189 177.937 188.121 178.05V178.05C188.052 178.163 187.99 178.279 187.933 178.398V178.398C187.878 178.523 187.822 178.655 187.773 178.79C187.753 178.911 187.761 179.035 187.796 179.152C187.831 179.27 187.892 179.378 187.975 179.468C188.061 179.589 188.155 179.705 188.256 179.815L188.437 180.01C189.25 180.851 190.731 181.966 192.572 183.21C193.104 183.558 193.667 183.94 194.254 184.319L195.37 185.014L196.367 185.636L196.766 185.883L197.211 186.154L198.007 186.637L198.48 186.922L199.373 187.453L200.095 187.881C201.986 188.996 203.869 190.077 205.568 191.036L206.757 191.745L206.871 191.807L207.636 192.235L208.956 192.968L209.863 193.468L210.287 193.701L210.742 193.951L210.833 194L211.625 194.431C211.788 194.458 211.955 194.45 212.115 194.407C212.274 194.364 212.422 194.287 212.549 194.181C212.779 193.208 213.338 191.123 213.939 190.963C214.541 190.803 217.143 186.254 217.876 183.21H224.903C226.287 183.092 227.661 182.881 229.017 182.578C227.203 183.871 225.407 184.684 224.01 184.336C221.056 183.603 218.259 185.403 217.977 187.179C217.977 187.217 217.953 187.252 217.942 187.29C217.932 187.328 217.925 187.363 217.918 187.398C217.911 187.432 217.897 187.485 217.89 187.53C217.883 187.575 217.89 187.603 217.89 187.641C217.89 187.679 217.89 187.728 217.89 187.773C217.89 187.818 217.89 187.846 217.89 187.881C217.89 187.915 217.89 187.971 217.89 188.016C217.89 188.061 217.89 188.086 217.89 188.12C217.89 188.155 217.911 188.214 217.925 188.263C217.939 188.312 217.925 188.325 217.949 188.353C217.971 188.416 217.997 188.478 218.026 188.537L218.043 188.583C218.082 188.658 218.126 188.732 218.175 188.802L218.231 188.874C218.266 188.923 218.304 188.972 218.346 189.017L218.426 189.097C218.467 189.139 218.512 189.18 218.558 189.222L218.655 189.302L218.811 189.417L218.926 189.493L219.114 189.604L219.239 189.67L219.475 189.781L219.593 189.834C219.718 189.886 219.85 189.934 219.993 189.979C220.219 190.052 220.486 190.129 220.788 190.205L221.091 190.278L221.532 190.379L221.765 190.431C222.066 190.496 222.386 190.561 222.724 190.626L223.193 190.713L223.575 190.782L224.454 190.935C225.003 191.029 225.577 191.123 226.192 191.213L227.707 191.442L229.681 191.724L230.119 191.783L230.814 191.88L231.832 192.016L232.527 192.106L234.33 192.335L234.893 192.405L236.029 192.544C237.524 192.725 238.969 192.891 240.3 193.041L241.839 193.215L242.618 193.302L242.965 193.336L243.897 193.437L244.414 193.493L245.054 193.559L245.954 193.652H246.051L246.628 193.712C246.7 193.719 246.773 193.712 246.842 193.69C246.912 193.668 246.976 193.632 247.03 193.584C247.085 193.536 247.129 193.477 247.159 193.411C247.19 193.345 247.207 193.273 247.208 193.201C247.208 193.183 247.208 193.163 247.208 193.142C247.261 193.061 247.29 192.967 247.292 192.871C247.307 192.014 247.415 191.161 247.615 190.327C247.653 190.185 247.698 190.039 247.747 189.893L247.802 189.726C247.865 189.549 247.927 189.378 248 189.187C248.053 189.058 248.098 188.925 248.136 188.791C248.136 188.749 248.16 188.708 248.174 188.663C248.188 188.617 248.209 188.52 248.223 188.447C248.946 185.976 248.073 181.369 247.823 179.558C247.743 178.98 247.61 178.41 247.427 177.856C247.472 177.86 247.517 177.86 247.563 177.856C247.936 177.718 248.287 177.528 248.605 177.289C253.915 175.395 258.39 173.23 259.805 171.062C262.095 170.458 264.528 170.712 266.643 171.778C269.392 173.144 290.186 179.93 299.867 183.064C301.604 184.562 302.966 185.438 303.72 185.372C303.72 185.372 316.046 187.366 321.001 183.474C321.442 183.78 321.72 183.944 321.72 183.944C321.72 183.944 328.92 180.368 330.001 175.715C330.349 174.207 330.665 171.983 330.988 169.523C332.658 167.84 333.597 165.566 333.601 163.195C333.827 155.383 336.854 146.46 339.098 138.523C341.823 138.739 342.876 138.224 345.374 136.991L345.263 136.848C345.44 136.744 345.597 136.674 345.753 136.598ZM304.475 148.298L303.085 147.836C303.551 147.213 303.952 146.545 304.283 145.841L304.475 148.298ZM296.729 151.585L305.069 156.589L305.142 157.607C305.04 158.382 305.064 159.168 305.211 159.936C301.535 156.669 297.233 152.704 296.725 151.582L296.729 151.585ZM293.324 144.288C292.413 143.913 291.659 143.572 291.141 143.291C291.836 143.339 292.497 143.381 293.073 143.412C293.187 143.695 293.271 143.988 293.324 144.288V144.288ZM270.987 152.444C270.987 152.444 272.425 149.226 275.668 154.591C276.171 155.425 277.099 156.752 278.326 158.396L268.888 157.135C270 155.411 270.747 153.809 270.987 152.447V152.444Z" fill="url(#paint3_linear)"/>
<path d="M291.718 139.518C291.718 139.518 285.116 136.738 279.903 134.653C274.691 132.568 277.819 139.518 277.819 139.518C277.819 139.518 286.506 141.95 286.506 142.298C286.506 142.645 293.803 142.993 293.803 142.993L291.718 139.518Z" fill="#F7C4A7"/>
<path opacity="0.05" d="M291.718 139.518C291.718 139.518 285.116 136.738 279.903 134.653C274.691 132.568 277.819 139.518 277.819 139.518C277.819 139.518 286.506 141.95 286.506 142.298C286.506 142.645 293.803 142.993 293.803 142.993L291.718 139.518Z" fill="black"/>
<path d="M319.865 112.066C319.865 112.066 308.05 105.811 305.965 117.973C303.88 130.136 297.278 138.475 297.278 138.475C297.278 138.475 291.023 139.865 288.591 137.433C288.591 137.433 294.498 144.383 291.718 145.078C291.718 145.078 297.973 149.595 300.753 148.205C303.533 146.815 305.618 137.433 306.66 135C307.703 132.568 311.525 111.371 319.865 112.066Z" fill="#575988"/>
<path opacity="0.1" d="M319.865 112.066C319.865 112.066 308.05 105.811 305.965 117.973C303.88 130.136 297.278 138.475 297.278 138.475C297.278 138.475 291.023 139.865 288.591 137.433C288.591 137.433 294.498 144.383 291.718 145.078C291.718 145.078 297.973 149.595 300.753 148.205C303.533 146.815 305.618 137.433 306.66 135C307.703 132.568 311.525 111.371 319.865 112.066Z" fill="black"/>
<path d="M313.263 107.896C313.263 107.896 320.56 116.235 320.907 123.185C321.255 130.135 329.247 115.888 329.942 115.54C330.637 115.193 322.992 103.378 322.297 99.5559C321.602 95.7335 313.263 107.896 313.263 107.896Z" fill="#F7C4A7"/>
<path d="M318.301 111.458L313.697 115.628L315.869 124.402L321.776 118.842L321.081 113.282L318.301 111.458Z" fill="#F7C4A7"/>
<path d="M222.22 173.224H214.228L217.355 180.868L225 178.783L222.22 173.224Z" fill="#F7C4A7"/>
<path opacity="0.1" d="M216.076 172.122C216.076 172.122 207.799 177.887 200.728 176.094C193.656 174.301 191.735 174.971 190.911 177.286C190.15 179.416 210.663 190.682 213.932 192.461C213.983 192.488 214.04 192.504 214.097 192.507C214.155 192.509 214.213 192.498 214.265 192.474C214.318 192.451 214.365 192.415 214.402 192.371C214.439 192.326 214.465 192.274 214.478 192.217C214.7 191.272 215.239 189.246 215.816 189.09C216.566 188.888 219.986 182.488 219.798 179.972C219.61 177.456 216.076 172.122 216.076 172.122Z" fill="black"/>
<path d="M215.729 172.122C215.729 172.122 207.452 177.887 200.38 176.094C193.309 174.301 191.387 174.971 190.564 177.286C189.803 179.416 210.315 190.682 213.585 192.461C213.636 192.488 213.692 192.504 213.75 192.507C213.808 192.509 213.865 192.498 213.918 192.474C213.971 192.451 214.017 192.415 214.054 192.371C214.091 192.326 214.117 192.274 214.131 192.217C214.353 191.272 214.892 189.246 215.468 189.09C216.219 188.888 219.638 182.488 219.451 179.972C219.263 177.456 215.729 172.122 215.729 172.122Z" fill="#F3B5B7"/>
<path d="M284.073 158.282L260.792 155.154C260.792 155.154 222.915 173.224 218.398 173.571L219.44 181.564H226.39C229.17 181.564 256.274 175.656 260.097 169.749C262.308 169.161 264.658 169.408 266.699 170.444C270.174 172.181 303.533 182.954 303.533 182.954L284.073 158.282Z" fill="#575988"/>
<path opacity="0.1" d="M284.073 158.282L260.792 155.154C260.792 155.154 222.915 173.224 218.398 173.571L219.44 181.564H226.39C229.17 181.564 256.274 175.656 260.097 169.749C262.308 169.161 264.658 169.408 266.699 170.444C270.174 172.181 303.533 182.954 303.533 182.954L284.073 158.282Z" fill="black"/>
<path d="M242.722 169.054L238.9 173.919L242.722 176.004L248.282 171.834L242.722 169.054Z" fill="#F7C4A7"/>
<path d="M309.093 163.494C309.093 163.494 296.583 152.784 295.718 150.842C294.853 148.899 274.344 135.695 272.954 135.347C271.564 135 267.046 132.567 262.529 140.907C258.012 149.247 241.332 169.401 241.332 169.401C241.332 169.401 246.544 176.699 248.282 176.351C250.019 176.004 269.479 159.672 270.869 151.679C270.869 151.679 272.259 148.552 275.386 153.764C278.514 158.977 298.668 183.996 302.49 183.648C302.49 183.648 317.432 186.081 320.56 180.174C323.687 174.266 309.093 163.494 309.093 163.494Z" fill="#575988"/>
<path d="M316.216 112.587C316.216 112.587 311.873 114.498 311.525 122.49C311.178 130.482 303.533 144.035 303.533 144.035L304.228 160.019C304.228 160.019 312.568 168.359 313.263 173.571C313.958 178.784 319.865 182.258 319.865 182.258C319.865 182.258 326.815 178.784 327.857 174.266C328.9 169.749 329.595 158.629 331.332 154.459C333.07 150.289 332.027 124.228 332.027 124.228L326.815 115.193L324.035 112.065L316.737 120.405C316.737 120.405 312.741 115.019 316.216 112.587Z" fill="#DDDBE2"/>
<path opacity="0.1" d="M305.965 154.807C305.965 154.807 304.923 142.297 308.05 139.517L314.305 121.795C314.305 121.795 316.564 113.282 316.216 112.587C315.869 111.892 308.05 119.363 308.05 119.363L302.838 137.78L304.228 157.239L305.965 154.807Z" fill="black"/>
<path d="M305.618 154.808C305.618 154.808 304.575 142.298 307.703 139.518L313.958 121.796C313.958 121.796 316.39 113.109 316.042 112.414C315.695 111.719 307.703 119.364 307.703 119.364L302.49 137.781L303.88 157.24L305.618 154.808Z" fill="#575988"/>
<path d="M308.05 149.247C308.05 149.247 290.676 143.687 289.633 142.297C288.591 140.907 277.471 131.872 273.649 138.127C269.826 144.382 287.896 146.119 287.896 146.119L306.313 157.239L308.05 149.247Z" fill="#F7C4A7"/>
<path opacity="0.1" d="M243.476 173.887L238.333 172.963C238.333 172.963 229.91 183.752 225.521 182.658C221.132 181.563 217.095 186.286 221.73 187.801C225.917 189.17 244.001 191.085 247.444 191.439C247.514 191.446 247.585 191.439 247.651 191.418C247.718 191.396 247.78 191.361 247.832 191.315C247.885 191.268 247.927 191.212 247.957 191.148C247.986 191.085 248.002 191.016 248.004 190.946C248.03 189.602 248.301 188.275 248.803 187.029C249.731 184.753 248.803 179.864 248.546 177.995C248.404 176.899 248.061 175.838 247.535 174.867L243.476 173.887Z" fill="black"/>
<path d="M243.389 174.225L238.246 173.301C238.246 173.301 229.823 184.09 225.441 182.999C221.059 181.908 217.015 186.627 221.65 188.142C225.837 189.511 243.921 191.426 247.365 191.78C247.434 191.788 247.505 191.78 247.571 191.759C247.638 191.738 247.7 191.703 247.752 191.656C247.805 191.61 247.847 191.553 247.877 191.49C247.906 191.426 247.922 191.357 247.924 191.287C247.941 189.947 248.201 188.621 248.692 187.374C249.62 185.098 248.692 180.209 248.435 178.339C248.293 177.244 247.95 176.183 247.424 175.212L243.389 174.225Z" fill="#F3B5B7"/>
<path opacity="0.1" d="M315.869 111.892C322.01 111.892 326.988 106.913 326.988 100.772C326.988 94.6308 322.01 89.6523 315.869 89.6523C309.727 89.6523 304.749 94.6308 304.749 100.772C304.749 106.913 309.727 111.892 315.869 111.892Z" fill="black"/>
<path d="M314.826 111.892C320.967 111.892 325.946 106.913 325.946 100.772C325.946 94.6308 320.967 89.6523 314.826 89.6523C308.685 89.6523 303.707 94.6308 303.707 100.772C303.707 106.913 308.685 111.892 314.826 111.892Z" fill="#F7C4A7"/>
<path d="M325.772 111.718C325.772 111.718 338.977 116.235 338.977 125.617C338.977 135 331.68 149.942 331.332 162.104C330.985 174.266 311.873 172.529 311.873 172.529C311.873 172.529 309.093 131.525 311.873 128.397C314.653 125.27 327.162 113.108 325.772 111.718Z" fill="#575988"/>
<path opacity="0.1" d="M323.34 131.177C323.34 131.177 318.475 152.722 307.008 148.899C307.008 148.899 301.1 157.587 305.27 161.409C305.27 161.409 315.347 163.841 321.95 157.239C328.552 150.637 333.417 148.204 334.459 140.212C335.502 132.22 336.197 121.1 332.722 122.142C329.247 123.185 323.34 131.177 323.34 131.177Z" fill="black"/>
<path d="M323.687 130.83C323.687 130.83 318.822 152.374 307.355 148.552C307.355 148.552 301.448 157.239 305.618 161.061C305.618 161.061 315.695 163.494 322.297 156.891C328.9 150.289 333.764 147.857 334.807 139.864C335.849 131.872 336.544 120.752 333.069 121.795C329.595 122.837 323.687 130.83 323.687 130.83Z" fill="#575988"/>
<path d="M248.991 186.255C248.991 186.286 248.97 186.324 248.959 186.352C248.72 186.946 248.537 187.562 248.414 188.19C248.497 187.919 248.595 187.641 248.706 187.363C248.842 187.006 248.938 186.634 248.991 186.255Z" fill="#DDDBE2"/>
<path d="M221.904 187.127C220.472 186.658 219.871 185.886 219.847 185.073C219.256 186.206 219.628 187.478 221.65 188.138C225.837 189.507 243.924 191.422 247.364 191.776C247.434 191.784 247.505 191.776 247.572 191.755C247.639 191.733 247.701 191.698 247.754 191.651C247.806 191.604 247.848 191.547 247.878 191.483C247.907 191.419 247.923 191.35 247.924 191.279V191.279C247.926 191.152 247.881 191.028 247.797 190.932C247.713 190.836 247.596 190.776 247.469 190.762C243.695 190.359 226.036 188.475 221.904 187.127Z" fill="#DDDBE2"/>
<path d="M191.043 176.675C191.135 176.419 191.252 176.172 191.391 175.938C191.016 176.317 190.737 176.779 190.574 177.287C189.813 179.417 210.325 190.682 213.595 192.462C213.646 192.489 213.703 192.505 213.761 192.507C213.819 192.509 213.877 192.498 213.93 192.474C213.982 192.45 214.029 192.414 214.066 192.369C214.102 192.324 214.128 192.272 214.141 192.215V192.215C214.16 192.135 214.153 192.051 214.119 191.975C214.086 191.9 214.029 191.838 213.957 191.798C210.343 189.821 190.293 178.781 191.043 176.675Z" fill="#DDDBE2"/>
<path d="M215.944 188.483C215.76 188.531 215.58 188.778 215.409 189.115L215.465 189.094C215.618 189.052 215.878 188.747 216.195 188.295C216.127 188.376 216.041 188.44 215.944 188.483V188.483Z" fill="#DDDBE2"/>
<path opacity="0.1" d="M313.283 110.561C312.303 112.722 312.098 115.158 311.379 117.424C309.951 121.917 306.368 125.635 302.077 127.07C305.687 128.509 309.947 126.751 312.738 123.832C315.528 120.913 317.165 117.028 318.732 113.247C322.784 115.971 322.29 122.233 323.653 127.108C324.237 129.23 325.27 131.201 326.682 132.888C328.094 134.576 329.851 135.94 331.836 136.89C333.814 137.778 335.964 138.215 338.131 138.172C340.299 138.128 342.43 137.603 344.37 136.637C340.655 132.119 335.366 125.889 335.995 119.856C336.506 114.971 333 111.239 333.24 106.335C333.587 99.3857 330.925 95.8552 325.942 91.3934C323.03 88.7838 327.614 85.1038 323.858 86.181C322.381 86.605 320.824 85.0239 319.375 85.5451C316.505 86.5876 313.37 86.1845 310.417 86.8795C295.064 90.4864 314.715 107.406 313.283 110.561Z" fill="black"/>
<path d="M313.631 110.214C312.651 112.375 312.446 114.811 311.727 117.077C310.298 121.57 306.716 125.288 302.424 126.723C306.035 128.162 310.295 126.404 313.085 123.485C315.876 120.566 317.512 116.681 319.08 112.9C323.131 115.624 322.638 121.886 324 126.762C324.585 128.883 325.618 130.854 327.029 132.541C328.441 134.229 330.199 135.593 332.183 136.543C334.161 137.431 336.311 137.868 338.479 137.825C340.646 137.781 342.777 137.256 344.717 136.29C341.003 131.772 336.061 126.584 336.69 120.552C337.201 115.666 336.44 110.645 336.69 105.745C337.038 98.7955 333.629 92.082 328.642 87.6202C325.73 85.0105 321.182 84.677 319.729 85.1878C316.859 86.2302 313.725 85.8271 310.771 86.5221C295.412 90.1395 315.063 107.059 313.631 110.214Z" fill="#FC6681"/>
<circle cx="237" cy="98" r="40" fill="#00A6FB"/>
<path d="M223 100.36V108.36L237 116L251 108.36V100.36L237 108L223 100.36ZM237 80L215 92L237 104L255 94.18V108H259V92L237 80Z" fill="white"/>
</g>
<defs>
<linearGradient id="paint0_linear" x1="206.079" y1="160.547" x2="206.079" y2="33.4526" gradientUnits="userSpaceOnUse">
<stop stop-color="#808080" stop-opacity="0.25"/>
<stop offset="0.54" stop-color="#808080" stop-opacity="0.12"/>
<stop offset="1" stop-color="#808080" stop-opacity="0.1"/>
</linearGradient>
<linearGradient id="paint1_linear" x1="41592.5" y1="73820.6" x2="41592.5" y2="35060.6" gradientUnits="userSpaceOnUse">
<stop stop-color="#808080" stop-opacity="0.25"/>
<stop offset="0.54" stop-color="#808080" stop-opacity="0.12"/>
<stop offset="1" stop-color="#808080" stop-opacity="0.1"/>
</linearGradient>
<linearGradient id="paint2_linear" x1="16618" y1="60188.6" x2="16618" y2="36517.2" gradientUnits="userSpaceOnUse">
<stop stop-color="#808080" stop-opacity="0.25"/>
<stop offset="0.54" stop-color="#808080" stop-opacity="0.12"/>
<stop offset="1" stop-color="#808080" stop-opacity="0.1"/>
</linearGradient>
<linearGradient id="paint3_linear" x1="134429" y1="77856.5" x2="134429" y2="42691.6" gradientUnits="userSpaceOnUse">
<stop stop-color="#808080" stop-opacity="0.25"/>
<stop offset="0.54" stop-color="#808080" stop-opacity="0.12"/>
<stop offset="1" stop-color="#808080" stop-opacity="0.1"/>
</linearGradient>
<clipPath id="clip0">
<rect width="360" height="212.664" fill="white"/>
</clipPath>
</defs>
</svg>
