<svg width="360" height="291" viewBox="0 0 360 291" fill="none" xmlns="http://www.w3.org/2000/svg">
<g clip-path="url(#clip0)">
<path d="M345.739 0.000853422H237.675C232.46 0.000598028 227.4 1.77462 223.327 5.03129C219.255 8.28796 216.411 12.8335 215.264 17.9206L160.662 260.114C160.067 262.756 160.056 265.496 160.631 268.142C161.207 270.788 162.354 273.277 163.993 275.433C165.631 277.589 167.722 279.36 170.117 280.623C172.513 281.885 175.156 282.608 177.861 282.742L288.952 288.215C294.9 288.508 300.752 286.627 305.416 282.922C310.079 279.218 313.235 273.943 314.295 268.082L345.271 96.8491L347.575 97.5075L353.504 65.0521L351.132 64.4593L359.778 16.6617C360.148 14.6144 360.062 12.5105 359.527 10.5001C358.991 8.48973 358.018 6.62232 356.678 5.03102C355.337 3.43973 353.662 2.16374 351.772 1.29403C349.882 0.424318 347.823 -0.0176931 345.743 -0.000493185L345.739 0.000853422Z" fill="#003554"/>
<path d="M251.9 5.22168H239.287C235.664 5.22172 232.15 6.46064 229.329 8.7328C226.508 11.0049 224.548 14.1737 223.776 17.7129L171.364 257.931C171.062 259.314 171.062 260.746 171.365 262.129C171.667 263.512 172.264 264.813 173.116 265.944C173.967 267.075 175.053 268.009 176.298 268.682C177.544 269.355 178.92 269.751 180.333 269.843L291.063 277.101C294.186 277.305 297.276 276.353 299.743 274.425C302.209 272.496 303.879 269.728 304.434 266.647L349.157 18.3583C349.446 16.7513 349.38 15.1004 348.961 13.522C348.543 11.9436 347.784 10.4763 346.736 9.22347C345.689 7.9707 344.379 6.96302 342.9 6.27157C341.421 5.58011 339.808 5.22172 338.175 5.22168H326.209C325.051 5.22165 323.925 5.60342 323.006 6.30791C322.087 7.01239 321.425 8.00029 321.124 9.11866V9.11866C320.858 10.1063 320.274 10.9787 319.462 11.6008C318.65 12.2228 317.656 12.5597 316.633 12.5593H259.825C257.823 12.5593 255.894 11.8035 254.425 10.4432C252.956 9.08285 252.054 7.21811 251.9 5.22168V5.22168Z" fill="white"/>
<path d="M313.111 173.154C313.327 173.161 313.538 173.091 313.705 172.956C313.873 172.821 313.987 172.63 314.026 172.418L338.513 37.2718C338.536 37.1433 338.532 37.0114 338.499 36.8849C338.467 36.7584 338.408 36.6403 338.326 36.5388C338.244 36.4381 338.142 36.3566 338.025 36.3C337.909 36.2434 337.781 36.2132 337.652 36.2114L226.245 34.8955H226.234C226.032 34.8972 225.837 34.9676 225.679 35.095C225.522 35.2225 225.413 35.3995 225.37 35.597L196.503 166.357C196.474 166.485 196.474 166.617 196.502 166.745C196.529 166.872 196.584 166.993 196.662 167.097C196.74 167.201 196.84 167.286 196.954 167.347C197.068 167.408 197.195 167.443 197.324 167.45L313.111 173.154Z" fill="#E6E6E6"/>
<path d="M216.433 181.893C216.331 181.893 216.233 181.927 216.154 181.99C216.074 182.053 216.019 182.141 215.996 182.24L214.952 186.711C214.937 186.774 214.937 186.84 214.95 186.904C214.963 186.967 214.989 187.027 215.028 187.079C215.066 187.132 215.115 187.175 215.172 187.206C215.229 187.238 215.292 187.257 215.356 187.261L274.294 191.45C274.403 191.457 274.511 191.424 274.598 191.358C274.685 191.291 274.745 191.195 274.767 191.088L275.77 185.914C275.782 185.852 275.781 185.787 275.766 185.725C275.751 185.663 275.723 185.604 275.684 185.554C275.645 185.503 275.595 185.462 275.539 185.432C275.482 185.402 275.42 185.385 275.356 185.381L216.46 181.893L216.433 181.893Z" fill="#E6E6E6"/>
<path d="M288.038 208.058C288.145 208.067 288.25 208.037 288.337 207.975C288.423 207.913 288.485 207.822 288.51 207.718L289.788 202.534C289.803 202.47 289.805 202.404 289.792 202.34C289.78 202.276 289.753 202.215 289.715 202.162C289.676 202.109 289.627 202.065 289.569 202.034C289.512 202.002 289.449 201.983 289.383 201.978L214.116 196.714C214.014 196.706 213.912 196.734 213.828 196.792C213.744 196.85 213.683 196.936 213.654 197.035L212.327 201.514C212.308 201.578 212.304 201.646 212.314 201.712C212.325 201.778 212.35 201.841 212.388 201.896C212.425 201.951 212.475 201.997 212.533 202.03C212.59 202.064 212.655 202.084 212.721 202.089L288.038 208.058Z" fill="#E6E6E6"/>
<path d="M283.996 224.676C284.102 224.684 284.208 224.655 284.295 224.592C284.381 224.53 284.443 224.439 284.468 224.335L285.745 219.151C285.761 219.088 285.763 219.021 285.75 218.957C285.738 218.893 285.711 218.832 285.673 218.779C285.634 218.726 285.585 218.683 285.527 218.651C285.47 218.619 285.407 218.6 285.341 218.596L210.074 213.331C209.972 213.323 209.87 213.351 209.786 213.409C209.702 213.468 209.641 213.553 209.612 213.652L208.285 218.132C208.266 218.196 208.262 218.263 208.272 218.329C208.283 218.395 208.308 218.458 208.345 218.513C208.383 218.568 208.433 218.614 208.491 218.647C208.548 218.681 208.613 218.701 208.679 218.707L283.996 224.676Z" fill="#E6E6E6"/>
<path d="M153.498 283.177C153.498 286.935 119.093 287.336 76.749 289.982C34.4422 292.626 0 286.935 0 283.177C0 279.418 34.603 271.856 76.749 276.371C119.093 280.908 153.498 279.418 153.498 283.177Z" fill="#E6E6E6"/>
<path d="M249.331 253.084C249.438 253.095 249.546 253.067 249.634 253.004C249.722 252.942 249.784 252.85 249.809 252.745L252.509 241.944C252.525 241.88 252.527 241.815 252.515 241.751C252.503 241.687 252.477 241.626 252.439 241.573C252.401 241.52 252.353 241.476 252.296 241.444C252.239 241.412 252.176 241.392 252.112 241.387L205.89 237.499C205.782 237.492 205.675 237.523 205.588 237.587C205.501 237.651 205.439 237.744 205.414 237.849L203.111 248.216C203.097 248.278 203.097 248.343 203.109 248.405C203.122 248.467 203.149 248.526 203.186 248.578C203.224 248.629 203.272 248.672 203.327 248.704C203.382 248.735 203.444 248.755 203.507 248.761L249.331 253.084Z" fill="#007cbd"/>
<path d="M62.7006 209.067C63.2826 208.668 63.7701 208.147 64.1286 207.539C64.4872 206.931 64.7082 206.253 64.7759 205.55C64.8436 204.848 64.7565 204.139 64.5207 203.475C64.2849 202.81 63.9061 202.204 63.4111 201.702L65.2826 159.926L55.7546 160.995L56.3083 201.858C55.5182 202.745 55.081 203.891 55.0797 205.079C55.0785 206.267 55.5132 207.414 56.3015 208.303C57.0897 209.192 58.1767 209.76 59.3563 209.901C60.5359 210.041 61.726 209.744 62.7011 209.065L62.7006 209.067Z" fill="#A0616A"/>
<path d="M80.0827 279.784L85.5058 280.738L90.8656 260.274L83.7601 258.867L80.0827 279.784Z" fill="#A0616A"/>
<path d="M95.0806 287.611L78.0371 284.615L79.1947 278.03L89.6532 279.869C91.3997 280.176 92.9526 281.164 93.9704 282.616C94.9882 284.068 95.3876 285.865 95.0805 287.611L95.0806 287.611Z" fill="#2F2E41"/>
<path d="M65.1981 282.499H70.7043L73.3235 261.261H65.1972L65.1981 282.499Z" fill="#A0616A"/>
<path d="M81.3213 287.612L64.0164 287.613L64.0161 280.927L74.6349 280.927C76.4082 280.927 78.1088 281.631 79.3628 282.885C80.6167 284.139 81.3212 285.839 81.3213 287.612V287.612Z" fill="#2F2E41"/>
<path d="M88.1699 274.886C88.0841 274.886 87.9983 274.881 87.9131 274.871L81.4323 274.338C81.1373 274.303 80.8523 274.209 80.5949 274.06C80.3374 273.912 80.1127 273.713 79.9345 273.475C79.7562 273.238 79.6282 272.966 79.5581 272.678C79.488 272.389 79.4773 272.089 79.5267 271.796L85.9603 240.052L81.9183 218.731C81.8853 218.557 81.7908 218.402 81.6522 218.293C81.5136 218.184 81.3403 218.129 81.1641 218.137C80.988 218.146 80.821 218.218 80.6939 218.341C80.5668 218.463 80.4882 218.627 80.4726 218.803L74.5168 272.978C74.4613 273.549 74.1862 274.076 73.7496 274.447C73.3131 274.819 72.7492 275.007 72.1769 274.971L66.0712 274.744C65.5362 274.706 65.0336 274.473 64.6583 274.09C64.2829 273.707 64.0609 273.199 64.034 272.664L64.5218 207.197L96.1759 203.24L98.3873 237.391L98.3784 237.428L90.2983 273.211C90.1821 273.688 89.9092 274.112 89.5233 274.416C89.1375 274.72 88.6609 274.885 88.1699 274.886V274.886Z" fill="#2F2E41"/>
<path d="M74.9605 132.856C81.0526 132.856 85.9913 127.918 85.9913 121.826C85.9913 115.734 81.0526 110.795 74.9605 110.795C68.8684 110.795 63.9298 115.734 63.9298 121.826C63.9298 127.918 68.8684 132.856 74.9605 132.856Z" fill="#A0616A"/>
<path d="M85.354 212.179C83.6288 212.19 81.9367 211.706 80.478 210.785C75.1335 207.445 69.0655 208.772 65.9235 209.861C65.6116 209.97 65.2791 210.007 64.9509 209.97C64.6226 209.932 64.307 209.821 64.0277 209.645C63.7517 209.471 63.5185 209.238 63.3455 208.962C63.1725 208.685 63.0643 208.373 63.0289 208.049L57.3157 157.019C56.3582 148.468 61.5087 140.43 69.5622 137.904C69.8649 137.809 70.1725 137.72 70.4851 137.635C72.9913 136.955 75.6159 136.833 78.1744 137.277C80.7328 137.721 83.1628 138.721 85.2934 140.205C87.4637 141.706 89.2788 143.664 90.6109 145.941C91.943 148.219 92.7596 150.761 93.0034 153.388L97.8138 204.761C97.8466 205.094 97.8017 205.429 97.6827 205.741C97.5637 206.054 97.3738 206.334 97.128 206.561C95.4412 208.12 90.5467 212.179 85.354 212.179Z" fill="#007cbd"/>
<path d="M67.9548 167.962L55.0652 166.545C54.6984 166.504 54.3446 166.385 54.0279 166.196C53.7112 166.007 53.4391 165.751 53.23 165.447C53.021 165.143 52.8799 164.798 52.8164 164.434C52.753 164.07 52.7686 163.698 52.8623 163.341L56.1435 150.835C56.2402 149.897 56.5216 148.988 56.9717 148.16C57.4217 147.332 58.0313 146.602 58.7654 146.011C59.4994 145.42 60.3433 144.98 61.2482 144.718C62.1531 144.455 63.1012 144.374 64.0376 144.48C64.9739 144.585 65.8801 144.876 66.7036 145.334C67.5272 145.792 68.2517 146.408 68.8355 147.148C69.4193 147.888 69.8507 148.736 70.1048 149.643C70.3589 150.551 70.4306 151.499 70.3158 152.435L70.8031 165.313C70.8171 165.682 70.7514 166.049 70.6105 166.391C70.4696 166.732 70.2568 167.038 69.9867 167.29C69.7165 167.541 69.3954 167.732 69.045 167.848C68.6947 167.964 68.3235 168.003 67.9566 167.963L67.9548 167.962Z" fill="#007cbd"/>
<path d="M97.7613 207.278C98.2908 206.812 98.7116 206.236 98.9942 205.59C99.2767 204.943 99.4142 204.243 99.3968 203.538C99.3794 202.833 99.2076 202.14 98.8935 201.508C98.5795 200.877 98.1307 200.322 97.5789 199.882L94.4024 158.186L85.0657 160.287L90.5449 200.894C89.8674 201.87 89.5715 203.06 89.7133 204.239C89.8552 205.419 90.425 206.505 91.3146 207.293C92.2042 208.08 93.3518 208.513 94.5397 208.511C95.7277 208.508 96.8734 208.07 97.7595 207.278H97.7613Z" fill="#A0616A"/>
<path d="M81.4867 165.34C81.2165 165.089 81.0036 164.783 80.8627 164.442C80.7218 164.101 80.6561 163.733 80.6702 163.364L81.1575 150.486C81.0524 149.555 81.1317 148.613 81.3907 147.713C81.6497 146.813 82.0835 145.973 82.6672 145.241C83.2509 144.509 83.9732 143.898 84.7927 143.445C85.6122 142.992 86.513 142.705 87.4435 142.6C88.3741 142.495 89.3162 142.574 90.2162 142.833C91.1161 143.092 91.9562 143.526 92.6885 144.109C93.4208 144.693 94.031 145.415 94.4842 146.235C94.9374 147.054 95.2247 147.955 95.3298 148.886L98.611 161.392C98.7047 161.749 98.7203 162.122 98.6569 162.485C98.5934 162.849 98.4523 163.194 98.2433 163.498C98.0342 163.802 97.7621 164.058 97.4454 164.247C97.1287 164.437 96.7749 164.556 96.4081 164.596L83.5185 166.013C83.1516 166.054 82.7803 166.014 82.4299 165.898C82.0796 165.782 81.7584 165.591 81.4885 165.34L81.4867 165.34Z" fill="#007cbd"/>
<path d="M74.3044 133.271C74.1078 133.271 73.9119 133.249 73.7206 133.204L73.6644 133.19C63.9662 131.708 61.8226 126.089 61.3524 123.743C60.8655 121.314 61.4197 118.97 62.6728 118.059C61.9897 115.903 62.0992 113.989 62.9993 112.372C64.5712 109.552 67.9759 108.6 68.4336 108.481C71.1543 106.474 74.4095 107.814 75.0019 108.085C80.2651 106.138 82.2776 107.759 82.6405 108.121C84.9929 108.543 86.4269 109.452 86.903 110.823C87.7972 113.397 84.9696 116.598 84.8488 116.734L84.7859 116.804L80.5732 117.004C80.1734 117.023 79.7822 117.126 79.4247 117.306C79.0673 117.486 78.7517 117.74 78.4985 118.049C78.2452 118.359 78.0599 118.719 77.9545 119.105C77.8492 119.491 77.8262 119.895 77.887 120.291C78.001 120.801 78.145 121.304 78.3182 121.797C79.0368 124.046 79.5757 125.966 78.8814 126.697C78.7238 126.838 78.5297 126.932 78.3212 126.968C78.1128 127.004 77.8983 126.981 77.7024 126.901C77.0436 126.725 76.5967 126.762 76.3739 127.011C76.0281 127.397 76.1337 128.374 76.6713 129.762C76.8399 130.201 76.8853 130.678 76.8025 131.14C76.7197 131.603 76.5119 132.035 76.2015 132.388C75.9677 132.664 75.6771 132.885 75.3494 133.038C75.0217 133.19 74.6649 133.27 74.3035 133.271H74.3044Z" fill="#2F2E41"/>
<circle cx="75" cy="45" r="40" fill="#007cbd"/>
<path d="M61 47.36V55.36L75 63L89 55.36V47.36L75 55L61 47.36ZM75 27L53 39L75 51L93 41.18V55H97V39L75 27Z" fill="white"/>
</g>
<defs>
<clipPath id="clip0">
<rect width="360" height="290.66" fill="white"/>
</clipPath>
</defs>
</svg>
