<svg width="360" height="291" viewBox="0 0 360 291" fill="none" xmlns="http://www.w3.org/2000/svg">
<g clip-path="url(#clip0)">
<path d="M205.086 256.78C202.596 253.294 199.227 250.744 194.99 249.789C191.296 248.957 187.497 249.098 183.742 249.127L136.259 249.494C132.193 249.525 128.294 253.048 128.483 257.27C128.67 261.457 131.9 265.081 136.259 265.047C150.169 264.94 164.078 264.832 177.987 264.725C181.266 264.7 184.547 264.641 187.826 264.651C188.563 264.654 189.296 264.693 190.032 264.701C190.21 264.703 190.339 264.702 190.429 264.698C190.452 264.705 190.471 264.711 190.501 264.719C190.885 264.824 191.279 264.897 191.665 264.997C191.529 265.001 191.915 265.242 192.109 265.323C192.135 265.376 192.192 265.469 192.287 265.613C192.419 265.86 192.81 266.613 192.826 266.589C193.414 268.076 193.899 269.602 194.278 271.155C195.182 274.58 195.38 275.296 195.511 278.51C195.675 282.569 198.97 286.48 203.287 286.286C207.36 286.104 211.24 282.863 211.064 278.51C210.767 271.173 209.479 262.932 205.086 256.78Z" fill="#E6E6E6"/>
<path d="M139.05 274.329C138.159 268.924 137.284 263.516 136.375 258.115C135.452 252.635 133.568 247.617 129.304 244.02C128.164 243.06 126.983 242.163 125.797 241.268C125.379 240.954 124.963 240.639 124.551 240.318C124.526 240.298 124.51 240.286 124.489 240.27C124.444 240.231 124.389 240.184 124.316 240.123C122.539 238.618 120.821 237.047 119.186 235.377C117.733 233.894 116.344 232.348 115.018 230.738C114.687 230.336 114.36 229.93 114.037 229.521C113.981 229.451 113.682 229.064 113.485 228.812C113.302 228.56 112.967 228.104 112.911 228.024C112.534 227.491 112.163 226.953 111.8 226.41C109.323 222.699 107.178 218.776 105.39 214.689C105.213 214.283 105.04 213.875 104.871 213.465C104.826 213.34 104.767 213.179 104.689 212.965C104.329 211.974 103.969 210.985 103.64 209.982C102.94 207.853 102.338 205.693 101.835 203.5C101.586 202.418 101.362 201.33 101.163 200.237C101.06 199.674 100.964 199.111 100.874 198.546C100.86 198.453 100.772 197.843 100.721 197.499C100.683 197.153 100.612 196.541 100.603 196.446C100.546 195.877 100.495 195.308 100.451 194.737C100.351 193.454 100.284 192.169 100.249 190.881C100.189 188.593 100.23 186.305 100.372 184.018C100.453 182.732 100.568 181.45 100.709 180.17C100.718 180.092 100.724 180.029 100.73 179.973C100.739 179.916 100.749 179.851 100.761 179.77C100.866 179.063 100.976 178.357 101.099 177.653C101.565 174.98 102.172 172.333 102.916 169.724C103.269 168.489 103.651 167.265 104.065 166.051C104.249 165.512 104.439 164.976 104.635 164.441C104.622 164.475 105.209 162.975 105.217 162.924C107.548 157.418 111.36 152.398 111.365 146.143C111.368 141.908 107.785 137.851 103.588 138.047C101.495 138.126 99.515 139.014 98.0643 140.524C96.6136 142.034 95.8059 144.049 95.8114 146.143C95.8114 146.238 95.8109 146.319 95.8107 146.398C95.7716 146.53 95.7388 146.64 95.7094 146.737C95.2549 147.725 94.6981 148.663 94.1993 149.627C92.8332 152.263 91.6673 154.985 90.5597 157.748C88.7464 162.246 87.3585 166.905 86.4141 171.662C84.3612 182.086 84.2019 192.794 85.9437 203.274C88.9589 221.653 98.9024 239.246 112.726 251.072C113.926 252.098 115.155 253.089 116.395 254.061C116.908 254.463 117.426 254.858 117.946 255.25C118.192 255.435 119.211 256.238 118.763 255.849C119.726 256.672 120.132 257.085 120.379 257.691C120.415 257.831 120.464 258.02 120.53 258.28C120.705 258.963 120.87 259.644 121.008 260.337C122.211 266.389 123.048 272.542 124.053 278.633C124.744 282.818 129.896 285.542 133.619 284.288C137.953 282.828 139.791 278.813 139.05 274.329Z" fill="#E6E6E6"/>
<path d="M205.872 290.025C202.606 290.034 199.47 288.747 197.152 286.446C194.834 284.145 193.523 281.019 193.507 277.753V268.882C184.219 269.922 152.415 269.681 143.299 268.216V277.398C143.274 280.661 141.961 283.783 139.645 286.082C137.328 288.381 134.197 289.671 130.934 289.671C127.67 289.671 124.539 288.381 122.223 286.082C119.907 283.783 118.593 280.661 118.569 277.398V259.37C106.221 252.51 95.9278 242.48 88.7508 230.314C81.5737 218.149 77.7731 204.288 77.7412 190.163C77.7412 165.944 88.7175 143.35 107.856 128.176C120.299 118.277 135.418 112.323 151.27 111.081C153.422 110.912 155.587 110.826 157.705 110.826C165.167 110.826 198.833 111.979 207.28 114.409L226.541 95.2972C226.824 95.0124 227.186 94.8184 227.58 94.7399C227.974 94.6614 228.382 94.702 228.753 94.8565C229.126 95.0051 229.446 95.2632 229.67 95.5968C229.894 95.9305 230.012 96.3242 230.009 96.7261V99.7649L233.759 96.0505C234.042 95.7654 234.403 95.5711 234.797 95.4925C235.19 95.4138 235.599 95.4544 235.969 95.6091C236.343 95.7576 236.663 96.0157 236.887 96.3495C237.112 96.6833 237.23 97.0772 237.227 97.4794V131.437C246.891 140.15 254.258 151.112 258.673 163.353C263.087 175.594 264.415 188.734 262.537 201.61C260.658 214.487 255.633 226.701 247.906 237.17C240.178 247.64 229.988 256.042 218.237 261.631V277.753C218.221 281.019 216.91 284.145 214.592 286.446C212.274 288.747 209.138 290.034 205.872 290.025ZM194.479 267.78V277.753C194.504 280.758 195.715 283.632 197.849 285.749C199.982 287.866 202.866 289.053 205.872 289.053C208.877 289.053 211.761 287.866 213.895 285.749C216.029 283.632 217.24 280.758 217.265 277.753V261.017L217.542 260.885C230.727 254.629 241.921 244.84 249.879 232.607C260.02 216.996 264.238 198.27 261.768 179.819C259.299 161.368 250.305 144.41 236.416 132.015L236.254 131.87V97.4794C236.258 97.2704 236.197 97.0654 236.081 96.892C235.964 96.7186 235.797 96.5851 235.602 96.5094C235.409 96.4266 235.195 96.4043 234.988 96.4453C234.781 96.4864 234.592 96.5889 234.445 96.7394L229.037 102.096V96.7261C229.04 96.5172 228.98 96.3122 228.863 96.1387C228.746 95.9653 228.579 95.8318 228.385 95.7562C228.19 95.6735 227.976 95.6514 227.769 95.6927C227.562 95.7341 227.373 95.8369 227.225 95.9878L207.552 115.509L207.272 115.421C199.42 112.964 165.224 111.798 157.705 111.798C155.612 111.798 153.473 111.883 151.347 112.05C135.687 113.277 120.752 119.159 108.46 128.938C89.5554 143.926 78.7132 166.242 78.7132 190.163C78.7455 204.163 82.5258 217.899 89.6613 229.944C96.7969 241.989 107.027 251.904 119.29 258.659L119.541 258.797V277.398C119.566 280.403 120.777 283.277 122.911 285.393C125.045 287.509 127.929 288.696 130.934 288.696C133.939 288.696 136.823 287.509 138.956 285.393C141.09 283.277 142.302 280.403 142.327 277.398V267.052L142.903 267.161C151.095 268.702 185.593 268.945 193.93 267.851L194.479 267.78Z" fill="#003554"/>
<path d="M139.979 57.8963L86.1548 74.0718C84.4428 74.5883 83.0059 75.7633 82.1597 77.3386C81.3135 78.914 81.1273 80.7608 81.6419 82.4733C82.1565 84.1859 83.3299 85.6241 84.9043 86.472C86.4786 87.32 88.3252 87.5083 90.0384 86.9956L137.141 72.8372L138.127 72.5407C138.327 67.456 139.707 62.4874 142.157 58.0275C141.849 57.8891 141.521 57.8037 141.185 57.7747C140.779 57.7354 140.369 57.7767 139.979 57.8963Z" fill="#00A6FB"/>
<path d="M89.1076 90.4442C88.3931 90.4425 87.6972 90.2163 87.1183 89.7975C86.5393 89.3788 86.1066 88.7887 85.8813 88.1106L82.5155 77.9543C82.375 77.5301 82.3193 77.0825 82.3518 76.6368C82.3842 76.1912 82.5041 75.7563 82.7047 75.357C82.9052 74.9577 83.1825 74.6018 83.5206 74.3097C83.8587 74.0176 84.251 73.7949 84.6751 73.6544L128.483 59.1362C128.907 58.9957 129.355 58.94 129.8 58.9724C130.246 59.0048 130.681 59.1247 131.08 59.3252C131.479 59.5256 131.835 59.8028 132.127 60.1408C132.419 60.4788 132.642 60.8711 132.783 61.2952L136.148 71.4515C136.428 72.2869 136.372 73.1984 135.992 73.9931C135.611 74.7878 134.937 75.4032 134.11 75.7089C134.07 75.7241 134.029 75.7384 133.988 75.7519L90.1812 90.2696C89.835 90.385 89.4725 90.4439 89.1076 90.4442Z" fill="#2F2E41"/>
<path d="M171.149 39.8593C162.307 39.8627 153.814 43.3064 147.467 49.4614C141.119 55.6165 137.416 63.9999 137.14 72.8373C137.131 73.1823 137.126 73.5323 137.126 73.8823C137.126 80.6114 139.121 87.1894 142.86 92.7844C146.598 98.3795 151.912 102.74 158.129 105.315C164.346 107.891 171.187 108.564 177.787 107.252C184.386 105.939 190.449 102.698 195.207 97.9402C199.965 93.1819 203.205 87.1196 204.518 80.5198C205.831 73.92 205.157 67.0791 202.582 60.8622C200.007 54.6453 195.646 49.3317 190.051 45.5932C184.456 41.8547 177.878 39.8593 171.149 39.8593ZM171.149 106.933C162.386 106.924 153.985 103.439 147.789 97.2427C141.592 91.0464 138.107 82.6451 138.098 73.8823C138.098 73.4302 138.108 72.9831 138.127 72.5408C138.39 66.0666 140.551 59.8126 144.34 54.5564C148.129 49.3003 153.38 45.2738 159.439 42.9778C165.498 40.6818 172.098 40.2175 178.419 41.6426C184.74 43.0677 190.502 46.3194 194.99 50.9933C199.478 55.6672 202.492 61.5571 203.659 67.9307C204.826 74.3043 204.094 80.8803 201.554 86.841C199.013 92.8018 194.777 97.8843 189.371 101.457C183.965 105.029 177.629 106.933 171.149 106.933Z" fill="#003554"/>
<path d="M199.826 73.8822C199.826 81.4877 196.804 88.7817 191.427 94.1596C186.049 99.5375 178.755 102.559 171.149 102.559C163.544 102.559 156.25 99.5375 150.872 94.1596C145.494 88.7817 142.473 81.4877 142.473 73.8822C142.473 72.9733 142.516 72.079 142.599 71.1944C143.29 63.8543 146.781 57.0624 152.348 52.2288C157.915 47.3953 165.13 44.8915 172.495 45.2374C179.859 45.5833 186.807 48.7523 191.897 54.0863C196.986 59.4204 199.826 66.5097 199.826 73.8822Z" fill="#E6E6E6"/>
<path d="M179.689 75.7875C178.994 74.8736 178.079 74.1498 177.03 73.6829C175.736 73.1376 174.4 72.6987 173.035 72.3706V64.5648C175.133 64.8812 177.101 65.7785 178.717 67.1554L180.301 63.7774C179.39 62.9655 178.344 62.3191 177.21 61.8672C175.953 61.3584 174.634 61.02 173.287 60.8611V56.9047H169.618V60.9C168.201 61.0592 166.834 61.5181 165.608 62.2463C164.501 62.9018 163.568 63.8157 162.891 64.9099C162.245 65.9777 161.91 67.205 161.924 68.4531C161.861 69.8057 162.253 71.1404 163.037 72.2442C163.759 73.1999 164.712 73.956 165.807 74.4412C167.122 75.0026 168.481 75.4529 169.871 75.7875V83.2677C167.394 83.0809 165.035 82.1394 163.11 80.5702L161.525 83.953C162.602 84.8428 163.826 85.537 165.142 86.0041C166.583 86.5201 168.09 86.8342 169.618 86.9373V90.8597H173.288V86.8644C175.326 86.6417 177.237 85.7653 178.736 84.3661C179.396 83.7331 179.918 82.9699 180.267 82.1249C180.617 81.2799 180.787 80.3715 180.768 79.4571C180.829 78.1476 180.449 76.8555 179.689 75.7875ZM169.871 71.5443C168.977 71.2733 168.146 70.8272 167.426 70.232C167.141 69.9782 166.915 69.6644 166.766 69.3132C166.616 68.9619 166.546 68.5819 166.561 68.2004C166.534 67.3347 166.852 66.4938 167.445 65.8625C168.103 65.2001 168.951 64.76 169.871 64.6036V71.5443ZM175.339 81.8873C174.719 82.5233 173.911 82.9439 173.035 83.0879V76.6526C173.873 76.8774 174.656 77.2692 175.339 77.8046C175.597 78.0255 175.803 78.302 175.94 78.6133C176.077 78.9247 176.142 79.2629 176.131 79.6029C176.165 80.4371 175.882 81.2532 175.339 81.8873Z" fill="#00A6FB"/>
<path d="M90.6696 131.607C89.9182 131.605 89.1883 131.356 88.5929 130.898C87.9975 130.44 87.57 129.798 87.3766 129.072L85.5442 122.136C85.3148 121.264 85.4406 120.337 85.8939 119.558C86.3472 118.778 87.0911 118.211 87.9623 117.979L145.773 102.703C146.645 102.476 147.572 102.603 148.351 103.057C149.13 103.511 149.697 104.255 149.929 105.126L151.481 111.003L151.19 111.025C136.364 112.178 122.178 117.553 110.31 126.516L110.226 126.557L91.5327 131.495C91.251 131.569 90.9609 131.607 90.6696 131.607Z" fill="#2F2E41"/>
<path d="M81.0951 165.866C74.3136 164.864 67.8279 162.412 62.08 158.676C59.2324 156.827 56.5962 154.671 54.2188 152.247C51.8723 149.853 49.6274 147.133 48.4651 143.946C47.3469 140.997 47.4045 137.731 48.6261 134.823C49.8311 131.933 52.1328 129.639 55.0267 128.443C57.9379 127.282 61.4552 127.158 64.2885 128.43C65.6386 129.021 66.8069 129.962 67.6734 131.154C68.0762 131.704 68.3745 132.323 68.5533 132.981C68.7192 133.577 68.7343 134.205 68.5972 134.808C68.4311 135.41 68.1381 135.97 67.7379 136.45C67.3377 136.93 66.8396 137.318 66.2769 137.59C65.0386 138.225 63.6968 138.634 62.3146 138.798C60.9245 138.988 58.9276 139.16 57.81 138.044C57.5799 137.824 57.399 137.557 57.2789 137.261C57.1949 137.035 57.1662 136.792 57.1952 136.553C57.1789 136.658 57.2626 136.323 57.2578 136.336C57.2401 136.386 57.1636 136.507 57.2724 136.321C57.3064 136.26 57.3442 136.201 57.3857 136.145C57.3488 136.193 57.2676 136.272 57.4125 136.136C57.5322 136.004 57.6861 135.909 57.8569 135.861C57.9242 135.842 57.9924 135.826 58.0599 135.808C58.2313 135.761 57.889 135.81 58.0644 135.804C58.1321 135.802 58.2006 135.804 58.268 135.801C58.4401 135.793 58.0983 135.754 58.2632 135.795C58.3272 135.812 58.3906 135.827 58.4537 135.847C58.5908 135.89 58.3566 135.747 58.4495 135.854C58.5584 135.98 58.3352 135.732 58.459 135.854C58.5205 135.914 58.5786 135.978 58.6328 136.045C58.8474 136.257 59.1368 136.376 59.4384 136.376C59.74 136.376 60.0294 136.257 60.244 136.045C60.4513 135.828 60.567 135.54 60.567 135.24C60.567 134.94 60.4513 134.651 60.244 134.434C59.1206 133.041 56.9015 133.385 55.765 134.563C54.3156 136.064 54.8896 138.443 56.2994 139.752C57.8954 141.235 60.1559 141.338 62.2089 141.09C63.9439 140.923 65.6348 140.446 67.2002 139.679C68.7556 138.915 69.9721 137.601 70.6141 135.991C70.904 135.132 71.0081 134.221 70.9196 133.319C70.8311 132.416 70.552 131.543 70.1007 130.757C68.2881 127.349 64.5347 125.602 60.8249 125.299C58.9148 125.15 56.9941 125.38 55.1737 125.978C53.3534 126.576 51.6697 127.528 50.22 128.781C47.4257 131.296 45.7051 134.79 45.4139 138.538C45.09 142.425 46.5979 146.199 48.7964 149.335C51.0979 152.522 53.8443 155.362 56.9519 157.77C63.0271 162.62 70.1534 165.981 77.7604 167.583C78.6652 167.77 79.5748 167.93 80.4894 168.063C80.7804 168.134 81.0873 168.091 81.3477 167.943C81.608 167.795 81.8023 167.554 81.8908 167.268C81.9689 166.976 81.9293 166.666 81.7803 166.404C81.6314 166.141 81.3853 165.948 81.0951 165.866L81.0951 165.866Z" fill="#003554"/>
<path d="M189.67 116.35C179.734 116.21 169.83 116.462 159.957 117.106C156.582 117.327 153.662 118.519 153.662 120.524C153.662 122.2 156.559 124.164 159.957 123.942C169.825 123.298 179.729 123.045 189.67 123.186C197.774 123.3 197.769 116.464 189.67 116.35Z" fill="#CCCCCC"/>
<path d="M174.985 122.847C173.911 122.847 148.687 122.807 148.687 119.323C148.687 115.839 173.911 115.799 174.985 115.799C176.058 115.799 201.282 115.839 201.282 119.323C201.282 122.807 176.058 122.847 174.985 122.847ZM149.673 119.323C150.364 120.379 159.635 121.875 174.985 121.875C190.334 121.875 199.606 120.379 200.296 119.323C199.606 118.267 190.334 116.771 174.985 116.771C159.635 116.771 150.364 118.267 149.673 119.323V119.323Z" fill="#003554"/>
<path d="M255.013 214.442C260.597 214.287 267.547 214.093 272.9 210.182C274.495 208.97 275.804 207.424 276.738 205.652C277.672 203.88 278.207 201.925 278.305 199.925C278.415 196.837 277.299 194.14 275.163 192.336C272.367 189.973 268.284 189.419 263.883 190.712L268.442 157.395L265.096 156.936L259.736 196.105L262.531 194.823C265.771 193.336 270.219 192.58 272.983 194.916C273.661 195.526 274.19 196.285 274.528 197.133C274.865 197.982 275.003 198.896 274.93 199.806C274.848 201.295 274.446 202.749 273.752 204.068C273.058 205.388 272.088 206.543 270.908 207.454C266.741 210.497 261.202 210.89 254.919 211.066L255.013 214.442Z" fill="#003554"/>
<path d="M245.761 160.268H227.567V163.646H245.761V160.268Z" fill="#003554"/>
<path d="M98.9027 147.143C98.0929 147.141 97.3104 146.85 96.6955 146.323C96.0806 145.796 95.6735 145.067 95.547 144.267L94.4365 137.18C94.2978 136.289 94.5184 135.379 95.0498 134.65C95.5812 133.921 96.3801 133.433 97.2712 133.292L156.341 124.036C157.232 123.898 158.142 124.118 158.871 124.65C159.6 125.181 160.088 125.98 160.229 126.871L161.339 133.959C161.478 134.85 161.257 135.76 160.726 136.489C160.194 137.218 159.396 137.706 158.504 137.847L99.435 147.102C99.2589 147.129 99.0809 147.143 98.9027 147.143Z" fill="#2F2E41"/>
<path d="M74.4566 64.0871C88.1468 64.0871 99.2448 52.989 99.2448 39.2989C99.2448 25.6087 88.1468 14.5107 74.4566 14.5107C60.7665 14.5107 49.6685 25.6087 49.6685 39.2989C49.6685 52.989 60.7665 64.0871 74.4566 64.0871Z" fill="#00A6FB"/>
<path d="M88.4912 45.7126C89.2835 45.4355 90.0072 44.992 90.6137 44.4119C91.015 43.9983 91.321 43.502 91.5103 42.9577C91.6997 42.4134 91.7677 41.8343 91.7096 41.2609C91.6759 40.8522 91.5482 40.4569 91.3364 40.1058C91.1245 39.7547 90.8344 39.4574 90.4886 39.237C89.5916 38.6853 88.4062 38.7061 87.2094 39.2609L87.0712 29.5848L86.0993 29.5987L86.2616 40.9739L87.0015 40.4886C87.8595 39.9268 89.0924 39.5194 89.9793 40.065C90.1987 40.2095 90.3818 40.4025 90.5144 40.6293C90.647 40.856 90.7255 41.1102 90.7438 41.3722C90.7847 41.7994 90.7331 42.2303 90.5925 42.6357C90.4519 43.0411 90.2257 43.4115 89.9291 43.7216C88.8754 44.7671 87.3157 45.1175 85.5356 45.4379L85.7079 46.3945C86.6542 46.2508 87.5857 46.0226 88.4912 45.7126Z" fill="#2F2E41"/>
<path d="M97.0808 28.9057L91.9043 29.6896L92.0498 30.6506L97.2263 29.8667L97.0808 28.9057Z" fill="#2F2E41"/>
<path d="M80.7414 31.3796L75.5649 32.1636L75.7105 33.1246L80.8869 32.3406L80.7414 31.3796Z" fill="#2F2E41"/>
<path d="M90.8379 146.71C89.9464 146.708 89.0767 146.435 88.3444 145.927C87.612 145.418 87.0519 144.699 86.7384 143.864L69.6476 98.0942C67.5587 92.4808 67.7818 86.268 70.2679 80.8188C72.754 75.3696 77.3002 71.1292 82.9089 69.0278L96.8057 63.8386C97.3431 63.6366 97.9151 63.5429 98.4888 63.5628C99.0625 63.5827 99.6267 63.7159 100.149 63.9547C100.67 64.1874 101.139 64.5215 101.529 64.9376C101.919 65.3537 102.222 65.8434 102.421 66.378L134.08 126.153C134.286 126.692 134.383 127.267 134.365 127.843C134.348 128.42 134.217 128.988 133.98 129.513C133.742 130.039 133.403 130.513 132.982 130.907C132.561 131.301 132.066 131.608 131.525 131.81L92.3666 146.432C91.8778 146.616 91.36 146.71 90.8379 146.71Z" fill="#2F2E41"/>
<path d="M92.5894 65.4129L124.002 107.419L102.746 65.8538C102.571 65.3688 102.301 64.9231 101.954 64.5423C101.606 64.1614 101.186 63.8528 100.719 63.6341C100.252 63.4153 99.7466 63.2908 99.2313 63.2675C98.7161 63.2442 98.2013 63.3227 97.7163 63.4984L92.5894 65.4129Z" fill="#E6E6E6"/>
<path d="M142.327 97.3144L86.2401 93.7016C85.3561 93.6446 84.4919 93.4141 83.6969 93.0232C82.9019 92.6323 82.1917 92.0886 81.6069 91.4232C81.022 90.7578 80.5739 89.9837 80.2882 89.1452C80.0025 88.3066 79.8847 87.42 79.9417 86.5359C79.9986 85.6518 80.2291 84.7876 80.6201 83.9927C81.011 83.1977 81.5547 82.4875 82.2201 81.9026C82.8854 81.3178 83.6595 80.8697 84.4981 80.584C85.3367 80.2983 86.2233 80.1805 87.1073 80.2375L143.194 83.85C143.608 83.8766 144.013 83.9846 144.386 84.1676C144.758 84.3507 145.09 84.6053 145.364 84.9169C145.638 85.2285 145.848 85.591 145.982 85.9837C146.116 86.3764 146.171 86.7917 146.144 87.2057L145.683 94.3647C145.629 95.2009 145.245 95.9814 144.616 96.5345C143.987 97.0877 143.163 97.3682 142.327 97.3144Z" fill="#00A6FB"/>
<path d="M127.34 99.6304C127.266 99.6304 127.192 99.6281 127.117 99.6233H127.117L81.0616 96.6567C80.6157 96.6281 80.1799 96.5119 79.7789 96.3147C79.3779 96.1176 79.0197 95.8434 78.7248 95.5078C78.4298 95.1723 78.2038 94.7819 78.0597 94.3589C77.9156 93.936 77.8562 93.4889 77.885 93.043L78.6725 80.815C78.7013 80.3691 78.8175 79.9333 79.0147 79.5323C79.2119 79.1314 79.4861 78.7732 79.8217 78.4783C80.1573 78.1833 80.5478 77.9573 80.9707 77.8133C81.3937 77.6692 81.8409 77.6099 82.2867 77.6387L128.342 80.605C129.242 80.6639 130.082 81.0775 130.678 81.755C131.273 82.4325 131.576 83.3185 131.519 84.2187L130.731 96.4469C130.688 97.1021 130.456 97.7309 130.064 98.2578C129.672 98.7846 129.137 99.1872 128.522 99.4171C128.144 99.5584 127.743 99.6307 127.34 99.6304Z" fill="#2F2E41"/>
<path d="M74.1723 22.8151C77.4333 20.0105 81.9114 22.5194 85.6511 22.0802C89.2289 21.66 92.054 18.4506 92.7758 15.0411C93.6178 11.0634 91.5531 7.0782 88.5099 4.59813C85.1769 1.88184 80.7565 1.10206 76.5677 1.60459C71.7667 2.18055 67.376 4.41846 63.4362 7.12533C59.6334 9.65718 56.1363 12.6206 53.0147 15.9563C50.2194 19.0435 47.8511 22.7234 47.0948 26.8776C46.4075 30.6529 46.9323 34.8365 49.1641 38.0348C50.3476 39.674 51.9335 40.9806 53.769 41.8285C55.6827 42.7682 57.7242 43.44 59.5783 44.5025C62.3816 46.1091 65.1063 49.4402 64.2281 52.9067C64.0398 53.6639 63.6683 54.3633 63.1462 54.9432C62.5189 55.6396 61.3873 54.7193 62.0163 54.0211C63.121 52.7948 63.0775 51.1593 62.4888 49.6952C61.7887 48.0454 60.5491 46.6823 58.973 45.8291C57.0322 44.7195 54.8895 44.0346 52.9004 43.0239C50.9964 42.1006 49.3437 40.731 48.083 39.0316C45.7022 35.7231 44.9901 31.4173 45.53 27.4341C46.1143 23.1237 48.329 19.2068 51.1053 15.9244C54.1266 12.3523 57.8379 9.32856 61.6293 6.61216C65.6975 3.69743 70.1921 1.23323 75.1656 0.34197C79.4769 -0.430615 84.15 0.0450372 87.92 2.3945C91.4391 4.58756 94.1377 8.36007 94.406 12.5755C94.5024 14.4935 94.0859 16.4025 93.1995 18.1061C92.3131 19.8097 90.9887 21.2464 89.3627 22.2682C87.6943 23.2666 85.7545 23.716 83.817 23.553C81.7457 23.4204 79.6723 22.7861 77.5878 22.9622C76.6445 23.0194 75.7456 23.3826 75.0273 23.9967C74.3148 24.6095 73.4657 23.4229 74.1723 22.8151V22.8151Z" fill="#2F2E41"/>
<path d="M359.421 290.253H0.578515C0.425318 290.252 0.278551 290.191 0.170381 290.083C0.0622116 289.974 0.00146484 289.827 0.00146484 289.674C0.00146484 289.521 0.0622116 289.374 0.170381 289.265C0.278551 289.157 0.425318 289.096 0.578515 289.095H359.421C359.575 289.095 359.722 289.156 359.83 289.265C359.939 289.373 360 289.521 360 289.674C360 289.828 359.939 289.975 359.83 290.083C359.722 290.192 359.575 290.253 359.421 290.253Z" fill="#003554"/>
</g>
<defs>
<clipPath id="clip0">
<rect width="360" height="290.253" fill="white"/>
</clipPath>
</defs>
</svg>
