<svg width="360" height="223" viewBox="0 0 360 223" fill="none" xmlns="http://www.w3.org/2000/svg">
<g clip-path="url(#clip0)">
<path d="M24.983 206.497C26.6248 207.074 28.3874 207.219 30.1013 206.917C31.8151 206.615 33.4223 205.877 34.768 204.774C38.1952 201.897 39.2711 197.158 40.144 192.77L42.7299 179.79L37.316 183.518C33.4224 186.199 29.4415 188.966 26.7455 192.849C24.0494 196.733 22.8728 202.034 25.0388 206.236" fill="#E6E6E6"/>
<path d="M25.4459 222.212C24.898 218.22 24.3344 214.177 24.7188 210.143C25.0603 206.56 26.153 203.061 28.3787 200.191C29.56 198.671 30.9974 197.368 32.6263 196.342C33.0512 196.075 33.4418 196.748 33.0191 197.014C30.2008 198.795 28.0209 201.425 26.7937 204.525C25.4384 207.973 25.2208 211.731 25.4562 215.392C25.5975 217.607 25.8967 219.806 26.1985 222.004C26.2228 222.104 26.2082 222.209 26.1576 222.298C26.1071 222.387 26.0244 222.453 25.9266 222.483C25.827 222.51 25.7209 222.496 25.6312 222.446C25.5416 222.395 25.4756 222.31 25.4477 222.211L25.4459 222.212Z" fill="#F2F2F2"/>
<path d="M134.022 136.214C133.624 136.403 133.191 136.505 132.751 136.513L91.9084 137.634C90.2084 137.671 88.5634 137.031 87.3353 135.855C86.1071 134.679 85.3964 133.064 85.3594 131.364C85.3225 129.664 85.9623 128.019 87.1382 126.791C88.3141 125.562 89.9297 124.852 91.6297 124.815L132.472 123.694C133.3 123.677 134.1 123.989 134.698 124.561C135.295 125.133 135.642 125.919 135.661 126.746L135.804 133.325C135.816 133.927 135.655 134.52 135.339 135.032C135.023 135.545 134.565 135.955 134.022 136.214Z" fill="#007cbd"/>
<path d="M81.616 222.295H75.0355C74.208 222.294 73.4148 221.965 72.8297 221.38C72.2446 220.794 71.9155 220.001 71.9146 219.174V164.328C71.9155 163.501 72.2446 162.708 72.8297 162.123C73.4148 161.537 74.208 161.208 75.0355 161.207H81.616C82.4434 161.208 83.2367 161.537 83.8218 162.123C84.4069 162.708 84.736 163.501 84.7369 164.328V219.174C84.736 220.001 84.4069 220.794 83.8218 221.38C83.2367 221.965 82.4434 222.294 81.616 222.295Z" fill="#007cbd"/>
<path d="M99.0897 222.295H92.5091C91.6817 222.294 90.8884 221.965 90.3033 221.38C89.7182 220.794 89.3891 220.001 89.3882 219.174V164.328C89.3891 163.501 89.7182 162.708 90.3033 162.123C90.8884 161.537 91.6817 161.208 92.5091 161.207H99.0897C99.9171 161.208 100.71 161.537 101.296 162.123C101.881 162.708 102.21 163.501 102.211 164.328V219.174C102.21 220.001 101.881 220.794 101.296 221.38C100.71 221.965 99.9171 222.294 99.0897 222.295Z" fill="#007cbd"/>
<path d="M87.705 104.193C100.263 104.193 110.443 94.0129 110.443 81.455C110.443 68.897 100.263 58.7168 87.705 58.7168C75.147 58.7168 64.9668 68.897 64.9668 81.455C64.9668 94.0129 75.147 104.193 87.705 104.193Z" fill="#007cbd"/>
<path d="M95.4229 180.656H79.065C75.6657 180.669 72.3234 179.783 69.3763 178.089C66.4292 176.395 63.982 173.952 62.2823 171.008C60.5826 168.064 59.6909 164.724 59.6973 161.324C59.7037 157.925 60.6081 154.588 62.3188 151.65L85.1949 112.028C85.4493 111.587 85.8151 111.222 86.2557 110.967C86.6962 110.713 87.196 110.579 87.7047 110.579C88.2134 110.579 88.7131 110.713 89.1537 110.967C89.5942 111.222 89.9601 111.587 90.2144 112.028L112.63 150.853C114.374 153.873 115.292 157.299 115.292 160.787C115.292 164.275 114.374 167.701 112.63 170.721C110.886 173.742 108.378 176.25 105.357 177.994C102.337 179.738 98.9106 180.656 95.4229 180.656Z" fill="#003554"/>
<path d="M93.0717 91C94.5456 90.9591 96.38 90.9079 97.7932 89.8756C98.214 89.5556 98.5597 89.1475 98.8062 88.6798C99.0527 88.2121 99.1939 87.6961 99.2199 87.1681C99.2455 86.7928 99.1839 86.4167 99.04 86.0692C98.8961 85.7217 98.6738 85.4122 98.3905 85.1648C97.6524 84.5411 96.5746 84.3948 95.413 84.7362L96.6165 75.9416L95.733 75.8206L94.3183 86.1597L95.056 85.8212C95.9113 85.4289 97.0853 85.2293 97.8149 85.8458C97.994 86.007 98.1336 86.2073 98.2227 86.4312C98.3119 86.6551 98.3482 86.8965 98.3288 87.1367C98.3072 87.5297 98.2012 87.9135 98.018 88.2618C97.8348 88.6101 97.5787 88.9149 97.2672 89.1555C96.1674 89.9588 94.7052 90.0624 93.0469 90.1088L93.0717 91Z" fill="#003554"/>
<path d="M105.788 76.7001H100.986V77.5918H105.788V76.7001Z" fill="#003554"/>
<path d="M90.6297 76.7001H85.8271V77.5918H90.6297V76.7001Z" fill="#003554"/>
<path d="M82.3566 175.57C82.1677 175.173 82.0657 174.739 82.0575 174.299L80.9366 133.456C80.8996 131.757 81.5395 130.112 82.7154 128.883C83.8913 127.655 85.5069 126.944 87.2068 126.908C88.9067 126.871 90.5517 127.51 91.7799 128.686C93.008 129.862 93.7188 131.478 93.7557 133.178L94.8765 174.021C94.8936 174.848 94.5819 175.648 94.0097 176.246C93.4375 176.843 92.6516 177.19 91.8244 177.209L85.2456 177.352C84.6437 177.364 84.0509 177.203 83.5385 176.887C83.026 176.571 82.6157 176.114 82.3566 175.57Z" fill="#007cbd"/>
<path d="M85.5954 64.6467C88.358 68.2596 92.7437 70.6832 97.3789 70.1094C101.793 69.5629 105.434 66.4863 106.348 62.0817C106.747 59.9992 106.639 57.8514 106.034 55.8192C105.429 53.787 104.345 51.93 102.872 50.4047C99.7476 47.1187 95.2763 45.3511 90.8504 44.7449C82.4665 43.5967 73.856 46.5499 67.517 52.0578C64.3336 54.7961 61.7926 58.2021 60.0747 62.0337C58.4198 65.8369 57.6317 69.9607 57.7674 74.1062C58.011 82.2986 61.5995 90.4753 67.7912 95.9084C68.5602 96.5811 69.3651 97.2115 70.2024 97.7969C70.9086 98.2923 71.5777 97.1332 70.8775 96.642C64.5367 92.1938 60.4921 84.956 59.3821 77.3509C58.8007 73.5191 59.0599 69.6067 60.1418 65.8851C61.2237 62.1634 63.1024 58.7218 65.6475 55.7988C70.7676 49.977 78.275 46.1929 86.0506 45.8539C93.8748 45.5127 103.652 49.0058 105.116 57.7153C105.773 61.6191 104.313 65.7224 100.736 67.6768C96.9061 69.7693 92.2097 68.9082 88.9183 66.2058C88.1124 65.5467 87.3849 64.797 86.7503 63.9717C86.2345 63.297 85.0722 63.9625 85.5954 64.6467H85.5954Z" fill="#003554"/>
<path d="M315.683 5.27709L122.764 33.1458L135.988 124.689L328.908 96.8206L315.683 5.27709Z" fill="#F1F1F1"/>
<path d="M311.301 13.924L129.415 40.1989L140.448 116.576L322.335 90.3016L311.301 13.924Z" fill="white"/>
<path d="M314.837 -6.21322e-06L121.918 27.8687L123.102 36.0644L316.021 8.19578L314.837 -6.21322e-06Z" fill="#E5E5E5"/>
<path d="M128.705 33.343C129.552 33.343 130.24 32.6558 130.24 31.8081C130.24 30.9605 129.552 30.2733 128.705 30.2733C127.857 30.2733 127.17 30.9605 127.17 31.8081C127.17 32.6558 127.857 33.343 128.705 33.343Z" fill="white"/>
<path d="M134.47 32.5101C135.318 32.5101 136.005 31.8229 136.005 30.9753C136.005 30.1276 135.318 29.4404 134.47 29.4404C133.623 29.4404 132.936 30.1276 132.936 30.9753C132.936 31.8229 133.623 32.5101 134.47 32.5101Z" fill="white"/>
<path d="M140.236 31.6771C141.084 31.6771 141.771 30.9899 141.771 30.1422C141.771 29.2946 141.084 28.6074 140.236 28.6074C139.389 28.6074 138.702 29.2946 138.702 30.1422C138.702 30.9899 139.389 31.6771 140.236 31.6771Z" fill="white"/>
<path d="M360 44.6663H165.078V137.16H360V44.6663Z" fill="#E6E6E6"/>
<path d="M354.426 52.5978H170.652V129.768H354.426V52.5978Z" fill="white"/>
<path d="M359.917 39.3224H164.995V47.6032H359.917V39.3224Z" fill="#CBCBCB"/>
<path d="M171.149 45.7265C171.997 45.7265 172.684 45.0393 172.684 44.1917C172.684 43.344 171.997 42.6569 171.149 42.6569C170.301 42.6569 169.614 43.344 169.614 44.1917C169.614 45.0393 170.301 45.7265 171.149 45.7265Z" fill="white"/>
<path d="M176.974 45.7265C177.822 45.7265 178.509 45.0393 178.509 44.1917C178.509 43.344 177.822 42.6569 176.974 42.6569C176.127 42.6569 175.439 43.344 175.439 44.1917C175.439 45.0393 176.127 45.7265 176.974 45.7265Z" fill="white"/>
<path d="M182.8 45.7265C183.648 45.7265 184.335 45.0393 184.335 44.1917C184.335 43.344 183.648 42.6569 182.8 42.6569C181.953 42.6569 181.266 43.344 181.266 44.1917C181.266 45.0393 181.953 45.7265 182.8 45.7265Z" fill="white"/>
<path d="M302.431 64.3306H276.548V66.2759H302.431V64.3306Z" fill="#E6E6E6"/>
<path d="M316.516 70.0415H276.548V71.9869H316.516V70.0415Z" fill="#E6E6E6"/>
<path d="M309.537 75.4805H276.964V77.4258H309.537V75.4805Z" fill="#E6E6E6"/>
<path d="M295.564 81.4482H276.548V83.3936H295.564V81.4482Z" fill="#E6E6E6"/>
<path d="M305.248 87.2775H276.548V89.2228H305.248V87.2775Z" fill="#E6E6E6"/>
<path d="M267.921 63.7186H264.751V66.8879H267.921V63.7186Z" fill="#E6E6E6"/>
<path d="M267.921 69.4296H264.751V72.5988H267.921V69.4296Z" fill="#E6E6E6"/>
<path d="M267.921 74.8685H264.751V78.0378H267.921V74.8685Z" fill="#E6E6E6"/>
<path d="M267.921 80.8363H264.751V84.0056H267.921V80.8363Z" fill="#E6E6E6"/>
<path d="M267.921 86.6655H264.751V89.8348H267.921V86.6655Z" fill="#E6E6E6"/>
<path d="M302.431 93.1432H276.548V95.0886H302.431V93.1432Z" fill="#E6E6E6"/>
<path d="M316.516 98.8541H276.548V100.799H316.516V98.8541Z" fill="#E6E6E6"/>
<path d="M309.537 104.293H276.964V106.238H309.537V104.293Z" fill="#E6E6E6"/>
<path d="M295.564 110.261H276.548V112.206H295.564V110.261Z" fill="#E6E6E6"/>
<path d="M305.248 116.09H276.548V118.035H305.248V116.09Z" fill="#E6E6E6"/>
<path d="M267.921 92.5312H264.751V95.7005H267.921V92.5312Z" fill="#E6E6E6"/>
<path d="M267.921 98.2422H264.751V101.411H267.921V98.2422Z" fill="#E6E6E6"/>
<path d="M267.921 103.681H264.751V106.85H267.921V103.681Z" fill="#E6E6E6"/>
<path d="M267.921 109.649H264.751V112.818H267.921V109.649Z" fill="#E6E6E6"/>
<path d="M267.921 115.478H264.751V118.647H267.921V115.478Z" fill="#E6E6E6"/>
<path d="M220.552 108.403H194.67V110.348H220.552V108.403Z" fill="#E6E6E6"/>
<path d="M223.78 113.458H191.207V115.403H223.78V113.458Z" fill="#E6E6E6"/>
<path d="M224.433 83.8627C224.432 86.7865 223.673 89.6601 222.229 92.2028C220.786 94.7454 218.708 96.8703 216.198 98.3698C213.688 99.8693 210.832 100.692 207.909 100.758C204.985 100.824 202.095 100.131 199.52 98.746L199.517 98.7427C196.887 97.3256 194.679 95.2366 193.119 92.6885C191.559 90.1404 190.702 87.2243 190.636 84.2373C190.57 81.2502 191.297 78.2991 192.743 75.6846C194.189 73.07 196.302 70.8855 198.867 69.3536C201.432 67.8217 204.358 66.9972 207.345 66.9641C210.333 66.9309 213.276 67.6904 215.874 69.1651C218.473 70.6397 220.634 72.7769 222.137 75.3588C223.641 77.9407 224.433 80.875 224.433 83.8627V83.8627Z" fill="#E6E6E6"/>
<path d="M207.62 83.0423C210.157 83.0423 212.214 80.9855 212.214 78.4482C212.214 75.911 210.157 73.8541 207.62 73.8541C205.083 73.8541 203.026 75.911 203.026 78.4482C203.026 80.9855 205.083 83.0423 207.62 83.0423Z" fill="white"/>
<path d="M215.464 92.5348C210.328 94.3376 204.728 94.3159 199.606 92.4734L199.603 92.4711L203.026 85.7151H212.214L215.464 92.5348Z" fill="white"/>
<path d="M156.755 125.811C148.748 125.811 142.233 118.891 142.233 110.385C142.233 101.878 148.748 94.9583 156.755 94.9583C164.762 94.9583 171.277 101.878 171.277 110.385C171.277 118.891 164.762 125.811 156.755 125.811ZM156.755 98.8561C150.897 98.8561 146.131 104.028 146.131 110.385C146.131 116.741 150.897 121.913 156.755 121.913C162.613 121.913 167.379 116.741 167.379 110.385C167.379 104.028 162.613 98.8561 156.755 98.8561Z" fill="#007cbd"/>
<path d="M170.507 152.695H143.003C140.578 152.693 138.252 151.728 136.537 150.013C134.822 148.298 133.858 145.973 133.855 143.547V116.569C133.857 114.909 134.517 113.317 135.691 112.143C136.866 110.969 138.457 110.308 140.118 110.306H173.392C175.052 110.308 176.644 110.969 177.818 112.143C178.993 113.317 179.653 114.909 179.655 116.569V143.547C179.652 145.973 178.687 148.298 176.972 150.013C175.257 151.728 172.932 152.693 170.507 152.695Z" fill="#003554"/>
<path d="M162.115 125.654C162.115 124.701 161.862 123.766 161.381 122.943C160.9 122.121 160.208 121.442 159.377 120.976C158.546 120.509 157.606 120.273 156.654 120.291C155.701 120.309 154.771 120.581 153.958 121.078C153.145 121.575 152.48 122.28 152.03 123.12C151.58 123.96 151.363 124.905 151.4 125.857C151.436 126.809 151.726 127.734 152.239 128.536C152.752 129.339 153.47 129.991 154.319 130.424V138.809H159.191V130.424C160.071 129.975 160.809 129.293 161.325 128.451C161.841 127.609 162.114 126.641 162.115 125.654Z" fill="white"/>
<path d="M170.313 222.916H0.445847C0.327601 222.916 0.214198 222.869 0.130585 222.786C0.0469726 222.702 0 222.589 0 222.47C0 222.352 0.0469726 222.239 0.130585 222.155C0.214198 222.072 0.327601 222.025 0.445847 222.025H170.313C170.432 222.025 170.545 222.072 170.629 222.155C170.712 222.239 170.759 222.352 170.759 222.47C170.759 222.589 170.712 222.702 170.629 222.786C170.545 222.869 170.432 222.916 170.313 222.916Z" fill="#003554"/>
</g>
<defs>
<clipPath id="clip0">
<rect width="360" height="222.916" fill="white"/>
</clipPath>
</defs>
</svg>
