<svg width="360" height="179" viewBox="0 0 360 179" fill="none" xmlns="http://www.w3.org/2000/svg">
<g clip-path="url(#clip0)">
<path d="M206.422 174.444C204.194 174.442 202.058 173.556 200.483 171.98C198.908 170.404 198.023 168.267 198.023 166.039C198.023 163.811 198.908 161.674 200.483 160.098C202.058 158.522 204.194 157.636 206.422 157.634H331.267C330.639 156.481 329.712 155.519 328.584 154.848C327.456 154.177 326.167 153.823 324.855 153.822H76.6968C73.4592 153.826 70.3554 155.114 68.0675 157.405C65.7796 159.696 64.4947 162.801 64.4951 166.039C64.4968 169.276 65.7823 172.38 68.0698 174.67C70.3573 176.961 73.4598 178.25 76.6968 178.256H324.855C326.167 178.255 327.456 177.9 328.584 177.23C329.712 176.559 330.639 175.597 331.267 174.444L206.422 174.444Z" fill="#CCCCCC"/>
<path d="M331.432 162.265H212.734C212.553 162.265 212.378 162.192 212.25 162.064C212.122 161.935 212.05 161.761 212.05 161.579C212.05 161.398 212.122 161.223 212.25 161.095C212.378 160.966 212.553 160.894 212.734 160.893H331.432C331.614 160.894 331.788 160.966 331.917 161.095C332.045 161.223 332.117 161.398 332.117 161.579C332.117 161.761 332.045 161.935 331.917 162.064C331.788 162.192 331.614 162.265 331.432 162.265Z" fill="#CCCCCC"/>
<path d="M331.433 166.725H212.734C212.552 166.725 212.378 166.653 212.249 166.524C212.121 166.395 212.048 166.221 212.048 166.039C212.048 165.857 212.121 165.682 212.249 165.554C212.378 165.425 212.552 165.353 212.734 165.353H331.433C331.615 165.353 331.789 165.425 331.918 165.554C332.046 165.682 332.119 165.857 332.119 166.039C332.119 166.221 332.046 166.395 331.918 166.524C331.789 166.653 331.615 166.725 331.433 166.725Z" fill="#CCCCCC"/>
<path d="M331.432 171.185H212.734C212.553 171.184 212.378 171.112 212.25 170.983C212.122 170.855 212.05 170.68 212.05 170.499C212.05 170.317 212.122 170.143 212.25 170.014C212.378 169.885 212.553 169.813 212.734 169.812H331.432C331.614 169.813 331.788 169.885 331.917 170.014C332.045 170.143 332.117 170.317 332.117 170.499C332.117 170.68 332.045 170.855 331.917 170.983C331.788 171.112 331.614 171.184 331.432 171.185Z" fill="#CCCCCC"/>
<path d="M174.175 150.773C171.947 150.771 169.81 149.885 168.235 148.309C166.66 146.733 165.776 144.596 165.776 142.368C165.776 140.14 166.66 138.003 168.235 136.427C169.81 134.851 171.947 133.964 174.175 133.963H299.019C298.392 132.81 297.465 131.848 296.336 131.177C295.208 130.506 293.92 130.152 292.607 130.151H44.4495C41.2118 130.155 38.1081 131.443 35.8202 133.734C33.5322 136.025 32.2472 139.13 32.2476 142.368C32.2492 145.605 33.5349 148.709 35.8224 150.999C38.1099 153.29 41.2125 154.579 44.4495 154.585H292.607C293.92 154.584 295.208 154.229 296.336 153.558C297.465 152.888 298.392 151.925 299.019 150.773L174.175 150.773Z" fill="#00A6FB"/>
<path d="M299.185 138.594H180.487C180.306 138.594 180.131 138.521 180.003 138.393C179.875 138.264 179.803 138.09 179.803 137.908C179.803 137.726 179.875 137.552 180.003 137.424C180.131 137.295 180.306 137.222 180.487 137.222H299.185C299.367 137.222 299.542 137.294 299.671 137.423C299.799 137.552 299.871 137.726 299.871 137.908C299.871 138.09 299.799 138.265 299.671 138.393C299.542 138.522 299.367 138.594 299.185 138.594Z" fill="#CCCCCC"/>
<path d="M299.185 143.054H180.487C180.305 143.054 180.13 142.982 180.002 142.853C179.873 142.724 179.801 142.55 179.801 142.368C179.801 142.186 179.873 142.011 180.002 141.883C180.13 141.754 180.305 141.682 180.487 141.682H299.185C299.367 141.682 299.542 141.754 299.67 141.883C299.799 142.011 299.871 142.186 299.871 142.368C299.871 142.55 299.799 142.724 299.67 142.853C299.542 142.982 299.367 143.054 299.185 143.054Z" fill="#CCCCCC"/>
<path d="M299.185 147.514H180.487C180.306 147.513 180.131 147.441 180.003 147.312C179.875 147.184 179.803 147.009 179.803 146.828C179.803 146.646 179.875 146.472 180.003 146.343C180.131 146.215 180.306 146.142 180.487 146.142H299.185C299.276 146.141 299.365 146.159 299.448 146.193C299.532 146.228 299.608 146.278 299.672 146.342C299.735 146.406 299.786 146.481 299.821 146.565C299.855 146.648 299.873 146.737 299.873 146.828C299.873 146.918 299.855 147.007 299.821 147.091C299.786 147.174 299.735 147.25 299.672 147.313C299.608 147.377 299.532 147.428 299.448 147.462C299.365 147.496 299.276 147.514 299.185 147.514Z" fill="#CCCCCC"/>
<path d="M141.927 126.312C139.699 126.31 137.563 125.424 135.988 123.848C134.413 122.272 133.528 120.135 133.528 117.907C133.528 115.679 134.413 113.542 135.988 111.966C137.563 110.39 139.699 109.504 141.927 109.502H266.772C266.144 108.349 265.217 107.387 264.089 106.716C262.961 106.046 261.672 105.691 260.36 105.69H12.2017C8.96408 105.694 5.86034 106.982 3.57243 109.273C1.28452 111.564 -0.000402823 114.669 9.47297e-08 117.907C0.00163811 121.144 1.28721 124.248 3.57468 126.538C5.86215 128.829 8.96471 130.118 12.2017 130.124H260.36C261.672 130.123 262.961 129.768 264.089 129.098C265.217 128.427 266.144 127.465 266.772 126.312L141.927 126.312Z" fill="#CCCCCC"/>
<path d="M266.937 114.133H148.239C148.057 114.133 147.883 114.061 147.755 113.932C147.627 113.803 147.555 113.629 147.555 113.447C147.555 113.266 147.627 113.091 147.755 112.963C147.883 112.834 148.057 112.762 148.239 112.761H266.937C267.119 112.761 267.294 112.834 267.422 112.962C267.551 113.091 267.623 113.265 267.623 113.447C267.623 113.629 267.551 113.804 267.422 113.933C267.294 114.061 267.119 114.133 266.937 114.133Z" fill="#CCCCCC"/>
<path d="M266.938 118.593H148.239C148.149 118.593 148.06 118.575 147.977 118.541C147.894 118.506 147.818 118.456 147.754 118.392C147.69 118.329 147.64 118.253 147.605 118.17C147.571 118.086 147.553 117.997 147.553 117.907C147.553 117.817 147.571 117.728 147.605 117.644C147.64 117.561 147.69 117.486 147.754 117.422C147.818 117.358 147.894 117.308 147.977 117.273C148.06 117.239 148.149 117.221 148.239 117.221H266.938C267.028 117.221 267.117 117.239 267.2 117.273C267.283 117.308 267.359 117.358 267.423 117.422C267.486 117.486 267.537 117.561 267.571 117.644C267.606 117.728 267.624 117.817 267.624 117.907C267.624 117.997 267.606 118.086 267.571 118.17C267.537 118.253 267.486 118.329 267.423 118.392C267.359 118.456 267.283 118.506 267.2 118.541C267.117 118.575 267.028 118.593 266.938 118.593Z" fill="#CCCCCC"/>
<path d="M266.938 123.053H148.239C148.057 123.053 147.883 122.981 147.754 122.852C147.626 122.723 147.553 122.549 147.553 122.367C147.553 122.185 147.626 122.01 147.754 121.882C147.883 121.753 148.057 121.681 148.239 121.681H266.938C267.028 121.681 267.117 121.698 267.2 121.733C267.283 121.767 267.359 121.818 267.423 121.882C267.486 121.945 267.537 122.021 267.571 122.104C267.606 122.187 267.624 122.277 267.624 122.367C267.624 122.457 267.606 122.546 267.571 122.629C267.537 122.713 267.486 122.788 267.423 122.852C267.359 122.916 267.283 122.966 267.2 123.001C267.117 123.035 267.028 123.053 266.938 123.053Z" fill="#CCCCCC"/>
<path d="M269.679 74.13C269.028 74.129 268.401 73.8806 267.927 73.4352C267.452 72.9898 267.164 72.3805 267.121 71.7309L266.74 65.9146C266.696 65.2353 266.923 64.5661 267.372 64.0542C267.821 63.5424 268.455 63.2299 269.134 63.1854L314.702 60.2012C315.42 60.1541 316.14 60.249 316.822 60.4804C317.504 60.7119 318.133 61.0753 318.674 61.5499C319.215 62.0246 319.658 62.6011 319.976 63.2467C320.294 63.8923 320.482 64.5943 320.529 65.3126C320.576 66.0309 320.482 66.7514 320.25 67.433C320.019 68.1146 319.655 68.744 319.181 69.2851C318.706 69.8263 318.129 70.2687 317.484 70.587C316.838 70.9053 316.136 71.0934 315.418 71.1404L269.85 74.1244C269.793 74.1281 269.736 74.1299 269.679 74.13Z" fill="#00A6FB"/>
<path d="M278.664 74.8799C278 74.8788 277.363 74.6209 276.885 74.1603C276.407 73.6996 276.126 73.0719 276.1 72.4086L275.775 63.7214C275.763 63.3846 275.817 63.0485 275.934 62.7325C276.051 62.4165 276.229 62.1266 276.459 61.8796C276.688 61.6325 276.964 61.433 277.27 61.2925C277.577 61.1519 277.908 61.0732 278.245 61.0606L315.716 59.6601C316.396 59.6347 317.059 59.8806 317.558 60.3437C318.057 60.8068 318.352 61.4491 318.377 62.1295L318.702 70.8167C318.714 71.1535 318.66 71.4896 318.543 71.8056C318.426 72.1216 318.247 72.4114 318.018 72.6585C317.789 72.9056 317.513 73.1051 317.207 73.2456C316.9 73.3861 316.569 73.4649 316.232 73.4775L278.761 74.878C278.729 74.8793 278.696 74.8799 278.664 74.8799Z" fill="#003554"/>
<path d="M322.574 154.96H316.746C316.065 154.959 315.413 154.688 314.931 154.207C314.45 153.726 314.179 153.073 314.179 152.393V103.813C314.179 103.133 314.45 102.48 314.931 101.999C315.413 101.518 316.065 101.247 316.746 101.247H322.574C323.255 101.247 323.907 101.518 324.389 101.999C324.87 102.48 325.141 103.133 325.141 103.813V152.393C325.141 153.073 324.87 153.726 324.389 154.207C323.907 154.688 323.255 154.959 322.574 154.96Z" fill="#003554"/>
<path d="M296.703 129.281L291.719 126.26C291.137 125.906 290.719 125.337 290.557 124.676C290.395 124.015 290.502 123.317 290.854 122.734L316.035 81.1906C316.389 80.609 316.958 80.1914 317.619 80.0293C318.28 79.8672 318.978 79.9739 319.561 80.326L324.545 83.3473C325.127 83.7007 325.545 84.2704 325.707 84.9314C325.869 85.5923 325.762 86.2906 325.41 86.873L300.229 128.417C299.875 128.998 299.306 129.416 298.645 129.578C297.984 129.74 297.286 129.633 296.703 129.281Z" fill="#003554"/>
<path d="M313.722 50.5487C324.845 50.5487 333.862 41.5315 333.862 30.4083C333.862 19.2851 324.845 10.2679 313.722 10.2679C302.599 10.2679 293.582 19.2851 293.582 30.4083C293.582 41.5315 302.599 50.5487 313.722 50.5487Z" fill="#00A6FB"/>
<path d="M302.82 37.285C302.172 37.0721 301.577 36.723 301.076 36.2611C300.743 35.9313 300.487 35.5328 300.325 35.0936C300.163 34.6543 300.098 34.1849 300.137 33.7183C300.158 33.3858 300.256 33.0627 300.422 32.7742C300.589 32.4857 300.82 32.2396 301.097 32.0553C301.818 31.5933 302.781 31.5919 303.762 32.0241L303.725 24.1616L304.514 24.1578L304.558 33.4011L303.949 33.0183C303.244 32.5751 302.236 32.2632 301.524 32.7201C301.348 32.8408 301.202 33.0005 301.098 33.1867C300.994 33.3729 300.934 33.5807 300.923 33.7938C300.896 34.1414 300.945 34.4907 301.065 34.8179C301.186 35.145 301.375 35.4424 301.621 35.6898C302.493 36.5228 303.766 36.7834 305.217 37.0162L305.091 37.7959C304.321 37.6938 303.56 37.5228 302.82 37.285Z" fill="#003554"/>
<path d="M295.583 23.7643L295.479 24.5472L299.697 25.1042L299.8 24.3213L295.583 23.7643Z" fill="#003554"/>
<path d="M308.894 25.5219L308.791 26.3048L313.008 26.8618L313.112 26.0788L308.894 25.5219Z" fill="#003554"/>
<path d="M330.539 116.847H296.577C295.687 116.846 294.834 116.492 294.204 115.863C293.575 115.234 293.221 114.381 293.22 113.491L300.33 58.9678C300.336 58.0819 300.692 57.2342 301.321 56.61C301.949 55.9858 302.799 55.6358 303.685 55.6365H315.738C320.552 55.6419 325.167 57.5567 328.572 60.9608C331.976 64.3649 333.89 68.9803 333.896 73.7944V113.491C333.895 114.381 333.541 115.234 332.912 115.863C332.282 116.492 331.429 116.846 330.539 116.847Z" fill="#003554"/>
<path d="M359.759 95.3632C359.969 95.8122 360.044 96.3123 359.977 96.8032C359.909 97.2941 359.701 97.755 359.377 98.1303L355.566 102.541C355.346 102.796 355.077 103.005 354.776 103.156C354.475 103.308 354.147 103.398 353.811 103.423C353.475 103.447 353.137 103.405 352.817 103.299C352.497 103.193 352.201 103.025 351.946 102.805L317.391 72.951C316.846 72.4805 316.399 71.9073 316.076 71.2641C315.753 70.6208 315.559 69.9202 315.507 69.2023C315.454 68.4843 315.544 67.763 315.77 67.0796C315.996 66.3962 316.355 65.7641 316.826 65.2193C317.296 64.6746 317.87 64.2279 318.513 63.9047C319.156 63.5816 319.857 63.3883 320.575 63.336C321.293 63.2837 322.014 63.3733 322.698 63.5998C323.381 63.8263 324.013 64.1851 324.558 64.6559L359.113 94.5097C359.386 94.7453 359.606 95.0362 359.759 95.3632Z" fill="#00A6FB"/>
<path d="M352.132 85.5111C352.342 85.96 352.417 86.4601 352.35 86.951C352.282 87.4419 352.074 87.9027 351.75 88.2781L345.241 95.8116C344.796 96.3261 344.164 96.6428 343.486 96.6923C342.807 96.7418 342.136 96.5201 341.621 96.0758L313.246 71.5613C312.991 71.341 312.782 71.0725 312.631 70.7713C312.479 70.4701 312.389 70.142 312.364 69.8058C312.34 69.4696 312.382 69.1319 312.488 68.8119C312.594 68.4919 312.762 68.1959 312.982 67.9408L319.491 60.4073C319.711 60.1522 319.979 59.9431 320.281 59.7917C320.582 59.6404 320.91 59.5499 321.246 59.5254C321.582 59.5008 321.92 59.5428 322.24 59.6488C322.56 59.7548 322.856 59.9228 323.111 60.1432L351.486 84.6576C351.759 84.8932 351.979 85.1841 352.132 85.5111Z" fill="#003554"/>
<path d="M314.099 18.463C311.406 16.235 307.807 18.3423 304.763 18.0432C301.85 17.757 299.505 15.1935 298.866 12.435C298.121 9.21661 299.737 5.94739 302.17 3.88572C304.836 1.6277 308.415 0.926011 311.826 1.26961C315.734 1.66341 319.336 3.4136 322.578 5.55172C325.706 7.54979 328.593 9.90311 331.18 12.5648C333.499 15.0295 335.479 17.9823 336.158 21.3453C336.775 24.4016 336.413 27.8083 334.649 30.4408C333.713 31.7907 332.445 32.8766 330.967 33.5937C329.427 34.3866 327.779 34.9639 326.289 35.8556C324.036 37.204 321.875 39.952 322.641 42.7545C322.806 43.3668 323.119 43.9292 323.552 44.3922C324.072 44.9483 324.977 44.1832 324.455 43.6257C323.539 42.6466 323.549 41.3174 324.005 40.1189C324.548 38.7678 325.534 37.6414 326.801 36.924C328.361 35.9926 330.091 35.4032 331.691 34.5514C333.223 33.772 334.545 32.6339 335.543 31.2339C337.426 28.5095 337.938 25.0007 337.438 21.7733C336.896 18.2807 335.037 15.133 332.731 12.5094C330.221 9.65419 327.16 7.25512 324.038 5.10697C320.688 2.80197 316.999 0.869533 312.945 0.222276C309.431 -0.338795 305.642 0.119727 302.616 2.0865C299.791 3.92236 297.657 7.02862 297.504 10.4572C297.455 12.0167 297.823 13.5611 298.569 14.9314C299.316 16.3016 300.414 17.4482 301.75 18.2532C303.121 19.0385 304.704 19.3737 306.275 19.2113C307.956 19.0716 309.63 18.5244 311.326 18.6352C312.094 18.6672 312.829 18.9484 313.422 19.4361C314.011 19.9229 314.682 18.9458 314.099 18.463Z" fill="#003554"/>
<path d="M290.416 123.436C290.424 123.391 290.432 123.347 290.442 123.303C290.512 122.973 290.647 122.66 290.839 122.383C291.031 122.105 291.276 121.869 291.56 121.687L296.458 118.528C297.03 118.159 297.725 118.033 298.39 118.177C299.055 118.32 299.637 118.722 300.006 119.293L315.116 142.719C315.485 143.291 315.611 143.987 315.468 144.652C315.324 145.318 314.922 145.899 314.35 146.268L309.452 149.427C308.879 149.795 308.184 149.921 307.519 149.778C306.854 149.634 306.273 149.233 305.903 148.661L290.794 125.235C290.448 124.703 290.314 124.062 290.416 123.436Z" fill="#003554"/>
</g>
<defs>
<clipPath id="clip0">
<rect width="360" height="178.256" fill="white"/>
</clipPath>
</defs>
</svg>
