<svg width="360" height="317" viewBox="0 0 360 317" fill="none" xmlns="http://www.w3.org/2000/svg">
<g clip-path="url(#clip0)">
<path d="M313.636 304.796V273.458C313.636 273.458 325.849 295.676 313.636 304.796Z" fill="#F1F1F1"/>
<path d="M314.39 304.791L291.305 283.598C291.305 283.598 315.931 289.626 314.39 304.791Z" fill="#F1F1F1"/>
<path d="M46.1195 304.796V273.458C46.1195 273.458 33.9065 295.676 46.1195 304.796Z" fill="#F1F1F1"/>
<path d="M45.365 304.791L68.4508 283.598C68.4508 283.598 43.8247 289.626 45.365 304.791Z" fill="#F1F1F1"/>
<path d="M255.923 72.3675H254.25V26.5297C254.25 23.0458 253.564 19.5959 252.23 16.3772C250.897 13.1585 248.943 10.2339 246.48 7.77037C244.016 5.30686 241.091 3.3527 237.873 2.01946C234.654 0.686215 231.204 2.84458e-06 227.72 0H130.607C127.123 -7.39569e-06 123.673 0.686195 120.454 2.01943C117.235 3.35266 114.311 5.30681 111.847 7.77032C109.384 10.2338 107.43 13.1584 106.096 16.3771C104.763 19.5959 104.077 23.0457 104.077 26.5296V277.999C104.077 285.035 106.872 291.783 111.847 296.759C116.823 301.734 123.57 304.529 130.607 304.529H227.72C234.756 304.529 241.504 301.734 246.479 296.759C251.455 291.783 254.25 285.035 254.25 277.999V104.996H255.923V72.3675Z" fill="#003554"/>
<path d="M228.791 6.90211H216.114C216.697 8.33134 216.92 9.88201 216.762 11.4175C216.605 12.953 216.072 14.4262 215.211 15.7073C214.35 16.9884 213.187 18.0381 211.825 18.764C210.463 19.4899 208.943 19.8696 207.399 19.8697H151.764C150.221 19.8696 148.701 19.4899 147.339 18.764C145.976 18.0381 144.814 16.9884 143.953 15.7073C143.092 14.4262 142.559 12.953 142.401 11.4175C142.244 9.882 142.466 8.33133 143.049 6.9021H131.209C125.955 6.9021 120.916 8.98943 117.2 12.7049C113.485 16.4204 111.397 21.4596 111.397 26.7141V277.815C111.397 280.417 111.91 282.993 112.905 285.397C113.901 287.8 115.36 289.984 117.2 291.824C119.04 293.664 121.224 295.123 123.628 296.119C126.031 297.114 128.608 297.627 131.209 297.627H228.791C231.392 297.627 233.969 297.114 236.372 296.119C238.776 295.123 240.96 293.664 242.8 291.824C244.64 289.984 246.099 287.8 247.095 285.397C248.09 282.993 248.603 280.417 248.603 277.815V277.815V26.7141C248.603 24.1124 248.09 21.5361 247.095 19.1324C246.099 16.7287 244.64 14.5446 242.8 12.7049C240.96 10.8652 238.776 9.40585 236.372 8.4102C233.969 7.41456 231.392 6.90211 228.791 6.90211Z" fill="white"/>
<path d="M226.346 293.315H133.654C123.003 293.315 114.338 285.582 114.338 276.075V263.594C114.338 256.017 121.239 249.853 129.721 249.853H230.279C238.761 249.853 245.662 256.017 245.662 263.594V276.075C245.662 285.582 236.997 293.315 226.346 293.315Z" fill="#E5E5E5"/>
<path d="M143.398 83.543H122.721C122.351 83.5426 121.996 83.3952 121.734 83.1333C121.472 82.8714 121.325 82.5163 121.324 82.146V61.4698C121.325 61.0994 121.472 60.7443 121.734 60.4824C121.996 60.2205 122.351 60.0732 122.721 60.0728H143.398C143.768 60.0732 144.123 60.2205 144.385 60.4824C144.647 60.7443 144.794 61.0994 144.795 61.4698V82.146C144.794 82.5163 144.647 82.8714 144.385 83.1333C144.123 83.3952 143.768 83.5426 143.398 83.543V83.543Z" fill="#00A6FB"/>
<path d="M174.691 83.543H154.015C153.645 83.5426 153.29 83.3952 153.028 83.1333C152.766 82.8714 152.618 82.5163 152.618 82.146V61.4698C152.618 61.0994 152.766 60.7443 153.028 60.4824C153.29 60.2205 153.645 60.0732 154.015 60.0728H174.691C175.062 60.0732 175.417 60.2205 175.679 60.4824C175.941 60.7443 176.088 61.0994 176.088 61.4698V82.146C176.088 82.5163 175.941 82.8714 175.679 83.1333C175.417 83.3952 175.062 83.5426 174.691 83.543V83.543Z" fill="#E5E5E5"/>
<path d="M205.985 83.543H185.309C184.938 83.5426 184.583 83.3952 184.321 83.1333C184.059 82.8714 183.912 82.5163 183.912 82.146V61.4698C183.912 61.0994 184.059 60.7443 184.321 60.4824C184.583 60.2205 184.938 60.0732 185.309 60.0728H205.985C206.355 60.0732 206.71 60.2205 206.972 60.4824C207.234 60.7443 207.382 61.0994 207.382 61.4698V82.146C207.382 82.5163 207.234 82.8714 206.972 83.1333C206.71 83.3952 206.355 83.5426 205.985 83.543V83.543Z" fill="#E5E5E5"/>
<path d="M237.279 83.543H216.602C216.232 83.5426 215.877 83.3952 215.615 83.1333C215.353 82.8714 215.206 82.5163 215.205 82.146V61.4698C215.206 61.0994 215.353 60.7443 215.615 60.4824C215.877 60.2205 216.232 60.0732 216.602 60.0728H237.279C237.649 60.0732 238.004 60.2205 238.266 60.4824C238.528 60.7443 238.675 61.0994 238.676 61.4698V82.146C238.675 82.5163 238.528 82.8714 238.266 83.1333C238.004 83.3952 237.649 83.5426 237.279 83.543V83.543Z" fill="#E5E5E5"/>
<path d="M143.324 121.822H122.647C122.277 121.821 121.922 121.674 121.66 121.412C121.398 121.15 121.251 120.795 121.25 120.425V99.7486C121.251 99.3782 121.398 99.0231 121.66 98.7612C121.922 98.4993 122.277 98.352 122.647 98.3516H143.324C143.694 98.352 144.049 98.4993 144.311 98.7612C144.573 99.0231 144.72 99.3782 144.721 99.7486V120.425C144.72 120.795 144.573 121.15 144.311 121.412C144.049 121.674 143.694 121.821 143.324 121.822Z" fill="#E5E5E5"/>
<path d="M174.617 121.822H153.941C153.571 121.821 153.216 121.674 152.954 121.412C152.692 121.15 152.545 120.795 152.544 120.425V99.7486C152.545 99.3782 152.692 99.0231 152.954 98.7612C153.216 98.4993 153.571 98.352 153.941 98.3516H174.617C174.988 98.352 175.343 98.4993 175.605 98.7612C175.867 99.0231 176.014 99.3782 176.014 99.7486V120.425C176.014 120.795 175.867 121.15 175.605 121.412C175.343 121.674 174.988 121.821 174.617 121.822V121.822Z" fill="#E5E5E5"/>
<path d="M205.911 121.822H185.235C184.864 121.821 184.509 121.674 184.247 121.412C183.985 121.15 183.838 120.795 183.838 120.425V99.7486C183.838 99.3782 183.985 99.0231 184.247 98.7612C184.509 98.4993 184.864 98.352 185.235 98.3516H205.911C206.281 98.352 206.636 98.4993 206.898 98.7612C207.16 99.0231 207.308 99.3782 207.308 99.7486V120.425C207.308 120.795 207.16 121.15 206.898 121.412C206.636 121.674 206.281 121.821 205.911 121.822V121.822Z" fill="#00A6FB"/>
<path d="M237.205 121.822H216.528C216.158 121.821 215.803 121.674 215.541 121.412C215.279 121.15 215.132 120.795 215.131 120.425V99.7486C215.132 99.3782 215.279 99.0231 215.541 98.7612C215.803 98.4993 216.158 98.352 216.528 98.3516H237.205C237.575 98.352 237.93 98.4993 238.192 98.7612C238.454 99.0231 238.601 99.3782 238.602 99.7486V120.425C238.601 120.795 238.454 121.15 238.192 121.412C237.93 121.674 237.575 121.821 237.205 121.822V121.822Z" fill="#00A6FB"/>
<path d="M143.25 160.101H122.573C122.203 160.1 121.848 159.953 121.586 159.691C121.324 159.429 121.177 159.074 121.176 158.704V138.027C121.177 137.657 121.324 137.302 121.586 137.04C121.848 136.778 122.203 136.631 122.573 136.63H143.25C143.62 136.631 143.975 136.778 144.237 137.04C144.499 137.302 144.646 137.657 144.647 138.027V158.704C144.646 159.074 144.499 159.429 144.237 159.691C143.975 159.953 143.62 160.1 143.25 160.101V160.101Z" fill="#E5E5E5"/>
<path d="M174.543 160.101H153.867C153.497 160.1 153.142 159.953 152.88 159.691C152.618 159.429 152.471 159.074 152.47 158.704V138.027C152.471 137.657 152.618 137.302 152.88 137.04C153.142 136.778 153.497 136.631 153.867 136.63H174.543C174.914 136.631 175.269 136.778 175.531 137.04C175.793 137.302 175.94 137.657 175.94 138.027V158.704C175.94 159.074 175.793 159.429 175.531 159.691C175.269 159.953 174.914 160.1 174.543 160.101V160.101Z" fill="#E5E5E5"/>
<path d="M205.837 160.101H185.161C184.79 160.1 184.435 159.953 184.173 159.691C183.912 159.429 183.764 159.074 183.764 158.704V138.027C183.764 137.657 183.912 137.302 184.173 137.04C184.435 136.778 184.79 136.631 185.161 136.63H205.837C206.207 136.631 206.562 136.778 206.824 137.04C207.086 137.302 207.234 137.657 207.234 138.027V158.704C207.234 159.074 207.086 159.429 206.824 159.691C206.562 159.953 206.207 160.1 205.837 160.101V160.101Z" fill="#E5E5E5"/>
<path d="M237.131 160.101H216.455C216.084 160.1 215.729 159.953 215.467 159.691C215.205 159.429 215.058 159.074 215.057 158.704V138.027C215.058 137.657 215.205 137.302 215.467 137.04C215.729 136.778 216.084 136.631 216.455 136.63H237.131C237.501 136.631 237.856 136.778 238.118 137.04C238.38 137.302 238.527 137.657 238.528 138.027V158.704C238.527 159.074 238.38 159.429 238.118 159.691C237.856 159.953 237.501 160.1 237.131 160.101V160.101Z" fill="#E5E5E5"/>
<path d="M143.176 198.38H122.5C122.129 198.379 121.774 198.232 121.512 197.97C121.25 197.708 121.103 197.353 121.103 196.982V176.306C121.103 175.936 121.25 175.581 121.512 175.319C121.774 175.057 122.129 174.91 122.5 174.909H143.176C143.546 174.91 143.901 175.057 144.163 175.319C144.425 175.581 144.572 175.936 144.573 176.306V196.982C144.572 197.353 144.425 197.708 144.163 197.97C143.901 198.232 143.546 198.379 143.176 198.38V198.38Z" fill="#E5E5E5"/>
<path d="M174.469 198.38H153.793C153.423 198.379 153.068 198.232 152.806 197.97C152.544 197.708 152.397 197.353 152.396 196.982V176.306C152.397 175.936 152.544 175.581 152.806 175.319C153.068 175.057 153.423 174.91 153.793 174.909H174.469C174.84 174.91 175.195 175.057 175.457 175.319C175.719 175.581 175.866 175.936 175.866 176.306V196.982C175.866 197.353 175.719 197.708 175.457 197.97C175.195 198.232 174.84 198.379 174.469 198.38Z" fill="#E5E5E5"/>
<path d="M205.763 198.38H185.087C184.717 198.379 184.361 198.232 184.1 197.97C183.838 197.708 183.69 197.353 183.69 196.982V176.306C183.69 175.936 183.838 175.581 184.1 175.319C184.361 175.057 184.717 174.91 185.087 174.909H205.763C206.133 174.91 206.489 175.057 206.75 175.319C207.012 175.581 207.16 175.936 207.16 176.306V196.982C207.16 197.353 207.012 197.708 206.751 197.97C206.489 198.232 206.133 198.379 205.763 198.38Z" fill="#E5E5E5"/>
<path d="M237.057 198.38H216.381C216.01 198.379 215.655 198.232 215.393 197.97C215.131 197.708 214.984 197.353 214.984 196.982V176.306C214.984 175.936 215.131 175.581 215.393 175.319C215.655 175.057 216.01 174.91 216.381 174.909H237.057C237.427 174.91 237.782 175.057 238.044 175.319C238.306 175.581 238.453 175.936 238.454 176.306V196.982C238.453 197.353 238.306 197.708 238.044 197.97C237.782 198.232 237.427 198.379 237.057 198.38V198.38Z" fill="#E5E5E5"/>
<path d="M143.398 283.878H122.721C122.351 283.878 121.996 283.73 121.734 283.469C121.472 283.207 121.325 282.852 121.324 282.481V261.805C121.325 261.435 121.472 261.08 121.734 260.818C121.996 260.556 122.351 260.408 122.721 260.408H143.398C143.768 260.408 144.123 260.556 144.385 260.818C144.647 261.08 144.794 261.435 144.795 261.805V282.481C144.794 282.852 144.647 283.207 144.385 283.469C144.123 283.73 143.768 283.878 143.398 283.878Z" fill="white"/>
<path d="M174.691 283.878H154.015C153.645 283.878 153.29 283.73 153.028 283.469C152.766 283.207 152.618 282.852 152.618 282.481V261.805C152.618 261.435 152.766 261.08 153.028 260.818C153.29 260.556 153.645 260.408 154.015 260.408H174.691C175.062 260.408 175.417 260.556 175.679 260.818C175.941 261.08 176.088 261.435 176.088 261.805V282.481C176.088 282.852 175.941 283.207 175.679 283.469C175.417 283.73 175.062 283.878 174.691 283.878V283.878Z" fill="white"/>
<path d="M205.985 283.878H185.309C184.938 283.878 184.583 283.73 184.321 283.469C184.059 283.207 183.912 282.852 183.912 282.481V261.805C183.912 261.435 184.059 261.08 184.321 260.818C184.583 260.556 184.938 260.408 185.309 260.408H205.985C206.355 260.408 206.71 260.556 206.972 260.818C207.234 261.08 207.382 261.435 207.382 261.805V282.481C207.382 282.852 207.234 283.207 206.972 283.469C206.71 283.73 206.355 283.878 205.985 283.878V283.878Z" fill="white"/>
<path d="M237.279 283.878H216.602C216.232 283.878 215.877 283.73 215.615 283.469C215.353 283.207 215.206 282.852 215.205 282.481V261.805C215.206 261.435 215.353 261.08 215.615 260.818C215.877 260.556 216.232 260.408 216.602 260.408H237.279C237.649 260.408 238.004 260.556 238.266 260.818C238.528 261.08 238.675 261.435 238.676 261.805V282.481C238.675 282.852 238.528 283.207 238.266 283.469C238.004 283.73 237.649 283.878 237.279 283.878Z" fill="white"/>
<path d="M169.867 240.291C171.41 240.291 172.661 239.04 172.661 237.497C172.661 235.953 171.41 234.703 169.867 234.703C168.324 234.703 167.073 235.953 167.073 237.497C167.073 239.04 168.324 240.291 169.867 240.291Z" fill="#E5E5E5"/>
<path d="M179.926 240.291C181.469 240.291 182.72 239.04 182.72 237.497C182.72 235.953 181.469 234.703 179.926 234.703C178.383 234.703 177.132 235.953 177.132 237.497C177.132 239.04 178.383 240.291 179.926 240.291Z" fill="#E5E5E5"/>
<path d="M189.985 240.291C191.528 240.291 192.779 239.04 192.779 237.497C192.779 235.953 191.528 234.703 189.985 234.703C188.442 234.703 187.191 235.953 187.191 237.497C187.191 239.04 188.442 240.291 189.985 240.291Z" fill="#E5E5E5"/>
<path d="M359.567 304.982H0.433213C0.318318 304.982 0.208128 304.936 0.126885 304.855C0.0456416 304.774 0 304.664 0 304.549C0 304.434 0.0456416 304.324 0.126885 304.242C0.208128 304.161 0.318318 304.115 0.433213 304.115H359.567C359.682 304.115 359.792 304.161 359.873 304.242C359.954 304.324 360 304.434 360 304.549C360 304.664 359.954 304.774 359.873 304.855C359.792 304.936 359.682 304.982 359.567 304.982Z" fill="#CBCBCB"/>
<path d="M141.385 219.683C141.97 219.099 142.419 218.394 142.701 217.617C142.984 216.84 143.093 216.011 143.02 215.188C142.947 214.365 142.695 213.567 142.281 212.852C141.867 212.137 141.301 211.521 140.623 211.048L146.079 191.714L136.131 194.878L132.475 212.753C131.756 213.944 131.499 215.358 131.753 216.726C132.007 218.094 132.753 219.322 133.852 220.176C134.95 221.03 136.324 221.452 137.712 221.361C139.101 221.27 140.407 220.673 141.385 219.683V219.683Z" fill="#FFB7B7"/>
<path d="M144.214 207.832C144.036 207.866 143.855 207.882 143.674 207.878L134.131 207.687C133.772 207.68 133.418 207.596 133.094 207.442C132.77 207.287 132.482 207.065 132.25 206.791C132.018 206.517 131.847 206.196 131.749 205.851C131.65 205.505 131.627 205.143 131.679 204.787L141.36 139.376C141.649 137.484 142.606 135.758 144.056 134.509C145.507 133.261 147.356 132.572 149.27 132.568C150.478 132.571 151.67 132.848 152.756 133.379C153.841 133.91 154.792 134.681 155.536 135.634C156.28 136.586 156.798 137.695 157.05 138.877C157.303 140.059 157.284 141.282 156.994 142.456L150.132 170.249L146.24 205.626C146.184 206.162 145.956 206.666 145.591 207.064C145.226 207.461 144.744 207.73 144.214 207.832V207.832Z" fill="#003554"/>
<path d="M148.204 311.092H153.515L156.042 290.607L148.203 290.607L148.204 311.092Z" fill="#FFB7B7"/>
<path d="M146.85 309.359L157.309 309.358H157.31C159.077 309.358 160.773 310.061 162.023 311.311C163.273 312.561 163.975 314.256 163.975 316.024V316.24L146.85 316.241L146.85 309.359Z" fill="#2F2E41"/>
<path d="M170.851 309.367L176.129 309.959L180.924 289.883L173.134 289.009L170.851 309.367Z" fill="#FFB7B7"/>
<path d="M169.698 307.493L180.093 308.659L180.093 308.659C181.85 308.856 183.456 309.743 184.559 311.124C185.662 312.506 186.171 314.269 185.974 316.026L185.95 316.241L168.931 314.333L169.698 307.493Z" fill="#2F2E41"/>
<path d="M143.22 197.092C143.22 197.092 135.938 213.212 142.368 223.682L146.199 305.199H154.995L163.528 239.35L178.69 258.845L169.452 304.344L180.21 304.948L195.152 258.845C195.152 258.845 183.673 208.008 179.882 206.784L177.39 195.162L143.22 197.092Z" fill="#2F2E41"/>
<path d="M139.979 211.244C139.979 211.244 133.419 218.773 150.748 221.372C168.076 223.971 186.271 220.072 186.704 214.874C187.138 209.675 139.979 211.244 139.979 211.244Z" fill="#CBCBCB"/>
<path d="M226.845 117.857C226.819 118.592 226.631 119.312 226.296 119.966C225.96 120.621 225.486 121.194 224.905 121.645C224.324 122.096 223.652 122.415 222.935 122.578C222.218 122.741 221.474 122.745 220.755 122.59L214.205 132.036L207.494 129.455L216.931 116.246C217.272 115.055 218.038 114.032 219.084 113.369C220.129 112.706 221.382 112.449 222.604 112.648C223.826 112.846 224.933 113.486 225.715 114.446C226.496 115.406 226.899 116.62 226.845 117.857V117.857Z" fill="#FFB7B7"/>
<path d="M171.45 130.01L162.189 125.821L150.323 126.669C150.323 126.669 136.019 143.394 141.65 159.422L138.185 215.307C160.278 221.372 170.322 209.997 186.271 214.874L181.345 152.764L171.45 130.01Z" fill="#003554"/>
<path d="M165.26 134.079L171.45 130.01C171.45 130.01 180.048 128.71 183.484 132.045C183.484 132.045 195.149 133.021 197.967 135.933L201.069 136.632L211.373 123.288L217.679 126.715L208.582 151.408L181.345 152.764L165.26 134.079Z" fill="#003554"/>
<path d="M167.396 121.121C174.48 117.248 177.084 108.366 173.211 101.282C169.339 94.1972 160.456 91.5936 153.372 95.4663C146.288 99.3389 143.684 108.221 147.557 115.306C151.43 122.39 160.312 124.993 167.396 121.121Z" fill="#FFB7B7"/>
<path d="M147.74 96.8643C150.349 92.1711 153.61 89.1322 158.979 89.2419C164.348 89.3516 168.992 89.1393 171.407 93.9352C172.046 92.7399 172.365 91.4002 172.336 90.0454C173.065 90.5189 173.64 91.1955 173.989 91.9919C174.339 92.7882 174.447 93.6694 174.302 94.5268C174.772 94.2516 175.165 93.8629 175.446 93.3963C175.726 92.9296 175.885 92.4 175.908 91.856C177.7 92.4523 178.166 94.9773 177.259 96.6338C176.353 98.2903 174.575 99.2482 172.869 100.058C171.163 100.868 171.95 105.15 170.836 106.675C170.059 107.739 169.703 109.044 169.179 110.253C169.157 110.301 169.12 110.34 169.073 110.364C167.872 111.033 167.114 112.23 167.326 113.589C167.351 113.691 167.345 113.798 167.309 113.896C165.788 116.761 164.147 119.759 161.39 121.468C159.179 122.804 156.529 123.213 154.018 122.608C151.2 121.934 148.765 120.066 147.008 117.762C145.252 115.459 144.122 112.736 143.273 109.966C142.52 107.51 141.973 104.883 142.57 102.383C143.167 99.8838 145.189 97.5693 147.752 97.3762" fill="#2F2E41"/>
</g>
<defs>
<clipPath id="clip0">
<rect width="360" height="316.241" fill="white"/>
</clipPath>
</defs>
</svg>
