<svg width="360" height="292" viewBox="0 0 360 292" fill="none" xmlns="http://www.w3.org/2000/svg">
<g clip-path="url(#clip0)">
<path d="M242.544 268.16C225.788 268.205 209.049 267.108 192.442 264.877C191.9 264.808 191.35 264.731 190.804 264.649C186.728 264.07 182.649 263.407 178.685 262.68C160.842 259.417 144.016 254.651 128.675 248.514C77.6225 228.093 45.5235 232.439 27.586 239.681C8.1738 247.518 0.71166 260.341 0.638519 260.47L0 260.107C0.0740318 259.977 7.63245 246.963 27.2567 239.022C38.7627 234.366 52.1108 232.332 66.9331 232.973C85.4351 233.774 106.3 238.773 128.948 247.832C144.244 253.951 161.022 258.703 178.817 261.958C182.772 262.683 186.841 263.344 190.91 263.923C191.453 264.004 191.998 264.08 192.539 264.149C237.555 270.342 280.982 266.607 309.487 262.385C332.983 258.904 348.103 254.835 348.253 254.794L348.445 255.503C348.295 255.544 333.137 259.624 309.595 263.111C287.397 266.417 264.987 268.105 242.544 268.16V268.16Z" fill="#003554"/>
<path d="M242.594 57.4447C229.652 57.4449 217.052 56.8392 204.895 55.6284C176.961 52.8464 151.316 46.8437 128.675 37.7872C77.6225 17.3658 45.5235 21.7117 27.586 28.954C8.1738 36.7911 0.71166 49.614 0.638519 49.7425L0 49.38C0.0740318 49.2495 7.63245 36.2361 27.2567 28.2952C38.7629 23.6391 52.1108 21.6035 66.9331 22.2456C85.4351 23.0467 106.3 28.0462 128.948 37.1054C180.081 57.5587 236.98 58.3625 275.708 55.4375C317.684 52.2657 347.952 44.1489 348.253 44.0674L348.445 44.7758C348.144 44.8577 317.822 52.9903 275.779 56.1684C264.522 57.0193 253.438 57.4447 242.594 57.4447Z" fill="#003554"/>
<path d="M240.693 3.54989C240.693 3.54989 226.259 -1.60506 216.98 19.0147C207.701 39.6345 193.268 62.3163 193.268 62.3163L201.515 64.3783C201.515 64.3783 203.577 49.9444 208.732 47.8824L206.67 66.4402C206.67 66.4402 268.53 88.091 296.367 64.3783L295.336 57.1614C295.336 57.1614 299.459 58.1923 299.459 64.3783L302.552 61.2853C302.552 61.2853 299.46 55.0994 290.181 46.8515C284.09 41.4379 281.997 31.1386 281.278 24.6994C280.739 19.3225 278.588 14.234 275.107 10.1012C268.94 2.95484 257.704 -4.64075 240.693 3.54989Z" fill="#2F2E41"/>
<path d="M328.297 120.229C328.297 120.229 355.458 143.397 359.453 156.977C363.447 170.558 344.274 172.156 344.274 172.156L302.733 176.15C302.733 176.15 301.934 195.323 294.744 197.719C287.555 200.116 293.285 166.014 293.285 166.014L333.889 154.581L315.515 135.408L328.297 120.229Z" fill="#FBBEBE"/>
<path d="M201.277 144.195L198.082 186.535L180.506 258.433C180.506 258.433 164.529 291.187 178.11 291.986C191.691 292.784 190.892 260.83 190.892 260.83L216.456 192.926L218.852 146.592L201.277 144.195Z" fill="#FBBEBE"/>
<path d="M246.014 69.9008C260.573 69.9008 272.376 58.0979 272.376 43.5382C272.376 28.9786 260.573 17.1757 246.014 17.1757C231.454 17.1757 219.651 28.9786 219.651 43.5382C219.651 58.0979 231.454 69.9008 246.014 69.9008Z" fill="#FBBEBE"/>
<path d="M234.031 56.3201C234.031 56.3201 243.617 90.6713 228.438 99.4588C213.26 108.246 266.784 114.637 281.164 88.2747C281.164 88.2747 255.6 79.4872 262.79 56.3201H234.031Z" fill="#FBBEBE"/>
<path d="M215.657 103.453L210.863 101.855C210.863 101.855 201.277 105.85 201.277 113.04C201.277 120.229 199.679 148.989 199.679 148.989L221.249 151.385L215.657 103.453Z" fill="#00A6FB"/>
<path d="M309.541 262.748C280.05 267.117 237.068 270.645 192.492 264.514C192.488 264.073 192.488 263.644 192.488 263.225C192.488 260.733 192.584 258.268 192.775 255.831C195.058 225.83 210.514 200.819 216.494 192.151C216.795 191.71 217.074 191.314 217.324 190.961C218.29 189.607 218.851 188.891 218.851 188.891C218.851 188.891 265.186 188.134 289.151 197.72C290.307 198.205 291.364 198.897 292.272 199.761C301.207 208.007 306.457 234.777 309.541 262.748Z" fill="#2F2E41"/>
<path d="M292.348 92.2691C292.348 92.2691 302.733 86.677 313.118 98.66L333.889 122.626L317.912 140.201L287.555 121.827L292.348 92.2691Z" fill="#00A6FB"/>
<path d="M217.527 43.7053C226.859 36.9512 234.414 29.1719 239.411 19.918C239.411 19.918 256.538 38.9479 267.004 39.8994C277.471 40.8509 267.956 17.0635 267.956 17.0635L248.926 12.306L230.847 14.209L216.575 23.724L217.527 43.7053Z" fill="#2F2E41"/>
<path d="M277.169 86.677C277.169 86.677 265.99 104.353 232.435 95.9145L213.394 101.158L210.863 101.855C210.863 101.855 213.26 149.787 219.651 158.575C226.042 167.363 224.444 172.156 222.846 172.955C221.249 173.753 217.254 172.156 219.651 176.15C222.048 180.144 225.243 177.748 222.048 180.144C218.852 182.541 217.254 191.328 217.254 191.328L292.348 200.915C292.348 200.915 289.951 169.759 296.342 153.782C302.733 137.804 304.331 131.414 304.331 131.414L299.538 91.4702L277.169 86.677Z" fill="#00A6FB"/>
<path d="M121.102 71.0377H18.3082V199.53H121.102V71.0377Z" fill="#E6E6E6"/>
<path d="M47.4942 81.8678H25.467V96.5526H47.4942V81.8678Z" fill="white"/>
<path d="M110.822 110.503H25.6506V115.643H110.822V110.503Z" fill="white"/>
<path d="M110.822 124.087H25.6506V129.226H110.822V124.087Z" fill="white"/>
<path d="M110.822 137.67H25.6506V142.81H110.822V137.67Z" fill="white"/>
<path d="M110.822 151.254H25.6506V156.393H110.822V151.254Z" fill="white"/>
<path d="M110.822 164.837H25.6506V169.977H110.822V164.837Z" fill="white"/>
<path d="M141.293 199.346C141.289 204.195 139.535 208.88 136.353 212.539C133.171 216.198 128.776 218.586 123.975 219.264C119.174 219.942 114.289 218.865 110.218 216.231C106.148 213.596 103.164 209.581 101.817 204.923C100.469 200.265 100.848 195.277 102.883 190.876C104.918 186.475 108.473 182.956 112.895 180.966C117.317 178.976 122.308 178.649 126.952 180.044C131.596 181.439 135.58 184.463 138.173 188.56C140.212 191.788 141.294 195.528 141.293 199.346V199.346Z" fill="#00A6FB"/>
<path d="M138.173 188.56L118.297 208.433C117.048 206.499 110.088 197.511 110.088 197.511C110.98 196.609 111.932 195.769 112.937 194.996L118.708 202.691L135.845 185.554C136.714 186.48 137.494 187.487 138.173 188.56V188.56Z" fill="white"/>
</g>
<defs>
<clipPath id="clip0">
<rect width="360" height="292" fill="white"/>
</clipPath>
</defs>
</svg>
