<svg width="360" height="284" viewBox="0 0 360 284" fill="none" xmlns="http://www.w3.org/2000/svg">
<g clip-path="url(#clip0)">
<path d="M326.82 0.185181H0.139496V209.406H326.82V0.185181Z" fill="#E6E6E6"/>
<path d="M317.478 26.4266H9.4808V197.028H317.478V26.4266Z" fill="white"/>
<path d="M326.68 0H0V13.8786H326.68V0Z" fill="#00A6FB"/>
<path d="M10.3134 9.66776C11.7341 9.66776 12.8857 8.51611 12.8857 7.09548C12.8857 5.67484 11.7341 4.52319 10.3134 4.52319C8.8928 4.52319 7.74115 5.67484 7.74115 7.09548C7.74115 8.51611 8.8928 9.66776 10.3134 9.66776Z" fill="white"/>
<path d="M20.0772 9.66776C21.4978 9.66776 22.6495 8.51611 22.6495 7.09548C22.6495 5.67484 21.4978 4.52319 20.0772 4.52319C18.6565 4.52319 17.5049 5.67484 17.5049 7.09548C17.5049 8.51611 18.6565 9.66776 20.0772 9.66776Z" fill="white"/>
<path d="M29.841 9.66776C31.2616 9.66776 32.4133 8.51611 32.4133 7.09548C32.4133 5.67484 31.2616 4.52319 29.841 4.52319C28.4203 4.52319 27.2687 5.67484 27.2687 7.09548C27.2687 8.51611 28.4203 9.66776 29.841 9.66776Z" fill="white"/>
<path d="M116.607 44.1279H37.4666V179.327H116.607V44.1279Z" fill="#E6E6E6"/>
<path d="M196.219 44.1279H130.269V81.343H196.219V44.1279Z" fill="#00A6FB"/>
<path d="M196.219 91.7067H130.269V131.748H196.219V91.7067Z" fill="#E6E6E6"/>
<path d="M196.219 142.112H130.269V179.327H196.219V142.112Z" fill="#E6E6E6"/>
<path d="M289.492 44.1279H210.352V103.047H289.492V44.1279Z" fill="#E6E6E6"/>
<path d="M289.492 120.408H210.352V179.327H289.492V120.408Z" fill="#E6E6E6"/>
<path d="M259.005 107.28V94.5953C259.005 90.0873 260.795 85.7641 263.983 82.5765C267.171 79.3889 271.494 77.5981 276.002 77.5981C280.51 77.5981 284.833 79.3889 288.021 82.5765C291.208 85.7641 292.999 90.0873 292.999 94.5953V107.28C292.998 107.885 292.757 108.465 292.329 108.893C291.901 109.321 291.321 109.562 290.716 109.563H261.288C260.683 109.562 260.102 109.321 259.674 108.893C259.246 108.465 259.005 107.885 259.005 107.28Z" fill="#2F2E41"/>
<path d="M301.135 272.352L295.14 274.012L285.887 251.678L294.735 249.229L301.135 272.352Z" fill="#FFB8B8"/>
<path d="M290.384 273.484L301.945 270.284L303.96 277.564L285.119 282.778C284.854 281.822 284.78 280.823 284.902 279.839C285.023 278.855 285.337 277.904 285.826 277.041C286.315 276.178 286.969 275.419 287.751 274.809C288.533 274.199 289.428 273.748 290.384 273.484V273.484Z" fill="#2F2E41"/>
<path d="M238.633 276.964H232.413L229.453 252.971H238.634L238.633 276.964Z" fill="#FFB8B8"/>
<path d="M227.97 275.186H239.966V282.74H220.416C220.416 281.748 220.612 280.766 220.991 279.849C221.371 278.933 221.927 278.1 222.629 277.399C223.33 276.697 224.163 276.141 225.079 275.761C225.995 275.382 226.978 275.186 227.97 275.186V275.186Z" fill="#2F2E41"/>
<path d="M231.132 142.876C231.576 143.475 232.146 143.97 232.802 144.325C233.458 144.681 234.184 144.888 234.929 144.932C235.673 144.976 236.418 144.857 237.112 144.582C237.805 144.307 238.43 143.884 238.942 143.342L255.477 150.779L253.973 141.478L238.502 135.841C237.533 135.041 236.306 134.625 235.051 134.67C233.796 134.715 232.601 135.218 231.692 136.086C230.784 136.953 230.225 138.123 230.122 139.374C230.019 140.626 230.378 141.872 231.132 142.876H231.132Z" fill="#FFB8B8"/>
<path d="M265.489 198.808C260.294 198.808 254.916 198.034 250.395 195.733C247.996 194.535 245.869 192.855 244.148 190.798C242.428 188.74 241.15 186.35 240.395 183.776C238.04 176.318 241.01 168.991 243.882 161.906C245.662 157.515 247.342 153.368 247.779 149.28L247.931 147.829C248.61 141.31 249.197 135.681 252.445 133.569C254.129 132.475 256.392 132.412 259.366 133.378L287.294 142.451L286.268 195.466L286.098 195.523C285.952 195.572 276.106 198.808 265.489 198.808Z" fill="#2F2E41"/>
<path d="M258.878 116.873C258.878 116.873 272.577 112.814 283.232 114.336C283.232 114.336 277.143 147.823 279.173 158.985C281.202 170.148 243.91 163.298 251.521 152.643L254.058 139.959C254.058 139.959 248.984 134.885 253.55 128.797L258.878 116.873Z" fill="#00A6FB"/>
<path d="M252.14 197.803L235.256 194.638L241.151 149.275C241.547 148.008 250.678 119.267 254.825 117.712C257.836 116.651 260.916 115.796 264.042 115.151L264.643 115.031L261.258 120.109L247.779 152.406L252.14 197.803Z" fill="#2F2E41"/>
<path d="M243.343 271.405L221.528 267.769L233.77 217.781L251.987 149.418L252.166 150.632C252.18 150.722 253.882 159.653 279.134 155.69L279.356 155.656L279.417 155.872L309.937 263.709L285.08 267.851L262.409 189.174L243.343 271.405Z" fill="#2F2E41"/>
<path d="M273.578 206.292L273.592 205.909C273.607 205.482 275.108 163.1 274.607 146.055C274.104 128.952 279.641 114.14 279.697 113.993L279.742 113.874L279.864 113.839C287.028 111.792 293.243 117.9 293.305 117.962L293.392 118.05L291.352 134.882L300.087 196.093L273.578 206.292Z" fill="#2F2E41"/>
<path d="M272.509 109.268C279.391 109.268 284.971 103.688 284.971 96.8059C284.971 89.9235 279.391 84.3442 272.509 84.3442C265.627 84.3442 260.047 89.9235 260.047 96.8059C260.047 103.688 265.627 109.268 272.509 109.268Z" fill="#FFB8B8"/>
<path d="M254.984 95.61C254.988 92.0453 256.405 88.6277 258.926 86.1071C261.447 83.5864 264.864 82.1686 268.429 82.1646H270.966C274.531 82.1686 277.948 83.5864 280.469 86.1071C282.99 88.6277 284.407 92.0453 284.411 95.61V95.8637H279.05L277.222 90.7434L276.856 95.8637H274.085L273.163 93.2802L272.978 95.8637H254.984V95.61Z" fill="#2F2E41"/>
<path d="M271.283 110.989C271.031 110.648 270.881 110.243 270.849 109.821C270.817 109.398 270.906 108.975 271.104 108.601C273.792 103.488 277.556 94.0392 272.56 88.2123L272.201 87.7936H286.706V109.57L273.529 111.895C273.396 111.919 273.261 111.93 273.125 111.931C272.766 111.931 272.411 111.845 272.091 111.682C271.77 111.518 271.493 111.281 271.283 110.989Z" fill="#2F2E41"/>
<path d="M212.885 21.0797C202.735 12.5153 190.315 7.08563 177.136 5.45132C163.957 3.81701 150.587 6.04854 138.653 11.8744C126.719 17.7002 116.735 26.8691 109.917 38.2654C103.099 49.6617 99.7407 62.7941 100.25 76.0644C100.76 89.3347 105.115 102.171 112.787 113.011C120.459 123.851 131.116 132.228 143.461 137.121C155.807 142.015 169.308 143.215 182.324 140.575C195.339 137.935 207.306 131.569 216.769 122.252L300.8 193.157C302.078 194.238 303.734 194.766 305.402 194.627C307.071 194.487 308.615 193.69 309.696 192.412C310.777 191.133 311.306 189.477 311.166 187.809C311.026 186.141 310.23 184.596 308.951 183.515L308.942 183.507L224.911 112.602C234.673 98.5923 238.851 81.4416 236.626 64.5116C234.401 47.5815 225.935 32.0924 212.885 21.0797V21.0797ZM207.468 105.775C200.921 113.533 192.221 119.176 182.468 121.99C172.715 124.803 162.346 124.662 152.673 121.583C143 118.504 134.458 112.625 128.126 104.691C121.794 96.757 117.957 87.1234 117.1 77.0085C116.243 66.8936 118.404 56.7518 123.311 47.8654C128.218 38.9791 135.65 31.7475 144.667 27.085C153.684 22.4225 163.881 20.5385 173.969 21.6714C184.057 22.8043 193.582 26.903 201.34 33.4494H201.34C206.492 37.796 210.736 43.1147 213.832 49.1018C216.928 55.0888 218.814 61.627 219.383 68.3431C219.952 75.0591 219.193 81.8214 217.148 88.244C215.104 94.6665 211.814 100.624 207.468 105.775V105.775Z" fill="#003554"/>
<path opacity="0.3" d="M135.142 111.902C125.296 103.593 118.935 91.8853 117.321 79.1031C115.708 66.321 118.96 53.3996 126.433 42.9045C125.452 43.8928 124.503 44.9279 123.587 46.0096C119.24 51.1609 115.951 57.1179 113.906 63.5404C111.862 69.963 111.103 76.7253 111.672 83.4414C112.24 90.1574 114.127 96.6956 117.222 102.683C120.318 108.67 124.563 113.988 129.714 118.335C134.866 122.682 140.823 125.971 147.245 128.016C153.668 130.06 160.43 130.819 167.146 130.25C173.862 129.681 180.4 127.795 186.387 124.699C192.374 121.604 197.693 117.359 202.04 112.208C202.954 111.125 203.814 110.015 204.622 108.88C195.533 118.011 183.343 123.391 170.472 123.951C157.601 124.511 144.989 120.21 135.142 111.902V111.902Z" fill="black"/>
<path d="M276.51 164.662C277.235 164.839 277.989 164.855 278.721 164.709C279.452 164.563 280.143 164.258 280.744 163.817C281.345 163.375 281.841 162.807 282.199 162.152C282.557 161.498 282.767 160.773 282.814 160.028L300.284 155.179L293.182 148.987L277.681 154.541C276.425 154.545 275.214 155.009 274.278 155.846C273.342 156.683 272.745 157.834 272.6 159.082C272.456 160.329 272.774 161.586 273.495 162.615C274.215 163.643 275.288 164.371 276.51 164.662V164.662Z" fill="#FFB8B8"/>
<path d="M283.771 162.095L282.708 151.995L297.302 143.944L287.787 132.426L289.34 119.488L293.206 117.831L293.326 117.986C295.149 120.33 311.138 140.96 311.138 143.511C311.138 146.13 308.079 153.822 303.894 155.914C299.857 157.933 284.7 161.856 284.056 162.022L283.771 162.095Z" fill="#2F2E41"/>
<path d="M359.493 283.417H166.182C166.048 283.417 165.919 283.364 165.823 283.269C165.728 283.173 165.675 283.044 165.675 282.91C165.675 282.775 165.728 282.646 165.823 282.551C165.919 282.456 166.048 282.402 166.182 282.402H359.493C359.627 282.402 359.756 282.456 359.851 282.551C359.947 282.646 360 282.775 360 282.91C360 283.044 359.947 283.173 359.851 283.269C359.756 283.364 359.627 283.417 359.493 283.417Z" fill="#CCCCCC"/>
</g>
<defs>
<clipPath id="clip0">
<rect width="360" height="283.417" fill="white"/>
</clipPath>
</defs>
</svg>
