<svg width="360" height="404" viewBox="0 0 360 404" fill="none" xmlns="http://www.w3.org/2000/svg">
<g clip-path="url(#clip0)">
<path d="M201.177 95.8779H198.961V35.1485C198.961 25.8266 195.257 16.8864 188.666 10.2948C182.074 3.70316 173.134 1.17625e-05 163.812 1.11933e-10H35.1486C30.5328 -1.16482e-05 25.9622 0.90912 21.6978 2.67549C17.4334 4.44186 13.5586 7.03087 10.2948 10.2947C7.03093 13.5585 4.44191 17.4333 2.67552 21.6977C0.909133 25.9621 -2.03253e-05 30.5327 -3.05176e-05 35.1484V368.315C-3.48857e-05 372.93 0.909094 377.501 2.67547 381.765C4.44185 386.03 7.03087 389.905 10.2947 393.168C13.5586 396.432 17.4333 399.021 21.6977 400.788C25.9621 402.554 30.5327 403.463 35.1485 403.463H163.812C173.134 403.463 182.074 399.76 188.666 393.168C195.257 386.577 198.96 377.637 198.96 368.315V139.106H201.177V95.8779Z" fill="#E6E6E6"/>
<path d="M165.23 9.14458H148.435C149.208 11.0381 149.503 13.0926 149.294 15.1269C149.085 17.1612 148.379 19.113 147.239 20.8104C146.098 22.5077 144.557 23.8984 142.753 24.8601C140.948 25.8218 138.934 26.3248 136.889 26.325H63.1797C61.1346 26.3249 59.121 25.8218 57.3162 24.8601C55.5114 23.8984 53.9708 22.5077 52.8302 20.8103C51.6895 19.113 50.9837 17.1612 50.7751 15.1269C50.5664 13.0925 50.8612 11.0381 51.6335 9.14453H35.9471C28.9856 9.14453 22.3092 11.91 17.3866 16.8325C12.4641 21.7551 9.69862 28.4315 9.69861 35.393V368.07C9.6986 375.032 12.4641 381.708 17.3866 386.631C22.3092 391.553 28.9856 394.319 35.9471 394.319H165.23C168.677 394.319 172.09 393.64 175.275 392.321C178.46 391.002 181.353 389.068 183.791 386.631C186.228 384.194 188.162 381.3 189.481 378.115C190.8 374.931 191.479 371.517 191.479 368.07V368.07V35.393C191.479 31.946 190.8 28.5328 189.481 25.3482C188.162 22.1636 186.228 19.27 183.791 16.8326C181.353 14.3952 178.46 12.4617 175.275 11.1426C172.09 9.8235 168.677 9.14457 165.23 9.14458V9.14458Z" fill="white"/>
<path d="M180.811 270.435H25.7965C25.0354 270.435 24.3058 270.132 23.7677 269.594C23.2295 269.056 22.9268 268.326 22.9259 267.565V229.113C22.9268 228.352 23.2295 227.622 23.7677 227.084C24.3058 226.546 25.0354 226.243 25.7965 226.242H180.811C181.572 226.243 182.301 226.546 182.84 227.084C183.378 227.622 183.68 228.352 183.681 229.113V267.565C183.68 268.326 183.377 269.056 182.839 269.594C182.301 270.132 181.572 270.435 180.811 270.435V270.435ZM25.7965 227.39C25.3398 227.391 24.9019 227.572 24.579 227.895C24.2561 228.218 24.0745 228.656 24.074 229.113V267.565C24.0745 268.022 24.2561 268.46 24.579 268.783C24.9019 269.106 25.3398 269.287 25.7965 269.288H180.811C181.267 269.287 181.705 269.106 182.028 268.783C182.351 268.46 182.533 268.022 182.533 267.565V229.113C182.533 228.656 182.351 228.218 182.028 227.895C181.705 227.572 181.267 227.391 180.811 227.39H25.7965Z" fill="#E6E6E6"/>
<path d="M45.8904 260.395C52.5491 260.395 57.947 254.997 57.947 248.338C57.947 241.68 52.5491 236.282 45.8904 236.282C39.2317 236.282 33.8338 241.68 33.8338 248.338C33.8338 254.997 39.2317 260.395 45.8904 260.395Z" fill="#E6E6E6"/>
<path d="M73.7357 240.301C73.2085 240.31 72.7059 240.525 72.3363 240.901C71.9666 241.277 71.7594 241.783 71.7594 242.31C71.7594 242.838 71.9666 243.344 72.3363 243.72C72.7059 244.095 73.2085 244.311 73.7357 244.32H168.466C168.999 244.33 169.514 244.128 169.899 243.759C170.283 243.389 170.504 242.882 170.514 242.349C170.525 241.816 170.323 241.301 169.953 240.917C169.584 240.533 169.077 240.312 168.544 240.301L168.532 240.301C168.51 240.301 168.488 240.301 168.466 240.301H73.7357Z" fill="#E6E6E6"/>
<path d="M73.7357 252.358C73.2085 252.366 72.7059 252.582 72.3363 252.958C71.9666 253.334 71.7594 253.84 71.7594 254.367C71.7594 254.894 71.9666 255.4 72.3363 255.776C72.7059 256.152 73.2085 256.368 73.7357 256.376H168.466C168.998 256.384 169.512 256.18 169.894 255.809C170.276 255.439 170.495 254.932 170.504 254.4C170.512 253.868 170.31 253.354 169.94 252.971C169.571 252.588 169.064 252.368 168.532 252.358C168.51 252.357 168.488 252.357 168.466 252.358H73.7357Z" fill="#E6E6E6"/>
<path d="M180.811 334.738H25.7965C25.0354 334.737 24.3058 334.434 23.7677 333.896C23.2295 333.358 22.9268 332.628 22.9259 331.867V293.415C22.9268 292.654 23.2295 291.924 23.7677 291.386C24.3058 290.848 25.0354 290.545 25.7965 290.544H180.811C181.572 290.545 182.301 290.848 182.84 291.386C183.378 291.924 183.68 292.654 183.681 293.415V331.868C183.68 332.629 183.377 333.358 182.839 333.896C182.301 334.434 181.572 334.737 180.811 334.738V334.738ZM25.7965 291.693C25.3398 291.693 24.9019 291.875 24.579 292.198C24.2561 292.52 24.0745 292.958 24.074 293.415V331.868C24.0745 332.324 24.2561 332.762 24.579 333.085C24.9019 333.408 25.3398 333.59 25.7965 333.59H180.811C181.267 333.59 181.705 333.408 182.028 333.085C182.351 332.762 182.533 332.324 182.533 331.868V293.415C182.533 292.958 182.351 292.52 182.028 292.198C181.705 291.875 181.267 291.693 180.811 291.693H25.7965Z" fill="#E6E6E6"/>
<path d="M45.8904 324.697C52.5491 324.697 57.947 319.299 57.947 312.641C57.947 305.982 52.5491 300.584 45.8904 300.584C39.2317 300.584 33.8338 305.982 33.8338 312.641C33.8338 319.299 39.2317 324.697 45.8904 324.697Z" fill="#E6E6E6"/>
<path d="M73.7357 304.603C73.2085 304.612 72.7059 304.828 72.3363 305.203C71.9666 305.579 71.7594 306.085 71.7594 306.613C71.7594 307.14 71.9666 307.646 72.3363 308.022C72.7059 308.398 73.2085 308.613 73.7357 308.622H168.466C168.998 308.629 169.512 308.425 169.894 308.055C170.276 307.684 170.495 307.178 170.504 306.646C170.512 306.114 170.31 305.6 169.94 305.217C169.571 304.834 169.064 304.613 168.532 304.603C168.51 304.603 168.488 304.603 168.466 304.603H73.7357Z" fill="#E6E6E6"/>
<path d="M73.7357 316.66C73.2085 316.669 72.7059 316.884 72.3363 317.26C71.9666 317.636 71.7594 318.142 71.7594 318.669C71.7594 319.196 71.9666 319.703 72.3363 320.078C72.7059 320.454 73.2085 320.67 73.7357 320.679H168.466C168.998 320.686 169.512 320.482 169.894 320.112C170.276 319.741 170.495 319.234 170.504 318.702C170.512 318.17 170.31 317.656 169.94 317.274C169.571 316.891 169.064 316.67 168.532 316.66C168.51 316.66 168.488 316.66 168.466 316.66H73.7357Z" fill="#E6E6E6"/>
<path d="M100.041 190.641C85.582 190.647 71.7125 184.909 61.4839 174.689C51.2553 164.469 45.5056 150.604 45.4996 136.145V136.099C45.4996 135.985 45.4996 135.865 45.5062 135.751C45.6725 105.882 70.1383 81.5571 100.041 81.5571C114.507 81.5555 128.38 87.3003 138.61 97.5277C148.84 107.755 154.588 121.627 154.589 136.093C154.591 150.558 148.846 164.432 138.619 174.661C128.391 184.891 114.519 190.639 100.054 190.641H100.041V190.641ZM100.041 82.7041C85.9449 82.7357 72.4303 88.3286 62.434 98.2677C52.4377 108.207 46.7673 121.689 46.6549 135.785C46.6488 135.907 46.6488 136.007 46.6488 136.098C46.6475 146.659 49.7781 156.984 55.6447 165.767C61.5113 174.549 69.8504 181.394 79.6076 185.437C89.3647 189.48 100.102 190.539 110.46 188.48C120.819 186.421 130.335 181.336 137.804 173.869C145.273 166.402 150.36 156.887 152.422 146.529C154.484 136.171 153.428 125.433 149.387 115.675C145.347 105.917 138.503 97.5762 129.722 91.7074C120.941 85.8386 110.617 82.7055 100.056 82.7041H100.041V82.7041Z" fill="#E6E6E6"/>
<path d="M174.692 256.588C186.939 256.588 196.867 246.66 196.867 234.413C196.867 222.166 186.939 212.238 174.692 212.238C162.445 212.238 152.517 222.166 152.517 234.413C152.517 246.66 162.445 256.588 174.692 256.588Z" fill="white"/>
<path d="M166.99 244.39C166.952 244.39 166.914 244.39 166.876 244.389H154.957C153.445 244.365 152.002 243.748 150.941 242.67C149.88 241.592 149.285 240.14 149.284 238.628C149.283 237.115 149.877 235.663 150.938 234.584C151.998 233.506 153.44 232.887 154.952 232.862H166.881C166.94 232.861 167.004 232.861 167.067 232.862C168.588 232.883 170.04 233.505 171.104 234.592C172.169 235.679 172.761 237.142 172.751 238.664C172.741 240.186 172.13 241.641 171.051 242.714C169.971 243.787 168.512 244.389 166.99 244.39V244.39Z" fill="#00A6FB"/>
<path d="M360 402.114H180.364V403.356H360V402.114Z" fill="#003554"/>
<path d="M191.432 296.997C191.291 296.777 191.174 296.543 191.083 296.299L188.22 288.633C187.887 287.738 187.922 286.747 188.319 285.878C188.716 285.009 189.441 284.332 190.335 283.997L254.223 260.141C255.118 259.808 256.109 259.843 256.978 260.24C257.848 260.636 258.524 261.361 258.859 262.256L261.721 269.922C261.887 270.365 261.963 270.837 261.947 271.31C261.93 271.782 261.82 272.247 261.624 272.678C261.427 273.109 261.148 273.496 260.802 273.819C260.456 274.141 260.049 274.392 259.606 274.558L195.719 298.414C194.95 298.701 194.106 298.717 193.326 298.459C192.547 298.201 191.878 297.685 191.432 296.997V296.997Z" fill="#00A6FB"/>
<path d="M254.019 258.161L228.04 268.52C227.221 268.767 226.529 269.319 226.106 270.062C225.684 270.805 225.563 271.682 225.771 272.512L228.785 284.583C228.905 285.06 229.128 285.505 229.439 285.885C229.751 286.265 230.143 286.572 230.587 286.782C231.031 286.993 231.516 287.103 232.007 287.104C232.499 287.104 232.985 286.996 233.429 286.787L259.481 274.525C260.306 274.215 260.975 273.591 261.341 272.789C261.707 271.987 261.741 271.073 261.435 270.247L258.303 260.115C257.994 259.288 257.369 258.618 256.566 258.252C255.762 257.885 254.847 257.853 254.019 258.161V258.161Z" fill="#003554"/>
<path d="M301.564 333.368C300.748 333.462 299.925 333.274 299.23 332.837C298.536 332.399 298.011 331.738 297.743 330.962L275.505 266.494C275.35 266.047 275.286 265.573 275.314 265.101C275.343 264.629 275.464 264.167 275.672 263.741C275.879 263.316 276.168 262.935 276.522 262.622C276.876 262.308 277.289 262.067 277.736 261.913L285.471 259.244C286.375 258.933 287.365 258.994 288.224 259.412C289.083 259.83 289.74 260.573 290.052 261.476L312.291 325.944C312.601 326.848 312.541 327.837 312.123 328.696C311.704 329.555 310.962 330.213 310.06 330.526L302.325 333.194C302.078 333.279 301.823 333.337 301.564 333.368V333.368Z" fill="#00A6FB"/>
<path d="M291.71 260.373L300.245 287.008C300.576 287.796 300.591 288.681 300.286 289.48C299.981 290.279 299.381 290.93 298.609 291.298L287.377 296.651C286.934 296.863 286.449 296.973 285.957 296.975C285.466 296.977 284.98 296.869 284.535 296.661C284.09 296.452 283.697 296.148 283.383 295.769C283.07 295.39 282.845 294.947 282.723 294.47L275.61 266.57C275.324 265.736 275.38 264.823 275.766 264.03C276.151 263.237 276.835 262.63 277.668 262.34L287.477 258.311C288.312 258.024 289.226 258.08 290.02 258.466C290.814 258.853 291.422 259.538 291.71 260.373V260.373Z" fill="#003554"/>
<path d="M265.868 402.48H257.686C256.73 402.478 255.814 402.098 255.139 401.423C254.463 400.747 254.083 399.831 254.082 398.876V330.68C254.083 329.724 254.463 328.808 255.139 328.133C255.814 327.457 256.73 327.077 257.686 327.076H265.868C266.823 327.077 267.739 327.457 268.415 328.133C269.09 328.808 269.47 329.724 269.471 330.68V398.876C269.47 399.831 269.09 400.747 268.415 401.423C267.739 402.098 266.823 402.478 265.868 402.48Z" fill="#003554"/>
<path d="M282.051 402.48H273.869C272.914 402.478 271.998 402.098 271.322 401.423C270.647 400.747 270.267 399.831 270.265 398.876V330.68C270.267 329.724 270.647 328.808 271.322 328.133C271.998 327.457 272.914 327.077 273.869 327.076H282.051C283.007 327.077 283.923 327.457 284.598 328.133C285.274 328.808 285.654 329.724 285.655 330.68V398.876C285.654 399.831 285.274 400.747 284.598 401.423C283.923 402.098 283.007 402.478 282.051 402.48Z" fill="#003554"/>
<path d="M288.795 338.697H251.617C250.588 338.695 249.601 338.286 248.874 337.559C248.146 336.831 247.737 335.845 247.736 334.816V274.42C247.736 268.46 250.103 262.745 254.317 258.531C258.531 254.318 264.246 251.95 270.206 251.95C276.165 251.95 281.88 254.318 286.094 258.531C290.308 262.745 292.675 268.46 292.675 274.42V334.816C292.674 335.845 292.265 336.831 291.537 337.559C290.81 338.286 289.823 338.695 288.795 338.697Z" fill="#CCCCCC"/>
<path d="M294.391 353.47H275.542V246.944L275.892 247.04C281.2 248.497 285.884 251.655 289.226 256.03C292.567 260.405 294.382 265.754 294.391 271.259V353.47Z" fill="#003554"/>
<path d="M263.337 353.47H244.489V271.259C244.498 265.754 246.312 260.405 249.654 256.03C252.995 251.655 257.679 248.497 262.987 247.04L263.337 246.944V353.47Z" fill="#003554"/>
<path d="M269.924 239.457C286.311 239.457 299.594 226.174 299.594 209.787C299.594 193.401 286.311 180.118 269.924 180.118C253.538 180.118 240.255 193.401 240.255 209.787C240.255 226.174 253.538 239.457 269.924 239.457Z" fill="#00A6FB"/>
<path d="M303.468 202.957C303.468 202.957 305.131 156.944 283.511 171.912C283.511 171.912 271.037 130.056 240.546 192.701L231.676 201.571C231.676 201.571 271.592 196.027 308.735 213.213L303.468 202.957Z" fill="#003554"/>
<path d="M270.377 224.481C268.544 224.43 266.263 224.366 264.506 223.083C263.983 222.685 263.553 222.177 263.246 221.596C262.94 221.014 262.764 220.373 262.732 219.716C262.7 219.25 262.777 218.782 262.956 218.35C263.135 217.918 263.411 217.533 263.763 217.225C264.681 216.45 266.021 216.268 267.466 216.692L265.969 205.757L267.068 205.606L268.827 218.462L267.91 218.041C266.846 217.554 265.386 217.305 264.479 218.072C264.256 218.272 264.083 218.522 263.972 218.8C263.861 219.078 263.816 219.379 263.84 219.677C263.867 220.166 263.999 220.643 264.227 221.076C264.454 221.509 264.773 221.888 265.16 222.187C266.528 223.186 268.346 223.315 270.408 223.373L270.377 224.481Z" fill="#003554"/>
<path d="M260.537 206.7H254.565V207.809H260.537V206.7Z" fill="#003554"/>
<path d="M279.386 206.7H273.414V207.809H279.386V206.7Z" fill="#003554"/>
<path d="M203.773 299.825C202.973 300.196 202.058 300.234 201.229 299.931C200.401 299.628 199.727 299.008 199.356 298.208L180.223 256.971C179.852 256.171 179.814 255.256 180.118 254.427C180.421 253.599 181.041 252.925 181.841 252.554C182.641 252.183 183.556 252.145 184.384 252.448C185.213 252.751 185.887 253.371 186.258 254.171L205.39 295.408C205.762 296.208 205.8 297.123 205.496 297.951C205.193 298.78 204.573 299.454 203.773 299.825Z" fill="#003554"/>
<path d="M184.116 255.454C183.528 255.454 182.964 255.22 182.548 254.804C182.132 254.388 181.899 253.824 181.899 253.236V224.989H154.18C153.592 224.989 153.028 224.756 152.612 224.34C152.196 223.924 151.962 223.36 151.962 222.772C151.962 222.184 152.196 221.62 152.612 221.204C153.028 220.788 153.592 220.554 154.18 220.554H184.116C184.704 220.554 185.268 220.788 185.684 221.204C186.1 221.62 186.334 222.184 186.334 222.772V253.236C186.334 253.824 186.1 254.388 185.684 254.804C185.268 255.22 184.704 255.454 184.116 255.454V255.454Z" fill="#00A6FB"/>
<path d="M184.641 258.589C179.867 260.804 174.543 261.553 169.343 260.742C164.142 259.932 159.299 257.597 155.426 254.034C151.553 250.471 148.823 245.839 147.582 240.725C146.341 235.61 146.644 230.243 148.454 225.3C150.263 220.358 153.498 216.064 157.748 212.96C161.998 209.856 167.074 208.082 172.332 207.863C177.59 207.644 182.796 208.988 187.29 211.727C191.784 214.466 195.365 218.476 197.58 223.251C200.542 229.654 200.843 236.97 198.417 243.595C195.992 250.22 191.037 255.612 184.641 258.589V258.589ZM165.042 216.346C161.461 218.007 158.454 220.693 156.399 224.064C154.345 227.434 153.337 231.338 153.501 235.282C153.666 239.226 154.996 243.032 157.324 246.22C159.652 249.408 162.873 251.833 166.579 253.191C170.286 254.548 174.312 254.775 178.148 253.845C181.983 252.914 185.457 250.866 188.13 247.961C190.802 245.056 192.553 241.424 193.161 237.524C193.769 233.624 193.207 229.631 191.545 226.05C189.313 221.253 185.269 217.537 180.3 215.718C175.332 213.899 169.844 214.124 165.042 216.346V216.346Z" fill="#003554"/>
</g>
<defs>
<clipPath id="clip0">
<rect width="360" height="403.463" fill="white"/>
</clipPath>
</defs>
</svg>
