<svg width="360" height="235" viewBox="0 0 360 235" fill="none" xmlns="http://www.w3.org/2000/svg">
<g clip-path="url(#clip0)">
<path d="M110.511 219.188C112.947 213.927 115.381 208.588 116.438 202.888C117.495 197.188 117.051 191.001 114.024 186.057C110.996 181.113 105.035 177.76 99.3464 178.878C94.674 179.796 90.9223 183.476 88.7256 187.7C86.5288 191.925 85.6474 196.69 84.793 201.374C84.517 196.052 84.2246 190.645 82.4567 185.618C80.6888 180.591 77.2078 175.906 72.2466 173.961C67.2854 172.015 60.8315 173.545 58.2167 178.188C54.5328 184.73 59.4175 193.906 55.1816 200.104C54.455 193.887 47.953 188.974 41.7735 189.974C35.594 190.974 30.9729 197.686 32.2441 203.816C33.0005 207.463 35.489 210.565 38.4641 212.806C41.4392 215.048 44.8993 217.645 48.3222 219.114L110.511 219.188Z" fill="#F2F2F2"/>
<path d="M35.4886 194.368C40.3973 196.083 45.3511 197.818 49.8324 200.501C53.8488 202.905 57.4253 206.142 59.6841 210.287C60.9217 212.511 61.6565 214.979 61.8367 217.518C61.8693 218.049 62.6999 218.052 62.6671 217.518C62.3767 212.79 60.0728 208.464 56.8826 205.042C53.3848 201.291 48.8522 198.729 44.1724 196.741C41.3977 195.563 38.554 194.561 35.7094 193.567C35.2039 193.39 34.9866 194.192 35.4887 194.368H35.4886Z" fill="white"/>
<path d="M63.8021 174.785C66.8179 179.809 69.2329 185.171 70.9975 190.758C72.7656 196.344 73.8793 202.117 74.3163 207.959C74.5581 211.23 74.5846 214.513 74.3953 217.787C74.3645 218.321 75.195 218.319 75.2257 217.787C75.5607 211.884 75.2035 205.962 74.1612 200.142C73.1206 194.322 71.4103 188.643 69.0644 183.217C67.7476 180.169 66.2291 177.212 64.5192 174.366C64.4616 174.275 64.371 174.21 64.2663 174.184C64.1617 174.159 64.0512 174.175 63.9581 174.229C63.8651 174.284 63.7969 174.372 63.7678 174.476C63.7387 174.579 63.751 174.69 63.8021 174.785V174.785Z" fill="white"/>
<path d="M104.446 179.555C100.18 189.139 97.1782 199.238 95.5156 209.596C95.0487 212.505 94.6874 215.429 94.4315 218.367C94.385 218.9 95.2157 218.896 95.2619 218.367C96.1661 208.032 98.3998 197.857 101.908 188.093C102.893 185.348 103.978 182.642 105.163 179.974C105.378 179.49 104.663 179.067 104.446 179.555V179.555Z" fill="white"/>
<path d="M251.725 230.5L251.659 225.344L227.354 225.659L227.42 230.814L251.725 230.5Z" fill="#E6E6E6"/>
<path d="M260.362 231.65L256.891 231.64L254.745 227.812L257.064 223.997L260.289 224.006C259.482 222.979 258.373 222.23 257.118 221.864C255.863 221.499 254.526 221.535 253.293 221.969C252.06 222.402 250.993 223.21 250.243 224.28C249.492 225.35 249.095 226.628 249.108 227.934C249.12 229.241 249.541 230.511 250.312 231.567C251.082 232.622 252.164 233.41 253.405 233.82C254.646 234.229 255.984 234.241 257.232 233.851C258.479 233.462 259.574 232.693 260.362 231.65V231.65Z" fill="#E6E6E6"/>
<path d="M218.717 231.65L222.188 231.64L224.334 227.812L222.015 223.997L218.79 224.006C219.598 222.979 220.706 222.23 221.961 221.864C223.216 221.499 224.554 221.535 225.787 221.969C227.019 222.402 228.086 223.21 228.837 224.28C229.587 225.35 229.984 226.628 229.972 227.934C229.959 229.241 229.538 230.511 228.767 231.567C227.997 232.622 226.915 233.41 225.674 233.82C224.433 234.229 223.095 234.241 221.848 233.851C220.6 233.462 219.505 232.693 218.717 231.65V231.65Z" fill="#E6E6E6"/>
<path d="M359.478 219.636H0.521739C0.383365 219.636 0.250659 219.581 0.152813 219.483C0.0549684 219.386 0 219.253 0 219.115C0 218.976 0.0549684 218.843 0.152813 218.746C0.250659 218.648 0.383365 218.593 0.521739 218.593H359.478C359.617 218.593 359.749 218.648 359.847 218.746C359.945 218.843 360 218.976 360 219.115C360 219.253 359.945 219.386 359.847 219.483C359.749 219.581 359.617 219.636 359.478 219.636Z" fill="#003554"/>
<path d="M281.993 120.506C291.502 120.506 299.21 112.797 299.21 103.288C299.21 93.7793 291.502 86.0708 281.993 86.0708C272.484 86.0708 264.775 93.7793 264.775 103.288C264.775 112.797 272.484 120.506 281.993 120.506Z" fill="#003554"/>
<path d="M288.97 199.944L290.296 206.201L315.063 204.064L313.106 194.829L288.97 199.944Z" fill="#FFB8B8"/>
<path d="M287.043 219.5L282.875 199.834L290.474 198.224L293.031 210.292C293.458 212.307 293.067 214.41 291.944 216.136C290.821 217.863 289.058 219.073 287.043 219.5L287.043 219.5Z" fill="#003554"/>
<path d="M273.454 199.61L270.666 205.367L247.134 197.355L251.248 188.858L273.454 199.61Z" fill="#FFB8B8"/>
<path d="M267.03 208.683L272.406 197.58L279.397 200.965L270.636 219.059C269.718 218.614 268.897 217.993 268.219 217.231C267.541 216.469 267.019 215.581 266.685 214.618C266.35 213.654 266.208 212.634 266.267 211.616C266.327 210.598 266.586 209.601 267.03 208.683V208.683Z" fill="#003554"/>
<path d="M227.092 188.24C227.897 188.39 228.726 188.362 229.519 188.157C230.313 187.952 231.051 187.575 231.684 187.054C232.316 186.533 232.826 185.879 233.178 185.139C233.531 184.4 233.716 183.592 233.722 182.772L272.526 146.996L262.89 139.532L227.757 177.068C226.38 177.149 225.08 177.732 224.104 178.707C223.128 179.682 222.544 180.981 222.462 182.358C222.38 183.736 222.806 185.095 223.659 186.179C224.513 187.263 225.734 187.996 227.092 188.24H227.092Z" fill="#FFB8B8"/>
<path d="M279.832 121.283C286.909 121.283 292.646 115.546 292.646 108.469C292.646 101.392 286.909 95.6543 279.832 95.6543C272.755 95.6543 267.017 101.392 267.017 108.469C267.017 115.546 272.755 121.283 279.832 121.283Z" fill="#FFB8B8"/>
<path d="M291.332 183.795C282.343 183.795 271.517 181.901 264.839 174.154L264.688 173.98L264.843 173.809C264.894 173.753 269.807 168.138 264.901 158.125L258.156 160.2L251.441 151.336L255.161 140.177L270.384 127.914C272.565 126.166 275.221 125.114 278.007 124.893C283.049 124.406 287.961 123.007 292.503 120.765C294.582 119.755 296.871 119.254 299.181 119.305L299.481 119.313C300.183 119.333 300.875 119.495 301.513 119.79C302.151 120.085 302.722 120.506 303.192 121.029C303.663 121.551 304.022 122.164 304.249 122.829C304.475 123.494 304.564 124.199 304.511 124.9C303.478 138.272 301.655 170.575 307.01 181.697L307.149 181.984L306.84 182.063C301.75 183.208 296.549 183.789 291.332 183.795V183.795Z" fill="#007cbd"/>
<path d="M266.602 173.984C266.602 173.984 232.688 170.854 229.036 180.767C225.384 190.68 229.558 195.376 235.819 197.462C242.08 199.549 257.21 202.158 257.21 202.158L263.993 193.81L281.732 194.854C281.732 194.854 301.498 206.318 306.963 218.579C308.136 221.233 310.005 223.519 312.373 225.194C314.742 226.87 317.52 227.872 320.412 228.095C324.794 228.4 328.688 226.745 328.688 219.897C328.688 204.245 306.775 181.81 306.775 181.81L266.602 173.984Z" fill="#003554"/>
<path d="M240.775 189.375C240.775 189.375 249.645 186.767 263.732 193.549Z" fill="#003554"/>
<path d="M267.048 100.297C272.053 103.352 277.695 105.211 283.535 105.729L281.797 103.647C283.063 104.115 284.394 104.379 285.742 104.43C286.417 104.45 287.087 104.311 287.699 104.024C288.31 103.738 288.846 103.313 289.264 102.782C289.604 102.231 289.807 101.605 289.854 100.959C289.901 100.312 289.79 99.6642 289.533 99.0696C289.003 97.8837 288.179 96.853 287.138 96.0756C285.294 94.6166 283.117 93.6366 280.802 93.2228C278.487 92.8091 276.106 92.9745 273.87 93.7044C272.336 94.1627 270.963 95.0436 269.907 96.2464C269.388 96.8522 269.028 97.5775 268.858 98.3571C268.688 99.1367 268.715 99.9462 268.935 100.713" fill="#003554"/>
<path d="M281.9 90.054C284.177 84.7674 287.585 80.0441 291.885 76.2168C294.646 73.7632 297.871 71.6552 301.509 71.0189C305.148 70.3825 309.248 71.4727 311.48 74.416C313.305 76.8228 313.646 80.047 313.445 83.0607C313.244 86.0744 312.57 89.0589 312.635 92.0786C312.701 95.1597 313.535 98.1756 315.062 100.853C316.589 103.529 318.761 105.783 321.379 107.407C323.998 109.032 326.981 109.977 330.058 110.157C333.134 110.337 336.207 109.745 338.997 108.436C335.855 110.172 333.407 112.921 330.49 115.014C327.573 117.106 323.727 118.541 320.414 117.158C316.909 115.695 315.301 111.722 314.046 108.137L308.446 92.1515C307.495 89.4341 306.496 86.636 304.553 84.5105C302.611 82.385 299.459 81.0895 296.785 82.1581C294.758 82.968 293.439 84.9012 292.282 86.7515C291.125 88.6018 289.905 90.5705 287.95 91.5407C285.995 92.5109 283.099 91.9136 282.46 89.8269" fill="#003554"/>
<path d="M281.544 167.578L277.945 171.271L295.354 188.235L298.952 184.542L281.544 167.578Z" fill="#E6E6E6"/>
<path d="M295.57 184.847C294.859 185.577 294.38 186.502 294.194 187.505C294.008 188.507 294.123 189.543 294.526 190.48C294.928 191.417 295.599 192.213 296.454 192.769C297.31 193.324 298.31 193.614 299.33 193.601C300.35 193.587 301.342 193.272 302.183 192.695C303.023 192.117 303.674 191.304 304.052 190.356C304.43 189.409 304.519 188.371 304.307 187.374C304.095 186.376 303.592 185.464 302.862 184.752C301.882 183.798 300.564 183.272 299.196 183.289C297.829 183.307 296.525 183.867 295.57 184.847V184.847ZM300.846 189.987C300.541 190.3 300.15 190.516 299.722 190.607C299.295 190.697 298.85 190.659 298.444 190.497C298.038 190.335 297.689 190.057 297.442 189.696C297.194 189.336 297.059 188.911 297.054 188.474C297.048 188.037 297.172 187.608 297.41 187.241C297.648 186.875 297.99 186.587 298.391 186.415C298.793 186.242 299.237 186.193 299.666 186.272C300.096 186.352 300.492 186.557 300.805 186.862C301.225 187.271 301.465 187.83 301.473 188.416C301.48 189.002 301.255 189.567 300.846 189.987Z" fill="#E6E6E6"/>
<path d="M276.25 160.658L278.697 163.12L277.508 167.344L273.17 168.402L270.896 166.115C270.741 167.412 270.996 168.726 271.624 169.871C272.253 171.017 273.225 171.937 274.403 172.503C275.581 173.068 276.907 173.251 278.194 173.025C279.481 172.799 280.665 172.176 281.581 171.243C282.496 170.311 283.096 169.115 283.298 167.824C283.499 166.532 283.291 165.21 282.704 164.043C282.116 162.876 281.178 161.922 280.02 161.315C278.863 160.708 277.545 160.478 276.25 160.658V160.658Z" fill="#E6E6E6"/>
<path d="M286.297 183.839C286.076 183.839 285.855 183.827 285.635 183.803C284.347 183.653 283.148 183.073 282.231 182.156C281.314 181.239 280.734 180.04 280.585 178.752C280.493 177.948 280.572 177.134 280.817 176.364C281.062 175.593 281.467 174.882 282.005 174.279C282.544 173.676 283.204 173.193 283.942 172.862C284.68 172.531 285.479 172.361 286.288 172.36C286.544 172.362 286.8 172.381 287.053 172.417L304.572 153.768L302.743 147.672L311.929 143.554L314.503 149.846C315.365 151.978 315.518 154.331 314.937 156.556C314.356 158.78 313.074 160.759 311.28 162.197L291.996 177.537C292.016 177.724 292.027 177.912 292.027 178.1C292.027 178.907 291.856 179.705 291.527 180.441C291.197 181.178 290.717 181.837 290.116 182.376C289.069 183.322 287.708 183.843 286.297 183.839Z" fill="#FFB8B8"/>
<path d="M299.993 121.81C300.6 121.54 301.256 121.396 301.921 121.385C302.585 121.375 303.245 121.499 303.86 121.751C304.476 122.002 305.034 122.375 305.502 122.848C305.969 123.32 306.336 123.882 306.581 124.5L315.645 147.375L301.558 156.766L299.993 121.81Z" fill="#007cbd"/>
<path d="M233.993 127.151V13.1803C233.988 9.68621 232.598 6.33661 230.127 3.86589C227.656 1.39517 224.307 0.00494389 220.813 0H41.7151C38.221 0.00494527 34.8714 1.39517 32.4006 3.86589C29.9299 6.33661 28.5397 9.68621 28.5347 13.1803V127.151C28.5397 130.646 29.9299 133.995 32.4006 136.466C34.8714 138.937 38.221 140.327 41.7151 140.332H220.813C224.307 140.327 227.656 138.937 230.127 136.466C232.598 133.995 233.988 130.646 233.993 127.151ZM41.7151 138.781C38.6318 138.777 35.676 137.551 33.4958 135.371C31.3156 133.191 30.0891 130.235 30.0854 127.151V13.1803C30.0891 10.0971 31.3156 7.14121 33.4958 4.96103C35.676 2.78085 38.6318 1.55437 41.7151 1.55062H220.813C223.896 1.55437 226.852 2.78085 229.032 4.96103C231.212 7.14121 232.438 10.0971 232.442 13.1803V127.151C232.438 130.235 231.212 133.191 229.032 135.371C226.852 137.551 223.896 138.777 220.813 138.781H41.7151Z" fill="#003554"/>
<path d="M232.442 20.5062H30.0854C29.8797 20.5062 29.6825 20.4245 29.5371 20.2791C29.3917 20.1337 29.3101 19.9365 29.3101 19.7309C29.3101 19.5252 29.3917 19.328 29.5371 19.1826C29.6825 19.0373 29.8797 18.9556 30.0854 18.9556H232.442C232.648 18.9556 232.845 19.0373 232.99 19.1826C233.136 19.328 233.218 19.5252 233.218 19.7309C233.218 19.9365 233.136 20.1337 232.99 20.2791C232.845 20.4245 232.648 20.5062 232.442 20.5062Z" fill="#003554"/>
<path d="M43.2657 14.7307C45.4067 14.7307 47.1423 12.9951 47.1423 10.8541C47.1423 8.71314 45.4067 6.97754 43.2657 6.97754C41.1247 6.97754 39.3891 8.71314 39.3891 10.8541C39.3891 12.9951 41.1247 14.7307 43.2657 14.7307Z" fill="#007cbd"/>
<path d="M56.446 14.7307C58.587 14.7307 60.3226 12.9951 60.3226 10.8541C60.3226 8.71314 58.587 6.97754 56.446 6.97754C54.305 6.97754 52.5694 8.71314 52.5694 10.8541C52.5694 12.9951 54.305 14.7307 56.446 14.7307Z" fill="#007cbd"/>
<path d="M69.6264 14.7307C71.7673 14.7307 73.5029 12.9951 73.5029 10.8541C73.5029 8.71314 71.7673 6.97754 69.6264 6.97754C67.4854 6.97754 65.7498 8.71314 65.7498 10.8541C65.7498 12.9951 67.4854 14.7307 69.6264 14.7307Z" fill="#007cbd"/>
<path d="M98.5976 103.947C98.529 103.947 98.4612 103.934 98.3979 103.907C98.3346 103.881 98.2771 103.843 98.2286 103.794C98.1802 103.746 98.1417 103.688 98.1155 103.625C98.0893 103.562 98.0758 103.494 98.0758 103.425C98.0758 97.9854 95.6911 94.9512 91.8435 91.8183C91.7902 91.7751 91.7459 91.7218 91.7132 91.6615C91.6804 91.6011 91.66 91.5349 91.6529 91.4667C91.6458 91.3984 91.6522 91.3294 91.6719 91.2636C91.6915 91.1979 91.7239 91.1366 91.7672 91.0834C91.8106 91.0302 91.864 90.986 91.9244 90.9535C91.9848 90.9209 92.0511 90.9007 92.1194 90.8938C92.1876 90.8869 92.2566 90.8935 92.3223 90.9133C92.388 90.9331 92.4492 90.9657 92.5023 91.0092C96.5875 94.3352 99.1193 97.5727 99.1193 103.425C99.1193 103.494 99.1058 103.562 99.0796 103.625C99.0534 103.688 99.015 103.746 98.9665 103.794C98.9181 103.843 98.8606 103.881 98.7972 103.907C98.7339 103.934 98.6661 103.947 98.5976 103.947Z" fill="black"/>
<path d="M53.9043 103.947C53.8358 103.947 53.7679 103.934 53.7046 103.907C53.6413 103.881 53.5838 103.843 53.5353 103.794C53.4869 103.746 53.4485 103.688 53.4222 103.625C53.396 103.562 53.3826 103.494 53.3826 103.425C53.3826 97.5727 55.9143 94.3352 59.9996 91.0092C60.0527 90.9657 60.1138 90.9331 60.1796 90.9133C60.2453 90.8935 60.3142 90.8869 60.3825 90.8938C60.4508 90.9007 60.5171 90.9209 60.5775 90.9535C60.6379 90.986 60.6913 91.0302 60.7346 91.0834C60.778 91.1366 60.8104 91.1979 60.83 91.2636C60.8496 91.3294 60.8561 91.3984 60.849 91.4667C60.8419 91.5349 60.8214 91.6011 60.7887 91.6615C60.756 91.7218 60.7117 91.7751 60.6584 91.8183C56.8108 94.9512 54.426 97.9859 54.426 103.425C54.4261 103.494 54.4126 103.562 54.3864 103.625C54.3602 103.688 54.3217 103.746 54.2733 103.794C54.2248 103.843 54.1673 103.881 54.104 103.907C54.0407 103.934 53.9728 103.947 53.9043 103.947Z" fill="black"/>
<path d="M94.1287 68.1922C94.0209 68.1923 93.9158 68.159 93.8278 68.0969C93.7397 68.0348 93.6731 67.9469 93.6369 67.8454C93.6008 67.7439 93.597 67.6337 93.626 67.53C93.6551 67.4262 93.7155 67.334 93.799 67.2659C97.7541 64.0461 98.0759 59.472 98.0759 54.2625C98.0759 54.1241 98.1308 53.9914 98.2287 53.8935C98.3265 53.7957 98.4592 53.7407 98.5976 53.7407C98.736 53.7407 98.8687 53.7957 98.9665 53.8935C99.0644 53.9914 99.1193 54.1241 99.1193 54.2625C99.1193 59.7433 98.7685 64.5655 94.4578 68.075C94.365 68.151 94.2486 68.1924 94.1287 68.1922V68.1922Z" fill="black"/>
<path d="M58.3735 67.9126C58.2535 67.9127 58.1372 67.8713 58.0443 67.7954C53.7334 64.2856 53.3826 59.5899 53.3826 54.262C53.3826 54.1236 53.4375 53.9909 53.5354 53.8931C53.6332 53.7952 53.7659 53.7402 53.9043 53.7402C54.0427 53.7402 54.1754 53.7952 54.2732 53.8931C54.3711 53.9909 54.426 54.1236 54.426 54.262C54.426 59.4985 54.7409 63.7605 58.7031 66.9862C58.7867 67.0543 58.8471 67.1465 58.8761 67.2503C58.9052 67.354 58.9013 67.4642 58.8652 67.5657C58.8291 67.6672 58.7624 67.7551 58.6744 67.8172C58.5863 67.8793 58.4812 67.9126 58.3735 67.9125V67.9126Z" fill="black"/>
<path d="M105.302 79.3838H94.1284C93.99 79.3838 93.8573 79.3288 93.7595 79.231C93.6616 79.1332 93.6067 79.0004 93.6067 78.8621C93.6067 78.7237 93.6616 78.591 93.7595 78.4932C93.8573 78.3953 93.99 78.3403 94.1284 78.3403H105.302C105.44 78.3403 105.573 78.3953 105.671 78.4932C105.768 78.591 105.823 78.7237 105.823 78.8621C105.823 79.0004 105.768 79.1332 105.671 79.231C105.573 79.3288 105.44 79.3838 105.302 79.3838Z" fill="black"/>
<path d="M58.3738 79.3838H47.2004C47.062 79.3838 46.9293 79.3288 46.8315 79.231C46.7337 79.1332 46.6787 79.0004 46.6787 78.8621C46.6787 78.7237 46.7337 78.591 46.8315 78.4932C46.9293 78.3953 47.062 78.3403 47.2004 78.3403H58.3738C58.5121 78.3403 58.6449 78.3953 58.7427 78.4932C58.8405 78.591 58.8955 78.7237 58.8955 78.8621C58.8955 79.0004 58.8405 79.1332 58.7427 79.231C58.6449 79.3288 58.5121 79.3838 58.3738 79.3838Z" fill="black"/>
<path d="M76.2509 101.712C76.1824 101.712 76.1146 101.699 76.0513 101.673C75.988 101.646 75.9304 101.608 75.882 101.559C75.8335 101.511 75.7951 101.453 75.7689 101.39C75.7427 101.327 75.7292 101.259 75.7292 101.19V65.4358C75.7292 65.2974 75.7842 65.1647 75.882 65.0669C75.9799 64.969 76.1126 64.9141 76.2509 64.9141C76.3893 64.9141 76.522 64.969 76.6199 65.0669C76.7177 65.1647 76.7727 65.2974 76.7727 65.4358V101.19C76.7727 101.259 76.7592 101.327 76.733 101.39C76.7068 101.453 76.6684 101.511 76.6199 101.559C76.5715 101.608 76.5139 101.646 76.4506 101.673C76.3873 101.699 76.3195 101.712 76.2509 101.712V101.712Z" fill="black"/>
<path d="M76.2509 101.712C71.3729 101.706 66.6963 99.7661 63.247 96.3168C59.7977 92.8675 57.8575 88.1908 57.852 83.3128V69.8951C57.852 61.303 64.9021 55.9653 76.2509 55.9653C88.1159 55.9653 94.6501 60.9124 94.6501 69.8951V83.3128C94.6446 88.1909 92.7043 92.8676 89.255 96.3169C85.8057 99.7662 81.129 101.706 76.2509 101.712V101.712ZM76.2509 57.0088C67.8608 57.0088 58.8955 60.394 58.8955 69.8951V83.3128C58.8942 85.5928 59.3422 87.8507 60.2138 89.9574C61.0855 92.0642 62.3637 93.9786 63.9754 95.5912C65.5872 97.2039 67.5009 98.4831 69.6072 99.3559C71.7135 100.229 73.9711 100.678 76.251 100.678C78.531 100.678 80.7886 100.229 82.8949 99.3559C85.0012 98.4831 86.9149 97.2039 88.5267 95.5912C90.1384 93.9786 91.4166 92.0642 92.2883 89.9574C93.1599 87.8507 93.6079 85.5928 93.6066 83.3128V69.8951C93.6066 58.6831 82.7327 57.0088 76.2509 57.0088V57.0088Z" fill="black"/>
<path d="M65.557 59.1865C65.4526 59.1865 65.3506 59.1552 65.2642 59.0966C65.1778 59.038 65.1109 58.9549 65.0722 58.8579C64.7709 58.1036 64.5967 57.3047 64.5566 56.4935C64.5657 53.4003 65.7966 50.436 67.9812 48.2461C70.1658 46.0563 73.1272 44.8183 76.2203 44.8018H76.2802C79.3694 44.8165 82.3279 46.0501 84.5124 48.2344C86.6969 50.4187 87.9309 53.377 87.946 56.4662C87.919 57.2209 87.7582 57.9648 87.4711 58.6632C87.4178 58.7902 87.3165 58.891 87.1892 58.9436C87.0619 58.9962 86.9189 58.9963 86.7916 58.9439C86.6642 58.8915 86.5627 58.7908 86.5092 58.6639C86.4557 58.537 86.4546 58.3941 86.5061 58.2663C86.7444 57.6879 86.8787 57.072 86.903 56.4469C86.8846 53.6369 85.7587 50.9477 83.7696 48.9628C81.7805 46.978 79.0889 45.8577 76.2789 45.8452H76.2216C73.4085 45.8592 70.7146 46.983 68.7255 48.9723C66.7365 50.9617 65.613 53.6557 65.5993 56.4688C65.6363 57.1559 65.7856 57.8323 66.0413 58.4711C66.0728 58.5503 66.0844 58.636 66.0752 58.7206C66.066 58.8053 66.0362 58.8864 65.9885 58.957C65.9407 59.0275 65.8765 59.0853 65.8013 59.1253C65.7261 59.1653 65.6422 59.1863 65.5571 59.1865H65.557Z" fill="black"/>
<path d="M129.24 56.3493H122.979C122.011 56.3493 121.082 55.9645 120.397 55.2796C119.712 54.5946 119.327 53.6657 119.327 52.6971C119.327 51.7285 119.712 50.7995 120.397 50.1146C121.082 49.4297 122.011 49.0449 122.979 49.0449H129.24C130.209 49.0449 131.138 49.4297 131.823 50.1146C132.508 50.7995 132.892 51.7285 132.892 52.6971C132.892 53.6657 132.508 54.5946 131.823 55.2796C131.138 55.9645 130.209 56.3493 129.24 56.3493V56.3493Z" fill="#CCCCCC"/>
<path d="M172.023 71.7404H165.762C164.793 71.7404 163.864 71.3556 163.179 70.6707C162.495 69.9858 162.11 69.0568 162.11 68.0882C162.11 67.1196 162.495 66.1907 163.179 65.5057C163.864 64.8208 164.793 64.436 165.762 64.436H172.023C172.991 64.436 173.92 64.8208 174.605 65.5057C175.29 66.1907 175.675 67.1196 175.675 68.0882C175.675 69.0568 175.29 69.9858 174.605 70.6707C173.92 71.3556 172.991 71.7404 172.023 71.7404V71.7404Z" fill="#CCCCCC"/>
<path d="M191.849 71.7404H185.588C184.619 71.7404 183.69 71.3556 183.006 70.6707C182.321 69.9858 181.936 69.0568 181.936 68.0882C181.936 67.1196 182.321 66.1907 183.006 65.5057C183.69 64.8208 184.619 64.436 185.588 64.436H191.849C192.818 64.436 193.747 64.8208 194.431 65.5057C195.116 66.1907 195.501 67.1196 195.501 68.0882C195.501 69.0568 195.116 69.9858 194.431 70.6707C193.747 71.3556 192.818 71.7404 191.849 71.7404V71.7404Z" fill="#CCCCCC"/>
<path d="M211.675 71.7404H205.414C204.446 71.7404 203.517 71.3556 202.832 70.6707C202.147 69.9858 201.762 69.0568 201.762 68.0882C201.762 67.1196 202.147 66.1907 202.832 65.5057C203.517 64.8208 204.446 64.436 205.414 64.436H211.675C212.644 64.436 213.573 64.8208 214.258 65.5057C214.942 66.1907 215.327 67.1196 215.327 68.0882C215.327 69.0568 214.942 69.9858 214.258 70.6707C213.573 71.3556 212.644 71.7404 211.675 71.7404V71.7404Z" fill="#CCCCCC"/>
<path d="M172.545 56.61H143.327C142.359 56.61 141.43 56.2252 140.745 55.5403C140.06 54.8554 139.675 53.9265 139.675 52.9578C139.675 51.9892 140.06 51.0603 140.745 50.3754C141.43 49.6905 142.359 49.3057 143.327 49.3057H172.545C173.513 49.3057 174.442 49.6905 175.127 50.3754C175.812 51.0603 176.197 51.9892 176.197 52.9578C176.197 53.9265 175.812 54.8554 175.127 55.5403C174.442 56.2252 173.513 56.61 172.545 56.61Z" fill="#CCCCCC"/>
<path d="M152.197 71.2189H122.979C122.011 71.2189 121.082 70.8341 120.397 70.1492C119.712 69.4643 119.327 68.5353 119.327 67.5667C119.327 66.5981 119.712 65.6692 120.397 64.9843C121.082 64.2993 122.011 63.9146 122.979 63.9146H152.197C153.165 63.9146 154.094 64.2993 154.779 64.9843C155.464 65.6692 155.849 66.5981 155.849 67.5667C155.849 68.5353 155.464 69.4643 154.779 70.1492C154.094 70.8341 153.165 71.2189 152.197 71.2189Z" fill="#CCCCCC"/>
<path d="M209.588 56.61H187.153C186.185 56.61 185.256 56.2252 184.571 55.5403C183.886 54.8554 183.501 53.9265 183.501 52.9578C183.501 51.9892 183.886 51.0603 184.571 50.3754C185.256 49.6905 186.185 49.3057 187.153 49.3057H209.588C210.557 49.3057 211.486 49.6905 212.171 50.3754C212.855 51.0603 213.24 51.9892 213.24 52.9578C213.24 53.9265 212.855 54.8554 212.171 55.5403C211.486 56.2252 210.557 56.61 209.588 56.61Z" fill="#CCCCCC"/>
<path d="M129.24 87.132H122.979C122.011 87.132 121.082 86.7472 120.397 86.0623C119.712 85.3774 119.327 84.4484 119.327 83.4798C119.327 82.5112 119.712 81.5823 120.397 80.8973C121.082 80.2124 122.011 79.8276 122.979 79.8276H129.24C130.209 79.8276 131.138 80.2124 131.823 80.8973C132.508 81.5823 132.892 82.5112 132.892 83.4798C132.892 84.4484 132.508 85.3774 131.823 86.0623C131.138 86.7472 130.209 87.132 129.24 87.132V87.132Z" fill="#CCCCCC"/>
<path d="M172.545 87.3927H143.327C142.359 87.3927 141.43 87.0079 140.745 86.323C140.06 85.6381 139.675 84.7092 139.675 83.7406C139.675 82.7719 140.06 81.843 140.745 81.1581C141.43 80.4732 142.359 80.0884 143.327 80.0884H172.545C173.513 80.0884 174.442 80.4732 175.127 81.1581C175.812 81.843 176.197 82.7719 176.197 83.7406C176.197 84.7092 175.812 85.6381 175.127 86.323C174.442 87.0079 173.513 87.3927 172.545 87.3927V87.3927Z" fill="#CCCCCC"/>
<path d="M209.588 87.3927H187.153C186.185 87.3927 185.256 87.0079 184.571 86.323C183.886 85.6381 183.501 84.7092 183.501 83.7406C183.501 82.7719 183.886 81.843 184.571 81.1581C185.256 80.4732 186.185 80.0884 187.153 80.0884H209.588C210.557 80.0884 211.486 80.4732 212.171 81.1581C212.855 81.843 213.24 82.7719 213.24 83.7406C213.24 84.7092 212.855 85.6381 212.171 86.323C211.486 87.0079 210.557 87.3927 209.588 87.3927V87.3927Z" fill="#CCCCCC"/>
<path d="M199.675 99.6536C199.676 98.6854 200.061 97.757 200.746 97.0724C201.431 96.3877 202.359 96.0026 203.327 96.0015H209.588C210.557 96.0015 211.486 96.3863 212.171 97.0712C212.855 97.7561 213.24 98.685 213.24 99.6536C213.24 100.622 212.855 101.551 212.171 102.236C211.486 102.921 210.557 103.306 209.588 103.306H203.327C202.359 103.305 201.431 102.92 200.746 102.235C200.061 101.55 199.676 100.622 199.675 99.6536V99.6536Z" fill="#CCCCCC"/>
<path d="M156.371 99.9144C156.372 98.9461 156.757 98.0178 157.442 97.3331C158.126 96.6484 159.055 96.2633 160.023 96.2622H189.24C190.209 96.2622 191.138 96.647 191.823 97.3319C192.508 98.0168 192.892 98.9458 192.892 99.9144C192.892 100.883 192.508 101.812 191.823 102.497C191.138 103.182 190.209 103.567 189.24 103.567H160.023C159.055 103.565 158.126 103.18 157.442 102.496C156.757 101.811 156.372 100.883 156.371 99.9144Z" fill="#CCCCCC"/>
<path d="M119.327 99.9144C119.328 98.9461 119.713 98.0178 120.398 97.3331C121.083 96.6484 122.011 96.2633 122.979 96.2622H145.414C146.383 96.2622 147.312 96.647 147.997 97.3319C148.682 98.0168 149.066 98.9458 149.066 99.9144C149.066 100.883 148.682 101.812 147.997 102.497C147.312 103.182 146.383 103.567 145.414 103.567H122.979C122.011 103.565 121.083 103.18 120.398 102.496C119.713 101.811 119.328 100.883 119.327 99.9144Z" fill="#CCCCCC"/>
</g>
<defs>
<clipPath id="clip0">
<rect width="360" height="234.135" fill="white"/>
</clipPath>
</defs>
</svg>
