<svg width="360" height="339" viewBox="0 0 360 339" fill="none" xmlns="http://www.w3.org/2000/svg">
<g clip-path="url(#clip0)">
<path d="M261.362 192.363V286.007L277.026 311.534L278.218 313.476H340.023L341.271 192.363H261.362Z" fill="#E6E6E6"/>
<path opacity="0.1" d="M261.362 192.363V286.007L277.026 311.534L277.987 192.363H261.362Z" fill="black"/>
<path d="M112.156 189.866V283.51L96.492 309.037L95.2999 310.979H33.4949L32.2462 189.866H112.156Z" fill="#E6E6E6"/>
<path opacity="0.1" d="M112.156 189.866V283.51L96.492 309.037L95.5307 189.866H112.156Z" fill="black"/>
<path d="M360 187.993V193.612H24.1303V185.496L55.3448 169.264H332.531L360 187.993Z" fill="#E6E6E6"/>
<path opacity="0.1" d="M360 187.993V193.612H24.1303V185.496L360 187.993Z" fill="black"/>
<path d="M72.2011 216.086H57.2178L50.9749 211.716H79.0682L72.2011 216.086Z" fill="#003554"/>
<path d="M72.2011 234.191H57.2178L50.9749 229.821H79.0682L72.2011 234.191Z" fill="#003554"/>
<path d="M72.2011 259.787H57.2178L50.9749 255.417H79.0682L72.2011 259.787Z" fill="#003554"/>
<path d="M72.2011 285.383H57.2178L50.9749 281.013H79.0682L72.2011 285.383Z" fill="#003554"/>
<path d="M301.316 218.583H316.3L322.543 214.213H294.449L301.316 218.583Z" fill="#003554"/>
<path d="M301.316 236.688H316.3L322.543 232.318H294.449L301.316 236.688Z" fill="#003554"/>
<path d="M301.316 262.284H316.3L322.543 257.914H294.449L301.316 262.284Z" fill="#003554"/>
<path d="M301.316 287.88H316.3L322.543 283.51H294.449L301.316 287.88Z" fill="#003554"/>
<path d="M311.52 60.9744H185.383C184.757 60.9743 184.136 61.0976 183.557 61.3373C182.979 61.577 182.453 61.9284 182.01 62.3714C181.567 62.8144 181.215 63.3403 180.976 63.9191C180.736 64.4979 180.613 65.1182 180.613 65.7447V150.713C180.613 151.34 180.736 151.96 180.976 152.539C181.215 153.118 181.567 153.644 182.01 154.087C182.453 154.53 182.979 154.881 183.557 155.121C184.136 155.361 184.757 155.484 185.383 155.484H233.266L231.472 166.937C231.472 166.937 221.22 172.383 228.428 172.544C235.637 172.704 269.596 172.544 269.596 172.544C269.596 172.544 276.163 172.544 265.751 166.777L264.064 155.484H311.52C312.146 155.484 312.766 155.361 313.345 155.121C313.924 154.881 314.45 154.53 314.893 154.087C315.336 153.644 315.687 153.118 315.927 152.539C316.167 151.96 316.29 151.34 316.29 150.713V65.7447C316.29 65.1182 316.167 64.4979 315.927 63.9191C315.687 63.3403 315.336 62.8144 314.893 62.3714C314.45 61.9284 313.924 61.577 313.345 61.3373C312.766 61.0976 312.146 60.9743 311.52 60.9744V60.9744Z" fill="#003554"/>
<path d="M311.725 66.0203H185.178V136.822H311.725V66.0203Z" fill="#F2F2F2"/>
<path d="M248.451 64.5787C248.894 64.5787 249.252 64.2201 249.252 63.7777C249.252 63.3354 248.894 62.9768 248.451 62.9768C248.009 62.9768 247.65 63.3354 247.65 63.7777C247.65 64.2201 248.009 64.5787 248.451 64.5787Z" fill="#F2F2F2"/>
<path d="M248.451 152.04C250.132 152.04 251.495 150.677 251.495 148.996C251.495 147.316 250.132 145.953 248.451 145.953C246.77 145.953 245.408 147.316 245.408 148.996C245.408 150.677 246.77 152.04 248.451 152.04Z" fill="#F2F2F2"/>
<path d="M243.709 181.194V182.796H157.529V181.514L157.647 181.194L159.771 175.427H241.947L243.709 181.194Z" fill="#003554"/>
<path d="M276.873 179.625C276.716 180.297 276.124 181.005 274.785 181.674C269.979 184.077 260.208 181.033 260.208 181.033C260.208 181.033 252.679 179.752 252.679 176.388C252.89 176.243 253.111 176.112 253.339 175.996C255.359 174.927 262.058 172.289 273.936 176.107C274.811 176.382 275.593 176.894 276.194 177.587C276.46 177.849 276.661 178.17 276.779 178.525C276.897 178.879 276.929 179.256 276.873 179.625Z" fill="#003554"/>
<path opacity="0.1" d="M276.873 179.625C270.991 181.879 265.749 182.047 260.368 178.31C258.333 176.806 255.869 175.995 253.339 175.996C255.359 174.927 262.058 172.289 273.936 176.107C274.811 176.382 275.593 176.894 276.194 177.587C276.46 177.849 276.661 178.17 276.779 178.525C276.897 178.879 276.929 179.256 276.873 179.625Z" fill="black"/>
<path d="M269.498 178.31C270.649 178.31 271.581 178.023 271.581 177.67C271.581 177.316 270.649 177.029 269.498 177.029C268.348 177.029 267.416 177.316 267.416 177.67C267.416 178.023 268.348 178.31 269.498 178.31Z" fill="#F2F2F2"/>
<path opacity="0.1" d="M243.709 181.194V182.796H157.529V181.514L157.647 181.194H243.709Z" fill="black"/>
<path d="M47.9172 0.000119652C47.0425 -0.0716912 46.1667 0.123956 45.4058 0.561135C44.6587 1.0728 44.1877 1.96918 43.7071 2.80331C41.8692 6.03062 39.3812 8.84107 36.4005 11.0566C34.2295 12.6471 31.4693 14.6302 31.8407 17.5626C32.0367 18.531 32.3945 19.4595 32.899 20.309C34.9018 24.352 40.3672 27.4763 39.8296 32.0897C41.8194 28.7585 39.1579 27.1113 41.1477 23.7801C42.0953 22.1937 43.7415 20.4029 45.1722 21.3992C45.6513 21.7327 45.9659 22.331 46.4646 22.6237C47.6548 23.3221 48.921 21.9869 49.9745 21.0412C53.6074 17.78 58.7737 18.6343 63.2945 19.6505C65.4287 20.1302 67.7729 20.7595 69.0346 22.7994C70.6934 25.4813 67.4586 28.3778 66.6413 31.41C66.5745 31.6684 66.5714 31.939 66.6321 32.1989C66.6928 32.4588 66.8155 32.7 66.9898 32.9021C67.164 33.1042 67.3846 33.2611 67.6327 33.3593C67.8808 33.4576 68.1491 33.4942 68.4144 33.4662C69.7709 33.3324 71.3778 33.2227 71.4581 32.6275C73.1647 32.6882 75.2559 32.495 75.9871 30.7179C76.2106 30.0147 76.3288 29.2824 76.3377 28.5447C76.6061 25.5596 77.873 22.8362 78.7124 19.9951C79.5517 17.1539 79.9166 13.8243 78.5002 11.3053C77.9947 10.4672 77.3695 9.70741 76.6445 9.04994C68.6066 1.27136 58.0386 -0.0114267 47.9172 0.000119652Z" fill="#2F2E41"/>
<path d="M41.5777 37.9165C41.5777 37.9165 43.3258 52.484 36.9161 53.6494C30.5064 54.8148 42.7431 74.6266 42.7431 74.6266L71.8781 78.1228L64.8857 54.8148C64.8857 54.8148 60.2241 53.0667 63.1376 41.4127C66.0511 29.7587 41.5777 37.9165 41.5777 37.9165Z" fill="#FFB8B8"/>
<path d="M23.8054 288.186L26.1364 320.235H38.3726L34.8769 288.186H23.8054Z" fill="#FFB8B8"/>
<path d="M113.541 227.585L115.289 254.389L128.692 248.563L123.447 226.42L113.541 227.585Z" fill="#FFB8B8"/>
<path d="M15.0649 165.819C15.0649 165.819 15.6476 199.616 19.1438 210.687C22.64 221.758 22.0573 222.341 21.4746 224.089C20.8919 225.837 20.3092 224.672 20.3092 227.585C20.3092 230.499 19.1438 276.532 20.3092 280.611C21.4746 284.69 16.813 291.682 20.3092 292.265C23.8054 292.848 40.121 292.265 40.7037 288.769C41.2864 285.273 36.0421 284.107 38.3729 281.777C40.7037 279.446 44.1999 231.664 44.1999 231.664L52.3577 198.45L67.5079 180.969H99.5563L109.462 219.428C109.462 219.428 105.383 230.499 108.297 230.499C111.21 230.499 128.691 233.995 128.691 221.176C128.691 208.356 122.864 170.481 121.699 169.315C120.534 168.15 122.282 164.071 120.534 162.323C118.785 160.575 98.391 148.338 90.8159 146.008C83.2408 143.677 72.6142 140.903 72.6142 140.903L15.0649 165.819Z" fill="#2F2E41"/>
<path d="M128.691 243.901C128.691 243.901 119.951 240.987 115.872 249.728C111.793 258.468 113.541 260.799 113.541 260.799C113.541 260.799 126.943 265.461 129.274 263.13C130.288 262.116 133.508 261.764 136.823 261.689C141.871 261.576 143.214 254.434 138.446 252.771C138.304 252.721 138.16 252.678 138.015 252.641C133.353 251.476 128.691 243.901 128.691 243.901Z" fill="#2F2E41"/>
<path d="M54.6885 47.5311C64.3429 47.5311 72.1695 39.7046 72.1695 30.0501C72.1695 20.3956 64.3429 12.5691 54.6885 12.5691C45.034 12.5691 37.2075 20.3956 37.2075 30.0501C37.2075 39.7046 45.034 47.5311 54.6885 47.5311Z" fill="#FFB8B8"/>
<path d="M31.9631 60.9334C31.9631 60.9334 60.5154 66.7604 67.5078 57.4372C74.5002 48.114 77.4137 83.6587 77.4137 83.6587L80.9099 120.951L75.6656 141.346C75.6656 141.346 48.2787 163.489 39.5382 165.237C30.7977 166.985 17.3956 168.15 17.3956 168.15C17.3956 168.15 21.4746 103.47 21.4746 102.305C21.4746 101.14 31.9631 60.9334 31.9631 60.9334Z" fill="#00A6FB"/>
<path d="M40.6466 50.0048C40.6466 50.0048 34.294 46.3657 32.5459 49.8619C30.7978 53.3581 14.4822 62.0986 12.7341 62.0986C10.986 62.0986 16.2303 110.463 13.8995 116.29C11.5687 122.117 0.497409 164.654 6.90711 168.15C13.3168 171.646 8.65521 164.654 15.0649 173.394C21.4746 182.135 52.9404 182.135 54.6885 178.639C56.4366 175.142 40.7037 148.921 43.6172 124.447C46.5307 99.9741 51.1923 66.1775 47.1134 61.5159C43.0345 56.8543 40.6466 50.0048 40.6466 50.0048Z" fill="#2F2E41"/>
<path d="M61.6809 53.9409L62.4926 51.1477C62.4926 51.1477 86.737 59.1852 87.9024 64.4295C89.0678 69.6738 88.4851 106.384 84.4062 109.297C80.3273 112.211 74.5003 116.872 78.5792 123.865C82.6581 130.857 87.3197 138.432 90.8159 139.015C94.3121 139.598 100.722 143.677 98.9737 147.756C97.2256 151.834 76.2484 144.259 76.2484 144.259C76.2484 144.259 62.2636 133.771 62.8463 117.455C63.429 101.14 61.6809 53.9409 61.6809 53.9409Z" fill="#2F2E41"/>
<path d="M82.0754 122.699L68.0906 148.921C68.0906 148.921 47.6961 169.898 59.3501 172.229C71.0041 174.56 77.4138 153 77.4138 153L92.564 131.44L82.0754 122.699Z" fill="#FFB8B8"/>
<path d="M48.7688 4.57408C48.0642 4.52187 47.3584 4.65876 46.7244 4.9706C46.1512 5.38926 45.6787 5.9307 45.3416 6.55536C43.7874 8.89325 41.7614 10.8802 39.3937 12.3888C37.6264 13.5129 35.3796 14.9145 35.6819 16.9871C35.8461 17.682 36.1382 18.3403 36.5434 18.9282C38.1794 21.8147 38.8307 25.1555 38.3987 28.4451L43.2582 21.3816C44.0296 20.2603 45.3697 18.9946 46.5343 19.6988C46.9243 19.9346 47.1804 20.3575 47.5864 20.5643C48.5553 21.058 49.586 20.1143 50.4436 19.4458C53.4009 17.1408 57.6065 17.7446 61.2866 18.4628C63.024 18.8019 64.9322 19.2467 65.9593 20.6884C67.666 23.0843 65.8839 26.5462 66.88 29.314C67.1588 29.1188 67.3956 28.8696 67.5763 28.5811C67.757 28.2927 67.878 27.9709 67.9321 27.6349C69.3214 27.6778 71.0237 27.5412 71.6189 26.2852C71.8 25.7929 71.8965 25.2736 71.9043 24.7492C72.1228 22.6393 73.1541 20.7145 73.8374 18.7064C74.5206 16.6983 74.8177 14.3449 73.6647 12.5645C73.2429 11.9613 72.7338 11.424 72.1541 10.9704C65.6109 5.47258 57.008 4.56592 48.7688 4.57408Z" fill="#2F2E41"/>
<path d="M82.0753 62.0986L87.5044 63.5397C87.5044 63.5397 100.139 95.8952 97.2256 118.038C94.3121 140.18 92.5639 135.519 92.5639 135.519C92.5639 135.519 87.9024 125.03 77.4138 127.361L82.0753 62.0986Z" fill="#2F2E41"/>
<path d="M24.6127 315.999C23.2075 317.909 23.4893 320.638 22.2446 322.656C21.1656 324.405 19.1323 325.322 17.7828 326.872C17.3521 327.387 16.9683 327.939 16.6357 328.522C15.3838 330.619 14.3662 333.306 15.5992 335.415C16.591 337.11 18.6757 337.773 20.5877 338.225C23.0043 338.796 25.5152 339.253 27.9597 338.817C30.4042 338.38 32.7933 336.883 33.6649 334.558C33.8362 333.974 34.0398 333.399 34.2749 332.837C35.5998 330.229 39.7557 330.2 41.1117 327.608C42.0606 325.794 41.1883 323.601 40.3164 321.748L37.6532 316.091C36.7695 314.213 33.1868 315.293 31.319 314.843C28.8831 314.256 26.3651 313.61 24.6127 315.999Z" fill="#2F2E41"/>
<path d="M5.159 134.354L29.6324 172.229C29.6324 172.229 44.7826 191.458 49.4442 182.718C54.1058 173.977 33.1286 159.41 33.1286 159.41L17.3957 130.275L5.159 134.354Z" fill="#FFB8B8"/>
<path d="M17.3957 63.264L12.7341 62.0986C12.7341 62.0986 3.41088 65.0121 1.08008 77.2488C-1.25071 89.4855 0.497379 138.432 3.41088 139.015C6.32438 139.598 17.8006 130.492 19.6376 132.423C21.4746 134.353 15.6476 124.448 17.3956 119.203C19.1437 113.959 17.3957 63.264 17.3957 63.264Z" fill="#2F2E41"/>
<path d="M236.474 89.2739H221.413V92.8996H236.474V89.2739Z" fill="#00A6FB"/>
<path d="M288.628 89.2739H283.329V92.8996H288.628V89.2739Z" fill="#00A6FB"/>
<path d="M299.226 89.2739H293.927V92.8996H299.226V89.2739Z" fill="#00A6FB"/>
<path d="M277.751 89.2739H241.773V92.8996H277.751V89.2739Z" fill="#00A6FB"/>
<path d="M217.509 112.701H202.448V116.327H217.509V112.701Z" fill="#00A6FB"/>
<path d="M269.663 112.701H264.364V116.327H269.663V112.701Z" fill="#00A6FB"/>
<path d="M280.261 112.701H274.962V116.327H280.261V112.701Z" fill="#00A6FB"/>
<path d="M258.786 112.701H222.808V116.327H258.786V112.701Z" fill="#00A6FB"/>
<path d="M279.703 97.3621H264.643V100.988H279.703V97.3621Z" fill="#00A6FB"/>
<path d="M300.063 97.3621H285.002V100.988H300.063V97.3621Z" fill="#00A6FB"/>
<path d="M207.747 97.3621H202.448V100.988H207.747V97.3621Z" fill="#00A6FB"/>
<path d="M218.345 97.3621H213.046V100.988H218.345V97.3621Z" fill="#00A6FB"/>
<path d="M259.622 97.3621H223.645V100.988H259.622V97.3621Z" fill="#00A6FB"/>
<path d="M248.466 105.171H233.406V108.797H248.466V105.171Z" fill="#00A6FB"/>
<path d="M228.107 105.171H213.046V108.797H228.107V105.171Z" fill="#00A6FB"/>
<path d="M207.747 105.171H202.448V108.797H207.747V105.171Z" fill="#00A6FB"/>
<path d="M300.063 105.171H294.764V108.797H300.063V105.171Z" fill="#00A6FB"/>
<path d="M289.464 105.171H253.487V108.797H289.464V105.171Z" fill="#00A6FB"/>
</g>
<defs>
<clipPath id="clip0">
<rect width="360" height="338.99" fill="white"/>
</clipPath>
</defs>
</svg>
