<svg width="360" height="234" viewBox="0 0 360 234" fill="none" xmlns="http://www.w3.org/2000/svg">
<g clip-path="url(#clip0)">
<path d="M360 109.754C360.001 119.055 356.491 128.013 350.172 134.838C343.854 141.662 335.193 145.851 325.92 146.566C325.607 146.59 325.29 146.613 324.973 146.628V111.586C324.973 111.236 324.895 110.89 324.744 110.574C324.594 110.258 324.374 109.979 324.102 109.759C324.071 109.727 324.036 109.698 323.998 109.674C323.963 109.646 323.927 109.62 323.889 109.598C323.556 109.384 323.175 109.257 322.781 109.228C322.387 109.199 321.991 109.269 321.631 109.432L321.238 108.571C321.668 108.375 322.134 108.273 322.606 108.273L295.645 85.0456C295.853 84.809 296.071 84.577 296.288 84.3451C301.371 78.987 307.944 75.2763 315.158 73.6925C322.371 72.1086 329.894 72.7244 336.754 75.4603C343.614 78.1961 349.496 82.9263 353.64 89.0397C357.784 95.1531 359.999 102.369 360 109.754Z" fill="#C0E9FE"/>
<path d="M9.36162 134.929C9.22754 134.244 9.24529 133.538 9.41361 132.861C9.58194 132.183 9.89675 131.551 10.3359 131.008C10.775 130.466 11.3277 130.026 11.9552 129.72C12.5826 129.414 13.2695 129.25 13.9674 129.238L35.2498 103.903L40.563 110.697L18.8733 134.275C18.8152 135.449 18.3286 136.56 17.5056 137.399C16.6827 138.238 15.5805 138.746 14.4081 138.827C13.2357 138.908 12.0744 138.555 11.1443 137.837C10.2142 137.119 9.57991 136.084 9.36164 134.929H9.36162Z" fill="#FFB8B8"/>
<path d="M110.424 103.747C110.275 103.962 110.143 104.189 110.03 104.425L86.7917 107.747L83.263 103.267L75.8059 107.709L82.8156 118.638L111.157 110.283C111.905 110.96 112.841 111.393 113.841 111.525C114.841 111.657 115.858 111.482 116.756 111.022C117.654 110.562 118.39 109.839 118.868 108.951C119.345 108.062 119.541 107.049 119.428 106.046C119.316 105.044 118.901 104.099 118.238 103.338C117.576 102.577 116.698 102.036 115.72 101.786C114.743 101.537 113.713 101.59 112.767 101.941C111.82 102.291 111.003 102.921 110.424 103.747Z" fill="#FFB8B8"/>
<path d="M70.7292 188.395L74.8416 192.489L92.5919 178.577L86.5227 172.534L70.7292 188.395Z" fill="#FFB8B8"/>
<path d="M78.9702 204.204L66.0462 191.336L71.0182 186.342L78.9488 194.239C79.6045 194.892 80.1252 195.668 80.4812 196.522C80.8372 197.376 81.0214 198.292 81.0234 199.217C81.0254 200.143 80.8451 201.059 80.4928 201.915C80.1405 202.771 79.6231 203.549 78.9702 204.204L78.9702 204.204Z" fill="#003554"/>
<path d="M48.8706 227.668H54.6737L57.4342 205.285H48.8696L48.8706 227.668Z" fill="#FFB8B8"/>
<path d="M65.865 233.056L47.6269 233.057L47.6266 226.011L58.8181 226.01C59.7435 226.01 60.6598 226.192 61.5147 226.546C62.3697 226.9 63.1465 227.419 63.8009 228.074C64.4552 228.728 64.9743 229.505 65.3285 230.36C65.6826 231.215 65.8649 232.131 65.865 233.056Z" fill="#003554"/>
<path d="M47.6089 210.381L40.999 161.633C39.9645 154.265 40.2856 146.771 41.9462 139.52C43.3026 133.692 45.1351 129.655 47.3928 127.522C47.7491 127.188 48.2052 126.979 48.6913 126.929L70.5153 124.656C70.9356 124.613 71.3596 124.69 71.7376 124.879C72.1156 125.068 72.4321 125.36 72.6501 125.722L73.3675 126.918C73.4546 127.063 73.5248 127.218 73.5768 127.379L78.191 141.683C78.2599 141.899 78.3711 142.1 78.518 142.272C78.665 142.445 78.8448 142.587 79.0471 142.69C86.3119 146.399 109.91 158.919 108.56 164.321C107.291 169.397 95.4108 177.627 91.7999 180.028C91.4323 180.274 90.9992 180.404 90.5569 180.4C90.1146 180.397 89.6835 180.261 89.3196 180.009L83.3256 175.908C83.033 175.708 82.7925 175.441 82.6244 175.129C82.4562 174.816 82.3653 174.468 82.3591 174.114C82.3529 173.759 82.4316 173.409 82.5888 173.091C82.7459 172.773 82.9769 172.497 83.2623 172.287L87.3958 169.241C87.6488 169.055 87.8461 168.803 87.9666 168.512C88.087 168.222 88.1261 167.905 88.0795 167.594C88.0329 167.283 87.9025 166.991 87.7022 166.749C87.5019 166.506 87.2394 166.323 86.9429 166.219L64.744 158.43C64.4947 158.343 64.2287 158.314 63.9664 158.345C63.7042 158.376 63.4526 158.468 63.231 158.611C63.0095 158.755 62.8239 158.948 62.6885 159.175C62.5531 159.402 62.4715 159.656 62.45 159.92L58.3569 209.946C58.3117 210.483 58.0738 210.985 57.6872 211.359C57.3006 211.734 56.7914 211.955 56.2539 211.984L49.9209 212.3C49.8823 212.302 49.8441 212.303 49.8059 212.303C49.2684 212.305 48.7487 212.111 48.3442 211.757C47.9396 211.403 47.6782 210.914 47.6089 210.381Z" fill="#003554"/>
<path d="M57.6179 84.2952C64.0386 84.2952 69.2436 79.0902 69.2436 72.6694C69.2436 66.2487 64.0386 61.0436 57.6179 61.0436C51.1972 61.0436 45.9922 66.2487 45.9922 72.6694C45.9922 79.0902 51.1972 84.2952 57.6179 84.2952Z" fill="#FFB8B8"/>
<path d="M46.7441 125.531L38.1865 94.3066L38.3331 94.2077C38.5169 94.0838 56.962 81.9039 78.5576 91.7193L78.9492 91.9439L73.8784 124.352C73.7677 125.092 73.4025 125.77 72.8457 126.269C72.2888 126.768 71.5752 127.057 70.828 127.087L49.9619 127.889C49.9198 127.891 49.8779 127.892 49.8362 127.892C49.1328 127.893 48.4485 127.663 47.8894 127.236C47.3304 126.809 46.9278 126.21 46.7441 125.531Z" fill="#C0E9FE"/>
<path d="M37.8608 114.634L30.7336 106.438C30.3903 106.044 30.1971 105.542 30.1878 105.019C30.1786 104.497 30.3541 103.988 30.6832 103.583L38.1339 94.3784L43.8535 95.9384L46.8858 106.552L41.3569 114.45C41.164 114.727 40.9102 114.957 40.6149 115.12C40.3195 115.284 39.9906 115.378 39.6534 115.395C39.6135 115.397 39.5738 115.398 39.5342 115.398C39.2167 115.398 38.9029 115.33 38.6141 115.198C38.3253 115.067 38.0684 114.874 37.8608 114.634Z" fill="#C0E9FE"/>
<path d="M77.2734 112.926C76.9362 112.91 76.6072 112.816 76.3119 112.652C76.0166 112.488 75.7628 112.259 75.5699 111.982L70.041 104.083L72.7004 92.9113L77.9665 91.4751L78.9492 91.944L86.2435 101.114C86.5727 101.52 86.7481 102.029 86.7389 102.551C86.7297 103.073 86.5364 103.576 86.1931 103.97L79.066 112.166C78.8584 112.406 78.6015 112.598 78.3127 112.73C78.0239 112.862 77.71 112.93 77.3926 112.929C77.3531 112.929 77.3132 112.928 77.2734 112.926Z" fill="#C0E9FE"/>
<path d="M324.973 109.267C324.977 109.384 324.936 109.5 324.859 109.588C324.777 109.684 324.661 109.743 324.536 109.753C324.411 109.762 324.287 109.722 324.192 109.641L322.606 108.273L295.645 85.0457L220.024 19.89C219.593 19.5207 219.043 19.3182 218.475 19.319C217.907 19.3199 217.359 19.5241 216.928 19.8947L115.094 108.367L114.176 109.162C114.141 109.194 114.101 109.219 114.058 109.238C113.982 109.272 113.898 109.285 113.816 109.276C113.698 109.263 113.588 109.208 113.508 109.12C113.467 109.073 113.436 109.019 113.416 108.96C113.395 108.902 113.387 108.839 113.391 108.777C113.395 108.715 113.411 108.655 113.439 108.599C113.466 108.543 113.504 108.493 113.551 108.452L113.679 108.339L216.308 19.18C216.911 18.662 217.679 18.3764 218.474 18.3747C219.269 18.373 220.039 18.6552 220.644 19.1705L296.288 84.3451L324.807 108.921C324.857 108.964 324.897 109.017 324.926 109.077C324.954 109.136 324.97 109.201 324.973 109.267Z" fill="#003554"/>
<path d="M267.476 123.244L266.231 119.817L261.943 107.984L252.703 82.5038L242.375 54.0227L223.749 2.65081C223.383 1.64902 222.636 0.832981 221.67 0.381407C220.703 -0.0701668 219.598 -0.120475 218.594 0.241497L110.905 39.2876C109.903 39.6529 109.087 40.4007 108.635 41.367C108.183 42.3332 108.133 43.4391 108.496 44.4423L134.904 117.271L135.353 118.516L163.072 131.078L170.863 134.609L172.127 135.182L205.114 150.135L206.392 149.671L228.028 141.828L260.665 129.994L265.062 128.399C266.065 128.034 266.882 127.287 267.334 126.32C267.787 125.354 267.838 124.248 267.476 123.244Z" fill="#C0E9FE"/>
<path d="M222.32 62.5808C221.782 61.1064 220.683 59.9052 219.261 59.2406C217.84 58.576 216.213 58.5022 214.737 59.0354L172.127 74.4901L151.551 81.95C150.82 82.2142 150.148 82.62 149.574 83.144C148.999 83.6681 148.534 84.3002 148.204 85.0042C147.875 85.7082 147.687 86.4702 147.652 87.2468C147.617 88.0234 147.735 88.7993 148 89.5302C148.265 90.261 148.671 90.9325 149.196 91.5062C149.721 92.0799 150.353 92.5445 151.057 92.8736C151.762 93.2027 152.524 93.3897 153.301 93.424C154.077 93.4583 154.853 93.3392 155.584 93.0735L172.127 87.0763L218.774 70.1637C220.249 69.6265 221.45 68.5266 222.115 67.1051C222.779 65.6836 222.853 64.0566 222.32 62.5808Z" fill="white"/>
<path d="M229.822 83.2754C229.285 81.801 228.185 80.5998 226.764 79.9352C225.342 79.2706 223.715 79.1968 222.239 79.73L215.021 82.3476L172.127 97.9017L159.053 102.64C157.579 103.176 156.378 104.275 155.714 105.696C155.049 107.117 154.976 108.744 155.511 110.219C156.045 111.693 157.143 112.896 158.564 113.561C159.984 114.227 161.611 114.301 163.086 113.768L172.127 110.488L226.277 90.8536C226.4 90.811 226.518 90.7589 226.637 90.7068C228.012 90.1036 229.106 89.0002 229.697 87.6202C230.289 86.2403 230.333 84.6871 229.822 83.2754Z" fill="white"/>
<path d="M237.405 104.188C236.869 102.714 235.77 101.512 234.349 100.848C232.928 100.183 231.302 100.109 229.827 100.642L209.582 107.984L193.91 113.669L172.127 121.564L166.636 123.557C165.367 124.019 164.294 124.901 163.594 126.056C162.894 127.211 162.61 128.57 162.788 129.909C162.842 130.308 162.937 130.699 163.072 131.078L170.863 134.609L172.127 134.15H172.136L211.665 119.817L233.86 111.771C235.335 111.235 236.537 110.135 237.202 108.713C237.866 107.291 237.94 105.663 237.405 104.188H237.405Z" fill="white"/>
<path d="M193.039 42.2365C192.502 40.7622 191.402 39.561 189.98 38.8964C188.559 38.2318 186.932 38.158 185.456 38.6912L160.984 47.5616C159.51 48.0975 158.309 49.1967 157.644 50.6178C156.98 52.0389 156.907 53.6655 157.442 55.1403C157.976 56.6152 159.074 57.8174 160.495 58.483C161.915 59.1486 163.542 59.223 165.017 58.6899L172.761 55.883L177.887 54.0228L189.494 49.8147C190.968 49.2786 192.169 48.1796 192.834 46.7588C193.498 45.3381 193.572 43.7117 193.039 42.2365Z" fill="white"/>
<path d="M290.698 54.0228H176.15C175.474 54.0234 174.81 54.1942 174.218 54.5193C173.625 54.8444 173.124 55.3134 172.761 55.883C172.346 56.5279 172.125 57.2791 172.127 58.0462V135.182L205.114 150.135L209.762 152.241L217.103 155.569C217.533 155.763 218 155.864 218.471 155.864C218.943 155.864 219.41 155.763 219.839 155.569L227.181 152.241L250.157 141.828L271.571 132.12L294.722 121.63V58.0462C294.721 56.9793 294.297 55.9563 293.542 55.2019C292.788 54.4475 291.765 54.0234 290.698 54.0228Z" fill="#007cbd"/>
<path d="M267.031 107.984H199.817C198.289 107.985 196.82 108.577 195.719 109.637C194.618 110.697 193.969 112.142 193.91 113.669C193.902 113.746 193.899 113.823 193.9 113.901C193.903 115.469 194.527 116.973 195.636 118.082C196.745 119.191 198.248 119.815 199.817 119.817H267.031C268.6 119.817 270.105 119.194 271.215 118.084C272.325 116.975 272.948 115.47 272.948 113.901C272.948 112.331 272.325 110.826 271.215 109.717C270.105 108.607 268.6 107.984 267.031 107.984Z" fill="white"/>
<path d="M270.861 131.405C269.794 130.492 268.435 129.992 267.031 129.994H199.817C198.248 129.994 196.743 130.618 195.633 131.727C194.524 132.837 193.9 134.342 193.9 135.911C193.9 137.48 194.524 138.985 195.633 140.095C196.743 141.204 198.248 141.828 199.817 141.828H250.157L271.571 132.12C271.355 131.862 271.117 131.623 270.861 131.405Z" fill="white"/>
<path d="M209.762 152.241L217.104 155.569C217.534 155.763 218 155.864 218.472 155.864C218.943 155.864 219.41 155.763 219.84 155.569L227.181 152.241H209.762Z" fill="white"/>
<path d="M251.998 82.7594C251.582 81.6204 250.825 80.6368 249.831 79.9417C248.837 79.2467 247.654 78.8737 246.441 78.8732H220.407C219.271 78.8743 218.159 79.2024 217.203 79.8185C216.248 80.4346 215.491 81.3126 215.021 82.3476C214.67 83.114 214.489 83.9472 214.491 84.79C214.493 86.3586 215.117 87.8623 216.226 88.9714C217.335 90.0805 218.839 90.7046 220.407 90.7068H246.441C247.393 90.7069 248.331 90.4773 249.175 90.0376C250.019 89.5979 250.745 88.9609 251.29 88.1809C251.836 87.4008 252.185 86.5007 252.308 85.5568C252.431 84.613 252.325 83.6534 251.998 82.7594Z" fill="white"/>
<path d="M247.861 141.828L224.885 152.241L219.447 154.708C219.14 154.846 218.808 154.917 218.471 154.917C218.135 154.917 217.803 154.846 217.496 154.708L212.058 152.241H209.762L217.103 155.569C217.533 155.763 218 155.864 218.471 155.864C218.943 155.864 219.41 155.763 219.84 155.569L227.181 152.241L250.157 141.828H247.861ZM247.861 141.828L224.885 152.241L219.447 154.708C219.14 154.846 218.808 154.917 218.471 154.917C218.135 154.917 217.803 154.846 217.496 154.708L212.058 152.241H209.762L217.103 155.569C217.533 155.763 218 155.864 218.471 155.864C218.943 155.864 219.41 155.763 219.84 155.569L227.181 152.241L250.157 141.828H247.861ZM247.861 141.828L224.885 152.241L219.447 154.708C219.14 154.846 218.808 154.917 218.471 154.917C218.135 154.917 217.803 154.846 217.496 154.708L212.058 152.241H209.762L217.103 155.569C217.533 155.763 218 155.864 218.471 155.864C218.943 155.864 219.41 155.763 219.84 155.569L227.181 152.241L250.157 141.828H247.861ZM324.973 109.267C324.798 109.093 324.606 108.937 324.4 108.803C323.935 108.501 323.402 108.322 322.849 108.281C322.296 108.241 321.742 108.34 321.238 108.571L270.861 131.405L247.861 141.828L224.885 152.241L219.447 154.708C219.14 154.846 218.808 154.917 218.471 154.917C218.135 154.917 217.803 154.846 217.496 154.708L212.058 152.241L206.392 149.671L172.136 134.15L172.127 134.146L162.788 129.909L134.903 117.271L115.705 108.571C115.509 108.48 115.305 108.412 115.094 108.367C114.631 108.251 114.147 108.242 113.679 108.339C112.93 108.492 112.257 108.899 111.774 109.49C111.29 110.082 111.025 110.822 111.023 111.586V230.457C111.024 231.335 111.374 232.177 111.995 232.798C112.616 233.42 113.458 233.769 114.337 233.77H322.606C323.485 233.769 324.327 233.42 324.948 232.798C325.569 232.177 325.919 231.335 325.92 230.457V111.586C325.921 110.718 325.581 109.885 324.973 109.267ZM324.973 230.457C324.973 231.084 324.723 231.686 324.279 232.13C323.836 232.574 323.234 232.823 322.606 232.823H114.337C113.709 232.823 113.107 232.574 112.664 232.13C112.22 231.686 111.97 231.084 111.97 230.457V111.586C111.97 111.19 112.07 110.801 112.259 110.454C112.448 110.107 112.722 109.812 113.054 109.598C113.288 109.448 113.546 109.339 113.816 109.276C113.896 109.259 113.976 109.246 114.058 109.238C114.15 109.225 114.243 109.219 114.337 109.219C114.673 109.22 115.006 109.292 115.312 109.432L135.353 118.516L163.072 131.078L170.863 134.609L172.127 135.182L205.114 150.135L209.762 152.241L217.103 155.569C217.533 155.763 218 155.864 218.471 155.864C218.943 155.864 219.41 155.763 219.84 155.569L227.181 152.241L250.157 141.828L271.571 132.12L321.631 109.432C321.991 109.269 322.387 109.199 322.781 109.228C323.175 109.257 323.556 109.384 323.889 109.598C323.927 109.62 323.963 109.646 323.998 109.674C324.036 109.698 324.071 109.727 324.102 109.759C324.374 109.979 324.594 110.258 324.744 110.574C324.895 110.89 324.973 111.236 324.973 111.586L324.973 230.457ZM247.861 141.828L224.885 152.241L219.447 154.708C219.14 154.846 218.808 154.917 218.471 154.917C218.135 154.917 217.803 154.846 217.496 154.708L212.058 152.241H209.762L217.103 155.569C217.533 155.763 218 155.864 218.471 155.864C218.943 155.864 219.41 155.763 219.84 155.569L227.181 152.241L250.157 141.828H247.861ZM247.861 141.828L224.885 152.241L219.447 154.708C219.14 154.846 218.808 154.917 218.471 154.917C218.135 154.917 217.803 154.846 217.496 154.708L212.058 152.241H209.762L217.103 155.569C217.533 155.763 218 155.864 218.471 155.864C218.943 155.864 219.41 155.763 219.84 155.569L227.181 152.241L250.157 141.828H247.861ZM170.863 134.609L172.127 135.182V134.15L170.863 134.609ZM247.861 141.828L224.885 152.241L219.447 154.708C219.14 154.846 218.808 154.917 218.471 154.917C218.135 154.917 217.803 154.846 217.496 154.708L212.058 152.241H209.762L217.103 155.569C217.533 155.763 218 155.864 218.471 155.864C218.943 155.864 219.41 155.763 219.84 155.569L227.181 152.241L250.157 141.828H247.861Z" fill="#003554"/>
<path d="M83.0835 233.77H29.5961C29.4706 233.77 29.3502 233.72 29.2614 233.631C29.1727 233.543 29.1228 233.422 29.1228 233.297C29.1228 233.171 29.1727 233.051 29.2614 232.962C29.3502 232.873 29.4706 232.823 29.5961 232.823H83.0835C83.209 232.823 83.3294 232.873 83.4182 232.962C83.507 233.051 83.5568 233.171 83.5568 233.297C83.5568 233.422 83.507 233.543 83.4182 233.631C83.3294 233.72 83.209 233.77 83.0835 233.77Z" fill="#003554"/>
<path d="M53.1976 81.1714C52.3244 80.7283 51.5983 80.0416 51.1072 79.1944C50.6162 78.3471 50.3812 77.3757 50.4308 76.3977C50.4804 75.4197 50.8123 74.4771 51.3865 73.6838C51.9607 72.8906 52.7525 72.2808 53.6661 71.9282C57.1743 70.5744 61.1072 73.3373 64.7845 72.5518C68.4497 71.7689 70.57 67.387 69.6951 63.7426C68.8203 60.0982 65.6361 57.3532 62.1249 56.0422C59.8318 55.1882 57.3759 54.8607 54.9391 55.0841C52.5023 55.3074 50.1469 56.0759 48.0472 57.3326C45.9692 58.6261 44.2386 60.4076 43.0057 62.5222C41.7729 64.6368 41.0753 67.0205 40.9734 69.4662C40.9256 71.914 41.5237 74.3311 42.7073 76.4743C43.8908 78.6174 45.6182 80.4108 47.7154 81.674C48.6501 82.2128 49.738 82.6453 50.7891 82.4027C51.6521 82.1224 52.4651 81.7068 53.1976 81.1714Z" fill="#003554"/>
<path d="M49.4301 57.0493C46.3366 52.9462 42.1607 49.5754 37.3014 47.9042C32.4422 46.233 26.8893 46.3671 22.3256 48.7288C17.7619 51.0906 14.3584 55.781 14.0032 60.9074C13.4119 69.4392 20.7021 76.6917 21.4503 85.2112C21.6874 87.9116 21.2491 90.6286 20.1748 93.1174C19.1006 95.6063 17.4241 97.7888 15.2963 99.4685C13.1686 101.148 10.6565 102.272 7.98627 102.739C5.31604 103.206 2.57155 103.002 0 102.144C1.83161 103.652 3.9552 104.765 6.2374 105.412C8.51959 106.06 10.9111 106.229 13.2616 105.908C15.6083 105.556 17.8472 104.686 19.8159 103.361C21.7846 102.036 23.4339 100.29 24.6441 98.2486C26.2848 95.3979 26.9585 92.0865 27.2202 88.8078C27.6313 83.6235 27.0746 78.408 25.5788 73.4273C24.7611 70.7098 23.6521 67.9132 24.1707 65.1231C24.4663 63.6719 25.1818 62.3394 26.2282 61.2914C27.2747 60.2434 28.6061 59.526 30.0569 59.2283C32.4015 58.7889 34.7987 59.5045 37.0374 60.328C39.2762 61.1516 41.5333 62.1046 43.9181 62.1591C46.3029 62.2136 48.9004 61.122 49.822 58.9218L49.4301 57.0493Z" fill="#003554"/>
</g>
<defs>
<clipPath id="clip0">
<rect width="360" height="233.77" fill="white"/>
</clipPath>
</defs>
</svg>
