<svg width="360" height="291" viewBox="0 0 360 291" fill="none" xmlns="http://www.w3.org/2000/svg">
<g clip-path="url(#clip0)">
<path opacity="0.1" d="M185.186 290.388C275.036 290.388 347.874 225.383 347.874 145.194C347.874 65.0056 275.036 0 185.186 0C95.336 0 22.4982 65.0056 22.4982 145.194C22.4982 225.383 95.336 290.388 185.186 290.388Z" fill="#007cbd"/>
<path opacity="0.1" d="M59.986 228.763C93.1154 228.763 119.972 224.6 119.972 219.465C119.972 214.33 93.1154 210.167 59.986 210.167C26.8567 210.167 0 214.33 0 219.465C0 224.6 26.8567 228.763 59.986 228.763Z" fill="#007cbd"/>
<path opacity="0.1" d="M88.8177 273.059C101.703 273.059 112.149 270.901 112.149 268.239C112.149 265.577 101.703 263.419 88.8177 263.419C75.9319 263.419 65.4859 265.577 65.4859 268.239C65.4859 270.901 75.9319 273.059 88.8177 273.059Z" fill="#007cbd"/>
<path opacity="0.1" d="M248.245 254.515C261.13 254.515 271.576 252.357 271.576 249.695C271.576 247.034 261.13 244.876 248.245 244.876C235.359 244.876 224.913 247.034 224.913 249.695C224.913 252.357 235.359 254.515 248.245 254.515Z" fill="#007cbd"/>
<path opacity="0.1" d="M169.074 250.47C190.028 250.47 207.015 247.592 207.015 244.042C207.015 240.492 190.028 237.615 169.074 237.615C148.119 237.615 131.132 240.492 131.132 244.042C131.132 247.592 148.119 250.47 169.074 250.47Z" fill="#007cbd"/>
<path opacity="0.1" d="M280.867 224.62C324.573 224.62 360.003 219.071 360.003 212.225C360.003 205.38 324.573 199.83 280.867 199.83C237.162 199.83 201.731 205.38 201.731 212.225C201.731 219.071 237.162 224.62 280.867 224.62Z" fill="#007cbd"/>
<path d="M16.402 190.592C14.6244 194.05 13.7941 197.917 13.9957 201.8C14.1972 205.683 15.4233 209.444 17.5494 212.699C18.2469 213.746 18.8886 214.499 19.4013 214.698C21.86 215.664 26.7845 218.039 26.7845 218.039L38.6422 213.379C38.6422 213.379 40.5673 203.196 42.3878 194.452C43.6294 188.489 44.8291 183.198 45.3209 182.27C46.5485 179.986 45.3209 155.116 45.3209 155.116C45.3209 155.116 33.4632 154.321 30.2023 163.462L28.7759 166.252L16.402 190.592Z" fill="#A8A8A8"/>
<path opacity="0.1" d="M32.1449 193.34C39.3536 201.602 42.3948 194.456 42.3948 194.456C43.6364 188.492 44.8361 183.202 45.3278 182.274C46.5555 179.99 45.3278 155.12 45.3278 155.12C45.3278 155.12 33.4701 154.325 30.2093 163.465L28.7828 166.256C27.8691 173.569 26.9658 187.394 32.1449 193.34Z" fill="white"/>
<path d="M33.7282 216.368L75.5789 211.535L83.0458 162.402L77.3995 149.641C75.014 144.206 71.7107 139.223 67.6343 134.909C64.7919 131.914 61.3567 129.033 57.7436 127.585C57.2498 127.386 56.7457 127.214 56.2334 127.069C55.6446 126.89 55.0218 126.853 54.4157 126.96C53.8097 127.068 53.2376 127.316 52.7459 127.687C47.5843 131.345 45.7394 146.9 45.143 154.387C44.8976 157.464 44.482 160.525 43.8979 163.556L33.7282 216.368Z" fill="#A8A8A8"/>
<path opacity="0.1" d="M61.5904 161.872L52.8715 183.32C57.4402 179.979 64.2095 161.784 64.2095 161.784L70.2744 182.528L65.4406 160.665C66.1483 155.917 66.354 151.108 66.0544 146.317C65.6708 140.828 60.5197 132.018 57.7227 127.582C57.2289 127.383 56.7248 127.211 56.2125 127.066C55.6237 126.887 55.0009 126.85 54.3948 126.957C53.7888 127.064 53.2167 127.313 52.725 127.683C54.9221 132.095 60.415 143.126 62.0891 146.404C64.213 150.534 61.5904 161.872 61.5904 161.872Z" fill="white"/>
<path d="M68.7084 218.039H91.4159C92.35 218.039 93.2744 217.849 94.1328 217.481C94.9912 217.113 95.7658 216.574 96.4095 215.897C97.0531 215.22 97.5523 214.42 97.8768 213.544C98.2013 212.668 98.3442 211.735 98.2969 210.802C97.7947 201.065 96.5217 183.704 93.4945 172.683C91.8589 166.737 89.9581 163.615 88.2144 162.077C87.3966 161.288 86.3409 160.792 85.2116 160.665C84.3549 160.591 83.4976 160.799 82.7703 161.258C78.5538 165.3 73.6294 186.571 73.6294 186.571L68.7084 218.039Z" fill="#A8A8A8"/>
<path opacity="0.1" d="M89.6722 199.175C90.6069 201.766 90.9766 204.755 89.6722 207.667L84.6118 210.167C84.6118 210.167 71.0103 204.403 72.6634 192.587C72.6634 192.587 73.1098 190.145 77.7936 190.334C80.4277 190.461 82.9643 191.37 85.0798 192.944C87.1954 194.519 88.7941 196.688 89.6722 199.175V199.175Z" fill="white"/>
<path opacity="0.1" d="M84.2664 168.114C84.1095 163.971 86.3589 162.534 88.2178 162.078C87.4001 161.288 86.3444 160.792 85.215 160.665C83.9212 161.748 83.0041 163.213 82.5959 164.85L77.8528 187.969C77.8528 187.969 84.5315 175.058 84.2664 168.114Z" fill="white"/>
<path d="M62.7342 186.396L73.9781 201.776L75.9277 214.471L68.7014 218.039L58.2841 220.341C57.2808 220.563 56.2492 220.631 55.2255 220.539L26.7984 218.039L30.6661 209.072L44.0235 190.32L62.7342 186.396Z" fill="#A8A8A8"/>
<path opacity="0.1" d="M58.3818 181.116C58.3818 181.116 66.0544 181.643 63.1737 194.826C60.2929 208.009 30.6522 209.065 30.6522 209.065C30.6522 209.065 36.9507 197.905 46.6391 189.908C47.7273 189.012 48.777 188.077 49.7779 187.08C52.0065 184.851 56.2683 180.935 58.3818 181.116Z" fill="white"/>
<path opacity="0.1" d="M65.2837 191.056C65.2837 191.056 75.6801 200.517 74.7001 215.078Z" fill="black"/>
<path opacity="0.1" d="M82.7738 161.258C82.7738 161.258 71.8647 175.766 70.6406 198.09Z" fill="black"/>
<path opacity="0.1" d="M45.3313 155.109C45.3313 155.109 50.6115 179.086 37.4285 197.159Z" fill="black"/>
<path d="M141.501 243.909H198.397C198.947 243.907 199.487 243.761 199.964 243.488C200.441 243.215 200.84 242.823 201.12 242.35C201.401 241.877 201.555 241.339 201.567 240.789C201.578 240.24 201.447 239.696 201.187 239.212L172.753 186.382C172.48 185.876 172.076 185.453 171.582 185.158C171.088 184.863 170.524 184.707 169.949 184.707C169.374 184.707 168.809 184.863 168.316 185.158C167.822 185.453 167.417 185.876 167.145 186.382L138.697 239.212C138.436 239.697 138.305 240.242 138.317 240.793C138.329 241.344 138.484 241.882 138.767 242.356C139.049 242.829 139.45 243.221 139.929 243.493C140.408 243.765 140.95 243.909 141.501 243.909V243.909ZM173.569 234.256H166.329V227.019H173.569V234.256ZM173.569 222.192H166.329V207.716H173.569V222.192Z" fill="#003554"/>
<path opacity="0.1" d="M141.501 243.909H198.397C198.947 243.907 199.487 243.761 199.964 243.488C200.441 243.215 200.84 242.823 201.12 242.35C201.401 241.877 201.555 241.339 201.567 240.789C201.578 240.24 201.447 239.696 201.187 239.212L172.753 186.382C172.48 185.876 172.076 185.453 171.582 185.158C171.088 184.863 170.524 184.707 169.949 184.707C169.374 184.707 168.809 184.863 168.316 185.158C167.822 185.453 167.417 185.876 167.145 186.382L138.697 239.212C138.436 239.697 138.305 240.242 138.317 240.793C138.329 241.344 138.484 241.882 138.767 242.356C139.049 242.829 139.45 243.221 139.929 243.493C140.408 243.765 140.95 243.909 141.501 243.909V243.909ZM173.569 234.256H166.329V227.019H173.569V234.256ZM173.569 222.192H166.329V207.716H173.569V222.192Z" fill="black"/>
<path d="M141.501 245.653H198.397C198.947 245.65 199.487 245.505 199.964 245.232C200.441 244.958 200.84 244.566 201.12 244.093C201.401 243.621 201.555 243.083 201.567 242.533C201.578 241.983 201.447 241.44 201.187 240.956L172.753 188.126C172.48 187.619 172.076 187.196 171.582 186.901C171.088 186.606 170.524 186.451 169.949 186.451C169.374 186.451 168.809 186.606 168.316 186.901C167.822 187.196 167.417 187.619 167.145 188.126L138.697 240.956C138.436 241.441 138.305 241.986 138.317 242.537C138.329 243.088 138.484 243.626 138.767 244.099C139.049 244.573 139.45 244.965 139.929 245.237C140.408 245.509 140.95 245.653 141.501 245.653V245.653ZM173.569 236H166.329V228.763H173.569V236ZM173.569 223.936H166.329V209.459H173.569V223.936Z" fill="#003554"/>
<path d="M81.5427 82.5576C81.5043 83.2865 81.867 83.9526 82.0797 84.6501C82.4317 85.9972 82.3966 87.4164 81.9786 88.7445C81.588 90.1395 80.9323 91.6148 81.431 92.9784C81.5461 93.2992 81.7205 93.5922 81.8251 93.9131C82.2576 95.2383 81.4555 96.6334 80.5766 97.718L84.0258 100.135C84.5294 100.552 85.1285 100.839 85.7696 100.968C86.4148 101.045 87.1646 100.7 87.2971 100.065C87.3425 99.8489 87.2971 99.6222 87.339 99.4025C87.3814 99.1184 87.4913 98.8485 87.6593 98.6155C87.8274 98.3825 88.0488 98.1932 88.305 98.0632C88.8231 97.8092 89.4008 97.7019 89.9756 97.7529C92.0925 97.868 93.8921 99.2595 95.8172 100.152C97.0865 100.702 98.4017 101.138 99.7477 101.457C100.512 101.655 101.359 101.837 102.05 101.457C102.74 101.077 103.057 100.194 103.005 99.3955C102.898 98.6012 102.65 97.8323 102.273 97.1251C101.892 96.4187 101.663 95.6407 101.6 94.8407C101.6 93.6689 102.241 92.6017 102.458 91.4508C102.761 89.8152 102.144 88.1516 101.39 86.6659C100.637 85.1802 99.7233 83.7503 99.3571 82.1321C99.2844 81.6416 99.1569 81.1608 98.977 80.6987C98.8025 80.3478 98.5662 80.0312 98.2795 79.764C96.9856 78.4841 95.1407 77.8772 93.3341 77.7447C91.5275 77.6122 89.7036 77.9086 87.9109 78.219C87.227 78.3166 86.5534 78.4766 85.8986 78.6968C84.9629 79.0687 84.0744 79.5498 83.2516 80.1302C82.4355 80.6952 81.595 81.5217 81.5427 82.5576Z" fill="#003554"/>
<g opacity="0.1">
<path opacity="0.1" d="M101.589 94.1257C101.589 94.2304 101.589 94.335 101.61 94.4361C101.718 93.4143 102.255 92.4552 102.447 91.4333C102.521 91.0239 102.544 90.6068 102.513 90.1918C102.513 90.3731 102.479 90.5405 102.447 90.7358C102.227 91.8867 101.575 92.9539 101.589 94.1257Z" fill="black"/>
<path opacity="0.1" d="M82.3134 86.0451C82.3545 85.3394 82.2755 84.6319 82.0798 83.9526C81.8733 83.4234 81.7044 82.8803 81.5741 82.3274C81.5741 82.4006 81.5462 82.4704 81.5427 82.5436C81.5043 83.2725 81.867 83.9386 82.0798 84.6362C82.2145 85.0946 82.293 85.5677 82.3134 86.0451V86.0451Z" fill="black"/>
<path opacity="0.1" d="M102.974 99.2038C102.949 99.5154 102.852 99.817 102.69 100.084C102.527 100.351 102.304 100.577 102.039 100.742C101.342 101.122 100.501 100.941 99.7373 100.742C98.3908 100.424 97.0754 99.9862 95.8068 99.434C93.8817 98.5446 92.0821 97.1531 89.9651 97.038C89.3904 96.987 88.8127 97.0943 88.2946 97.3484C88.0384 97.4783 87.817 97.6677 87.6489 97.9007C87.4808 98.1336 87.371 98.4035 87.3285 98.6876C87.3041 98.9073 87.3285 99.134 87.2867 99.3502C87.1507 99.985 86.4043 100.33 85.7591 100.254C85.118 100.124 84.519 99.8374 84.0154 99.42L80.9149 97.2438C80.7998 97.4007 80.6847 97.5542 80.5662 97.6971L84.0154 100.118C84.519 100.535 85.118 100.821 85.7591 100.951C86.4043 101.028 87.1542 100.682 87.2867 100.048C87.332 99.8315 87.2867 99.6048 87.3285 99.3851C87.371 99.101 87.4808 98.8312 87.6489 98.5982C87.817 98.3652 88.0384 98.1758 88.2946 98.0459C88.8127 97.7919 89.3904 97.6845 89.9651 97.7355C92.0821 97.8506 93.8817 99.2421 95.8068 100.131C97.0754 100.684 98.3908 101.121 99.7373 101.439C100.501 101.638 101.349 101.819 102.039 101.439C102.73 101.059 103.047 100.177 102.995 99.3781C102.991 99.3189 102.981 99.2631 102.974 99.2038Z" fill="black"/>
<path opacity="0.1" d="M81.8251 93.8956C81.8681 94.0358 81.8996 94.1793 81.9193 94.3246C81.9733 93.9468 81.9411 93.5617 81.8251 93.1981C81.7205 92.8772 81.5461 92.5843 81.431 92.2634C81.3471 92.0306 81.2932 91.788 81.2706 91.5415C81.2191 92.0207 81.2739 92.5053 81.431 92.9609C81.5461 93.2818 81.7205 93.5782 81.8251 93.8956Z" fill="black"/>
</g>
<path d="M85.9196 226.231C85.8957 226.33 85.8392 226.419 85.7592 226.482C85.6743 226.526 85.5791 226.547 85.4836 226.541C84.2421 226.569 83.0005 226.541 81.7624 226.629C80.5906 226.73 79.4153 226.977 78.247 226.845C77.8732 226.858 77.5046 226.755 77.1921 226.549C76.8797 226.344 76.6389 226.046 76.5032 225.697C76.4295 225.545 76.3643 225.389 76.3079 225.23C75.986 224.408 75.8238 223.532 75.8301 222.649C75.8301 222.416 75.8301 222.189 75.8301 221.952C75.8148 221.696 75.781 221.442 75.7289 221.192C75.6232 220.904 75.6357 220.587 75.7638 220.309C76.2591 219.406 77.4553 219.225 78.376 219.155C80.509 218.994 82.6541 219.152 84.7408 219.622C84.9047 220.424 85.0896 221.219 85.2849 222.015C85.429 222.598 85.5825 223.179 85.7452 223.758C85.8544 224.117 85.9429 224.481 86.0103 224.85C86.0965 225.311 86.0653 225.786 85.9196 226.231Z" fill="#003554"/>
<path opacity="0.06" d="M85.9196 226.231C85.8957 226.33 85.8392 226.419 85.7592 226.482C85.6743 226.526 85.5791 226.547 85.4836 226.541C84.2421 226.569 83.0005 226.541 81.7624 226.629C80.5906 226.73 79.4153 226.977 78.2469 226.845C77.8732 226.858 77.5046 226.755 77.1921 226.549C76.8797 226.344 76.6389 226.046 76.5032 225.697C76.4295 225.545 76.3643 225.389 76.3079 225.23H76.7543C78.2225 225.23 79.6943 225.178 81.1626 225.178C81.6055 225.178 82.0519 225.157 82.4913 225.105C82.9307 225.052 83.29 224.979 83.691 224.93C84.2914 224.873 84.8945 224.848 85.4976 224.857H85.9928C86.0835 225.314 86.0583 225.786 85.9196 226.231Z" fill="black"/>
<path d="M111.605 219.755C111.217 220.209 110.72 220.558 110.162 220.77C107.678 221.816 104.808 221.345 102.245 220.494C101.671 220.281 101.083 220.112 100.484 219.988C99.9371 219.912 99.3859 219.873 98.834 219.873C98.4399 219.873 98.0458 219.842 97.6517 219.817C96.6543 219.755 95.6603 219.657 94.6698 219.559C93.9793 219.509 93.2937 219.405 92.6192 219.249C92.4273 219.2 92.2431 219.125 92.0716 219.026V219.026C91.9253 218.961 91.8003 218.857 91.7113 218.724C91.6224 218.591 91.5731 218.436 91.5694 218.276C91.5973 217.833 92.0577 217.578 92.4622 217.387C96.0509 215.835 99.95 215.162 103.821 214.621C104.215 214.555 104.598 214.438 104.962 214.272C105.398 214.098 105.443 214.384 105.659 214.705C105.761 214.853 105.878 214.991 106.008 215.116C106.428 215.496 106.922 215.786 107.459 215.967C108.4 216.316 109.408 216.41 110.35 216.741C110.635 216.84 110.907 216.971 111.163 217.132C111.388 217.255 111.582 217.427 111.73 217.636C111.878 217.846 111.977 218.086 112.018 218.339C112.059 218.592 112.042 218.851 111.967 219.097C111.893 219.342 111.763 219.567 111.588 219.755H111.605Z" fill="#003554"/>
<path opacity="0.06" d="M111.605 219.755C111.217 220.209 110.72 220.558 110.162 220.77C107.678 221.816 104.808 221.345 102.245 220.494C101.671 220.281 101.083 220.112 100.484 219.988C99.9371 219.912 99.3859 219.873 98.834 219.873C98.4399 219.873 98.0458 219.842 97.6517 219.818C97.9726 219.514 98.3004 219.218 98.6352 218.932C98.8779 218.705 99.1574 218.521 99.4618 218.388C99.8407 218.263 100.245 218.236 100.637 218.307C102.632 218.583 104.425 219.981 106.437 219.859C107.374 219.751 108.281 219.459 109.105 218.998C109.775 218.725 110.372 218.3 110.849 217.756C110.993 217.569 111.102 217.358 111.173 217.132C111.398 217.255 111.592 217.427 111.741 217.636C111.889 217.846 111.987 218.086 112.028 218.339C112.069 218.592 112.052 218.851 111.977 219.097C111.903 219.342 111.773 219.567 111.598 219.755H111.605Z" fill="black"/>
<path d="M110.904 159.144C110.556 159.842 110.109 160.599 109.356 160.815C108.261 161.129 107.208 160.145 106.73 159.113C106.079 157.598 105.956 155.908 106.381 154.314C106.58 153.508 106.883 152.734 107.054 151.925C107.177 151.244 107.252 150.555 107.277 149.864C107.38 148.833 107.356 147.792 107.204 146.767C106.643 143.771 104.065 141.536 103.207 138.592C102.775 137.124 102.796 135.561 102.82 134.03C102.812 133.643 102.852 133.257 102.939 132.88C102.965 132.777 103 132.676 103.043 132.58C103.619 131.303 105.324 131.129 106.51 130.386C107.166 129.978 108.655 128.663 109.206 129.863C109.325 130.13 109.414 130.41 109.471 130.696C109.698 131.764 109.607 133.016 109.663 134.023C109.876 137.832 110.824 141.633 110.385 145.421C110.28 146.067 110.229 146.72 110.231 147.374C110.326 149.013 111.351 150.432 111.822 152.002C112.547 154.363 111.965 156.933 110.904 159.144Z" fill="#FBBEBE"/>
<path opacity="0.1" d="M109.488 130.703C109.229 130.609 108.945 130.609 108.686 130.703L106.325 131.401C105.498 131.622 104.691 131.914 103.915 132.276C103.577 132.443 103.255 132.642 102.956 132.873C102.982 132.77 103.017 132.669 103.061 132.573C103.636 131.296 105.342 131.122 106.528 130.379C107.183 129.971 108.672 128.656 109.223 129.856C109.343 130.127 109.432 130.412 109.488 130.703V130.703Z" fill="black"/>
<path d="M109.642 130.438C109.5 130.352 109.339 130.3 109.173 130.287C109.007 130.273 108.841 130.299 108.686 130.362L106.325 131.059C105.498 131.28 104.691 131.573 103.915 131.934C103.504 132.135 103.118 132.386 102.768 132.681C101.666 130.766 101.373 128.496 101.171 126.299C101.059 125.019 100.975 123.735 100.927 122.462C100.872 121.546 100.89 120.627 100.982 119.714C101.115 118.668 101.418 117.646 101.607 116.607C101.719 115.998 101.791 115.383 101.823 114.765C101.913 113.415 101.851 112.059 101.638 110.723C101.435 109.303 101.111 107.903 100.668 106.538C100.445 105.914 100.177 105.31 99.9326 104.697L99.8489 104.48C99.408 103.355 99.0479 102.2 98.7712 101.024C98.6596 100.543 98.6526 100.037 98.283 99.7094C98.63 99.6676 98.9799 99.6536 99.3292 99.6676C99.399 99.6676 99.4687 99.6676 99.5385 99.6676C100.971 99.7577 102.352 100.24 103.528 101.063C105.044 102.156 106.196 103.68 106.834 105.436C107.57 107.399 107.692 109.534 107.787 111.63C107.975 115.75 108.091 119.872 108.135 123.997C108.135 124.788 108.17 125.632 108.624 126.285C108.751 126.445 108.867 126.614 108.972 126.79C109.136 127.139 109.112 127.526 109.244 127.878C109.342 128.09 109.452 128.295 109.576 128.492C109.732 128.791 109.819 129.121 109.83 129.458C109.842 129.795 109.777 130.13 109.642 130.438Z" fill="#003554"/>
<path d="M86.4288 89.5013C86.08 89.3862 85.7313 89.2642 85.3825 89.1526L86.1079 89.2084C86.2288 89.2895 86.337 89.3883 86.4288 89.5013Z" fill="#FBBEBE"/>
<path d="M100.71 102.088C100.641 102.325 100.571 102.562 100.494 102.785C100.317 103.358 100.101 103.919 99.8489 104.463C99.4536 105.357 98.8941 106.168 98.1993 106.855C97.9699 107.097 97.6884 107.283 97.3762 107.399C97.1122 107.467 96.8391 107.493 96.5671 107.476C95.6371 107.476 94.7071 107.462 93.777 107.434C93.053 107.442 92.3302 107.371 91.6217 107.221C90.8419 107.009 90.1004 106.675 89.4246 106.231C86.8194 104.62 84.678 102.165 83.7608 99.2559C83.6457 98.8862 83.5655 98.4433 83.8201 98.1538C84.0706 97.9494 84.3862 97.8418 84.7094 97.8504H84.7512C85.5011 97.7529 86.2235 97.5049 86.8752 97.1215C87.2974 96.9054 87.6377 96.5578 87.8447 96.1311C87.986 95.6253 87.9751 95.0891 87.8133 94.5896L87.0391 91.0741C86.9584 90.5111 86.747 89.9748 86.4218 89.5082C86.6485 89.5884 86.8752 89.6616 87.1193 89.7244C89.2746 90.3068 91.6322 89.9546 93.7457 90.7184C94.5548 91.0148 95.3639 91.5484 95.608 92.3784C96.0161 93.7735 94.6524 95.2208 95.043 96.6158C95.3046 97.5644 96.2707 98.112 97.1356 98.5549L97.718 98.8514L99.3327 99.6709L99.5559 99.7825L99.5908 99.8C100.1 100.058 100.637 100.379 100.815 100.926C100.891 101.316 100.855 101.718 100.71 102.088V102.088Z" fill="#FBBEBE"/>
<path opacity="0.1" d="M104.965 110.277C104.906 111.168 104.689 112.042 104.323 112.857C103.623 114.268 103.248 115.817 103.225 117.391C102.956 122.099 101.167 127.704 103.731 131.659C103.793 131.757 103.856 131.854 103.915 131.955C103.504 132.156 103.118 132.406 102.768 132.702C101.666 130.787 101.373 128.517 101.171 126.319C101.059 125.039 100.975 123.756 100.927 122.483C100.872 121.567 100.89 120.648 100.982 119.735C101.115 118.689 101.418 117.667 101.607 116.627C101.719 116.019 101.791 115.404 101.823 114.786C101.913 113.436 101.851 112.08 101.638 110.744C101.435 109.324 101.111 107.924 100.668 106.559C100.445 105.935 100.177 105.331 99.9326 104.717L99.8489 104.501C99.4536 105.395 98.8941 106.207 98.1993 106.894C97.9699 107.135 97.6884 107.321 97.3762 107.438C97.1121 107.505 96.8391 107.531 96.5671 107.514C95.6371 107.514 94.7071 107.501 93.777 107.473C93.053 107.481 92.3302 107.409 91.6217 107.26C90.8419 107.047 90.1004 106.713 89.4246 106.269C86.8194 104.658 84.678 102.203 83.7608 99.2943C83.6457 98.9246 83.5655 98.4817 83.8201 98.1922C84.0706 97.9878 84.3862 97.8802 84.7094 97.8888H84.7512L87.89 101.77C88.25 102.181 88.5549 102.637 88.7968 103.127C88.8436 103.291 88.9413 103.437 89.0758 103.542C89.185 103.592 89.3049 103.614 89.4246 103.605C92.3716 103.605 96.2986 103.605 99.2455 103.605C99.2552 103.083 99.1042 102.57 98.8131 102.137C98.7224 102.158 98.6003 102.165 98.7887 102.109C98.6183 100.977 98.2524 99.8827 97.7075 98.8758C97.675 98.8066 97.6389 98.7391 97.5994 98.6735C97.3652 98.3285 97.1907 97.9465 97.0833 97.5435C97.4553 97.4249 97.8551 97.4249 98.2272 97.5435C98.6561 97.7284 98.8793 98.1922 99.0677 98.6212C99.2281 98.97 99.3885 99.3431 99.5315 99.7093C99.5315 99.7477 99.5664 99.7895 99.5803 99.8279C99.8845 100.549 100.08 101.312 100.159 102.091C100.18 102.377 100.25 102.74 100.487 102.834C100.524 102.851 100.565 102.861 100.606 102.862C100.851 102.772 101.118 102.757 101.372 102.819C101.626 102.882 101.856 103.018 102.032 103.211C102.375 103.604 102.615 104.076 102.73 104.585C102.843 105.094 103.009 105.589 103.225 106.064C103.675 106.922 102.988 107.305 103.8 107.832C104.18 108.041 104.507 108.334 104.756 108.69C104.986 109.185 105.059 109.739 104.965 110.277V110.277Z" fill="black"/>
<path opacity="0.1" d="M84.7094 219.636C84.8733 220.438 85.0581 221.234 85.2534 222.029L85.2325 222.078C83.6387 221.38 82.0065 220.651 80.2662 220.498C78.6515 220.358 76.8972 220.794 75.7987 221.966C75.7834 221.71 75.7496 221.456 75.6975 221.206C75.5917 220.918 75.6043 220.601 75.7324 220.323C76.2276 219.42 77.4238 219.239 78.3446 219.169C80.4776 219.008 82.6227 219.166 84.7094 219.636Z" fill="black"/>
<path opacity="0.1" d="M98.4469 102.775C98.6108 102.775 98.5515 102.775 98.4713 102.803C98.3911 102.831 98.2586 102.831 98.4469 102.775Z" fill="black"/>
<path opacity="0.1" d="M106.025 215.116C104.47 216.107 103.008 217.239 101.659 218.496C101.267 218.915 100.8 219.257 100.281 219.504C99.746 219.676 99.1805 219.734 98.6212 219.674C96.4273 219.586 94.2404 219.369 92.0716 219.026V219.026C91.9253 218.961 91.8003 218.857 91.7113 218.724C91.6224 218.591 91.5731 218.436 91.5694 218.276C91.5973 217.833 92.0577 217.578 92.4622 217.387C96.0509 215.835 99.95 215.162 103.821 214.621C104.215 214.555 104.598 214.438 104.962 214.272C105.398 214.098 105.443 214.384 105.659 214.705C105.767 214.854 105.89 214.992 106.025 215.116V215.116Z" fill="black"/>
<path d="M80.4371 98.7293C80.9497 99.1862 81.5357 99.5559 82.0553 99.9988C83.4503 101.181 84.3292 102.834 85.1941 104.445C84.6812 104.631 84.1265 104.668 83.5933 104.554C83.3191 106.101 83.3654 107.688 83.7293 109.216C83.0315 109.695 82.4895 110.368 82.1704 111.152C81.9225 111.947 81.7519 112.765 81.6612 113.593C81.159 117.223 80.6545 120.852 80.1476 124.481C80.1374 124.837 80.0154 125.18 79.7989 125.461C79.7021 125.54 79.6133 125.627 79.5338 125.723C79.4271 125.958 79.3849 126.217 79.4117 126.473C79.3908 126.727 79.2234 127.031 78.9688 126.996C78.8451 126.966 78.7354 126.895 78.6584 126.794C78.4038 126.524 78.1705 126.235 77.9609 125.929C75.9033 129.877 74.9128 134.132 73.8247 138.449C73.0469 141.525 72.2692 144.636 72.2308 147.81C72.2413 149.311 72.3357 150.811 72.5133 152.302L72.8202 155.364C73.0679 157.826 73.3155 160.292 73.584 162.754C73.7584 164.316 73.9328 165.893 74.4943 167.365C75.3313 169.6 74.4036 172.122 74.7593 174.486C75.0383 176.338 75.5929 178.253 75.0348 180.038C74.8116 180.753 74.421 181.405 74.1281 182.096C73.4096 183.812 73.3364 185.72 73.2736 187.578C73.1607 189.208 73.2215 190.845 73.455 192.461C73.7549 194.132 74.428 195.767 74.2955 197.455C74.1106 199.858 72.339 201.912 72.1227 204.312C71.9518 206.226 72.7923 208.075 73.6956 209.773C74.3617 211.025 73.4341 212.644 73.0818 214.021C72.3843 216.72 73.5457 219.545 74.9686 221.941C75.0049 222.024 75.0691 222.09 75.1499 222.13C75.3138 222.189 75.4603 222.029 75.5684 221.893C76.6391 220.518 78.5364 219.999 80.2766 220.149C82.0169 220.299 83.6456 221.017 85.2429 221.729L87.5064 216.689C87.89 215.835 88.2806 214.91 88.0888 213.993C87.9528 213.338 87.5308 212.783 87.2308 212.183C86.5333 210.767 86.4985 209.118 86.4915 207.531L86.4496 198.568C88.2143 196.35 89.292 193.713 89.9721 190.958C91.0154 194.833 91.0873 198.906 90.1813 202.816C90.0137 203.407 89.897 204.011 89.8326 204.622C89.6965 207.109 91.6461 209.212 92.1657 211.646C92.2161 211.832 92.2303 212.026 92.2076 212.218C92.1491 212.454 92.0512 212.678 91.9181 212.881C90.9835 214.576 91.0846 216.63 91.2206 218.562C93.6663 218.988 96.1373 219.252 98.6177 219.354C99.177 219.409 99.7417 219.351 100.278 219.183C100.796 218.935 101.264 218.592 101.655 218.171C103.239 216.682 104.978 215.367 106.841 214.248C105.801 212.521 104.344 211.082 102.604 210.063C103.166 209.236 104.445 209.302 105.192 208.64C105.567 208.269 105.811 207.787 105.889 207.266C106.168 205.899 105.823 204.476 105.478 203.133C104.808 200.489 104.135 197.835 103.036 195.338C102.54 194.312 102.102 193.258 101.725 192.182C100.811 189.176 101.45 185.904 100.759 182.832C100.536 181.848 100.177 180.833 100.428 179.853C100.811 178.343 102.52 177.447 102.897 175.933C104.247 170.545 104.487 164.962 105.255 159.462C105.426 158.411 105.518 157.349 105.53 156.285C105.53 155.172 105.331 154.07 105.251 152.961C104.937 148.521 106.357 144.092 105.994 139.656C105.762 136.922 104.861 134.287 103.371 131.983C100.808 128.025 102.597 122.424 102.866 117.716C102.886 116.141 103.26 114.592 103.961 113.182C104.329 112.367 104.548 111.493 104.606 110.601C104.713 110.051 104.645 109.481 104.411 108.972C104.165 108.615 103.839 108.321 103.458 108.114C102.646 107.584 103.333 107.201 102.883 106.343C102.667 105.868 102.501 105.373 102.388 104.864C102.274 104.356 102.034 103.885 101.69 103.493C101.514 103.3 101.284 103.164 101.03 103.102C100.776 103.04 100.509 103.055 100.264 103.145C99.9325 103.145 99.8419 102.705 99.814 102.374C99.7198 101.16 99.2176 100.02 98.7258 98.9037C98.5375 98.4747 98.3143 98.0109 97.8853 97.826C97.5118 97.7092 97.1115 97.7092 96.7379 97.826C96.8459 98.2305 97.0216 98.6137 97.2576 98.9595C97.8621 100.02 98.2642 101.184 98.4434 102.391C98.0946 102.496 98.7921 102.391 98.4434 102.391C98.7556 102.826 98.9162 103.352 98.9002 103.887C95.9567 103.887 92.0297 103.887 89.0827 103.887C88.963 103.897 88.8429 103.875 88.734 103.825C88.5996 103.718 88.501 103.574 88.4515 103.41C88.2117 102.92 87.9067 102.465 87.5447 102.056L84.092 97.7981C84.0154 97.6868 83.9139 97.5949 83.7956 97.5296C83.6531 97.4893 83.5022 97.4893 83.3597 97.5296C82.2401 97.6935 81.4136 98.1608 80.4371 98.7293Z" fill="#007cbd"/>
<path opacity="0.1" d="M92.8284 156.428C93.4236 156.42 94.0102 156.571 94.5268 156.867C94.7832 157.018 94.9959 157.233 95.1439 157.491C95.2919 157.749 95.3701 158.041 95.3708 158.339C95.3324 158.998 94.8268 159.521 94.4606 160.083C94.2339 160.425 94.0533 160.795 93.9235 161.185C93.8834 161.273 93.8736 161.373 93.8956 161.467C93.9374 161.6 94.0804 161.666 94.2025 161.725C94.6462 161.926 95.0252 162.246 95.2968 162.65C95.5685 163.055 95.7222 163.526 95.7405 164.013C95.7091 165.373 94.3803 166.475 94.4536 167.849C94.4868 168.136 94.5357 168.42 94.6001 168.7C94.7596 169.872 94.5968 171.064 94.1292 172.15C93.7072 173.245 93.1318 174.274 92.6784 175.358C91.4543 178.305 91.1892 181.569 91.2834 184.775C91.3566 186.951 90.5859 189.022 89.8884 191.094C90.2825 186.921 90.3874 182.726 90.2022 178.539C90.1534 177.402 90.0104 176.328 90.0627 175.187C90.1464 173.377 91.1578 171.731 91.4159 169.956C91.5624 168.941 91.4647 167.909 91.4892 166.883C91.538 164.791 92.1065 162.726 92.1448 160.627C92.1936 159.144 92.0576 157.617 92.8284 156.428Z" fill="black"/>
<path d="M78.2748 99.4757C77.5814 99.8213 76.9327 100.25 76.3427 100.752C75.7262 101.365 75.2107 102.071 74.8151 102.845C74.3335 103.722 73.9016 104.625 73.5213 105.551C73.0295 106.751 72.6215 108.08 72.9598 109.332C73.2667 110.465 74.1351 111.347 74.7349 112.355C75.3348 113.363 75.687 114.545 76.1474 115.651C76.7612 117.126 77.6017 118.5 78.2085 119.979C78.8154 121.458 79.1816 123.118 78.7979 124.656C78.6863 125.109 77.9505 125.462 77.9505 125.925C77.9505 126.693 79.0595 127.526 79.7954 127.749C80.6429 128.011 81.5671 127.62 82.2611 127.052C83.5341 126.044 84.3083 124.534 84.8803 123.013C85.801 120.572 86.2927 117.981 86.7356 115.407C87.0565 113.517 87.3564 111.623 87.5273 109.719C87.6843 108.003 87.7331 106.231 87.2797 104.585C86.8566 103.074 86.0337 101.705 84.8977 100.623C83.9909 99.7512 82.5052 98.5794 81.1869 98.548C80.1441 98.5445 79.1676 98.9839 78.2748 99.4757Z" fill="#003554"/>
<path d="M88.1899 141.518C88.1521 141.757 88.0629 141.984 87.9287 142.184C87.7944 142.385 87.6182 142.554 87.4122 142.68C87.0007 142.93 86.5522 143.113 86.0834 143.224C85.1488 143.496 84.1583 143.747 83.2132 143.506C82.4704 143.264 81.7846 142.874 81.1974 142.359L70.637 134.275C69.7887 133.673 69.0086 132.981 68.3108 132.21C67.9102 131.712 67.5421 131.189 67.2088 130.644C66.7674 130.02 66.4218 129.333 66.1834 128.607C66.0983 128.288 66.0561 127.958 66.0579 127.627C66.0551 127.314 66.1319 127.006 66.2811 126.731C66.5357 126.306 67.0797 126.218 67.5261 126.1C69.0244 125.712 70.5796 125.594 72.1193 125.751C72.2545 125.744 72.3882 125.782 72.5002 125.858C72.6121 125.934 72.6963 126.045 72.74 126.173C72.9737 126.602 73.176 127.048 73.3852 127.495C73.7064 128.256 74.1249 128.972 74.6303 129.626C75.1172 130.155 75.6355 130.655 76.1823 131.122C77.2983 132.168 78.212 133.424 79.4013 134.386C80.7789 135.499 82.4529 136.165 84.0223 136.984C85.5917 137.804 87.1402 138.868 87.9284 140.455C88.1112 140.779 88.2017 141.146 88.1899 141.518Z" fill="#FBBEBE"/>
<path opacity="0.1" d="M100.414 85.1174C100.414 87.3193 99.5735 89.4382 98.0635 91.0407C96.5535 92.6433 94.4884 93.6085 92.2904 93.739C90.0924 93.8695 87.9275 93.1554 86.2386 91.7427C84.5496 90.3301 83.464 88.3256 83.2039 86.1391C82.9438 83.9526 83.5288 81.7494 84.8392 79.9799C86.1496 78.2104 88.0865 77.0083 90.2538 76.6195C92.421 76.2307 94.655 76.6844 96.4988 77.888C98.3426 79.0916 99.657 80.9541 100.173 83.0946C100.333 83.757 100.414 84.436 100.414 85.1174V85.1174Z" fill="black"/>
<path d="M100.414 84.7686C100.414 86.9705 99.5735 89.0894 98.0635 90.692C96.5535 92.2945 94.4884 93.2598 92.2904 93.3903C90.0924 93.5207 87.9275 92.8066 86.2386 91.394C84.5496 89.9813 83.464 87.9768 83.2039 85.7903C82.9438 83.6039 83.5288 81.4006 84.8392 79.6311C86.1496 77.8616 88.0865 76.6596 90.2538 76.2707C92.421 75.8819 94.655 76.3357 96.4988 77.5393C98.3426 78.7429 99.657 80.6053 100.173 82.7459C100.333 83.4082 100.414 84.0872 100.414 84.7686V84.7686Z" fill="#FBBEBE"/>
<path opacity="0.1" d="M73.3852 127.481C72.9877 127.735 72.3983 127.652 71.9065 127.54C69.9674 127.108 67.8261 126.797 66.0579 127.627C66.0551 127.314 66.1319 127.006 66.2811 126.731C66.5357 126.306 67.0797 126.218 67.5261 126.1C69.0244 125.712 70.5796 125.594 72.1193 125.751C72.2545 125.744 72.3882 125.782 72.5002 125.858C72.6121 125.934 72.6963 126.045 72.74 126.173C72.9737 126.588 73.176 127.034 73.3852 127.481Z" fill="black"/>
<path d="M69.7408 115.738C69.3118 117.133 68.9596 118.567 68.1191 119.749C67.8412 120.06 67.632 120.426 67.5052 120.823C67.4957 121.116 67.4476 121.407 67.3622 121.688C67.2437 121.925 66.9926 122.082 66.8914 122.326C66.7415 122.675 66.9368 123.125 66.738 123.453C66.6449 123.584 66.5333 123.702 66.4067 123.801C65.9324 124.241 65.8138 124.942 65.8033 125.591C65.7928 126.239 65.8556 126.902 65.6429 127.512C67.4843 126.414 69.828 126.741 71.9205 127.209C72.5029 127.338 73.2248 127.435 73.6015 126.968C73.9782 126.501 73.7619 125.887 73.8142 125.325C73.884 124.593 74.3862 123.986 74.6966 123.32C75.0453 122.57 75.1639 121.733 75.4325 120.952C75.987 119.309 77.1762 117.97 77.94 116.418C78.2227 115.885 78.3914 115.298 78.4352 114.695C78.4089 113.915 78.205 113.15 77.8389 112.46C77.1131 110.853 76.2496 109.311 75.2581 107.853C74.8152 107.201 74.0514 105.994 73.3643 107.037C72.8063 107.877 72.4576 108.948 72.046 109.869C71.1592 111.777 70.3894 113.737 69.7408 115.738Z" fill="#003554"/>
<path d="M101.209 102.199C100.162 102.272 99.1118 102.109 98.1356 101.723C97.1593 101.338 96.2815 100.739 95.5662 99.9709C95.4457 99.8613 95.3587 99.7198 95.3151 99.5629C95.2951 99.3589 95.3524 99.1548 95.4755 98.9909C95.894 98.3457 96.6159 97.9202 96.9507 97.2262C97.2855 96.5322 97.1705 95.7335 97.2018 94.9732C97.2576 93.6096 97.7947 92.2599 97.8401 90.9172C97.8562 90.5736 97.8304 90.2293 97.7633 89.8919C97.6028 89.3908 97.5044 88.8719 97.4704 88.3469C97.5157 87.325 98.4364 86.5299 98.5899 85.522C98.7887 84.2385 97.725 83.1225 96.6543 82.3831C95.8378 81.8169 94.9516 81.3586 94.0177 81.0195C93.444 80.814 92.8501 80.6702 92.246 80.5905C91.1197 80.4384 89.9733 80.5666 88.9084 80.9637C88.4677 81.13 88.0503 81.3528 87.6668 81.6264C87.4384 81.7708 87.2482 81.9682 87.1123 82.2018C87.0005 82.4648 86.9504 82.7499 86.9658 83.0353C86.9449 84.4617 87.1054 85.9788 86.4253 87.2204C86.0765 87.8865 85.4836 88.4271 85.1942 89.1316C85.0757 89.4247 85.0016 89.7338 84.9744 90.0488C84.9395 90.3755 84.9221 90.7038 84.9221 91.0323C84.9012 92.8703 84.9221 94.8093 85.8568 96.4032C86.1866 96.885 86.486 97.387 86.7531 97.9063C86.8826 98.169 86.9426 98.4605 86.9274 98.7529C86.9121 99.0454 86.8221 99.3291 86.6659 99.5768C86.4771 99.8029 86.2383 99.982 85.9684 100.1C85.276 100.432 84.5224 100.618 83.7548 100.646C82.9873 100.673 82.2223 100.542 81.5078 100.26C82.3434 99.4686 82.9173 98.4406 83.1529 97.3138C83.3885 96.187 83.2745 95.0151 82.8261 93.9549C82.5742 93.5267 82.4105 93.0523 82.3448 92.5599C82.3798 92.1162 82.4981 91.6832 82.6936 91.2834C83.1716 89.9729 83.2457 88.5491 82.9063 87.196C82.6936 86.3659 82.3239 85.5638 82.2576 84.7094C82.2023 84.0644 82.2304 83.415 82.3413 82.7772C82.5325 81.6362 83.0352 80.5702 83.7941 79.6969C84.5529 78.8236 85.5383 78.1769 86.6415 77.8284C86.8194 77.7691 86.9903 77.7133 87.1856 77.6645C88.0317 77.4766 88.8962 77.3842 89.7629 77.389C91.6985 77.3262 93.662 77.2704 95.5278 77.7761C96.6233 78.0629 97.6424 78.5868 98.5132 79.3106C99.1313 79.8303 99.6248 80.4822 99.957 81.2183C100.139 81.6423 100.275 82.0842 100.365 82.5366C100.445 82.9098 100.505 83.2864 100.564 83.6631C100.986 86.345 101.408 89.0793 100.958 91.7577C100.78 92.804 100.47 93.8503 100.33 94.9174C99.9919 97.3762 100.602 99.821 101.209 102.199Z" fill="#003554"/>
<path d="M88.8177 105.645C89.176 105.645 89.4664 105.355 89.4664 104.997C89.4664 104.638 89.176 104.348 88.8177 104.348C88.4594 104.348 88.169 104.638 88.169 104.997C88.169 105.355 88.4594 105.645 88.8177 105.645Z" fill="white"/>
<path d="M99.7651 105.338C100.123 105.338 100.414 105.048 100.414 104.69C100.414 104.331 100.123 104.041 99.7651 104.041C99.4069 104.041 99.1165 104.331 99.1165 104.69C99.1165 105.048 99.4069 105.338 99.7651 105.338Z" fill="white"/>
<path opacity="0.1" d="M88.8177 72.2135L87.4227 69.5804C87.5111 69.4751 87.6079 69.3771 87.7121 69.2874C87.9136 69.1633 88.1495 69.1071 88.3852 69.127L88.8177 72.2135Z" fill="black"/>
<path opacity="0.1" d="M92.6645 69.005L91.0847 71.3416L90.1849 68.7783C90.5688 68.6133 90.9844 68.5347 91.402 68.5481C91.8454 68.629 92.2721 68.7834 92.6645 69.005V69.005Z" fill="black"/>
<g opacity="0.1">
<path opacity="0.1" d="M86.6659 98.8863C86.4771 99.1123 86.2383 99.2914 85.9684 99.4094C84.7316 100.001 83.3209 100.119 82.0031 99.7407C81.8499 99.9271 81.6844 100.103 81.5078 100.267C82.2223 100.549 82.9873 100.68 83.7548 100.653C84.5224 100.625 85.276 100.439 85.9684 100.107C86.2383 99.9889 86.4771 99.8098 86.6659 99.5838C86.7859 99.4096 86.8678 99.2122 86.9063 99.0042C86.9447 98.7963 86.9389 98.5826 86.8891 98.3771C86.8543 98.5615 86.778 98.7356 86.6659 98.8863Z" fill="black"/>
<path opacity="0.1" d="M82.8819 87.2064C82.9958 87.6634 83.0624 88.1309 83.0807 88.6015C83.1209 87.8979 83.0539 87.1923 82.8819 86.5089C82.6692 85.6789 82.2995 84.8767 82.2332 84.0223C82.2332 83.9142 82.2332 83.8061 82.2158 83.6945C82.1991 84.0363 82.2049 84.3788 82.2332 84.7198C82.2995 85.5743 82.6692 86.3764 82.8819 87.2064Z" fill="black"/>
<path opacity="0.1" d="M100.934 91.7682C101.082 90.8459 101.145 89.912 101.122 88.9781C101.11 89.6793 101.047 90.3786 100.934 91.0707C100.756 92.1169 100.445 93.1632 100.306 94.2304C100.234 94.8029 100.207 95.3801 100.226 95.9567C100.235 95.6127 100.262 95.2693 100.306 94.9279C100.445 93.8607 100.756 92.8249 100.934 91.7682Z" fill="black"/>
<path opacity="0.1" d="M82.8122 93.2643C82.6295 92.9209 82.4823 92.5598 82.3728 92.1866C82.3431 92.3123 82.3291 92.4412 82.3309 92.5703C82.3966 93.0627 82.5602 93.5371 82.8122 93.9653C83.0682 94.5499 83.2159 95.1763 83.2481 95.8137C83.3112 94.9411 83.1616 94.0663 82.8122 93.2643V93.2643Z" fill="black"/>
<path opacity="0.1" d="M97.7633 89.8779C97.7939 90.037 97.8161 90.1977 97.8296 90.3592C97.8296 90.3068 97.8296 90.258 97.8296 90.2057C97.8457 89.8621 97.82 89.5178 97.7529 89.1804C97.6761 88.8142 97.5506 88.4515 97.4913 88.0818C97.474 88.1645 97.4635 88.2485 97.4599 88.3329C97.4973 88.8584 97.5992 89.3773 97.7633 89.8779V89.8779Z" fill="black"/>
<path opacity="0.1" d="M95.5662 99.2595C95.5125 99.2035 95.4624 99.1441 95.4162 99.0817C95.3304 99.2214 95.2947 99.3863 95.3151 99.549C95.3587 99.7059 95.4457 99.8474 95.5662 99.957C96.2815 100.725 97.1593 101.324 98.1356 101.71C99.1118 102.095 100.162 102.258 101.209 102.186C101.15 101.955 101.09 101.729 101.035 101.488C100.016 101.535 98.9996 101.36 98.0554 100.975C97.1112 100.59 96.2619 100.005 95.5662 99.2595V99.2595Z" fill="black"/>
<path opacity="0.1" d="M98.5829 84.8593C98.5813 84.8466 98.5813 84.8337 98.5829 84.821C98.7817 83.5376 97.718 82.4215 96.6474 81.6822C95.8309 81.116 94.9447 80.6576 94.0108 80.3185C93.4371 80.1131 92.8432 79.9693 92.2391 79.8896C91.1128 79.7374 89.9663 79.8656 88.9015 80.2627C88.4607 80.429 88.0434 80.6518 87.6599 80.9254C87.4315 81.0698 87.2413 81.2672 87.1054 81.5008C86.9936 81.7638 86.9435 82.049 86.9589 82.3344C86.9589 82.575 86.9589 82.8156 86.9589 83.0598V83.0319C86.9435 82.7465 86.9936 82.4614 87.1054 82.1983C87.2413 81.9647 87.4315 81.7673 87.6599 81.6229C88.0434 81.3493 88.4607 81.1266 88.9015 80.9602C89.9663 80.5631 91.1128 80.4349 92.2391 80.5871C92.8432 80.6668 93.4371 80.8106 94.0108 81.0161C94.9447 81.3551 95.8309 81.8135 96.6474 82.3797C97.5367 82.9796 98.4121 83.8445 98.5829 84.8593Z" fill="black"/>
<path opacity="0.1" d="M86.4253 86.5299C86.0765 87.1961 85.4836 87.7366 85.1941 88.4411C85.0757 88.7342 85.0016 89.0434 84.9744 89.3583C84.9395 89.685 84.9221 90.0133 84.9221 90.3418C84.9221 90.6383 84.9221 90.9382 84.9221 91.2381C84.9221 91.1719 84.9221 91.1056 84.9221 91.0393C84.9221 90.7108 84.9395 90.3825 84.9744 90.0558C85.0016 89.7409 85.0757 89.4317 85.1941 89.1386C85.4836 88.4411 86.0625 87.8936 86.4253 87.2274C86.9868 86.1812 86.9763 84.978 86.9658 83.7817C87.0121 84.7282 86.8266 85.6716 86.4253 86.5299V86.5299Z" fill="black"/>
</g>
<path opacity="0.1" d="M100.341 82.5611C100.293 82.6293 100.236 82.6914 100.173 82.7459C100.05 82.8472 99.9126 82.9295 99.7652 82.9901C98.7503 83.4295 98.7921 81.9961 98.262 81.5044C97.9221 81.2536 97.5049 81.1302 97.0832 81.1556C96.0625 81.1044 95.0407 81.0591 94.0177 81.0196C92.3122 80.9568 90.6103 80.9254 88.9084 80.9638C88.0923 80.9777 87.2785 81.0114 86.4671 81.0649C85.5254 81.1277 84.5141 81.2498 83.7119 81.6962C83.4373 81.8472 83.1888 82.0415 82.976 82.2716C82.7842 82.4809 82.5819 82.7459 82.3169 82.7947C82.508 81.6537 83.0108 80.5877 83.7696 79.7144C84.5285 78.8411 85.5139 78.1944 86.6171 77.8459C88.403 76.5156 90.6341 75.9271 92.8439 76.2033C95.0537 76.4795 97.0712 77.5991 98.4748 79.3281C99.0929 79.8478 99.5864 80.4997 99.9186 81.2358C100.105 81.6615 100.247 82.1057 100.341 82.5611V82.5611Z" fill="black"/>
<path d="M99.7651 82.2925C98.7503 82.7319 98.7921 81.2985 98.262 80.8068C97.9221 80.556 97.5049 80.4326 97.0832 80.458C93.5491 80.2255 90.0046 80.1953 86.4671 80.3673C85.2081 80.451 83.827 80.6393 82.9795 81.574C82.7633 81.8112 82.5366 82.1181 82.2122 82.1076C82.1041 81.4101 82.0274 80.6847 81.9751 79.9697C81.9435 79.7019 81.9576 79.4307 82.0169 79.1676C82.1041 78.8677 82.3029 78.6131 82.4041 78.3201C82.5036 77.9475 82.539 77.5607 82.5087 77.1762C82.524 75.7534 82.9063 74.3585 83.6188 73.1268C84.3312 71.895 85.3495 70.8681 86.5752 70.1453C86.8828 69.9948 87.1681 69.8023 87.4227 69.5733C87.5111 69.468 87.6079 69.3701 87.7121 69.2804C87.9136 69.1562 88.1495 69.1 88.3852 69.1199C88.5526 69.1199 88.734 69.1199 88.8805 69.1199C89.3315 69.0703 89.7724 68.9527 90.1883 68.7712C90.5723 68.6062 90.9878 68.5277 91.4055 68.541C91.8488 68.6219 92.2755 68.7763 92.668 68.9979C92.8566 69.0888 93.0541 69.1601 93.2574 69.2106C93.5747 69.2839 93.9026 69.2804 94.2199 69.3431C94.734 69.474 95.2222 69.691 95.6638 69.9849C96.1908 70.2691 96.6785 70.6208 97.1146 71.0311C97.5888 71.573 97.9684 72.1908 98.2376 72.8586C98.6995 73.7812 99.0507 74.7552 99.2839 75.7603C99.5664 77.2041 99.4269 78.7665 100.096 80.0779C100.505 80.9009 100.878 81.8147 99.7651 82.2925Z" fill="#FED253"/>
<path opacity="0.1" d="M82.0867 81.1973C82.0867 81.1973 89.3164 74.6198 100.083 80.0743C100.083 80.0743 87.9284 77.3087 82.0867 81.1973Z" fill="black"/>
<path d="M3.30972 114.807C2.32623 113.196 0.847506 111.72 1.07769 109.893C3.78403 110.203 6.35088 109.544 8.83053 108.397C11.3102 107.249 13.612 105.76 15.9347 104.299C16.8484 103.723 17.7587 103.159 18.6655 102.635C20.1023 101.812 21.5287 100.892 22.99 100.086C25.0826 98.9351 27.217 97.9934 29.5676 97.8121C29.9934 97.7789 30.4206 97.7684 30.8475 97.7807C33.7422 97.8365 36.7415 98.6142 39.2874 97.3169L39.4443 97.2332C40.8882 96.4415 41.9379 95.0953 43.176 94.0037C44.0661 93.2339 45.0353 92.5605 46.0672 91.9948C47.947 90.9486 49.9838 90.1116 51.9054 89.1246C52.3973 88.8712 52.8643 88.5723 53.3004 88.2318L53.6283 87.9702L53.7015 87.9074C53.7817 87.8411 53.8619 87.7749 53.9386 87.7051L54.0886 87.5726L54.2421 87.4331L54.3606 87.3215L54.5525 87.1402L54.5734 87.1157L54.8768 86.8158L54.9989 86.6937L55.2116 86.474L55.3372 86.3485C55.5499 86.1288 55.7626 85.9056 55.9789 85.6893C56.1951 85.4731 56.4881 85.1801 56.7496 84.9395L57.0007 84.7163L57.074 84.6535L57.2762 84.4861L57.3704 84.4059L57.5692 84.2525L57.6668 84.1757C57.7645 84.1025 57.8656 84.0327 57.9668 83.963C58.0599 83.8985 58.1578 83.8414 58.2597 83.7921L57.6076 82.2122L59.4839 81.438L85.3616 144.232L83.4818 145.006L68.6806 109.084L68.5759 109.189C65.1472 112.572 60.9473 115.071 56.3381 116.471H56.3102C53.7329 117.248 50.8487 117.799 48.6794 119.243C47.9102 119.743 47.2418 120.383 46.7089 121.13C46.1997 121.855 45.844 122.682 45.3139 123.379C45.2128 123.508 45.1012 123.634 44.9896 123.753C44.3553 124.381 43.6535 124.938 42.897 125.413L42.5657 125.639C40.3187 127.22 37.9777 128.663 35.5557 129.96C34.158 130.688 32.7007 131.295 31.1997 131.774C30.1081 132.123 28.9817 132.377 27.8901 132.723C27.1558 132.945 26.4427 133.232 25.7592 133.581C23.9107 134.547 22.4913 136.06 21.1486 137.675C19.9733 139.091 18.8573 140.591 17.5669 141.881C16.7578 142.683 15.5266 143.443 14.5501 142.973L14.3513 142.857C14.3827 142.805 14.4071 142.753 14.435 142.697C15.2058 141.082 14.2572 139.087 12.9807 137.793C12.8482 137.657 12.7122 137.525 12.5727 137.399C12.4332 137.274 12.1821 137.051 11.9833 136.876C10.8917 135.938 9.73032 135.066 8.97352 133.856C8.39589 132.839 8.00382 131.728 7.81565 130.574C7.4669 128.932 7.23323 127.24 6.34041 125.842C5.7545 124.917 4.88261 124.129 4.24788 123.243C3.84665 122.719 3.58289 122.103 3.48061 121.451C3.33762 120.317 3.86425 119.208 4.06304 118.078C4.12218 117.77 4.14674 117.457 4.13627 117.144C4.06342 116.307 3.77899 115.503 3.30972 114.807V114.807Z" fill="url(#paint0_linear)"/>
<path d="M82.824 144.467L84.6716 143.705L59.2251 81.9675L57.3775 82.729L82.824 144.467Z" fill="#D6D8E1"/>
<path d="M6.96465 125.622C7.84002 127 8.07369 128.66 8.41198 130.274C8.59962 131.409 8.98565 132.503 9.55241 133.504C10.2988 134.693 11.4392 135.551 12.5099 136.472C12.7052 136.643 12.9005 136.82 13.0888 136.988C13.2248 137.11 13.3608 137.242 13.4899 137.372C14.7454 138.644 15.6766 140.608 14.9198 142.195C14.8965 142.249 14.8697 142.301 14.8396 142.352C14.9008 142.393 14.9649 142.431 15.0314 142.463C15.9939 142.931 17.2041 142.184 17.9993 141.393C19.2688 140.123 20.3673 138.651 21.5217 137.26C22.84 135.67 24.2385 134.18 26.0556 133.232C26.7263 132.888 27.4267 132.606 28.1481 132.388C29.2188 132.039 30.3278 131.791 31.402 131.457C32.8774 130.985 34.3101 130.389 35.6847 129.674C38.07 128.398 40.376 126.978 42.5901 125.423L42.9179 125.2C43.6614 124.734 44.3514 124.188 44.9756 123.571C45.0872 123.453 45.1953 123.331 45.2964 123.202C45.8335 122.504 46.1858 121.705 46.6915 120.99C47.2159 120.256 47.8737 119.627 48.6305 119.135C50.7649 117.716 53.5968 117.172 56.1323 116.408H56.1602C60.691 115.03 64.8198 112.573 68.1923 109.248C68.4718 109.014 68.6807 108.708 68.7956 108.362C68.9037 107.87 68.6387 107.382 68.3841 106.95C68.0876 106.44 67.7982 105.931 67.5122 105.415C66.226 103.074 65.0778 100.66 64.0735 98.1853C63.8537 97.6412 63.641 97.1007 63.4352 96.5531C62.9074 95.1581 62.4262 93.7433 61.9914 92.3088C61.8484 91.8345 61.7089 91.3567 61.5764 90.8789C61.552 90.7882 61.5241 90.6905 61.4996 90.5859C60.9207 88.2597 60.1465 82.8156 57.761 84.4443C57.0515 84.9516 56.3917 85.5249 55.7905 86.1567C55.3267 86.6275 54.8733 87.1123 54.3955 87.5796C54.0063 87.9624 53.5952 88.3222 53.1644 88.6573C52.7271 88.9921 52.2601 89.2863 51.7693 89.5362C49.8756 90.5057 47.8737 91.3183 46.0288 92.3576C45.0129 92.9128 44.0589 93.5745 43.183 94.3316C41.9658 95.4057 40.9335 96.731 39.5141 97.5087L39.3606 97.5924C36.8565 98.8654 33.9095 98.1016 31.0602 98.0458C30.6414 98.0353 30.2224 98.0457 29.8047 98.0772C27.4924 98.2516 25.379 99.1793 23.3353 100.313C21.8984 101.108 20.4964 102.008 19.0839 102.82C18.1911 103.333 17.2983 103.887 16.3985 104.456C14.1176 105.893 11.8054 107.399 9.42338 108.488C6.98208 109.597 4.46058 110.259 1.79957 109.956C1.57288 111.752 3.0237 113.203 3.99324 114.786C4.45891 115.467 4.74119 116.256 4.81282 117.077C4.82564 117.385 4.8034 117.692 4.74656 117.995C4.55125 119.107 4.04904 120.195 4.1746 121.315C4.27356 121.953 4.53141 122.556 4.92442 123.069C5.53126 123.937 6.38571 124.715 6.96465 125.622Z" fill="#F86D70"/>
<path d="M77.8702 132.886C77.8702 132.886 80.9253 135.551 84.0223 136.97C87.1193 138.39 85.0686 143.482 85.0686 143.482C85.0686 143.482 81.7868 144.235 79.4885 141.04C77.1902 137.846 77.8702 132.886 77.8702 132.886Z" fill="#FBBEBE"/>
<path d="M242.497 178.242C242.497 178.242 234.406 188.89 227.692 188.977C220.979 189.064 217.038 193.462 220.226 196.21C223.413 198.958 258.149 194.641 258.149 194.641C258.149 194.641 258.477 181.555 255.467 179.644C252.458 177.733 242.497 178.242 242.497 178.242Z" fill="#444176"/>
<path d="M329.494 191.024C329.494 191.024 330.732 199.457 326.907 205.208C323.081 210.959 333.819 213.177 333.819 213.177C333.819 213.177 341.621 215.35 342.189 207.642C342.758 199.935 342.573 194.041 341.84 193.413C341.108 192.785 340.498 188.45 340.498 188.45L329.494 191.024Z" fill="#444176"/>
<path d="M207.011 206.952C207.011 206.952 206.729 179.676 233.719 168.589L239.986 156.665L242.992 149.341C244.081 146.688 245.794 144.337 247.985 142.488C250.176 140.639 252.781 139.345 255.579 138.718L260.441 137.626L261.944 131.293C262.745 127.907 264.519 124.831 267.048 122.442C269.578 120.053 272.751 118.458 276.176 117.852C279.133 117.303 282.133 117.023 285.14 117.015C286.47 117.035 287.773 117.398 288.921 118.071C290.069 118.743 291.024 119.701 291.693 120.851V120.851C291.693 120.851 317.263 120.568 318.397 134.491C318.397 134.491 320.957 147.273 324.65 149.547C324.65 149.547 330.9 148.127 337.15 157.219L343.968 180.516C343.968 180.516 361.866 197.277 356.467 212.602C356.467 212.602 349.08 223.113 311.579 216.009C311.579 216.009 271.521 228.215 250.198 211.475C250.194 211.496 214.684 218.314 207.011 206.952Z" fill="#A8A8A8"/>
<path opacity="0.1" d="M224.909 202.69C224.909 202.69 230.594 194.735 230.308 189.05C230.022 183.365 231.647 169.52 231.647 169.52" stroke="black" stroke-miterlimit="10"/>
<path opacity="0.1" d="M245.65 181.381C245.65 181.381 251.331 170.87 250.763 165.188C250.763 165.188 256.73 154.377 261.274 155.242" stroke="black" stroke-miterlimit="10"/>
<path opacity="0.1" d="M276.902 151.549C276.902 151.549 292.526 145.867 293.381 141.323" stroke="black" stroke-miterlimit="10"/>
<path opacity="0.1" d="M282.583 164.62C282.583 164.62 299.062 157.233 299.062 155.242H307.296C307.296 155.242 319.23 170.87 317.811 177.688" stroke="black" stroke-miterlimit="10"/>
<path opacity="0.1" d="M301.904 175.982C301.904 175.982 285.994 174.845 280.309 179.393C274.625 183.941 264.399 186.211 264.399 186.211C264.399 186.211 258.432 198.997 256.158 201.267C253.884 203.537 250.191 211.496 250.191 211.496" stroke="black" stroke-miterlimit="10"/>
<path opacity="0.1" d="M301.904 191.042C301.904 191.042 303.606 197.005 305.88 200.416C308.154 203.827 311.561 216.04 311.561 216.04" stroke="black" stroke-miterlimit="10"/>
<path opacity="0.1" d="M328.608 208.371C328.608 208.371 332.215 218.405 335.385 218.503" stroke="black" stroke-miterlimit="10"/>
<path opacity="0.1" d="M304.987 165.303C304.987 165.303 314.355 167.835 318.271 173.97C322.188 180.105 334.15 185.667 334.15 185.667" stroke="black" stroke-miterlimit="10"/>
<path opacity="0.1" d="M309.005 135.08C309.005 135.08 309.005 148.148 312.698 148.148C316.392 148.148 324.633 149.568 324.633 149.568" stroke="black" stroke-miterlimit="10"/>
<path opacity="0.1" d="M290.904 119.561C290.904 119.561 289.959 142.136 285.129 147.981" stroke="black" stroke-miterlimit="10"/>
<g opacity="0.05">
<path opacity="0.05" d="M343.382 180.244L336.564 156.947C330.314 147.855 324.064 149.275 324.064 149.275C320.371 147.001 317.814 134.215 317.814 134.215C316.678 120.293 291.107 120.579 291.107 120.579C290.437 119.427 289.48 118.468 288.329 117.795C287.178 117.123 285.872 116.76 284.54 116.743C283.333 116.743 282.098 116.781 280.864 116.882C281.561 116.952 282.23 117.051 282.869 117.179L284.857 120.589C284.857 120.589 310.424 120.303 311.561 134.226C311.561 134.226 314.121 147.011 317.814 149.285C317.814 149.285 324.064 147.862 330.314 156.958L337.132 180.255C337.132 180.255 355.03 197.016 349.631 212.34C349.631 212.34 345.987 217.526 330.827 218.154C351.267 218.904 355.881 212.34 355.881 212.34C361.28 197.005 343.382 180.244 343.382 180.244Z" fill="black"/>
<path opacity="0.05" d="M243.376 211.21C237.362 212.292 231.28 212.958 225.174 213.202C232.292 213.474 239.697 212.703 244.468 212.047C244.098 211.765 243.735 211.493 243.376 211.21Z" fill="black"/>
<path opacity="0.05" d="M304.743 215.758C295.997 218.211 286.993 219.634 277.917 219.999C291.013 220.473 303.418 217.742 308.531 216.431C307.296 216.225 306.044 215.992 304.743 215.758Z" fill="black"/>
</g>
<path d="M77.7203 260.071C77.7203 260.071 85.536 259.83 87.8901 258.153C90.2442 256.475 99.9082 254.473 100.494 257.162C101.08 259.851 112.237 270.537 103.413 270.61C94.5897 270.684 82.9168 269.236 80.5662 267.803C78.2156 266.369 77.7203 260.071 77.7203 260.071Z" fill="#A8A8A8"/>
<path opacity="0.2" d="M103.574 269.672C94.7501 269.745 83.0737 268.298 80.7231 266.882C78.934 265.791 78.2191 261.878 77.9819 260.074H77.7203C77.7203 260.074 78.2156 266.376 80.5662 267.806C82.9168 269.236 94.5932 270.684 103.413 270.614C105.963 270.593 106.841 269.686 106.793 268.343C106.44 269.153 105.467 269.658 103.574 269.672Z" fill="black"/>
<path d="M268.26 240.471C268.26 240.471 259.056 238.629 256.604 236.174C254.153 233.719 243.107 229.429 241.88 232.495C240.652 235.56 225.317 245.992 235.745 247.84C246.173 249.688 260.284 250.281 263.353 249.068C266.422 247.854 268.26 240.471 268.26 240.471Z" fill="#A8A8A8"/>
<path opacity="0.2" d="M235.745 246.682C246.176 248.52 260.284 249.123 263.353 247.906C265.686 246.972 267.311 242.483 267.953 240.394L268.26 240.46C268.26 240.46 266.418 247.819 263.353 249.047C260.287 250.274 246.176 249.661 235.745 247.819C232.735 247.289 231.874 246.04 232.198 244.464C232.456 245.503 233.506 246.295 235.745 246.682Z" fill="black"/>
<path opacity="0.1" d="M180.133 40.0547H177.942C178.349 40.0547 178.74 39.893 179.027 39.6052C179.315 39.3174 179.477 38.9271 179.477 38.5201C179.477 38.1131 179.315 37.7228 179.027 37.435C178.74 37.1473 178.349 36.9856 177.942 36.9856H160.198C159.791 36.9856 159.4 37.1473 159.113 37.435C158.825 37.7228 158.663 38.1131 158.663 38.5201C158.663 38.9271 158.825 39.3174 159.113 39.6052C159.4 39.893 159.791 40.0547 160.198 40.0547H162.388C161.994 40.0734 161.622 40.2431 161.35 40.5285C161.078 40.8139 160.926 41.1931 160.926 41.5874C160.926 41.9818 161.078 42.3609 161.35 42.6463C161.622 42.9317 161.994 43.1014 162.388 43.1202H159.322C158.915 43.1202 158.525 43.2819 158.237 43.5697C157.949 43.8575 157.788 44.2478 157.788 44.6547C157.788 45.0617 157.949 45.452 158.237 45.7398C158.525 46.0276 158.915 46.1893 159.322 46.1893H177.067C177.474 46.1893 177.864 46.0276 178.152 45.7398C178.44 45.452 178.601 45.0617 178.601 44.6547C178.601 44.2478 178.44 43.8575 178.152 43.5697C177.864 43.2819 177.474 43.1202 177.067 43.1202H180.133C180.34 43.1301 180.547 43.0978 180.742 43.0252C180.936 42.9527 181.114 42.8414 181.265 42.6981C181.415 42.5548 181.535 42.3824 181.616 42.1915C181.698 42.0006 181.74 41.7951 181.74 41.5874C181.74 41.3798 181.698 41.1742 181.616 40.9833C181.535 40.7924 181.415 40.6201 181.265 40.4768C181.114 40.3335 180.936 40.2222 180.742 40.1496C180.547 40.0771 180.34 40.0448 180.133 40.0547V40.0547Z" fill="#007cbd"/>
<path opacity="0.1" d="M249.054 94.0456H246.864C247.257 94.0268 247.629 93.8571 247.901 93.5717C248.173 93.2863 248.325 92.9071 248.325 92.5128C248.325 92.1185 248.173 91.7393 247.901 91.4539C247.629 91.1685 247.257 90.9988 246.864 90.98H229.101C228.894 90.9701 228.687 91.0024 228.492 91.075C228.297 91.1476 228.12 91.2589 227.969 91.4022C227.819 91.5455 227.699 91.7178 227.618 91.9087C227.536 92.0996 227.494 92.3051 227.494 92.5128C227.494 92.7205 227.536 92.926 227.618 93.1169C227.699 93.3078 227.819 93.4801 227.969 93.6234C228.12 93.7667 228.297 93.878 228.492 93.9506C228.687 94.0232 228.894 94.0555 229.101 94.0456H231.292C230.898 94.0644 230.526 94.2341 230.254 94.5195C229.982 94.8049 229.83 95.184 229.83 95.5784C229.83 95.9727 229.982 96.3519 230.254 96.6373C230.526 96.9227 230.898 97.0924 231.292 97.1111H228.226C227.819 97.1111 227.429 97.2728 227.141 97.5606C226.853 97.8484 226.691 98.2387 226.691 98.6457C226.691 99.0526 226.853 99.443 227.141 99.7307C227.429 100.019 227.819 100.18 228.226 100.18H245.967C246.374 100.18 246.765 100.019 247.052 99.7307C247.34 99.443 247.502 99.0526 247.502 98.6457C247.502 98.2387 247.34 97.8484 247.052 97.5606C246.765 97.2728 246.374 97.1111 245.967 97.1111H249.054C249.261 97.121 249.468 97.0887 249.663 97.0162C249.858 96.9436 250.035 96.8323 250.186 96.689C250.336 96.5457 250.456 96.3734 250.537 96.1825C250.619 95.9915 250.661 95.786 250.661 95.5784C250.661 95.3707 250.619 95.1652 250.537 94.9743C250.456 94.7834 250.336 94.611 250.186 94.4677C250.035 94.3244 249.858 94.2131 249.663 94.1406C249.468 94.068 249.261 94.0357 249.054 94.0456V94.0456Z" fill="#007cbd"/>
<path opacity="0.1" d="M146.927 84.0572H144.737C144.945 84.0671 145.152 84.0348 145.347 83.9622C145.541 83.8896 145.719 83.7783 145.869 83.635C146.02 83.4917 146.139 83.3194 146.221 83.1285C146.303 82.9376 146.345 82.7321 146.345 82.5244C146.345 82.3167 146.303 82.1112 146.221 81.9203C146.139 81.7294 146.02 81.5571 145.869 81.4138C145.719 81.2705 145.541 81.1592 145.347 81.0866C145.152 81.014 144.945 80.9817 144.737 80.9916H126.989C126.782 80.9817 126.574 81.014 126.38 81.0866C126.185 81.1592 126.007 81.2705 125.857 81.4138C125.707 81.5571 125.587 81.7294 125.505 81.9203C125.424 82.1112 125.381 82.3167 125.381 82.5244C125.381 82.7321 125.424 82.9376 125.505 83.1285C125.587 83.3194 125.707 83.4917 125.857 83.635C126.007 83.7783 126.185 83.8896 126.38 83.9622C126.574 84.0348 126.782 84.0671 126.989 84.0572H129.179C128.972 84.0473 128.765 84.0796 128.57 84.1521C128.375 84.2247 128.198 84.336 128.047 84.4793C127.897 84.6226 127.777 84.795 127.696 84.9859C127.614 85.1768 127.572 85.3823 127.572 85.59C127.572 85.7976 127.614 86.0031 127.696 86.1941C127.777 86.385 127.897 86.5573 128.047 86.7006C128.198 86.8439 128.375 86.9552 128.57 87.0278C128.765 87.1003 128.972 87.1326 129.179 87.1227H126.11C125.703 87.1227 125.313 87.2844 125.025 87.5722C124.737 87.86 124.576 88.2503 124.576 88.6573C124.576 89.0643 124.737 89.4546 125.025 89.7423C125.313 90.0301 125.703 90.1918 126.11 90.1918H143.855C144.262 90.1918 144.652 90.0301 144.94 89.7423C145.228 89.4546 145.389 89.0643 145.389 88.6573C145.389 88.2503 145.228 87.86 144.94 87.5722C144.652 87.2844 144.262 87.1227 143.855 87.1227H146.92C147.128 87.1326 147.335 87.1003 147.53 87.0278C147.724 86.9552 147.902 86.8439 148.053 86.7006C148.203 86.5573 148.322 86.385 148.404 86.1941C148.486 86.0031 148.528 85.7976 148.528 85.59C148.528 85.3823 148.486 85.1768 148.404 84.9859C148.322 84.795 148.203 84.6226 148.053 84.4793C147.902 84.336 147.724 84.2247 147.53 84.1521C147.335 84.0796 147.128 84.0473 146.92 84.0572H146.927Z" fill="#007cbd"/>
</g>
<defs>
<linearGradient id="paint0_linear" x1="-252938" y1="22856.5" x2="-273325" y2="22856.5" gradientUnits="userSpaceOnUse">
<stop stop-color="#808080" stop-opacity="0.25"/>
<stop offset="0.54" stop-color="#808080" stop-opacity="0.12"/>
<stop offset="1" stop-color="#808080" stop-opacity="0.1"/>
</linearGradient>
<clipPath id="clip0">
<rect width="360" height="290.385" fill="white"/>
</clipPath>
</defs>
</svg>
