<?xml version="1.0" encoding="utf-8"?>
<!-- Generator: Adobe Illustrator 25.0.0, SVG Export Plug-In . SVG Version: 6.00 Build 0)  -->
<svg version="1.1" id="Livello_1" xmlns="http://www.w3.org/2000/svg" xmlns:xlink="http://www.w3.org/1999/xlink" x="0px" y="0px"
	 viewBox="0 0 332.7 310.7" style="enable-background:new 0 0 332.7 310.7;" xml:space="preserve">
<style type="text/css">
	.st0{fill:#FFB8B8;}
	.st1{fill:#C0E9FE;}
	.st2{fill:#003554;}
	.st3{fill:#007CBD;}
	.st4{fill:none;stroke:#C0E9FE;stroke-width:2;stroke-miterlimit:10;}
</style>
<g>
	<g>
		<path class="st0" d="M169.2,86.5c18.3,0,33.1-14.8,33.1-33.1s-14.8-33.1-33.1-33.1s-33.1,14.8-33.1,33.1S150.9,86.5,169.2,86.5z"
			/>
		<path class="st0" d="M144.5,69.9c0,0,6.2,47.1-3.4,52.4c-9.6,5.3,57.2,5.8,57.2,5.8s-14.9-40.8-8.2-53.3L144.5,69.9z"/>
		<path class="st1" d="M247.1,128.3l-5.6,25.3l-11.7,53.5l-0.4,2.9l-4.1,33.9l-2.7,22.5l-1.8,15.1c-11,5.6-19,9.5-19,9.5
			s-0.7-3.4-1.8-7.8c-7.7,2.3-22,6.1-34.1,6.9c4.4,4.9,6.4,9.5,3.7,12.9c-8.3,10.3-42.5-11.2-54.5-19.2c-0.3,1.9-0.4,3.9-0.3,5.8
			l-9.2-7l0.9-16.2l1.5-27.4l1.9-34.4c-0.6-1.5-1.1-3-1.5-4.5c-2.8-10-6.2-29.9-8.8-46.6c-2.1-13.4-3.7-24.8-4-27.2
			c0-0.3-0.1-0.5-0.1-0.5l50.7-22.4c3.6,8.4,20.4,10.9,20.4,10.9c13.9-1,24.9-8.3,24.9-8.3L247.1,128.3z"/>
		<path class="st0" d="M205.7,281.6c0,0-2.1,0.7-5.6,1.8c-7.7,2.3-22,6.1-34.1,6.9c-10.4,0.7-19.2-0.9-20.8-7.7
			c-0.7-2.9,0.3-5.3,2.4-7.3c6.4-5.9,23-8,36.2-8.7c3.7-0.2,7.2-0.3,10-0.3c4.9-0.1,8.1,0,8.1,0l0.1,0.3L205.7,281.6z"/>
		<path class="st2" d="M141.7,22l-6.2-2.5c0,0,13-14.3,31-13l-5.1-5.6c0,0,12.4-5,23.7,8.1c5.9,6.8,12.8,14.9,17,24h6.6l-2.8,6.1
			l9.7,6.1l-10-1.1c0.6,3.3,0.7,6.8,0.3,10.1c-0.4,3.4-2.1,6.4-4.8,8.6c0,0-7.7-15.9-7.7-18.4v6.2c0,0-6.2-5.6-6.2-9.3l-3.4,4.3
			l-1.7-6.8l-20.8,6.8l3.4-5.6l-13,1.9l5.1-6.8c0,0-14.7,8.1-15.2,14.9c-0.6,6.8-4.9,13.3-4.9,13.3S125.3,31.3,141.7,22z"/>
		<path class="st1" d="M283.1,244.6c-3.4,3.7-11.7,9.2-21.9,15.1c-3.8,2.2-7.8,4.5-11.9,6.8c-9.8,5.4-20,10.8-28.5,15.1
			c-11,5.6-19,9.5-19,9.5s-0.7-3.4-1.8-7.8c-1.5-5.9-3.7-13.5-6-16.9c-0.1-0.1-0.2-0.2-0.2-0.3c-0.7-0.9-1.4-1.4-2-1.4l33.5-20.8
			l14.5-9L229.4,210l-13.1-31.3l7.9-25.2l7.9-25.3h14.9c0,0,4.9,10.8,11.2,25.8c0.9,2.2,1.9,4.6,2.9,7
			C274.2,192.6,290.3,236.7,283.1,244.6z"/>
		<path class="st0" d="M169.7,303.2c-8.3,10.3-42.5-11.2-54.5-19.2c-2.6-1.7-4.2-2.8-4.2-2.8l10.9-14.6l3.5-4.6c0,0,3.1,1.6,7.7,4.3
			c0.2,0.1,0.3,0.2,0.5,0.3c4,2.3,8.9,5.4,13.9,8.7c6.9,4.7,13.9,10,18.4,15C170.4,295.2,172.5,299.8,169.7,303.2z"/>
		<path class="st1" d="M133.2,266.2c-1.2,0-2.4,0.1-3.7,0.3c-10.4,1.8-13.4,11.2-14.3,17.4c-0.3,1.9-0.4,3.9-0.3,5.8l-9.2-7
			l-3.3-2.6c-8-2.8-15.2-7.8-21.4-13.6c-5.4-5.2-10.2-10.9-14.4-17.1c-4.2-6.1-7.9-12.5-11.1-19.1c-0.9-1.9-1.4-3.9-1.4-5.9
			c0-2.1,0.4-4.1,1.2-6l11.3-25.3l16.6-36.9c0.1-0.9,0.3-1.7,0.4-2.6c3.3-18.8,12.1-27.2,12.1-27.2h6.7l4.5,27.2l5.6,33.8l-3.9,12.8
			l-9.1,29.5l8.7,9.4L133.2,266.2z"/>
		<path class="st3" d="M140.8,187.4l5.7,6.7c2.1-0.4,4.4-0.9,6.7-1.4l-1.7-5.3l4,4.7c24.3-6,54.5-17.6,54.5-17.6s-32.6,2.4-56.9-2.9
			c-10.8-2.3-21.8,3-26.2,13.1c-2.6,5.9-2.2,10.9,6.9,10.9c3.1-0.1,6.1-0.3,9.2-0.9L140.8,187.4z"/>
		<path class="st2" d="M271.9,297.7v2.7c0,0.8-0.1,1.5-0.4,2.2c-0.1,0.3-0.3,0.6-0.4,0.9c-0.5,0.9-1.3,1.6-2.2,2.2
			c-0.9,0.5-1.9,0.8-3,0.8H64.5c-1,0-2.1-0.3-3-0.8c-0.9-0.5-1.7-1.3-2.2-2.2c-0.2-0.3-0.3-0.6-0.4-0.9c-0.3-0.7-0.4-1.4-0.4-2.2
			v-2.7c0-0.8,0.2-1.6,0.5-2.3c0.3-0.7,0.8-1.4,1.3-2c0.6-0.6,1.2-1,2-1.3c0.7-0.3,1.5-0.5,2.3-0.5h11.6v-1.3c0,0,0-0.1,0-0.1
			c0,0,0-0.1,0.1-0.1c0,0,0.1,0,0.1-0.1c0,0,0.1,0,0.1,0h6.1c0,0,0.1,0,0.1,0c0,0,0.1,0,0.1,0.1c0,0,0,0.1,0.1,0.1c0,0,0,0.1,0,0.1
			v1.3h3.8v-1.3c0,0,0-0.1,0-0.1c0,0,0-0.1,0.1-0.1c0,0,0.1,0,0.1-0.1c0,0,0.1,0,0.1,0h6.1c0,0,0.1,0,0.1,0c0,0,0.1,0,0.1,0.1
			c0,0,0,0.1,0.1,0.1c0,0,0,0.1,0,0.1v1.3h3.8v-1.3c0,0,0-0.1,0-0.1c0,0,0-0.1,0.1-0.1c0,0,0.1,0,0.1-0.1c0,0,0.1,0,0.1,0h6.1
			c0,0,0.1,0,0.1,0c0,0,0.1,0,0.1,0.1c0,0,0,0.1,0.1,0.1c0,0,0,0.1,0,0.1v1.3h3.8v-1.3c0,0,0-0.1,0-0.1c0,0,0-0.1,0.1-0.1
			c0,0,0.1,0,0.1-0.1c0,0,0.1,0,0.1,0h6.1c0,0,0.1,0,0.1,0c0,0,0.1,0,0.1,0.1c0,0,0,0.1,0.1,0.1c0,0,0,0.1,0,0.1v1.3h3.8v-1.3
			c0,0,0-0.1,0-0.1c0,0,0-0.1,0.1-0.1c0,0,0.1,0,0.1-0.1c0,0,0.1,0,0.1,0h6.1c0,0,0.1,0,0.1,0c0,0,0.1,0,0.1,0.1c0,0,0,0.1,0.1,0.1
			c0,0,0,0.1,0,0.1v1.3h3.8v-1.3c0,0,0-0.1,0-0.1c0,0,0-0.1,0.1-0.1c0,0,0.1,0,0.1-0.1c0,0,0.1,0,0.1,0h6.1c0,0,0.1,0,0.1,0
			c0,0,0.1,0,0.1,0.1c0,0,0,0.1,0.1,0.1c0,0,0,0.1,0,0.1v1.3h3.8v-1.3c0,0,0-0.1,0-0.1c0,0,0-0.1,0.1-0.1c0,0,0.1,0,0.1-0.1
			c0,0,0.1,0,0.1,0h47.4c0,0,0.1,0,0.1,0c0,0,0.1,0,0.1,0.1c0,0,0,0.1,0.1,0.1c0,0,0,0.1,0,0.1v1.3h3.8v-1.3c0,0,0-0.1,0-0.1
			c0,0,0-0.1,0.1-0.1c0,0,0.1,0,0.1-0.1c0,0,0.1,0,0.1,0h6.1c0.1,0,0.1,0,0.2,0.1c0,0,0.1,0.1,0.1,0.2v1.3h3.8v-1.3c0,0,0-0.1,0-0.1
			c0,0,0-0.1,0.1-0.1c0,0,0.1,0,0.1-0.1c0,0,0.1,0,0.1,0h6.1c0,0,0.1,0,0.1,0c0,0,0.1,0,0.1,0.1c0,0,0,0.1,0.1,0.1c0,0,0,0.1,0,0.1
			v1.3h3.8v-1.3c0,0,0-0.1,0-0.1c0,0,0-0.1,0.1-0.1c0,0,0.1,0,0.1-0.1c0,0,0.1,0,0.1,0h6.1c0,0,0.1,0,0.1,0c0,0,0.1,0,0.1,0.1
			c0,0,0,0.1,0.1,0.1c0,0,0,0.1,0,0.1v1.3h3.8v-1.3c0,0,0-0.1,0-0.1c0,0,0-0.1,0.1-0.1c0,0,0.1,0,0.1-0.1c0,0,0.1,0,0.1,0h6.1
			c0.1,0,0.1,0,0.2,0.1c0,0,0.1,0.1,0.1,0.2v1.3h3.8v-1.3c0,0,0-0.1,0-0.1c0,0,0-0.1,0.1-0.1c0,0,0.1,0,0.1-0.1c0,0,0.1,0,0.1,0h6.1
			c0,0,0.1,0,0.1,0c0,0,0.1,0,0.1,0.1c0,0,0,0.1,0.1,0.1c0,0,0,0.1,0,0.1v1.3h3.8v-1.3c0,0,0-0.1,0-0.1c0,0,0-0.1,0.1-0.1
			c0,0,0.1,0,0.1-0.1c0,0,0.1,0,0.1,0h6.1c0,0,0.1,0,0.1,0c0,0,0.1,0,0.1,0.1c0,0,0,0.1,0.1,0.1c0,0,0,0.1,0,0.1v1.3h17.7
			c0.8,0,1.6,0.2,2.3,0.5c0.7,0.3,1.4,0.8,2,1.3c0.6,0.6,1,1.2,1.3,2C271.7,296.1,271.9,296.9,271.9,297.7z"/>
		<path class="st2" d="M330.4,302.6H0v0.9h330.4V302.6z"/>
		<path class="st2" d="M255.7,182.5h-75v-1.5h-34v1.5H71.3c-1.3,0-2.6,0.5-3.6,1.5c-1,1-1.5,2.2-1.5,3.6v102.7
			c0,1.3,0.5,2.6,1.5,3.6c1,1,2.2,1.5,3.6,1.5h184.4c1.3,0,2.6-0.5,3.6-1.5c1-1,1.5-2.2,1.5-3.6V187.5c0-0.7-0.1-1.3-0.4-1.9
			c-0.3-0.6-0.6-1.2-1.1-1.6c-0.5-0.5-1-0.8-1.6-1.1C257,182.6,256.3,182.5,255.7,182.5z"/>
		<path class="st4" d="M163.6,229.6c6.2,0,11.3-5,11.3-11.3s-5-11.3-11.3-11.3s-11.3,5-11.3,11.3S157.4,229.6,163.6,229.6z"/>
		<path class="st1" d="M160,233.6c6.2,0,11.3-5,11.3-11.3s-5-11.3-11.3-11.3c-6.2,0-11.3,5-11.3,11.3S153.8,233.6,160,233.6z"/>
		<path class="st3" d="M21.6,298.1H9v12.6h12.6V298.1z"/>
		<path class="st2" d="M14,288.1v15.3h15.3v-15.3H14z M28.6,302.8h-14v-14h14V302.8z"/>
		<path class="st3" d="M313.7,298.1h-12.6v12.6h12.6V298.1z"/>
		<path class="st2" d="M306.1,288.1v15.3h15.3v-15.3H306.1z M320.7,302.8h-14v-14h14V302.8z"/>
		<path class="st1" d="M40.6,270.4c0.4,14.4-8,19.7-18.6,20c-0.2,0-0.5,0-0.7,0c-0.5,0-1,0-1.5,0c-9.6-0.4-17.1-5.5-17.5-18.9
			c-0.4-13.9,16.8-31.9,18.1-33.2l0,0c0-0.1,0.1-0.1,0.1-0.1S40.2,256,40.6,270.4z"/>
		<path class="st2" d="M21.3,288.2l6.7-10l-6.7,11l0,1.1c-0.5,0-1,0-1.5,0l0.3-14.4l0-0.1l0,0l0-1.4l-7.3-10.7l7.3,9.6l0,0.3
			l0.3-10.9l-6.3-11.1l6.4,9.1l-0.1-22.6l0-0.1l0,0.1l0.4,17.8l5.8-7.2l-5.8,8.8l0.1,9.8l5.3-9.5l-5.3,11l0.1,5.4l7.7-13.3
			l-7.7,15.2L21.3,288.2z"/>
		<path class="st1" d="M332.7,270.4c0.4,14.4-8,19.7-18.6,20c-0.2,0-0.5,0-0.7,0c-0.5,0-1,0-1.5,0c-9.6-0.4-17.1-5.5-17.5-18.9
			c-0.4-13.9,16.8-31.9,18.1-33.2l0,0c0-0.1,0.1-0.1,0.1-0.1S332.3,256,332.7,270.4z"/>
		<path class="st2" d="M313.4,288.2l6.7-10l-6.7,11l0,1.1c-0.5,0-1,0-1.5,0l0.3-14.4l0-0.1l0,0l0-1.4l-7.3-10.7l7.3,9.6l0,0.3
			l0.3-10.9l-6.3-11.1l6.4,9.1l-0.1-22.6v-0.1l0,0.1l0.4,17.8l5.8-7.2l-5.8,8.8l0.1,9.8l5.3-9.5l-5.3,11l0.1,5.4L321,261l-7.7,15.2
			L313.4,288.2z"/>
	</g>
</g>
</svg>
