<svg width="360" height="311" viewBox="0 0 360 311" fill="none" xmlns="http://www.w3.org/2000/svg">
<g clip-path="url(#clip0)">
<path d="M196.502 86.522C214.809 86.522 229.65 71.6811 229.65 53.3739C229.65 35.0667 214.809 20.2258 196.502 20.2258C178.195 20.2258 163.354 35.0667 163.354 53.3739C163.354 71.6811 178.195 86.522 196.502 86.522Z" fill="#FFB8B8"/>
<path d="M171.761 69.9479C171.761 69.9479 178.006 117.028 168.398 122.312C158.79 127.597 225.567 128.077 225.567 128.077C225.567 128.077 210.674 87.2426 217.4 74.752L171.761 69.9479Z" fill="#FFB8B8"/>
<path d="M274.327 128.315L268.774 153.604L257.031 207.106L256.68 210.036L252.627 243.957L249.931 266.491L248.124 281.628C237.134 287.276 229.169 291.175 229.169 291.175C229.169 291.175 228.484 287.741 227.379 283.345C219.667 285.658 205.395 289.494 193.301 290.26C197.705 295.169 199.729 299.781 196.984 303.184C188.698 313.444 154.494 291.951 142.53 283.936C142.252 285.855 142.146 287.795 142.215 289.733L133.059 282.692L133.965 266.491L135.494 239.079L137.414 204.703C136.808 203.232 136.301 201.721 135.895 200.182C133.091 190.211 129.688 170.3 127.078 153.604C124.977 140.166 123.399 128.811 123.066 126.395C123.021 126.08 122.998 125.917 122.998 125.917L173.679 103.523C177.28 111.876 194.099 114.387 194.099 114.387C208.032 113.426 218.954 106.079 218.954 106.079L274.327 128.315Z" fill="#C0E9FE"/>
<path d="M233.014 281.569C233.014 281.569 230.868 282.304 227.379 283.345C219.667 285.658 205.395 289.494 193.301 290.26C182.888 290.927 174.089 289.323 172.48 282.53C171.79 279.609 172.768 277.206 174.9 275.232C181.265 269.331 197.89 267.217 211.075 266.491C214.798 266.288 218.242 266.194 221.109 266.157C225.977 266.094 229.169 266.194 229.169 266.194L229.246 266.491L233.014 281.569Z" fill="#FFB8B8"/>
<path d="M168.926 22.0188L162.728 19.5376C162.728 19.5376 175.687 5.27022 193.717 6.51091L188.646 0.927986C188.646 0.927986 201.042 -4.03451 212.311 8.99213C218.235 15.8399 225.089 23.8892 229.361 32.9566H235.999L233.229 39.0564L242.924 45.1562L232.973 44.0605C233.566 47.4008 233.657 50.8109 233.243 54.1781C232.816 57.5463 231.097 60.6169 228.449 62.7419C228.449 62.7419 220.762 46.8315 220.762 44.3502V50.5534C220.762 50.5534 214.565 44.9706 214.565 41.2487L211.184 45.5909L209.494 38.7674L188.646 45.5909L192.027 40.0081L179.068 41.869L184.139 35.0455C184.139 35.0455 169.489 43.1096 168.926 49.9332C168.362 56.7566 164.074 63.2223 164.074 63.2223C164.074 63.2223 152.586 31.3236 168.926 22.0188Z" fill="#003554"/>
<path d="M310.358 244.574C306.981 248.235 298.615 253.748 288.473 259.716C284.7 261.934 280.683 264.219 276.586 266.491C266.808 271.914 256.571 277.287 248.124 281.628C237.134 287.276 229.169 291.175 229.169 291.175C229.169 291.175 228.484 287.74 227.379 283.345C225.901 277.463 223.674 269.858 221.352 266.491C221.271 266.374 221.19 266.266 221.109 266.157C220.433 265.269 219.752 264.751 219.081 264.751L252.627 243.957L267.124 234.968L256.68 210.036L243.58 178.761L251.487 153.604L259.434 128.315H274.327C274.327 128.315 279.259 139.08 285.565 154.091C286.507 156.336 287.481 158.675 288.473 161.091C301.446 192.645 317.62 236.708 310.358 244.574Z" fill="#C0E9FE"/>
<path d="M196.984 303.184C188.698 313.444 154.494 291.951 142.53 283.936C139.925 282.191 138.374 281.087 138.374 281.087L149.319 266.491L152.785 261.871C152.785 261.871 155.887 263.516 160.471 266.194C160.638 266.293 160.805 266.392 160.976 266.491C164.929 268.812 169.892 271.846 174.9 275.232C181.811 279.906 188.798 285.239 193.301 290.26C197.705 295.169 199.729 299.781 196.984 303.184Z" fill="#FFB8B8"/>
<path d="M160.471 266.194C159.248 266.189 158.026 266.288 156.82 266.491C146.456 268.272 143.4 277.652 142.53 283.936C142.252 285.855 142.146 287.795 142.215 289.733L133.059 282.692L129.724 280.127C121.695 277.328 114.542 272.356 108.339 266.491C102.958 261.313 98.1313 255.589 93.9368 249.411C89.759 243.322 86.0345 236.934 82.7937 230.298C81.8894 228.447 81.4033 226.419 81.3698 224.359C81.3363 222.298 81.7563 220.256 82.5999 218.375L93.9368 193.11L110.507 156.182C110.629 155.303 110.763 154.444 110.908 153.604C114.195 134.761 122.998 126.395 122.998 126.395H129.724L134.222 153.604L139.812 187.407L135.895 200.182L126.843 229.685L135.494 239.079L160.471 266.194Z" fill="#C0E9FE"/>
<path d="M168.083 187.434L173.832 194.142C175.969 193.735 178.199 193.256 180.497 192.719L178.845 187.434L182.883 192.145C207.224 186.158 237.394 174.519 237.394 174.519C237.394 174.519 204.822 176.908 180.503 171.594C169.742 169.244 158.671 174.578 154.256 184.668C151.689 190.533 152.092 195.614 161.195 195.614C164.271 195.561 167.338 195.273 170.369 194.751L168.083 187.434Z" fill="#007cbd"/>
<path d="M299.156 297.685V300.421C299.158 301.172 299.018 301.916 298.746 302.616C298.625 302.928 298.478 303.229 298.309 303.518C297.771 304.419 297.009 305.166 296.096 305.684C295.184 306.203 294.152 306.475 293.102 306.475H91.8092C90.7595 306.475 89.7277 306.203 88.815 305.684C87.9023 305.166 87.1399 304.419 86.6027 303.518C86.4328 303.229 86.2865 302.928 86.1655 302.616C85.8929 301.916 85.7537 301.172 85.7553 300.421V297.685C85.755 296.89 85.9115 296.102 86.2157 295.368C86.5198 294.633 86.9657 293.966 87.5279 293.403C88.0901 292.841 88.7576 292.395 89.4922 292.091C90.2268 291.787 91.0141 291.63 91.8092 291.631H103.412V290.355C103.412 290.322 103.419 290.289 103.431 290.258C103.444 290.228 103.462 290.2 103.486 290.176C103.509 290.153 103.537 290.134 103.568 290.122C103.598 290.109 103.631 290.103 103.664 290.103H109.718C109.752 290.103 109.784 290.109 109.815 290.122C109.846 290.134 109.874 290.153 109.897 290.176C109.92 290.2 109.939 290.228 109.952 290.258C109.964 290.289 109.971 290.322 109.971 290.355V291.631H113.753V290.355C113.753 290.322 113.759 290.289 113.772 290.258C113.785 290.228 113.803 290.2 113.827 290.176C113.85 290.153 113.878 290.134 113.909 290.122C113.939 290.109 113.972 290.103 114.005 290.103H120.059C120.092 290.103 120.125 290.109 120.156 290.122C120.186 290.134 120.214 290.153 120.238 290.176C120.261 290.2 120.28 290.228 120.292 290.258C120.305 290.289 120.312 290.322 120.312 290.355V291.631H124.098V290.355C124.098 290.322 124.104 290.289 124.117 290.258C124.13 290.228 124.148 290.2 124.172 290.176C124.195 290.153 124.223 290.134 124.254 290.122C124.284 290.109 124.317 290.103 124.35 290.103H130.404C130.438 290.103 130.47 290.109 130.501 290.122C130.532 290.134 130.56 290.153 130.583 290.176C130.606 290.2 130.625 290.228 130.638 290.258C130.65 290.289 130.657 290.322 130.657 290.355V291.631H134.439V290.355C134.439 290.322 134.445 290.289 134.458 290.258C134.471 290.228 134.489 290.2 134.513 290.176C134.536 290.153 134.564 290.134 134.595 290.122C134.625 290.109 134.658 290.103 134.691 290.103H140.745C140.778 290.103 140.811 290.109 140.842 290.122C140.872 290.134 140.9 290.153 140.924 290.176C140.947 290.2 140.966 290.228 140.978 290.258C140.991 290.289 140.998 290.322 140.998 290.355V291.631H144.78V290.355C144.779 290.322 144.786 290.289 144.799 290.258C144.811 290.228 144.83 290.2 144.853 290.176C144.877 290.153 144.905 290.134 144.935 290.122C144.966 290.109 144.999 290.103 145.032 290.103H151.086C151.119 290.103 151.152 290.109 151.183 290.122C151.213 290.134 151.241 290.153 151.264 290.176C151.288 290.2 151.307 290.228 151.319 290.258C151.332 290.289 151.338 290.322 151.338 290.355V291.631H155.125V290.355C155.125 290.322 155.131 290.289 155.144 290.258C155.157 290.228 155.175 290.2 155.199 290.176C155.222 290.153 155.25 290.134 155.281 290.122C155.311 290.109 155.344 290.103 155.377 290.103H161.431C161.464 290.103 161.497 290.109 161.528 290.122C161.558 290.134 161.586 290.153 161.61 290.176C161.633 290.2 161.652 290.228 161.664 290.258C161.677 290.289 161.684 290.322 161.684 290.355V291.631H165.466V290.355C165.465 290.322 165.472 290.289 165.485 290.258C165.497 290.228 165.516 290.2 165.539 290.176C165.563 290.153 165.591 290.134 165.621 290.122C165.652 290.109 165.685 290.103 165.718 290.103H213.139C213.173 290.103 213.205 290.109 213.236 290.122C213.267 290.134 213.295 290.153 213.318 290.176C213.341 290.2 213.36 290.228 213.373 290.258C213.385 290.289 213.392 290.322 213.392 290.355V291.631H217.178V290.355C217.178 290.322 217.185 290.289 217.197 290.258C217.21 290.228 217.229 290.2 217.252 290.176C217.276 290.153 217.303 290.134 217.334 290.122C217.365 290.109 217.398 290.103 217.431 290.103H223.485C223.551 290.103 223.615 290.13 223.662 290.177C223.71 290.224 223.736 290.288 223.737 290.355V291.631H227.519V290.355C227.519 290.322 227.525 290.289 227.538 290.258C227.551 290.228 227.569 290.2 227.593 290.176C227.616 290.153 227.644 290.134 227.675 290.122C227.705 290.109 227.738 290.103 227.771 290.103H233.825C233.859 290.103 233.891 290.109 233.922 290.122C233.953 290.134 233.981 290.153 234.004 290.176C234.027 290.2 234.046 290.228 234.059 290.258C234.071 290.289 234.078 290.322 234.078 290.355V291.631H237.86V290.355C237.86 290.322 237.866 290.289 237.879 290.258C237.892 290.228 237.91 290.2 237.934 290.176C237.957 290.153 237.985 290.134 238.016 290.122C238.046 290.109 238.079 290.103 238.112 290.103H244.166C244.199 290.103 244.232 290.109 244.263 290.122C244.293 290.134 244.321 290.153 244.345 290.176C244.368 290.2 244.387 290.228 244.399 290.258C244.412 290.289 244.419 290.322 244.419 290.355V291.631H248.205V290.355C248.205 290.322 248.212 290.289 248.224 290.258C248.237 290.228 248.255 290.2 248.279 290.176C248.302 290.153 248.33 290.134 248.361 290.122C248.391 290.109 248.424 290.103 248.458 290.103H254.511C254.578 290.103 254.641 290.13 254.687 290.178C254.734 290.225 254.76 290.289 254.759 290.355V291.631H258.546V290.355C258.546 290.322 258.552 290.289 258.565 290.258C258.578 290.228 258.596 290.2 258.62 290.176C258.643 290.153 258.671 290.134 258.702 290.122C258.732 290.109 258.765 290.103 258.798 290.103H264.852C264.885 290.103 264.918 290.109 264.949 290.122C264.979 290.134 265.007 290.153 265.031 290.176C265.054 290.2 265.073 290.228 265.085 290.258C265.098 290.289 265.105 290.322 265.105 290.355V291.631H268.887V290.355C268.886 290.322 268.893 290.289 268.906 290.258C268.918 290.228 268.937 290.2 268.96 290.176C268.984 290.153 269.012 290.134 269.042 290.122C269.073 290.109 269.106 290.103 269.139 290.103H275.193C275.226 290.103 275.259 290.109 275.29 290.122C275.32 290.134 275.348 290.153 275.372 290.176C275.395 290.2 275.414 290.228 275.426 290.258C275.439 290.289 275.445 290.322 275.445 290.355V291.631H293.102C293.897 291.63 294.684 291.787 295.419 292.091C296.154 292.395 296.821 292.841 297.383 293.403C297.946 293.966 298.391 294.633 298.696 295.368C299 296.102 299.156 296.89 299.156 297.685Z" fill="#003554"/>
<path d="M357.689 302.616H27.2719V303.518H357.689V302.616Z" fill="#003554"/>
<path d="M282.948 182.454H207.92V180.907H173.899V182.454H98.562C97.216 182.454 95.9252 182.988 94.9734 183.94C94.0216 184.892 93.4869 186.183 93.4869 187.529V290.265C93.4869 291.611 94.0216 292.902 94.9734 293.854C95.9251 294.806 97.216 295.34 98.562 295.34H282.948C284.294 295.34 285.585 294.806 286.537 293.854C287.488 292.902 288.023 291.611 288.023 290.265V187.529C288.023 186.862 287.892 186.202 287.637 185.586C287.382 184.971 287.008 184.411 286.537 183.94C286.065 183.469 285.506 183.095 284.89 182.84C284.274 182.585 283.614 182.454 282.948 182.454Z" fill="#003554"/>
<path d="M190.903 229.591C197.127 229.591 202.172 224.545 202.172 218.321C202.172 212.097 197.127 207.052 190.903 207.052C184.679 207.052 179.633 212.097 179.633 218.321C179.633 224.545 184.679 229.591 190.903 229.591Z" stroke="#C0E9FE" stroke-width="2" stroke-miterlimit="10"/>
<path d="M187.297 233.648C193.52 233.648 198.566 228.602 198.566 222.378C198.566 216.154 193.52 211.109 187.297 211.109C181.073 211.109 176.027 216.154 176.027 222.378C176.027 228.602 181.073 233.648 187.297 233.648Z" fill="#C0E9FE"/>
<path d="M48.8846 298.062H36.2629V310.683H48.8846V298.062Z" fill="#007cbd"/>
<path d="M41.2233 288.145V303.471H56.5496V288.145H41.2233ZM55.8824 302.804H41.8859V288.812H55.8824V302.804Z" fill="#003554"/>
<path d="M340.986 298.062H328.364V310.683H340.986V298.062Z" fill="#007cbd"/>
<path d="M333.324 288.145V303.471H348.651V288.145H333.324ZM347.984 302.804H333.987V288.812H347.984V302.804Z" fill="#003554"/>
<path d="M67.8836 270.353C68.3042 284.755 59.8891 290.034 49.3283 290.342C49.083 290.349 48.8388 290.354 48.5957 290.355C48.106 290.359 47.621 290.351 47.1407 290.331C37.5896 289.934 30.0293 284.864 29.6381 271.47C29.2333 257.609 46.438 239.599 47.7288 238.267L47.7311 238.266C47.7801 238.215 47.8053 238.19 47.8053 238.19C47.8053 238.19 67.463 255.952 67.8836 270.353Z" fill="#C0E9FE"/>
<path d="M48.5681 288.159L55.2766 278.183L48.5818 289.233L48.5958 290.355C48.106 290.359 47.621 290.351 47.1408 290.331L47.4735 275.901L47.4644 275.789L47.4767 275.768L47.5085 274.404L40.1619 263.738L47.4999 273.384L47.5259 273.672L47.7772 262.769L41.4317 251.711L47.7953 260.854L47.7289 238.267L47.729 238.192L47.7312 238.266L48.1524 256.067L53.9356 248.836L48.1713 257.601L48.2975 267.353L53.6193 257.835L48.3171 268.787L48.3874 274.209L56.1266 260.951L48.4109 276.101L48.5681 288.159Z" fill="#003554"/>
<path d="M359.985 270.353C360.406 284.755 351.99 290.034 341.43 290.342C341.184 290.349 340.94 290.354 340.697 290.355C340.207 290.359 339.722 290.351 339.242 290.331C329.691 289.934 322.131 284.864 321.739 271.47C321.335 257.609 338.539 239.599 339.83 238.267L339.832 238.266C339.881 238.215 339.907 238.19 339.907 238.19C339.907 238.19 359.564 255.952 359.985 270.353Z" fill="#C0E9FE"/>
<path d="M340.669 288.159L347.378 278.183L340.683 289.233L340.697 290.355C340.207 290.359 339.722 290.351 339.242 290.331L339.575 275.901L339.566 275.789L339.578 275.768L339.61 274.404L332.263 263.738L339.601 273.384L339.627 273.672L339.878 262.769L333.533 251.711L339.897 260.854L339.83 238.267L339.83 238.192L339.832 238.266L340.254 256.067L346.037 248.836L340.273 257.601L340.399 267.353L345.72 257.835L340.418 268.787L340.489 274.209L348.228 260.951L340.512 276.101L340.669 288.159Z" fill="#003554"/>
</g>
<defs>
<clipPath id="clip0">
<rect width="360" height="310.683" fill="white"/>
</clipPath>
</defs>
</svg>
