<svg width="360" height="301" viewBox="0 0 360 301" fill="none" xmlns="http://www.w3.org/2000/svg">
<g clip-path="url(#clip0)">
<path d="M292.415 283.926H73.8923L73.9909 260.757C74.2403 202.132 121.033 153.825 179.651 152.828C180.284 152.817 180.918 152.812 181.554 152.812H181.554C194.744 152.802 207.829 155.153 220.191 159.753C261.667 175.2 289.506 214.444 291.358 258.665L292.415 283.926Z" fill="#007cbd"/>
<path d="M360 283.926H0V284.827H360V283.926Z" fill="#2F2E41"/>
<path d="M179.453 180.3L189.082 187.303L198.711 269.585H221.47L213.592 175.923L182.079 163.668L179.453 180.3Z" fill="#2F2E41"/>
<path d="M139.187 154.039C139.187 154.039 136.561 183.801 147.065 184.677C157.57 185.552 197.836 175.923 197.836 175.923L217.093 244.2L245.98 229.319C245.98 229.319 228.473 152.289 217.969 147.912C207.464 143.535 172.451 134.782 172.451 134.782L147.065 139.158L139.187 154.039Z" fill="#2F2E41"/>
<path d="M202.212 267.835C202.212 267.835 196.96 287.968 200.462 289.718C202.568 290.771 204.613 291.94 206.589 293.22V289.718C206.589 289.718 210.966 294.095 210.966 297.596C210.966 301.098 234.6 301.973 234.6 297.596C234.6 293.22 233.725 287.968 229.348 285.342C224.971 282.716 219.719 267.835 219.719 267.835H202.212Z" fill="#2F2E41"/>
<path d="M227.598 231.945L229.348 248.577L235.476 259.081L250.356 242.449L238.977 224.067L227.598 231.945Z" fill="#2F2E41"/>
<path d="M241.603 248.577C241.603 248.577 244.826 237.556 248.029 238.69C251.232 239.823 263.487 251.203 263.487 251.203L272.24 256.455C272.24 256.455 289.747 258.206 284.495 263.458C279.243 268.71 259.985 275.713 251.232 272.211C242.478 268.71 240.728 267.835 240.728 267.835L238.102 269.585L227.597 266.959L229.348 248.577C229.348 248.577 231.974 256.455 241.603 248.577Z" fill="#2F2E41"/>
<path d="M168.949 44.6209C180.068 44.6209 189.082 35.607 189.082 24.4879C189.082 13.3687 180.068 4.35486 168.949 4.35486C157.83 4.35486 148.816 13.3687 148.816 24.4879C148.816 35.607 157.83 44.6209 168.949 44.6209Z" fill="#9F616A"/>
<path d="M156.257 36.305C156.257 36.305 158.007 54.6873 152.755 54.6873C147.503 54.6873 153.631 77.4464 167.636 77.4464C181.642 77.4464 186.894 50.3106 186.894 50.3106C186.894 50.3106 177.265 46.8092 179.016 35.4297C180.766 24.0501 156.257 36.305 156.257 36.305Z" fill="#9F616A"/>
<path d="M154.862 53.2851L147.503 56.438L127.532 64.8873C126.727 65.228 126.053 65.8198 125.612 66.5744C125.17 67.3291 124.985 68.2062 125.082 69.0751L132.622 136.095C132.622 136.095 124.744 152.726 136.999 153.602L138.75 159.729L152.755 143.097L205.276 141.347L206.151 56.438L182.12 46.9419C182.12 46.9419 178.852 65.0131 154.862 53.2851Z" fill="#003554"/>
<path d="M130.434 67.3799L127.199 66.4556C126.836 66.352 126.456 66.3265 126.082 66.3808C125.709 66.4351 125.352 66.568 125.033 66.7706C124.715 66.9733 124.444 67.2412 124.237 67.5565C124.03 67.8719 123.892 68.2275 123.833 68.6L115.249 122.446C114.579 126.433 115.22 130.53 117.076 134.123C119.728 139.145 125.236 143.699 136.561 138.283L144.439 81.3854L130.434 67.3799Z" fill="#003554"/>
<path d="M196.085 55.125L206.589 56.8757L235.476 97.1417L238.102 104.144L254.733 98.8924C254.733 98.8924 253.858 106.771 262.611 105.895C262.611 105.895 252.107 134.782 230.224 126.028C208.34 117.275 201.337 91.0142 201.337 91.0142L196.085 55.125Z" fill="#003554"/>
<path d="M208.34 72.6321L168.949 56.8755L167.199 62.1277L185.581 77.8839L208.34 72.6321Z" fill="#CCCCCC"/>
<path d="M156.827 25.7712C157.571 25.5727 157.68 24.5854 157.705 23.8162C157.839 19.6969 160.319 15.4701 164.262 14.2709C165.775 13.856 167.359 13.7688 168.909 14.0152C171.121 14.3098 173.256 15.0223 175.202 16.1146C176.229 16.692 177.236 17.3874 178.401 17.5638C179.17 17.6802 182.501 18.6487 183.267 18.785C184.952 19.0847 186.517 20.5916 188.133 20.0309C189.679 19.4944 190.022 17.4924 190.059 15.8562C190.144 12.1286 187.314 6.96939 184.822 4.19632C182.93 2.09195 180.082 1.12054 177.298 0.615432C174.046 0.092873 170.75 -0.107621 167.459 0.0168624C163.003 0.0963237 158.425 0.440215 154.407 2.36803C150.389 4.29584 147.015 8.13265 146.822 12.5846C146.782 13.512 146.878 14.4433 146.8 15.3682C146.61 17.6247 145.411 19.6628 144.849 21.8564C144.447 23.4659 144.387 25.1418 144.673 26.776C144.959 28.4101 145.583 29.9663 146.507 31.3441C147.998 33.5384 153.961 35.5304 153.875 38.1819C154.952 37.0654 152.411 35.9415 153.489 34.825C153.971 34.4563 154.313 33.9331 154.457 33.3428C154.601 32.7525 154.538 32.1308 154.278 31.5814L153.134 27.1178C152.924 26.3004 152.718 25.4157 153.035 24.6337C154.261 21.6023 155.588 26.1022 156.827 25.7712Z" fill="#2F2E41"/>
<path d="M167.199 62.1277L150.567 126.903L215.343 149.663L252.983 118.15L276.617 47.2469L238.101 75.258L167.199 62.1277Z" fill="#F2F2F2"/>
<path d="M170.374 69.1451L170.151 69.9913L233.176 86.623L233.399 85.7767L170.374 69.1451Z" fill="#E6E6E6"/>
<path d="M168.623 73.5218L168.4 74.368L231.425 90.9997L231.648 90.1534L168.623 73.5218Z" fill="#E6E6E6"/>
<path d="M167.748 77.8986L167.524 78.7449L230.55 95.3765L230.773 94.5303L167.748 77.8986Z" fill="#E6E6E6"/>
<path d="M166.872 82.2754L166.649 83.1216L229.674 99.7532L229.897 98.907L166.872 82.2754Z" fill="#E6E6E6"/>
<path d="M165.997 86.6521L165.774 87.4983L228.799 104.13L229.022 103.284L165.997 86.6521Z" fill="#E6E6E6"/>
<path d="M165.122 91.0288L164.898 91.875L227.924 108.507L228.147 107.66L165.122 91.0288Z" fill="#E6E6E6"/>
<path d="M164.246 95.4056L164.023 96.2518L227.048 112.883L227.271 112.037L164.246 95.4056Z" fill="#E6E6E6"/>
<path d="M163.371 99.7823L163.148 100.629L226.173 117.26L226.396 116.414L163.371 99.7823Z" fill="#E6E6E6"/>
<path d="M162.496 104.159L162.272 105.005L225.297 121.637L225.521 120.791L162.496 104.159Z" fill="#E6E6E6"/>
<path d="M140.508 109.776C140.508 109.776 160.196 98.0171 168.949 105.895C177.703 113.773 143.564 125.153 143.564 125.153L140.508 109.776Z" fill="#9F616A"/>
<path d="M119.054 115.524L144.439 105.895C144.439 105.895 140.063 122.527 148.816 123.402L136.561 138.283C136.561 138.283 112.051 138.283 119.054 115.524Z" fill="#003554"/>
<path d="M185.855 115.165L219.539 126.518L211.567 143.894L177.883 132.542L185.855 115.165Z" fill="#E6E6E6"/>
<path d="M245.542 78.3218L270.927 59.0638L263.925 82.6986L237.664 101.956L245.542 78.3218Z" fill="#CCCCCC"/>
<path d="M258.408 91.1035L233.022 110.36L233.551 111.058L258.937 91.801L258.408 91.1035Z" fill="#E6E6E6"/>
<path d="M256.657 100.732L231.272 119.989L231.801 120.687L257.186 101.43L256.657 100.732Z" fill="#E6E6E6"/>
<path d="M259.985 106.771C259.985 106.771 281.869 93.6403 267.863 88.3882C253.858 83.1361 253.858 103.269 253.858 103.269C253.858 103.269 252.983 107.646 259.985 106.771Z" fill="#9F616A"/>
<path opacity="0.1" d="M131.747 77.4464L130.871 111.585L144.439 107.713L133.497 108.083L131.747 77.4464Z" fill="#007cbd"/>
<path d="M36.2292 268.487C38.9655 278.602 48.3381 284.867 48.3381 284.867C48.3381 284.867 53.2742 274.732 50.5379 264.616C47.8015 254.501 38.4289 248.237 38.4289 248.237C38.4289 248.237 33.4928 258.372 36.2292 268.487Z" fill="#007cbd"/>
<path d="M40.25 266.313C47.7586 273.623 48.6757 284.859 48.6757 284.859C48.6757 284.859 37.419 284.244 29.9105 276.935C22.4019 269.625 21.4848 258.389 21.4848 258.389C21.4848 258.389 32.7415 259.004 40.25 266.313Z" fill="#003554"/>
<path d="M295.569 170.835H282.053V184.351H295.569V170.835Z" fill="#F2F2F2"/>
<path d="M241.502 17.6431H227.985V31.16H241.502V17.6431Z" fill="#F2F2F2"/>
<path d="M71.6395 154.614C75.3721 154.614 78.398 151.588 78.398 147.856C78.398 144.123 75.3721 141.097 71.6395 141.097C67.907 141.097 64.8811 144.123 64.8811 147.856C64.8811 151.588 67.907 154.614 71.6395 154.614Z" fill="#F2F2F2"/>
</g>
<defs>
<clipPath id="clip0">
<rect width="360" height="300.56" fill="white"/>
</clipPath>
</defs>
</svg>
