<svg width="360" height="349" viewBox="0 0 360 349" fill="none" xmlns="http://www.w3.org/2000/svg">
<g clip-path="url(#clip0)">
<g opacity="0.5">
<path opacity="0.5" d="M53.7723 109.636C83.2586 109.636 107.162 85.7325 107.162 56.2461C107.162 26.7597 83.2586 2.85629 53.7723 2.85629C24.2859 2.85629 0.382446 26.7597 0.382446 56.2461C0.382446 85.7325 24.2859 109.636 53.7723 109.636Z" fill="url(#paint0_linear)"/>
</g>
<path d="M53.7722 108.217C82.6352 108.217 106.033 84.8189 106.033 55.9559C106.033 27.0929 82.6352 3.69476 53.7722 3.69476C24.9092 3.69476 1.51111 27.0929 1.51111 55.9559C1.51111 84.8189 24.9092 108.217 53.7722 108.217Z" fill="#F5F5F5"/>
<path d="M53.9196 108.364C64.1322 108.381 74.1237 105.391 82.6485 99.7678C80.7228 89.2456 73.3932 88.6421 73.3932 88.6421H32.9857C32.9857 88.6421 26.0753 89.2087 23.91 98.8925C32.6955 105.072 43.1785 108.381 53.9196 108.364Z" fill="#007cbd"/>
<path d="M53.3713 77.9724C66.1668 77.9724 76.5396 67.5996 76.5396 54.8041C76.5396 42.0086 66.1668 31.6358 53.3713 31.6358C40.5758 31.6358 30.203 42.0086 30.203 54.8041C30.203 67.5996 40.5758 77.9724 53.3713 77.9724Z" fill="#333333"/>
<path opacity="0.1" d="M45.231 75.8164H61.3967V88.7481C61.3967 90.8912 60.5454 92.9465 59.03 94.4619C57.5146 95.9773 55.4592 96.8286 53.3161 96.8286C51.173 96.8286 49.1177 95.9773 47.6023 94.4619C46.0869 92.9465 45.2356 90.8912 45.2356 88.7481V75.8164H45.231Z" fill="black"/>
<path d="M46.7743 75.2175H59.8534C60.2627 75.2175 60.6553 75.3801 60.9447 75.6695C61.2341 75.9589 61.3967 76.3515 61.3967 76.7608V88.1492C61.3967 90.2923 60.5454 92.3476 59.03 93.863C57.5146 95.3784 55.4593 96.2297 53.3162 96.2297C51.1731 96.2297 49.1177 95.3784 47.6023 93.863C46.0869 92.3476 45.2356 90.2923 45.2356 88.1492V76.7608C45.2356 76.3523 45.3976 75.9604 45.686 75.6711C45.9744 75.3818 46.3658 75.2187 46.7743 75.2175Z" fill="#BE7C5E"/>
<path opacity="0.1" d="M45.2632 81.9206C50.473 83.8678 56.2081 83.8841 61.4289 81.9667V79.9811H45.2632V81.9206Z" fill="black"/>
<path d="M53.3713 83.0032C66.1668 83.0032 76.5396 72.6304 76.5396 59.8349C76.5396 47.0394 66.1668 36.6666 53.3713 36.6666C40.5758 36.6666 30.203 47.0394 30.203 59.8349C30.203 72.6304 40.5758 83.0032 53.3713 83.0032Z" fill="#BE7C5E"/>
<path d="M39.334 50.2801C39.6058 49.2804 39.9467 48.1794 40.8451 47.6588C41.5546 47.2442 42.4345 47.3087 43.2545 47.3501C49.6582 47.7003 56.0065 46.2399 62.2351 44.715C65.7963 43.8442 69.6062 42.7847 71.9097 39.9145C74.2131 37.0444 71.2094 28.024 67.7035 26.9598C65.4001 26.255 62.7281 27.5679 60.5444 26.536C59.5723 26.0753 58.8582 25.2138 58.0198 24.5412C56.3014 23.1591 54.0947 22.6016 51.957 22.0765C49.4601 21.4591 46.7604 20.8556 44.3878 21.8461C42.5451 22.6109 41.1998 24.2279 39.4538 25.1861C36.1322 27.0289 32.0827 26.172 28.2774 26.1628C26.992 26.1628 25.4579 26.4208 24.9466 27.6002C24.601 28.4018 24.8774 29.314 24.9143 30.1847C25.0249 32.9488 22.7444 35.1003 20.8326 37.0951C18.9207 39.0899 17.1148 41.937 18.3218 44.4155C18.7825 45.3599 19.6255 46.074 20.1047 47.0092C20.9293 48.6309 20.5147 50.5888 20.8141 52.3809C21.114 53.7407 21.6221 55.0461 22.3206 56.2507C23.7395 59.0149 30.8665 73.8953 34.142 70.113C35.7268 68.2702 35.9848 62.9446 36.6251 60.549C37.5097 57.1061 38.4126 53.6831 39.334 50.2801Z" fill="#333333"/>
<path d="M36.8877 63.0321C38.0785 63.0321 39.0438 61.2232 39.0438 58.9918C39.0438 56.7605 38.0785 54.9516 36.8877 54.9516C35.697 54.9516 34.7317 56.7605 34.7317 58.9918C34.7317 61.2232 35.697 63.0321 36.8877 63.0321Z" fill="#BE7C5E"/>
<g opacity="0.5">
<path opacity="0.5" d="M177.404 225.837C206.89 225.837 230.794 201.933 230.794 172.447C230.794 142.961 206.89 119.057 177.404 119.057C147.918 119.057 124.014 142.961 124.014 172.447C124.014 201.933 147.918 225.837 177.404 225.837Z" fill="url(#paint1_linear)"/>
</g>
<path d="M177.505 224.367C206.368 224.367 229.767 200.969 229.767 172.106C229.767 143.243 206.368 119.845 177.505 119.845C148.642 119.845 125.244 143.243 125.244 172.106C125.244 200.969 148.642 224.367 177.505 224.367Z" fill="#F5F5F5"/>
<path d="M177.551 224.574C187.758 224.588 197.742 221.598 206.262 215.978C204.336 205.456 197.006 204.852 197.006 204.852H156.613C156.613 204.852 149.702 205.419 147.537 215.103C156.324 221.283 166.809 224.592 177.551 224.574Z" fill="#007cbd"/>
<path d="M176.999 196.233C190.931 196.233 202.226 184.938 202.226 171.005C202.226 157.072 190.931 145.777 176.999 145.777C163.066 145.777 151.771 157.072 151.771 171.005C151.771 184.938 163.066 196.233 176.999 196.233Z" fill="#F55F44"/>
<path opacity="0.1" d="M168.858 192.017H185.024V204.949C185.024 207.092 184.173 209.147 182.657 210.663C181.142 212.178 179.086 213.029 176.943 213.029C174.8 213.029 172.745 212.178 171.23 210.663C169.714 209.147 168.863 207.092 168.863 204.949V192.017H168.858Z" fill="black"/>
<path d="M170.401 191.418H183.48C183.683 191.418 183.884 191.458 184.071 191.536C184.258 191.613 184.428 191.727 184.572 191.87C184.715 192.014 184.829 192.184 184.906 192.371C184.984 192.558 185.024 192.759 185.024 192.962V204.35C185.024 205.411 184.815 206.462 184.409 207.442C184.003 208.423 183.407 209.313 182.657 210.064C181.907 210.814 181.016 211.409 180.036 211.815C179.055 212.222 178.004 212.431 176.943 212.431C175.882 212.431 174.831 212.222 173.851 211.815C172.871 211.409 171.98 210.814 171.229 210.064C170.479 209.313 169.884 208.423 169.478 207.442C169.072 206.462 168.863 205.411 168.863 204.35V192.962C168.863 192.552 169.025 192.16 169.315 191.87C169.604 191.581 169.997 191.418 170.406 191.418H170.401Z" fill="#FDA57D"/>
<path opacity="0.1" d="M168.89 198.121C174.1 200.069 179.835 200.085 185.056 198.167V196.182H168.89V198.121Z" fill="black"/>
<path d="M176.999 199.204C189.794 199.204 200.167 188.831 200.167 176.036C200.167 163.24 189.794 152.867 176.999 152.867C164.203 152.867 153.83 163.24 153.83 176.036C153.83 188.831 164.203 199.204 176.999 199.204Z" fill="#FDA57D"/>
<path d="M176.966 154.669C182.116 154.669 186.291 150.494 186.291 145.344C186.291 140.195 182.116 136.02 176.966 136.02C171.817 136.02 167.642 140.195 167.642 145.344C167.642 150.494 171.817 154.669 176.966 154.669Z" fill="#F55F44"/>
<path d="M176.966 142.285C180.348 142.285 183.089 139.544 183.089 136.163C183.089 132.781 180.348 130.04 176.966 130.04C173.585 130.04 170.844 132.781 170.844 136.163C170.844 139.544 173.585 142.285 176.966 142.285Z" fill="#F55F44"/>
<path d="M172.921 150.458C170.734 149.477 169.008 147.69 168.103 145.47C167.198 143.25 167.183 140.766 168.061 138.535C167.997 138.664 167.932 138.798 167.872 138.931C167.371 140.049 167.095 141.254 167.059 142.478C167.024 143.702 167.23 144.922 167.666 146.066C168.101 147.211 168.758 148.258 169.599 149.149C170.439 150.04 171.447 150.756 172.564 151.257C173.682 151.759 174.887 152.035 176.111 152.07C177.335 152.106 178.555 151.9 179.699 151.464C180.844 151.028 181.891 150.371 182.782 149.531C183.673 148.69 184.389 147.683 184.89 146.565C184.95 146.432 185.005 146.298 185.061 146.16C183.978 148.3 182.113 149.941 179.852 150.741C177.592 151.542 175.109 151.44 172.921 150.458Z" fill="#F55F44"/>
<path opacity="0.1" d="M160.501 154.964C160.501 154.964 170.263 174.773 197.817 163.256L191.404 153.199L180.039 149.117L160.501 154.964Z" fill="black"/>
<path d="M160.501 154.669C160.501 154.669 170.263 174.479 197.817 162.961L191.404 152.904L180.039 148.823L160.501 154.669Z" fill="#F55F44"/>
<path d="M168.024 147.454C174.032 146.982 180.067 146.982 186.074 147.454C186.074 147.454 172.742 148.694 168.024 147.454Z" fill="#333333"/>
<path d="M178.367 129.667C177.904 129.65 177.44 129.685 176.985 129.773H177.339C178.847 129.821 180.284 130.425 181.374 131.468C182.464 132.511 183.13 133.92 183.244 135.424C183.359 136.929 182.913 138.422 181.993 139.618C181.073 140.814 179.744 141.627 178.261 141.903C179.883 141.918 181.445 141.287 182.603 140.15C183.761 139.013 184.42 137.463 184.434 135.84C184.449 134.218 183.818 132.656 182.681 131.498C181.544 130.34 179.994 129.682 178.371 129.667H178.367Z" fill="#F55F44"/>
<path d="M153.826 180.053C155.016 180.053 155.982 178.244 155.982 176.013C155.982 173.781 155.016 171.972 153.826 171.972C152.635 171.972 151.67 173.781 151.67 176.013C151.67 178.244 152.635 180.053 153.826 180.053Z" fill="#FDA57D"/>
<path d="M200.167 180.053C201.358 180.053 202.323 178.244 202.323 176.013C202.323 173.781 201.358 171.972 200.167 171.972C198.976 171.972 198.011 173.781 198.011 176.013C198.011 178.244 198.976 180.053 200.167 180.053Z" fill="#FDA57D"/>
<path d="M159.041 155.254L163.56 152.923L164.578 156.659L161.81 158.543L159.041 155.254Z" fill="#F55F44"/>
<g opacity="0.5">
<path opacity="0.5" d="M177.353 107.015C206.84 107.015 230.743 83.1111 230.743 53.6248C230.743 24.1384 206.84 0.234947 177.353 0.234947C147.867 0.234947 123.964 24.1384 123.964 53.6248C123.964 83.1111 147.867 107.015 177.353 107.015Z" fill="url(#paint2_linear)"/>
</g>
<path d="M177.353 105.596C206.216 105.596 229.614 82.1975 229.614 53.3345C229.614 24.4715 206.216 1.07341 177.353 1.07341C148.49 1.07341 125.092 24.4715 125.092 53.3345C125.092 82.1975 148.49 105.596 177.353 105.596Z" fill="#F5F5F5"/>
<path d="M156.968 53.7998C156.968 53.7998 151.043 82.9894 147.809 81.3723C147.809 81.3723 178.998 108.314 206.538 81.3723C206.538 81.3723 201.687 60.8024 194.685 53.7998H156.968Z" fill="#333333"/>
<path d="M177.501 105.752C187.713 105.769 197.705 102.779 206.23 97.1557C204.304 86.6335 196.974 86.03 196.974 86.03H156.562C156.562 86.03 149.652 86.5966 147.487 96.2804C156.273 102.461 166.758 105.77 177.501 105.752Z" fill="#007cbd"/>
<path d="M176.948 75.3511C189.743 75.3511 200.116 64.9783 200.116 52.1828C200.116 39.3873 189.743 29.0145 176.948 29.0145C164.152 29.0145 153.78 39.3873 153.78 52.1828C153.78 64.9783 164.152 75.3511 176.948 75.3511Z" fill="#333333"/>
<path opacity="0.1" d="M168.807 73.195H184.973V86.1267C184.973 88.2674 184.124 90.3207 182.611 91.8357C181.099 93.3507 179.047 94.2036 176.906 94.2073C174.763 94.2073 172.708 93.3559 171.193 91.8405C169.677 90.3251 168.826 88.2698 168.826 86.1267V73.195H168.807Z" fill="black"/>
<path d="M170.351 72.5961H183.43C183.839 72.5961 184.232 72.7587 184.521 73.0482C184.811 73.3376 184.973 73.7301 184.973 74.1395V85.5278C184.973 87.6685 184.124 89.7218 182.611 91.2368C181.099 92.7518 179.047 93.6047 176.906 93.6084C174.763 93.6084 172.708 92.757 171.193 91.2416C169.677 89.7262 168.826 87.6709 168.826 85.5278V74.1348C168.827 73.7295 168.988 73.3409 169.273 73.053C169.558 72.7651 169.946 72.601 170.351 72.5961Z" fill="#BE7C5E"/>
<path opacity="0.1" d="M168.84 79.2992C174.05 81.2464 179.785 81.2628 185.005 79.3453V77.3597H168.84V79.2992Z" fill="black"/>
<path d="M176.948 80.3773C189.743 80.3773 200.116 70.0045 200.116 57.209C200.116 44.4135 189.743 34.0407 176.948 34.0407C164.152 34.0407 153.78 44.4135 153.78 57.209C153.78 70.0045 164.152 80.3773 176.948 80.3773Z" fill="#BE7C5E"/>
<path d="M154.802 48.4097H198.983C198.983 48.4097 195.21 30.5716 178.51 31.7095C161.81 32.8475 154.802 48.4097 154.802 48.4097Z" fill="#333333"/>
<path d="M154.259 60.2633C155.449 60.2633 156.415 58.4545 156.415 56.2231C156.415 53.9917 155.449 52.1828 154.259 52.1828C153.068 52.1828 152.103 53.9917 152.103 56.2231C152.103 58.4545 153.068 60.2633 154.259 60.2633Z" fill="#BE7C5E"/>
<path d="M199.517 60.2633C200.708 60.2633 201.673 58.4545 201.673 56.2231C201.673 53.9917 200.708 52.1828 199.517 52.1828C198.326 52.1828 197.361 53.9917 197.361 56.2231C197.361 58.4545 198.326 60.2633 199.517 60.2633Z" fill="#BE7C5E"/>
<path opacity="0.1" d="M154.802 49.0086H198.983C198.983 49.0086 195.21 31.1706 178.51 32.3085C161.81 33.4464 154.802 49.0086 154.802 49.0086Z" fill="black"/>
<g opacity="0.5">
<path opacity="0.5" d="M304.625 106.78C334.111 106.78 358.014 82.8762 358.014 53.3898C358.014 23.9034 334.111 0 304.625 0C275.138 0 251.235 23.9034 251.235 53.3898C251.235 82.8762 275.138 106.78 304.625 106.78Z" fill="url(#paint3_linear)"/>
</g>
<path d="M304.726 105.305C333.589 105.305 356.987 81.9073 356.987 53.0443C356.987 24.1813 333.589 0.783173 304.726 0.783173C275.863 0.783173 252.465 24.1813 252.465 53.0443C252.465 81.9073 275.863 105.305 304.726 105.305Z" fill="#F5F5F5"/>
<path d="M304.772 105.517C314.985 105.534 324.976 102.544 333.501 96.9208C331.571 86.3939 324.246 85.7904 324.246 85.7904H283.838C283.838 85.7904 276.928 86.3571 274.762 96.0409C283.547 102.222 294.03 105.533 304.772 105.517Z" fill="#007cbd"/>
<path d="M304.224 77.1708C318.157 77.1708 329.451 65.8761 329.451 51.9432C329.451 38.0104 318.157 26.7156 304.224 26.7156C290.291 26.7156 278.996 38.0104 278.996 51.9432C278.996 65.8761 290.291 77.1708 304.224 77.1708Z" fill="#72351C"/>
<path opacity="0.1" d="M296.079 72.9555H312.244V85.8872C312.246 86.9495 312.039 88.0017 311.633 88.9837C311.228 89.9657 310.633 90.8581 309.883 91.6099C309.132 92.3617 308.241 92.9582 307.259 93.3651C306.278 93.7721 305.226 93.9816 304.164 93.9816C302.021 93.9816 299.965 93.1302 298.45 91.6148C296.935 90.0994 296.083 88.0441 296.083 85.901V72.9555H296.079Z" fill="black"/>
<path d="M297.608 72.3566H310.687C311.097 72.3566 311.489 72.5192 311.779 72.8086C312.068 73.098 312.231 73.4906 312.231 73.8999V85.2883C312.231 87.4314 311.379 89.4867 309.864 91.0021C308.349 92.5175 306.293 93.3688 304.15 93.3688C302.007 93.3688 299.952 92.5175 298.436 91.0021C296.921 89.4867 296.07 87.4314 296.07 85.2883V73.8999C296.07 73.4906 296.232 73.098 296.522 72.8086C296.811 72.5192 297.204 72.3566 297.613 72.3566H297.608Z" fill="#FDA57D"/>
<path opacity="0.1" d="M296.097 79.0597C301.307 81.0069 307.042 81.0232 312.263 79.1057V77.1201H296.097V79.0597Z" fill="black"/>
<path d="M304.224 80.1423C317.019 80.1423 327.392 69.7695 327.392 56.974C327.392 44.1785 317.019 33.8057 304.224 33.8057C291.428 33.8057 281.055 44.1785 281.055 56.974C281.055 69.7695 291.428 80.1423 304.224 80.1423Z" fill="#FDA57D"/>
<path opacity="0.1" d="M287.722 35.9019C287.722 35.9019 297.484 55.7117 325.038 44.1944L318.625 34.1374L307.26 30.0557L287.722 35.9019Z" fill="black"/>
<path d="M287.722 35.6116C287.722 35.6116 297.484 55.4215 325.038 43.9041L318.625 33.8472L307.26 29.7654L287.722 35.6116Z" fill="#72351C"/>
<path d="M287.634 34.271C288.292 32.2333 289.43 30.3833 290.951 28.8763C295.507 24.3707 302.98 23.4217 306.813 18.2803C307.021 18.6442 307.151 19.0477 307.193 19.4648C307.236 19.8818 307.191 20.3032 307.061 20.7017C306.93 21.1002 306.718 21.467 306.437 21.7784C306.157 22.0898 305.814 22.3388 305.431 22.5095C309.116 22.4865 313.359 22.164 315.432 19.1418C315.946 20.3361 316.109 21.6514 315.905 22.935C315.7 24.2186 315.135 25.4177 314.276 26.3932C317.529 26.5406 321.002 28.7473 321.214 31.9998C321.352 34.1651 319.998 36.2151 318.215 37.459C316.432 38.7029 314.285 39.2603 312.166 39.721C305.984 41.1031 283.599 46.8203 287.634 34.271Z" fill="#72351C"/>
<path d="M327.392 57.1767H326.779L314.829 67.8234C303.312 62.4332 294.863 67.8234 294.863 67.8234L282.332 57.6236L281.069 57.7802C281.24 63.8612 283.796 69.6309 288.185 73.8436C292.573 78.0562 298.443 80.3738 304.526 80.2957C310.608 80.2177 316.417 77.7504 320.696 73.4265C324.975 69.1027 327.382 63.2693 327.397 57.1859L327.392 57.1767ZM304.192 71.8959C299.686 71.8959 296.033 70.9745 296.033 69.855C296.033 68.7355 299.686 67.8141 304.192 67.8141C308.697 67.8141 312.35 68.7355 312.35 69.855C312.35 70.9745 308.697 71.8959 304.187 71.8959H304.192Z" fill="#72351C"/>
<path d="M281.046 60.9913C282.237 60.9913 283.202 59.1824 283.202 56.951C283.202 54.7196 282.237 52.9107 281.046 52.9107C279.856 52.9107 278.89 54.7196 278.89 56.951C278.89 59.1824 279.856 60.9913 281.046 60.9913Z" fill="#FDA57D"/>
<path d="M327.387 60.9913C328.578 60.9913 329.544 59.1824 329.544 56.951C329.544 54.7196 328.578 52.9107 327.387 52.9107C326.197 52.9107 325.231 54.7196 325.231 56.951C325.231 59.1824 326.197 60.9913 327.387 60.9913Z" fill="#FDA57D"/>
<g opacity="0.5">
<path opacity="0.5" d="M53.3898 222.34C82.8762 222.34 106.78 198.437 106.78 168.95C106.78 139.464 82.8762 115.56 53.3898 115.56C23.9034 115.56 0 139.464 0 168.95C0 198.437 23.9034 222.34 53.3898 222.34Z" fill="url(#paint4_linear)"/>
</g>
<path d="M53.4911 220.87C82.3541 220.87 105.752 197.472 105.752 168.609C105.752 139.746 82.3541 116.348 53.4911 116.348C24.6281 116.348 1.22998 139.746 1.22998 168.609C1.22998 197.472 24.6281 220.87 53.4911 220.87Z" fill="#F5F5F5"/>
<path d="M53.5372 221.078C63.7481 221.094 73.738 218.104 82.2614 212.481C80.3357 201.959 73.0061 201.355 73.0061 201.355H32.5802C32.5802 201.355 25.6698 201.922 23.5045 211.606C32.2964 217.79 42.7881 221.099 53.5372 221.078Z" fill="#007cbd"/>
<path d="M52.9844 192.736C66.9172 192.736 78.212 181.441 78.212 167.508C78.212 153.575 66.9172 142.281 52.9844 142.281C39.0516 142.281 27.7568 153.575 27.7568 167.508C27.7568 181.441 39.0516 192.736 52.9844 192.736Z" fill="#333333"/>
<path opacity="0.1" d="M44.844 188.521H61.0097V201.452C61.0097 203.595 60.1584 205.651 58.643 207.166C57.1276 208.681 55.0723 209.533 52.9292 209.533C50.7861 209.533 48.7307 208.681 47.2153 207.166C45.6999 205.651 44.8486 203.595 44.8486 201.452V188.521H44.844Z" fill="black"/>
<path d="M46.3873 187.922H59.4664C59.8757 187.922 60.2683 188.084 60.5577 188.374C60.8471 188.663 61.0097 189.056 61.0097 189.465V200.863C61.0097 203.006 60.1584 205.061 58.643 206.576C57.1276 208.092 55.0723 208.943 52.9292 208.943C51.8676 208.944 50.8164 208.735 49.8355 208.329C48.8545 207.924 47.9632 207.328 47.2124 206.578C46.4615 205.828 45.8659 204.937 45.4595 203.956C45.0532 202.975 44.844 201.924 44.844 200.863V189.46C44.844 189.051 45.0066 188.659 45.296 188.369C45.5855 188.08 45.978 187.917 46.3873 187.917V187.922Z" fill="#FDB797"/>
<path opacity="0.1" d="M44.8762 194.625C50.0861 196.572 55.8211 196.588 61.042 194.671V192.671H44.8762V194.625Z" fill="black"/>
<path d="M52.9845 195.707C65.7799 195.707 76.1527 185.335 76.1527 172.539C76.1527 159.744 65.7799 149.371 52.9845 149.371C40.189 149.371 29.8162 159.744 29.8162 172.539C29.8162 185.335 40.189 195.707 52.9845 195.707Z" fill="#FDB797"/>
<path opacity="0.1" d="M36.4869 151.462C36.4869 151.462 46.249 171.272 73.8031 159.755L67.3903 149.698L56.025 145.616L36.4869 151.462Z" fill="black"/>
<path d="M36.4869 151.172C36.4869 151.172 46.249 170.982 73.8031 159.465L67.3903 149.408L56.025 145.326L36.4869 151.172Z" fill="#333333"/>
<path d="M36.3994 149.827C37.0576 147.789 38.1951 145.939 39.7164 144.432C44.2727 139.927 51.7451 138.978 55.5781 133.836C55.7864 134.2 55.916 134.604 55.9587 135.021C56.0014 135.438 55.9562 135.859 55.8259 136.258C55.6957 136.656 55.4834 137.023 55.2026 137.334C54.9219 137.646 54.579 137.895 54.196 138.065C57.8816 138.042 62.1246 137.72 64.1977 134.698C64.7108 135.892 64.8745 137.207 64.6698 138.491C64.4651 139.774 63.9004 140.974 63.0413 141.949C66.2938 142.096 69.7675 144.303 69.9794 147.556C70.1176 149.721 68.7632 151.771 66.9803 153.015C65.1974 154.259 63.046 154.825 60.9268 155.295C54.7443 156.668 32.3637 162.385 36.3994 149.827Z" fill="#333333"/>
<path d="M29.8069 176.556C30.9977 176.556 31.963 174.747 31.963 172.516C31.963 170.285 30.9977 168.476 29.8069 168.476C28.6162 168.476 27.6509 170.285 27.6509 172.516C27.6509 174.747 28.6162 176.556 29.8069 176.556Z" fill="#FDB797"/>
<path d="M76.1481 176.556C77.3389 176.556 78.3042 174.747 78.3042 172.516C78.3042 170.285 77.3389 168.476 76.1481 168.476C74.9574 168.476 73.9921 170.285 73.9921 172.516C73.9921 174.747 74.9574 176.556 76.1481 176.556Z" fill="#FDB797"/>
<g opacity="0.5">
<path opacity="0.5" d="M306.615 228.26C336.101 228.26 360.005 204.357 360.005 174.87C360.005 145.384 336.101 121.48 306.615 121.48C277.128 121.48 253.225 145.384 253.225 174.87C253.225 204.357 277.128 228.26 306.615 228.26Z" fill="url(#paint5_linear)"/>
</g>
<path d="M306.615 226.841C335.478 226.841 358.876 203.443 358.876 174.58C358.876 145.717 335.478 122.319 306.615 122.319C277.752 122.319 254.354 145.717 254.354 174.58C254.354 203.443 277.752 226.841 306.615 226.841Z" fill="#F5F5F5"/>
<path d="M306.762 226.998C316.975 227.015 326.966 224.025 335.491 218.401C333.565 207.879 326.236 207.275 326.236 207.275H285.824C285.824 207.275 278.913 207.842 276.748 217.526C285.535 223.706 296.02 227.015 306.762 226.998Z" fill="#007cbd"/>
<path opacity="0.1" d="M298.069 194.44H314.235V207.372C314.235 209.515 313.383 211.571 311.868 213.086C310.352 214.601 308.297 215.453 306.154 215.453C305.092 215.453 304.041 215.245 303.06 214.839C302.079 214.433 301.188 213.838 300.437 213.088C299.686 212.337 299.091 211.446 298.684 210.465C298.278 209.485 298.069 208.434 298.069 207.372V194.44Z" fill="black"/>
<path d="M299.612 193.842H312.691C313.101 193.842 313.493 194.004 313.783 194.294C314.072 194.583 314.235 194.976 314.235 195.385V206.773C314.235 208.916 313.383 210.972 311.868 212.487C310.352 214.002 308.297 214.854 306.154 214.854C305.092 214.854 304.041 214.646 303.06 214.24C302.079 213.834 301.188 213.239 300.437 212.489C299.686 211.738 299.091 210.847 298.684 209.867C298.278 208.886 298.069 207.835 298.069 206.773V195.385C298.069 194.976 298.231 194.583 298.521 194.294C298.81 194.004 299.203 193.842 299.612 193.842Z" fill="#FDB797"/>
<path opacity="0.1" d="M298.101 200.545C303.311 202.492 309.046 202.508 314.267 200.591V198.605H298.101V200.545Z" fill="black"/>
<path d="M306.209 201.627C319.005 201.627 329.378 191.254 329.378 178.459C329.378 165.664 319.005 155.291 306.209 155.291C293.414 155.291 283.041 165.664 283.041 178.459C283.041 191.254 293.414 201.627 306.209 201.627Z" fill="#FDB797"/>
<path d="M283.52 181.509C284.711 181.509 285.676 179.7 285.676 177.469C285.676 175.237 284.711 173.428 283.52 173.428C282.329 173.428 281.364 175.237 281.364 177.469C281.364 179.7 282.329 181.509 283.52 181.509Z" fill="#FDB797"/>
<path d="M328.779 181.509C329.97 181.509 330.935 179.7 330.935 177.469C330.935 175.237 329.97 173.428 328.779 173.428C327.588 173.428 326.623 175.237 326.623 177.469C326.623 179.7 327.588 181.509 328.779 181.509Z" fill="#FDB797"/>
<path d="M299.999 178.57H294.098C292.991 178.57 292.094 179.467 292.094 180.574V181.523C292.094 182.629 292.991 183.527 294.098 183.527H299.999C301.106 183.527 302.003 182.629 302.003 181.523V180.574C302.003 179.467 301.106 178.57 299.999 178.57Z" stroke="#333333" stroke-width="2" stroke-miterlimit="10"/>
<path d="M312.424 183.522H318.326C319.432 183.522 320.33 182.625 320.33 181.518V180.569C320.33 179.462 319.432 178.565 318.326 178.565H312.424C311.317 178.565 310.42 179.462 310.42 180.569V181.518C310.42 182.625 311.317 183.522 312.424 183.522Z" stroke="#333333" stroke-width="2" stroke-miterlimit="10"/>
<path d="M301.625 179.049C301.625 179.049 304.767 177.344 310.609 179.049" stroke="#333333" stroke-width="2" stroke-miterlimit="10"/>
<path d="M322.228 161.667L327.913 174.875C327.913 174.875 334.865 166.112 322.228 161.667Z" fill="#858585"/>
<path d="M320.33 181.048L328.816 173.47" stroke="#333333" stroke-width="2" stroke-linecap="round" stroke-linejoin="round"/>
<path d="M290.2 161.667L284.515 174.875C284.515 174.875 277.563 166.112 290.2 161.667Z" fill="#858585"/>
<path d="M292.094 181.048L283.493 173.47" stroke="#333333" stroke-width="2" stroke-linecap="round" stroke-linejoin="round"/>
<g opacity="0.5">
<path opacity="0.5" d="M53.7723 342.365C83.2586 342.365 107.162 318.461 107.162 288.975C107.162 259.488 83.2586 235.585 53.7723 235.585C24.2859 235.585 0.382446 259.488 0.382446 288.975C0.382446 318.461 24.2859 342.365 53.7723 342.365Z" fill="url(#paint6_linear)"/>
</g>
<path d="M53.7722 340.946C82.6352 340.946 106.033 317.548 106.033 288.685C106.033 259.822 82.6352 236.423 53.7722 236.423C24.9092 236.423 1.51111 259.822 1.51111 288.685C1.51111 317.548 24.9092 340.946 53.7722 340.946Z" fill="#F5F5F5"/>
<path d="M82.6808 293.384C82.6808 312.631 70.1223 334.058 54.6291 334.058C39.136 334.058 26.5913 312.631 26.5913 293.384C26.5913 274.136 39.1498 264.36 54.643 264.36C70.1361 264.36 82.6808 274.14 82.6808 293.384Z" fill="#FDD835"/>
<path d="M53.9196 341.107C64.1322 341.124 74.1237 338.134 82.6485 332.51C80.7228 321.988 73.3932 321.385 73.3932 321.385H32.9857C32.9857 321.385 26.0753 321.951 23.91 331.635C32.6955 337.815 43.1785 341.123 53.9196 341.107Z" fill="#007cbd"/>
<path opacity="0.1" d="M45.231 308.545H61.3967V321.477C61.3967 323.62 60.5454 325.675 59.03 327.191C57.5146 328.706 55.4592 329.557 53.3161 329.557C51.173 329.557 49.1177 328.706 47.6023 327.191C46.0869 325.675 45.2356 323.62 45.2356 321.477V308.545H45.231Z" fill="black"/>
<path d="M46.7743 307.946H59.8534C60.2627 307.946 60.6553 308.109 60.9447 308.398C61.2341 308.688 61.3967 309.08 61.3967 309.49V320.878C61.3967 323.021 60.5454 325.076 59.03 326.592C57.5146 328.107 55.4593 328.958 53.3162 328.958C51.1731 328.958 49.1177 328.107 47.6023 326.592C46.0869 325.076 45.2356 323.021 45.2356 320.878V309.49C45.2356 309.081 45.3976 308.689 45.686 308.4C45.9744 308.111 46.3658 307.947 46.7743 307.946Z" fill="#FDB797"/>
<path opacity="0.1" d="M45.2632 314.649C50.473 316.596 56.2081 316.613 61.4289 314.695V312.71H45.2632V314.649Z" fill="black"/>
<path d="M53.3713 315.732C66.1668 315.732 76.5396 305.359 76.5396 292.564C76.5396 279.768 66.1668 269.395 53.3713 269.395C40.5758 269.395 30.203 279.768 30.203 292.564C30.203 305.359 40.5758 315.732 53.3713 315.732Z" fill="#FDB797"/>
<path d="M30.6822 295.613C31.8729 295.613 32.8382 293.805 32.8382 291.573C32.8382 289.342 31.8729 287.533 30.6822 287.533C29.4914 287.533 28.5261 289.342 28.5261 291.573C28.5261 293.805 29.4914 295.613 30.6822 295.613Z" fill="#FDB797"/>
<path d="M75.9407 295.613C77.1315 295.613 78.0968 293.805 78.0968 291.573C78.0968 289.342 77.1315 287.533 75.9407 287.533C74.75 287.533 73.7847 289.342 73.7847 291.573C73.7847 293.805 74.75 295.613 75.9407 295.613Z" fill="#FDB797"/>
<path opacity="0.1" d="M32.8429 279.996C32.8429 279.996 45.9404 297.921 75.9777 291.799C75.9777 291.799 79.3315 287.717 71.168 275.186C63.0045 262.655 40.2739 264.696 32.8429 279.996Z" fill="black"/>
<path d="M32.8429 279.706C32.8429 279.706 45.9404 297.631 75.9777 291.509C75.9777 291.509 79.3315 287.427 71.168 274.896C63.0045 262.365 40.2739 264.406 32.8429 279.706Z" fill="#FDD835"/>
<g opacity="0.5">
<path opacity="0.5" d="M180.606 348.487C210.092 348.487 233.996 324.584 233.996 295.097C233.996 265.611 210.092 241.708 180.606 241.708C151.119 241.708 127.216 265.611 127.216 295.097C127.216 324.584 151.119 348.487 180.606 348.487Z" fill="url(#paint7_linear)"/>
</g>
<path d="M180.712 347.018C209.575 347.018 232.973 323.62 232.973 294.757C232.973 265.894 209.575 242.495 180.712 242.495C151.849 242.495 128.451 265.894 128.451 294.757C128.451 323.62 151.849 347.018 180.712 347.018Z" fill="#F5F5F5"/>
<path d="M209.464 299.907C209.464 317.294 196.974 325.849 180.753 325.849C164.532 325.849 150.734 317.294 150.734 299.907C150.734 282.521 163.883 268.428 180.099 268.428C196.315 268.428 209.464 282.507 209.464 299.907Z" fill="#333333"/>
<path d="M180.753 347.225C190.967 347.243 200.961 344.253 209.487 338.628C207.561 328.106 200.231 327.503 200.231 327.503H159.819C159.819 327.503 152.909 328.069 150.744 337.753C159.529 343.933 170.012 347.242 180.753 347.225Z" fill="#007cbd"/>
<path opacity="0.1" d="M172.065 314.654H188.23V327.586C188.232 328.649 188.024 329.703 187.617 330.686C187.211 331.67 186.614 332.563 185.862 333.315C185.11 334.067 184.216 334.663 183.233 335.069C182.249 335.475 181.195 335.682 180.131 335.68C177.988 335.68 175.933 334.829 174.418 333.313C172.902 331.798 172.051 329.742 172.051 327.599V314.654H172.065Z" fill="black"/>
<path d="M173.603 314.069H186.682C187.092 314.069 187.484 314.231 187.774 314.521C188.063 314.81 188.226 315.203 188.226 315.612V327.001C188.226 328.063 188.016 329.115 187.609 330.096C187.202 331.077 186.606 331.969 185.854 332.719C185.102 333.47 184.21 334.065 183.228 334.47C182.246 334.875 181.194 335.083 180.131 335.081C177.988 335.081 175.933 334.23 174.418 332.714C172.902 331.199 172.051 329.144 172.051 327.001V315.608C172.051 315.198 172.213 314.806 172.503 314.516C172.792 314.227 173.185 314.064 173.594 314.064L173.603 314.069Z" fill="#FDA57D"/>
<path opacity="0.1" d="M172.097 320.772C177.307 322.719 183.042 322.735 188.263 320.818V318.832H172.097V320.772Z" fill="black"/>
<path d="M180.205 321.85C193.001 321.85 203.373 311.477 203.373 298.682C203.373 285.886 193.001 275.513 180.205 275.513C167.41 275.513 157.037 285.886 157.037 298.682C157.037 311.477 167.41 321.85 180.205 321.85Z" fill="#FDA57D"/>
<path opacity="0.1" d="M153.503 300.197C153.503 300.197 167.932 298.447 178.841 284.46C178.841 284.46 193.27 300.345 203.323 298.594C203.323 298.594 209.15 292.471 203.323 286.353C197.495 280.235 192.975 272.51 185.254 273.528C177.533 274.546 168.056 274.984 163.979 278.628C159.902 282.272 153.503 300.197 153.503 300.197Z" fill="black"/>
<path d="M153.503 299.907C153.503 299.907 167.932 298.156 178.841 284.17C178.841 284.17 193.27 300.054 203.323 298.304C203.323 298.304 209.15 292.181 203.323 286.063C197.495 279.945 192.975 272.219 185.254 273.238C177.533 274.256 168.075 274.675 163.998 278.36C159.921 282.046 153.503 299.907 153.503 299.907Z" fill="#333333"/>
<path d="M157.028 302.704C158.218 302.704 159.184 300.895 159.184 298.663C159.184 296.432 158.218 294.623 157.028 294.623C155.837 294.623 154.871 296.432 154.871 298.663C154.871 300.895 155.837 302.704 157.028 302.704Z" fill="#FDA57D"/>
<path d="M203.369 302.704C204.559 302.704 205.525 300.895 205.525 298.663C205.525 296.432 204.559 294.623 203.369 294.623C202.178 294.623 201.213 296.432 201.213 298.663C201.213 300.895 202.178 302.704 203.369 302.704Z" fill="#FDA57D"/>
</g>
<defs>
<linearGradient id="paint0_linear" x1="53.7723" y1="109.636" x2="53.7723" y2="2.8609" gradientUnits="userSpaceOnUse">
<stop stop-color="#808080" stop-opacity="0.25"/>
<stop offset="0.54" stop-color="#808080" stop-opacity="0.12"/>
<stop offset="1" stop-color="#808080" stop-opacity="0.1"/>
</linearGradient>
<linearGradient id="paint1_linear" x1="41242.7" y1="52463.5" x2="41242.7" y2="27715.2" gradientUnits="userSpaceOnUse">
<stop stop-color="#808080" stop-opacity="0.25"/>
<stop offset="0.54" stop-color="#808080" stop-opacity="0.12"/>
<stop offset="1" stop-color="#808080" stop-opacity="0.1"/>
</linearGradient>
<linearGradient id="paint2_linear" x1="41230.9" y1="24804.1" x2="41230.9" y2="54.6926" gradientUnits="userSpaceOnUse">
<stop stop-color="#808080" stop-opacity="0.25"/>
<stop offset="0.54" stop-color="#808080" stop-opacity="0.12"/>
<stop offset="1" stop-color="#808080" stop-opacity="0.1"/>
</linearGradient>
<linearGradient id="paint3_linear" x1="70857.1" y1="24748.3" x2="70857.1" y2="0" gradientUnits="userSpaceOnUse">
<stop stop-color="#808080" stop-opacity="0.25"/>
<stop offset="0.54" stop-color="#808080" stop-opacity="0.12"/>
<stop offset="1" stop-color="#808080" stop-opacity="0.1"/>
</linearGradient>
<linearGradient id="paint4_linear" x1="12374.7" y1="51649.5" x2="12374.7" y2="26901.2" gradientUnits="userSpaceOnUse">
<stop stop-color="#808080" stop-opacity="0.25"/>
<stop offset="0.54" stop-color="#808080" stop-opacity="0.12"/>
<stop offset="1" stop-color="#808080" stop-opacity="0.1"/>
</linearGradient>
<linearGradient id="paint5_linear" x1="71320.4" y1="53027.6" x2="71320.4" y2="28279.3" gradientUnits="userSpaceOnUse">
<stop stop-color="#808080" stop-opacity="0.25"/>
<stop offset="0.54" stop-color="#808080" stop-opacity="0.12"/>
<stop offset="1" stop-color="#808080" stop-opacity="0.1"/>
</linearGradient>
<linearGradient id="paint6_linear" x1="12463.7" y1="79588.9" x2="12463.7" y2="54840.6" gradientUnits="userSpaceOnUse">
<stop stop-color="#808080" stop-opacity="0.25"/>
<stop offset="0.54" stop-color="#808080" stop-opacity="0.12"/>
<stop offset="1" stop-color="#808080" stop-opacity="0.1"/>
</linearGradient>
<linearGradient id="paint7_linear" x1="41988" y1="81014.1" x2="41988" y2="56265.8" gradientUnits="userSpaceOnUse">
<stop stop-color="#808080" stop-opacity="0.25"/>
<stop offset="0.54" stop-color="#808080" stop-opacity="0.12"/>
<stop offset="1" stop-color="#808080" stop-opacity="0.1"/>
</linearGradient>
<clipPath id="clip0">
<rect width="360" height="348.487" fill="white"/>
</clipPath>
</defs>
</svg>
