<svg width="360" height="265" viewBox="0 0 360 265" fill="none" xmlns="http://www.w3.org/2000/svg">
<g clip-path="url(#clip0)">
<path opacity="0.1" d="M26.0352 106.057C33.611 123.168 23.945 142.877 12.585 157.735C8.77534 162.707 4.5876 167.913 4.05323 174.173C3.41707 181.807 8.58631 188.826 14.7225 193.414C25.908 201.775 41.1903 204.359 54.5024 200.143C66.0078 196.507 75.681 188.266 87.2845 184.944C106.704 179.386 127.272 188.601 143.888 200.077C155.648 208.198 168.244 218.071 182.421 216.337C192.403 215.116 200.873 208.111 206.617 199.859C209.39 195.86 211.804 191.415 215.847 188.724C218.249 187.125 221.07 186.278 223.895 185.675C249.668 180.167 277.016 193.61 302.448 186.696C319.624 182.025 333.321 168.447 341.835 152.82C350.349 137.192 354.325 119.54 357.637 102.051C359.989 89.622 361.941 76.2118 356.547 64.7755C350.825 52.6776 337.582 45.3454 324.273 43.9749C310.965 42.6044 297.613 46.4032 285.351 51.7615C270.029 58.4611 255.012 67.8399 238.287 67.8726C226.898 67.8945 216.039 63.5104 205.148 60.1915C186.907 54.6187 168.004 51.8487 149.126 49.2932C131.063 46.8467 112.825 44.5675 94.653 46.0215C81.7954 47.043 70.4427 51.9578 57.9667 54.2298C49.8348 55.7129 41.6629 54.5933 33.6837 57.1052C23.8686 60.177 13.7483 67.3056 13.2066 78.5201C12.6941 89.1821 22.0147 96.9723 26.0352 106.057Z" fill="#007cbd"/>
<g opacity="0.5">
<path opacity="0.5" d="M253.696 66.5824C251.879 67.1058 249.621 68.4581 248.516 72.1697C246.335 79.44 251.381 84.413 249.727 91.9632C249.274 93.9707 248.408 95.8614 247.182 97.5142C245.157 100.259 242.954 101.56 240.824 103.483C238.116 105.939 236.176 109.125 235.237 112.658C234.207 116.558 234.121 120.646 234.986 124.585C235.746 127.879 237.04 130.275 238.167 132.946C239.57 136.356 240.665 139.884 241.438 143.488C241.868 145.24 242.112 147.033 242.165 148.836C242.202 151.101 241.849 153.562 241.504 155.99L238.425 177.477C238.014 180.338 237.6 183.246 237.585 185.969C237.563 189.114 238.068 191.815 238.57 194.45C239.661 200.136 240.813 206.035 243.296 209.035C245.779 212.034 249.988 210.994 252.58 204.872C255.045 199.056 255.096 191.277 257.27 185.053C260.694 175.238 267.506 173.93 271.283 164.576C274.918 155.605 273.799 144.583 275.645 134.36C276.961 127.028 279.764 120.34 281.425 113.095C283.814 102.658 283.577 91.8251 281.669 83.8059C279.76 75.7867 276.336 70.2794 272.556 66.1025C270.952 64.3322 269.24 62.7581 267.226 62.6018C265.085 62.4382 263.228 65.1465 261.101 65.9426C258.636 66.8623 256.179 65.8771 253.696 66.5824Z" fill="#007cbd"/>
<path opacity="0.5" d="M265.289 63.1108C265.289 63.1108 261.654 155.91 246.411 210.634" stroke="#535461" stroke-width="2" stroke-miterlimit="10"/>
<path opacity="0.5" d="M248.421 72.624C248.421 72.624 264.7 87.4592 261.628 115.726" stroke="#535461" stroke-width="2" stroke-miterlimit="10"/>
<path opacity="0.5" d="M234.746 114.836C234.746 114.836 261.501 120.216 259.516 136.218" stroke="#535461" stroke-width="2" stroke-miterlimit="10"/>
<path opacity="0.5" d="M281.702 83.584C281.702 83.584 270.88 93.0609 261.232 119.903" stroke="#535461" stroke-width="2" stroke-miterlimit="10"/>
<path opacity="0.5" d="M271.12 164.71C271.12 164.71 263.733 170.527 257.804 150.239" stroke="#535461" stroke-width="2" stroke-miterlimit="10"/>
<path opacity="0.5" d="M239.254 176.543C239.254 176.543 254.318 174.577 255.706 165.14" stroke="#535461" stroke-width="2" stroke-miterlimit="10"/>
</g>
<path d="M290.11 4.34068C286.38 4.89323 281.894 6.61995 280.051 11.9528C276.434 22.4076 287.434 30.3214 284.901 41.2451C284.141 44.5168 282.269 47.1777 280.295 49.1189C276.427 52.9213 272.025 54.5717 267.844 57.1527C263.664 59.7337 259.323 63.7833 257.364 70.0031C255.477 75.9866 256.295 82.599 258.255 87.5392C260.214 92.4795 263.18 96.1619 265.83 100.226C269.057 105.229 271.756 110.554 273.882 116.115C274.831 118.562 275.7 121.143 276.009 124.073C276.351 127.414 275.918 131.009 275.489 134.528L271.665 165.79C271.156 169.953 270.643 174.188 270.938 178.197C271.269 182.825 272.635 186.86 273.984 190.8C276.892 199.299 280.004 208.129 285.482 212.837C290.96 217.544 299.569 216.516 304.2 207.806C308.609 199.514 307.799 188.081 311.557 179.175C317.483 165.14 331.424 164.005 338.131 150.682C344.569 137.901 340.966 121.55 343.551 106.697C345.405 96.0529 350.418 86.5396 353.002 76.0666C356.71 60.9769 354.94 45.0003 350.032 32.9642C345.125 20.928 337.389 12.4108 329.072 5.81293C325.546 3.01747 321.801 0.491019 317.628 0.0257144C313.179 -0.468671 309.631 3.27557 305.345 4.21709C300.365 5.33309 295.166 3.59183 290.11 4.34068Z" fill="#007cbd"/>
<path d="M313.688 0.596191C313.688 0.596191 317.196 136.829 292.109 215.607" stroke="#535461" stroke-width="2" stroke-miterlimit="10"/>
<path d="M279.906 12.6069C279.906 12.6069 315.393 36.3883 312.354 77.6477" stroke="#535461" stroke-width="2" stroke-miterlimit="10"/>
<path d="M256.612 73.1509C256.612 73.1509 312.623 84.2455 310.412 107.572" stroke="#535461" stroke-width="2" stroke-miterlimit="10"/>
<path d="M350.083 32.6948C350.083 32.6948 328.796 45.3671 312.026 83.751" stroke="#535461" stroke-width="2" stroke-miterlimit="10"/>
<path d="M337.804 150.908C337.804 150.908 323.205 158.592 308.529 128.006" stroke="#535461" stroke-width="2" stroke-miterlimit="10"/>
<path d="M273.232 164.558C273.232 164.558 304.178 163.445 305.948 149.719" stroke="#535461" stroke-width="2" stroke-miterlimit="10"/>
<path opacity="0.1" d="M177.474 227.486C263.335 227.486 332.94 220.8 332.94 212.553C332.94 204.306 263.335 197.62 177.474 197.62C91.612 197.62 22.0074 204.306 22.0074 212.553C22.0074 220.8 91.612 227.486 177.474 227.486Z" fill="#007cbd"/>
<path d="M24.4466 194.777C24.4466 194.777 27.4929 198.776 23.0398 204.774C18.5867 210.772 14.9152 215.868 16.4165 219.616C16.4165 219.616 23.1343 208.445 28.6017 208.289C34.069 208.133 30.4629 201.495 24.4466 194.777Z" fill="#007cbd"/>
<path opacity="0.1" d="M24.4467 194.777C24.7121 195.162 24.9214 195.583 25.0683 196.027C30.4047 202.294 33.2438 208.143 28.1182 208.292C23.3416 208.431 17.6125 216.97 16.2384 219.129C16.2837 219.295 16.3384 219.459 16.402 219.62C16.402 219.62 23.1198 208.449 28.5871 208.292C34.0545 208.136 30.4629 201.495 24.4467 194.777Z" fill="black"/>
<path d="M30.1103 199.856C30.1103 201.259 29.954 202.4 29.7468 202.4C29.5396 202.4 29.3832 201.262 29.3832 199.856C29.3832 198.449 29.5795 199.129 29.7722 199.129C29.9649 199.129 30.1103 198.452 30.1103 199.856Z" fill="#FFD037"/>
<path d="M32.0478 201.528C30.8155 202.2 29.7431 202.618 29.6522 202.433C29.5613 202.248 30.481 201.579 31.7134 200.91C32.9457 200.241 32.4586 200.728 32.5531 200.91C32.6476 201.092 33.2838 200.852 32.0478 201.528Z" fill="#FFD037"/>
<path d="M8.35366 194.777C8.35366 194.777 5.30738 198.776 9.76048 204.774C14.2136 210.772 17.8706 215.868 16.4165 219.616C16.4165 219.616 9.69868 208.445 4.23136 208.289C-1.23596 208.133 2.34106 201.495 8.35366 194.777Z" fill="#007cbd"/>
<path opacity="0.1" d="M8.35367 194.777C8.08822 195.162 7.87891 195.583 7.73206 196.027C2.3956 202.294 -0.443482 208.143 4.68213 208.292C9.45877 208.431 15.1878 216.97 16.5619 219.129C16.5166 219.295 16.462 219.459 16.3983 219.62C16.3983 219.62 9.68052 208.449 4.21319 208.292C-1.25413 208.136 2.34107 201.495 8.35367 194.777Z" fill="black"/>
<path d="M2.69366 199.856C2.69366 201.259 2.84998 202.4 3.05718 202.4C3.26439 202.4 3.4207 201.262 3.4207 199.856C3.4207 198.449 3.2244 199.129 3.03174 199.129C2.83907 199.129 2.69366 198.452 2.69366 199.856Z" fill="#FFD037"/>
<path d="M0.748853 201.528C1.98118 202.2 3.05356 202.618 3.14444 202.433C3.23532 202.248 2.31562 201.579 1.08329 200.91C-0.14904 200.241 0.338077 200.728 0.243562 200.91C0.149047 201.092 -0.483476 200.852 0.748853 201.528Z" fill="#FFD037"/>
<path d="M3.66064 219.097C3.66064 219.097 12.1779 218.835 14.7443 217.006C17.3108 215.178 27.831 213.008 28.4817 215.916C29.1324 218.824 41.2812 230.497 31.6661 230.573C22.0511 230.649 9.32427 229.075 6.76146 227.516C4.19865 225.956 3.66064 219.097 3.66064 219.097Z" fill="#A8A8A8"/>
<path opacity="0.2" d="M31.8406 229.569C22.2255 229.646 9.49875 228.072 6.93595 226.512C4.98385 225.323 4.20592 221.059 3.94782 219.093H3.66428C3.66428 219.093 4.20228 225.963 6.76509 227.523C9.3279 229.082 22.0547 230.66 31.6843 230.584C34.4616 230.562 35.4177 229.573 35.3668 228.112C34.956 228.995 33.9054 229.548 31.8406 229.569Z" fill="black"/>
<path d="M114.519 163.929C114.519 163.929 157.142 136.697 186.609 136.697C186.609 136.697 222.085 131.172 260.672 140.511C299.26 149.849 313.513 161.958 324.212 158.403L279.266 159.719L114.519 163.929Z" fill="#A2DFFF"/>
<path opacity="0.1" d="M114.519 163.929C114.519 163.929 157.142 136.697 186.609 136.697C186.609 136.697 222.085 131.172 260.672 140.511C299.26 149.849 313.513 161.958 324.212 158.403L279.266 159.719L114.519 163.929Z" fill="#A2DFFF"/>
<path d="M315.418 205.606H55.473L62.6198 176.972L106.824 165.219L315.418 170.701V205.606Z" fill="#121C3F"/>
<path d="M329.101 187.714V196.853C329.101 196.853 321.383 202.451 320.682 206.835C320.682 206.835 309.631 209.642 306.475 209.642C306.188 209.642 305.876 209.642 305.548 209.674C306.041 208.352 306.427 206.991 306.701 205.607C307.475 201.721 307.377 197.712 306.415 193.868C305.454 190.025 303.651 186.442 301.138 183.379C298.625 180.316 295.464 177.849 291.882 176.154C288.301 174.46 284.388 173.581 280.426 173.581C276.464 173.581 272.551 174.46 268.969 176.154C265.388 177.849 262.227 180.316 259.713 183.379C257.2 186.442 255.398 190.025 254.436 193.868C253.474 197.712 253.377 201.721 254.151 205.607C254.523 207.48 255.094 209.308 255.855 211.059H240.871C240.871 211.059 240.733 211.107 240.508 211.205C239.704 211.568 237.81 212.528 237.538 214.037H113.356L110.811 214.015C111.352 213.107 111.838 212.167 112.266 211.201C113.063 209.411 113.656 207.537 114.032 205.614C114.771 201.941 114.733 198.155 113.919 194.498C113.105 190.841 111.534 187.396 109.307 184.383C107.08 181.371 104.246 178.859 100.989 177.009C97.7316 175.159 94.1226 174.011 90.3948 173.641C86.667 173.271 82.903 173.687 79.3454 174.86C75.7879 176.034 72.5158 177.94 69.74 180.456C66.9642 182.971 64.7464 186.041 63.2295 189.466C61.7126 192.891 60.9303 196.597 60.933 200.343C60.9329 202.109 61.1058 203.871 61.4492 205.603C62.0351 208.536 63.109 211.35 64.6264 213.927C62.8524 213.495 58.9809 212.266 58.9809 212.266C58.9809 212.266 42.4953 210.514 38.2858 206.813L38.922 206.374L41.6193 204.53L40.3906 199.805C40.2423 199.605 40.1201 199.388 40.0271 199.158C39.6999 198.369 39.4127 196.904 40.5687 195.064C42.3209 192.258 41.4448 182.261 41.4448 182.261C41.4448 182.261 65.2989 165.776 112.306 162.09C112.306 162.09 113.429 162.962 115.748 163.144C117.318 163.271 119.438 163.078 122.131 162.09C122.131 162.09 125.988 163.842 142.488 154.372C142.488 154.372 170.556 135.077 207.391 136.836C207.391 136.836 245.277 134.553 277.55 147.015C291.458 152.38 302.041 155.241 309.584 156.753C316.549 158.153 320.922 158.411 322.925 158.433H322.968C323.623 158.433 324.012 158.433 324.15 158.433H324.208C324.208 158.433 324.208 162.61 324.43 167.542V167.568C324.51 169.284 324.619 171.09 324.771 172.846V172.955C325.193 177.845 325.92 182.287 327.181 183.166L329.101 187.714Z" fill="#003554"/>
<path d="M45.2363 181.861C45.2363 181.861 55.8038 173.616 68.9595 175.372C68.9595 175.372 56.9888 184.846 51.5942 184.231L50.6745 183.442L45.2217 183.748C45.2217 183.748 44.4075 182.475 45.2363 181.861Z" fill="#A2DFFF"/>
<path opacity="0.2" d="M55.4948 196.125V200.993C55.4948 200.993 55.1313 205.642 50.9326 205.817L38.9365 206.409L41.6302 204.566L40.4015 199.841C40.2525 199.643 40.1303 199.427 40.038 199.197C41.1285 198.194 43.6986 196.5 48.926 196.136L55.4948 196.125Z" fill="white"/>
<path opacity="0.2" d="M111.317 175.725L120.525 175.361C120.525 175.361 116.799 178.299 114.167 178.564C111.535 178.829 111.317 175.725 111.317 175.725Z" fill="white"/>
<path opacity="0.2" d="M130.7 203.658C130.7 203.658 213.971 192.08 234.099 195.762C234.099 195.762 240.017 196.159 242.256 198.525C244.495 200.892 242.256 199.357 242.256 199.357L130.7 203.658Z" fill="white"/>
<path opacity="0.5" d="M177.314 171.163C177.314 171.163 178.368 169.189 180.076 169.145L191.171 168.575C191.171 168.575 190.996 170.109 189.023 170.679L177.314 171.163Z" fill="#003554"/>
<path opacity="0.5" d="M241.511 167.829C241.511 167.829 242.565 165.855 244.274 165.812L255.368 165.227C255.368 165.227 255.194 166.761 253.22 167.331L241.511 167.829Z" fill="#003554"/>
<path d="M203.629 140.784L195.115 163.111L164.42 163.144H156.517H149.643H143.699H136.967C136.967 163.144 141.067 160.134 147.672 156.299C149.853 155.026 152.329 153.667 155.015 152.3C157.487 151.035 160.148 149.755 162.944 148.541C165.125 147.582 167.422 146.658 169.771 145.797C180.418 141.903 192.385 139.29 203.629 140.784Z" fill="#A2DFFF"/>
<path d="M251.86 157.087C251.86 157.087 239.035 158.988 226.796 160.395C222.117 160.933 217.526 161.399 213.767 161.657L213.244 161.693C211.79 161.788 210.441 161.849 209.296 161.871C207.478 161.904 206.119 161.824 205.439 161.606L208.976 140.249C208.976 140.249 213.338 140.296 219.791 140.613L221.201 140.689C222.543 140.765 223.957 140.852 225.433 140.954C227.541 141.1 229.762 141.274 232.052 141.485C243.111 142.499 255.637 144.32 263.569 147.599C280.448 154.586 251.86 157.087 251.86 157.087Z" fill="#A2DFFF"/>
<path d="M310.969 167.83V173.53C310.969 173.53 301.761 173.66 303.735 171.821C305.012 170.6 306.172 169.261 307.199 167.822L310.969 167.83Z" fill="#A2DFFF"/>
<path d="M324.764 172.948L317.286 173.533V166.681C317.286 166.681 320.751 161.813 324.215 167.208L324.415 167.524L324.764 172.948Z" fill="#A2DFFF"/>
<path d="M87.7498 221.743C99.5689 221.743 109.15 212.162 109.15 200.343C109.15 188.524 99.5689 178.942 87.7498 178.942C75.9307 178.942 66.3495 188.524 66.3495 200.343C66.3495 212.162 75.9307 221.743 87.7498 221.743Z" fill="black"/>
<path d="M104.915 200.325C104.923 204.741 103.234 208.991 100.198 212.197C97.1618 215.404 93.01 217.322 88.6002 217.554C84.1905 217.787 79.8597 216.318 76.5026 213.449C73.1454 210.58 71.0184 206.532 70.5608 202.139C70.1033 197.747 71.3503 193.347 74.0441 189.848C76.738 186.349 80.6729 184.018 85.036 183.337C89.3991 182.656 93.857 183.677 97.4889 186.189C101.121 188.701 103.649 192.512 104.552 196.835C104.791 197.983 104.913 199.152 104.915 200.325Z" fill="#D0D2D5"/>
<path opacity="0.5" d="M87.7244 215.112C95.8735 215.112 102.48 208.49 102.48 200.32C102.48 192.151 95.8735 185.529 87.7244 185.529C79.5753 185.529 72.9691 192.151 72.9691 200.32C72.9691 208.49 79.5753 215.112 87.7244 215.112Z" fill="#003554"/>
<path d="M92.6609 183.81V184.435L87.7498 200.695L83.8093 183.541C86.733 182.859 89.784 182.952 92.6609 183.81V183.81Z" fill="#D0D2D5"/>
<path d="M92.6246 216.846C89.8117 217.679 86.8328 217.782 83.9692 217.145L87.7462 200.695L92.6246 216.846Z" fill="#D0D2D5"/>
<path d="M104.915 200.325C104.918 202.118 104.64 203.902 104.094 205.61H104.025L87.7643 200.699L104.581 196.838C104.809 197.986 104.922 199.154 104.915 200.325Z" fill="#D0D2D5"/>
<path d="M87.7498 200.695L71.4896 205.606H71.3624C70.4568 202.767 70.2953 199.743 70.8934 196.824L87.7498 200.695Z" fill="#D0D2D5"/>
<path d="M87.7244 202.207C88.7663 202.207 89.611 201.363 89.611 200.321C89.611 199.279 88.7663 198.434 87.7244 198.434C86.6824 198.434 85.8377 199.279 85.8377 200.321C85.8377 201.363 86.6824 202.207 87.7244 202.207Z" fill="black"/>
<path d="M280.295 221.743C292.114 221.743 301.695 212.162 301.695 200.343C301.695 188.524 292.114 178.942 280.295 178.942C268.476 178.942 258.895 188.524 258.895 200.343C258.895 212.162 268.476 221.743 280.295 221.743Z" fill="black"/>
<path d="M297.464 200.325C297.472 204.741 295.783 208.991 292.747 212.197C289.711 215.404 285.559 217.322 281.149 217.554C276.739 217.787 272.408 216.318 269.051 213.449C265.694 210.58 263.567 206.532 263.11 202.139C262.652 197.747 263.899 193.347 266.593 189.848C269.287 186.349 273.222 184.018 277.585 183.337C281.948 182.656 286.406 183.677 290.038 186.189C293.669 188.701 296.198 192.512 297.1 196.835C297.34 197.983 297.462 199.152 297.464 200.325Z" fill="#D0D2D5"/>
<path opacity="0.5" d="M280.273 215.112C288.422 215.112 295.028 208.49 295.028 200.32C295.028 192.151 288.422 185.529 280.273 185.529C272.124 185.529 265.518 192.151 265.518 200.32C265.518 208.49 272.124 215.112 280.273 215.112Z" fill="#003554"/>
<path d="M285.206 183.81V184.435L280.295 200.695L276.354 183.541C279.278 182.859 282.329 182.952 285.206 183.81V183.81Z" fill="#D0D2D5"/>
<path d="M285.173 216.846C282.36 217.679 279.381 217.782 276.518 217.145L280.295 200.695L285.173 216.846Z" fill="#D0D2D5"/>
<path d="M297.464 200.324C297.466 202.118 297.189 203.901 296.642 205.61H296.559L280.295 200.695L297.111 196.834C297.346 197.983 297.464 199.152 297.464 200.324V200.324Z" fill="#D0D2D5"/>
<path d="M280.295 200.695L264.035 205.606H263.907C263.002 202.767 262.84 199.743 263.438 196.824L280.295 200.695Z" fill="#D0D2D5"/>
<path d="M280.273 202.207C281.315 202.207 282.16 201.363 282.16 200.321C282.16 199.279 281.315 198.434 280.273 198.434C279.231 198.434 278.386 199.279 278.386 200.321C278.386 201.363 279.231 202.207 280.273 202.207Z" fill="black"/>
<path opacity="0.2" d="M155.019 152.322L149.643 163.158H143.699L147.672 156.32C149.864 155.048 152.333 153.692 155.019 152.322Z" fill="white"/>
<path opacity="0.2" d="M169.771 145.818L164.416 163.147H156.513L162.947 148.556C165.143 147.603 167.426 146.687 169.771 145.818Z" fill="white"/>
<path opacity="0.2" d="M225.44 140.972L213.775 161.66L213.251 161.697C211.797 161.791 210.448 161.853 209.303 161.875L219.798 140.634L221.208 140.711C222.532 140.783 223.957 140.871 225.44 140.972Z" fill="white"/>
<path opacity="0.2" d="M137.17 163.085L130.511 208.958L186.133 207.74L195.264 163.285L137.17 163.085Z" stroke="white" stroke-miterlimit="10"/>
<path opacity="0.5" d="M240.511 211.19C239.708 211.553 237.814 212.513 237.541 214.021H113.356L110.811 214C111.352 213.092 111.838 212.152 112.266 211.186L240.511 211.19Z" fill="#003554"/>
<path d="M133.146 244.339C133.993 243.551 134.789 242.62 135.036 241.489C135.284 240.359 134.8 238.999 133.717 238.581C132.506 238.116 131.208 238.945 130.227 239.806C129.245 240.668 128.119 241.624 126.835 241.442C127.496 240.843 127.991 240.082 128.27 239.235C128.55 238.388 128.605 237.482 128.431 236.607C128.375 236.246 128.222 235.907 127.988 235.626C127.315 234.899 126.094 235.215 125.29 235.782C122.746 237.6 122.019 241.064 122.001 244.198C121.742 243.067 121.961 241.889 121.953 240.73C121.946 239.57 121.63 238.287 120.652 237.662C120.043 237.334 119.358 237.174 118.667 237.196C117.515 237.153 116.232 237.269 115.446 238.112C114.468 239.159 114.719 240.915 115.574 242.067C116.428 243.22 117.718 243.943 118.907 244.739C119.861 245.308 120.675 246.085 121.288 247.011C121.361 247.141 121.42 247.277 121.466 247.418H128.686C130.304 246.598 131.805 245.562 133.146 244.339V244.339Z" fill="#007cbd"/>
<path d="M201.548 252.811C202.11 252.294 202.638 251.685 202.802 250.945C202.965 250.205 202.645 249.314 201.927 249.041C201.124 248.736 200.263 249.279 199.612 249.843C198.962 250.407 198.214 251.033 197.363 250.914C197.802 250.521 198.13 250.024 198.315 249.469C198.5 248.914 198.537 248.321 198.422 247.748C198.384 247.512 198.283 247.29 198.128 247.106C197.682 246.63 196.872 246.837 196.339 247.208C194.652 248.398 194.17 250.666 194.158 252.718C193.986 251.978 194.131 251.207 194.126 250.447C194.121 249.688 193.912 248.848 193.263 248.439C192.859 248.224 192.405 248.119 191.947 248.134C191.183 248.105 190.332 248.182 189.812 248.734C189.163 249.419 189.329 250.569 189.896 251.323C190.462 252.078 191.318 252.551 192.106 253.072C192.739 253.445 193.279 253.953 193.685 254.56C193.733 254.645 193.773 254.734 193.803 254.827H198.59C199.664 254.289 200.659 253.611 201.548 252.811V252.811Z" fill="#007cbd"/>
<path d="M284.039 250.454C284.705 249.91 285.191 249.178 285.431 248.352C285.613 247.516 285.257 246.517 284.457 246.211C283.563 245.87 282.607 246.488 281.883 247.116C281.16 247.745 280.328 248.458 279.379 248.323C279.866 247.881 280.231 247.32 280.438 246.696C280.644 246.071 280.685 245.403 280.557 244.757C280.516 244.49 280.402 244.238 280.229 244.03C279.731 243.499 278.834 243.728 278.237 244.147C276.347 245.477 275.82 248.043 275.809 250.355C275.62 249.523 275.78 248.654 275.773 247.811C275.765 246.967 275.533 245.993 274.813 245.55C274.367 245.31 273.865 245.191 273.359 245.204C272.508 245.172 271.563 245.259 270.982 245.881C270.254 246.651 270.447 247.949 271.076 248.789C271.705 249.628 272.657 250.17 273.537 250.759C274.242 251.178 274.844 251.751 275.296 252.435C275.35 252.53 275.394 252.629 275.427 252.733H280.753C281.946 252.125 283.052 251.358 284.039 250.454V250.454Z" fill="#007cbd"/>
<path d="M307.668 262.017C308.334 261.474 308.82 260.741 309.06 259.916C309.242 259.08 308.886 258.08 308.086 257.775C307.192 257.433 306.236 258.051 305.512 258.68C304.789 259.309 303.956 260.021 303.008 259.887C303.495 259.445 303.86 258.884 304.066 258.259C304.273 257.634 304.314 256.966 304.185 256.321C304.144 256.053 304.031 255.802 303.858 255.594C303.36 255.063 302.462 255.292 301.866 255.71C299.976 257.04 299.449 259.607 299.438 261.919C299.249 261.086 299.409 260.218 299.401 259.374C299.394 258.531 299.161 257.557 298.442 257.113C297.995 256.873 297.494 256.754 296.988 256.768C296.137 256.735 295.192 256.822 294.61 257.444C293.883 258.215 294.076 259.512 294.705 260.352C295.334 261.192 296.286 261.734 297.166 262.322C297.871 262.742 298.472 263.314 298.925 263.998C298.978 264.093 299.022 264.193 299.056 264.296H304.382C305.575 263.688 306.68 262.922 307.668 262.017Z" fill="#007cbd"/>
<path opacity="0.1" d="M188.488 191.887H188.361C188.361 191.887 192.541 190.76 188.488 191.887Z" fill="black"/>
<path opacity="0.1" d="M223.048 212.938V213.556C223 213.353 223 213.142 223.048 212.938V212.938Z" fill="black"/>
</g>
<defs>
<clipPath id="clip0">
<rect width="360" height="264.289" fill="white"/>
</clipPath>
</defs>
</svg>
