<svg width="360" height="194" viewBox="0 0 360 194" fill="none" xmlns="http://www.w3.org/2000/svg">
<g clip-path="url(#clip0)">
<path d="M224.044 66.517C223.636 59.3093 220.682 52.4806 215.708 47.2484C210.734 42.0162 204.063 38.7207 196.885 37.9493C189.707 37.178 182.489 38.981 176.516 43.0369C170.544 47.0928 166.206 53.138 164.277 60.0946C163.908 60.0813 163.539 60.0665 163.167 60.0665C156.585 60.0677 150.181 62.1998 144.913 66.1437C139.644 70.0877 135.794 75.6315 133.939 81.9458C129.578 80.0296 124.704 79.6139 120.082 80.7637C115.459 81.9136 111.349 84.564 108.393 88.3H203.415C215.09 88.3 224.542 78.6306 224.066 66.9663C224.059 66.8168 224.052 66.667 224.044 66.517Z" fill="#E6E6E6"/>
<path d="M0.0387861 28.7402C0.44643 21.5324 3.40069 14.7037 8.37484 9.47152C13.349 4.23934 20.0197 0.943805 27.1977 0.172474C34.3756 -0.598857 41.5942 1.20416 47.5665 5.26006C53.5387 9.31596 57.8764 15.3611 59.8061 22.3177C60.1751 22.3045 60.5439 22.2896 60.9161 22.2896C67.4974 22.2908 73.9014 24.4229 79.17 28.3669C84.4386 32.3108 88.2886 37.8546 90.1441 44.169C94.5051 42.2528 99.3784 41.8371 104.001 42.9869C108.624 44.1367 112.734 46.7871 115.689 50.5231H20.6673C8.99327 50.5231 -0.458828 40.8538 0.0172279 29.1895C0.0233279 29.04 0.0305158 28.8902 0.0387861 28.7402Z" fill="#E6E6E6"/>
<path d="M136.367 58.7939H61.5187L24.0945 123.615L61.5187 188.435H136.367L173.791 123.615L136.367 58.7939Z" fill="#00A6FB"/>
<path d="M67.7839 177.583H130.102L161.261 123.615L130.102 69.6455H67.7839L36.6248 123.615L67.7839 177.583Z" fill="white"/>
<path d="M360 187.981H0V188.889H360V187.981Z" fill="#003554"/>
<path d="M282.844 23.626L286.096 32.8412L280.675 43.683L271.46 27.9626L282.844 23.626Z" fill="#A0616A"/>
<path d="M310.219 135.025C308.436 137.524 294.683 151.987 285.484 161.592C282.93 164.254 280.729 166.547 279.233 168.103C277.921 169.464 277.152 170.26 277.152 170.26L272.994 161.565L271.189 157.792L271.216 157.76L272.349 156.312L283.153 142.489L294.499 127.978L285.283 109.547L296.667 107.92L304.234 108.365L305.882 108.462C305.882 108.462 312.929 131.23 310.219 135.025Z" fill="#003554"/>
<path d="M278.236 179.476C277.531 180.18 276.306 179.281 274.978 177.741C272.23 174.554 269.02 168.634 269.02 168.634L265.226 160.503C265.632 158.074 269.351 157.765 271.216 157.76C271.85 157.76 272.273 157.792 272.273 157.792L272.587 158.258L279.233 168.103C279.233 168.103 280.404 177.307 278.236 179.476Z" fill="#003554"/>
<path opacity="0.2" d="M279.233 168.103C279.233 168.103 280.404 177.308 278.236 179.476C277.531 180.181 276.306 179.281 274.978 177.741L272.994 161.565L272.587 158.259L272.349 156.312L283.153 142.489L285.484 161.592C282.93 164.254 280.729 166.547 279.233 168.103Z" fill="black"/>
<path opacity="0.2" d="M286.741 112.463L285.283 109.546L296.667 107.92L304.234 108.365L304.256 108.462L286.741 112.463Z" fill="black"/>
<path d="M272.273 84.6104H268.478L269.563 120.388L277.152 182.186H289.62L284.199 137.735L286.909 112.799L305.882 108.462L300.461 83.5264L272.273 84.6104Z" fill="#003554"/>
<path d="M278.236 180.56C278.236 180.56 277.152 188.149 277.694 188.691C278.236 189.233 278.778 189.776 278.778 190.86C278.778 191.944 285.283 194.654 288.536 192.486C291.788 190.318 289.62 187.065 289.62 187.065L286.367 180.56H278.236Z" fill="#003554"/>
<path d="M276.068 30.4017C281.157 30.4017 285.283 26.2758 285.283 21.1862C285.283 16.0966 281.157 11.9707 276.068 11.9707C270.978 11.9707 266.852 16.0966 266.852 21.1862C266.852 26.2758 270.978 30.4017 276.068 30.4017Z" fill="#A0616A"/>
<path d="M281.488 35.8232L274.398 32.9752L270.105 86.237L299.919 88.4055L289.62 33.6547L285.012 29.3286L281.488 35.8232Z" fill="#E6E6E6"/>
<path d="M273.455 31.3661L267.936 35.8227L257.637 41.2436L261.431 75.3951L261.973 94.9102C261.973 94.9102 254.926 112.257 260.347 116.594C265.768 120.93 271.731 119.304 270.647 110.089C269.562 100.873 267.394 94.3681 277.694 84.6105C287.993 74.853 278.974 29.0778 273.455 31.3661Z" fill="#003554"/>
<path d="M284.452 28.1821L291.246 32.5701L300.461 37.4488L307.509 115.509L291.788 120.388C291.788 120.388 283.078 30.2992 284.452 28.1821Z" fill="#003554"/>
<path d="M302.088 92.7417C302.088 92.7417 293.956 105.21 299.919 105.21C305.882 105.21 307.509 94.9101 307.509 94.9101L302.088 92.7417Z" fill="#A0616A"/>
<path d="M268.478 92.7417C268.478 92.7417 276.61 105.21 270.647 105.21C264.684 105.21 263.057 94.9101 263.057 94.9101L268.478 92.7417Z" fill="#A0616A"/>
<path d="M276.61 7.63407L273.899 6.00781L274.441 7.09199L272.273 6.5499L272.815 7.09199L270.105 6.5499L271.189 7.63407C271.189 7.63407 266.852 7.63407 266.31 11.9708L263.6 12.5129L264.684 14.1391V15.7654L265.768 16.8496V18.4758L266.852 21.1863L267.936 17.3917C267.936 17.3917 272.815 18.4758 274.983 14.1391C274.983 14.1391 275.525 15.7654 278.236 15.2233L282.573 22.8125C282.573 22.8125 283.115 19.4481 285.012 18.962C286.909 18.4758 285.825 14.1391 285.825 14.1391C285.825 14.1391 284.199 12.5129 284.199 11.4287C284.199 10.3445 282.573 9.26035 281.488 9.26035C280.404 9.26035 277.694 7.092 277.694 7.092L276.61 7.63407Z" fill="#003554"/>
<path d="M261.973 41.7855L259.45 40.2891L257.637 41.2434C257.637 41.2434 255.468 42.3276 254.926 46.1222C254.384 49.9168 248.963 73.2266 248.963 73.2266C248.963 73.2266 248.421 77.0212 251.132 83.5262C253.842 90.0313 264.142 101.415 264.142 101.415L273.899 93.2838L259.263 75.3949L263.057 60.7585L261.973 41.7855Z" fill="#003554"/>
<path d="M296.125 37.4487H300.461L307.508 64.0109L309.677 97.0782L299.377 93.2836V69.432L296.125 37.4487Z" fill="#003554"/>
<path d="M75.6897 69.5654H74.8788V103.034H75.6897V69.5654Z" fill="#003554"/>
<path d="M75.2843 107.265C76.559 107.265 77.5924 106.232 77.5924 104.957C77.5924 103.682 76.559 102.649 75.2843 102.649C74.0095 102.649 72.9761 103.682 72.9761 104.957C72.9761 106.232 74.0095 107.265 75.2843 107.265Z" fill="#00A6FB"/>
<path d="M93.0007 69.5654H92.1899V103.034H93.0007V69.5654Z" fill="#003554"/>
<path d="M92.5954 107.265C93.8701 107.265 94.9035 106.232 94.9035 104.957C94.9035 103.682 93.8701 102.649 92.5954 102.649C91.3206 102.649 90.2872 103.682 90.2872 104.957C90.2872 106.232 91.3206 107.265 92.5954 107.265Z" fill="#003554"/>
<path d="M123.392 69.5654H122.581V103.034H123.392V69.5654Z" fill="#003554"/>
<path d="M122.986 107.265C124.261 107.265 125.294 106.232 125.294 104.957C125.294 103.682 124.261 102.649 122.986 102.649C121.711 102.649 120.678 103.682 120.678 104.957C120.678 106.232 121.711 107.265 122.986 107.265Z" fill="#003554"/>
<path d="M110.291 140.349C111.566 140.349 112.599 139.315 112.599 138.041C112.599 136.766 111.566 135.732 110.291 135.732C109.017 135.732 107.983 136.766 107.983 138.041C107.983 139.315 109.017 140.349 110.291 140.349Z" fill="#003554"/>
<path d="M63.3588 119.191C64.6336 119.191 65.667 118.157 65.667 116.882C65.667 115.608 64.6336 114.574 63.3588 114.574C62.0841 114.574 61.0507 115.608 61.0507 116.882C61.0507 118.157 62.0841 119.191 63.3588 119.191Z" fill="#003554"/>
<path d="M110.697 136.117H109.886V95.7879H92.5954V94.9771H110.697V136.117Z" fill="#003554"/>
<path d="M80.67 154.967C81.9447 154.967 82.9781 153.933 82.9781 152.659C82.9781 151.384 81.9447 150.351 80.67 150.351C79.3952 150.351 78.3618 151.384 78.3618 152.659C78.3618 153.933 79.3952 154.967 80.67 154.967Z" fill="#00A6FB"/>
<path d="M81.0754 150.735H80.2646V110.406H62.9741V109.595H81.0754V150.735Z" fill="#003554"/>
<path d="M134.142 136.886C135.417 136.886 136.45 135.853 136.45 134.578C136.45 133.303 135.417 132.27 134.142 132.27C132.867 132.27 131.834 133.303 131.834 134.578C131.834 135.853 132.867 136.886 134.142 136.886Z" fill="#00A6FB"/>
<path d="M134.548 132.655H133.737V92.3255H122.601V91.5146H134.548V132.655Z" fill="#003554"/>
<path d="M63.7642 114.574H62.9534V94.5225H75.2842V95.3333H63.7642V114.574Z" fill="#003554"/>
<path d="M92.7878 164.007C94.0625 164.007 95.0959 162.974 95.0959 161.699C95.0959 160.424 94.0625 159.391 92.7878 159.391C91.513 159.391 90.4796 160.424 90.4796 161.699C90.4796 162.974 91.513 164.007 92.7878 164.007Z" fill="#003554"/>
<path d="M93.193 159.391H92.3822V140.15H80.8622V139.339H93.193V159.391Z" fill="#003554"/>
<path d="M122.217 146.888C123.491 146.888 124.525 145.855 124.525 144.58C124.525 143.305 123.491 142.272 122.217 142.272C120.942 142.272 119.909 143.305 119.909 144.58C119.909 145.855 120.942 146.888 122.217 146.888Z" fill="#003554"/>
<path d="M122.622 142.272H121.811V122.22H134.142V123.031H122.622V142.272Z" fill="#003554"/>
</g>
<defs>
<clipPath id="clip0">
<rect width="360" height="193.303" fill="white"/>
</clipPath>
</defs>
</svg>
