<svg width="360" height="277" viewBox="0 0 360 277" fill="none" xmlns="http://www.w3.org/2000/svg">
<g clip-path="url(#clip0)">
<path opacity="0.1" d="M164.962 244.252C247.586 244.252 314.566 239.051 314.566 232.636C314.566 226.22 247.586 221.02 164.962 221.02C82.3381 221.02 15.3582 226.22 15.3582 232.636C15.3582 239.051 82.3381 244.252 164.962 244.252Z" fill="#00A6FB"/>
<g opacity="0.1">
<path opacity="0.1" d="M297.465 166.444C296.571 163.73 292.946 162.481 289.369 163.656C288.854 163.824 288.355 164.04 287.88 164.3C287.651 164.237 287.416 164.181 287.176 164.138C287.372 163.358 287.446 162.552 287.398 161.748C288.632 160.923 289.632 159.794 290.304 158.471C290.976 157.148 291.297 155.674 291.235 154.191C292.465 153.363 293.463 152.234 294.132 150.91C294.801 149.587 295.12 148.115 295.058 146.633C296.298 145.816 297.297 144.684 297.955 143.352C299.68 139.938 298.965 136.101 296.357 134.781C293.748 133.461 290.232 135.161 288.507 138.576C287.823 139.893 287.503 141.37 287.581 142.852C286.351 143.68 285.353 144.81 284.684 146.133C284.015 147.456 283.696 148.929 283.758 150.41C282.528 151.238 281.53 152.367 280.861 153.69C280.192 155.014 279.873 156.486 279.935 157.968C278.702 158.794 277.702 159.924 277.03 161.248C276.358 162.571 276.038 164.046 276.099 165.529C274.859 166.346 273.859 167.478 273.202 168.81C272.877 169.451 272.631 170.13 272.469 170.83C272.037 170.198 271.51 169.637 270.906 169.165C270.837 168.628 270.72 168.097 270.554 167.581C269.379 164.001 266.225 161.819 263.514 162.713C260.804 163.607 259.551 167.229 260.726 170.809C261.207 172.344 262.134 173.701 263.387 174.709C263.457 175.247 263.574 175.777 263.739 176.293C264.422 178.37 265.771 179.975 267.312 180.781C267.176 181.23 267.078 181.689 267.02 182.154C265.566 183.553 264.631 185.403 264.366 187.403C262.911 188.802 261.975 190.654 261.712 192.655C260.992 193.346 260.396 194.157 259.952 195.052C258.224 198.466 258.938 202.307 261.546 203.623C264.155 204.94 267.671 203.247 269.4 199.829C269.855 198.937 270.153 197.974 270.28 196.981C271.734 195.583 272.669 193.732 272.934 191.732C274.389 190.334 275.325 188.482 275.588 186.48C277.032 185.079 277.957 183.228 278.211 181.232C279.671 179.833 280.61 177.978 280.872 175.973C281.32 175.548 281.72 175.076 282.065 174.565C283.503 174.86 284.994 174.767 286.384 174.294C286.9 174.126 287.398 173.91 287.873 173.65C289.43 174.06 291.074 174.002 292.597 173.481C296.163 172.316 298.356 169.162 297.465 166.444Z" fill="#003554"/>
<g opacity="0.1">
<path opacity="0.1" d="M291.154 155.743C290.785 156.106 290.379 156.431 289.943 156.711C289.998 157.716 289.866 158.722 289.552 159.679C289.829 159.296 290.076 158.892 290.292 158.471C290.728 157.616 291.02 156.694 291.154 155.743Z" fill="black"/>
<path opacity="0.1" d="M294.977 148.186C294.607 148.549 294.202 148.873 293.766 149.154C293.821 150.158 293.689 151.165 293.375 152.121C293.653 151.737 293.9 151.333 294.114 150.91C294.549 150.055 294.841 149.135 294.977 148.186Z" fill="black"/>
<path opacity="0.1" d="M286.307 145.373C286.274 144.855 286.295 144.335 286.367 143.821C285.683 144.495 285.115 145.276 284.684 146.134C284.472 146.556 284.293 146.995 284.149 147.446C284.732 146.626 285.464 145.923 286.307 145.373V145.373Z" fill="black"/>
<path opacity="0.1" d="M262.043 191.11C262.35 190.681 262.698 190.282 263.081 189.92C263.141 189.442 263.244 188.971 263.387 188.512C263.081 188.923 262.812 189.36 262.581 189.818C262.369 190.234 262.189 190.666 262.043 191.11V191.11Z" fill="black"/>
<path opacity="0.1" d="M264.697 185.865C265.005 185.436 265.352 185.038 265.735 184.675C265.793 184.21 265.891 183.751 266.028 183.302V183.302C265.735 183.702 265.476 184.124 265.253 184.566C265.035 184.984 264.85 185.419 264.697 185.865V185.865Z" fill="black"/>
<path opacity="0.1" d="M287.328 163.301C286.96 163.664 286.556 163.987 286.12 164.265C286.168 165.069 286.094 165.875 285.898 166.656C286.136 166.697 286.371 166.751 286.603 166.818C287.078 166.557 287.576 166.341 288.092 166.173C291.675 164.998 295.297 166.247 296.188 168.961C296.409 169.643 296.448 170.372 296.3 171.073C297.48 169.686 297.969 167.997 297.462 166.448C296.568 163.734 292.942 162.484 289.366 163.66C288.851 163.828 288.352 164.044 287.877 164.304C287.648 164.241 287.412 164.184 287.173 164.142C287.24 163.861 287.289 163.583 287.328 163.301Z" fill="black"/>
<path opacity="0.1" d="M260.733 193.746C260.427 194.157 260.158 194.594 259.927 195.052C259.713 195.476 259.532 195.917 259.385 196.369C259.699 195.938 260.053 195.537 260.441 195.172C260.495 194.689 260.593 194.212 260.733 193.746V193.746Z" fill="black"/>
<path opacity="0.1" d="M282.466 152.931C282.434 152.413 282.454 151.893 282.526 151.378C281.843 152.052 281.274 152.833 280.844 153.691C280.631 154.114 280.452 154.553 280.309 155.004C280.891 154.184 281.623 153.48 282.466 152.931V152.931Z" fill="black"/>
<path opacity="0.1" d="M276.943 183.753C276.874 184.277 276.756 184.793 276.591 185.295C276.867 184.91 277.113 184.505 277.327 184.084C277.558 183.632 277.75 183.161 277.901 182.676C277.613 183.061 277.292 183.422 276.943 183.753V183.753Z" fill="black"/>
<path opacity="0.1" d="M271.635 194.25C271.566 194.774 271.448 195.29 271.283 195.792C271.561 195.408 271.808 195.003 272.022 194.581C272.252 194.128 272.443 193.657 272.596 193.173C272.308 193.559 271.986 193.92 271.635 194.25V194.25Z" fill="black"/>
<path opacity="0.1" d="M274.289 188.998C274.22 189.522 274.102 190.038 273.937 190.54C274.218 190.163 274.47 189.765 274.691 189.35C274.921 188.898 275.113 188.427 275.264 187.942C274.97 188.321 274.643 188.674 274.289 188.998V188.998Z" fill="black"/>
<path opacity="0.1" d="M279.598 178.504C279.528 179.027 279.411 179.542 279.246 180.042C279.522 179.66 279.768 179.256 279.981 178.835C280.214 178.375 280.408 177.896 280.559 177.402C280.272 177.798 279.95 178.166 279.598 178.504V178.504Z" fill="black"/>
<path opacity="0.1" d="M262.219 165.23C264.936 164.34 268.09 166.519 269.259 170.099C269.424 170.616 269.542 171.148 269.611 171.686C270.214 172.158 270.742 172.719 271.174 173.351C271.336 172.65 271.582 171.97 271.906 171.327C272.029 171.088 272.163 170.859 272.3 170.623C271.901 170.07 271.427 169.575 270.892 169.152C270.823 168.614 270.705 168.084 270.54 167.568C269.365 163.988 266.211 161.805 263.5 162.699C261.951 163.206 260.881 164.604 260.466 166.371C260.942 165.846 261.546 165.453 262.219 165.23V165.23Z" fill="black"/>
<path opacity="0.1" d="M274.821 168.046C274.79 167.529 274.811 167.01 274.884 166.497C274.198 167.17 273.629 167.951 273.198 168.81C272.985 169.231 272.806 169.669 272.663 170.119C273.247 169.3 273.979 168.597 274.821 168.046V168.046Z" fill="black"/>
<path opacity="0.1" d="M278.644 160.485C278.612 159.968 278.634 159.449 278.707 158.936C278.02 159.607 277.451 160.387 277.021 161.245C276.808 161.668 276.629 162.107 276.486 162.558C277.068 161.738 277.8 161.034 278.644 160.485V160.485Z" fill="black"/>
<path opacity="0.1" d="M268.981 199.498C268.912 200.023 268.794 200.54 268.629 201.043C269.208 200.242 269.651 199.351 269.942 198.407C269.654 198.798 269.333 199.163 268.981 199.498V199.498Z" fill="black"/>
</g>
<path opacity="0.1" d="M302.682 131.518C303.923 130.702 304.923 129.569 305.579 128.237C307.308 124.823 306.593 120.982 303.985 119.662C301.376 118.342 297.86 120.042 296.131 123.46C295.447 124.782 295.128 126.262 295.209 127.748C293.979 128.576 292.981 129.705 292.312 131.028C291.643 132.351 291.324 133.824 291.386 135.305C290.145 136.121 289.145 137.253 288.489 138.586C288.277 139.004 288.1 139.439 287.958 139.885C288.877 138.554 290.209 137.564 291.749 137.069C291.924 137.611 292.205 138.113 292.576 138.546C292.946 138.979 293.399 139.334 293.908 139.591C294.417 139.847 294.971 140.001 295.54 140.041C296.108 140.082 296.679 140.01 297.219 139.829C297.739 141.359 297.739 143.019 297.219 144.549C297.494 144.17 297.739 143.77 297.951 143.352C298.634 142.034 298.952 140.558 298.874 139.075C300.105 138.249 301.104 137.12 301.773 135.797C302.443 134.473 302.761 133 302.696 131.518H302.682Z" fill="#003554"/>
<path opacity="0.1" d="M344.698 83.0671C345.759 82.572 346.785 82.0039 347.768 81.3669L336.387 73.0525L349.764 79.9413C352.47 77.7916 354.708 75.1121 356.343 72.0669C357.977 69.0218 358.972 65.675 359.268 62.2317L336.535 62.464L359.317 58.6553C359.082 55.2085 358.144 51.8463 356.562 48.7752C354.979 45.7041 352.786 42.9889 350.116 40.7964C347.446 38.6039 344.356 36.9804 341.036 36.0257C337.715 35.0709 334.235 34.805 330.808 35.2443C327.382 35.6837 324.081 36.819 321.109 38.5804C318.137 40.3419 315.556 42.6924 313.526 45.4875C311.496 48.2827 310.058 51.4634 309.302 54.8344C308.545 58.2053 308.486 61.6953 309.128 65.09C307.475 65.8584 305.91 66.8025 304.46 67.9061L316.34 84.4259L302.077 69.9653C299.067 72.9212 296.841 76.581 295.601 80.6136C294.362 84.6462 294.147 88.9243 294.977 93.0607C290.668 95.0718 287.012 98.2546 284.426 102.245C281.841 106.236 280.43 110.873 280.355 115.628C280.28 120.382 281.544 125.062 284.003 129.132C286.462 133.202 290.016 136.498 294.259 138.644C298.502 140.79 303.264 141.699 307.999 141.267C312.735 140.835 317.253 139.079 321.038 136.201C324.823 133.323 327.722 129.437 329.403 124.99C331.085 120.542 331.481 115.711 330.547 111.048C335.704 108.648 339.903 104.584 342.469 99.5087C345.036 94.4335 345.821 88.6425 344.698 83.0671Z" fill="#00A6FB"/>
<path opacity="0.1" d="M297.219 76.6186C294.644 81.6914 293.856 87.4848 294.984 93.061C290.675 95.0721 287.019 98.2549 284.433 102.245C281.848 106.236 280.437 110.874 280.362 115.628C280.287 120.383 281.551 125.062 284.01 129.132C286.469 133.202 290.023 136.499 294.266 138.644C298.51 140.79 303.271 141.699 308.006 141.267C312.742 140.835 317.26 139.079 321.045 136.201C324.83 133.323 327.729 129.438 329.41 124.99C331.092 120.542 331.488 115.711 330.554 111.049C335.528 108.739 298.493 74.0806 297.219 76.6186Z" fill="black"/>
<path opacity="0.1" d="M325.781 39.9215C327.859 39.9215 329.544 38.2367 329.544 36.1585C329.544 34.0803 327.859 32.3955 325.781 32.3955C323.703 32.3955 322.018 34.0803 322.018 36.1585C322.018 38.2367 323.703 39.9215 325.781 39.9215Z" fill="#00A6FB"/>
<path opacity="0.1" d="M347.761 42.3365C349.839 42.3365 351.524 40.6518 351.524 38.5735C351.524 36.4953 349.839 34.8105 347.761 34.8105C345.682 34.8105 343.998 36.4953 343.998 38.5735C343.998 40.6518 345.682 42.3365 347.761 42.3365Z" fill="#00A6FB"/>
<path opacity="0.1" d="M356.237 76.1505C358.315 76.1505 360 74.4657 360 72.3875C360 70.3093 358.315 68.6245 356.237 68.6245C354.159 68.6245 352.474 70.3093 352.474 72.3875C352.474 74.4657 354.159 76.1505 356.237 76.1505Z" fill="#00A6FB"/>
<path opacity="0.1" d="M344.797 93.0362C346.875 93.0362 348.56 91.3515 348.56 89.2732C348.56 87.195 346.875 85.5103 344.797 85.5103C342.718 85.5103 341.034 87.195 341.034 89.2732C341.034 91.3515 342.718 93.0362 344.797 93.0362Z" fill="#00A6FB"/>
<path opacity="0.1" d="M329.167 128.107C331.246 128.107 332.93 126.422 332.93 124.344C332.93 122.266 331.246 120.581 329.167 120.581C327.089 120.581 325.405 122.266 325.405 124.344C325.405 126.422 327.089 128.107 329.167 128.107Z" fill="#00A6FB"/>
<path opacity="0.1" d="M329.167 128.107C331.246 128.107 332.93 126.422 332.93 124.344C332.93 122.266 331.246 120.581 329.167 120.581C327.089 120.581 325.405 122.266 325.405 124.344C325.405 126.422 327.089 128.107 329.167 128.107Z" fill="black"/>
<path opacity="0.1" d="M294.417 88.3858C296.495 88.3858 298.18 86.7011 298.18 84.6228C298.18 82.5446 296.495 80.8599 294.417 80.8599C292.339 80.8599 290.654 82.5446 290.654 84.6228C290.654 86.7011 292.339 88.3858 294.417 88.3858Z" fill="#00A6FB"/>
<path opacity="0.1" d="M294.417 88.3858C296.495 88.3858 298.18 86.7011 298.18 84.6228C298.18 82.5446 296.495 80.8599 294.417 80.8599C292.339 80.8599 290.654 82.5446 290.654 84.6228C290.654 86.7011 292.339 88.3858 294.417 88.3858Z" fill="black"/>
<path opacity="0.1" d="M290.404 146.517C287.901 145.253 287.145 141.673 288.605 138.372C288.528 138.505 288.454 138.643 288.384 138.787C286.655 142.201 287.37 146.038 289.978 147.358C292.587 148.678 296.103 146.978 297.828 143.564C297.902 143.423 297.965 143.279 298.029 143.138C296.237 146.274 292.903 147.784 290.404 146.517Z" fill="black"/>
<path opacity="0.1" d="M286.687 153.867C284.188 152.603 283.427 149.023 284.892 145.718C284.814 145.855 284.737 145.992 284.666 146.133C282.938 149.548 283.653 153.388 286.261 154.705C288.869 156.021 292.386 154.328 294.114 150.91C294.185 150.769 294.252 150.628 294.315 150.484C292.52 153.62 289.19 155.131 286.687 153.867Z" fill="black"/>
<path opacity="0.1" d="M282.97 161.213C280.471 159.95 279.71 156.37 281.175 153.068C281.097 153.202 281.02 153.339 280.949 153.483C279.221 156.898 279.939 160.735 282.547 162.055C285.156 163.375 288.669 161.675 290.397 158.26C290.468 158.119 290.534 157.975 290.598 157.834C288.806 160.97 285.473 162.481 282.97 161.213Z" fill="black"/>
<path opacity="0.1" d="M279.267 168.581C276.764 167.317 276.007 163.737 277.468 160.436C277.39 160.569 277.316 160.707 277.243 160.847C275.518 164.262 276.232 168.102 278.841 169.422C281.449 170.742 284.966 169.042 286.691 165.624C286.764 165.483 286.828 165.343 286.891 165.198C285.089 168.317 281.755 169.827 279.267 168.581Z" fill="black"/>
<path opacity="0.1" d="M275.539 175.91C273.036 174.646 272.279 171.066 273.74 167.764C273.663 167.898 273.589 168.035 273.518 168.18C271.79 171.594 272.505 175.431 275.113 176.751C277.721 178.071 281.238 176.371 282.966 172.956C283.037 172.816 283.104 172.671 283.167 172.53C281.379 175.667 278.038 177.177 275.539 175.91Z" fill="black"/>
<path opacity="0.1" d="M271.822 183.26C269.322 181.996 268.562 178.416 270.026 175.114C269.949 175.248 269.872 175.385 269.801 175.526C268.073 178.941 268.787 182.781 271.399 184.101C274.011 185.421 277.507 183.717 279.267 180.303C279.337 180.162 279.404 180.021 279.467 179.877C277.654 183.013 274.338 184.523 271.822 183.26Z" fill="black"/>
<path opacity="0.1" d="M268.104 190.606C265.605 189.342 264.845 185.762 266.309 182.46C266.232 182.598 266.158 182.731 266.084 182.876C264.359 186.29 265.074 190.127 267.682 191.447C270.29 192.767 273.807 191.067 275.532 187.653C275.606 187.512 275.669 187.367 275.732 187.227C273.941 190.363 270.607 191.873 268.104 190.606Z" fill="black"/>
<path opacity="0.1" d="M264.391 197.956C261.888 196.692 261.131 193.112 262.592 189.811C262.514 189.944 262.441 190.082 262.37 190.222C260.642 193.637 261.356 197.477 263.965 198.797C266.573 200.117 270.09 198.417 271.818 194.999C271.888 194.858 271.952 194.718 272.015 194.573C270.223 197.71 266.89 199.206 264.391 197.956Z" fill="black"/>
<path opacity="0.1" d="M261.948 202.786C259.449 201.519 258.688 197.942 260.153 194.637C260.075 194.774 259.998 194.911 259.927 195.052C258.199 198.467 258.913 202.307 261.522 203.624C264.13 204.94 267.647 203.247 269.375 199.829C269.446 199.688 269.512 199.547 269.576 199.403C267.781 202.539 264.447 204.049 261.948 202.786Z" fill="black"/>
<path opacity="0.1" d="M329.108 170.081C329.495 168.969 329.732 167.81 329.812 166.635C330.07 166.634 330.326 166.58 330.563 166.476C330.799 166.372 331.012 166.221 331.188 166.031C331.363 165.841 331.498 165.617 331.583 165.373C331.668 165.129 331.701 164.87 331.682 164.612C331.662 164.354 331.59 164.103 331.468 163.875C331.347 163.646 331.181 163.445 330.978 163.284C330.776 163.123 330.543 163.006 330.293 162.939C330.043 162.872 329.782 162.858 329.527 162.896C329.108 160.991 328.271 159.203 327.075 157.662C325.879 156.121 324.355 154.865 322.613 153.987C322.838 153.542 322.877 153.025 322.721 152.551C322.565 152.077 322.228 151.684 321.782 151.459C321.337 151.234 320.821 151.196 320.347 151.351C319.873 151.507 319.48 151.845 319.255 152.29C319.173 152.448 319.116 152.618 319.086 152.794C317.021 152.409 314.893 152.523 312.881 153.126C310.868 153.729 309.029 154.804 307.515 156.261C306.373 156.076 305.21 156.042 304.059 156.159L302.534 163.097L302.443 156.409C300.694 156.792 299.041 157.528 297.585 158.572C296.13 159.616 294.903 160.946 293.979 162.48C293.055 164.014 292.454 165.721 292.212 167.496C291.97 169.27 292.092 171.075 292.572 172.801C293.051 174.527 293.877 176.136 295 177.532C296.122 178.927 297.518 180.079 299.101 180.917C300.683 181.755 302.42 182.261 304.206 182.405C305.991 182.549 307.787 182.327 309.483 181.753C309.665 182.081 309.941 182.346 310.275 182.514C310.62 182.689 311.01 182.753 311.393 182.699C311.776 182.644 312.132 182.472 312.414 182.208C312.696 181.943 312.889 181.598 312.967 181.219C313.046 180.84 313.005 180.447 312.852 180.092C313.452 179.68 314.017 179.218 314.542 178.712C317.29 179.159 320.109 178.724 322.594 177.47C325.08 176.216 327.105 174.207 328.379 171.732L321.286 170.538L329.108 170.081Z" fill="#00A6FB"/>
<g opacity="0.1">
<path opacity="0.1" d="M318.15 173.449C315.531 169.993 313.926 165.899 312.077 161.97C311.335 160.358 310.505 158.788 309.589 157.268L308.202 155.652C307.97 155.849 307.737 156.053 307.498 156.268C306.355 156.083 305.193 156.049 304.041 156.166L302.517 163.104L302.425 156.416C300.676 156.799 299.023 157.535 297.568 158.579C296.113 159.623 294.885 160.953 293.962 162.487C293.038 164.021 292.436 165.728 292.194 167.502C291.952 169.277 292.075 171.082 292.554 172.808C293.033 174.534 293.86 176.143 294.982 177.539C296.105 178.934 297.5 180.086 299.083 180.924C300.666 181.762 302.403 182.268 304.188 182.412C305.973 182.556 307.769 182.334 309.466 181.76C309.647 182.088 309.923 182.353 310.258 182.521C310.602 182.696 310.993 182.76 311.375 182.706C311.758 182.651 312.115 182.479 312.396 182.215C312.678 181.95 312.871 181.605 312.95 181.226C313.028 180.847 312.988 180.454 312.834 180.099C313.435 179.687 314 179.225 314.524 178.719C317.214 179.155 319.974 178.746 322.423 177.55C320.788 176.421 319.345 175.036 318.15 173.449V173.449Z" fill="black"/>
</g>
<path opacity="0.1" d="M271.772 158.594C271.917 158.307 271.987 157.988 271.973 157.666C271.959 157.345 271.864 157.033 271.695 156.759C271.526 156.485 271.29 156.259 271.009 156.103C270.728 155.947 270.411 155.865 270.09 155.866C269.556 153.037 268.109 150.461 265.971 148.534C266.316 147.19 266.446 145.8 266.358 144.415L259.441 143.236L266.158 142.814C266.037 142.183 265.871 141.562 265.661 140.955C265.923 140.775 266.136 140.533 266.281 140.251C266.45 139.914 266.515 139.535 266.466 139.161C266.418 138.788 266.258 138.437 266.009 138.155C265.759 137.873 265.43 137.673 265.065 137.579C264.7 137.486 264.316 137.504 263.961 137.632C262.182 135.118 259.579 133.308 256.604 132.514C253.629 131.72 250.47 131.994 247.675 133.288C244.881 134.581 242.628 136.813 241.308 139.595C239.988 142.377 239.685 145.534 240.451 148.516C240.043 148.688 239.711 149 239.514 149.396C239.342 149.737 239.277 150.122 239.329 150.501C239.381 150.88 239.547 151.233 239.805 151.515C240.063 151.797 240.401 151.993 240.773 152.078C241.146 152.163 241.536 152.133 241.89 151.99C242.565 153.124 243.407 154.151 244.386 155.035C243.673 157.815 243.888 160.752 244.999 163.399L254.274 160.991L246.002 165.342C247.464 167.666 249.617 169.475 252.158 170.516C254.699 171.557 257.502 171.777 260.175 171.146C262.848 170.516 265.257 169.066 267.065 166.999C268.873 164.932 269.989 162.351 270.259 159.619C270.577 159.591 270.884 159.482 271.149 159.303C271.414 159.124 271.628 158.88 271.772 158.594V158.594Z" fill="#00A6FB"/>
<path opacity="0.1" d="M271.772 158.595C271.917 158.308 271.987 157.988 271.973 157.667C271.959 157.346 271.864 157.033 271.695 156.76C271.526 156.486 271.29 156.26 271.009 156.104C270.728 155.947 270.411 155.866 270.09 155.867C269.556 153.038 268.109 150.462 265.971 148.534C266.028 148.313 266.077 148.094 266.119 147.873C265.873 148.051 265.646 148.252 265.44 148.474C264.19 149.844 263.549 151.685 262.314 153.068C260.857 154.702 258.674 155.553 256.495 155.782C254.316 156.011 252.123 155.677 249.972 155.258C248.191 154.906 246.385 154.497 244.58 154.67C244.404 154.67 244.228 154.709 244.066 154.737C244.171 154.839 244.277 154.941 244.386 155.039C243.673 157.82 243.888 160.757 244.999 163.403L254.274 160.992L246.002 165.343C247.464 167.667 249.617 169.476 252.158 170.517C254.699 171.557 257.502 171.778 260.175 171.147C262.848 170.516 265.257 169.066 267.065 166.999C268.873 164.932 269.989 162.352 270.259 159.619C270.577 159.592 270.884 159.483 271.149 159.304C271.414 159.124 271.628 158.88 271.772 158.595V158.595Z" fill="black"/>
</g>
<g opacity="0.1">
<path opacity="0.1" d="M31.5013 179.961C31.9519 178.592 33.7788 177.962 35.5811 178.553C35.8403 178.638 36.0913 178.746 36.3309 178.877C36.447 178.845 36.5667 178.817 36.6829 178.796C36.584 178.403 36.546 177.997 36.5702 177.592C35.9516 177.174 35.45 176.604 35.113 175.938C34.776 175.271 34.6149 174.53 34.6448 173.783C34.0207 173.373 33.5176 172.803 33.1874 172.132C32.8434 171.468 32.6819 170.725 32.7193 169.978C32.0956 169.565 31.5927 168.994 31.2619 168.324C30.396 166.606 30.748 164.673 32.068 164.005C33.3881 163.336 35.1552 164.198 36.0246 165.916C36.368 166.581 36.5284 167.326 36.4893 168.074C37.1096 168.49 37.6126 169.058 37.9498 169.725C38.287 170.391 38.4471 171.133 38.4148 171.879C39.0349 172.296 39.5376 172.865 39.8747 173.532C40.2119 174.199 40.3722 174.941 40.3403 175.688C40.9606 176.104 41.4635 176.672 41.8007 177.338C42.138 178.005 42.2981 178.747 42.2658 179.493C42.8907 179.905 43.3949 180.476 43.7266 181.147C43.8849 181.472 44.0031 181.815 44.0786 182.168C44.2955 181.849 44.5602 181.565 44.8636 181.327C44.8998 181.055 44.961 180.788 45.0466 180.528C45.6415 178.726 47.2291 177.627 48.5984 178.064C49.9677 178.5 50.5943 180.341 50.0064 182.144C49.7635 182.918 49.2968 183.602 48.6653 184.111C48.6287 184.382 48.5674 184.648 48.4822 184.907C48.1933 185.862 47.5497 186.671 46.6835 187.167C46.7514 187.397 46.8008 187.633 46.8313 187.871C47.1947 188.22 47.4959 188.628 47.7219 189.078C47.9522 189.527 48.1023 190.013 48.1654 190.514C48.5302 190.863 48.8326 191.271 49.0595 191.722C49.2894 192.171 49.4395 192.657 49.5031 193.158C49.8687 193.507 50.1712 193.917 50.3972 194.369C51.2666 196.087 50.9076 198.023 49.5946 198.685C48.2816 199.346 46.5075 198.494 45.638 196.773C45.4088 196.323 45.2587 195.838 45.1945 195.337C44.4611 194.633 43.9893 193.701 43.8568 192.693C43.1234 191.99 42.6516 191.057 42.5192 190.05C42.1547 189.701 41.8523 189.293 41.6251 188.842C41.3974 188.392 41.2475 187.906 41.1816 187.406C40.8181 187.057 40.517 186.649 40.291 186.199C40.0607 185.749 39.9106 185.263 39.8475 184.763C39.6208 184.551 39.4189 184.315 39.2455 184.058C38.5213 184.207 37.7707 184.161 37.0701 183.925C36.8099 183.838 36.5578 183.728 36.3168 183.597C35.5339 183.805 34.7069 183.776 33.9407 183.513C32.156 182.918 31.0543 181.33 31.5013 179.961Z" fill="#003554"/>
<g opacity="0.1">
<path opacity="0.1" d="M34.68 174.565C34.8666 174.749 35.0719 174.913 35.2925 175.054C35.2627 175.56 35.3296 176.066 35.4896 176.547C35.3481 176.355 35.2233 176.151 35.1165 175.938C34.8963 175.507 34.7488 175.043 34.68 174.565V174.565Z" fill="black"/>
<path opacity="0.1" d="M32.7545 170.763C32.9421 170.945 33.1472 171.108 33.367 171.249C33.3374 171.756 33.4043 172.263 33.5641 172.745C33.1377 172.16 32.8599 171.48 32.7545 170.763V170.763Z" fill="black"/>
<path opacity="0.1" d="M37.13 169.344C37.1467 169.084 37.1373 168.822 37.1018 168.563C37.4459 168.903 37.7325 169.296 37.9502 169.728C38.0564 169.941 38.1459 170.163 38.2177 170.39C37.9243 169.976 37.5553 169.621 37.13 169.344V169.344Z" fill="black"/>
<path opacity="0.1" d="M49.3447 192.387C49.1908 192.171 49.0163 191.971 48.8237 191.788C48.7916 191.55 48.7398 191.314 48.6688 191.084C48.8216 191.291 48.957 191.51 49.0736 191.739C49.1804 191.948 49.2711 192.164 49.3447 192.387V192.387Z" fill="black"/>
<path opacity="0.1" d="M47.9965 189.743C47.8426 189.528 47.6681 189.327 47.4755 189.145C47.4468 188.906 47.3973 188.671 47.3277 188.441C47.6177 188.834 47.8412 189.271 47.9894 189.736L47.9965 189.743Z" fill="black"/>
<path opacity="0.1" d="M36.609 178.381C36.7938 178.563 36.998 178.725 37.218 178.863C37.1916 179.268 37.2297 179.674 37.3306 180.067C37.212 180.088 37.0945 180.115 36.9786 180.148C36.7375 180.018 36.4854 179.91 36.2253 179.824C34.423 179.233 32.5961 179.863 32.149 181.232C32.037 181.573 32.0164 181.937 32.0892 182.288C31.7996 181.983 31.5936 181.609 31.4912 181.201C31.3888 180.794 31.3935 180.367 31.5048 179.961C31.9554 178.592 33.7824 177.962 35.5846 178.553C35.8439 178.638 36.0948 178.747 36.3344 178.877C36.4506 178.845 36.5703 178.817 36.6864 178.796C36.6526 178.659 36.6267 178.521 36.609 178.381V178.381Z" fill="black"/>
<path opacity="0.1" d="M50.0065 193.714C50.16 193.921 50.2955 194.142 50.4113 194.372C50.5188 194.585 50.6094 194.807 50.6823 195.034C50.5284 194.817 50.354 194.615 50.1613 194.432C50.13 194.189 50.0782 193.948 50.0065 193.714V193.714Z" fill="black"/>
<path opacity="0.1" d="M39.0554 173.156C39.0723 172.896 39.0628 172.634 39.0273 172.375C39.3722 172.714 39.6589 173.108 39.8756 173.54C39.9819 173.752 40.0713 173.972 40.1432 174.198C39.8497 173.785 39.4806 173.432 39.0554 173.156V173.156Z" fill="black"/>
<path opacity="0.1" d="M41.8398 188.68C41.8728 188.943 41.9305 189.202 42.0123 189.454C41.719 189.052 41.4953 188.604 41.3506 188.127C41.4968 188.326 41.6606 188.511 41.8398 188.68V188.68Z" fill="black"/>
<path opacity="0.1" d="M44.5116 193.967C44.5471 194.23 44.606 194.489 44.6876 194.742C44.5462 194.55 44.4213 194.346 44.3145 194.133C44.1987 193.907 44.1021 193.671 44.0258 193.429C44.1732 193.621 44.3357 193.801 44.5116 193.967V193.967Z" fill="black"/>
<path opacity="0.1" d="M43.1775 191.324C43.2104 191.587 43.2682 191.846 43.35 192.099C43.2098 191.906 43.085 191.702 42.9768 191.49C42.8606 191.264 42.764 191.028 42.6882 190.786C42.8351 190.979 42.9988 191.159 43.1775 191.324V191.324Z" fill="black"/>
<path opacity="0.1" d="M40.5022 186.033C40.5348 186.297 40.5925 186.558 40.6747 186.811C40.5412 186.618 40.4235 186.414 40.3227 186.202C40.2047 185.976 40.1069 185.741 40.0305 185.498C40.1712 185.69 40.329 185.869 40.5022 186.033V186.033Z" fill="black"/>
<path opacity="0.1" d="M49.2567 179.349C47.8874 178.898 46.2998 179.997 45.7084 181.813C45.6228 182.073 45.5615 182.341 45.5254 182.612C45.2209 182.849 44.9549 183.132 44.7369 183.45C44.6552 183.096 44.5311 182.753 44.3673 182.429C44.3074 182.309 44.2405 182.193 44.1701 182.077C44.3699 181.8 44.6068 181.551 44.8742 181.338C44.9103 181.066 44.9716 180.799 45.0572 180.539C45.6521 178.736 47.2397 177.638 48.609 178.075C49.0016 178.225 49.3487 178.475 49.6163 178.8C49.884 179.124 50.0633 179.512 50.1367 179.926C49.8975 179.662 49.5945 179.463 49.2567 179.349V179.349Z" fill="black"/>
<path opacity="0.1" d="M42.9064 180.767C42.9232 180.507 42.9137 180.245 42.8783 179.986C43.2232 180.325 43.5098 180.719 43.7266 181.151C43.8329 181.364 43.9223 181.586 43.9941 181.813C43.7017 181.398 43.3325 181.043 42.9064 180.767V180.767Z" fill="black"/>
<path opacity="0.1" d="M40.981 176.959C40.9976 176.698 40.9882 176.436 40.9528 176.177C41.2961 176.518 41.5825 176.911 41.8011 177.342C41.9074 177.556 41.9969 177.777 42.0687 178.004C41.7753 177.59 41.4063 177.235 40.981 176.959V176.959Z" fill="black"/>
<path opacity="0.1" d="M45.8492 196.611C45.883 196.876 45.942 197.136 46.0252 197.389C45.8845 197.196 45.7598 196.991 45.6521 196.777C45.5363 196.551 45.4398 196.315 45.3635 196.073C45.5109 196.265 45.6733 196.445 45.8492 196.611Z" fill="black"/>
</g>
<path opacity="0.1" d="M28.8718 162.364C28.2477 161.953 27.7446 161.384 27.4145 160.713C26.545 158.992 26.9041 157.059 28.2171 156.394C29.5301 155.729 31.3042 156.584 32.1737 158.306C32.5176 158.969 32.678 159.713 32.6383 160.46C33.2584 160.877 33.7612 161.446 34.0983 162.113C34.4354 162.78 34.5957 163.522 34.5638 164.269C35.1883 164.68 35.6924 165.25 36.0246 165.92C36.1303 166.131 36.2197 166.35 36.2922 166.574C35.8259 165.909 35.1546 165.414 34.3808 165.166C34.2946 165.441 34.1544 165.696 33.9685 165.916C33.7827 166.137 33.5547 166.318 33.2981 166.449C33.0415 166.58 32.7613 166.658 32.474 166.68C32.1866 166.701 31.8978 166.666 31.6245 166.574C31.3635 167.345 31.3635 168.18 31.6245 168.95C31.4923 168.759 31.3746 168.558 31.2725 168.348C30.9285 167.684 30.767 166.941 30.8043 166.194C30.1849 165.776 29.6828 165.207 29.3457 164.54C29.0087 163.874 28.848 163.132 28.8789 162.385L28.8718 162.364Z" fill="#003554"/>
<path opacity="0.1" d="M7.709 137.956C7.17503 137.706 6.65873 137.42 6.16368 137.1L11.8944 132.912L5.15693 136.379C3.79469 135.296 2.66782 133.946 1.84526 132.412C1.02271 130.878 0.521775 129.193 0.373121 127.459L11.8275 127.579L0.34848 125.657C0.447319 123.905 0.905717 122.193 1.69511 120.627C2.48451 119.061 3.58799 117.674 4.93681 116.553C6.28563 115.432 7.85088 114.6 9.53504 114.11C11.2192 113.62 12.9862 113.483 14.7259 113.706C16.4657 113.929 18.1409 114.507 19.6472 115.406C21.1534 116.304 22.4585 117.504 23.4812 118.929C24.5038 120.354 25.222 121.974 25.591 123.689C25.9601 125.403 25.9721 127.176 25.6263 128.895C26.4577 129.28 27.246 129.752 27.9777 130.303L21.9935 138.625L29.178 131.345C30.6941 132.834 31.815 134.678 32.4395 136.709C33.0639 138.74 33.1722 140.895 32.7545 142.979C34.9278 143.991 36.7724 145.595 38.0773 147.606C39.3822 149.617 40.0948 151.955 40.1335 154.353C40.1722 156.75 39.5355 159.11 38.2962 161.162C37.0569 163.214 35.2651 164.877 33.1255 165.959C30.986 167.041 28.5852 167.499 26.1976 167.28C23.81 167.062 21.5321 166.176 19.6242 164.724C17.7164 163.272 16.2557 161.312 15.4091 159.069C14.5626 156.826 14.3644 154.39 14.8372 152.04C12.2432 150.831 10.1304 148.786 8.83783 146.232C7.54522 143.679 7.14769 140.766 7.709 137.959V137.956Z" fill="#00A6FB"/>
<path opacity="0.1" d="M31.628 134.71C32.9263 137.265 33.3232 140.184 32.7545 142.993C34.9278 144.005 36.7724 145.609 38.0773 147.62C39.3822 149.632 40.0948 151.97 40.1335 154.367C40.1722 156.764 39.5355 159.124 38.2962 161.176C37.0569 163.229 35.2651 164.891 33.1256 165.973C30.986 167.055 28.5852 167.513 26.1976 167.294C23.81 167.076 21.5321 166.19 19.6242 164.738C17.7164 163.286 16.2557 161.327 15.4091 159.084C14.5626 156.84 14.3644 154.404 14.8372 152.054C12.3274 150.889 30.9839 133.433 31.628 134.71Z" fill="black"/>
<path opacity="0.1" d="M17.2379 116.223C18.2857 116.223 19.1352 115.373 19.1352 114.326C19.1352 113.278 18.2857 112.428 17.2379 112.428C16.19 112.428 15.3405 113.278 15.3405 114.326C15.3405 115.373 16.19 116.223 17.2379 116.223Z" fill="#00A6FB"/>
<path opacity="0.1" d="M6.16369 117.441C7.21155 117.441 8.06102 116.591 8.06102 115.543C8.06102 114.495 7.21155 113.646 6.16369 113.646C5.11582 113.646 4.26636 114.495 4.26636 115.543C4.26636 116.591 5.11582 117.441 6.16369 117.441Z" fill="#00A6FB"/>
<path opacity="0.1" d="M1.89733 134.474C2.9452 134.474 3.79466 133.625 3.79466 132.577C3.79466 131.529 2.9452 130.68 1.89733 130.68C0.849464 130.68 0 131.529 0 132.577C0 133.625 0.849464 134.474 1.89733 134.474Z" fill="#00A6FB"/>
<path opacity="0.1" d="M7.65972 142.983C8.70759 142.983 9.55705 142.133 9.55705 141.085C9.55705 140.037 8.70759 139.188 7.65972 139.188C6.61185 139.188 5.76239 140.037 5.76239 141.085C5.76239 142.133 6.61185 142.983 7.65972 142.983Z" fill="#00A6FB"/>
<path opacity="0.1" d="M15.5306 160.65C16.5785 160.65 17.428 159.801 17.428 158.753C17.428 157.705 16.5785 156.855 15.5306 156.855C14.4828 156.855 13.6333 157.705 13.6333 158.753C13.6333 159.801 14.4828 160.65 15.5306 160.65Z" fill="#00A6FB"/>
<path opacity="0.1" d="M15.5306 160.65C16.5785 160.65 17.428 159.801 17.428 158.753C17.428 157.705 16.5785 156.855 15.5306 156.855C14.4828 156.855 13.6333 157.705 13.6333 158.753C13.6333 159.801 14.4828 160.65 15.5306 160.65Z" fill="black"/>
<path opacity="0.1" d="M33.0361 140.638C34.084 140.638 34.9334 139.789 34.9334 138.741C34.9334 137.693 34.084 136.844 33.0361 136.844C31.9882 136.844 31.1388 137.693 31.1388 138.741C31.1388 139.789 31.9882 140.638 33.0361 140.638Z" fill="#00A6FB"/>
<path opacity="0.1" d="M33.0361 140.638C34.084 140.638 34.9334 139.789 34.9334 138.741C34.9334 137.693 34.084 136.844 33.0361 136.844C31.9882 136.844 31.1388 137.693 31.1388 138.741C31.1388 139.789 31.9882 140.638 33.0361 140.638Z" fill="black"/>
<path opacity="0.1" d="M35.0601 169.922C36.3203 169.285 36.7005 167.482 35.9648 165.817C36.0035 165.888 36.0422 165.955 36.0774 166.025C36.9469 167.746 36.5879 169.679 35.2713 170.344C33.9548 171.01 32.1877 170.154 31.3183 168.433C31.2831 168.362 31.2479 168.292 31.2162 168.218C32.1209 169.799 33.7999 170.559 35.0601 169.922Z" fill="black"/>
<path opacity="0.1" d="M36.9293 173.625C38.1895 172.988 38.5732 171.182 37.8375 169.521C37.8762 169.587 37.9149 169.658 37.9501 169.728C38.8196 171.45 38.4605 173.382 37.144 174.047C35.8275 174.713 34.0604 173.857 33.191 172.136C33.1522 172.066 33.1205 171.992 33.0889 171.921C33.9935 173.509 35.6761 174.262 36.9293 173.625Z" fill="black"/>
<path opacity="0.1" d="M38.802 177.325C40.0622 176.688 40.4459 174.885 39.7067 173.22C39.7489 173.291 39.7841 173.358 39.8228 173.431C40.6923 175.149 40.3297 177.085 39.0167 177.747C37.7037 178.409 35.9331 177.557 35.0637 175.836C35.0249 175.765 34.9933 175.695 34.9616 175.621C35.8627 177.201 37.5418 177.962 38.802 177.325Z" fill="black"/>
<path opacity="0.1" d="M40.6747 181.028C41.9349 180.391 42.3186 178.588 41.5794 176.923C41.6181 176.99 41.6568 177.061 41.692 177.131C42.565 178.852 42.2024 180.785 40.8894 181.45C39.5764 182.115 37.8023 181.26 36.9328 179.539C36.8976 179.468 36.8659 179.394 36.8343 179.324C37.7354 180.901 39.4145 181.665 40.6747 181.028Z" fill="black"/>
<path opacity="0.1" d="M42.5474 184.727C43.8076 184.09 44.1877 182.288 43.452 180.626C43.4908 180.693 43.5295 180.764 43.5647 180.834C44.4341 182.555 44.0751 184.488 42.7621 185.153C41.4491 185.819 39.675 184.96 38.8055 183.242C38.7703 183.168 38.7386 183.098 38.7034 183.027C39.6081 184.604 41.2872 185.364 42.5474 184.727Z" fill="black"/>
<path opacity="0.1" d="M44.42 188.431C45.6802 187.794 46.0604 185.991 45.3247 184.326C45.3634 184.397 45.4022 184.463 45.4374 184.534C46.3068 186.255 45.9478 188.188 44.6348 188.853C43.3218 189.518 41.5477 188.663 40.6782 186.942C40.643 186.871 40.6078 186.801 40.5761 186.727C41.4808 188.293 43.1599 189.068 44.42 188.431Z" fill="black"/>
<path opacity="0.1" d="M46.2928 192.134C47.5494 191.497 47.9331 189.691 47.1974 188.029C47.2361 188.096 47.2749 188.167 47.3101 188.237C48.1795 189.958 47.8205 191.891 46.504 192.556C45.1874 193.221 43.4204 192.362 42.5509 190.645C42.5157 190.571 42.4805 190.5 42.4488 190.43C43.3535 192.007 45.0326 192.771 46.2928 192.134Z" fill="black"/>
<path opacity="0.1" d="M48.1619 195.833C49.4221 195.196 49.8058 193.394 49.0666 191.729C49.1088 191.799 49.144 191.866 49.1827 191.94C50.0522 193.658 49.6896 195.594 48.3766 196.256C47.0637 196.918 45.2931 196.066 44.4236 194.344C44.3849 194.274 44.3532 194.204 44.3215 194.13C45.2262 195.71 46.9017 196.471 48.1619 195.833Z" fill="black"/>
<path opacity="0.1" d="M49.4045 198.266C50.6647 197.628 51.0449 195.826 50.3092 194.161C50.3479 194.232 50.3866 194.298 50.4218 194.372C51.2913 196.09 50.9322 198.026 49.6192 198.688C48.3063 199.35 46.5321 198.498 45.6627 196.777C45.6275 196.706 45.5923 196.636 45.5606 196.562C46.4547 198.149 48.1338 198.903 49.4045 198.266Z" fill="black"/>
<path opacity="0.1" d="M15.5623 181.792C15.3668 181.232 15.2484 180.648 15.2103 180.056C15.0802 180.056 14.9515 180.028 14.8323 179.976C14.7132 179.924 14.6061 179.847 14.5179 179.752C14.4296 179.656 14.3619 179.543 14.3192 179.42C14.2765 179.297 14.2596 179.167 14.2695 179.037C14.2795 178.907 14.3161 178.781 14.377 178.666C14.438 178.551 14.522 178.45 14.6238 178.368C14.7257 178.287 14.8431 178.228 14.9689 178.195C15.0946 178.161 15.2259 178.154 15.3546 178.173C15.5659 177.213 15.9878 176.313 16.5899 175.537C17.192 174.761 17.9593 174.128 18.836 173.685C18.7226 173.46 18.703 173.2 18.7816 172.961C18.8601 172.722 19.0304 172.524 19.2549 172.41C19.4794 172.297 19.7398 172.277 19.9788 172.356C20.2178 172.435 20.4158 172.605 20.5292 172.829C20.5704 172.909 20.5989 172.994 20.6137 173.083C21.6553 172.892 22.7274 172.952 23.7412 173.258C24.755 173.564 25.6812 174.107 26.4429 174.843C27.0248 174.748 27.6168 174.731 28.203 174.794L28.9704 178.286L28.988 174.917C29.8608 175.119 30.6837 175.495 31.4071 176.023C32.1305 176.552 32.7394 177.221 33.1972 177.991C33.6549 178.761 33.952 179.616 34.0705 180.504C34.1891 181.392 34.1266 182.294 33.8868 183.158C33.6471 184.021 33.2351 184.826 32.6756 185.526C32.1161 186.226 31.4207 186.805 30.6314 187.228C29.8421 187.652 28.9752 187.911 28.0829 187.991C27.1907 188.07 26.2915 187.968 25.4397 187.691C25.3471 187.855 25.2089 187.988 25.0419 188.075C24.868 188.163 24.6712 188.195 24.4783 188.167C24.2854 188.139 24.1057 188.053 23.9635 187.92C23.8214 187.786 23.7236 187.613 23.6836 187.422C23.6435 187.231 23.663 187.033 23.7395 186.853C23.4377 186.643 23.1539 186.407 22.8912 186.149C21.5066 186.374 20.0865 186.154 18.8344 185.522C17.5824 184.889 16.5627 183.877 15.9214 182.629L19.4943 182.027L15.5623 181.792Z" fill="#00A6FB"/>
<g opacity="0.1">
<path opacity="0.1" d="M21.0818 183.489C22.4019 181.729 23.2115 179.687 24.1408 177.709C24.513 176.895 24.9314 176.102 25.394 175.336L26.098 174.523C26.2177 174.625 26.3338 174.727 26.45 174.833C27.0318 174.737 27.6238 174.721 28.21 174.783L28.9774 178.275L28.988 174.917C29.8608 175.119 30.6837 175.495 31.4071 176.024C32.1305 176.552 32.7394 177.221 33.1972 177.991C33.6549 178.761 33.952 179.616 34.0705 180.504C34.1891 181.392 34.1266 182.295 33.8868 183.158C33.6471 184.021 33.2351 184.827 32.6756 185.526C32.1161 186.226 31.4207 186.805 30.6314 187.229C29.8421 187.652 28.9752 187.912 28.0829 187.991C27.1907 188.071 26.2915 187.969 25.4397 187.692C25.3471 187.855 25.2089 187.989 25.0419 188.075C24.868 188.163 24.6712 188.195 24.4783 188.168C24.2854 188.14 24.1057 188.053 23.9635 187.92C23.8214 187.787 23.7236 187.613 23.6836 187.422C23.6435 187.232 23.663 187.033 23.7395 186.854C23.4377 186.643 23.1539 186.408 22.8912 186.15C21.5352 186.367 20.1452 186.162 18.9099 185.562C19.7408 184.992 20.4742 184.292 21.0818 183.489Z" fill="black"/>
</g>
<path opacity="0.1" d="M44.4447 176.005C44.3884 175.894 44.3546 175.773 44.3452 175.649C44.3358 175.525 44.351 175.401 44.3899 175.282C44.4288 175.164 44.4907 175.055 44.572 174.961C44.6533 174.867 44.7524 174.79 44.8636 174.734C44.9965 174.666 45.1438 174.631 45.2931 174.632C45.5616 173.207 46.2898 171.908 47.3664 170.936C47.1923 170.26 47.127 169.56 47.1728 168.863L50.6542 168.278L47.2713 168.064C47.3326 167.746 47.4173 167.433 47.5248 167.127C47.3919 167.039 47.284 166.918 47.2115 166.775C47.1269 166.606 47.0948 166.415 47.1196 166.227C47.1443 166.039 47.2246 165.863 47.3503 165.721C47.4759 165.579 47.6411 165.478 47.8246 165.43C48.0081 165.383 48.2016 165.392 48.3802 165.455C49.0019 164.571 49.8326 163.854 50.7985 163.368C51.9361 162.79 53.216 162.554 54.4849 162.685C55.7538 162.817 56.9577 163.312 57.9523 164.111C58.9469 164.91 59.6901 165.979 60.0926 167.189C60.4951 168.4 60.54 169.701 60.2218 170.936C60.3872 171.007 60.529 171.124 60.6306 171.272C60.7321 171.421 60.7892 171.595 60.7951 171.775C60.801 171.955 60.7555 172.133 60.664 172.288C60.5724 172.443 60.4385 172.569 60.2781 172.65C60.1578 172.711 60.0259 172.746 59.8912 172.752C59.7564 172.758 59.6219 172.735 59.4966 172.685C59.1569 173.255 58.7333 173.77 58.24 174.213C58.6007 175.617 58.4932 177.1 57.9337 178.437L53.2766 177.212L57.4409 179.405C56.8157 180.403 55.9364 181.216 54.8932 181.762C53.85 182.308 52.6803 182.567 51.5042 182.512C50.3281 182.456 49.1879 182.089 48.2003 181.448C47.2128 180.807 46.4135 179.915 45.8844 178.863C45.5161 178.131 45.2847 177.338 45.2015 176.522C45.0417 176.508 44.8882 176.453 44.7557 176.362C44.6233 176.272 44.5162 176.149 44.4447 176.005V176.005Z" fill="#00A6FB"/>
<path opacity="0.1" d="M44.4447 176.005C44.3884 175.894 44.3546 175.773 44.3452 175.649C44.3358 175.525 44.351 175.4 44.3899 175.282C44.4288 175.164 44.4907 175.055 44.572 174.961C44.6533 174.867 44.7524 174.79 44.8636 174.734C44.9965 174.666 45.1438 174.631 45.2931 174.632C45.5616 173.206 46.2898 171.908 47.3664 170.936C47.3382 170.827 47.3136 170.714 47.2925 170.605C47.4187 170.695 47.5366 170.796 47.6445 170.908C48.2746 171.612 48.5984 172.523 49.218 173.22C49.9942 174.021 51.0379 174.509 52.1502 174.59C53.252 174.666 54.3589 174.577 55.4344 174.326C56.3214 174.097 57.2365 173.996 58.152 174.026L58.4124 174.062L58.2505 174.213C58.6113 175.617 58.5038 177.1 57.9443 178.437L53.2766 177.212L57.4409 179.405C56.8157 180.403 55.9364 181.216 54.8932 181.762C53.85 182.308 52.6803 182.567 51.5042 182.511C50.3281 182.456 49.1879 182.089 48.2003 181.448C47.2128 180.807 46.4135 179.915 45.8844 178.863C45.5161 178.131 45.2847 177.338 45.2015 176.522C45.0417 176.508 44.8882 176.453 44.7557 176.362C44.6233 176.271 44.5162 176.148 44.4447 176.005V176.005Z" fill="black"/>
</g>
<path opacity="0.1" d="M121.918 18.2728C120.527 18.0086 119.088 18.1655 117.786 18.7234C117.005 19.0714 116.159 19.2513 115.304 19.2513C114.449 19.2513 113.604 19.0714 112.823 18.7234C111.899 18.3187 110.899 18.1195 109.892 18.1396C108.884 18.1596 107.893 18.3985 106.986 18.8395C106.469 19.1129 105.892 19.2566 105.307 19.2584C102.942 19.2584 100.974 16.8753 100.566 13.7319C101.037 13.3861 101.439 12.9537 101.748 12.4576C103.135 10.2223 105.268 8.78613 107.694 8.78613C110.119 8.78613 112.231 10.1942 113.618 12.4153C114.032 13.0824 114.611 13.6316 115.299 14.0101C115.987 14.3886 116.761 14.5838 117.546 14.5767H117.61C119.476 14.5661 121.105 16.0762 121.918 18.2728Z" fill="#00A6FB"/>
<path opacity="0.1" d="M129.107 8.41655L125.284 10.8419L127.603 6.61778C126.946 6.09358 126.132 5.80373 125.291 5.79408H125.231C124.966 5.79732 124.701 5.77729 124.439 5.73423L123.14 6.55794L123.696 5.54767C122.781 5.22913 121.988 4.63215 121.429 3.84042L119.102 5.29422L120.567 2.62951C119.212 0.999706 117.381 0 115.371 0C112.96 0 110.795 1.4362 109.422 3.67146C109.011 4.33912 108.431 4.88619 107.741 5.25714C107.05 5.62808 106.274 5.80969 105.49 5.78351H105.374C102.713 5.78351 100.551 8.80024 100.551 12.528C100.551 16.2558 102.713 19.269 105.374 19.269C105.959 19.2672 106.536 19.1235 107.053 18.8501C107.959 18.4087 108.951 18.1699 109.959 18.1505C110.967 18.131 111.967 18.3313 112.889 18.7375C113.671 19.0844 114.516 19.2637 115.371 19.2637C116.226 19.2637 117.071 19.0844 117.853 18.7375C118.768 18.34 119.759 18.1443 120.757 18.1637C121.755 18.1831 122.737 18.4172 123.636 18.8501C124.15 19.1162 124.719 19.2561 125.298 19.2584C127.962 19.2584 130.12 16.2417 130.12 12.5175C130.13 11.0873 129.781 9.67759 129.107 8.41655V8.41655Z" fill="#00A6FB"/>
<path opacity="0.1" d="M42.3643 67.0403C40.3766 66.6642 38.3219 66.8872 36.4611 67.6809C35.3444 68.176 34.136 68.4302 32.9145 68.4272C31.693 68.4242 30.4859 68.1639 29.3717 67.6633C28.0533 67.0853 26.625 66.8007 25.1857 66.8293C23.7464 66.8578 22.3305 67.1989 21.0361 67.8288C20.2958 68.2188 19.4721 68.4241 18.6354 68.4272C15.2561 68.4272 12.4435 65.0233 11.8592 60.5316C12.5345 60.0396 13.1082 59.4216 13.5488 58.7117C15.5307 55.519 18.6002 53.4668 22.0463 53.4668C25.4925 53.4668 28.5233 55.4944 30.4946 58.6519C31.087 59.6089 31.9171 60.3962 32.9041 60.9372C33.8911 61.4782 35.0013 61.7544 36.1267 61.739H36.2147C38.883 61.7355 41.2133 63.8933 42.3643 67.0403Z" fill="#00A6FB"/>
<path opacity="0.1" d="M52.643 52.942L47.1798 56.4058L50.4958 50.3759C49.556 49.6257 48.3927 49.2107 47.1904 49.1966H47.1024C46.7228 49.2022 46.3435 49.1739 45.9689 49.1122L44.1244 50.3055L44.9199 48.8622C43.6073 48.4035 42.4736 47.5409 41.6814 46.3982L38.3655 48.5102L40.4529 44.6733C38.5134 42.3465 35.9014 40.9209 33.029 40.9209C29.5829 40.9209 26.5134 42.9696 24.5315 46.1623C23.9446 47.1204 23.114 47.9056 22.1246 48.4381C21.1352 48.9705 20.0223 49.231 18.8994 49.1931H18.7128C14.9076 49.1931 11.824 53.5052 11.824 58.8276C11.824 64.15 14.9076 68.4621 18.7128 68.4621C19.5501 68.4599 20.3742 68.2533 21.1135 67.8602C22.4082 67.2308 23.8242 66.8904 25.2635 66.8624C26.7028 66.8345 28.131 67.1197 29.4491 67.6983C30.5633 68.1988 31.7705 68.4591 32.992 68.4621C34.2135 68.4651 35.4219 68.2109 36.5386 67.7159C37.847 67.148 39.2623 66.8682 40.6884 66.8955C42.1145 66.9228 43.518 67.2566 44.8038 67.8743C45.5361 68.2575 46.3498 68.4591 47.1763 68.4621C50.9815 68.4621 54.0651 64.1465 54.0651 58.8276C54.0917 56.7776 53.6026 54.7538 52.643 52.942V52.942Z" fill="#00A6FB"/>
<path opacity="0.1" d="M263.292 32.0008C264.684 31.7369 266.123 31.8937 267.425 32.4514C268.205 32.7996 269.05 32.9796 269.905 32.9796C270.76 32.9796 271.604 32.7996 272.385 32.4514C273.308 32.0467 274.308 31.8476 275.316 31.8676C276.324 31.8877 277.315 32.1265 278.221 32.5676C278.739 32.8406 279.315 32.9843 279.9 32.9865C282.266 32.9865 284.237 30.6034 284.645 27.4599C284.173 27.1151 283.771 26.6824 283.463 26.1856C282.083 23.9433 279.925 22.4966 277.507 22.4966C275.088 22.4966 272.973 23.9046 271.586 26.1258C271.172 26.7958 270.593 27.3478 269.903 27.7283C269.214 28.1087 268.438 28.3049 267.65 28.2977H267.59C265.718 28.2942 264.084 29.8043 263.292 32.0008Z" fill="#00A6FB"/>
<path opacity="0.1" d="M256.083 22.145L259.906 24.5633L257.583 20.3392C258.241 19.8155 259.055 19.5257 259.896 19.5155H259.959C260.224 19.5186 260.489 19.4986 260.751 19.4557L262.046 20.2794L261.49 19.2691C262.412 18.9559 263.212 18.3612 263.778 17.5689L266.098 19.0403L264.63 16.3756C265.989 14.7458 267.798 13.7461 269.829 13.7461C272.241 13.7461 274.405 15.1823 275.778 17.4176C276.189 18.0855 276.769 18.6327 277.459 19.0037C278.15 19.3747 278.927 19.5561 279.71 19.5296H279.837C282.502 19.5296 284.659 22.5463 284.659 26.2741C284.659 30.0019 282.502 33.0151 279.837 33.0151C279.252 33.0125 278.676 32.8688 278.158 32.5962C277.252 32.1548 276.26 31.916 275.252 31.8966C274.244 31.8771 273.244 32.0774 272.322 32.4836C271.541 32.8305 270.696 33.0097 269.842 33.0097C268.987 33.0097 268.142 32.8305 267.362 32.4836C266.445 32.086 265.454 31.8903 264.456 31.9097C263.457 31.9291 262.475 32.1633 261.575 32.5962C261.061 32.8626 260.492 33.0026 259.913 33.0045C257.252 33.0045 255.091 29.9878 255.091 26.2635C255.072 24.8293 255.413 23.4132 256.083 22.145V22.145Z" fill="#00A6FB"/>
<path opacity="0.1" d="M216.708 273.469C239.065 273.469 257.189 270.317 257.189 266.429C257.189 262.541 239.065 259.389 216.708 259.389C194.35 259.389 176.226 262.541 176.226 266.429C176.226 270.317 194.35 273.469 216.708 273.469Z" fill="#00A6FB"/>
<path d="M195.52 232.988L132.796 232.182L132.982 230.573L136.013 204.035H191.099L195.15 230.573L195.46 232.587L195.52 232.988Z" fill="#D0D2D5"/>
<path opacity="0.1" d="M195.46 232.587H164.16L132.796 232.182L132.982 230.573H195.15L195.46 232.587Z" fill="black"/>
<path d="M205.573 230.978H122.341V232.988H205.573V230.978Z" fill="#D0D2D5"/>
<path d="M284.983 44.645C284.988 43.258 284.442 41.9258 283.465 40.9411C282.488 39.9564 281.161 39.3996 279.774 39.3931H47.3347C46.6473 39.3963 45.9673 39.5349 45.3335 39.8009C44.6996 40.067 44.1244 40.4552 43.6406 40.9436C43.1569 41.4319 42.774 42.0108 42.514 42.6471C42.2539 43.2834 42.1217 43.9647 42.125 44.6521V185.544H284.983V44.645Z" fill="#003554"/>
<path d="M42.125 184.136V200.638C42.125 202.02 42.6738 203.345 43.6509 204.322C44.6279 205.299 45.953 205.848 47.3347 205.848H279.774C281.155 205.848 282.48 205.299 283.457 204.322C284.434 203.345 284.983 202.02 284.983 200.638V184.136H42.125Z" fill="#D0D2D5"/>
<path d="M276.137 48.229H52.1783V174.885H276.137V48.229Z" fill="white"/>
<path d="M164.762 199.586C165.584 199.587 166.396 199.4 167.135 199.041C167.875 198.682 168.524 198.159 169.031 197.512C169.186 197.315 169.327 197.108 169.454 196.893L166.472 196.389L169.693 196.411C170.002 195.739 170.17 195.011 170.188 194.272C170.205 193.533 170.072 192.798 169.795 192.112L165.476 194.351L169.461 191.423C169.087 190.779 168.584 190.22 167.985 189.779C167.385 189.338 166.701 189.025 165.976 188.86C165.25 188.695 164.498 188.68 163.767 188.817C163.035 188.955 162.34 189.241 161.724 189.659C161.108 190.076 160.584 190.616 160.186 191.244C159.787 191.873 159.522 192.576 159.407 193.311C159.291 194.047 159.328 194.798 159.516 195.518C159.703 196.238 160.036 196.912 160.495 197.498V197.498C161.001 198.147 161.648 198.672 162.388 199.034C163.127 199.396 163.939 199.584 164.762 199.586V199.586Z" fill="#00A6FB"/>
<path opacity="0.1" d="M170.189 205.845L195.214 230.978L191.373 205.845H170.189Z" fill="black"/>
<path opacity="0.1" d="M276.204 48.2432H52.0023V55.6424H276.204V48.2432Z" fill="#444053"/>
<path opacity="0.3" d="M197.192 49.5312H130.05C129.937 49.5312 129.846 49.6227 129.846 49.7354V53.8293C129.846 53.942 129.937 54.0335 130.05 54.0335H197.192C197.305 54.0335 197.396 53.942 197.396 53.8293V49.7354C197.396 49.6227 197.305 49.5312 197.192 49.5312Z" fill="#00A6FB"/>
<path d="M195.39 52.2489H195.224L195.165 52.1961C195.369 51.9499 195.481 51.6398 195.481 51.3195C195.479 51.0567 195.399 50.8003 195.252 50.5828C195.104 50.3653 194.895 50.1964 194.652 50.0975C194.408 49.9985 194.141 49.9738 193.883 50.0266C193.626 50.0795 193.39 50.2074 193.205 50.3942C193.02 50.5811 192.895 50.8185 192.845 51.0765C192.794 51.3346 192.822 51.6017 192.924 51.8442C193.025 52.0866 193.196 52.2936 193.415 52.4389C193.634 52.5842 193.891 52.6614 194.154 52.6607C194.475 52.6596 194.785 52.5462 195.031 52.3404L195.091 52.3932V52.5586L196.122 53.59L196.428 53.2802L195.39 52.2489ZM194.154 52.2489C193.97 52.2496 193.79 52.1956 193.637 52.094C193.484 51.9923 193.364 51.8474 193.293 51.6776C193.222 51.5079 193.203 51.3209 193.239 51.1404C193.274 50.9599 193.363 50.794 193.492 50.6637C193.622 50.5334 193.788 50.4445 193.968 50.4084C194.149 50.3722 194.336 50.3904 194.506 50.4606C194.676 50.5309 194.821 50.65 194.923 50.8029C195.025 50.9558 195.08 51.1356 195.08 51.3195C195.081 51.4416 195.058 51.5625 195.012 51.6755C194.965 51.7884 194.897 51.8911 194.811 51.9775C194.725 52.0639 194.623 52.1324 194.51 52.179C194.397 52.2256 194.276 52.2493 194.154 52.2489V52.2489Z" fill="#003554"/>
<path opacity="0.8" d="M56.0328 53.2979C56.7813 53.2979 57.3881 52.6911 57.3881 51.9426C57.3881 51.1942 56.7813 50.5874 56.0328 50.5874C55.2844 50.5874 54.6776 51.1942 54.6776 51.9426C54.6776 52.6911 55.2844 53.2979 56.0328 53.2979Z" fill="#FA5959"/>
<path opacity="0.8" d="M59.7606 53.2979C60.5091 53.2979 61.1159 52.6911 61.1159 51.9426C61.1159 51.1942 60.5091 50.5874 59.7606 50.5874C59.0122 50.5874 58.4054 51.1942 58.4054 51.9426C58.4054 52.6911 59.0122 53.2979 59.7606 53.2979Z" fill="#FED253"/>
<path opacity="0.8" d="M63.4919 53.2979C64.2404 53.2979 64.8472 52.6911 64.8472 51.9426C64.8472 51.1942 64.2404 50.5874 63.4919 50.5874C62.7434 50.5874 62.1367 51.1942 62.1367 51.9426C62.1367 52.6911 62.7434 53.2979 63.4919 53.2979Z" fill="#8CCF4D"/>
<path d="M176.022 102.576C172.949 98.4922 168.496 95.9155 163.54 95.9155C158.584 95.9155 154.131 98.4922 151.058 102.576C151.737 104.242 152.742 105.756 154.015 107.028C155.587 108.6 157.523 109.758 159.652 110.4C161.78 111.041 164.034 111.146 166.213 110.705C168.392 110.264 170.428 109.291 172.139 107.873C173.851 106.454 175.185 104.635 176.022 102.576V102.576Z" fill="#00A6FB"/>
<path d="M148.815 104.614C149.008 104.754 149.216 104.872 149.435 104.966C151.793 109.736 156.679 113.386 162.287 113.692V136.309C158.045 136.055 154.648 133.919 151.793 130.585C151.547 130.772 151.364 130.941 151.195 131.099C150.958 131.323 150.792 131.613 150.719 131.931C150.646 132.249 150.668 132.582 150.783 132.887C150.938 133.308 150.978 133.762 150.9 134.204C150.821 134.645 150.626 135.058 150.336 135.399C150.045 135.74 149.669 135.998 149.246 136.146C148.823 136.294 148.368 136.327 147.928 136.241C147.488 136.155 147.078 135.954 146.742 135.658C146.405 135.362 146.153 134.981 146.012 134.556C145.871 134.13 145.846 133.675 145.939 133.236C146.032 132.798 146.24 132.392 146.542 132.06C146.632 131.96 146.731 131.869 146.837 131.785C146.898 131.73 146.966 131.681 147.038 131.641C147.425 130.24 148.344 128.976 149.836 127.818C148.157 124.948 147.129 121.742 146.827 118.43C146.609 118.432 146.392 118.446 146.175 118.472C145.882 118.512 145.605 118.631 145.374 118.817C145.144 119.004 144.969 119.25 144.869 119.529C144.707 119.961 144.429 120.34 144.066 120.626C143.703 120.912 143.269 121.093 142.811 121.15C142.353 121.206 141.887 121.137 141.466 120.948C141.044 120.759 140.682 120.458 140.42 120.079C140.157 119.699 140.003 119.254 139.974 118.793C139.946 118.332 140.044 117.872 140.258 117.463C140.473 117.054 140.795 116.712 141.19 116.472C141.585 116.233 142.039 116.107 142.5 116.107C142.603 116.109 142.705 116.116 142.807 116.128C143.185 115.856 143.604 115.647 144.049 115.509C144.918 115.237 145.821 115.091 146.732 115.076C146.821 112.727 147.265 110.406 148.048 108.19C147.479 107.867 146.943 107.49 146.446 107.064C145.963 106.632 145.566 106.111 145.278 105.529C145.125 105.235 144.892 104.991 144.605 104.825C144.385 104.692 144.184 104.53 144.007 104.343C143.694 104.005 143.479 103.589 143.386 103.139C143.292 102.688 143.323 102.221 143.476 101.786C143.628 101.352 143.896 100.968 144.251 100.675C144.606 100.382 145.034 100.192 145.489 100.124C145.944 100.057 146.409 100.114 146.834 100.292C147.258 100.469 147.626 100.759 147.899 101.13C148.171 101.501 148.336 101.939 148.377 102.398C148.419 102.856 148.334 103.317 148.133 103.73C148.29 104.073 148.524 104.375 148.815 104.614Z" fill="#00A6FB"/>
<path d="M178.324 104.614C178.132 104.754 177.924 104.872 177.705 104.966C175.346 109.736 170.461 113.386 164.853 113.692V136.309C169.095 136.055 172.492 133.919 175.346 130.585C175.593 130.772 175.776 130.941 175.945 131.099C176.182 131.323 176.347 131.613 176.421 131.931C176.494 132.249 176.472 132.582 176.357 132.887C176.202 133.308 176.162 133.762 176.24 134.204C176.319 134.645 176.513 135.058 176.804 135.399C177.095 135.74 177.471 135.998 177.894 136.146C178.317 136.294 178.772 136.327 179.212 136.241C179.652 136.155 180.062 135.954 180.398 135.658C180.735 135.362 180.986 134.981 181.128 134.556C181.269 134.13 181.294 133.675 181.201 133.236C181.108 132.798 180.9 132.392 180.598 132.06C180.508 131.96 180.409 131.869 180.303 131.785C180.242 131.73 180.174 131.681 180.102 131.641C179.715 130.24 178.796 128.976 177.304 127.818C178.983 124.948 180.011 121.742 180.313 118.43C180.531 118.432 180.748 118.446 180.964 118.472C181.258 118.512 181.535 118.631 181.765 118.817C181.996 119.004 182.17 119.25 182.27 119.529C182.433 119.961 182.711 120.34 183.074 120.626C183.436 120.912 183.871 121.093 184.329 121.15C184.787 121.206 185.253 121.137 185.674 120.948C186.096 120.759 186.457 120.458 186.72 120.079C186.983 119.699 187.137 119.254 187.166 118.793C187.194 118.332 187.096 117.872 186.881 117.463C186.667 117.054 186.345 116.712 185.95 116.472C185.554 116.233 185.101 116.107 184.639 116.107C184.537 116.109 184.435 116.116 184.333 116.128C183.955 115.856 183.535 115.647 183.091 115.509C182.222 115.237 181.319 115.091 180.408 115.076C180.319 112.727 179.875 110.406 179.092 108.19C179.661 107.867 180.197 107.49 180.693 107.064C181.177 106.632 181.574 106.111 181.862 105.529C182.015 105.235 182.248 104.991 182.534 104.825C182.755 104.692 182.956 104.53 183.133 104.343C183.446 104.005 183.661 103.589 183.754 103.139C183.848 102.688 183.817 102.221 183.664 101.786C183.512 101.352 183.244 100.968 182.889 100.675C182.534 100.382 182.106 100.192 181.651 100.124C181.196 100.057 180.731 100.114 180.306 100.292C179.882 100.469 179.513 100.759 179.241 101.13C178.969 101.501 178.804 101.939 178.763 102.398C178.721 102.856 178.806 103.317 179.007 103.73C178.85 104.073 178.616 104.375 178.324 104.614Z" fill="#00A6FB"/>
<path d="M239.718 262.324C239.514 262 239.256 261.713 238.955 261.476C237.416 260.022 236.702 257.889 236.321 255.798C235.941 253.707 235.832 251.574 235.223 249.529C234.892 248.48 234.478 247.46 233.984 246.477C233.632 245.724 233.189 244.249 232.544 243.721C232.418 243.611 232.265 243.537 232.101 243.506C231.797 242.859 231.363 242.282 230.827 241.809C229.82 240.898 228.591 240.172 227.919 238.993C227.734 238.584 227.506 238.196 227.24 237.835C226.786 237.335 226.067 237.131 225.649 236.603C225.103 235.92 225.226 234.942 225.297 234.072C225.367 233.203 225.297 232.161 224.543 231.703C224.093 231.425 223.512 231.453 223.044 231.207C222.34 230.855 222.062 229.968 222.076 229.176C222.09 228.384 222.336 227.613 222.4 226.821C222.597 224.3 220.935 221.794 221.576 219.351C221.819 218.425 222.375 217.623 222.787 216.76C222.93 216.473 223.048 216.174 223.139 215.866C224.237 216.302 225.391 216.58 226.567 216.693C224.628 212.343 225.121 207.288 224.216 202.613L224.332 202.455C225.246 201.249 225.765 199.791 225.818 198.28C225.818 196.541 225.004 194.915 224.638 193.211C224.325 191.764 224.339 190.25 223.934 188.828C223.653 187.945 223.281 187.093 222.822 186.287C222.383 185.472 221.922 184.671 221.439 183.883C220.988 182.39 220.536 180.898 220.083 179.405C219.45 177.311 218.798 175.181 217.566 173.372C217.116 172.71 216.979 171.365 216.285 170.964C215.722 170.672 215.083 170.561 214.455 170.644C213.476 170.094 212.617 169.302 212.494 168.218C212.482 167.981 212.506 167.744 212.564 167.514H212.684C214.233 167.373 215.018 166.008 215.824 164.811C217.126 162.875 216.63 160.256 215.824 158.052C215.624 157.357 215.262 156.718 214.768 156.19C213.638 155.134 211.85 155.366 210.392 154.856C209.903 154.687 209.446 154.43 208.946 154.31C207.978 154.085 206.964 154.402 206.077 154.849C205.19 155.296 204.363 155.873 203.433 156.225C202.504 156.577 201.356 156.855 201.128 157.809C201.063 158.131 201.09 158.463 201.205 158.77C201.419 159.382 201.795 159.925 202.293 160.34C201.897 161.156 201.683 162.048 201.665 162.954C201.648 163.861 201.827 164.761 202.191 165.591C202.555 166.422 203.094 167.163 203.772 167.765C204.451 168.367 205.251 168.815 206.119 169.077C206.387 169.507 206.637 169.943 206.865 170.39C207.274 171.179 207.619 172.108 207.478 172.953C207.223 173.223 206.988 173.511 206.774 173.815C205.764 175.223 205.19 176.874 204.662 178.521C203.953 180.625 203.385 182.774 202.962 184.953C202.103 186.78 201.054 188.526 200.431 190.444C199.315 190.445 198.204 190.296 197.129 190.001L194.158 189.328C193.123 189.092 192.046 188.839 191.236 188.156C190.807 187.804 190.472 187.336 190.036 186.987C189.599 186.639 188.723 186.231 188.244 186.519C188.157 186.572 188.075 186.635 188.001 186.706C187.565 185.822 187.149 184.946 186.642 184.09C185.914 182.893 184.83 181.799 183.457 181.57C182.618 181.435 181.76 181.635 181.067 182.126C180.264 182.696 179.761 183.886 180.363 184.689C180.513 184.867 180.677 185.034 180.852 185.189C181.259 185.658 181.623 186.163 181.94 186.699C183.074 188.291 184.772 189.394 186.688 189.782L186.565 190.134C186.315 190.866 185.784 191.75 185.917 192.51L199.132 197.034C199.979 197.378 200.879 197.576 201.793 197.622C202.149 197.619 202.504 197.571 202.849 197.481V198.157V198.185C202.884 202.828 202.145 207.439 202.008 212.079C201.983 212.927 202.008 213.839 202.543 214.5C203.141 215.226 204.204 215.37 205.13 215.204C205.353 215.167 205.571 215.118 205.785 215.057C206.098 216.224 206.324 217.414 206.461 218.615L207.334 224.902C207.446 225.546 207.492 226.199 207.471 226.852C207.369 228.327 206.591 229.647 206.028 231.01C205.464 232.372 205.13 234.002 205.869 235.276C206.101 235.67 206.422 236.005 206.63 236.413C206.893 237.045 207.014 237.728 206.982 238.412C207.035 240.309 207.087 242.207 207.136 244.108C206.983 244.083 206.825 244.114 206.693 244.196C205.961 244.766 206.042 247.48 205.989 248.321C205.933 249.729 205.989 251.166 205.911 252.588C205.82 254.504 205.512 256.404 204.993 258.252C204.866 258.852 204.588 259.41 204.187 259.874C203.775 260.232 203.284 260.487 202.754 260.617C201 261.166 199.166 261.416 197.329 261.356C196.587 261.332 195.812 261.261 195.122 261.543C194.432 261.825 193.876 262.599 194.126 263.303C194.341 263.894 194.992 264.176 195.58 264.398C196.923 264.871 198.219 265.467 199.452 266.179C199.927 266.502 200.427 266.786 200.948 267.027C201.448 267.207 201.964 267.334 202.49 267.407L208.731 268.485C210.009 268.703 211.547 268.837 212.36 267.781C212.8 267.21 212.864 266.436 212.842 265.711C212.807 264.303 212.526 262.87 212.709 261.462C212.848 260.63 213.067 259.813 213.363 259.023C213.985 257.176 214.61 255.33 215.236 253.485C215.863 251.634 216.496 249.765 216.739 247.822C216.827 247.118 216.82 246.315 216.282 245.875C216.145 245.763 215.987 245.682 215.817 245.636C215.796 243.939 215.574 242.239 215.669 240.542C215.694 240.12 215.736 239.697 215.771 239.271C216.097 239.581 216.389 239.926 216.641 240.299C217.243 241.243 217.464 242.489 218.383 243.115C219.165 243.65 220.323 243.622 220.872 244.397C221.048 244.694 221.181 245.015 221.266 245.35C221.585 246.18 222.063 246.94 222.674 247.586C222.884 248.358 223.175 249.107 223.544 249.817C224.062 250.913 224.578 252.006 225.092 253.095C225.621 254.27 226.208 255.418 226.852 256.534C227.344 257.236 227.741 258.001 228.032 258.808C228.528 260.547 227.718 262.455 226.437 263.736C225.156 265.017 223.466 265.753 221.801 266.439C221.626 266.499 221.465 266.595 221.329 266.721C221.185 266.892 221.109 267.11 221.115 267.333C221.115 268.147 221.784 268.844 222.551 269.093C223.335 269.304 224.157 269.334 224.955 269.182C229.454 268.636 233.938 267.538 237.916 265.352C238.511 265.07 239.038 264.663 239.461 264.158C239.666 263.904 239.798 263.6 239.843 263.277C239.888 262.954 239.845 262.625 239.718 262.324V262.324Z" fill="url(#paint0_linear)"/>
<path d="M220.706 183.387C221.457 184.539 222.161 185.719 222.818 186.928C223.279 187.727 223.653 188.573 223.934 189.452C224.343 190.86 224.332 192.363 224.638 193.799C224.99 195.489 225.814 197.101 225.814 198.833C225.76 200.333 225.241 201.78 224.329 202.972C223.419 204.155 222.377 205.229 221.224 206.176C218.566 199.289 217.081 192.006 216.831 184.629C216.796 183.608 216.789 182.556 217.162 181.602C217.39 181.003 218.489 179.363 219.196 180.007C219.453 180.243 219.52 181.306 219.678 181.662C219.975 182.263 220.319 182.84 220.706 183.387V183.387Z" fill="#003554"/>
<path opacity="0.1" d="M220.706 183.387C221.457 184.539 222.161 185.719 222.818 186.928C223.279 187.727 223.653 188.573 223.934 189.452C224.343 190.86 224.332 192.363 224.638 193.799C224.99 195.489 225.814 197.101 225.814 198.833C225.76 200.333 225.241 201.78 224.329 202.972C223.419 204.155 222.377 205.229 221.224 206.176C218.566 199.289 217.081 192.006 216.831 184.629C216.796 183.608 216.789 182.556 217.162 181.602C217.39 181.003 218.489 179.363 219.196 180.007C219.453 180.243 219.52 181.306 219.678 181.662C219.975 182.263 220.319 182.84 220.706 183.387V183.387Z" fill="black"/>
<path d="M127.903 135.362C125.118 138.143 124.784 139.368 123.112 139.92C121.44 140.473 115.424 143.588 117.314 147.041L122.397 150.399L122.545 150.498L123.323 152.835L115.635 166.522C115.635 166.522 102.963 160.727 101.72 169.299C100.478 177.87 101.266 180.211 100.932 184.787C100.597 189.363 101.041 190.687 99.9249 190.687C98.809 190.687 98.369 187.681 98.369 187.681C98.369 187.681 98.2986 187.544 98.1754 187.287C96.5174 183.84 85.2637 158.541 103.29 141.152C103.29 141.152 111.64 140.603 113.65 131.028C115.037 124.411 119.887 124.981 123.112 126.329C124.16 126.74 125.136 127.314 126.005 128.029C126.787 128.77 127.483 129.596 128.079 130.493C128.997 131.944 129.497 133.764 127.903 135.362Z" fill="#D0D2D5"/>
<path opacity="0.1" d="M122.545 150.498L123.323 152.835L115.635 166.521C115.635 166.521 102.963 160.727 101.72 169.299C100.478 177.87 101.266 180.211 100.932 184.787C100.597 189.363 101.041 190.687 99.9249 190.687C98.8091 190.687 98.369 187.681 98.369 187.681C98.369 187.681 98.2986 187.543 98.1754 187.286C97.6157 183.006 94.7785 157.968 105.064 159.298C105.064 159.298 113.41 163.198 114.745 161.643C115.801 160.411 120.489 153.325 122.397 150.417L122.545 150.498Z" fill="black"/>
<path opacity="0.1" d="M128.079 130.472L122.996 136.249C122.996 136.249 117.092 144.148 115.867 143.813C115.501 143.733 115.127 143.69 114.752 143.683C114.343 143.652 113.952 143.505 113.623 143.261C113.294 143.016 113.041 142.683 112.894 142.301C112.746 141.918 112.71 141.502 112.79 141.1C112.87 140.698 113.062 140.327 113.344 140.029C115.357 137.917 119.067 133.908 119.31 133.017C119.553 132.127 121.915 128.223 123.098 126.312C124.146 126.722 125.122 127.296 125.991 128.012C126.778 128.75 127.478 129.576 128.079 130.472V130.472Z" fill="black"/>
<path d="M271.896 213.578C271.033 215.303 266.615 221.773 264.683 224.6L263.778 225.93C263.778 225.93 263.426 228.268 257.657 225.37C251.887 222.473 116.332 165.275 116.332 165.275L115.413 162.516L122.102 152.501L270.674 209.903C270.674 209.903 273.011 211.35 271.896 213.578Z" fill="#005080"/>
<path opacity="0.1" d="M264.683 224.6L263.778 225.93C263.778 225.93 263.426 228.267 257.657 225.37C251.887 222.473 116.332 165.275 116.332 165.275L115.413 162.516L264.683 224.6Z" fill="black"/>
<path d="M182.918 187.237C181.542 187.012 180.014 187.121 178.944 188.015C178.297 188.563 177.888 189.34 177.803 190.184C177.712 191.159 178.279 192.317 179.257 192.391C179.493 192.393 179.728 192.378 179.961 192.345C180.579 192.342 181.197 192.394 181.806 192.5C183.005 192.613 184.213 192.436 185.33 191.985C186.446 191.535 187.438 190.823 188.223 189.909C189.064 188.853 187.955 188.396 186.963 188.184C185.604 187.896 184.277 187.456 182.918 187.237Z" fill="#FBBEBE"/>
<path d="M206.461 219.027L207.334 225.23C207.445 225.87 207.49 226.52 207.467 227.169C207.365 228.63 206.587 229.94 206.028 231.291C205.468 232.643 205.126 234.262 205.869 235.515C206.098 235.906 206.418 236.24 206.626 236.645C206.89 237.271 207.01 237.948 206.978 238.627L207.217 247.427C209.935 247.613 212.662 247.597 215.377 247.382C215.483 247.387 215.588 247.354 215.673 247.29C215.744 247.199 215.781 247.085 215.775 246.97C215.894 244.91 215.535 242.848 215.651 240.788C215.694 240.035 215.799 239.285 215.813 238.529C215.856 235.463 214.342 232.46 214.8 229.429C214.943 228.664 215.131 227.909 215.363 227.166C216.81 221.886 216.503 216.338 216.183 210.885C216.188 210.797 216.164 210.71 216.113 210.639C216.061 210.587 215.995 210.551 215.923 210.537C214.383 210.075 212.754 209.99 211.174 210.29C209.595 210.591 208.111 211.267 206.848 212.262C206.464 212.571 205.496 212.871 205.243 213.24C204.891 213.754 205.352 214.268 205.556 214.814C206.008 216.182 206.311 217.594 206.461 219.027V219.027Z" fill="#003554"/>
<path opacity="0.1" d="M206.461 219.027L207.334 225.23C207.445 225.87 207.49 226.52 207.467 227.169C207.365 228.63 206.587 229.94 206.028 231.291C205.468 232.643 205.126 234.262 205.869 235.515C206.098 235.906 206.418 236.24 206.626 236.645C206.89 237.271 207.01 237.948 206.978 238.627L207.217 247.427C209.935 247.613 212.662 247.597 215.377 247.382C215.483 247.387 215.588 247.354 215.673 247.29C215.744 247.199 215.781 247.085 215.775 246.97C215.894 244.91 215.535 242.848 215.651 240.788C215.694 240.035 215.799 239.285 215.813 238.529C215.856 235.463 214.342 232.46 214.8 229.429C214.943 228.664 215.131 227.909 215.363 227.166C216.81 221.886 216.503 216.338 216.183 210.885C216.188 210.797 216.164 210.71 216.113 210.639C216.061 210.587 215.995 210.551 215.923 210.537C214.383 210.075 212.754 209.99 211.174 210.29C209.595 210.591 208.111 211.267 206.848 212.262C206.464 212.571 205.496 212.871 205.243 213.24C204.891 213.754 205.352 214.268 205.556 214.814C206.008 216.182 206.311 217.594 206.461 219.027V219.027Z" fill="black"/>
<path d="M222.783 217.158C222.371 218.013 221.819 218.809 221.572 219.728C220.932 222.153 222.59 224.656 222.392 227.141C222.329 227.926 222.086 228.69 222.069 229.475C222.051 230.26 222.34 231.133 223.037 231.495C223.505 231.735 224.093 231.71 224.533 231.984C225.275 232.439 225.36 233.47 225.286 234.336C225.212 235.202 225.089 236.17 225.638 236.846C226.057 237.37 226.775 237.574 227.226 238.071C227.494 238.427 227.722 238.812 227.905 239.218C228.577 240.394 229.806 241.112 230.813 242.034C231.819 242.957 232.671 244.308 232.221 245.586C231.89 246.522 230.96 247.1 230.066 247.54C228.435 248.346 226.713 248.955 224.937 249.353C224.747 249.41 224.545 249.421 224.35 249.384C224.152 249.312 223.975 249.191 223.836 249.032C222.797 248.015 221.724 246.948 221.245 245.579C221.16 245.247 221.027 244.929 220.851 244.636C220.302 243.865 219.143 243.893 218.362 243.361C217.447 242.738 217.225 241.503 216.627 240.57C216.028 239.637 215.152 239.081 214.515 238.261C213.437 236.895 213.173 235.072 212.402 233.512C212.075 232.85 211.656 232.231 211.396 231.541C211.133 230.714 210.971 229.858 210.913 228.992C210.417 224.881 209.153 220.741 209.949 216.672C210.125 215.778 210.396 214.912 210.509 213.99C210.702 212.395 210.396 210.762 210.632 209.171C210.638 208.971 210.688 208.775 210.78 208.598C210.872 208.42 211.003 208.266 211.163 208.146C211.354 208.061 211.56 208.019 211.769 208.023C213.856 207.912 215.948 207.959 218.028 208.164C219.084 208.266 220.266 208.481 220.9 209.343C221.439 210.082 221.41 211.072 221.583 211.969C221.798 213.075 222.357 213.676 222.945 214.542C223.533 215.408 223.216 216.264 222.783 217.158Z" fill="#003554"/>
<path d="M214.662 245.762C215.218 245.762 215.835 245.727 216.264 246.079C216.799 246.519 216.806 247.325 216.722 248.012C216.475 249.941 215.845 251.796 215.215 253.644L213.342 259.139C213.046 259.923 212.827 260.734 212.688 261.56C212.505 262.968 212.786 264.376 212.821 265.785C212.821 266.489 212.776 267.27 212.336 267.837C211.54 268.861 209.988 268.741 208.71 268.541L202.476 267.485C201.95 267.415 201.433 267.288 200.934 267.108C200.414 266.868 199.913 266.587 199.438 266.267C198.204 265.562 196.908 264.973 195.566 264.507C194.981 264.288 194.327 264.01 194.116 263.423C193.866 262.718 194.422 261.944 195.112 261.662C195.802 261.381 196.573 261.451 197.319 261.472C199.154 261.531 200.986 261.283 202.74 260.74C203.268 260.611 203.758 260.357 204.169 260.001C204.587 259.532 204.871 258.959 204.993 258.343C205.524 256.508 205.84 254.618 205.936 252.711C206.01 251.303 205.961 249.895 206.017 248.487C206.052 247.652 205.971 244.967 206.703 244.393C207.263 243.963 209.565 245.15 210.322 245.322C211.745 245.648 213.203 245.796 214.662 245.762V245.762Z" fill="#003554"/>
<path d="M235.199 249.676C235.808 251.694 235.903 253.827 236.297 255.9C236.691 257.973 237.388 260.089 238.926 261.532C239.226 261.77 239.484 262.055 239.69 262.377C239.82 262.678 239.864 263.01 239.818 263.335C239.771 263.66 239.636 263.965 239.426 264.218C239.001 264.719 238.474 265.123 237.881 265.404C233.907 267.573 229.433 268.667 224.923 269.21C224.127 269.359 223.307 269.329 222.523 269.122C221.755 268.861 221.076 268.171 221.09 267.361C221.083 267.139 221.158 266.922 221.301 266.753C221.438 266.627 221.6 266.532 221.776 266.474C223.438 265.792 225.124 265.049 226.409 263.789C227.694 262.528 228.5 260.62 228.004 258.91C227.71 258.108 227.311 257.35 226.817 256.653C226.174 255.547 225.586 254.408 225.057 253.242L223.508 249.993C223.054 249.043 222.597 248.064 222.519 247.015C224.465 247.102 226.408 246.791 228.229 246.1C229.079 245.753 229.871 245.279 230.577 244.692C231.175 244.192 231.721 243.259 232.527 243.911C233.175 244.432 233.583 245.899 233.963 246.642C234.457 247.618 234.87 248.633 235.199 249.676Z" fill="#003554"/>
<path d="M212.501 169C212.656 170.352 213.965 171.242 215.215 171.777L207.305 174.301C207.816 173.323 207.404 172.126 206.897 171.133C206.484 170.347 206.014 169.593 205.489 168.877C205.412 168.768 205.324 168.63 205.38 168.504C205.43 168.421 205.509 168.359 205.602 168.331C207.228 167.606 208.903 166.856 210.681 166.592C211.195 166.518 212.167 166.314 212.55 166.835C212.934 167.356 212.427 168.377 212.501 169Z" fill="#FBBEBE"/>
<path opacity="0.1" d="M212.501 169C212.656 170.352 213.965 171.242 215.215 171.777L207.305 174.301C207.816 173.323 207.404 172.126 206.897 171.133C206.484 170.347 206.014 169.593 205.489 168.877C205.412 168.768 205.324 168.63 205.38 168.504C205.43 168.421 205.509 168.359 205.602 168.331C207.228 167.606 208.903 166.856 210.681 166.592C211.195 166.518 212.167 166.314 212.55 166.835C212.934 167.356 212.427 168.377 212.501 169Z" fill="black"/>
<path d="M207.904 170.094C211.329 170.094 214.106 167.317 214.106 163.892C214.106 160.466 211.329 157.689 207.904 157.689C204.478 157.689 201.701 160.466 201.701 163.892C201.701 167.317 204.478 170.094 207.904 170.094Z" fill="#FBBEBE"/>
<path d="M202.529 214.934C203.131 215.655 204.19 215.796 205.116 215.638C207.281 215.286 209.051 213.691 211.17 213.117C213.768 212.413 216.517 213.318 218.971 214.427C221.424 215.536 223.864 216.891 226.546 217.081C224.121 211.674 225.508 205.169 223.188 199.716C222.621 198.382 221.829 197.097 221.703 195.654C221.544 193.862 222.438 192.134 222.576 190.353C222.702 188.765 222.224 187.185 221.766 185.671C221.2 183.812 220.635 181.954 220.069 180.095C219.436 178.015 218.784 175.899 217.556 174.111C217.102 173.453 216.964 172.119 216.275 171.721C214.768 170.851 212.483 171.946 210.85 172.006C209.217 172.066 207.728 173.228 206.774 174.541C205.764 175.927 205.19 177.578 204.662 179.212C203.821 181.644 203.193 184.144 202.786 186.685C202.733 187.065 202.687 187.445 202.652 187.829C202.3 191.444 202.814 195.08 202.842 198.713V198.738C202.877 203.345 202.138 207.925 202.001 212.529C201.987 213.371 202.008 214.289 202.529 214.934Z" fill="#003554"/>
<path opacity="0.1" d="M202.852 198.716C204.067 198.41 205.165 197.625 206.109 196.766C206.926 196.035 207.651 195.208 208.27 194.302C209.049 193.085 209.674 191.776 210.132 190.405C211.435 186.74 212.263 182.922 212.596 179.046C212.688 177.99 212.716 176.857 212.086 176.019C211.732 175.565 211.235 175.244 210.676 175.109C210.116 174.973 209.528 175.031 209.006 175.273C208.175 175.677 207.636 176.498 207.136 177.283C206.147 178.838 205.151 180.415 204.514 182.147C204.232 182.915 204.025 183.703 203.75 184.474C203.471 185.234 203.149 185.978 202.786 186.702C202.733 187.083 202.687 187.463 202.652 187.846C202.324 191.462 202.824 195.084 202.852 198.716Z" fill="black"/>
<path d="M212.068 175.339C212.698 176.177 212.67 177.321 212.582 178.363C212.25 182.239 211.422 186.057 210.118 189.722C209.664 191.105 209.038 192.424 208.256 193.651C207.636 194.555 206.911 195.383 206.094 196.115C204.898 197.206 203.44 198.181 201.818 198.195C200.904 198.152 200.005 197.956 199.156 197.615L185.938 193.116C185.805 192.363 186.336 191.483 186.586 190.757L187.29 188.67C187.491 188.093 187.723 187.47 188.248 187.156C188.772 186.843 189.603 187.273 190.039 187.621C190.476 187.97 190.807 188.427 191.236 188.783C192.049 189.458 193.123 189.712 194.158 189.944L197.125 190.61C198.201 190.904 199.312 191.052 200.427 191.05C201.254 188.522 202.828 186.297 203.718 183.791C203.993 183.024 204.201 182.232 204.486 181.464C205.119 179.732 206.119 178.159 207.108 176.6C207.605 175.818 208.143 174.998 208.977 174.59C209.501 174.345 210.093 174.286 210.654 174.422C211.216 174.559 211.715 174.882 212.068 175.339V175.339Z" fill="#003554"/>
<path d="M209.882 165.293C209.835 164.885 209.708 164.49 209.509 164.131C209.405 163.952 209.247 163.81 209.057 163.726C208.867 163.643 208.655 163.622 208.453 163.667C207.833 163.86 207.626 164.818 206.978 164.849C206.542 164.871 206.228 164.427 206.091 164.012C205.954 163.596 205.88 163.121 205.552 162.829C205.324 162.659 205.063 162.539 204.785 162.477C203.282 162.002 201.73 161.125 201.23 159.629C201.112 159.325 201.084 158.994 201.149 158.675C201.378 157.728 202.557 157.443 203.454 157.102C204.352 156.76 205.214 156.176 206.094 155.732C206.974 155.289 207.995 154.976 208.963 155.201C209.455 155.355 209.937 155.535 210.41 155.739C211.867 156.246 213.652 156.011 214.782 157.063C215.276 157.585 215.638 158.217 215.838 158.908C216.627 161.097 217.126 163.695 215.82 165.617C215.014 166.803 214.233 168.158 212.684 168.303C210.882 168.454 210.167 166.821 209.882 165.293Z" fill="#003554"/>
<g opacity="0.1">
<path opacity="0.1" d="M207.129 163.266C206.992 162.85 206.918 162.375 206.594 162.083C206.366 161.912 206.105 161.792 205.827 161.731C204.32 161.256 202.771 160.379 202.268 158.883C202.153 158.579 202.127 158.248 202.191 157.929C202.225 157.779 202.289 157.637 202.377 157.51C201.803 157.76 201.304 158.091 201.163 158.675C201.098 158.995 201.126 159.326 201.244 159.629C201.744 161.125 203.296 162.002 204.799 162.477C205.077 162.539 205.338 162.659 205.566 162.829C205.894 163.121 205.964 163.593 206.105 164.012C206.246 164.431 206.556 164.871 206.992 164.85C207.429 164.828 207.64 164.431 207.918 164.096C207.534 164.047 207.256 163.653 207.129 163.266Z" fill="black"/>
<path opacity="0.1" d="M213.719 167.546C211.91 167.711 211.195 166.064 210.903 164.547C210.864 164.14 210.745 163.745 210.551 163.385C210.447 163.206 210.288 163.064 210.099 162.981C209.909 162.897 209.697 162.876 209.495 162.921C209.174 163.076 208.904 163.321 208.717 163.625C208.878 163.64 209.034 163.693 209.172 163.778C209.31 163.864 209.427 163.98 209.512 164.118C209.712 164.476 209.839 164.871 209.886 165.279C210.171 166.796 210.885 168.447 212.702 168.278C213.42 168.199 214.082 167.855 214.56 167.314C214.295 167.438 214.01 167.516 213.719 167.546V167.546Z" fill="black"/>
</g>
<path d="M286.222 233.027C292.5 233.027 297.589 232.048 297.589 230.841C297.589 229.633 292.5 228.655 286.222 228.655C279.945 228.655 274.856 229.633 274.856 230.841C274.856 232.048 279.945 233.027 286.222 233.027Z" fill="#00A6FB"/>
<path d="M286.032 231.643C286.763 231.643 287.356 230.868 287.356 229.912C287.356 228.955 286.763 228.18 286.032 228.18C285.301 228.18 284.709 228.955 284.709 229.912C284.709 230.868 285.301 231.643 286.032 231.643Z" fill="#003554"/>
<path d="M286.032 229.524C286.763 229.524 287.356 228.749 287.356 227.792C287.356 226.836 286.763 226.061 286.032 226.061C285.301 226.061 284.709 226.836 284.709 227.792C284.709 228.749 285.301 229.524 286.032 229.524Z" fill="#003554"/>
<path d="M286.032 227.409C286.763 227.409 287.356 226.633 287.356 225.677C287.356 224.72 286.763 223.945 286.032 223.945C285.301 223.945 284.709 224.72 284.709 225.677C284.709 226.633 285.301 227.409 286.032 227.409Z" fill="#003554"/>
<path d="M286.032 225.289C286.763 225.289 287.356 224.514 287.356 223.558C287.356 222.601 286.763 221.826 286.032 221.826C285.301 221.826 284.709 222.601 284.709 223.558C284.709 224.514 285.301 225.289 286.032 225.289Z" fill="#003554"/>
<path d="M286.032 223.17C286.763 223.17 287.356 222.395 287.356 221.438C287.356 220.482 286.763 219.707 286.032 219.707C285.301 219.707 284.709 220.482 284.709 221.438C284.709 222.395 285.301 223.17 286.032 223.17Z" fill="#003554"/>
<path d="M286.032 221.055C286.763 221.055 287.356 220.279 287.356 219.323C287.356 218.366 286.763 217.591 286.032 217.591C285.301 217.591 284.709 218.366 284.709 219.323C284.709 220.279 285.301 221.055 286.032 221.055Z" fill="#003554"/>
<path d="M286.032 218.935C286.763 218.935 287.356 218.16 287.356 217.204C287.356 216.247 286.763 215.472 286.032 215.472C285.301 215.472 284.709 216.247 284.709 217.204C284.709 218.16 285.301 218.935 286.032 218.935Z" fill="#003554"/>
<path d="M290.985 202.726C291.166 202.496 291.33 202.254 291.478 202.001L288 201.431L291.763 201.455C292.122 200.67 292.318 199.819 292.339 198.956C292.359 198.092 292.204 197.234 291.883 196.432L286.835 199.051L291.488 195.629C291.052 194.878 290.465 194.224 289.765 193.709C289.065 193.194 288.266 192.828 287.419 192.635C286.571 192.441 285.693 192.425 284.839 192.585C283.984 192.746 283.172 193.081 282.453 193.569C281.733 194.057 281.122 194.687 280.657 195.422C280.192 196.156 279.883 196.978 279.749 197.837C279.615 198.696 279.66 199.573 279.879 200.415C280.099 201.256 280.49 202.042 281.027 202.726C280.744 203.084 280.501 203.471 280.302 203.881L284.818 206.228L280.002 204.613C279.666 205.61 279.584 206.676 279.762 207.713C279.941 208.751 280.376 209.727 281.027 210.555C280.292 211.489 279.836 212.612 279.709 213.794C279.583 214.976 279.791 216.17 280.311 217.239C280.831 218.308 281.641 219.209 282.648 219.84C283.656 220.47 284.821 220.805 286.009 220.805C287.198 220.805 288.363 220.47 289.371 219.84C290.378 219.209 291.188 218.308 291.708 217.239C292.228 216.17 292.436 214.976 292.31 213.794C292.183 212.612 291.726 211.489 290.992 210.555C291.872 209.437 292.35 208.057 292.35 206.635C292.35 205.213 291.872 203.833 290.992 202.715L290.985 202.726Z" fill="#00A6FB"/>
<path opacity="0.1" d="M279.661 206.633C279.66 208.057 280.142 209.439 281.027 210.554C280.292 211.489 279.836 212.612 279.709 213.794C279.583 214.976 279.791 216.169 280.311 217.238C280.831 218.308 281.641 219.209 282.648 219.839C283.656 220.47 284.821 220.804 286.009 220.804C287.198 220.804 288.363 220.47 289.371 219.839C290.378 219.209 291.188 218.308 291.708 217.238C292.228 216.169 292.436 214.976 292.31 213.794C292.183 212.612 291.726 211.489 290.992 210.554C291.833 209.474 279.661 205.922 279.661 206.633Z" fill="black"/>
<path d="M52.2452 276.612C61.2833 276.612 68.6101 275.203 68.6101 273.465C68.6101 271.727 61.2833 270.318 52.2452 270.318C43.2071 270.318 35.8803 271.727 35.8803 273.465C35.8803 275.203 43.2071 276.612 52.2452 276.612Z" fill="#00A6FB"/>
<path d="M51.9707 274.624C53.0224 274.624 53.875 273.506 53.875 272.128C53.875 270.75 53.0224 269.632 51.9707 269.632C50.9189 269.632 50.0663 270.75 50.0663 272.128C50.0663 273.506 50.9189 274.624 51.9707 274.624Z" fill="#003554"/>
<path d="M51.9707 271.575C53.0224 271.575 53.875 270.458 53.875 269.08C53.875 267.701 53.0224 266.584 51.9707 266.584C50.9189 266.584 50.0663 267.701 50.0663 269.08C50.0663 270.458 50.9189 271.575 51.9707 271.575Z" fill="#003554"/>
<path d="M51.9707 268.527C53.0224 268.527 53.875 267.409 53.875 266.031C53.875 264.653 53.0224 263.535 51.9707 263.535C50.9189 263.535 50.0663 264.653 50.0663 266.031C50.0663 267.409 50.9189 268.527 51.9707 268.527Z" fill="#003554"/>
<path d="M51.9707 265.478C53.0224 265.478 53.875 264.361 53.875 262.983C53.875 261.604 53.0224 260.487 51.9707 260.487C50.9189 260.487 50.0663 261.604 50.0663 262.983C50.0663 264.361 50.9189 265.478 51.9707 265.478Z" fill="#003554"/>
<path d="M51.9707 262.43C53.0224 262.43 53.875 261.313 53.875 259.934C53.875 258.556 53.0224 257.438 51.9707 257.438C50.9189 257.438 50.0663 258.556 50.0663 259.934C50.0663 261.313 50.9189 262.43 51.9707 262.43Z" fill="#003554"/>
<path d="M51.9707 259.378C53.0224 259.378 53.875 258.261 53.875 256.882C53.875 255.504 53.0224 254.387 51.9707 254.387C50.9189 254.387 50.0663 255.504 50.0663 256.882C50.0663 258.261 50.9189 259.378 51.9707 259.378Z" fill="#003554"/>
<path d="M51.9707 256.33C53.0224 256.33 53.875 255.212 53.875 253.834C53.875 252.456 53.0224 251.338 51.9707 251.338C50.9189 251.338 50.0663 252.456 50.0663 253.834C50.0663 255.212 50.9189 256.33 51.9707 256.33Z" fill="#003554"/>
<path d="M59.1024 232.974C59.3601 232.638 59.5953 232.285 59.8064 231.918L54.8008 231.094L60.2147 231.136C60.7336 230.005 61.0165 228.781 61.0462 227.537C61.0758 226.293 60.8516 225.057 60.3872 223.902L53.1288 227.683L59.8169 222.755C59.1906 221.668 58.3471 220.722 57.339 219.976C56.3308 219.23 55.1797 218.699 53.9575 218.418C52.7352 218.136 51.4681 218.11 50.2351 218.34C49.0022 218.57 47.8298 219.051 46.7912 219.755C45.7527 220.458 44.8702 221.368 44.1988 222.427C43.5275 223.486 43.0817 224.673 42.8892 225.912C42.6968 227.152 42.7619 228.417 43.0804 229.631C43.3989 230.844 43.9639 231.978 44.7404 232.963C44.3293 233.477 43.9752 234.034 43.6844 234.625L50.186 238.004L43.2549 235.677C42.7691 237.12 42.6519 238.661 42.9138 240.16C43.1757 241.66 43.8084 243.07 44.7545 244.263C43.6954 245.609 43.0365 247.226 42.8532 248.929C42.6699 250.632 42.9696 252.353 43.7179 253.894C44.4663 255.435 45.6332 256.734 47.0851 257.643C48.537 258.552 50.2154 259.034 51.9284 259.034C53.6414 259.034 55.3198 258.552 56.7717 257.643C58.2237 256.734 59.3905 255.435 60.1389 253.894C60.8872 252.353 61.1869 250.632 61.0036 248.929C60.8203 247.226 60.1614 245.609 59.1024 244.263C60.3682 242.654 61.0565 240.667 61.0565 238.62C61.0565 236.573 60.3682 234.586 59.1024 232.977V232.974Z" fill="#00A6FB"/>
<path opacity="0.1" d="M42.8008 238.631C42.8011 240.674 43.4893 242.658 44.7545 244.263C43.6954 245.609 43.0365 247.226 42.8532 248.929C42.6699 250.633 42.9696 252.353 43.718 253.894C44.4663 255.435 45.6332 256.734 47.0851 257.643C48.537 258.552 50.2154 259.034 51.9284 259.034C53.6414 259.034 55.3198 258.552 56.7717 257.643C58.2237 256.734 59.3905 255.435 60.1389 253.894C60.8872 252.353 61.1869 250.633 61.0036 248.929C60.8203 247.226 60.1615 245.609 59.1024 244.263C60.3168 242.707 42.8008 237.592 42.8008 238.631Z" fill="black"/>
</g>
<defs>
<linearGradient id="paint0_linear" x1="211.868" y1="269.761" x2="207.209" y2="154.259" gradientUnits="userSpaceOnUse">
<stop stop-color="#808080" stop-opacity="0.25"/>
<stop offset="0.54" stop-color="#808080" stop-opacity="0.12"/>
<stop offset="1" stop-color="#808080" stop-opacity="0.1"/>
</linearGradient>
<clipPath id="clip0">
<rect width="360" height="276.612" fill="white"/>
</clipPath>
</defs>
</svg>
