<svg width="360" height="388" viewBox="0 0 360 388" fill="none" xmlns="http://www.w3.org/2000/svg">
<g clip-path="url(#clip0)">
<path d="M228.358 219.774L72.7436 259.847C67.4649 261.2 61.8652 260.403 57.1728 257.633C52.4804 254.862 49.0786 250.343 47.7138 245.068L0.65172 62.3108C-0.701234 57.0322 0.0949036 51.4324 2.86548 46.7401C5.63606 42.0477 10.1548 38.6459 15.4304 37.281L160.205 0L197.26 16.5885L243.137 194.744C244.49 200.023 243.694 205.622 240.923 210.315C238.153 215.007 233.634 218.409 228.358 219.774V219.774Z" fill="#F2F2F2"/>
<path d="M16.9059 43.011C13.149 43.983 9.93111 46.4054 7.95812 49.747C5.98513 53.0885 5.41819 57.0762 6.38166 60.8353L53.4437 243.592C54.4156 247.349 56.8381 250.567 60.1797 252.54C63.5212 254.513 67.5089 255.08 71.2679 254.117L226.883 214.044C230.64 213.072 233.858 210.649 235.831 207.308C237.804 203.966 238.371 199.979 237.407 196.22L192.241 20.8245L159.676 6.24609L16.9059 43.011Z" fill="white"/>
<path d="M196.865 17.5313L172.781 23.7331C171.023 24.1859 169.157 23.9216 167.594 22.9986C166.03 22.0755 164.898 20.5692 164.445 18.811L159.864 1.0233C159.844 0.945422 159.847 0.863471 159.871 0.786844C159.895 0.710217 159.941 0.642016 160.002 0.59006C160.064 0.538104 160.138 0.504496 160.218 0.493093C160.298 0.48169 160.379 0.492951 160.452 0.525587L196.932 16.726C197.013 16.7621 197.081 16.8225 197.126 16.8989C197.171 16.9753 197.192 17.0639 197.184 17.1525C197.177 17.241 197.142 17.325 197.085 17.3929C197.028 17.4608 196.951 17.5092 196.865 17.5313V17.5313Z" fill="#F2F2F2"/>
<path d="M184.194 173.602L113.345 191.847C112.91 191.959 112.457 191.984 112.012 191.921C111.567 191.858 111.138 191.708 110.751 191.479C110.364 191.251 110.026 190.948 109.756 190.589C109.486 190.23 109.289 189.821 109.177 189.386C109.065 188.95 109.04 188.497 109.103 188.052C109.166 187.607 109.316 187.179 109.544 186.792C109.773 186.405 110.075 186.066 110.435 185.796C110.794 185.526 111.203 185.329 111.638 185.217L182.487 166.973C182.923 166.861 183.376 166.836 183.821 166.899C184.266 166.962 184.694 167.112 185.081 167.34C185.468 167.569 185.806 167.871 186.077 168.23C186.347 168.59 186.543 168.999 186.655 169.434C186.768 169.869 186.793 170.322 186.73 170.767C186.667 171.212 186.517 171.641 186.288 172.028C186.06 172.415 185.757 172.753 185.398 173.023C185.039 173.293 184.63 173.49 184.194 173.602Z" fill="#CCCCCC"/>
<path d="M200.748 181.268L116.226 203.033C115.347 203.26 114.414 203.127 113.632 202.666C112.85 202.204 112.284 201.451 112.058 200.572C111.831 199.693 111.963 198.76 112.425 197.978C112.887 197.197 113.64 196.63 114.519 196.404L199.041 174.639C199.919 174.413 200.852 174.546 201.633 175.007C202.414 175.469 202.98 176.222 203.206 177.1C203.432 177.979 203.3 178.911 202.839 179.693C202.378 180.474 201.626 181.041 200.748 181.268V181.268Z" fill="#CCCCCC"/>
<path d="M84.4285 213.82C91.1097 213.82 96.5259 208.404 96.5259 201.722C96.5259 195.041 91.1097 189.625 84.4285 189.625C77.7473 189.625 72.3311 195.041 72.3311 201.722C72.3311 208.404 77.7473 213.82 84.4285 213.82Z" fill="#E6E6E6"/>
<path d="M176.661 141.942L82.5662 166.164C79.8468 166.86 76.9621 166.45 74.545 165.022C72.1278 163.595 70.3756 161.267 69.6727 158.549L49.9539 81.9462C49.2572 79.2268 49.6676 76.3421 51.095 73.925C52.5225 71.5078 54.8505 69.7556 57.5683 69.0527L151.663 44.8312C154.383 44.1345 157.267 44.5449 159.684 45.9724C162.102 47.3998 163.854 49.7279 164.557 52.4456L184.276 129.049C184.972 131.768 184.562 134.653 183.134 137.07C181.707 139.487 179.379 141.239 176.661 141.942Z" fill="white"/>
<path d="M176.661 141.942L82.5662 166.164C79.8468 166.86 76.9621 166.45 74.545 165.022C72.1278 163.595 70.3756 161.267 69.6727 158.549L49.9539 81.9462C49.2572 79.2268 49.6676 76.3421 51.095 73.925C52.5225 71.5078 54.8505 69.7556 57.5683 69.0527L151.663 44.8312C154.383 44.1345 157.267 44.5449 159.684 45.9724C162.102 47.3998 163.854 49.7279 164.557 52.4456L184.276 129.049C184.972 131.768 184.562 134.653 183.134 137.07C181.707 139.487 179.379 141.239 176.661 141.942ZM57.8789 70.2591C55.4808 70.8793 53.4267 72.4254 52.1672 74.5581C50.9076 76.6909 50.5455 79.2362 51.1603 81.6357L70.8791 158.239C71.4993 160.637 73.0453 162.691 75.1781 163.95C77.3109 165.21 79.8562 165.572 82.2557 164.957L176.351 140.736C178.749 140.115 180.803 138.569 182.062 136.437C183.322 134.304 183.684 131.759 183.069 129.359L163.35 52.7562C162.73 50.3581 161.184 48.304 159.051 47.0445C156.919 45.7849 154.373 45.4228 151.974 46.0376L57.8789 70.2591Z" fill="#E6E6E6"/>
<path d="M146.89 70.5882L99.4012 82.8125C98.986 82.9284 98.5423 82.8824 98.1598 82.6837C97.7773 82.485 97.4845 82.1484 97.3405 81.7421C97.2736 81.5299 97.2505 81.3062 97.2728 81.0847C97.2952 80.8633 97.3624 80.6487 97.4704 80.4541C97.5784 80.2595 97.7249 80.0889 97.9009 79.9528C98.077 79.8166 98.279 79.7178 98.4946 79.6623L146.835 67.2188C148.788 68.2082 148.274 70.2319 146.889 70.5884L146.89 70.5882Z" fill="#F2F2F2"/>
<path d="M149.034 78.9178L101.545 91.1421C101.13 91.258 100.687 91.2119 100.304 91.0132C99.9215 90.8145 99.6287 90.478 99.4848 90.0717C99.4178 89.8595 99.3948 89.6358 99.4171 89.4143C99.4394 89.1929 99.5066 88.9783 99.6146 88.7837C99.7226 88.5891 99.8691 88.4185 100.045 88.2823C100.221 88.1462 100.423 88.0474 100.639 87.9919L148.979 75.5483C150.932 76.5378 150.418 78.5615 149.033 78.9179L149.034 78.9178Z" fill="#F2F2F2"/>
<path d="M92.5003 98.5275L78.0073 102.258C77.534 102.38 77.0319 102.308 76.6111 102.06C76.1904 101.811 75.8854 101.406 75.7631 100.933L71.3605 83.83C71.2392 83.3567 71.3106 82.8545 71.5591 82.4338C71.8075 82.013 72.2128 81.708 72.6859 81.5858L87.1789 77.855C87.6522 77.7338 88.1543 77.8053 88.575 78.0538C88.9957 78.3022 89.3007 78.7074 89.4231 79.1804L93.8257 96.2833C93.947 96.7567 93.8756 97.2588 93.6271 97.6796C93.3787 98.1003 92.9734 98.4053 92.5003 98.5276V98.5275Z" fill="#E6E6E6"/>
<path d="M153.286 96.0088L80.8099 114.665C80.3947 114.781 79.9511 114.735 79.5685 114.536C79.186 114.338 78.8932 114.001 78.7493 113.595C78.6823 113.383 78.6593 113.159 78.6816 112.938C78.7039 112.716 78.7711 112.502 78.8791 112.307C78.9871 112.112 79.1336 111.942 79.3097 111.806C79.4858 111.669 79.6878 111.571 79.9033 111.515L153.232 92.6392C155.185 93.6286 154.671 95.6523 153.286 96.0088L153.286 96.0088Z" fill="#F2F2F2"/>
<path d="M155.431 104.341L82.9548 122.998C82.5396 123.114 82.0959 123.068 81.7134 122.869C81.3309 122.67 81.0381 122.334 80.8941 121.927C80.8272 121.715 80.8041 121.491 80.8264 121.27C80.8487 121.049 80.916 120.834 81.0239 120.639C81.1319 120.445 81.2784 120.274 81.4545 120.138C81.6306 120.002 81.8326 119.903 82.0482 119.848L155.377 100.972C157.329 101.961 156.816 103.985 155.431 104.341V104.341Z" fill="#F2F2F2"/>
<path d="M157.574 112.668L85.0982 131.324C84.6831 131.44 84.2394 131.394 83.8568 131.196C83.4743 130.997 83.1815 130.66 83.0376 130.254C82.9706 130.042 82.9476 129.818 82.9699 129.597C82.9922 129.375 83.0594 129.161 83.1674 128.966C83.2754 128.771 83.4219 128.601 83.598 128.465C83.7741 128.329 83.9761 128.23 84.1916 128.174L157.52 109.298C159.473 110.288 158.959 112.312 157.574 112.668V112.668Z" fill="#F2F2F2"/>
<path d="M159.719 120.999L87.2429 139.656C86.8277 139.772 86.3841 139.726 86.0015 139.527C85.619 139.328 85.3262 138.992 85.1823 138.586C85.1153 138.373 85.0923 138.15 85.1146 137.928C85.1369 137.707 85.2041 137.492 85.3121 137.298C85.4201 137.103 85.5666 136.932 85.7427 136.796C85.9188 136.66 86.1208 136.561 86.3363 136.506L159.665 117.63C161.618 118.619 161.104 120.643 159.719 120.999L159.719 120.999Z" fill="#F2F2F2"/>
<path d="M161.863 129.327L89.3865 147.984C88.9713 148.1 88.5277 148.053 88.1451 147.855C87.7626 147.656 87.4698 147.32 87.3259 146.913C87.2589 146.701 87.2359 146.477 87.2582 146.256C87.2805 146.034 87.3477 145.82 87.4557 145.625C87.5637 145.431 87.7102 145.26 87.8863 145.124C88.0624 144.988 88.2644 144.889 88.4799 144.833L161.808 125.958C163.761 126.947 163.247 128.971 161.863 129.327V129.327Z" fill="#F2F2F2"/>
<path d="M85.321 205.963C85.0576 206.032 84.7791 206.012 84.5275 205.909L84.5119 205.902L81.2163 204.505C81.0634 204.44 80.9247 204.346 80.8082 204.228C80.6917 204.109 80.5997 203.969 80.5375 203.815C80.4752 203.661 80.4439 203.496 80.4454 203.33C80.4469 203.164 80.4811 203 80.5461 202.847C80.6111 202.694 80.7056 202.556 80.8242 202.44C80.9427 202.323 81.0831 202.232 81.2372 202.17C81.3912 202.108 81.556 202.076 81.7221 202.078C81.8882 202.08 82.0523 202.114 82.205 202.18L84.3405 203.088L87.1389 196.505C87.2038 196.352 87.2981 196.214 87.4165 196.098C87.5348 195.982 87.6749 195.89 87.8287 195.828C87.9825 195.766 88.1471 195.735 88.3129 195.736C88.4787 195.738 88.6426 195.772 88.7953 195.837L88.7957 195.837L88.7789 195.88L88.7964 195.837C89.1044 195.968 89.3477 196.217 89.473 196.527C89.5982 196.838 89.595 197.186 89.4642 197.494L86.172 205.234C86.0957 205.412 85.9793 205.571 85.8318 205.697C85.6844 205.823 85.5098 205.914 85.3217 205.962L85.321 205.963Z" fill="white"/>
<path d="M288.046 289.418H127.355C121.905 289.412 116.681 287.244 112.828 283.391C108.975 279.538 106.807 274.313 106.801 268.864V80.1449C106.807 74.6956 108.975 69.4713 112.828 65.6181C116.681 61.7649 121.905 59.5975 127.355 59.5913H276.852L308.6 84.8965V268.864C308.594 274.313 306.426 279.538 302.573 283.391C298.72 287.244 293.495 289.412 288.046 289.418V289.418Z" fill="#E6E6E6"/>
<path d="M127.354 65.5083C123.474 65.5127 119.754 67.0562 117.01 69.8001C114.266 72.5441 112.722 76.2644 112.718 80.1449V268.864C112.722 272.745 114.266 276.465 117.01 279.209C119.754 281.953 123.474 283.497 127.354 283.501H288.046C291.927 283.497 295.647 281.953 298.391 279.209C301.135 276.465 302.678 272.745 302.683 268.864V87.747L274.782 65.5083H127.354Z" fill="white"/>
<path d="M256.792 120.383H183.631C182.723 120.383 181.853 120.022 181.211 119.381C180.569 118.739 180.208 117.868 180.208 116.96C180.208 116.053 180.569 115.182 181.211 114.54C181.853 113.898 182.723 113.538 183.631 113.538H256.792C257.699 113.538 258.57 113.898 259.212 114.54C259.854 115.182 260.214 116.053 260.214 116.96C260.214 117.868 259.854 118.739 259.212 119.381C258.57 120.022 257.699 120.383 256.792 120.383V120.383Z" fill="#007cbd"/>
<path d="M270.91 131.935H183.631C182.724 131.934 181.855 131.572 181.214 130.931C180.573 130.289 180.213 129.419 180.213 128.512C180.213 127.605 180.573 126.735 181.214 126.093C181.855 125.452 182.724 125.091 183.631 125.089H270.91C271.36 125.089 271.806 125.177 272.222 125.349C272.637 125.52 273.015 125.772 273.334 126.09C273.652 126.408 273.904 126.786 274.077 127.201C274.249 127.617 274.338 128.062 274.338 128.512C274.338 128.962 274.249 129.407 274.077 129.823C273.904 130.239 273.652 130.616 273.334 130.934C273.015 131.252 272.637 131.504 272.222 131.676C271.806 131.847 271.36 131.935 270.91 131.935V131.935Z" fill="#007cbd"/>
<path d="M256.792 165.304H183.634C182.726 165.304 181.856 165.665 181.214 166.307C180.572 166.948 180.211 167.819 180.211 168.727C180.211 169.634 180.572 170.505 181.214 171.147C181.856 171.789 182.726 172.149 183.634 172.149H256.792C257.7 172.149 258.57 171.789 259.212 171.147C259.854 170.505 260.215 169.634 260.215 168.727C260.215 167.819 259.854 166.948 259.212 166.307C258.57 165.665 257.7 165.304 256.792 165.304V165.304Z" fill="#CCCCCC"/>
<path d="M270.912 176.858H183.634C182.726 176.858 181.856 177.219 181.214 177.86C180.572 178.502 180.211 179.373 180.211 180.28C180.211 181.188 180.572 182.059 181.214 182.7C181.856 183.342 182.726 183.703 183.634 183.703H270.912C271.819 183.703 272.69 183.342 273.332 182.7C273.974 182.059 274.334 181.188 274.334 180.28C274.334 179.373 273.974 178.502 273.332 177.86C272.69 177.219 271.819 176.858 270.912 176.858Z" fill="#CCCCCC"/>
<path d="M256.792 223.92H183.631C182.723 223.92 181.853 223.56 181.211 222.918C180.569 222.276 180.208 221.405 180.208 220.497C180.208 219.59 180.569 218.719 181.211 218.077C181.853 217.435 182.723 217.075 183.631 217.075H256.792C257.699 217.075 258.57 217.435 259.212 218.077C259.854 218.719 260.214 219.59 260.214 220.497C260.214 221.405 259.854 222.276 259.212 222.918C258.57 223.56 257.699 223.92 256.792 223.92V223.92Z" fill="#CCCCCC"/>
<path d="M270.91 235.472H183.631C182.724 235.471 181.855 235.11 181.214 234.468C180.573 233.826 180.213 232.956 180.213 232.049C180.213 231.142 180.573 230.272 181.214 229.631C181.855 228.989 182.724 228.628 183.631 228.626H270.91C271.36 228.626 271.806 228.714 272.222 228.886C272.637 229.057 273.015 229.309 273.334 229.627C273.652 229.945 273.904 230.323 274.077 230.738C274.249 231.154 274.338 231.599 274.338 232.049C274.338 232.499 274.249 232.945 274.077 233.36C273.904 233.776 273.652 234.153 273.334 234.471C273.015 234.789 272.637 235.041 272.222 235.213C271.806 235.384 271.36 235.473 270.91 235.472Z" fill="#CCCCCC"/>
<path d="M153.165 134.834C159.846 134.834 165.262 129.417 165.262 122.736C165.262 116.055 159.846 110.639 153.165 110.639C146.484 110.639 141.068 116.055 141.068 122.736C141.068 129.417 146.484 134.834 153.165 134.834Z" fill="#007cbd"/>
<path d="M151.966 127.351C151.694 127.352 151.429 127.263 151.211 127.1L151.198 127.09L148.355 124.915C148.223 124.814 148.112 124.689 148.029 124.545C147.945 124.401 147.891 124.242 147.869 124.078C147.847 123.913 147.858 123.746 147.901 123.585C147.944 123.425 148.018 123.274 148.119 123.142C148.22 123.01 148.346 122.9 148.49 122.817C148.634 122.734 148.793 122.68 148.957 122.658C149.122 122.637 149.289 122.648 149.45 122.691C149.61 122.734 149.761 122.809 149.892 122.91L151.734 124.322L156.085 118.645C156.186 118.513 156.312 118.403 156.456 118.32C156.599 118.237 156.758 118.183 156.922 118.161C157.087 118.14 157.254 118.15 157.414 118.193C157.574 118.236 157.724 118.31 157.856 118.411L157.856 118.411L157.829 118.449L157.857 118.411C158.123 118.615 158.296 118.916 158.34 119.248C158.384 119.581 158.294 119.916 158.091 120.182L152.972 126.857C152.854 127.011 152.702 127.135 152.527 127.221C152.353 127.306 152.161 127.35 151.967 127.35L151.966 127.351Z" fill="white"/>
<path d="M166.506 174.504C166.506 176.092 166.194 177.666 165.587 179.134C164.979 180.602 164.088 181.936 162.965 183.06C161.842 184.184 160.508 185.075 159.04 185.683C157.573 186.292 155.999 186.605 154.41 186.605C154.306 186.607 154.202 186.603 154.099 186.593C151.72 186.532 149.413 185.771 147.464 184.405C145.516 183.038 144.014 181.128 143.146 178.913C142.278 176.697 142.083 174.275 142.584 171.949C143.086 169.623 144.263 167.497 145.967 165.836C147.671 164.176 149.827 163.055 152.165 162.613C154.504 162.172 156.92 162.43 159.112 163.355C161.305 164.28 163.175 165.831 164.49 167.814C165.805 169.797 166.507 172.124 166.506 174.504V174.504Z" fill="#CCCCCC"/>
<path d="M153.165 238.371C159.846 238.371 165.262 232.954 165.262 226.273C165.262 219.592 159.846 214.176 153.165 214.176C146.484 214.176 141.068 219.592 141.068 226.273C141.068 232.954 146.484 238.371 153.165 238.371Z" fill="#CCCCCC"/>
<path d="M307.982 85.7112H283.113C281.297 85.7112 279.556 84.99 278.272 83.7062C276.988 82.4224 276.267 80.6812 276.267 78.8657V60.4977C276.267 60.4172 276.29 60.3385 276.333 60.2703C276.375 60.2022 276.436 60.1475 276.509 60.1125C276.581 60.0775 276.662 60.0636 276.742 60.0724C276.822 60.0812 276.898 60.1124 276.961 60.1623L308.247 84.948C308.317 85.0031 308.368 85.0786 308.393 85.1639C308.417 85.2492 308.415 85.3401 308.386 85.424C308.357 85.5079 308.302 85.5806 308.23 85.6321C308.157 85.6835 308.071 85.7112 307.982 85.7112Z" fill="#CCCCCC"/>
<path d="M166.506 174.503C166.506 176.092 166.194 177.666 165.586 179.134C164.979 180.602 164.088 181.936 162.965 183.06C161.842 184.184 160.508 185.075 159.04 185.683C157.572 186.292 155.999 186.605 154.41 186.605C154.306 186.607 154.202 186.603 154.099 186.593C152.536 182.695 151.934 178.478 152.342 174.298C152.751 170.118 154.159 166.098 156.447 162.576C159.261 163.059 161.814 164.52 163.655 166.703C165.495 168.885 166.505 171.648 166.506 174.503V174.503Z" fill="#007cbd"/>
<path d="M180.208 168.73C180.21 167.822 180.571 166.951 181.213 166.309C181.855 165.667 182.726 165.306 183.634 165.304H201.864C202.929 167.47 203.686 169.774 204.113 172.149H183.634C182.726 172.149 181.856 171.789 181.214 171.148C180.572 170.507 180.21 169.637 180.208 168.73V168.73Z" fill="#007cbd"/>
<path d="M204.536 176.858C204.537 179.17 204.232 181.472 203.627 183.703H183.634C182.726 183.703 181.856 183.342 181.214 182.7C180.572 182.059 180.211 181.188 180.211 180.28C180.211 179.373 180.572 178.502 181.214 177.86C181.856 177.219 182.726 176.858 183.634 176.858H204.536Z" fill="#007cbd"/>
<path d="M249.643 219.072C249.127 219.918 248.296 220.525 247.333 220.758C246.369 220.992 245.353 220.833 244.507 220.317L200.905 193.721C200.486 193.466 200.122 193.13 199.832 192.734C199.543 192.337 199.335 191.888 199.219 191.411C199.104 190.934 199.083 190.439 199.159 189.954C199.235 189.469 199.405 189.004 199.661 188.585C199.916 188.166 200.252 187.801 200.648 187.512C201.045 187.223 201.494 187.015 201.971 186.899C202.448 186.783 202.943 186.763 203.428 186.839C203.913 186.915 204.378 187.085 204.797 187.341L248.399 213.936C249.245 214.452 249.851 215.283 250.085 216.246C250.318 217.21 250.159 218.226 249.643 219.072V219.072Z" fill="#003554"/>
<path d="M206.041 192.477C202.962 197.525 198.456 201.546 193.091 204.033C187.726 206.519 181.745 207.359 175.903 206.447C170.061 205.534 164.621 202.909 160.271 198.904C155.92 194.899 152.855 189.695 151.463 183.948C150.071 178.201 150.414 172.171 152.449 166.619C154.484 161.068 158.12 156.244 162.896 152.759C167.673 149.273 173.375 147.283 179.283 147.038C185.191 146.794 191.039 148.307 196.087 151.386C202.849 155.521 207.694 162.17 209.561 169.873C211.427 177.576 210.161 185.705 206.041 192.477ZM161.376 165.233C159.067 169.019 157.932 173.405 158.116 177.835C158.299 182.266 159.792 186.543 162.406 190.126C165.02 193.708 168.638 196.435 172.801 197.961C176.965 199.487 181.488 199.745 185.798 198.701C190.108 197.656 194.012 195.358 197.015 192.095C200.019 188.832 201.987 184.752 202.672 180.371C203.357 175.989 202.727 171.503 200.862 167.48C198.997 163.456 195.981 160.076 192.195 157.767C187.116 154.677 181.019 153.728 175.242 155.127C169.464 156.527 164.478 160.161 161.376 165.233V165.233Z" fill="#003554"/>
<path d="M301.828 181.702C310.277 181.702 317.126 174.853 317.126 166.405C317.126 157.956 310.277 151.107 301.828 151.107C293.38 151.107 286.531 157.956 286.531 166.405C286.531 174.853 293.38 181.702 301.828 181.702Z" fill="#A0616A"/>
<path d="M300.84 252.164C300.545 251.245 300.447 250.273 300.554 249.314C300.66 248.354 300.968 247.428 301.457 246.596C301.947 245.764 302.607 245.044 303.393 244.485C304.18 243.926 305.076 243.539 306.023 243.35C306.323 243.291 306.627 243.254 306.932 243.238L323.046 217.376L308.327 203.382C307.764 202.848 307.313 202.207 307 201.497C306.687 200.787 306.517 200.022 306.501 199.247C306.485 198.471 306.622 197.699 306.906 196.977C307.19 196.255 307.614 195.596 308.153 195.038C308.693 194.481 309.338 194.036 310.051 193.729C310.763 193.422 311.53 193.259 312.306 193.25C313.082 193.241 313.852 193.386 314.571 193.676C315.291 193.967 315.946 194.397 316.499 194.941L336.821 214.98L336.862 215.03C337.491 215.987 337.794 217.121 337.728 218.263C337.661 219.406 337.228 220.497 336.492 221.374L313.914 248.076C313.982 248.29 314.038 248.508 314.082 248.728C314.271 249.675 314.258 250.651 314.043 251.592C313.828 252.533 313.417 253.419 312.837 254.19C312.256 254.961 311.519 255.601 310.674 256.068C309.828 256.534 308.894 256.817 307.932 256.897C307.737 256.914 307.544 256.923 307.351 256.923C305.903 256.917 304.494 256.453 303.324 255.599C302.155 254.744 301.285 253.542 300.84 252.164V252.164Z" fill="#A0616A"/>
<path d="M276.633 379.308L268.997 379.307L265.365 349.854L276.634 349.855L276.633 379.308Z" fill="#A0616A"/>
<path d="M278.58 386.709L253.959 386.708V386.397C253.959 385.139 254.207 383.892 254.689 382.73C255.17 381.567 255.876 380.511 256.766 379.621C257.656 378.731 258.713 378.025 259.875 377.543C261.038 377.062 262.284 376.814 263.543 376.814H263.543L278.581 376.815L278.58 386.709Z" fill="#003554"/>
<path d="M352.53 368.75L345.969 372.656L327.779 349.209L337.462 343.443L352.53 368.75Z" fill="#A0616A"/>
<path d="M357.989 374.114L336.834 386.71L336.675 386.442C336.031 385.361 335.606 384.163 335.425 382.918C335.244 381.672 335.31 380.404 335.62 379.184C335.929 377.964 336.476 376.817 337.228 375.808C337.981 374.799 338.925 373.949 340.006 373.305L340.007 373.305L352.927 365.612L357.989 374.114Z" fill="#003554"/>
<path d="M264.402 366.337C259.286 306.105 256.243 250.15 274.943 227.324L275.087 227.147L306.556 239.735L306.608 239.848C306.714 240.079 317.18 263.1 314.739 278.584L322.501 314.29L347.811 356.669C348.014 357.01 348.143 357.391 348.189 357.785C348.234 358.18 348.195 358.58 348.074 358.959C347.954 359.337 347.754 359.686 347.488 359.981C347.222 360.277 346.897 360.512 346.533 360.672L335.534 365.511C334.914 365.782 334.217 365.819 333.571 365.617C332.924 365.415 332.373 364.987 332.016 364.412L304.485 319.518L288.934 285.083C288.849 284.897 288.706 284.743 288.525 284.646C288.344 284.548 288.137 284.513 287.934 284.546C287.732 284.578 287.545 284.677 287.404 284.825C287.263 284.974 287.175 285.165 287.153 285.369L278.533 366.398C278.461 367.087 278.136 367.724 277.621 368.187C277.107 368.65 276.438 368.906 275.746 368.905H267.196C266.494 368.901 265.819 368.635 265.303 368.161C264.786 367.686 264.465 367.036 264.402 366.337V366.337Z" fill="#003554"/>
<path d="M275.049 227.802L274.899 227.73L274.875 227.565C273.7 219.337 275.091 210.195 279.011 200.394C280.943 195.596 284.534 191.653 289.13 189.281C293.726 186.91 299.021 186.269 304.05 187.474V187.474C306.947 188.188 309.664 189.496 312.029 191.314C314.395 193.133 316.356 195.423 317.79 198.04C319.206 200.629 320.068 203.485 320.322 206.425C320.577 209.366 320.218 212.327 319.268 215.121C314.327 229.571 307.916 243.091 307.852 243.226L307.718 243.508L275.049 227.802Z" fill="#007cbd"/>
<path d="M240.714 207.308C241.472 206.71 242.347 206.278 243.283 206.042C244.22 205.806 245.195 205.77 246.146 205.937C247.097 206.104 248.002 206.47 248.801 207.011C249.601 207.552 250.277 208.256 250.785 209.077C250.945 209.337 251.087 209.608 251.208 209.889L281.076 215.925L289.029 197.238C289.332 196.524 289.775 195.877 290.33 195.335C290.885 194.793 291.542 194.366 292.263 194.079C292.984 193.793 293.755 193.652 294.531 193.664C295.307 193.677 296.072 193.843 296.783 194.154C297.495 194.464 298.137 194.912 298.674 195.472C299.212 196.032 299.632 196.693 299.912 197.417C300.193 198.141 300.327 198.913 300.307 199.688C300.287 200.464 300.114 201.228 299.797 201.937L288.144 227.99L288.111 228.046C287.435 228.97 286.48 229.651 285.386 229.989C284.292 230.326 283.119 230.302 282.04 229.92L249.121 218.123C248.944 218.261 248.76 218.39 248.57 218.509C247.749 219.017 246.83 219.347 245.874 219.475C244.917 219.604 243.944 219.529 243.018 219.255C242.092 218.981 241.234 218.515 240.501 217.886C239.768 217.258 239.176 216.482 238.764 215.609C238.68 215.433 238.604 215.254 238.537 215.074C238.036 213.715 237.976 212.233 238.367 210.838C238.758 209.443 239.579 208.208 240.714 207.308V207.308Z" fill="#A0616A"/>
<path d="M357.092 182.787C355.618 180.176 353.471 177.785 350.633 176.82C346.968 175.574 342.999 176.901 339.231 177.787C336.327 178.469 333.294 178.887 330.368 178.311C327.441 177.735 324.619 176.032 323.287 173.363C321.328 169.437 322.978 164.755 322.859 160.369C322.798 157.982 322.196 155.639 321.097 153.518C319.999 151.397 318.434 149.554 316.519 148.126C314.605 146.698 312.391 145.723 310.045 145.275C307.699 144.827 305.282 144.917 302.976 145.539C299.368 144.498 296.101 144.402 293.869 147.176C291.061 147.176 288.367 148.291 286.382 150.277C284.396 152.262 283.281 154.956 283.281 157.764H293.405C292.925 160.345 293.474 163.012 294.933 165.195C296.721 167.821 299.829 169.72 300.427 172.84C301.007 175.862 298.952 178.731 296.796 180.928C294.641 183.125 292.14 185.303 291.467 188.306C291.055 190.587 291.523 192.938 292.778 194.886C294.03 196.811 295.583 198.522 297.378 199.954C305.466 206.883 315.078 211.8 325.429 214.304C332.719 216.059 340.692 216.514 347.459 213.285C350.167 211.994 352.579 210.159 354.547 207.896C356.516 205.633 357.997 202.989 358.901 200.129C359.804 197.269 360.11 194.253 359.798 191.27C359.487 188.287 358.566 185.399 357.092 182.787V182.787Z" fill="#003554"/>
<path d="M359.377 387.358H241.038C240.873 387.358 240.715 387.292 240.598 387.175C240.481 387.058 240.416 386.9 240.416 386.735C240.416 386.569 240.481 386.411 240.598 386.294C240.715 386.177 240.873 386.112 241.038 386.112H359.377C359.542 386.112 359.701 386.177 359.818 386.294C359.934 386.411 360 386.569 360 386.735C360 386.9 359.934 387.058 359.818 387.175C359.701 387.292 359.542 387.358 359.377 387.358Z" fill="#CCCCCC"/>
</g>
<defs>
<clipPath id="clip0">
<rect width="360" height="387.358" fill="white"/>
</clipPath>
</defs>
</svg>
