<svg width="360" height="332" viewBox="0 0 360 332" fill="none" xmlns="http://www.w3.org/2000/svg">
<g clip-path="url(#clip0)">
<path d="M165.303 182.445C165.238 182.445 165.198 182.443 165.184 182.443L157.486 182.443V181.308H165.212C165.39 181.315 169.04 181.418 172.402 177.338C177.413 171.258 181.527 156.205 172.675 119.027C160.772 69.0343 170.7 24.8689 175.52 8.20098C175.758 7.37635 175.8 6.50778 175.645 5.6639C175.489 4.82002 175.139 4.02396 174.622 3.33861C174.106 2.65326 173.437 2.09739 172.669 1.71495C171.901 1.3325 171.054 1.13394 170.196 1.13496H55.239C54.365 1.13613 53.5036 1.34336 52.7247 1.73982C51.9458 2.13629 51.2714 2.71082 50.7562 3.41679C48.714 6.22591 45.9115 11.6225 44.1579 21.3804L43.0409 21.1798C44.8326 11.2099 47.7262 5.65455 49.8381 2.74956C50.4588 1.8989 51.2713 1.2066 52.2098 0.728866C53.1482 0.251128 54.186 0.00141348 55.239 3.08822e-06H170.196C171.23 -0.000992002 172.25 0.238505 173.176 0.699573C174.101 1.16064 174.907 1.83065 175.529 2.65666C176.152 3.48266 176.573 4.44205 176.761 5.459C176.949 6.47596 176.897 7.52263 176.611 8.51632C171.815 25.0978 161.939 69.034 173.779 118.764C182.756 156.466 178.441 171.844 173.24 178.106C169.81 182.236 166.03 182.445 165.303 182.445Z" fill="#E6E6E6"/>
<path d="M144.59 203.158C144.525 203.158 144.485 203.156 144.471 203.156L136.773 203.156V202.021H144.499C144.679 202.027 148.327 202.131 151.689 198.051C156.7 191.971 160.814 176.918 151.962 139.739C140.059 89.7472 149.987 45.5818 154.808 28.9139C155.045 28.0892 155.088 27.2207 154.932 26.3768C154.776 25.5329 154.426 24.7369 153.909 24.0515C153.393 23.3662 152.724 22.8103 151.956 22.4278C151.188 22.0454 150.341 21.8468 149.483 21.8478H34.5261C33.6521 21.849 32.7907 22.0562 32.0118 22.4527C31.233 22.8492 30.5585 23.4237 30.0433 24.1297C28.0011 26.9388 25.1986 32.3354 23.445 42.0933L22.3279 41.8927C24.1197 31.9228 27.0133 26.3674 29.1253 23.4624C29.7459 22.6118 30.5585 21.9195 31.4969 21.4418C32.4353 20.964 33.4731 20.7143 34.5261 20.7129H149.483C150.517 20.7119 151.537 20.9514 152.463 21.4125C153.389 21.8735 154.194 22.5435 154.817 23.3695C155.439 24.1956 155.86 25.1549 156.048 26.1719C156.236 27.1889 156.184 28.2355 155.898 29.2292C151.102 45.8107 141.226 89.7469 153.067 139.477C162.043 177.179 157.728 192.557 152.527 198.819C149.097 202.949 145.317 203.158 144.59 203.158Z" fill="#CCCCCC"/>
<path d="M123.877 223.871C123.813 223.871 123.772 223.869 123.758 223.868L10.573 223.869C9.48326 223.871 8.40984 223.605 7.44665 223.095C6.48345 222.585 5.65983 221.847 5.04788 220.946C4.43592 220.044 4.05429 219.006 3.93635 217.923C3.81842 216.84 3.9678 215.744 4.3714 214.732C8.47813 204.471 14.0076 179.855 4.90002 130.269C-5.85447 71.7165 3.77366 50.5556 8.41232 44.1753C9.03301 43.3247 9.84555 42.6324 10.784 42.1546C11.7224 41.6769 12.7603 41.4272 13.8133 41.4258H128.77C129.804 41.4248 130.824 41.6643 131.75 42.1254C132.676 42.5864 133.481 43.2564 134.104 44.0824C134.726 44.9084 135.147 45.8678 135.335 46.8848C135.523 47.9017 135.471 48.9484 135.185 49.9421C130.389 66.5236 120.513 110.46 132.354 160.19C141.33 197.891 137.015 213.27 131.814 219.532C128.384 223.662 124.604 223.871 123.877 223.871ZM13.8133 42.5607C12.9393 42.5619 12.0779 42.7691 11.299 43.1656C10.52 43.5621 9.84558 44.1366 9.33031 44.8426C4.77768 51.1045 -4.65883 71.9437 6.01625 130.064C14.7167 177.433 10.497 202.482 5.42501 215.153C5.08318 215.989 4.95487 216.897 5.05167 217.795C5.14847 218.694 5.46732 219.553 5.97946 220.297C6.48729 221.048 7.17166 221.663 7.97254 222.088C8.77343 222.513 9.66635 222.735 10.573 222.734H123.786C123.965 222.743 127.614 222.844 130.976 218.764C135.987 212.683 140.102 197.631 131.249 160.452C119.347 110.46 129.274 66.2947 134.095 49.6268C134.332 48.8021 134.375 47.9336 134.219 47.0897C134.063 46.2458 133.713 45.4497 133.196 44.7644C132.68 44.079 132.011 43.5232 131.243 43.1407C130.475 42.7583 129.628 42.5597 128.77 42.5607H13.8133Z" fill="#003554"/>
<path d="M109.217 92.4986H18.9883C17.7843 92.4986 16.6296 92.0203 15.7782 91.1689C14.9268 90.3175 14.4485 89.1628 14.4485 87.9588C14.4485 86.7547 14.9268 85.6 15.7782 84.7486C16.6296 83.8972 17.7843 83.4189 18.9883 83.4189H109.217C110.421 83.4189 111.576 83.8972 112.427 84.7486C113.279 85.6 113.757 86.7547 113.757 87.9588C113.757 89.1628 113.279 90.3175 112.427 91.1689C111.576 92.0203 110.421 92.4986 109.217 92.4986Z" fill="#007cbd"/>
<path d="M109.217 111.793H18.9883C17.7843 111.793 16.6296 111.315 15.7782 110.463C14.9268 109.612 14.4485 108.457 14.4485 107.253C14.4485 106.049 14.9268 104.894 15.7782 104.043C16.6296 103.192 17.7843 102.713 18.9883 102.713H109.217C110.421 102.713 111.576 103.192 112.427 104.043C113.279 104.894 113.757 106.049 113.757 107.253C113.757 108.457 113.279 109.612 112.427 110.463C111.576 111.315 110.421 111.793 109.217 111.793Z" fill="#CCCCCC"/>
<path d="M109.217 131.087H18.9883C17.7843 131.087 16.6296 130.609 15.7782 129.757C14.9268 128.906 14.4485 127.751 14.4485 126.547C14.4485 125.343 14.9268 124.188 15.7782 123.337C16.6296 122.486 17.7843 122.007 18.9883 122.007H109.217C110.421 122.007 111.576 122.486 112.427 123.337C113.279 124.188 113.757 125.343 113.757 126.547C113.757 127.751 113.279 128.906 112.427 129.757C111.576 130.609 110.421 131.087 109.217 131.087Z" fill="#CCCCCC"/>
<path d="M116.027 150.381H25.798C24.594 150.381 23.4393 149.903 22.5879 149.052C21.7365 148.2 21.2582 147.046 21.2582 145.842C21.2582 144.638 21.7365 143.483 22.5879 142.631C23.4393 141.78 24.594 141.302 25.798 141.302H116.027C117.231 141.302 118.386 141.78 119.237 142.631C120.088 143.483 120.567 144.638 120.567 145.842C120.567 147.046 120.088 148.2 119.237 149.052C118.386 149.903 117.231 150.381 116.027 150.381Z" fill="#CCCCCC"/>
<path d="M116.027 169.675H25.798C24.594 169.675 23.4393 169.197 22.5879 168.346C21.7365 167.494 21.2582 166.34 21.2582 165.136C21.2582 163.931 21.7365 162.777 22.5879 161.925C23.4393 161.074 24.594 160.596 25.798 160.596H116.027C117.231 160.596 118.386 161.074 119.237 161.925C120.088 162.777 120.567 163.931 120.567 165.136C120.567 166.34 120.088 167.494 119.237 168.346C118.386 169.197 117.231 169.675 116.027 169.675Z" fill="#CCCCCC"/>
<path d="M61.5491 73.2046H18.9883C17.7843 73.2046 16.6296 72.7263 15.7782 71.875C14.9268 71.0236 14.4485 69.8689 14.4485 68.6648C14.4485 67.4608 14.9268 66.3061 15.7782 65.4547C16.6296 64.6033 17.7843 64.125 18.9883 64.125H61.5491C62.7531 64.125 63.9078 64.6033 64.7592 65.4547C65.6106 66.3061 66.0889 67.4608 66.0889 68.6648C66.0889 69.8689 65.6106 71.0236 64.7592 71.875C63.9078 72.7263 62.7531 73.2046 61.5491 73.2046Z" fill="#007cbd"/>
<path d="M56.0534 200.786C56.9694 196.907 61.2731 195.636 64.7916 195.778C67.0147 195.928 69.2198 196.277 71.3805 196.82C73.6414 197.326 75.8803 197.925 78.1079 198.56C82.1929 199.725 86.2357 201.134 90.388 202.045C93.8448 202.803 97.6013 203.248 101.049 202.201C104.362 201.195 107.174 198.725 108.075 195.309C108.925 192.091 107.758 188.572 104.64 187.101C101.796 185.76 98.203 186.442 96.7933 189.475C95.204 192.895 96.792 196.625 99.3086 199.1C100.739 200.443 102.306 201.633 103.983 202.651C105.686 203.811 107.581 204.66 109.581 205.158C112.864 205.859 116.774 204.826 118.467 201.689C118.844 200.979 119.07 200.199 119.132 199.398C119.232 198.308 117.529 198.315 117.43 199.398C117.143 202.521 113.485 203.984 110.75 203.641C108.904 203.335 107.141 202.651 105.572 201.632C104.058 200.749 102.622 199.736 101.283 198.605C98.9632 196.598 96.7886 193.294 98.3466 190.162C99.6153 187.611 102.922 187.636 104.934 189.281C107.37 191.273 106.935 194.889 105.329 197.255C103.55 199.875 100.325 200.973 97.2853 201.091C93.982 201.22 90.7063 200.462 87.5493 199.566C83.6265 198.452 79.7429 197.205 75.8013 196.156C73.5636 195.561 71.3086 195.024 69.0306 194.606C66.8765 194.131 64.6641 193.978 62.4651 194.151C58.9128 194.561 55.2866 196.629 54.4119 200.333C54.1603 201.399 55.8014 201.853 56.0535 200.786L56.0534 200.786Z" fill="#003554"/>
<path d="M229.985 297.04C230.083 308.214 230.901 319.37 232.435 330.439C232.489 330.827 232.547 331.216 232.601 331.605L337.245 331.02C337.552 330.634 337.855 330.243 338.148 329.848C339.125 328.54 340.04 327.194 340.881 325.802C344.921 319.096 346.771 311.245 344.917 305.828L344.884 305.744C344.484 304.557 343.854 303.462 343.029 302.52C338.803 297.763 330.259 298.556 322.505 302.396C329.459 294.783 334.997 285.177 335.418 276.602C335.83 268.239 331.457 262.264 326.714 257.186C326.558 257.019 326.403 256.855 326.247 256.692C326.171 256.608 326.091 256.529 326.016 256.445C322.315 252.576 318.001 248.761 311.756 249.223C304.907 249.73 297.313 255.467 291.989 262.152C286.664 268.832 283.126 276.421 279.54 283.827C275.949 291.229 272.064 298.82 266.302 305.147C274.106 295.275 280.399 284.043 282.723 273.119C285.048 262.195 283.002 251.703 276.046 246.559C273.935 245.045 271.491 244.059 268.92 243.683C268.62 243.633 268.315 243.593 268.006 243.557C261.566 242.825 253.878 245.051 247.337 250.375C240.134 256.236 235.139 264.925 232.654 273.174C230.169 281.423 229.905 289.363 229.985 297.04Z" fill="#F2F2F2"/>
<path d="M298.449 331.237L300.45 331.226C301.085 330.828 301.724 330.436 302.365 330.048C302.762 329.797 303.164 329.556 303.566 329.31C310.203 325.256 316.882 321.368 323.602 317.645C330.316 313.919 337.064 310.365 343.846 306.982C344.026 306.904 344.172 306.765 344.26 306.59C344.349 306.415 344.372 306.214 344.328 306.023C344.321 305.998 344.31 305.975 344.295 305.953C344.2 305.776 343.989 305.702 343.68 305.853C342.848 306.271 342.012 306.688 341.18 307.114C334.38 310.555 327.609 314.167 320.867 317.951C314.13 321.733 307.431 325.683 300.77 329.799C300.63 329.884 300.49 329.974 300.35 330.059C299.715 330.452 299.084 330.844 298.449 331.237Z" fill="white"/>
<path d="M272.649 331.381L273.886 331.374C274.165 330.984 274.439 330.593 274.719 330.203C281.275 321.008 287.831 311.813 294.385 302.618C305.118 287.565 315.848 272.512 326.575 257.459C326.638 257.378 326.686 257.286 326.714 257.187C326.806 256.853 326.561 256.658 326.247 256.692C326.115 256.711 325.988 256.758 325.875 256.83C325.763 256.902 325.666 256.997 325.593 257.108C319.576 265.55 313.56 273.989 307.545 282.424C296.868 297.402 286.192 312.379 275.518 327.353C274.839 328.304 274.16 329.259 273.481 330.209C273.202 330.6 272.923 330.991 272.649 331.381Z" fill="white"/>
<path d="M245.083 324.196C245.146 326.281 245.284 328.333 245.464 330.366C245.499 330.755 245.534 331.144 245.569 331.532L246.867 331.525C246.828 331.136 246.788 330.748 246.753 330.359C246.479 327.422 246.284 324.451 246.258 321.4C246.223 312.942 247.048 304.501 248.718 296.209C250.494 287.28 253.043 278.524 256.338 270.037C259.796 261.087 263.965 252.428 268.805 244.143C268.897 244.008 268.937 243.845 268.92 243.683C268.866 243.313 268.374 243.204 268.006 243.557C267.933 243.627 267.87 243.706 267.819 243.793C267.221 244.822 266.633 245.855 266.056 246.891C261.394 255.222 257.404 263.911 254.123 272.876C250.998 281.39 248.621 290.16 247.019 299.087C245.518 307.368 244.87 315.782 245.083 324.196V324.196Z" fill="white"/>
<path d="M118.605 201.189C118.39 201.01 118.233 200.771 118.153 200.502C118.073 200.234 118.075 199.948 118.158 199.68C118.24 199.413 118.4 199.175 118.618 198.999C118.835 198.822 119.099 198.713 119.378 198.687C122.473 198.388 125.597 198.708 128.567 199.628L158.822 208.972C159.214 209.093 159.578 209.29 159.894 209.552C160.209 209.813 160.47 210.135 160.661 210.497C160.853 210.859 160.971 211.256 161.009 211.664C161.047 212.072 161.005 212.484 160.884 212.875C160.763 213.267 160.566 213.631 160.304 213.947C160.043 214.262 159.721 214.523 159.359 214.714C158.996 214.906 158.6 215.024 158.192 215.062C157.784 215.1 157.372 215.058 156.98 214.937L126.725 205.593C123.753 204.678 120.993 203.181 118.605 201.189V201.189Z" fill="#003554"/>
<path d="M242.626 240.004C241.804 239.66 241.067 239.139 240.469 238.479C239.87 237.819 239.423 237.035 239.159 236.184C238.896 235.333 238.823 234.434 238.944 233.551C239.066 232.668 239.379 231.823 239.863 231.074L234.677 203.953L247.895 202.923L248.692 229.451C249.896 230.347 250.729 231.653 251.034 233.122C251.339 234.591 251.094 236.121 250.347 237.422C249.599 238.723 248.4 239.704 246.977 240.18C245.554 240.656 244.006 240.594 242.626 240.004Z" fill="#FFB8B8"/>
<path d="M233.862 226.007L220.399 163.311C219.846 160.736 220.339 158.046 221.769 155.835C223.199 153.623 225.449 152.07 228.024 151.517C230.599 150.964 233.289 151.457 235.5 152.887C237.712 154.316 239.265 156.566 239.818 159.142L253.281 221.837C253.422 222.499 253.295 223.19 252.927 223.759C252.56 224.328 251.982 224.727 251.32 224.87L236.894 227.968C236.566 228.038 236.228 228.043 235.898 227.983C235.568 227.923 235.253 227.798 234.972 227.616C234.69 227.434 234.447 227.198 234.256 226.922C234.066 226.646 233.932 226.335 233.862 226.007V226.007Z" fill="#007cbd"/>
<path d="M211.765 324.633H204.809L201.498 297.798L211.767 297.798L211.765 324.633Z" fill="#FFB8B8"/>
<path d="M199.839 322.645H213.256V331.093H191.391C191.391 329.984 191.609 328.885 192.034 327.86C192.459 326.835 193.081 325.904 193.865 325.119C194.65 324.335 195.581 323.713 196.606 323.288C197.631 322.864 198.729 322.645 199.839 322.645V322.645Z" fill="#003554"/>
<path d="M235.032 324.065H228.075L224.765 297.23L235.034 297.231L235.032 324.065Z" fill="#FFB8B8"/>
<path d="M223.105 322.078H236.523V330.526H214.657C214.657 329.416 214.876 328.318 215.301 327.293C215.725 326.268 216.347 325.336 217.132 324.552C217.916 323.768 218.848 323.145 219.873 322.721C220.897 322.296 221.996 322.078 223.105 322.078V322.078Z" fill="#003554"/>
<path d="M203.43 319.627C203.169 319.413 202.954 319.149 202.796 318.851C202.639 318.552 202.542 318.225 202.513 317.889L194.425 228.921C194.393 228.575 194.433 228.227 194.54 227.898C194.648 227.568 194.821 227.264 195.05 227.003C195.279 226.743 195.559 226.532 195.872 226.383C196.185 226.234 196.526 226.151 196.872 226.138L237.435 224.617C237.786 224.603 238.136 224.663 238.463 224.791C238.79 224.92 239.087 225.114 239.336 225.362C239.584 225.611 239.779 225.907 239.907 226.234C240.036 226.561 240.096 226.911 240.083 227.262L236.841 315.889C236.817 316.509 236.568 317.1 236.141 317.55C235.714 318.001 235.138 318.281 234.52 318.338L226.341 319.082C226.002 319.113 225.66 319.075 225.335 318.972C225.011 318.869 224.71 318.702 224.451 318.481C224.192 318.259 223.98 317.989 223.827 317.684C223.675 317.38 223.584 317.048 223.562 316.708L219.808 260.405C219.806 260.297 219.781 260.19 219.737 260.092C219.693 259.993 219.629 259.904 219.55 259.83C219.471 259.756 219.378 259.699 219.277 259.661C219.175 259.624 219.067 259.607 218.959 259.611H218.956C218.847 259.607 218.739 259.624 218.637 259.662C218.536 259.701 218.443 259.759 218.364 259.833C218.285 259.908 218.222 259.997 218.178 260.097C218.134 260.196 218.111 260.303 218.109 260.412L214.75 317.095C214.716 317.702 214.466 318.276 214.045 318.715C213.624 319.153 213.06 319.426 212.455 319.484L205.31 320.199C204.974 320.234 204.635 320.201 204.312 320.103C203.989 320.004 203.69 319.843 203.43 319.627H203.43Z" fill="#003554"/>
<path d="M219.033 138.194C226.731 138.194 232.971 131.954 232.971 124.256C232.971 116.559 226.731 110.318 219.033 110.318C211.335 110.318 205.095 116.559 205.095 124.256C205.095 131.954 211.335 138.194 219.033 138.194Z" fill="#FFB8B8"/>
<path d="M192.192 229.523C191.944 229.241 191.762 228.908 191.658 228.547C191.555 228.185 191.533 227.806 191.595 227.435C194.168 211.795 192.718 188.805 191.048 172.273C190.612 167.887 191.339 163.464 193.157 159.449C194.974 155.434 197.817 151.969 201.399 149.402L208.678 143.164C209.162 142.754 209.779 142.535 210.413 142.549L228.497 143.066C229.149 143.084 229.769 143.351 230.229 143.814L233.024 150.002L233.052 150.023C236.382 152.47 239.054 155.705 240.828 159.437C242.602 163.17 243.423 167.283 243.219 171.411L240.557 226.42C240.523 227.06 240.251 227.664 239.795 228.113C239.338 228.562 238.73 228.825 238.09 228.849L194.197 230.391C194.169 230.392 194.141 230.393 194.113 230.393C193.749 230.393 193.39 230.316 193.058 230.166C192.727 230.016 192.432 229.797 192.192 229.523V229.523Z" fill="#007cbd"/>
<path d="M139.544 206.568C139.522 205.677 139.696 204.792 140.053 203.976C140.41 203.159 140.942 202.431 141.611 201.842C142.28 201.253 143.07 200.819 143.925 200.568C144.781 200.318 145.681 200.258 146.562 200.393L169.184 184.561L175.534 196.199L151.656 207.784C151.332 209.249 150.481 210.544 149.265 211.424C148.049 212.303 146.553 212.706 145.06 212.556C143.567 212.406 142.181 211.714 141.164 210.61C140.148 209.507 139.571 208.069 139.544 206.568L139.544 206.568Z" fill="#FFB8B8"/>
<path d="M158.582 209.32C158.25 209.27 157.932 209.155 157.645 208.981C157.358 208.807 157.109 208.578 156.911 208.307L148.18 196.413C147.78 195.867 147.614 195.184 147.716 194.515C147.819 193.846 148.183 193.244 148.728 192.843L200.422 154.9C202.545 153.341 205.201 152.69 207.804 153.089C209.093 153.287 210.331 153.737 211.446 154.413C212.561 155.089 213.533 155.978 214.304 157.029C215.076 158.081 215.633 159.274 215.944 160.54C216.254 161.807 216.312 163.122 216.114 164.412C215.917 165.701 215.467 166.938 214.791 168.053C214.115 169.169 213.226 170.14 212.175 170.912L160.48 208.855C160.044 209.177 159.517 209.35 158.975 209.35C158.843 209.35 158.712 209.34 158.582 209.32V209.32Z" fill="#007cbd"/>
<path d="M219.746 136.664C221.595 134.397 221.392 130.945 219.909 128.425C218.425 125.905 215.907 124.169 213.316 122.813C210.725 121.457 207.972 120.391 205.533 118.777C203.095 117.163 203.201 110.329 202.552 107.477L204.1 107.993C203.505 107.232 203.314 104.982 202.719 104.22C204.469 104.393 205.815 106.055 207.564 106.227L206.555 103.517C212.555 103.147 216.286 107.317 222.287 106.947C225.26 106.764 228.489 106.648 230.933 108.35C233.057 109.83 234.132 112.391 234.838 114.881C236.352 120.229 236.588 126.219 233.971 131.122C231.355 136.026 225.325 139.33 220.057 137.56L219.746 136.664Z" fill="#003554"/>
<path d="M143.224 331.406H359.433C359.583 331.406 359.727 331.347 359.834 331.24C359.94 331.134 360 330.989 360 330.839C360 330.688 359.94 330.544 359.834 330.438C359.727 330.331 359.583 330.271 359.433 330.271H143.224C143.073 330.271 142.929 330.331 142.823 330.438C142.716 330.544 142.656 330.688 142.656 330.839C142.656 330.989 142.716 331.134 142.823 331.24C142.929 331.347 143.073 331.406 143.224 331.406Z" fill="#003554"/>
</g>
<defs>
<clipPath id="clip0">
<rect width="360" height="331.605" fill="white"/>
</clipPath>
</defs>
</svg>
