<svg width="360" height="236" viewBox="0 0 360 236" fill="none" xmlns="http://www.w3.org/2000/svg">
<g clip-path="url(#clip0)">
<path opacity="0.1" d="M186.193 42.2889C163.457 46.1308 140.753 44.4838 118.913 42.0882C97.0721 39.6927 75.2857 36.5644 52.5404 37.5073C37.9088 38.1126 21.6144 41.0115 11.3981 49.4374C1.56415 57.5417 0.0318711 68.4779 0.0127574 78.3501C-0.0127276 85.7758 0.630766 93.4595 5.8934 99.3751C9.55049 103.478 15.1795 106.419 19.4195 110.206C34.1721 123.363 29.6868 144.079 20.0057 161.692C15.463 169.956 9.90728 178.082 6.81405 186.54C3.72081 194.998 3.30987 204.061 8.84647 210.958C14.3321 217.797 24.9434 221.652 36.007 223.649C58.4784 227.708 83.5141 225.188 107.738 221.773C161.348 214.188 214.405 202.363 267.346 190.567C286.935 186.199 306.609 181.813 325.481 175.518C335.961 172.014 346.633 167.652 353.403 160.864C362.004 152.263 362.22 140.498 353.931 133.468C340.023 121.681 308.543 124.296 297.785 110.821C291.866 103.402 294.443 93.3257 299.155 84.4251C309.256 65.3369 328.781 46.478 326.252 27.4471C324.506 14.3861 311.187 3.57733 293.335 0.761246C274.622 -2.18863 250.59 3.40531 239.816 16.5492C228.74 30.0912 206.269 38.8867 186.193 42.2889Z" fill="#00A6FB"/>
<path d="M204.972 114.44H114.682V135.347H204.972V114.44Z" fill="#003554"/>
<path opacity="0.1" d="M204.972 114.44H114.682V135.347H204.972V114.44Z" fill="black"/>
<path d="M125.485 136.036L126.119 191.851L117.435 213.774L116.762 136.036H125.485Z" fill="#BCBEC9"/>
<path d="M115.635 118.454L203.542 118.983V134.554H115.635V118.454Z" fill="#003554"/>
<path d="M196.02 136.036L203.542 137.096V212.927L196.02 189.732V136.036Z" fill="#BCBEC9"/>
<path d="M248.765 115.278H206.399V205.303H248.765V115.278Z" fill="#EFEFF0"/>
<path d="M245.375 117.778H209.789V186.979H245.375V117.778Z" fill="#003554"/>
<path opacity="0.1" d="M245.375 117.778H209.789V186.979H245.375V117.778Z" fill="black"/>
<path d="M245.375 119.196H209.789V134.554H245.375V119.196Z" fill="#003554"/>
<path d="M245.375 136.036H209.789V168.656H245.375V136.036Z" fill="#003554"/>
<path d="M245.375 170.669H209.789V203.29H245.375V170.669Z" fill="#003554"/>
<path opacity="0.1" d="M245.375 170.669H209.789V203.29H245.375V170.669Z" fill="black"/>
<path d="M211.273 211.165C212.54 211.165 213.567 209.853 213.567 208.234C213.567 206.616 212.54 205.304 211.273 205.304C210.006 205.304 208.98 206.616 208.98 208.234C208.98 209.853 210.006 211.165 211.273 211.165Z" fill="#003554"/>
<path d="M243.082 211.305C244.348 211.305 245.375 209.993 245.375 208.374C245.375 206.756 244.348 205.443 243.082 205.443C241.815 205.443 240.788 206.756 240.788 208.374C240.788 209.993 241.815 211.305 243.082 211.305Z" fill="#003554"/>
<path d="M114.364 213.774H117.435L116.59 116.059H111.927L114.364 213.774Z" fill="#EFEFF0"/>
<path d="M203.542 115.278V212.927H206.399V116.058L203.542 115.278Z" fill="#EFEFF0"/>
<path d="M116.74 133.599V137.096H203.542V134.554L116.74 133.599Z" fill="#EFEFF0"/>
<path d="M122.624 108.712H232.668L248.66 114.007V117.078L111.398 116.02V112.895L122.624 108.712Z" fill="white"/>
<path d="M111.398 112.895L248.66 114.007V117.078L111.398 116.02V112.895Z" fill="#BCBEC9"/>
<path d="M123.831 149.313L123.194 149.218C123.194 149.189 123.194 149.163 123.194 149.138C123.175 148.988 123.153 148.842 123.13 148.692C123.392 148.899 123.64 149.106 123.869 149.313H123.831Z" fill="url(#paint0_linear)"/>
<path d="M109.987 198.502C110.401 198.407 110.821 198.327 111.242 198.27C114.13 197.858 117.075 198.292 119.722 199.518C119.454 201.487 119.19 203.523 119.757 205.424C120.152 206.762 120.945 207.973 121.114 209.368C121.539 209.441 121.936 209.632 122.26 209.917C122.583 210.203 122.821 210.573 122.946 210.987C123.068 211.352 123.129 211.735 123.127 212.121C123.124 212.597 123.064 213.072 122.949 213.535C122.91 213.905 122.729 214.245 122.443 214.483C122.157 214.721 121.79 214.838 121.42 214.809C118.954 215.09 116.536 214.118 114.243 213.166L109.783 211.312C109.26 211.095 108.735 210.875 108.234 210.607C107.286 210.095 106.444 209.406 105.753 208.578C105.607 208.43 105.504 208.245 105.457 208.043C105.374 207.482 106.03 207.148 106.447 206.769C106.57 206.653 106.677 206.523 106.766 206.38C107.26 205.635 107.307 204.606 107.604 203.727C108.305 201.64 110.471 200.296 111.235 198.26C111.277 198.149 111.315 198.037 111.347 197.922" fill="#A26565"/>
<path opacity="0.1" d="M123.127 212.12C123.124 212.597 123.064 213.072 122.949 213.535C122.91 213.904 122.729 214.244 122.443 214.482C122.157 214.72 121.79 214.838 121.42 214.809C118.954 215.089 116.536 214.118 114.243 213.165L109.783 211.311C109.26 211.095 108.735 210.875 108.234 210.607C107.286 210.095 106.444 209.406 105.753 208.578C105.607 208.43 105.504 208.245 105.457 208.043C105.374 207.482 106.03 207.148 106.447 206.769C106.57 206.653 106.677 206.522 106.766 206.38C107.996 206.644 109.521 207.418 110.461 207.718C111.403 207.974 112.306 208.352 113.15 208.842C114.322 209.594 115.166 210.754 116.16 211.709C117.154 212.665 118.438 213.535 119.824 213.417C120.556 213.306 121.263 213.062 121.907 212.697L123.127 212.12Z" fill="black"/>
<path d="M117.906 166.85C117.989 167.139 117.981 167.446 117.885 167.731C117.788 168.016 117.606 168.264 117.364 168.443C116.947 168.701 116.409 168.666 115.995 168.946C115.482 169.306 115.408 170.02 115.319 170.638C115.001 172.762 113.946 174.69 113.045 176.642C112.143 178.595 111.382 180.726 111.713 182.848C111.939 184.288 112.647 185.823 111.984 187.12C111.821 187.438 111.579 187.722 111.395 188.031C110.487 189.547 111.003 191.468 110.968 193.233C110.981 193.429 110.938 193.625 110.843 193.797C110.704 193.96 110.533 194.092 110.34 194.186C110.017 194.423 109.751 194.731 109.563 195.086C109.375 195.44 109.269 195.833 109.254 196.234C109.227 197.036 109.324 197.838 109.541 198.61C109.576 198.922 109.714 199.214 109.932 199.439C110.186 199.606 110.485 199.691 110.789 199.681C112.791 199.843 114.754 200.32 116.606 201.095C117.814 201.598 118.986 202.229 120.27 202.471C120.394 202.51 120.525 202.523 120.654 202.509C120.783 202.495 120.908 202.455 121.022 202.392C121.183 202.246 121.294 202.053 121.34 201.841C121.834 200.216 122.334 198.54 122.165 196.852C122.092 196.126 121.898 195.415 121.847 194.689C121.624 191.822 123.564 189.235 124.178 186.406C124.456 185.132 124.456 183.813 124.653 182.526C125.188 179 127.132 175.836 127.88 172.348C127.984 171.698 128.146 171.058 128.364 170.437C128.922 169.086 130.212 167.99 130.241 166.528C130.258 166.206 130.174 165.887 129.999 165.617C129.698 165.287 129.299 165.064 128.861 164.98C127.131 164.504 125.369 164.148 123.589 163.916C122.773 163.756 121.941 163.698 121.111 163.744C120.033 163.871 118.997 164.236 118.078 164.814C116.848 165.572 117.638 165.754 117.906 166.85Z" fill="#023F63"/>
<path opacity="0.05" d="M117.906 166.85C117.989 167.139 117.981 167.446 117.885 167.731C117.788 168.016 117.606 168.264 117.364 168.443C116.947 168.701 116.409 168.666 115.995 168.946C115.482 169.306 115.408 170.02 115.319 170.638C115.001 172.762 113.946 174.69 113.045 176.642C112.143 178.595 111.382 180.726 111.713 182.848C111.939 184.288 112.647 185.823 111.984 187.12C111.821 187.438 111.579 187.722 111.395 188.031C110.487 189.547 111.003 191.468 110.968 193.233C110.981 193.429 110.938 193.625 110.843 193.797C110.704 193.96 110.533 194.092 110.34 194.186C110.017 194.423 109.751 194.731 109.563 195.086C109.375 195.44 109.269 195.833 109.254 196.234C109.227 197.036 109.324 197.838 109.541 198.61C109.576 198.922 109.714 199.214 109.932 199.439C110.186 199.606 110.485 199.691 110.789 199.681C112.791 199.843 114.754 200.32 116.606 201.095C117.814 201.598 118.986 202.229 120.27 202.471C120.394 202.51 120.525 202.523 120.654 202.509C120.783 202.495 120.908 202.455 121.022 202.392C121.183 202.246 121.294 202.053 121.34 201.841C121.834 200.216 122.334 198.54 122.165 196.852C122.092 196.126 121.898 195.415 121.847 194.689C121.624 191.822 123.564 189.235 124.178 186.406C124.456 185.132 124.456 183.813 124.653 182.526C125.188 179 127.132 175.836 127.88 172.348C127.984 171.698 128.146 171.058 128.364 170.437C128.922 169.086 130.212 167.99 130.241 166.528C130.258 166.206 130.174 165.887 129.999 165.617C129.698 165.287 129.299 165.064 128.861 164.98C127.131 164.504 125.369 164.148 123.589 163.916C122.773 163.756 121.941 163.698 121.111 163.744C120.033 163.871 118.997 164.236 118.078 164.814C116.848 165.572 117.638 165.754 117.906 166.85Z" fill="black"/>
<path d="M111.672 214.86H108.954L107.177 178.341L107.053 176.263L109.362 175.451L109.518 177.659L111.672 214.86Z" fill="#003554"/>
<path opacity="0.1" d="M109.518 177.659L107.177 178.341L107.053 176.264L109.362 175.451L109.518 177.659Z" fill="black"/>
<path d="M145.767 222.585L141.285 223.127L120.636 176.263L115.068 175.855L105.288 178.71L103.386 234.506H98.9038L100.669 176.671L89.9363 176.945L70.7844 224.621H66.71L86.8526 168.901L87.6299 166.754L117.648 165.725L125.131 169.921L125.227 170.163L145.767 222.585Z" fill="#003554"/>
<path opacity="0.1" d="M125.227 170.163C118.776 172.106 112.08 174.227 112.08 174.227C112.08 174.227 105.973 176.359 103.386 174.227C103.06 173.973 102.695 173.772 102.306 173.632C102.642 173.872 103.004 174.071 103.386 174.227L86.8526 168.898L87.6267 166.754L117.648 165.725L125.131 169.921L125.227 170.163Z" fill="black"/>
<path d="M94.6924 160.915L106.916 158.198C106.916 158.198 136.121 163.632 138.294 165.805C138.294 165.805 114.931 170.558 112.35 172.176C109.77 173.795 94.4184 175.585 94.6924 160.915Z" fill="white"/>
<path d="M89.4361 130.368C88.4805 133.398 85.8714 136.128 82.6954 136.258C82.4643 136.285 82.2304 136.243 82.0232 136.137C81.625 135.889 81.6155 135.306 81.7779 134.863C81.9404 134.42 82.2239 134.022 82.2685 133.557C82.278 133.462 82.2716 133.366 82.2494 133.273C82.1666 132.894 81.8576 132.557 81.4944 132.636C81.7417 132.438 81.9064 132.155 81.9565 131.843C82.0065 131.53 81.9383 131.21 81.7652 130.945C81.621 130.782 81.491 130.607 81.3765 130.422C81.1121 129.881 81.5231 129.272 81.6951 128.692C82.0487 127.418 81.1504 126.144 81.0771 124.815C81.0134 123.627 81.6155 122.509 81.7652 121.33C82.0041 119.419 81.0548 117.587 80.9433 115.679C80.8668 114.348 81.195 113.029 81.5613 111.745C81.8799 110.598 82.2398 109.439 82.2621 108.241C82.2621 107.371 82.1124 106.511 82.071 105.644C82.0049 104.852 82.1489 104.057 82.4883 103.338C82.7089 102.915 83.0845 102.595 83.5364 102.443C84.5813 102.093 85.2662 102.637 85.4191 103.628C85.6739 105.313 85.5274 107.033 85.8619 108.725C86.1711 110.307 86.6397 111.853 87.2604 113.341C87.8242 114.685 88.5091 115.985 88.9424 117.377C89.2685 118.525 89.5018 119.696 89.64 120.881C90.0669 124.064 90.4014 127.339 89.4361 130.368Z" fill="#00A6FB"/>
<path d="M161.992 207.473C161.589 208.041 161.07 208.517 160.47 208.871C159.87 209.225 159.202 209.447 158.51 209.524C157.127 209.696 155.691 209.349 154.349 209.728C154.142 209.763 153.946 209.848 153.779 209.976C153.612 210.104 153.48 210.272 153.394 210.464C153.361 210.723 153.34 210.984 153.333 211.245C153.177 212.095 152.059 212.286 151.189 212.28L147.602 212.258C146.857 212.258 146.032 212.216 145.497 211.7C145.242 211.418 145.099 211.054 145.093 210.674C145.087 210.294 145.219 209.926 145.465 209.636C145.576 209.504 145.712 209.396 145.866 209.317C145.642 209.243 145.443 209.108 145.291 208.928C145.139 208.747 145.041 208.528 145.006 208.295C144.941 207.826 144.963 207.35 145.073 206.89C145.073 205.558 145.391 203.328 146.328 202.287C147.478 200.99 149.472 199.315 151.208 198.967C151.795 198.855 152.399 198.881 152.973 199.045C153.548 199.208 154.076 199.503 154.515 199.907C155.337 200.672 155.936 201.869 157.064 202.003C157.678 202.08 158.271 201.79 158.879 201.685C159.571 201.596 160.273 201.723 160.89 202.048C161.506 202.374 162.007 202.882 162.323 203.504C162.477 203.819 162.585 204.155 162.642 204.501C162.81 205.538 162.578 206.601 161.992 207.473Z" fill="#A26565"/>
<path opacity="0.1" d="M161.992 207.473C161.589 208.041 161.07 208.517 160.47 208.871C159.87 209.224 159.202 209.447 158.51 209.524C157.127 209.696 155.691 209.349 154.349 209.728C154.142 209.762 153.946 209.848 153.779 209.976C153.612 210.104 153.48 210.272 153.394 210.464C153.361 210.723 153.34 210.984 153.333 211.245C153.177 212.095 152.059 212.286 151.189 212.28L147.602 212.258C146.857 212.258 146.032 212.216 145.497 211.7C145.242 211.418 145.099 211.054 145.093 210.674C145.087 210.294 145.219 209.925 145.465 209.636C147.535 209.55 149.571 209.636 151.635 209.209C152.473 209.04 153.298 208.817 154.146 208.699C155.98 208.438 157.933 208.661 159.618 207.884C161.023 207.247 162.03 205.95 162.626 204.504C162.798 205.538 162.571 206.599 161.992 207.473V207.473Z" fill="black"/>
<path d="M152.527 202.436C151.253 203.424 149.759 204.195 148.153 204.278C146.548 204.36 144.844 203.64 144.057 202.245C142.907 200.197 143.926 197.349 142.518 195.469C142.078 194.88 141.445 194.463 140.979 193.892C140.514 193.322 140.247 192.465 140.661 191.86C140.161 192.051 139.632 191.567 139.485 191.051C139.339 190.535 139.431 189.981 139.342 189.458C139.109 188.072 137.749 187.184 137.096 185.954C136.443 184.724 136.532 183.128 136.459 181.672C136.296 178.125 134.976 174.73 132.7 172.004C132.267 171.488 131.712 170.962 131.037 170.988C131.155 169.822 130.378 168.707 129.371 168.121C128.364 167.535 127.167 167.337 126.001 167.222C114.236 166.063 101.978 170.437 90.7454 166.757C87.6203 165.735 84.6067 164.024 82.6954 161.342C81.9508 160.321 81.4182 159.161 81.1287 157.932C80.8393 156.702 80.799 155.426 81.0102 154.181V154.136C81.453 151.874 82.6476 151.317 84.6258 150.285C86.9096 149.077 89.2966 148.076 91.7584 147.293C96.5369 145.799 101.682 145.261 106.613 146.357C108.916 146.873 111.137 147.726 113.443 148.227C114.351 148.424 115.265 148.564 116.186 148.682C117.616 148.861 119.053 148.978 120.493 149.144C125.097 149.674 129.631 150.694 134.019 152.186C135.653 152.741 137.287 153.375 138.692 154.378C139.803 155.185 140.743 156.205 141.456 157.379C142.169 158.552 142.642 159.856 142.846 161.214C142.98 162.151 142.983 163.126 143.187 164.034C143.38 164.797 143.636 165.543 143.952 166.264C146.674 172.994 148.898 179.914 150.606 186.97C150.703 187.494 150.883 188 151.138 188.467C151.546 189.127 152.247 189.57 152.658 190.229C153.614 191.784 152.693 193.953 153.54 195.571C153.833 196.132 154.321 196.575 154.614 197.135C155.57 198.974 154.158 201.172 152.527 202.436Z" fill="#023F63"/>
<path opacity="0.1" d="M136.249 165.834C136.702 165.475 137.092 165.045 137.405 164.56C137.719 164.072 137.844 163.486 137.756 162.913C137.88 163.638 137.832 164.382 137.617 165.086C137.402 165.789 137.025 166.433 136.516 166.965C135.717 167.783 134.216 168.586 133.047 168.306C133.213 167.369 135.507 166.465 136.249 165.834Z" fill="black"/>
<path opacity="0.1" d="M116.345 149.956C116.249 150.298 116.069 150.61 115.822 150.865C115.575 151.119 115.269 151.309 114.931 151.415C114.251 151.623 113.54 151.706 112.831 151.661H112.194C103.835 151.476 95.3869 149.622 87.2221 151.39C86.2381 151.593 85.2727 151.877 84.336 152.241C83.1425 152.711 82.025 153.355 81.0197 154.152V154.107C81.4625 151.846 82.6572 151.288 84.6354 150.256C86.9171 149.059 89.3009 148.067 91.7585 147.293C96.5369 145.799 101.682 145.261 106.613 146.357C108.916 146.873 111.137 147.726 113.443 148.227C114.351 148.424 115.265 148.564 116.186 148.682C116.364 149.082 116.42 149.525 116.345 149.956V149.956Z" fill="black"/>
<path d="M116.345 149.501C116.25 149.843 116.07 150.156 115.823 150.412C115.576 150.667 115.269 150.857 114.931 150.963C114.251 151.172 113.54 151.254 112.831 151.205H112.194C103.835 151.021 95.3869 149.167 87.2222 150.935C86.2386 151.138 85.2733 151.421 84.336 151.782C83.0862 152.28 81.9204 152.968 80.8796 153.821C80.6354 153.15 80.3922 152.478 80.1501 151.804C79.857 151.002 80.7872 150.823 80.9656 150.103C81.0835 149.616 80.8828 149.062 80.7808 148.542C80.7547 148.415 80.7377 148.286 80.7299 148.157C80.6725 147.007 81.0835 146.344 82.0264 145.723C84.8234 143.875 88.2352 142.608 91.4272 141.655C93.1241 141.119 94.8771 140.779 96.6516 140.642C99.1618 140.495 101.669 140.961 104.112 141.55C107.116 142.292 110.088 143.273 112.752 144.844C114.058 145.605 115.332 146.561 116.036 147.918C116.317 148.395 116.426 148.954 116.345 149.501Z" fill="#A26565"/>
<path opacity="0.1" d="M89.4361 130.368C88.4804 133.398 85.8714 136.128 82.6954 136.258C82.4643 136.285 82.2303 136.243 82.0232 136.137C81.625 135.889 81.6154 135.306 81.7779 134.863C81.9404 134.42 82.2239 134.022 82.2685 133.557C82.278 133.462 82.2715 133.366 82.2494 133.274C83.9346 130.897 85.5688 128.495 86.2155 125.682C86.3464 125.198 86.3863 124.693 86.3333 124.195C86.2473 123.621 85.9574 123.102 85.7982 122.548C85.5178 121.566 85.6484 120.528 85.7281 119.512C86.0598 115.037 85.3125 110.548 83.5491 106.422C83.1191 105.428 82.6285 104.421 82.4787 103.361C82.6993 102.938 83.0749 102.617 83.5268 102.465C84.5717 102.115 85.2566 102.66 85.4095 103.65C85.6644 105.336 85.5178 107.056 85.8523 108.747C86.1616 110.329 86.6301 111.876 87.2508 113.363C87.8146 114.708 88.4996 116.007 88.9328 117.4C89.259 118.547 89.4923 119.719 89.6304 120.904C90.0669 124.064 90.4014 127.339 89.4361 130.368Z" fill="black"/>
<path opacity="0.1" d="M116.345 149.501C116.25 149.843 116.07 150.156 115.823 150.412C115.576 150.667 115.269 150.857 114.931 150.963C114.251 151.172 113.54 151.254 112.831 151.206H112.194C109.473 149.398 106.202 148.609 102.956 148.976C101.917 149.1 100.879 149.342 99.8404 149.246C97.741 149.055 96.0399 147.545 94.17 146.58C92.0421 145.529 89.6488 145.138 87.2973 145.457C84.9457 145.776 82.743 146.791 80.972 148.37L80.7904 148.53C80.7642 148.403 80.7472 148.274 80.7394 148.144C80.6821 146.994 81.093 146.332 82.036 145.71C84.8329 143.863 88.2447 142.595 91.4367 141.642C93.1337 141.106 94.8866 140.766 96.6611 140.629C99.1714 140.483 101.678 140.948 104.122 141.537C107.126 142.279 110.098 143.261 112.761 144.831C114.058 145.605 115.332 146.561 116.036 147.918C116.317 148.395 116.426 148.954 116.345 149.501Z" fill="black"/>
<path d="M123.49 114.606L123.446 114.72C122.732 116.571 121.42 118.135 120.579 119.938C119.518 122.222 119.257 124.784 119.021 127.294C118.817 129.444 118.616 131.607 118.779 133.764C119.187 139.077 121.783 144.117 122.477 149.329C122.648 150.532 122.692 151.751 122.608 152.964C122.551 153.731 122.41 154.556 121.901 155.123C121.391 155.69 120.4 155.913 119.852 155.369C120.098 154.9 120.346 154.435 120.595 153.967C119.139 152.836 116.947 153.648 115.246 152.941C114.497 152.623 113.899 152.049 113.271 151.536C111.839 150.372 110.188 149.505 108.416 148.988C106.644 148.47 104.787 148.312 102.953 148.523C101.914 148.65 100.876 148.892 99.8372 148.797C97.7379 148.602 96.0368 147.096 94.1668 146.13C92.039 145.08 89.6462 144.689 87.2948 145.008C84.9434 145.326 82.7406 146.339 80.9688 147.918C80.5228 148.332 79.9239 148.816 79.376 148.555C79.1642 148.425 78.9931 148.238 78.8822 148.016C76.7956 144.452 78.3311 139.855 80.561 136.382C82.791 132.91 85.744 129.709 86.6615 125.685C86.794 125.201 86.8339 124.696 86.7794 124.197C86.6934 123.624 86.4035 123.105 86.2442 122.551C85.9638 121.569 86.0945 120.531 86.1741 119.515C86.5083 115.039 85.7633 110.549 84.0015 106.422C83.4918 105.234 82.8865 104.029 82.8865 102.739C82.8865 100.707 84.3424 99.0216 85.5465 97.3874C86.9323 95.5078 88.095 93.4276 89.8503 91.8826C91.5132 90.414 93.9215 89.5157 95.9794 90.2611C99.4762 89.4122 103.075 89.0615 106.67 89.2194C107.913 89.2768 109.197 89.4074 110.286 90.0095C111.452 90.6466 112.29 91.7807 113.437 92.4592C114.274 92.9593 115.24 93.1951 116.151 93.5455C118.667 94.5281 120.743 96.3854 122 98.7763C123.274 101.245 123.592 104.084 123.873 106.849C124.14 109.451 124.395 112.156 123.49 114.606Z" fill="#00A6FB"/>
<path opacity="0.1" d="M118.779 133.764C119.187 139.078 121.783 144.117 122.477 149.329C121.088 148.153 119.155 146.972 118.897 145.605C118.61 144.127 117.693 142.19 117.54 140.696C117.387 139.202 118.435 137.377 117.336 136.351C116.801 135.851 118.225 135.991 117.702 135.478C116.527 134.334 116.237 132.573 116.163 130.938C116.039 128.046 116.406 125.121 115.874 122.277C115.555 120.521 114.889 118.849 114.357 117.145C113.739 115.16 113.293 113.128 112.847 111.092C112.408 109.282 112.089 107.445 111.892 105.594C111.755 104.001 111.818 102.312 112.529 100.86C113.239 99.4072 114.676 98.2285 116.288 98.2508C121.678 98.3209 120.748 105.629 121.933 109.005C122.407 110.35 123.048 111.649 123.306 113.051C123.4 113.601 123.451 114.157 123.459 114.714C122.745 116.565 121.432 118.129 120.591 119.932C119.531 122.216 119.269 124.777 119.034 127.288C118.817 129.444 118.616 131.607 118.779 133.764Z" fill="black"/>
<path d="M122.283 108.923C122.758 110.267 123.398 111.567 123.656 112.968C124.086 115.316 123.42 117.811 124.143 120.085C124.332 120.571 124.489 121.067 124.615 121.573C124.739 122.296 124.596 123.035 124.596 123.771C124.596 124.956 124.968 126.103 125.3 127.24C126.42 131.105 127.162 135.069 127.514 139.078C127.566 140.155 127.736 141.223 128.02 142.263C128.154 142.616 128.269 142.975 128.364 143.34C128.45 143.827 128.47 144.323 128.425 144.815C128.339 146.376 128.164 147.943 128.339 149.498C128.514 151.052 129.081 152.629 130.25 153.671C129.205 153.897 128.1 154.123 127.081 153.789C125.647 153.321 124.787 151.878 124.057 150.565C123.134 148.889 119.623 147.379 119.26 145.497C118.976 144.022 118.059 142.085 117.906 140.588C117.753 139.09 118.798 137.271 117.699 136.246C117.167 135.746 118.591 135.883 118.065 135.373C116.893 134.229 116.603 132.468 116.53 130.83C116.406 127.941 116.769 125.016 116.24 122.172C115.921 120.416 115.256 118.744 114.724 117.036C114.106 115.055 113.66 113.023 113.214 110.984C112.773 109.174 112.454 107.337 112.258 105.485C112.121 103.893 112.181 102.201 112.895 100.748C113.609 99.2958 115.045 98.1203 116.654 98.1394C122.022 98.235 121.098 105.546 122.283 108.923Z" fill="#00A6FB"/>
<path opacity="0.1" d="M106.922 110.168C107.425 110.758 108.072 111.404 108.833 111.29C108.776 111.381 108.684 111.447 108.579 111.472C108.473 111.497 108.362 111.479 108.269 111.424C108.087 111.302 107.94 111.134 107.846 110.936L106.756 109.098C106.613 108.859 105.625 107.467 105.383 108.27C105.288 108.611 106.677 109.882 106.922 110.168Z" fill="black"/>
<path opacity="0.1" d="M106.336 114.752C106.305 114.152 106.051 113.584 105.625 113.159C105.243 112.812 104.796 112.543 104.31 112.366C103.115 111.876 101.701 111.481 100.404 111.544C100.876 112.232 102.389 112.643 103.147 113.032C104.222 113.586 105.285 114.16 106.336 114.752Z" fill="black"/>
<path opacity="0.1" d="M109.729 127.8C109.509 129.432 108.174 130.668 106.823 131.623C105.473 132.579 103.956 133.401 103.074 134.783C102.462 135.739 102.188 136.848 101.669 137.845C101.096 138.944 100.239 139.868 99.5537 140.9C98.8688 141.932 98.3336 143.165 98.5438 144.388C98.5469 144.444 98.5614 144.499 98.5866 144.55C98.6118 144.6 98.6472 144.645 98.6904 144.681C98.756 144.709 98.8277 144.719 98.8985 144.711C98.9693 144.704 99.0369 144.678 99.0949 144.636C100.484 143.91 101.032 142.25 101.615 140.814C102.227 139.364 102.916 137.947 103.679 136.57C104.023 135.933 104.402 135.239 105.042 134.885C105.481 134.703 105.93 134.546 106.387 134.417C107.035 134.12 107.604 133.673 108.047 133.114C109.786 131.039 110.694 128.394 110.595 125.688C110.576 125.118 110.544 122.372 109.687 123.22C108.83 124.067 109.875 126.692 109.729 127.8Z" fill="black"/>
<path d="M111.828 65.2445C114.567 66.4391 116.925 69.0672 116.839 72.0457C116.766 75.174 114.147 78.1207 115.049 81.1184C115.571 82.8577 117.145 84.0237 118.39 85.3457C123.134 90.3662 123.124 99.1298 118.365 104.141C116.543 106.052 114.201 107.412 112.274 109.238C105.479 115.641 105.189 126.717 108.827 135.315C106.04 135.918 103.199 136.238 100.347 136.271C99.0121 136.271 97.3779 136.045 96.8937 134.799C96.4477 133.649 97.2122 132.095 96.333 131.244C95.9189 130.846 95.2977 130.792 94.7402 130.699C91.1532 130.119 88.2097 127.256 86.8654 123.882C85.521 120.509 85.5911 116.711 86.362 113.162C86.91 110.598 87.7669 107.776 86.4958 105.482C84.903 102.596 80.3221 101.379 80.3922 98.0786C80.4495 95.374 83.6383 94.0583 85.4478 92.0482C88.7863 88.3465 87.1967 82.6029 87.1903 77.6142C87.1903 73.2244 88.7258 68.6945 91.9942 65.7701C96.8554 61.3835 106.218 62.8075 111.828 65.2445Z" fill="#A26565"/>
<g opacity="0.1">
<path opacity="0.1" d="M87.0183 102.211C85.6198 99.6879 81.9468 98.4391 81.093 95.9575C80.6659 96.5367 80.4259 97.2324 80.4049 97.9517C80.3349 101.252 84.9094 102.469 86.5086 105.358C87.0337 106.381 87.2548 107.533 87.1457 108.678C87.649 106.46 88.0918 104.148 87.0183 102.211Z" fill="black"/>
<path opacity="0.1" d="M115.415 77.0349C115.988 75.3624 116.82 73.674 116.861 71.9379C116.867 71.7498 116.862 71.5615 116.845 71.374C116.205 73.2918 115.224 75.1522 115.415 77.0349Z" fill="black"/>
<path opacity="0.1" d="M87.5662 85.945C88.6621 82.4823 87.716 78.1881 87.7128 74.3462C87.7128 73.8811 87.7319 73.4129 87.7669 72.9478C87.3895 74.4325 87.199 75.9585 87.1999 77.4904C87.2063 80.2332 87.6873 83.2086 87.5662 85.945Z" fill="black"/>
<path opacity="0.1" d="M118.897 100.882C117.075 102.794 114.733 104.154 112.806 105.979C109.365 109.219 107.597 113.657 107.155 118.362C107.976 114.858 109.636 111.631 112.296 109.124C114.207 107.308 116.565 105.954 118.387 104.027C120.554 101.664 121.813 98.6096 121.939 95.4062C121.389 97.4533 120.344 99.3338 118.897 100.882V100.882Z" fill="black"/>
<path opacity="0.1" d="M100.879 133.003C99.5441 133.003 97.9099 132.774 97.4257 131.528C96.9797 130.382 97.7442 128.827 96.865 127.973C96.4509 127.575 95.8265 127.521 95.2722 127.428C91.6884 126.852 88.7449 123.985 87.4006 120.614C86.4098 118.123 86.1964 115.406 86.4449 112.724C86.4194 112.829 86.3971 112.934 86.3748 113.042C85.6166 116.591 85.537 120.391 86.8781 123.765C88.2193 127.139 91.166 130.002 94.7498 130.579C95.3168 130.671 95.9412 130.729 96.3426 131.124C97.2314 131.978 96.4573 133.532 96.9032 134.679C97.3875 135.924 99.0217 136.17 100.356 136.154C103.208 136.121 106.049 135.801 108.837 135.198C108.443 134.269 108.1 133.319 107.808 132.353C105.52 132.76 103.202 132.977 100.879 133.003V133.003Z" fill="black"/>
</g>
<path opacity="0.1" d="M111.312 119.11C112.099 119.703 112.952 117.444 112.465 116.88C112.334 117.027 111.191 119.027 111.312 119.11Z" fill="black"/>
<path opacity="0.1" d="M114.666 159.994C115.593 159.676 116.578 159.357 117.183 158.593C117.683 157.978 118.094 155.538 117.036 156.707C116.138 157.71 115.714 159.032 114.666 159.994Z" fill="black"/>
<path opacity="0.1" d="M124.105 157.436C123.994 158.188 123.787 158.969 123.255 159.51C123.156 159.612 122.936 159.676 122.907 159.539C123.502 159.223 124.054 158.833 124.551 158.379C125.628 157.312 125.774 154.684 124.134 153.986C124.118 155.14 124.28 156.264 124.105 157.436Z" fill="black"/>
<path d="M135.436 152.699C135.436 152.699 126.396 149.147 123.127 149.514C119.859 149.88 126.829 155.031 126.829 155.031L130.996 157.841C130.996 157.841 133.544 156.885 133.713 156.812C133.882 156.739 135.436 152.699 135.436 152.699Z" fill="#023F63"/>
<path d="M73.2309 114.593C73.2309 114.593 80.0226 110.656 88.9869 115.549C97.9513 120.442 99.4453 149.237 99.4453 149.237C99.4453 149.237 95.7787 178.573 109.916 172.046C109.916 172.046 135.72 164.034 138.303 165.799C138.303 165.799 140.75 165.799 135.86 166.885C130.97 167.971 112.079 173.957 112.079 173.957C112.079 173.957 105.973 176.091 103.386 173.957C100.799 171.823 93.4691 174.231 92.5166 159.558C91.8863 150.312 90.7526 141.106 89.1207 131.983L86.6009 124.513L73.2309 114.593Z" fill="#003554"/>
<path d="M72.4154 159.962C72.4154 159.962 75.4035 130.215 70.504 119.483C66.2417 110.13 82.724 114.504 87.0246 115.778C87.6902 115.977 88.2707 116.391 88.6748 116.956C91.2233 120.54 100.366 134.904 97.6709 154.123C97.6709 154.123 96.5846 171.239 103.376 173.954L82.4501 167.213C80.7521 166.665 79.0287 166.209 77.2894 165.814C75.0722 165.311 71.4597 163.881 72.4154 159.962Z" fill="white"/>
<path d="M221.251 215.498H223.968L225.749 178.978L225.87 176.901L223.56 176.088L223.407 178.296L221.251 215.498Z" fill="#003554"/>
<path opacity="0.1" d="M223.407 178.296L225.749 178.978L225.87 176.901L223.56 176.088L223.407 178.296Z" fill="black"/>
<path d="M198.563 201.395C198.496 201.895 198.367 202.385 198.18 202.854C197.987 203.466 197.573 203.984 197.018 204.306C196.645 204.46 196.245 204.539 195.842 204.539C194.342 204.628 192.755 204.606 191.465 203.841C190.915 203.487 190.411 203.067 189.965 202.589C187.065 199.709 184.43 196.574 182.09 193.224C181.698 192.66 181.293 191.994 181.469 191.312C184.5 190.471 187.378 189.154 189.996 187.41C190.358 187.133 190.762 186.917 191.194 186.773C191.933 186.615 192.694 186.587 193.443 186.69C194.166 186.808 194.198 186.83 194.475 187.646C194.934 189.025 194.858 190.513 195.374 191.892C195.701 192.654 196.1 193.384 196.565 194.071C197.897 196.298 198.919 198.926 198.563 201.395Z" fill="#A26565"/>
<path opacity="0.1" d="M198.563 201.394C198.496 201.894 198.367 202.384 198.18 202.853C197.987 203.465 197.572 203.983 197.018 204.306C196.645 204.46 196.245 204.539 195.842 204.538C194.342 204.628 192.755 204.605 191.465 203.841C190.915 203.487 190.411 203.066 189.965 202.589C187.065 199.708 184.43 196.574 182.09 193.223C181.698 192.659 181.293 191.993 181.469 191.312C182.457 191.038 183.432 190.712 184.387 190.337L184.434 190.372C185.412 191.07 186.123 192.07 186.814 193.051L189.044 196.189C189.441 196.805 189.911 197.372 190.442 197.877C191.101 198.406 191.829 198.843 192.605 199.177C193.654 199.684 194.702 200.19 195.791 200.598C196.495 200.881 197.687 200.993 198.563 201.394Z" fill="black"/>
<path d="M200.62 167.376C200.401 167.905 200.134 168.413 199.824 168.895C196.863 173.867 194.579 179.212 193.032 184.788C192.593 184.689 192.344 185.288 192.347 185.744C192.351 186.199 192.347 186.773 191.927 186.938C191.803 186.986 191.663 186.986 191.541 187.04C191.274 187.161 191.197 187.502 191.159 187.795L190.783 190.554C190.653 191.51 190.538 192.545 191.006 193.389C191.329 193.891 191.748 194.324 192.239 194.664L198.457 199.569C198.712 199.77 199.028 199.983 199.333 199.872C200.031 199.617 199.413 198.368 199.971 197.862C200.34 197.515 200.926 197.776 201.439 197.734C202.108 197.683 202.615 197.069 202.784 196.422C202.902 195.763 202.914 195.09 202.819 194.428C202.777 194.126 202.812 193.818 202.92 193.533C203.111 193.231 203.372 192.98 203.682 192.803C204.761 192.015 205.63 190.975 206.214 189.773C206.798 188.571 207.078 187.245 207.03 185.909C206.979 185.503 206.994 185.091 207.075 184.689C207.204 184.322 207.399 183.981 207.651 183.683C209.91 180.628 211.792 177.311 213.662 174.002C214.739 172.09 215.835 170.15 216.211 167.997C216.243 167.917 216.257 167.83 216.25 167.744C216.244 167.658 216.217 167.574 216.173 167.5C216.128 167.426 216.067 167.363 215.994 167.316C215.921 167.27 215.838 167.241 215.752 167.232C214.819 166.941 213.868 166.713 212.904 166.55C209.977 165.958 207.151 165.044 204.303 164.164C201.455 163.285 201.477 165.076 200.62 167.376Z" fill="#023F63"/>
<path d="M187.155 223.222L191.64 223.764L212.286 176.9L217.855 176.493L227.638 179.347L229.536 235.143H234.019L232.254 177.308L242.986 177.582L262.138 225.258H266.212L246.07 169.538L245.296 167.391L215.274 166.362L207.791 170.558L207.696 170.8L187.155 223.222Z" fill="#003554"/>
<path opacity="0.1" d="M207.696 170.8C214.147 172.743 220.843 174.865 220.843 174.865C220.843 174.865 226.95 176.996 229.536 174.865C229.863 174.61 230.227 174.409 230.616 174.269C230.281 174.509 229.918 174.709 229.536 174.865L246.07 169.535L245.305 167.391L215.284 166.362L207.801 170.558L207.696 170.8Z" fill="black"/>
<path d="M238.23 161.552L226.007 158.835C226.007 158.835 196.801 164.27 194.628 166.442C194.628 166.442 217.992 171.195 220.572 172.813C223.152 174.432 238.504 176.222 238.23 161.552Z" fill="white"/>
<path d="M192.873 205.22C192.137 206.622 190.325 207.017 188.732 207.039C186.52 207.067 184.324 206.674 182.259 205.883C181.08 205.431 179.949 204.848 178.732 204.516C176.92 204.019 174.909 204.061 173.317 203.064C172.472 202.501 171.774 201.744 171.281 200.856C171.189 200.7 171.099 200.538 171.017 200.372C170.255 198.891 169.902 197.167 170.325 195.568C170.749 193.969 172.288 192.207 174.072 192.233C176.19 192.265 178.716 193.268 180.761 193.787C183.31 194.424 185.858 195.16 188.111 196.508C189.996 197.642 191.663 199.27 192.551 201.258C192.722 201.641 192.863 202.037 192.972 202.443C193.249 203.36 193.313 204.383 192.873 205.22Z" fill="#A26565"/>
<path opacity="0.1" d="M192.873 205.221C192.137 206.622 190.325 207.017 188.732 207.04C186.52 207.067 184.324 206.675 182.259 205.883C181.08 205.431 179.949 204.848 178.732 204.517C176.92 204.02 174.909 204.061 173.317 203.064C172.472 202.501 171.774 201.744 171.281 200.856C171.189 200.7 171.099 200.538 171.017 200.372C171.335 200.398 171.628 200.429 171.787 200.445C173.743 200.633 175.61 201.347 177.477 201.885C180.069 202.634 182.745 203.051 185.441 203.128C187.352 203.182 189.347 203.042 191.016 202.108C191.514 201.794 192.031 201.51 192.564 201.258C192.735 201.641 192.876 202.037 192.985 202.443C193.249 203.36 193.313 204.383 192.873 205.221Z" fill="black"/>
<path d="M206.562 144.649C202.42 143.971 198.203 143.805 194.004 143.639L188.869 143.435C188.504 143.393 188.133 143.438 187.789 143.566C187.492 143.757 187.21 143.97 186.945 144.203C186.429 144.554 185.769 144.592 185.148 144.627C180.741 144.87 176.359 145.438 172.036 146.328C169.806 146.783 167.49 147.379 165.814 148.918C164.043 150.546 163.266 153.027 163.205 155.429C163.145 157.831 163.776 160.192 164.441 162.498C165.289 165.275 165.757 168.153 165.834 171.055C165.804 171.86 165.835 172.666 165.926 173.466C166.074 174.23 166.299 174.977 166.598 175.696L168.943 181.956C169.15 182.504 169.354 183.049 169.58 183.584C169.806 184.119 170.023 184.539 170.217 185.043C170.504 185.731 170.73 186.444 170.956 187.155L172.517 192.057L172.721 192.695C173.285 194.459 173.861 196.256 174.925 197.772C175.989 199.289 177.636 200.512 179.487 200.604C180.084 200.582 180.682 200.598 181.277 200.652C181.785 200.776 182.277 200.954 182.746 201.184C184.136 201.762 185.628 202.053 187.133 202.041C188.518 202.041 190.057 201.656 190.809 200.49C191.223 199.853 191.331 199.069 191.446 198.317C191.647 196.807 191.841 195.23 191.328 193.797C191.009 192.94 190.474 192.204 190.105 191.36C189.589 190.21 189.42 188.939 189.085 187.725C188.362 185.113 186.889 182.769 184.849 180.984C184.124 178.116 183.592 175.202 183.256 172.262C183.209 171.611 183.079 170.969 182.87 170.351C182.498 169.395 181.743 168.621 181.427 167.646C181.131 166.741 181.22 165.696 180.682 164.916C185.164 166.149 189.601 165.872 194.256 165.798C195.746 165.803 197.235 165.718 198.716 165.544C199.406 165.417 200.104 165.343 200.805 165.321C202.245 165.321 203.596 165.958 204.918 166.518C208.655 168.111 212.592 169.363 216.651 169.535C220.84 169.71 224.981 168.726 229.074 167.751C230.874 167.321 232.744 166.856 234.171 165.674C235.599 164.492 236.401 162.361 235.522 160.74C234.853 159.52 233.467 158.921 232.174 158.411C228.593 156.997 224.994 155.617 221.544 153.907C216.275 151.339 212.334 145.605 206.562 144.649Z" fill="#023F63"/>
<path d="M199.177 130.237C198.677 131.32 197.836 132.206 197.215 133.225C196.176 134.903 195.833 136.921 196.259 138.848C196.483 139.801 196.923 140.689 197.544 141.445C198.166 142.201 198.952 142.805 199.843 143.209C200.639 143.526 201.475 143.728 202.328 143.808C203.449 143.945 204.644 143.974 205.635 143.432C206.376 142.987 206.985 142.351 207.396 141.591C208.253 140.157 208.741 138.542 209.187 136.933C210.012 133.964 210.716 130.919 210.614 127.838C210.579 126.778 210.368 125.583 209.489 124.971C209.035 124.709 208.532 124.544 208.011 124.487L203.809 123.735C202.997 123.589 201.579 122.993 200.875 123.579C200.171 124.165 200.117 125.898 199.996 126.711C199.805 127.912 199.687 129.132 199.177 130.237Z" fill="#A1616A"/>
<path d="M250.252 117.916L249.153 127.128C248.926 128.772 248.795 130.427 248.761 132.085C248.761 133.009 248.79 134.035 248.179 134.726C247.879 135.041 247.501 135.268 247.083 135.385C245.748 135.8 244.292 135.43 243.018 134.86C242.272 134.541 241.511 134.079 241.173 133.337C240.977 132.823 240.896 132.271 240.934 131.722C240.934 126.227 241.454 120.496 244.324 115.813C244.569 115.354 244.914 114.955 245.334 114.647C246.13 114.137 247.172 114.281 248.073 114.558C248.628 114.727 250.125 114.915 250.479 115.408C250.832 115.902 250.329 117.282 250.252 117.916Z" fill="#A1616A"/>
<path d="M221.094 84.6005C227.428 84.6005 232.563 79.466 232.563 73.1323C232.563 66.7986 227.428 61.6641 221.094 61.6641C214.761 61.6641 209.626 66.7986 209.626 73.1323C209.626 79.466 214.761 84.6005 221.094 84.6005Z" fill="#A1616A"/>
<path d="M218.027 90.2231C217.985 91.1153 217.742 91.9866 217.316 92.7715C223.171 91.8796 229.012 90.8857 234.837 89.7898C232.904 88.7963 231.443 87.0785 230.772 85.0114C230.456 83.903 230.282 82.7585 230.256 81.606C230.164 79.7783 230.199 77.9464 230.361 76.1235C228.323 76.337 226.392 77.1015 224.449 77.7577C222.495 78.418 220.508 78.9742 218.495 79.4238C217.523 79.6404 216.545 79.8252 215.564 79.9972C214.417 80.2011 213.866 80.1979 214.663 81.2046C216.8 83.8932 218.326 86.6265 218.027 90.2231Z" fill="#A1616A"/>
<path d="M221.55 88.691C220.037 88.9171 218.45 89.172 217.243 90.1086C216.783 90.5033 216.346 90.9234 215.934 91.3669C213.535 93.6956 210.149 94.6321 207.237 96.2759C206.762 96.5106 206.341 96.8415 206.001 97.2475C205.682 97.6903 205.52 98.2542 205.185 98.6938C204.797 99.2035 204.182 99.522 203.879 100.086C203.577 100.65 203.644 101.249 203.612 101.848C203.539 103.163 203.042 104.412 202.656 105.67C200.888 111.694 201.857 118.413 199.181 124.102C199.304 124.43 199.492 124.729 199.734 124.982C199.976 125.235 200.267 125.437 200.589 125.574C201.262 125.817 201.965 125.968 202.678 126.023L208.607 126.759C209.454 126.864 210.353 126.963 211.127 126.609C210.419 128.561 209.918 130.583 209.633 132.64C209.488 133.897 209.265 135.144 208.964 136.373C208.148 139.177 206.097 141.512 203.666 143.108C203.36 143.268 203.102 143.506 202.917 143.799C202.599 144.436 203.07 145.15 203.405 145.774C204.376 147.583 204.243 149.756 204.23 151.808C204.217 153.859 204.424 156.111 205.858 157.583C206.705 158.453 207.865 158.924 208.992 159.373L218.266 163.078C219.796 163.73 221.374 164.262 222.987 164.671C225.43 165.229 227.969 165.206 230.476 165.098C232.133 165.028 233.787 164.922 235.439 164.779C236.097 164.777 236.742 164.607 237.316 164.286C237.809 163.896 238.189 163.381 238.415 162.795C239.705 159.988 240.138 156.713 242.139 154.362C243.512 152.747 245.643 151.457 245.799 149.345C245.872 148.294 245.404 147.271 245.397 146.217C245.397 144.92 246.076 143.687 246.035 142.394C245.949 140.288 243.964 138.683 243.649 136.599C242.846 131.318 245.528 126.042 247.175 120.961C247.471 120.053 247.854 119.05 248.726 118.661C249.599 118.273 250.829 118.476 251.141 117.616C251.928 115.456 252.116 112.924 252.014 110.627C251.957 109.299 251.485 107.999 251.539 106.667C251.578 105.731 251.877 104.82 251.957 103.886C252.078 102.475 251.705 101.073 251.32 99.71C251.208 99.2232 251.041 98.7508 250.823 98.302C250.587 97.8948 250.31 97.5136 249.994 97.1647L248.443 95.3202C247.717 94.4569 246.949 93.5618 245.894 93.1253C245.554 92.2811 244.464 91.6982 243.684 91.2331C242.897 90.7867 242.084 90.3877 241.25 90.0385L232.477 86.1648C232.149 85.9997 231.797 85.8858 231.435 85.8271C230.901 85.8092 230.37 85.9184 229.887 86.1457C227.211 87.2065 224.417 88.2641 221.55 88.691Z" fill="#00A6FB"/>
<path d="M212.258 75.1262C211.92 73.938 211.057 72.9122 210.926 71.6825C210.808 70.5899 211.289 69.5322 211.563 68.4682C211.837 67.4042 211.827 66.1045 210.983 65.3973C210.843 65.2763 210.665 65.1679 210.614 64.9896C210.512 64.671 210.834 64.3811 210.932 64.0593C211.114 63.4222 210.327 62.7182 210.614 62.1066C210.776 61.7721 211.184 61.6542 211.541 61.5491C212.904 61.1445 214.287 60.2462 214.583 58.8541C215.65 59.3 216.787 58.4622 217.606 57.6499C218.425 56.8376 219.432 55.9105 220.559 56.1558L220.308 56.6687C222.046 56.0374 223.948 56.0161 225.701 56.6082H225.166C226.703 56.6342 228.194 57.1386 229.431 58.0513C229.294 58.0513 229.281 58.2552 229.336 58.3698C229.782 59.4115 230.928 59.9626 232.034 60.2207C232.7 60.38 233.423 60.4946 233.91 60.9725C234.398 61.4503 234.407 62.4474 233.764 62.6768C235.076 63.1877 236.319 63.862 237.462 64.6837C237.781 64.9163 238.141 65.2317 238.099 65.6394C238.054 65.8441 237.988 66.0437 237.902 66.2351C237.838 66.5752 237.861 66.9257 237.969 67.2545L238.322 68.7135C238.711 70.335 239.017 72.2878 237.835 73.4633C238.277 74.2899 238.441 75.2371 238.303 76.1644C238.165 77.0916 237.731 77.9497 237.067 78.6113C237.161 78.8959 237.193 79.1971 237.162 79.4951C237.131 79.7932 237.037 80.0812 236.887 80.3404C236.736 80.5995 236.533 80.8238 236.289 80.9985C236.046 81.1732 235.768 81.2944 235.474 81.3541C235.866 81.9657 235.506 82.8386 234.888 83.2208C234.27 83.6031 233.493 83.6063 232.773 83.5394C232.053 83.4725 231.323 83.31 230.604 83.4183C229.555 83.5808 228.53 84.2944 227.52 83.9758C227.143 83.8149 226.782 83.6209 226.44 83.396C225.733 83.017 224.911 82.9309 224.127 82.7589C222.791 82.4718 221.523 81.9311 220.39 81.1661C219.64 80.715 219.042 80.0492 218.673 79.2547C217.973 77.4835 219.151 75.1612 217.912 73.7181C217.186 72.8771 215.746 72.8644 214.933 73.5843C214.529 73.9443 214.475 74.7025 214.054 74.9733C213.468 75.1217 212.861 75.1733 212.258 75.1262Z" fill="#464353"/>
<path opacity="0.1" d="M196.674 166.471C196.221 166.113 195.83 165.682 195.517 165.197C195.203 164.709 195.079 164.123 195.167 163.55C195.043 164.275 195.09 165.019 195.305 165.723C195.52 166.427 195.897 167.07 196.406 167.602C197.206 168.421 198.706 169.223 199.875 168.943C199.709 168.006 197.416 167.102 196.674 166.471Z" fill="black"/>
<path d="M259.691 115.23C259.691 115.23 252.9 111.293 243.935 116.186C234.971 121.079 233.477 149.874 233.477 149.874C233.477 149.874 237.144 179.21 223.006 172.683C223.006 172.683 197.202 164.671 194.619 166.436C194.619 166.436 192.172 166.436 197.062 167.522C201.952 168.608 220.843 174.594 220.843 174.594C220.843 174.594 226.95 176.729 229.536 174.594C232.123 172.46 239.453 174.868 240.406 160.195C241.036 150.949 242.17 141.744 243.802 132.62L246.321 125.15L259.691 115.23Z" fill="#003554"/>
<path d="M260.507 160.599C260.507 160.599 257.519 130.852 262.418 120.12C266.681 110.767 250.198 115.141 245.898 116.415C245.232 116.614 244.652 117.029 244.248 117.594C241.699 121.177 232.556 135.541 235.251 154.76C235.251 154.76 236.338 171.877 229.546 174.591L250.472 167.85C252.17 167.302 253.894 166.846 255.633 166.451C257.85 165.948 261.463 164.518 260.507 160.599Z" fill="white"/>
<path opacity="0.1" d="M315.366 218.444C332.51 218.444 346.407 216.212 346.407 213.459C346.407 210.705 332.51 208.473 315.366 208.473C298.223 208.473 284.326 210.705 284.326 213.459C284.326 216.212 298.223 218.444 315.366 218.444Z" fill="#00A6FB"/>
<path d="M316.363 117.951H314.366V162.922H316.363V117.951Z" fill="#535461"/>
<path d="M328.918 162.785L328.794 164.811L328.615 167.678L328.542 168.87L328.367 171.737L328.29 172.928L328.112 175.795L326.099 208.311C326.007 209.706 325.387 211.015 324.366 211.971C323.345 212.927 321.999 213.459 320.6 213.459H310.129C308.728 213.458 307.38 212.923 306.36 211.963C305.339 211.003 304.723 209.69 304.637 208.292L302.618 175.773L302.442 172.906L302.369 171.715L302.187 168.847L302.114 167.656L301.939 164.789L301.812 162.763C301.79 162.375 301.847 161.986 301.98 161.62C302.113 161.255 302.319 160.92 302.585 160.637C302.851 160.353 303.173 160.127 303.529 159.972C303.886 159.816 304.271 159.735 304.659 159.733H326.073C326.464 159.736 326.85 159.818 327.208 159.975C327.566 160.131 327.888 160.36 328.154 160.645C328.421 160.931 328.626 161.269 328.757 161.636C328.888 162.004 328.943 162.395 328.918 162.785V162.785Z" fill="#003554"/>
<path d="M328.794 164.811L328.615 167.669H302.117L301.939 164.811H328.794Z" fill="#C0E9FE"/>
<path d="M328.542 168.863L328.367 171.724H302.369L302.191 168.863H328.542Z" fill="#C0E9FE"/>
<path d="M328.29 172.916L328.112 175.773H302.621L302.442 172.916H328.29Z" fill="#C0E9FE"/>
<path d="M298.887 134.806C310.521 143.222 315.366 156.385 315.366 156.385C315.366 156.385 301.35 155.904 289.713 147.488C278.076 139.071 273.237 125.912 273.237 125.912C273.237 125.912 287.256 126.393 298.887 134.806Z" fill="#00A6FB"/>
<path d="M273.237 125.912C273.237 125.912 287.785 133.987 292.455 140.674C297.126 147.36 315.366 156.385 315.366 156.385" stroke="#535461" stroke-width="2" stroke-miterlimit="10"/>
<path d="M306.396 117.852C312.729 122.43 315.366 129.597 315.366 129.597C315.366 129.597 307.721 129.333 301.404 124.755C295.087 120.177 292.452 113.01 292.452 113.01C292.452 113.01 300.066 113.271 306.396 117.852Z" fill="#00A6FB"/>
<path d="M292.452 113.01C292.452 113.01 300.372 117.406 302.911 121.044C305.45 124.682 315.382 129.597 315.382 129.597" stroke="#535461" stroke-width="2" stroke-miterlimit="10"/>
<path d="M324.566 129.231C317.294 137.224 315.755 147.669 315.755 147.669C315.755 147.669 326.01 145.153 333.276 137.157C340.542 129.161 342.087 118.718 342.087 118.718C342.087 118.718 331.839 121.238 324.566 129.231Z" fill="#00A6FB"/>
<path d="M342.094 118.721C342.094 118.721 332.62 126.915 330.211 132.56C327.803 138.204 315.755 147.669 315.755 147.669" stroke="#535461" stroke-width="2" stroke-miterlimit="10"/>
<path d="M177.432 109.99V110.716H155.894V110.127C156.485 109.905 157.044 109.607 157.557 109.241C158.472 108.586 159.217 107.722 159.731 106.722C160.246 105.721 160.514 104.613 160.514 103.488C160.514 102.9 160.44 102.314 160.294 101.745C160.033 100.721 159.547 99.7674 158.87 98.9554C158.193 98.1434 157.343 97.4933 156.382 97.0527H177.286C176.325 97.4933 175.475 98.1434 174.798 98.9554C174.121 99.7674 173.634 100.721 173.374 101.745C173.229 102.315 173.156 102.9 173.157 103.488C173.157 104.612 173.424 105.721 173.938 106.722C174.451 107.722 175.196 108.586 176.11 109.241C176.524 109.536 176.967 109.787 177.432 109.99V109.99Z" fill="#DFE6F5"/>
<path opacity="0.1" d="M177.286 97.0527C176.325 97.4933 175.475 98.1434 174.798 98.9554C174.121 99.7674 173.634 100.721 173.374 101.745H160.294C160.033 100.721 159.547 99.7674 158.87 98.9554C158.193 98.1434 157.343 97.4933 156.382 97.0527H177.286Z" fill="black"/>
<path d="M131.235 93.3418V97.4321C131.235 99.6875 132.885 101.519 134.924 101.519H198.289C200.327 101.519 201.981 99.6875 201.981 97.4321V93.3418H131.235Z" fill="#DFE6F5"/>
<path opacity="0.1" d="M177.432 109.99V110.716H155.894V110.127C156.485 109.905 157.044 109.608 157.557 109.241H176.11C176.524 109.536 176.967 109.787 177.432 109.99V109.99Z" fill="black"/>
<path d="M183.469 109.467H149.858C149.261 109.467 148.778 109.95 148.778 110.546C148.778 111.141 149.261 111.624 149.858 111.624H183.469C184.066 111.624 184.549 111.141 184.549 110.546C184.549 109.95 184.066 109.467 183.469 109.467Z" fill="#DFE6F5"/>
<path d="M201.981 48.5425C201.981 48.0578 201.885 47.5778 201.7 47.13C201.514 46.6823 201.242 46.2754 200.899 45.9329C200.556 45.5903 200.149 45.3186 199.701 45.1334C199.253 44.9482 198.773 44.8531 198.289 44.8535H134.924C134.439 44.8531 133.959 44.9482 133.511 45.1335C133.064 45.3187 132.657 45.5904 132.314 45.9331C131.972 46.2757 131.7 46.6825 131.515 47.1303C131.329 47.578 131.234 48.0579 131.235 48.5425V94.1382H201.981V48.5425Z" fill="#474157"/>
<path d="M200.05 50.1893V89.3724C200.051 89.6111 200.004 89.8476 199.913 90.0683C199.822 90.2889 199.688 90.4895 199.52 90.6584C199.351 90.8274 199.151 90.9614 198.93 91.0529C198.71 91.1443 198.473 91.1914 198.234 91.1914H134.981C134.742 91.1914 134.506 91.1443 134.285 91.0529C134.065 90.9614 133.864 90.8274 133.696 90.6584C133.527 90.4895 133.393 90.2889 133.302 90.0683C133.211 89.8476 133.165 89.6111 133.165 89.3724V50.1893C133.164 49.8705 133.247 49.5571 133.407 49.2814C133.567 49.0052 133.796 48.7759 134.072 48.6165C134.349 48.4571 134.662 48.3733 134.981 48.3735H198.234C198.716 48.3735 199.178 48.5648 199.518 48.9054C199.859 49.2459 200.05 49.7078 200.05 50.1893V50.1893Z" fill="#006AA8"/>
<path d="M166.608 47.4624C167.077 47.4624 167.458 47.0815 167.458 46.6118C167.458 46.142 167.077 45.7612 166.608 45.7612C166.138 45.7612 165.757 46.142 165.757 46.6118C165.757 47.0815 166.138 47.4624 166.608 47.4624Z" fill="white"/>
<path d="M166.608 99.7001C167.767 99.7001 168.707 98.7602 168.707 97.6008C168.707 96.4414 167.767 95.5015 166.608 95.5015C165.448 95.5015 164.508 96.4414 164.508 97.6008C164.508 98.7602 165.448 99.7001 166.608 99.7001Z" fill="white"/>
<path d="M200.05 50.1893H133.171C133.171 49.7078 133.363 49.2459 133.703 48.9054C134.044 48.5648 134.506 48.3735 134.987 48.3735H198.234C198.716 48.3735 199.178 48.5648 199.518 48.9054C199.859 49.2459 200.05 49.7078 200.05 50.1893Z" fill="#C8CAD7"/>
<path d="M134.981 49.7368C135.232 49.7368 135.436 49.5328 135.436 49.2812C135.436 49.0296 135.232 48.8257 134.981 48.8257C134.729 48.8257 134.525 49.0296 134.525 49.2812C134.525 49.5328 134.729 49.7368 134.981 49.7368Z" fill="#EDEDF4"/>
<path d="M136.344 49.7368C136.596 49.7368 136.8 49.5328 136.8 49.2812C136.8 49.0296 136.596 48.8257 136.344 48.8257C136.093 48.8257 135.889 49.0296 135.889 49.2812C135.889 49.5328 136.093 49.7368 136.344 49.7368Z" fill="#EDEDF4"/>
<path d="M137.708 49.7368C137.959 49.7368 138.163 49.5328 138.163 49.2812C138.163 49.0296 137.959 48.8257 137.708 48.8257C137.456 48.8257 137.252 49.0296 137.252 49.2812C137.252 49.5328 137.456 49.7368 137.708 49.7368Z" fill="#EDEDF4"/>
</g>
<defs>
<linearGradient id="paint0_linear" x1="123.108" y1="149.004" x2="123.847" y2="149.004" gradientUnits="userSpaceOnUse">
<stop stop-color="#808080" stop-opacity="0.25"/>
<stop offset="0.54" stop-color="#808080" stop-opacity="0.12"/>
<stop offset="1" stop-color="#808080" stop-opacity="0.1"/>
</linearGradient>
<clipPath id="clip0">
<rect width="360" height="235.143" fill="white"/>
</clipPath>
</defs>
</svg>
